<svg width="32" height="32" viewBox="0 0 32 32" fill="none" xmlns="http://www.w3.org/2000/svg">
<g filter="url(#filter0_d)">
<path d="M27.2442 1.32561C27.2237 1.08561 27.0342 0.894614 26.7952 0.871114L17.9715 0.00261813C17.825 -0.0128818 17.6755 0.0411179 17.569 0.146617L4.14625 13.5671C3.95125 13.7631 3.95125 14.0785 4.14625 14.274L13.7194 23.8535C13.8134 23.9475 13.9404 24 14.0734 24C14.2059 24 14.3334 23.9475 14.4269 23.8535L27.8537 10.4276C27.9582 10.3236 28.0107 10.1781 27.9982 10.0311L27.2442 1.32561ZM23.9976 7.45008C23.5381 7.91008 22.9256 8.16458 22.2731 8.16458C21.6206 8.16458 21.0081 7.91008 20.5481 7.44808C19.598 6.50109 19.597 4.95309 20.5471 3.9986C21.0091 3.5376 21.6211 3.2841 22.2731 3.2841C22.9251 3.2841 23.5376 3.5376 23.9981 3.9976C24.4616 4.4611 24.7161 5.07609 24.7151 5.73009C24.7136 6.38109 24.4586 6.99158 23.9976 7.45008Z" fill="#FEFEFE"/>
</g>
<defs>
<filter id="filter0_d" x="0" y="0" width="32" height="32" filterUnits="userSpaceOnUse" color-interpolation-filters="sRGB">
<feFlood flood-opacity="0" result="BackgroundImageFix"/>
<feColorMatrix in="SourceAlpha" type="matrix" values="0 0 0 0 0 0 0 0 0 0 0 0 0 0 0 0 0 0 127 0"/>
<feOffset dy="4"/>
<feGaussianBlur stdDeviation="2"/>
<feColorMatrix type="matrix" values="0 0 0 0 0 0 0 0 0 0 0 0 0 0 0 0 0 0 0.25 0"/>
<feBlend mode="normal" in2="BackgroundImageFix" result="effect1_dropShadow"/>
<feBlend mode="normal" in="SourceGraphic" in2="effect1_dropShadow" result="shape"/>
</filter>
</defs>
</svg>
