<svg width="58" height="58" viewBox="0 0 58 58" fill="none" xmlns="http://www.w3.org/2000/svg">
<g opacity="0.8" filter="url(#filter0_d)">
<rect x="5" y="1" width="48" height="48" rx="24" fill="black" fill-opacity="0.5"/>
<rect x="4.5" y="0.5" width="49" height="49" rx="24.5" stroke="white"/>
</g>
<path d="M23.4 15.9933L23.4005 15.9936C23.4003 15.9935 23.4002 15.9934 23.4 15.9933L23.5 15.8201L23.4 15.9933ZM40.1 25.5196C40.5 25.2887 40.5 24.7113 40.1 24.4804C40.1 24.4804 40.1 24.4804 40.1 24.4804L23.9 15.1273C23.5 14.8964 23 15.185 23 15.6469L23 34.3531C23 34.815 23.5 35.1036 23.9 34.8727L40.1 25.5196C40.1 25.5196 40.1 25.5196 40.1 25.5196Z" stroke="white"/>
<defs>
<filter id="filter0_d" x="0" y="0" width="58" height="58" filterUnits="userSpaceOnUse" color-interpolation-filters="sRGB">
<feFlood flood-opacity="0" result="BackgroundImageFix"/>
<feColorMatrix in="SourceAlpha" type="matrix" values="0 0 0 0 0 0 0 0 0 0 0 0 0 0 0 0 0 0 127 0"/>
<feOffset dy="4"/>
<feGaussianBlur stdDeviation="2"/>
<feColorMatrix type="matrix" values="0 0 0 0 0 0 0 0 0 0 0 0 0 0 0 0 0 0 0.25 0"/>
<feBlend mode="normal" in2="BackgroundImageFix" result="effect1_dropShadow"/>
<feBlend mode="normal" in="SourceGraphic" in2="effect1_dropShadow" result="shape"/>
</filter>
</defs>
</svg>
