<svg width="25" height="25" viewBox="0 0 25 25" fill="none" xmlns="http://www.w3.org/2000/svg">
<path fill-rule="evenodd" clip-rule="evenodd" d="M19.9541 10.5234C18.8495 10.5234 17.9541 11.4189 17.9541 12.5234C17.9541 13.628 18.8495 14.5234 19.9541 14.5234C21.0587 14.5234 21.9541 13.628 21.9541 12.5234C21.9541 11.4189 21.0587 10.5234 19.9541 10.5234ZM10.9541 12.5234C10.9541 11.4189 11.8495 10.5234 12.9541 10.5234C14.0587 10.5234 14.9541 11.4189 14.9541 12.5234C14.9541 13.628 14.0587 14.5234 12.9541 14.5234C11.8495 14.5234 10.9541 13.628 10.9541 12.5234ZM3.9541 12.5234C3.9541 11.4189 4.84953 10.5234 5.9541 10.5234C7.05867 10.5234 7.9541 11.4189 7.9541 12.5234C7.9541 13.628 7.05867 14.5234 5.9541 14.5234C4.84953 14.5234 3.9541 13.628 3.9541 12.5234Z" fill="white"/>
</svg>
