<svg width="21" height="21" viewBox="0 0 21 21" fill="none" xmlns="http://www.w3.org/2000/svg">
<path fill-rule="evenodd" clip-rule="evenodd" d="M8.64453 4.24674C8.64453 5.16722 9.39072 5.91341 10.3112 5.91341C11.2317 5.91341 11.9779 5.16722 11.9779 4.24674C11.9779 3.32627 11.2317 2.58008 10.3112 2.58008C9.39072 2.58008 8.64453 3.32627 8.64453 4.24674ZM10.3112 11.7467C9.39072 11.7467 8.64453 11.0006 8.64453 10.0801C8.64453 9.1596 9.39072 8.41341 10.3112 8.41341C11.2317 8.41341 11.9779 9.1596 11.9779 10.0801C11.9779 11.0006 11.2317 11.7467 10.3112 11.7467ZM10.3112 17.5801C9.39072 17.5801 8.64453 16.8339 8.64453 15.9134C8.64453 14.9929 9.39072 14.2467 10.3112 14.2467C11.2317 14.2467 11.9779 14.9929 11.9779 15.9134C11.9779 16.8339 11.2317 17.5801 10.3112 17.5801Z" fill="#737373"/>
</svg>
