<svg width="21" height="21" viewBox="0 0 21 21" fill="none" xmlns="http://www.w3.org/2000/svg">
<path fill-rule="evenodd" clip-rule="evenodd" d="M8.99902 4.5485C8.99902 5.46898 9.74522 6.21517 10.6657 6.21517C11.5862 6.21517 12.3324 5.46898 12.3324 4.5485C12.3324 3.62803 11.5862 2.88184 10.6657 2.88184C9.74522 2.88184 8.99902 3.62803 8.99902 4.5485ZM10.6657 12.0485C9.74522 12.0485 8.99902 11.3023 8.99902 10.3818C8.99902 9.46136 9.74522 8.71517 10.6657 8.71517C11.5862 8.71517 12.3324 9.46136 12.3324 10.3818C12.3324 11.3023 11.5862 12.0485 10.6657 12.0485ZM10.6657 17.8818C9.74522 17.8818 8.99902 17.1356 8.99902 16.2152C8.99902 15.2947 9.74522 14.5485 10.6657 14.5485C11.5862 14.5485 12.3324 15.2947 12.3324 16.2152C12.3324 17.1356 11.5862 17.8818 10.6657 17.8818Z" fill="white"/>
</svg>
