<svg width="16" height="16" viewBox="0 0 16 16" fill="none" xmlns="http://www.w3.org/2000/svg">
<g clip-path="url(#clip0)">
<path d="M9.30955 11.2142C10.0755 10.525 10.5605 9.52926 10.5605 8.41722C10.5605 6.33626 8.87428 4.65039 6.79365 4.65039C4.71335 4.65039 3.02747 6.33626 3.02747 8.41722C3.02747 9.52698 3.51078 10.522 4.27546 11.2109C2.31705 11.3628 0.770055 12.985 0.756003 14.9813L0.71875 15.7313H6.4453H12.7382L12.7751 15.0375C12.7826 14.0206 12.3833 13.0445 11.6657 12.322C11.0327 11.6834 10.1968 11.2959 9.30955 11.2142Z" fill="white"/>
<path d="M12.045 4.4474V5.57742C12.045 6.0457 12.4254 6.42542 12.894 6.42542C13.3629 6.42542 13.7427 6.0457 13.7427 5.57742V4.4474H14.8714C15.3396 4.4474 15.7197 4.06702 15.7197 3.59874C15.7197 3.13046 15.3396 2.75041 14.8714 2.75041H13.7427V1.63706C13.7427 1.16846 13.3629 0.789062 12.894 0.789062C12.4254 0.789062 12.045 1.16846 12.045 1.63706V2.75009H10.9317C10.4624 2.75009 10.083 3.13014 10.083 3.59842C10.083 4.0667 10.4624 4.44707 10.9317 4.44707L12.045 4.4474Z" fill="white"/>
</g>
<defs>
<clipPath id="clip0">
<rect width="15" height="15" fill="white" transform="translate(0.71875 0.730469)"/>
</clipPath>
</defs>
</svg>
