<svg width="16" height="16" viewBox="0 0 16 16" fill="none" xmlns="http://www.w3.org/2000/svg">
<g clip-path="url(#clip0)">
<path d="M9.27244 10.9837C10.0384 10.2945 10.5234 9.29879 10.5234 8.18675C10.5234 6.1058 8.83717 4.41992 6.75654 4.41992C4.67624 4.41992 2.99036 6.1058 2.99036 8.18675C2.99036 9.29651 3.47368 10.2916 4.23835 10.9804C2.27994 11.1324 0.732946 12.7545 0.718894 14.7508L0.681641 15.5008H6.40819H12.701L12.738 14.807C12.7455 13.7901 12.3462 12.814 11.6285 12.0915C10.9956 11.4529 10.1597 11.0654 9.27244 10.9837Z" fill="#FF2462"/>
<path d="M12.0079 4.21693V5.34695C12.0079 5.81523 12.3883 6.19495 12.8569 6.19495C13.3258 6.19495 13.7055 5.81523 13.7055 5.34695V4.21693H14.8343C15.3025 4.21693 15.6826 3.83656 15.6826 3.36828C15.6826 2.9 15.3025 2.51995 14.8343 2.51995H13.7055V1.4066C13.7055 0.937989 13.3258 0.558594 12.8569 0.558594C12.3883 0.558594 12.0079 0.937989 12.0079 1.4066V2.51962H10.8946C10.4253 2.51962 10.0459 2.89967 10.0459 3.36795C10.0459 3.83623 10.4253 4.2166 10.8946 4.2166L12.0079 4.21693Z" fill="#FF2462"/>
</g>
<defs>
<clipPath id="clip0">
<rect width="15" height="15" fill="white" transform="translate(0.681641 0.5)"/>
</clipPath>
</defs>
</svg>
