<svg width="25" height="26" viewBox="0 0 25 26" fill="none" xmlns="http://www.w3.org/2000/svg">
<path d="M12.5 25.5C19.2655 25.5 24.75 20.0155 24.75 13.25C24.75 6.48451 19.2655 1 12.5 1C5.73451 1 0.25 6.48451 0.25 13.25C0.25 20.0155 5.73451 25.5 12.5 25.5Z" fill="white" stroke="#737373" stroke-width="0.5"/>
<path d="M17.5156 12.8906H6.73438C6.32879 12.8906 6 13.2194 6 13.625C6 14.0306 6.32879 14.3594 6.73437 14.3594H17.5156C17.9212 14.3594 18.25 14.0306 18.25 13.625C18.25 13.2194 17.9212 12.8906 17.5156 12.8906Z" fill="#737373" stroke="#737373"/>
<path d="M12.8594 19.0156V8.23438C12.8594 7.8288 12.5306 7.5 12.125 7.5C11.7194 7.5 11.3906 7.8288 11.3906 8.23438V19.0156C11.3906 19.4212 11.7194 19.75 12.125 19.75C12.5306 19.75 12.8594 19.4212 12.8594 19.0156Z" fill="#737373" stroke="#737373"/>
</svg>
