<svg width="21" height="21" viewBox="0 0 21 21" fill="none" xmlns="http://www.w3.org/2000/svg">
<path d="M20.5645 10.5391C20.5645 16.0619 16.0873 20.5391 10.5645 20.5391C5.04161 20.5391 0.564453 16.0619 0.564453 10.5391C0.564453 5.01622 5.04161 0.539062 10.5645 0.539062C16.0873 0.539062 20.5645 5.01622 20.5645 10.5391Z" fill="#A1A1A1"/>
<path d="M14.7441 10.1523H5.75976C5.37575 10.1523 5.06445 10.4636 5.06445 10.8477C5.06445 11.2317 5.37575 11.543 5.75976 11.543H14.7441C15.1281 11.543 15.4395 11.2317 15.4395 10.8477C15.4395 10.4636 15.1281 10.1523 14.7441 10.1523Z" fill="white" stroke="white"/>
<path d="M10.9473 15.3398V6.35548C10.9473 5.97146 10.636 5.66016 10.252 5.66016C9.86794 5.66016 9.55664 5.97146 9.55664 6.35548V15.3398C9.55664 15.7238 9.86795 16.0352 10.252 16.0352C10.636 16.0352 10.9473 15.7238 10.9473 15.3398Z" fill="white" stroke="white"/>
</svg>
