<svg width="31" height="31" viewBox="0 0 31 31" fill="none" xmlns="http://www.w3.org/2000/svg">
<path d="M30.5273 15.2104C30.5273 23.3566 23.9235 29.9604 15.7773 29.9604C7.63114 29.9604 1.02734 23.3566 1.02734 15.2104C1.02734 7.06425 7.63114 0.460449 15.7773 0.460449C23.9235 0.460449 30.5273 7.06425 30.5273 15.2104Z" fill="white" stroke="#A1A1A1" stroke-width="0.5"/>
<path d="M22.0469 14.8862H8.57031C8.13237 14.8862 7.77734 15.2413 7.77734 15.6792C7.77734 16.1171 8.13237 16.4722 8.57031 16.4722H22.0469C22.4848 16.4722 22.8398 16.1171 22.8398 15.6792C22.8398 15.2413 22.4848 14.8862 22.0469 14.8862Z" fill="#737373" stroke="#737373"/>
<path d="M16.1016 22.4175V8.94093C16.1016 8.50298 15.7466 8.14795 15.3086 8.14795C14.8707 8.14795 14.5156 8.50298 14.5156 8.94093V22.4175C14.5156 22.8554 14.8707 23.2104 15.3086 23.2104C15.7466 23.2104 16.1016 22.8554 16.1016 22.4175Z" fill="#737373" stroke="#737373"/>
</svg>
