<?xml version="1.0" encoding="utf-8"?>
<!-- Generator: Adobe Illustrator 16.0.0, SVG Export Plug-In . SVG Version: 6.00 Build 0)  -->
<!DOCTYPE svg PUBLIC "-//W3C//DTD SVG 1.1//EN" "http://www.w3.org/Graphics/SVG/1.1/DTD/svg11.dtd">
<svg version="1.1" id="Layer_1" xmlns="http://www.w3.org/2000/svg" xmlns:xlink="http://www.w3.org/1999/xlink" x="0px" y="0px"
	 width="48px" height="48px" viewBox="0 0 48 48" enable-background="new 0 0 48 48" xml:space="preserve">
<g>
	<g>
		<path d="M41.805,48.001h-1.664v-2h1.664c2.313,0,4.195-1.883,4.195-4.196h2C48,45.222,45.221,48.001,41.805,48.001z
			 M30.316,48.001h-9.825v-2h9.825V48.001z M10.667,48.001H6.196c-2.155,0-4.189-1.153-5.309-3.009l1.712-1.033
			c0.76,1.26,2.138,2.042,3.597,2.042h4.472V48.001z M2,34.788H0v-9.824h2V34.788z M48,33.739h-2v-9.824h2V33.739z M2,15.14H0V6.195
			c0-0.35,0.03-0.701,0.088-1.043L2.06,5.489C2.02,5.721,2,5.958,2,6.195V15.14z M48,14.091h-2V6.195
			c0-0.523-0.097-1.035-0.286-1.518l1.861-0.731C47.857,4.663,48,5.42,48,6.195V14.091z M38.212,1.999h-9.824v-2h9.824V1.999z
			 M18.563,1.999H8.739v-2h9.824V1.999z"/>
	</g>
	<rect x="16.75" y="22.999" width="14.499" height="2"/>
	<rect x="22.999" y="16.75" width="2" height="14.5"/>
</g>
</svg>
