<svg width="21" height="21" viewBox="0 0 21 21" fill="none" xmlns="http://www.w3.org/2000/svg">
<path d="M20.5 10.0879C20.5 15.6107 16.0228 20.0879 10.5 20.0879C4.97715 20.0879 0.5 15.6107 0.5 10.0879C0.5 4.56504 4.97715 0.0878906 10.5 0.0878906C16.0228 0.0878906 20.5 4.56504 20.5 10.0879Z" fill="#FF2462"/>
<path d="M14.6797 9.70508H5.69531C5.3113 9.70508 5 10.0164 5 10.4004C5 10.7844 5.3113 11.0957 5.69531 11.0957H14.6797C15.0637 11.0957 15.375 10.7844 15.375 10.4004C15.375 10.0164 15.0637 9.70508 14.6797 9.70508Z" fill="white" stroke="white"/>
<path d="M10.8828 14.8926V5.90821C10.8828 5.5242 10.5715 5.21289 10.1875 5.21289C9.80349 5.21289 9.49219 5.52419 9.49219 5.90821V14.8926C9.49219 15.2766 9.80349 15.5879 10.1875 15.5879C10.5715 15.5879 10.8828 15.2766 10.8828 14.8926Z" fill="white" stroke="white"/>
</svg>
