<svg width="24" height="24" viewBox="0 0 24 24" fill="none" xmlns="http://www.w3.org/2000/svg">
<path d="M24 12C24 18.6274 18.6274 24 12 24C5.37258 24 0 18.6274 0 12C0 5.37258 5.37258 0 12 0C18.6274 0 24 5.37258 24 12Z" fill="#FF2462"/>
<path d="M17.0156 11.6406H6.23437C5.82879 11.6406 5.5 11.9694 5.5 12.375C5.5 12.7806 5.82879 13.1094 6.23437 13.1094H17.0156C17.4212 13.1094 17.75 12.7806 17.75 12.375C17.75 11.9694 17.4212 11.6406 17.0156 11.6406Z" fill="white" stroke="white"/>
<path d="M12.3594 17.7656V6.98438C12.3594 6.5788 12.0306 6.25 11.625 6.25C11.2194 6.25 10.8906 6.5788 10.8906 6.98438V17.7656C10.8906 18.1712 11.2194 18.5 11.625 18.5C12.0306 18.5 12.3594 18.1712 12.3594 17.7656Z" fill="white" stroke="white"/>
</svg>
