<svg width="25" height="25" viewBox="0 0 25 25" fill="none" xmlns="http://www.w3.org/2000/svg">
<path fill-rule="evenodd" clip-rule="evenodd" d="M12.5625 23.5001C6.48737 23.5001 1.5625 18.5753 1.5625 12.5001C1.5625 6.42499 6.48737 1.50012 12.5625 1.50012C18.6376 1.50012 23.5625 6.42499 23.5625 12.5001C23.5625 18.5753 18.6376 23.5001 12.5625 23.5001ZM12.5625 21.5001C17.533 21.5001 21.5625 17.4707 21.5625 12.5001C21.5625 7.52955 17.533 3.50011 12.5625 3.50011C7.5919 3.50011 3.56247 7.52955 3.56247 12.5001C3.56247 17.4707 7.5919 21.5001 12.5625 21.5001ZM17.5625 11.5001H13.5625V7.50012H11.5625V11.5001H7.5625V13.5001H11.5625V17.5001H13.5625V13.5001H17.5625V11.5001Z" fill="#737373"/>
</svg>
