<svg width="25" height="25" viewBox="0 0 25 25" fill="none" xmlns="http://www.w3.org/2000/svg">
<path fill-rule="evenodd" clip-rule="evenodd" d="M12.959 23.5781C6.88385 23.5781 1.95898 18.6533 1.95898 12.5781C1.95898 6.50299 6.88385 1.57812 12.959 1.57812C19.0341 1.57812 23.959 6.50299 23.959 12.5781C23.959 18.6533 19.0341 23.5781 12.959 23.5781ZM12.959 21.5781C17.9295 21.5781 21.959 17.5487 21.959 12.5781C21.959 7.60756 17.9295 3.57812 12.959 3.57812C7.98842 3.57812 3.95898 7.60756 3.95898 12.5781C3.95898 17.5487 7.98842 21.5781 12.959 21.5781ZM17.959 11.5781H13.959V7.57812H11.959V11.5781H7.95898V13.5781H11.959V17.5781H13.959V13.5781H17.959V11.5781Z" fill="white"/>
</svg>
