<svg width="25" height="25" viewBox="0 0 25 25" fill="none" xmlns="http://www.w3.org/2000/svg">
<path fill-rule="evenodd" clip-rule="evenodd" d="M12.7402 23.8965C6.6651 23.8965 1.74023 18.9716 1.74023 12.8965C1.74023 6.82135 6.6651 1.89648 12.7402 1.89648C18.8154 1.89648 23.7402 6.82135 23.7402 12.8965C23.7402 18.9716 18.8154 23.8965 12.7402 23.8965ZM12.7402 21.8965C17.7108 21.8965 21.7402 17.867 21.7402 12.8965C21.7402 7.92592 17.7108 3.89648 12.7402 3.89648C7.76967 3.89648 3.74023 7.92592 3.74023 12.8965C3.74023 17.867 7.76967 21.8965 12.7402 21.8965ZM17.7402 11.8965H13.7402V7.89648H11.7402V11.8965H7.74023V13.8965H11.7402V17.8965H13.7402V13.8965H17.7402V11.8965Z" fill="white"/>
</svg>
