<svg width="19" height="25" viewBox="0 0 19 25" fill="none" xmlns="http://www.w3.org/2000/svg">
<g filter="url(#filter0_d)">
<path fill-rule="evenodd" clip-rule="evenodd" d="M3.22274 6.09197C3.19833 6.15835 3.18278 6.22817 3.17688 6.29965L1.97823 20.813C1.94064 21.2682 2.21625 21.691 2.6479 21.8403L3.02377 21.9704C3.14029 22.0107 3.26326 22.0291 3.38647 22.0247L14.4976 21.6271C15.0983 21.6056 15.5445 21.0628 15.4598 20.4677C15.3309 19.5621 15.2001 18.5099 15.2001 18.0283C15.2001 17.3696 14.7106 10.5643 14.4112 6.49812C14.3951 6.27934 14.3094 6.0817 14.1767 5.92589H14.3156C14.5771 5.92589 14.8098 6.14624 14.8244 6.40726L15.6687 21.5977C15.6751 21.7138 15.6367 21.8221 15.5604 21.9026C15.4841 21.983 15.378 22.0278 15.2619 22.0278H2.30463C2.18989 22.0278 2.08703 21.9844 2.01435 21.9062C1.94212 21.8281 1.90692 21.7225 1.91561 21.6082L3.07263 6.41458C3.08192 6.29235 3.1384 6.17879 3.22274 6.09197ZM14.3151 5.01161H12.5684C12.0596 2.68836 10.5548 1 8.78239 1C7.01001 1 5.50549 2.68836 4.99677 5.01161H3.60063C2.86281 5.01161 2.21686 5.61001 2.16109 6.34555L1.00406 21.5387C0.975719 21.9094 1.09641 22.261 1.34372 22.528C1.59103 22.7949 1.93252 22.9421 2.30463 22.9421H15.2619C15.6317 22.9421 15.9737 22.7963 16.2246 22.5311C16.4756 22.266 16.6022 21.9167 16.5812 21.5469L15.7364 6.35652C15.6962 5.61504 15.058 5.01161 14.3151 5.01161ZM8.78239 1.91429C7.48325 1.91429 6.37107 3.20176 5.9298 5.01161H11.6354C11.194 3.20176 10.0815 1.91429 8.78239 1.91429Z" fill="white"/>
<path d="M3.22274 6.09197L3.69203 6.26449L2.8641 5.74358L3.22274 6.09197ZM3.17688 6.29965L2.67857 6.2585L2.67857 6.2585L3.17688 6.29965ZM1.97823 20.813L1.47993 20.7718H1.47993L1.97823 20.813ZM2.6479 21.8403L2.81137 21.3678H2.81137L2.6479 21.8403ZM3.02377 21.9704L2.8603 22.4429L2.86031 22.4429L3.02377 21.9704ZM3.38647 22.0247L3.40435 22.5244H3.40435L3.38647 22.0247ZM14.4976 21.6271L14.5155 22.1267L14.4976 21.6271ZM15.4598 20.4677L14.9648 20.5381L15.4598 20.4677ZM14.4112 6.49812L14.9098 6.4614V6.4614L14.4112 6.49812ZM14.1767 5.92589V5.42589H13.0944L13.796 6.25002L14.1767 5.92589ZM14.8244 6.40726L15.3236 6.37952L15.3236 6.37929L14.8244 6.40726ZM15.6687 21.5977L16.168 21.5701L16.168 21.5699L15.6687 21.5977ZM2.01435 21.9062L1.64711 22.2456L1.64818 22.2467L2.01435 21.9062ZM1.91561 21.6082L1.41705 21.5702L1.41704 21.5703L1.91561 21.6082ZM3.07263 6.41458L3.57119 6.45254L3.5712 6.45247L3.07263 6.41458ZM12.5684 5.01161L12.08 5.11858L12.1661 5.51161H12.5684V5.01161ZM4.99677 5.01161V5.51161H5.39914L5.4852 5.11856L4.99677 5.01161ZM2.16109 6.34555L2.65965 6.38352L2.65966 6.38335L2.16109 6.34555ZM1.00406 21.5387L1.50261 21.5768L1.50262 21.5767L1.00406 21.5387ZM1.34372 22.528L0.97692 22.8677H0.97692L1.34372 22.528ZM16.2246 22.5311L15.8615 22.1874L16.2246 22.5311ZM16.5812 21.5469L16.082 21.5747L16.082 21.5753L16.5812 21.5469ZM15.7364 6.35652L15.2371 6.38361L15.2372 6.38429L15.7364 6.35652ZM5.9298 5.01161L5.44403 4.89317L5.29324 5.51161H5.9298V5.01161ZM11.6354 5.01161V5.51161H12.272L12.1211 4.89314L11.6354 5.01161ZM2.75345 5.91945C2.7136 6.02783 2.68821 6.14181 2.67857 6.2585L3.67518 6.34081C3.67735 6.31453 3.68306 6.28888 3.69203 6.26449L2.75345 5.91945ZM2.67857 6.2585L1.47993 20.7718L2.47653 20.8541L3.67518 6.34081L2.67857 6.2585ZM1.47993 20.7718C1.42354 21.4546 1.83696 22.0889 2.48444 22.3129L2.81137 21.3678C2.59554 21.2932 2.45774 21.0817 2.47653 20.8541L1.47993 20.7718ZM2.48443 22.3129L2.8603 22.4429L3.18724 21.4979L2.81137 21.3678L2.48443 22.3129ZM2.86031 22.4429C3.03508 22.5034 3.21953 22.531 3.40435 22.5244L3.3686 21.525C3.30698 21.5272 3.2455 21.518 3.18724 21.4979L2.86031 22.4429ZM3.40435 22.5244L14.5155 22.1267L14.4797 21.1274L3.36859 21.525L3.40435 22.5244ZM14.5155 22.1267C15.4186 22.0944 16.0806 21.2809 15.9548 20.3972L14.9648 20.5381C15.0085 20.8447 14.7781 21.1167 14.4797 21.1274L14.5155 22.1267ZM15.9548 20.3972C15.8243 19.4803 15.7001 18.467 15.7001 18.0283H14.7001C14.7001 18.5529 14.8375 19.6439 14.9648 20.5381L15.9548 20.3972ZM15.7001 18.0283C15.7001 17.3452 15.2078 10.5082 14.9098 6.4614L13.9125 6.53484C14.2134 10.6204 14.7001 17.394 14.7001 18.0283H15.7001ZM14.9098 6.4614C14.8857 6.13347 14.7568 5.8359 14.5574 5.60177L13.796 6.25002C13.862 6.32749 13.9044 6.4252 13.9125 6.53484L14.9098 6.4614ZM14.1767 6.42589H14.3156V5.42589H14.1767V6.42589ZM14.3156 6.42589C14.3104 6.42589 14.3082 6.42476 14.3095 6.4253C14.3111 6.42597 14.3148 6.42796 14.3189 6.43185C14.323 6.43574 14.3252 6.43932 14.326 6.44098C14.3267 6.44232 14.3255 6.44037 14.3252 6.43524L15.3236 6.37929C15.2942 5.8538 14.8428 5.42589 14.3156 5.42589V6.42589ZM14.3252 6.43501L15.1695 21.6254L16.168 21.5699L15.3236 6.37952L14.3252 6.43501ZM15.1695 21.6252C15.1692 21.6196 15.1698 21.6093 15.1744 21.5962C15.1791 21.5829 15.1871 21.5696 15.1977 21.5584L15.9231 22.2467C16.0995 22.0608 16.1815 21.8157 16.168 21.5701L15.1695 21.6252ZM15.1977 21.5584C15.2076 21.548 15.2197 21.5397 15.2323 21.5344C15.2448 21.5292 15.2553 21.5278 15.2619 21.5278V22.5278C15.5094 22.5278 15.7484 22.4308 15.9231 22.2467L15.1977 21.5584ZM15.2619 21.5278H2.30463V22.5278H15.2619V21.5278ZM2.30463 21.5278C2.3106 21.5278 2.32229 21.529 2.33724 21.5353C2.35239 21.5417 2.36767 21.552 2.38052 21.5658L1.64818 22.2467C1.82202 22.4337 2.06091 22.5278 2.30463 22.5278V21.5278ZM2.38158 21.5669C2.39472 21.5811 2.40395 21.5975 2.40919 21.6133C2.41434 21.6288 2.41459 21.6405 2.41417 21.6461L1.41704 21.5703C1.39865 21.8123 1.4735 22.0577 1.64711 22.2456L2.38158 21.5669ZM2.41416 21.6461L3.57119 6.45254L2.57408 6.37661L1.41705 21.5702L2.41416 21.6461ZM3.5712 6.45247C3.57091 6.45629 3.57011 6.45679 3.57142 6.45402C3.57285 6.45101 3.57595 6.44594 3.58138 6.44036L2.8641 5.74358C2.70782 5.90445 2.59322 6.12473 2.57407 6.37669L3.5712 6.45247ZM12.5684 5.51161H14.3151V4.51161H12.5684V5.51161ZM8.78239 1.5C10.2073 1.5 11.5926 2.89312 12.08 5.11858L13.0568 4.90463C12.5266 2.4836 10.9022 0.5 8.78239 0.5V1.5ZM5.4852 5.11856C5.97251 2.89306 7.35747 1.5 8.78239 1.5V0.5C6.66255 0.5 5.03847 2.48365 4.50835 4.90466L5.4852 5.11856ZM3.60063 5.51161H4.99677V4.51161H3.60063V5.51161ZM2.65966 6.38335C2.69564 5.90877 3.12405 5.51161 3.60063 5.51161V4.51161C2.60156 4.51161 1.73808 5.31124 1.66252 6.30775L2.65966 6.38335ZM1.50262 21.5767L2.65965 6.38352L1.66253 6.30758L0.505506 21.5007L1.50262 21.5767ZM1.71052 22.1882C1.56014 22.0258 1.48461 21.8122 1.50261 21.5768L0.505517 21.5006C0.466825 22.0067 0.632671 22.4961 0.97692 22.8677L1.71052 22.1882ZM2.30463 22.4421C2.06822 22.4421 1.86083 22.3504 1.71052 22.1882L0.97692 22.8677C1.32124 23.2394 1.79682 23.4421 2.30463 23.4421V22.4421ZM15.2619 22.4421H2.30463V23.4421H15.2619V22.4421ZM15.8615 22.1874C15.7065 22.3512 15.4966 22.4421 15.2619 22.4421V23.4421C15.7669 23.4421 16.2408 23.2414 16.5878 22.8749L15.8615 22.1874ZM16.082 21.5753C16.0953 21.8098 16.0164 22.0238 15.8615 22.1874L16.5878 22.8749C16.9348 22.5082 17.1091 22.0237 17.0804 21.5185L16.082 21.5753ZM15.2372 6.38429L16.082 21.5747L17.0804 21.5192L16.2356 6.32876L15.2372 6.38429ZM14.3151 5.51161C14.7929 5.51161 15.2113 5.90791 15.2371 6.38361L16.2357 6.32943C16.181 5.32216 15.3231 4.51161 14.3151 4.51161V5.51161ZM6.41557 5.13005C6.6209 4.28788 6.97661 3.59367 7.40527 3.1196C7.83265 2.64693 8.30946 2.41429 8.78239 2.41429V1.41429C7.95618 1.41429 7.22733 1.82538 6.66353 2.44891C6.10099 3.07104 5.67997 3.92549 5.44403 4.89317L6.41557 5.13005ZM11.6354 4.51161H5.9298V5.51161H11.6354V4.51161ZM8.78239 2.41429C9.25532 2.41429 9.73221 2.64695 10.1597 3.11963C10.5884 3.59371 10.9442 4.28793 11.1496 5.13008L12.1211 4.89314C11.8851 3.92544 11.464 3.071 10.9014 2.44888C10.3375 1.82536 9.60858 1.41429 8.78239 1.41429V2.41429Z" fill="#FEFEFE"/>
</g>
<mask id="path-3-outside-1" maskUnits="userSpaceOnUse" x="2.77148" y="7.34375" width="12" height="12" fill="black">
<rect fill="white" x="2.77148" y="7.34375" width="12" height="12"/>
<path fill-rule="evenodd" clip-rule="evenodd" d="M8.97983 13.1354V8.55209C8.97983 8.43703 8.88656 8.34375 8.77149 8.34375C8.65643 8.34375 8.56315 8.43703 8.56315 8.55209V13.1354H3.97983C3.86476 13.1354 3.77148 13.2287 3.77148 13.3437C3.77148 13.4588 3.86476 13.5521 3.97983 13.5521H8.56315V18.1354C8.56315 18.2505 8.65643 18.3438 8.77149 18.3438C8.88656 18.3438 8.97983 18.2505 8.97983 18.1354V13.5521H13.5631C13.6782 13.5521 13.7715 13.4588 13.7715 13.3437C13.7715 13.2287 13.6782 13.1354 13.5631 13.1354H8.97983Z"/>
</mask>
<path fill-rule="evenodd" clip-rule="evenodd" d="M8.97983 13.1354V8.55209C8.97983 8.43703 8.88656 8.34375 8.77149 8.34375C8.65643 8.34375 8.56315 8.43703 8.56315 8.55209V13.1354H3.97983C3.86476 13.1354 3.77148 13.2287 3.77148 13.3437C3.77148 13.4588 3.86476 13.5521 3.97983 13.5521H8.56315V18.1354C8.56315 18.2505 8.65643 18.3438 8.77149 18.3438C8.88656 18.3438 8.97983 18.2505 8.97983 18.1354V13.5521H13.5631C13.6782 13.5521 13.7715 13.4588 13.7715 13.3437C13.7715 13.2287 13.6782 13.1354 13.5631 13.1354H8.97983Z" fill="#FF2462"/>
<path d="M8.97983 13.1354V14.1354H7.97983V13.1354H8.97983ZM8.56315 13.1354H9.56315V14.1354H8.56315V13.1354ZM8.56315 13.5521V12.5521H9.56315V13.5521H8.56315ZM8.97983 13.5521H7.97983V12.5521H8.97983V13.5521ZM9.97983 8.55209V13.1354H7.97983V8.55209H9.97983ZM8.77149 7.34375C9.43884 7.34375 9.97983 7.88474 9.97983 8.55209H7.97983C7.97983 8.98932 8.33428 9.34375 8.77149 9.34375V7.34375ZM7.56315 8.55209C7.56315 7.88474 8.10414 7.34375 8.77149 7.34375V9.34375C9.20871 9.34375 9.56315 8.98932 9.56315 8.55209H7.56315ZM7.56315 13.1354V8.55209H9.56315V13.1354H7.56315ZM3.97983 12.1354H8.56315V14.1354H3.97983V12.1354ZM2.77148 13.3437C2.77148 12.6764 3.31249 12.1354 3.97983 12.1354V14.1354C4.41704 14.1354 4.77148 13.781 4.77148 13.3437H2.77148ZM3.97983 14.5521C3.31249 14.5521 2.77148 14.0111 2.77148 13.3437H4.77148C4.77148 12.9065 4.41704 12.5521 3.97983 12.5521V14.5521ZM8.56315 14.5521H3.97983V12.5521H8.56315V14.5521ZM7.56315 18.1354V13.5521H9.56315V18.1354H7.56315ZM8.77149 19.3438C8.10415 19.3438 7.56315 18.8028 7.56315 18.1354H9.56315C9.56315 17.6982 9.20871 17.3438 8.77149 17.3438V19.3438ZM9.97983 18.1354C9.97983 18.8028 9.43884 19.3438 8.77149 19.3438V17.3438C8.33427 17.3438 7.97983 17.6982 7.97983 18.1354H9.97983ZM9.97983 13.5521V18.1354H7.97983V13.5521H9.97983ZM13.5631 14.5521H8.97983V12.5521H13.5631V14.5521ZM14.7715 13.3437C14.7715 14.0111 14.2305 14.5521 13.5631 14.5521V12.5521C13.1259 12.5521 12.7715 12.9065 12.7715 13.3437H14.7715ZM13.5631 12.1354C14.2305 12.1354 14.7715 12.6764 14.7715 13.3437H12.7715C12.7715 13.781 13.1259 14.1354 13.5631 14.1354V12.1354ZM8.97983 12.1354H13.5631V14.1354H8.97983V12.1354Z" fill="#FF2462" mask="url(#path-3-outside-1)"/>
<defs>
<filter id="filter0_d" x="0.5" y="0.5" width="17.5835" height="23.9421" filterUnits="userSpaceOnUse" color-interpolation-filters="sRGB">
<feFlood flood-opacity="0" result="BackgroundImageFix"/>
<feColorMatrix in="SourceAlpha" type="matrix" values="0 0 0 0 0 0 0 0 0 0 0 0 0 0 0 0 0 0 127 0"/>
<feOffset dx="1" dy="1"/>
<feColorMatrix type="matrix" values="0 0 0 0 0 0 0 0 0 0 0 0 0 0 0 0 0 0 0.25 0"/>
<feBlend mode="normal" in2="BackgroundImageFix" result="effect1_dropShadow"/>
<feBlend mode="normal" in="SourceGraphic" in2="effect1_dropShadow" result="shape"/>
</filter>
</defs>
</svg>
