<svg width="25" height="25" viewBox="0 0 25 25" fill="none" xmlns="http://www.w3.org/2000/svg">
<path fill-rule="evenodd" clip-rule="evenodd" d="M12.3926 23.254C6.31745 23.254 1.39258 18.3291 1.39258 12.254C1.39258 6.17883 6.31745 1.25397 12.3926 1.25397C18.4677 1.25397 23.3926 6.17883 23.3926 12.254C23.3926 18.3291 18.4677 23.254 12.3926 23.254ZM12.3926 21.254C17.3631 21.254 21.3926 17.2245 21.3926 12.254C21.3926 7.2834 17.3631 3.25397 12.3926 3.25397C7.42202 3.25397 3.39258 7.2834 3.39258 12.254C3.39258 17.2245 7.42202 21.254 12.3926 21.254ZM9.09969 16.9611L12.3926 13.6682L15.6855 16.9611L17.0997 15.5469L13.8068 12.254L17.0997 8.96107L15.6855 7.54686L12.3926 10.8398L9.09969 7.54686L7.68547 8.96107L10.9784 12.254L7.68547 15.5469L9.09969 16.9611Z" fill="white"/>
</svg>
