<svg width="25" height="25" viewBox="0 0 25 25" fill="none" xmlns="http://www.w3.org/2000/svg">
<g clip-path="url(#clip0)">
<path d="M9.8584 24.6721C11.9323 24.6721 13.5379 24.4736 14.8259 24.0679C14.7986 23.9214 14.7803 23.7716 14.7803 23.6174C14.7803 22.9286 15.0667 22.3068 15.5244 21.8596C15.0667 21.4125 14.7803 20.7906 14.7803 20.1018C14.7803 19.413 15.0667 18.7911 15.5244 18.344C15.0667 17.8969 14.7803 17.275 14.7803 16.5862C14.7803 15.8973 15.0667 15.2755 15.5244 14.8284C15.0667 14.3812 14.7803 13.7594 14.7803 13.0706C14.7803 12.2568 15.182 11.5396 15.7927 11.0914C15.3745 10.7085 14.9277 10.3654 14.4589 10.0634C14.6494 9.82355 14.7803 9.53333 14.7803 9.20337C14.7803 8.42664 14.1508 7.79712 13.374 7.79712H6.34277C5.56604 7.79712 4.93652 8.42664 4.93652 9.20337C4.93652 9.53259 5.06708 9.8219 5.25641 10.0614C2.52667 11.8199 0.670898 15.0043 0.670898 18.344C0.670898 24.0164 5.93427 24.6721 9.8584 24.6721ZM9.85089 17.8469C8.68762 17.8469 7.74152 16.9008 7.74152 15.7375C7.74152 14.8192 8.33478 14.0445 9.15527 13.7554V12.719C9.15527 12.3304 9.46985 12.0159 9.8584 12.0159C10.2469 12.0159 10.5615 12.3304 10.5615 12.719V13.7601C11.3743 14.0533 11.9603 14.8249 11.9603 15.7375C11.9603 16.1262 11.6457 16.4406 11.2571 16.4406C10.8684 16.4406 10.554 16.1262 10.554 15.7375C10.554 15.3495 10.2387 15.0344 9.85089 15.0344C9.46289 15.0344 9.14777 15.3495 9.14777 15.7375C9.14777 16.1255 9.46289 16.4406 9.85089 16.4406C11.014 16.4406 11.9603 17.3869 11.9603 18.55C11.9603 19.4626 11.3743 20.2342 10.5615 20.5275V21.1565C10.5615 21.545 10.2469 21.8596 9.8584 21.8596C9.46985 21.8596 9.15527 21.545 9.15527 21.1565V20.5321C8.33478 20.2432 7.74152 19.4683 7.74152 18.55C7.74152 18.1614 8.05591 17.8469 8.44464 17.8469C8.83319 17.8469 9.14777 18.1614 9.14777 18.55C9.14777 18.938 9.46289 19.2531 9.85089 19.2531C10.2387 19.2531 10.554 18.938 10.554 18.55C10.554 18.162 10.2387 17.8469 9.85089 17.8469Z" fill="#A1A1A1"/>
<path d="M23.6162 22.5627H17.2412C16.6588 22.5627 16.1865 23.035 16.1865 23.6174C16.1865 24.1999 16.6588 24.6721 17.2412 24.6721H23.6162C24.1987 24.6721 24.6709 24.1999 24.6709 23.6174C24.6709 23.035 24.1987 22.5627 23.6162 22.5627Z" fill="#A1A1A1"/>
<path d="M23.6162 19.0471H17.2412C16.6588 19.0471 16.1865 19.5193 16.1865 20.1018C16.1865 20.6843 16.6588 21.1565 17.2412 21.1565H23.6162C24.1987 21.1565 24.6709 20.6843 24.6709 20.1018C24.6709 19.5193 24.1987 19.0471 23.6162 19.0471Z" fill="#A1A1A1"/>
<path d="M23.6162 15.5315H17.2412C16.6588 15.5315 16.1865 16.0037 16.1865 16.5862C16.1865 17.1686 16.6588 17.6409 17.2412 17.6409H23.6162C24.1987 17.6409 24.6709 17.1686 24.6709 16.5862C24.6709 16.0037 24.1987 15.5315 23.6162 15.5315Z" fill="#A1A1A1"/>
<path d="M23.6162 12.0159H17.2412C16.6588 12.0159 16.1865 12.4881 16.1865 13.0706C16.1865 13.653 16.6588 14.1252 17.2412 14.1252H23.6162C24.1987 14.1252 24.6709 13.653 24.6709 13.0706C24.6709 12.4881 24.1987 12.0159 23.6162 12.0159Z" fill="#A1A1A1"/>
<path d="M11.8383 2.07837C11.547 1.26172 10.7739 0.672119 9.85841 0.672119C8.94178 0.672119 8.15974 1.25989 7.86915 2.07837H5.63966C5.41371 2.07837 5.20149 2.18677 5.0691 2.37024C4.93727 2.55353 4.90083 2.78973 4.97297 3.00397L6.07069 6.39087H13.6463L14.7438 3.00397C14.816 2.78973 14.7796 2.55353 14.6477 2.37024C14.5153 2.18677 14.3031 2.07837 14.0772 2.07837H11.8383Z" fill="#A1A1A1"/>
</g>
<defs>
<clipPath id="clip0">
<rect width="24" height="24" fill="white" transform="translate(0.670898 0.672119)"/>
</clipPath>
</defs>
</svg>
