<svg width="25" height="25" viewBox="0 0 25 25" fill="none" xmlns="http://www.w3.org/2000/svg">
<path fill-rule="evenodd" clip-rule="evenodd" d="M13.1523 4.41113L13.1523 20.4111C13.1523 21.5157 14.0478 22.4111 15.1523 22.4111L20.1523 22.4111C21.2569 22.4111 22.1523 21.5157 22.1523 20.4111L22.1523 4.41113C22.1523 3.30656 21.2569 2.41113 20.1523 2.41113L15.1523 2.41113C14.0478 2.41113 13.1523 3.30656 13.1523 4.41113ZM2.15234 8.41113L2.15234 20.4111C2.15234 21.5157 3.04777 22.4111 4.15234 22.4111L9.15234 22.4111C10.2569 22.4111 11.1523 21.5157 11.1523 20.4111L11.1523 8.41113C11.1523 7.30656 10.2569 6.41113 9.15234 6.41113L4.15234 6.41113C3.04777 6.41113 2.15234 7.30656 2.15234 8.41113Z" fill="#A1A1A1"/>
</svg>
