<svg width="25" height="25" viewBox="0 0 25 25" fill="none" xmlns="http://www.w3.org/2000/svg">
<g clip-path="url(#clip0)">
<path d="M18.9199 8.9834C18.9199 10.5938 17.6621 11.8975 16.1105 11.8975C14.5586 11.8975 13.3008 10.5928 13.3008 8.9834V7.31948C13.3008 5.7086 14.5586 4.4054 16.1105 4.4054C17.6621 4.4054 18.9199 5.7098 18.9199 7.31948V8.9834Z" fill="#FF2462" stroke="#FF2462" stroke-width="2" stroke-miterlimit="10" stroke-linecap="round" stroke-linejoin="round"/>
<path d="M10.9611 8.84466C10.9611 10.1875 9.91259 11.2747 8.61827 11.2747C7.32419 11.2747 6.27539 10.1867 6.27539 8.84466V7.45722C6.27539 6.11394 7.32419 5.02722 8.61827 5.02722C9.91259 5.02722 10.9611 6.1149 10.9611 7.45722V8.84466Z" fill="#FF2462" stroke="#FF2462" stroke-width="2" stroke-miterlimit="10" stroke-linecap="round" stroke-linejoin="round"/>
<path d="M10.9764 14.8366C10.0505 14.1636 8.9155 13.7686 7.6819 13.7686C4.94662 13.7686 2.67118 15.7258 2.16526 18.3103C2.0527 18.8736 2.52094 19.3882 3.09214 19.3882H7.6819" fill="#FF2462"/>
<path d="M10.9764 14.8366C10.0505 14.1636 8.9155 13.7686 7.6819 13.7686C4.94662 13.7686 2.67118 15.7258 2.16526 18.3103C2.0527 18.8736 2.52094 19.3882 3.09214 19.3882H7.6819" stroke="#FF2462" stroke-width="2" stroke-miterlimit="10" stroke-linecap="round" stroke-linejoin="round"/>
<path d="M16.1105 14.705C12.3338 14.705 9.21024 17.4995 8.6928 21.1329C8.61312 21.6945 9.06096 22.1977 9.62856 22.1977H22.5934C23.16 22.1977 23.6083 21.6945 23.5294 21.1329C23.0107 17.499 19.8866 14.705 16.1105 14.705Z" fill="#FF2462" stroke="#FF2462" stroke-width="2" stroke-miterlimit="10" stroke-linecap="round" stroke-linejoin="round"/>
</g>
<defs>
<clipPath id="clip0">
<rect width="24" height="24" fill="white" transform="translate(0.828125 0.897461)"/>
</clipPath>
</defs>
</svg>
