<svg width="25" height="25" viewBox="0 0 25 25" fill="none" xmlns="http://www.w3.org/2000/svg">
<path fill-rule="evenodd" clip-rule="evenodd" d="M2.13867 13.6133C2.13867 19.6382 7.02284 24.5224 13.0478 24.5224C19.0727 24.5224 23.9569 19.6382 23.9569 13.6133C23.9569 7.58839 19.0727 2.70422 13.0478 2.70422C7.02284 2.70422 2.13867 7.58839 2.13867 13.6133Z" fill="#737373"/>
<path d="M7.96804 12.1475C6.57478 12.1475 5.44531 11.018 5.44531 9.62478C5.44531 8.23151 6.57478 7.10205 7.96804 7.10205C9.3613 7.10205 10.4908 8.23151 10.4908 9.62478C10.4908 11.018 9.3613 12.1475 7.96804 12.1475Z" fill="white" stroke="#737373" stroke-width="1.5"/>
<path d="M16.8235 18.6929C15.4302 18.6929 14.3008 17.5635 14.3008 16.1702C14.3008 14.7769 15.4302 13.6475 16.8235 13.6475C18.2168 13.6475 19.3462 14.7769 19.3462 16.1702C19.3462 17.5635 18.2168 18.6929 16.8235 18.6929Z" fill="white" stroke="#737373" stroke-width="1.5"/>
<path d="M16.9746 6.35205L16.8246 6.31664V6.20205H14.3853H14.2926L14.2511 6.28497L7.70568 19.3759L7.59714 19.593H7.83984H10.2792H10.3719L10.4134 19.51L16.9173 6.50205H16.9746V6.35205Z" fill="white" stroke="#A1A1A1" stroke-width="0.3"/>
</svg>
