<svg width="25" height="25" viewBox="0 0 25 25" fill="none" xmlns="http://www.w3.org/2000/svg">
<path fill-rule="evenodd" clip-rule="evenodd" d="M13.0391 4.18945L13.0391 20.1895C13.0391 21.294 13.9345 22.1895 15.0391 22.1895L20.0391 22.1895C21.1436 22.1895 22.0391 21.294 22.0391 20.1895L22.0391 4.18945C22.0391 3.08488 21.1436 2.18945 20.0391 2.18945L15.0391 2.18945C13.9345 2.18945 13.0391 3.08488 13.0391 4.18945ZM2.03906 8.18945L2.03906 20.1894C2.03906 21.294 2.93449 22.1894 4.03906 22.1894L9.03906 22.1895C10.1436 22.1895 11.0391 21.294 11.0391 20.1895L11.0391 8.18945C11.0391 7.08488 10.1436 6.18945 9.03906 6.18945L4.03906 6.18945C2.93449 6.18945 2.03906 7.08488 2.03906 8.18945Z" fill="#FF1678"/>
</svg>
