<svg width="71" height="71" viewBox="0 0 71 71" fill="none" xmlns="http://www.w3.org/2000/svg">
<circle cx="35.1875" cy="35.416" r="35" fill="#FF2462"/>
<g clip-path="url(#clip0)">
<path d="M52.6875 27.1445V52.916H26.0273V17.916H43.459C43.459 20.4645 44.4919 22.7717 46.1618 24.4417C47.877 26.1565 50.2015 27.1445 52.6875 27.1445Z" fill="white"/>
<path d="M52.6895 27.1445V52.916H39.3594V17.916H43.4609C43.4609 20.4645 44.4938 22.7717 46.1638 24.4417C47.8789 26.1568 50.2031 27.1445 52.6895 27.1445Z" fill="white"/>
<path d="M39.3594 32.4082H48.5879V34.459H39.3594V32.4082Z" fill="#FF2462"/>
<path d="M39.3594 36.5098H48.5879V38.5605H39.3594V36.5098Z" fill="#FF2462"/>
<path d="M39.3594 40.6113H48.5879V42.6621H39.3594V40.6113Z" fill="#FF2462"/>
<path d="M39.3594 44.7129H48.5879V46.7637H39.3594V44.7129Z" fill="#FF2462"/>
<path d="M34.2305 39.5859C34.2305 39.3993 34.2217 39.2078 34.2032 39.0097L36.5827 37.6356L33.5066 32.3078L31.1038 33.6953C30.7933 33.4801 30.4672 33.2915 30.1289 33.1294V30.3574H23.9766V33.1294C23.6382 33.2915 23.3122 33.4801 23.0016 33.6953L20.5743 32.2934L17.6875 37.6254L19.9044 38.9891C19.8846 39.195 19.875 39.3926 19.875 39.5859C19.875 39.7793 19.8846 39.9769 19.9044 40.1827L17.6875 41.5465L20.5743 46.8785L23.0016 45.4766C23.3127 45.6918 23.6382 45.8803 23.9766 46.0424V48.8145H30.1289V46.0424C30.4672 45.8803 30.7927 45.6918 31.1038 45.4766L33.5066 46.8641L36.5827 41.5363L34.2032 40.1622C34.2217 39.9641 34.2305 39.7726 34.2305 39.5859ZM27.0527 42.6621C25.3568 42.6621 23.9766 41.2818 23.9766 39.5859C23.9766 37.89 25.3568 36.5098 27.0527 36.5098C28.7486 36.5098 30.1289 37.89 30.1289 39.5859C30.1289 41.2818 28.7486 42.6621 27.0527 42.6621Z" fill="white"/>
<path d="M52.6895 27.1445L43.4609 17.916V27.1445H52.6895Z" fill="#F2F2F2"/>
<path d="M34.2052 40.1622L36.5847 41.5363L33.5085 46.8641L31.1058 45.4766C30.7947 45.6918 30.4692 45.8803 30.1309 46.0424V48.8145H27.0547V42.6621C28.7506 42.6621 30.1309 41.2818 30.1309 39.5859C30.1309 37.89 28.7506 36.5098 27.0547 36.5098V30.3574H30.1309V33.1294C30.4692 33.2915 30.7952 33.4801 31.1058 33.6953L33.5085 32.3078L36.5847 37.6356L34.2052 39.0097C34.2236 39.2078 34.2324 39.3993 34.2324 39.5859C34.2324 39.7726 34.2236 39.9641 34.2052 40.1622Z" fill="#FF2462"/>
</g>
<defs>
<clipPath id="clip0">
<rect width="35" height="35" fill="white" transform="translate(17.6875 17.916)"/>
</clipPath>
</defs>
</svg>
