<svg width="25" height="25" viewBox="0 0 25 25" fill="none" xmlns="http://www.w3.org/2000/svg">
<g clip-path="url(#clip0)">
<path d="M13.3573 14.8361L12.1618 15.4601C10.9333 16.1156 9.37774 15.8036 8.47023 14.7161L7.88223 14.0111C7.38423 13.4111 7.42473 12.5426 7.97673 11.9921L11.6398 8.32906L10.9183 7.90456C10.8028 7.83706 10.6708 7.80106 10.5373 7.80106H7.81323L8.20773 7.01205C8.39373 6.64155 8.24223 6.19155 7.87173 6.00555L5.62171 4.88054C5.25271 4.69604 4.80271 4.84604 4.6167 5.21654L0.116669 14.2166C-0.0693325 14.5871 0.0821687 15.0371 0.452672 15.2231L2.70269 16.3481C2.80919 16.4021 2.92319 16.4261 3.03719 16.4261C3.31319 16.4261 3.5772 16.2731 3.7092 16.0121L3.9642 15.5036L9.77975 19.8042C10.4443 20.2947 11.2363 20.5392 12.0268 20.5392C12.8308 20.5392 13.6318 20.2857 14.2963 19.7802L16.9063 17.7761L13.3573 14.8361Z" fill="#A1A1A1"/>
<path d="M23.9587 14.2186L19.4587 5.21849C19.2727 4.84649 18.8242 4.69798 18.4522 4.88249L16.2021 6.00749C15.8316 6.1935 15.6816 6.6435 15.8661 7.014L16.2621 7.80301H14.2896L9.03809 13.053L9.62459 13.7581C10.0776 14.3011 10.8501 14.4601 11.4636 14.1346L13.5501 13.047L18.1327 16.8436L20.0467 15.3676L20.3692 16.0126C20.5012 16.2751 20.7667 16.4266 21.0397 16.4266C21.1522 16.4266 21.2662 16.4011 21.3757 16.3471L23.6257 15.2221C23.9947 15.0391 24.1432 14.5891 23.9587 14.2186Z" fill="#A1A1A1"/>
</g>
<defs>
<clipPath id="clip0">
<rect width="24" height="24" fill="white" transform="translate(0.0371094 0.672119)"/>
</clipPath>
</defs>
</svg>
