<svg width="25" height="25" viewBox="0 0 25 25" fill="none" xmlns="http://www.w3.org/2000/svg">
<g clip-path="url(#clip0)">
<path d="M4.27344 11.33C4.8407 11.33 5.35413 11.1024 5.73352 10.7369L7.81488 11.7775C7.80444 11.8622 7.78906 11.9456 7.78906 12.0331C7.78906 13.1962 8.73535 14.1425 9.89844 14.1425C11.0615 14.1425 12.0078 13.1962 12.0078 12.0331C12.0078 11.7084 11.928 11.4045 11.7963 11.1295L14.6198 8.30597C14.8948 8.43762 15.1988 8.51746 15.5234 8.51746C16.6865 8.51746 17.6328 7.57117 17.6328 6.40808C17.6328 6.18909 17.5898 5.98199 17.5275 5.78333L19.9808 3.94385C20.3155 4.16742 20.7167 4.29871 21.1484 4.29871C22.3115 4.29871 23.2578 3.35242 23.2578 2.18933C23.2578 1.02625 22.3115 0.0799561 21.1484 0.0799561C19.9854 0.0799561 19.0391 1.02625 19.0391 2.18933C19.0391 2.40833 19.0821 2.61542 19.1443 2.81409L16.6911 4.65356C16.3564 4.42999 15.9552 4.29871 15.5234 4.29871C14.3604 4.29871 13.4141 5.245 13.4141 6.40808C13.4141 6.73273 13.4939 7.03668 13.6255 7.31171L10.8021 10.1352C10.527 10.0035 10.2231 9.92371 9.89844 9.92371C9.33118 9.92371 8.81775 10.1513 8.43835 10.5168L6.35699 9.4762C6.36743 9.39142 6.38281 9.30811 6.38281 9.22058C6.38281 8.0575 5.43652 7.11121 4.27344 7.11121C3.11035 7.11121 2.16406 8.0575 2.16406 9.22058C2.16406 10.3837 3.11035 11.33 4.27344 11.33Z" fill="#A1A1A1"/>
<path d="M24.0078 22.6737H23.2578V7.81433C23.2578 7.42578 22.9432 7.11121 22.5547 7.11121H19.7422C19.3536 7.11121 19.0391 7.42578 19.0391 7.81433V22.6737H17.6328V12.0331C17.6328 11.6445 17.3182 11.33 16.9297 11.33H14.1172C13.7286 11.33 13.4141 11.6445 13.4141 12.0331V22.6737H12.0078V17.6581C12.0078 17.2695 11.6932 16.955 11.3047 16.955H8.49219C8.10364 16.955 7.78906 17.2695 7.78906 17.6581V22.6737H6.38281V14.8456C6.38281 14.457 6.06824 14.1425 5.67969 14.1425H2.86719C2.47864 14.1425 2.16406 14.457 2.16406 14.8456V22.6737H1.41406C1.02551 22.6737 0.710938 22.9883 0.710938 23.3768C0.710938 23.7654 1.02551 24.08 1.41406 24.08H24.0078C24.3964 24.08 24.7109 23.7654 24.7109 23.3768C24.7109 22.9883 24.3964 22.6737 24.0078 22.6737Z" fill="#A1A1A1"/>
</g>
<defs>
<clipPath id="clip0">
<rect width="24" height="24" fill="white" transform="translate(0.710938 0.0799561)"/>
</clipPath>
</defs>
</svg>
