<svg width="25" height="25" viewBox="0 0 25 25" fill="none" xmlns="http://www.w3.org/2000/svg">
<g clip-path="url(#clip0)">
<path d="M9.85938 24.08C11.9332 24.08 13.5389 23.8815 14.8268 23.4757C14.7996 23.3292 14.7812 23.1794 14.7812 23.0253C14.7812 22.3364 15.0676 21.7146 15.5254 21.2675C15.0676 20.8203 14.7812 20.1985 14.7812 19.5096C14.7812 18.8208 15.0676 18.199 15.5254 17.7518C15.0676 17.3047 14.7812 16.6829 14.7812 15.994C14.7812 15.3052 15.0676 14.6833 15.5254 14.2362C15.0676 13.7891 14.7812 13.1672 14.7812 12.4784C14.7812 11.6647 15.183 10.9474 15.7936 10.4992C15.3754 10.1163 14.9286 9.77319 14.4599 9.47125C14.6503 9.23138 14.7812 8.94116 14.7812 8.61121C14.7812 7.83447 14.1517 7.20496 13.375 7.20496H6.34375C5.56702 7.20496 4.9375 7.83447 4.9375 8.61121C4.9375 8.94043 5.06805 9.22974 5.25739 9.46924C2.52765 11.2278 0.671875 14.4122 0.671875 17.7518C0.671875 23.4243 5.93524 24.08 9.85938 24.08ZM9.85187 17.2547C8.6886 17.2547 7.74249 16.3086 7.74249 15.1453C7.74249 14.2271 8.33575 13.4523 9.15625 13.1632V12.1268C9.15625 11.7383 9.47083 11.4237 9.85938 11.4237C10.2479 11.4237 10.5625 11.7383 10.5625 12.1268V13.168C11.3753 13.4611 11.9612 14.2327 11.9612 15.1453C11.9612 15.5341 11.6467 15.8484 11.2581 15.8484C10.8694 15.8484 10.555 15.5341 10.555 15.1453C10.555 14.7573 10.2397 14.4422 9.85187 14.4422C9.46387 14.4422 9.14874 14.7573 9.14874 15.1453C9.14874 15.5333 9.46387 15.8484 9.85187 15.8484C11.015 15.8484 11.9612 16.7947 11.9612 17.9578C11.9612 18.8704 11.3753 19.642 10.5625 19.9354V20.5643C10.5625 20.9529 10.2479 21.2675 9.85938 21.2675C9.47083 21.2675 9.15625 20.9529 9.15625 20.5643V19.9399C8.33575 19.651 7.74249 18.8761 7.74249 17.9578C7.74249 17.5693 8.05688 17.2547 8.44562 17.2547C8.83417 17.2547 9.14874 17.5693 9.14874 17.9578C9.14874 18.3458 9.46387 18.6609 9.85187 18.6609C10.2397 18.6609 10.555 18.3458 10.555 17.9578C10.555 17.5698 10.2397 17.2547 9.85187 17.2547Z" fill="#FF1678"/>
<path d="M23.6172 21.9706H17.2422C16.6597 21.9706 16.1875 22.4428 16.1875 23.0253C16.1875 23.6077 16.6597 24.08 17.2422 24.08H23.6172C24.1996 24.08 24.6719 23.6077 24.6719 23.0253C24.6719 22.4428 24.1996 21.9706 23.6172 21.9706Z" fill="#FF1678"/>
<path d="M23.6172 18.455H17.2422C16.6597 18.455 16.1875 18.9272 16.1875 19.5096C16.1875 20.0921 16.6597 20.5643 17.2422 20.5643H23.6172C24.1996 20.5643 24.6719 20.0921 24.6719 19.5096C24.6719 18.9272 24.1996 18.455 23.6172 18.455Z" fill="#FF1678"/>
<path d="M23.6172 14.9393H17.2422C16.6597 14.9393 16.1875 15.4116 16.1875 15.994C16.1875 16.5765 16.6597 17.0487 17.2422 17.0487H23.6172C24.1996 17.0487 24.6719 16.5765 24.6719 15.994C24.6719 15.4116 24.1996 14.9393 23.6172 14.9393Z" fill="#FF1678"/>
<path d="M23.6172 11.4237H17.2422C16.6597 11.4237 16.1875 11.8959 16.1875 12.4784C16.1875 13.0609 16.6597 13.5331 17.2422 13.5331H23.6172C24.1996 13.5331 24.6719 13.0609 24.6719 12.4784C24.6719 11.8959 24.1996 11.4237 23.6172 11.4237Z" fill="#FF1678"/>
<path d="M11.8393 1.48621C11.548 0.669556 10.7749 0.0799561 9.85939 0.0799561C8.94276 0.0799561 8.16072 0.667725 7.87013 1.48621H5.64064C5.41468 1.48621 5.20246 1.5946 5.07008 1.77808C4.93824 1.96136 4.90181 2.19757 4.97395 2.4118L6.07167 5.79871H13.6473L14.7448 2.4118C14.817 2.19757 14.7805 1.96136 14.6487 1.77808C14.5163 1.5946 14.3041 1.48621 14.0781 1.48621H11.8393Z" fill="#FF1678"/>
</g>
<defs>
<clipPath id="clip0">
<rect width="24" height="24" fill="white" transform="translate(0.671875 0.0799561)"/>
</clipPath>
</defs>
</svg>
