<svg width="25" height="25" viewBox="0 0 25 25" fill="none" xmlns="http://www.w3.org/2000/svg">
<g clip-path="url(#clip0)">
<path d="M13.4803 15.0552L12.2848 15.6792C11.0563 16.3347 9.50079 16.0227 8.59328 14.9352L8.00528 14.2301C7.50727 13.6301 7.54777 12.7616 8.09978 12.2111L11.7628 8.54811L11.0413 8.1236C10.9258 8.0561 10.7938 8.0201 10.6603 8.0201H7.93628L8.33078 7.2311C8.51678 6.86059 8.36528 6.41059 7.99478 6.22459L5.74476 5.09958C5.37576 4.91508 4.92575 5.06508 4.73975 5.43558L0.239716 14.4357C0.0537144 14.8062 0.205216 15.2562 0.575718 15.4422L2.82574 16.5672C2.93224 16.6212 3.04624 16.6452 3.16024 16.6452C3.43624 16.6452 3.70024 16.4922 3.83224 16.2312L4.08725 15.7227L9.90279 20.0232C10.5673 20.5137 11.3593 20.7582 12.1498 20.7582C12.9538 20.7582 13.7548 20.5047 14.4193 19.9992L17.0293 17.9952L13.4803 15.0552Z" fill="#FF1678"/>
<path d="M24.0808 14.4376L19.5807 5.43754C19.3947 5.06554 18.9462 4.91704 18.5742 5.10154L16.3242 6.22655C15.9537 6.41255 15.8037 6.86256 15.9882 7.23306L16.3842 8.02206H14.4117L9.16016 13.2721L9.74666 13.9771C10.1997 14.5201 10.9722 14.6791 11.5857 14.3536L13.6722 13.2661L18.2547 17.0626L20.1687 15.5866L20.4912 16.2316C20.6232 16.4941 20.8887 16.6456 21.1617 16.6456C21.2743 16.6456 21.3883 16.6201 21.4978 16.5661L23.7478 15.4411C24.1168 15.2581 24.2653 14.8081 24.0808 14.4376Z" fill="#FF1678"/>
</g>
<defs>
<clipPath id="clip0">
<rect width="24" height="24" fill="white" transform="translate(0.160156 0.891174)"/>
</clipPath>
</defs>
</svg>
