<svg width="25" height="25" viewBox="0 0 25 25" fill="none" xmlns="http://www.w3.org/2000/svg">
<path fill-rule="evenodd" clip-rule="evenodd" d="M21.8926 20.9849C22.9971 20.9849 23.8926 20.0894 23.8926 18.9849V15.8729L23.3933 15.5841C22.4715 15.0509 21.8926 14.0688 21.8926 12.9849C21.8926 11.9009 22.4715 10.9189 23.3933 10.3856L23.8926 10.0968V6.98486C23.8926 5.88029 22.9971 4.98486 21.8926 4.98486H3.89258C2.78801 4.98486 1.89258 5.88029 1.89258 6.98486V10.0968L2.39185 10.3856C3.3137 10.9189 3.89258 11.9009 3.89258 12.9849C3.89258 14.0688 3.3137 15.0509 2.39185 15.5841L1.89258 15.8729V18.9849C1.89258 20.0894 2.78801 20.9849 3.89258 20.9849H21.8926Z" fill="#737373"/>
<path fill-rule="evenodd" clip-rule="evenodd" d="M15.8984 6.98486C15.8984 7.53715 15.4507 7.98486 14.8984 7.98486C14.3462 7.98486 13.8984 7.53715 13.8984 6.98486C13.8984 6.43258 14.3462 5.98486 14.8984 5.98486C15.4507 5.98486 15.8984 6.43258 15.8984 6.98486ZM15.8984 10.0161C15.8984 10.5684 15.4507 11.0161 14.8984 11.0161C14.3462 11.0161 13.8984 10.5684 13.8984 10.0161C13.8984 9.46383 14.3462 9.01611 14.8984 9.01611C15.4507 9.01611 15.8984 9.46383 15.8984 10.0161ZM14.8984 13.9849C15.4507 13.9849 15.8984 13.5371 15.8984 12.9849C15.8984 12.4326 15.4507 11.9849 14.8984 11.9849C14.3462 11.9849 13.8984 12.4326 13.8984 12.9849C13.8984 13.5371 14.3462 13.9849 14.8984 13.9849ZM15.8984 15.9539C15.8984 16.5061 15.4507 16.9539 14.8984 16.9539C14.3462 16.9539 13.8984 16.5061 13.8984 15.9539C13.8984 15.4016 14.3462 14.9539 14.8984 14.9539C15.4507 14.9539 15.8984 15.4016 15.8984 15.9539ZM14.8984 19.9229C15.4507 19.9229 15.8984 19.4751 15.8984 18.9229C15.8984 18.3706 15.4507 17.9229 14.8984 17.9229C14.3462 17.9229 13.8984 18.3706 13.8984 18.9229C13.8984 19.4751 14.3462 19.9229 14.8984 19.9229Z" fill="white"/>
</svg>
