<svg width="25" height="25" viewBox="0 0 25 25" fill="none" xmlns="http://www.w3.org/2000/svg">
<path fill-rule="evenodd" clip-rule="evenodd" d="M12.3659 1.41113C11.076 1.41113 9.86388 1.77411 9.02802 2.41113H7.92144C6.69443 2.41113 5.69969 3.30614 5.69922 4.41035H4.58941C3.36211 4.41035 2.36719 5.30578 2.36719 6.41035V21.4104C2.36719 22.5149 3.36211 23.4104 4.58941 23.4104H20.145C21.3723 23.4104 22.3672 22.5149 22.3672 21.4104V6.41035C22.3672 5.30578 21.3723 4.41035 20.145 4.41035H19.0326C19.0321 3.30614 18.0373 2.41113 16.8103 2.41113H15.7038C14.8679 1.77411 13.6557 1.41113 12.3659 1.41113ZM10.3182 4.06456L9.9859 4.40918H9.47893H7.92188V5.40918H16.8108V4.40918H14.7467L14.4145 4.06456C14.0494 3.68592 13.267 3.40918 12.3663 3.40918C11.4657 3.40918 10.6832 3.68592 10.3182 4.06456Z" fill="#A1A1A1"/>
<path fill-rule="evenodd" clip-rule="evenodd" d="M7.92188 17.4136V15.4136H14.5885V17.4136H7.92188Z" fill="white"/>
<path fill-rule="evenodd" clip-rule="evenodd" d="M7.92188 13.4141V11.4141H16.8108V13.4141H7.92188Z" fill="white"/>
</svg>
