<svg width="25" height="25" viewBox="0 0 25 25" fill="none" xmlns="http://www.w3.org/2000/svg">
<g clip-path="url(#clip0)">
<path d="M8.54577 16.6112C8.54577 14.359 11.4663 13.9988 11.4663 12.7581C11.4663 12.2129 11.0444 11.887 10.5164 11.887C9.78651 11.887 9.39036 12.6263 9.39036 12.6263L8.54581 12.0632C8.54581 12.0632 9.11742 10.814 10.6131 10.814C11.7127 10.814 12.6454 11.4823 12.6454 12.6614C12.6454 14.6671 9.84808 15.0102 9.82157 16.1893H12.7421V17.1656H8.59879C8.57228 16.9637 8.54577 16.7874 8.54577 16.6112ZM13.3782 14.8605L16.0702 10.9193H17.4161V14.6141H18.2256V15.5561H17.4161V17.1657H16.2987V15.5561H13.3782V14.8605ZM16.2986 14.6141V12.6793C16.2986 12.3713 16.343 12.0282 16.343 12.0282H16.3251C16.3251 12.0282 16.1847 12.362 16.0171 12.5998L14.5744 14.5969V14.6141H16.2986ZM21.8083 14.283L21.5909 15.0616C20.3553 19.4876 15.8468 22.2804 11.387 21.1735C7.1033 20.1104 4.44104 15.9596 5.08119 11.7307L6.37193 12.091C6.67111 12.1745 6.94856 11.9028 6.87127 11.6019L5.46758 6.13604C5.39033 5.83518 5.01637 5.73079 4.79441 5.94812L0.762067 9.89643C0.540107 10.1138 0.636656 10.4899 0.93591 10.5734L2.34085 10.9656C1.29238 16.6861 4.82143 22.3834 10.5803 23.883C16.5603 25.4403 22.6596 21.7388 24.3212 15.787L24.529 15.0426C24.5889 14.8279 24.4635 14.6054 24.2489 14.5454L22.3055 14.0029C22.0908 13.9429 21.8682 14.0684 21.8083 14.283ZM24.1047 10.8771L22.0667 11.1419C21.8457 11.1706 21.6898 11.3731 21.7185 11.5941L21.7988 12.2122C21.8275 12.4332 22.03 12.5891 22.2509 12.5603L24.289 12.2956C24.51 12.2669 24.6658 12.0644 24.6372 11.8434L24.5568 11.2253C24.5282 11.0043 24.3257 10.8484 24.1047 10.8771ZM22.5358 7.026L20.7454 8.03498C20.5512 8.14439 20.4825 8.39047 20.5919 8.58467L20.8979 9.12768C21.0073 9.32184 21.2534 9.39055 21.4476 9.28114L23.238 8.27216C23.4322 8.16274 23.5009 7.91667 23.3915 7.72247L23.0855 7.17945C22.976 6.9853 22.7299 6.91659 22.5358 7.026ZM19.6385 4.04303L18.3564 5.64922C18.2173 5.82338 18.2459 6.07734 18.42 6.21632L18.9072 6.60518C19.0813 6.74424 19.3353 6.71573 19.4743 6.54153L20.7564 4.93534C20.8955 4.76114 20.8669 4.50722 20.6928 4.3682L20.2056 3.97934C20.0314 3.84036 19.7775 3.86883 19.6385 4.04303ZM15.8347 2.3626L15.2476 4.33212C15.1839 4.54569 15.3055 4.77048 15.519 4.83412L16.1164 5.01216C16.3299 5.07585 16.5547 4.95428 16.6184 4.74075L17.2055 2.77122C17.2691 2.55766 17.1476 2.33291 16.934 2.26922L16.3367 2.09119C16.1231 2.0275 15.8983 2.14903 15.8347 2.3626ZM11.6784 2.22946L11.8718 4.2755C11.8928 4.49738 12.0897 4.66024 12.3116 4.63926L12.9321 4.58055C13.154 4.55957 13.3169 4.36271 13.2959 4.14083L13.1024 2.09479C13.0814 1.87291 12.8845 1.71009 12.6627 1.73107L12.0421 1.78973C11.8203 1.81071 11.6574 2.00758 11.6784 2.22946ZM7.77487 3.66303L8.72071 5.48757C8.82326 5.68542 9.06683 5.76267 9.26471 5.66008L9.81808 5.37326C10.0159 5.27067 10.0932 5.02714 9.99059 4.82926L9.04475 3.00471C8.9422 2.80687 8.69863 2.72962 8.50075 2.8322L7.94738 3.11907C7.74954 3.22158 7.67232 3.46514 7.77487 3.66303Z" fill="#737373"/>
</g>
<defs>
<clipPath id="clip0">
<rect width="24" height="24" fill="white" transform="translate(0.640625 0.984375)"/>
</clipPath>
</defs>
</svg>
