<svg width="25" height="25" viewBox="0 0 25 25" fill="none" xmlns="http://www.w3.org/2000/svg">
<path fill-rule="evenodd" clip-rule="evenodd" d="M2.30859 12.9483C2.30859 18.9732 7.19276 23.8574 13.2177 23.8574C19.2426 23.8574 24.1268 18.9732 24.1268 12.9483C24.1268 6.92335 19.2426 2.03918 13.2177 2.03918C7.19276 2.03918 2.30859 6.92335 2.30859 12.9483Z" fill="#FF1678"/>
<path d="M8.13601 11.4825C6.74274 11.4825 5.61328 10.353 5.61328 8.95974C5.61328 7.56648 6.74274 6.43701 8.13601 6.43701C9.52927 6.43701 10.6587 7.56648 10.6587 8.95974C10.6587 10.353 9.52927 11.4825 8.13601 11.4825Z" fill="white" stroke="#FF1678" stroke-width="1.5"/>
<path d="M16.9915 18.0279C15.5982 18.0279 14.4688 16.8984 14.4688 15.5051C14.4688 14.1119 15.5982 12.9824 16.9915 12.9824C18.3847 12.9824 19.5142 14.1119 19.5142 15.5051C19.5142 16.8984 18.3847 18.0279 16.9915 18.0279Z" fill="white" stroke="#FF1678" stroke-width="1.5"/>
<path d="M17.1426 5.68701L16.9926 5.6516V5.53701H14.5533H14.4606L14.4191 5.61993L7.87365 18.7108L7.76511 18.9279H8.00781H10.4472H10.5399L10.5813 18.845L17.0853 5.83701H17.1426V5.68701Z" fill="white" stroke="#FF1678" stroke-width="0.3"/>
</svg>
