<svg width="25" height="25" viewBox="0 0 25 25" fill="none" xmlns="http://www.w3.org/2000/svg">
<g clip-path="url(#clip0)">
<path d="M23.7602 14.5754L18.184 8.99753V5.32028C18.184 4.86138 17.8119 4.49007 17.3538 4.49007C16.8957 4.49007 16.5236 4.86138 16.5236 5.32028V7.33831L12.59 3.40397C12.2655 3.08068 11.7405 3.08068 11.4164 3.40397L0.246978 14.5754C-0.0771176 14.8995 -0.0771176 15.4245 0.246978 15.7478C0.570669 16.0723 1.09657 16.0723 1.42026 15.7478L12.004 5.16409L22.5869 15.7478C22.7492 15.9101 22.9627 15.9912 23.1742 15.9912C23.3857 15.9912 23.5996 15.9117 23.7606 15.7478C24.0843 15.4237 24.0843 14.8982 23.7602 14.5754Z" fill="#FF1678"/>
<path d="M21.3871 15.5265L12.5909 6.72991C12.4347 6.57452 12.2236 6.48694 12.0045 6.48694C11.7845 6.48694 11.5738 6.57452 11.4172 6.72991L2.62023 15.5265C2.50278 15.6439 2.42368 15.7937 2.3922 15.9563C2.36758 16.0823 2.35547 16.211 2.35547 16.3353V20.6293C2.35547 21.7343 3.25511 22.6348 4.36098 22.6348H19.6471C20.7522 22.6348 21.6527 21.7352 21.6527 20.6293V16.3369C21.6527 16.211 21.6406 16.0831 21.6155 15.9575C21.584 15.7937 21.5045 15.6439 21.3871 15.5265ZM13.4599 16.5181V18.0216C13.4599 18.671 12.9324 19.1977 12.2834 19.1977H12.1118C11.4628 19.1977 10.9357 18.671 10.9357 18.0216V16.5181C10.6253 16.2005 10.4336 15.767 10.4336 15.2872C10.4336 14.3133 11.2235 13.5234 12.1974 13.5234C13.1721 13.5234 13.9611 14.3133 13.9611 15.2872C13.962 15.767 13.7698 16.2005 13.4599 16.5181Z" fill="#FF1678"/>
</g>
<defs>
<clipPath id="clip0">
<rect width="24" height="24" fill="white" transform="translate(0.00390625 0.897461)"/>
</clipPath>
</defs>
</svg>
