<svg width="71" height="71" viewBox="0 0 71 71" fill="none" xmlns="http://www.w3.org/2000/svg">
<circle cx="35.6758" cy="35.416" r="35" fill="#FF2462"/>
<g clip-path="url(#clip0)">
<path d="M38.6836 38.5605C35.2913 38.5605 32.5312 35.8005 32.5312 32.4082C32.5312 29.0159 35.2913 26.2559 38.6836 26.2559C42.0759 26.2559 44.8359 29.0159 44.8359 32.4082C44.8359 35.8005 42.0759 38.5605 38.6836 38.5605Z" fill="#F6F5F7"/>
<path d="M38.6836 26.2559V38.5605C42.0759 38.5605 44.8359 35.8005 44.8359 32.4082C44.8359 29.0159 42.0759 26.2559 38.6836 26.2559Z" fill="#F6F5F7"/>
<path d="M46.8867 28.3066C44.625 28.3066 42.7852 26.4668 42.7852 24.2051C42.7852 21.9433 44.625 20.1035 46.8867 20.1035C49.1485 20.1035 50.9883 21.9433 50.9883 24.2051C50.9883 26.4668 49.1485 28.3066 46.8867 28.3066Z" fill="white"/>
<path d="M46.8867 20.1035V28.3066C49.1485 28.3066 50.9883 26.4668 50.9883 24.2051C50.9883 21.9433 49.1485 20.1035 46.8867 20.1035Z" fill="white"/>
<path d="M37.6582 24.0684C35.962 24.0684 34.582 22.6884 34.582 20.9922C34.582 19.296 35.962 17.916 37.6582 17.916C39.3544 17.916 40.7344 19.296 40.7344 20.9922C40.7344 22.6884 39.3544 24.0684 37.6582 24.0684Z" fill="white"/>
<path d="M37.6562 17.916V24.0684C39.3524 24.0684 40.7324 22.6884 40.7324 20.9922C40.7324 19.296 39.3524 17.916 37.6562 17.916Z" fill="white"/>
<path d="M37.6562 30.3574H39.707V34.459H37.6562V30.3574Z" fill="#FF2462"/>
<path d="M38.6836 30.3574H39.709V34.459H38.6836V30.3574Z" fill="#FF2462"/>
<path d="M53.1758 41.6354L44.1515 52.916H18.1758V42.6621H19.5272C21.5227 42.6621 23.3102 41.6722 24.6646 40.2073C25.6016 39.195 26.9415 38.5605 28.4297 38.5605C30.1072 38.5605 31.5961 39.3659 32.5321 40.6113H37.6582C38.0123 40.6113 38.3554 40.6565 38.6836 40.7406C40.4527 41.1959 41.7598 42.8015 41.7598 44.7129H32.873V46.7637H42.6909L47.9879 41.1993C49.459 39.653 51.9835 39.8655 53.1758 41.6354Z" fill="white"/>
<path d="M41.7598 44.7116H38.6836V40.7393C40.4527 41.1945 41.7598 42.8002 41.7598 44.7116Z" fill="white"/>
<path d="M53.1758 41.6346L44.1515 52.9152H38.6836V46.7629H42.6909L47.9879 41.1986C49.459 39.6522 51.9835 39.8648 53.1758 41.6346Z" fill="white"/>
</g>
<defs>
<clipPath id="clip0">
<rect width="35" height="35" fill="white" transform="translate(18.1758 17.916)"/>
</clipPath>
</defs>
</svg>
