<svg width="25" height="25" viewBox="0 0 25 25" fill="none" xmlns="http://www.w3.org/2000/svg">
<path fill-rule="evenodd" clip-rule="evenodd" d="M12.9648 23.4111C6.88971 23.4111 1.96484 18.4863 1.96484 12.4111C1.96484 6.336 6.88971 1.41113 12.9648 1.41113C19.04 1.41113 23.9648 6.336 23.9648 12.4111C23.9648 18.4863 19.04 23.4111 12.9648 23.4111Z" fill="#A1A1A1"/>
<path d="M12.5849 16.1457C12.2203 16.1312 11.8374 16.0749 11.4362 15.9758L11.4359 15.9757C11.0066 15.8679 10.6613 15.7519 10.4067 15.6287L10.3431 15.598L10.3508 15.5278L10.5008 14.1678L10.5164 14.0269L10.6439 14.0888C11.5161 14.512 12.2727 14.7187 12.9202 14.7187C13.2616 14.7187 13.5153 14.6548 13.6927 14.5372C13.8629 14.4168 13.9492 14.2459 13.9492 14.0097C13.9492 13.8299 13.8986 13.6919 13.8045 13.5862L13.8007 13.5819L13.8008 13.5818C13.7084 13.465 13.5664 13.3646 13.3703 13.2818L13.3681 13.2809L13.3681 13.2809C13.1662 13.1897 12.8397 13.064 12.3874 12.9042C11.9556 12.7569 11.5965 12.6005 11.3096 12.4366L11.308 12.4356L11.308 12.4356C11.0163 12.2616 10.7806 12.0424 10.6055 11.7744L10.604 11.7722L10.6041 11.7721C10.4324 11.4932 10.3492 11.1571 10.3492 10.7697C10.3492 10.1839 10.5524 9.6967 10.9611 9.31651C11.3519 8.95296 11.8993 8.74698 12.5934 8.6874L12.5194 7.47582L12.5129 7.36973H12.6192H13.5992H13.7054L13.699 7.47573L13.6247 8.71134C14.1565 8.77754 14.6964 8.91609 15.2441 9.12637L15.3153 9.15371L15.3077 9.2296L15.1777 10.5396L15.1642 10.6763L15.0383 10.6214C14.6292 10.4431 14.2535 10.3121 13.9138 10.2267L13.9116 10.2261L13.9116 10.2261C13.5801 10.1345 13.2491 10.0897 12.9182 10.0897C12.5457 10.0897 12.2778 10.1518 12.1009 10.2641L12.5849 16.1457ZM12.5849 16.1457L12.5204 17.3434L12.5147 17.4487H12.6202H13.6002H13.7063L13.7 17.3428L13.6254 16.084C14.3409 15.9692 14.855 15.7268 15.1397 15.3381C15.4332 14.9401 15.5802 14.4964 15.5802 14.0077C15.5802 13.4115 15.3856 12.932 14.9846 12.5849C14.6017 12.2369 13.9988 11.9388 13.1871 11.6843C12.8286 11.5718 12.5595 11.476 12.3782 11.3981" fill="white" stroke="white" stroke-width="0.2"/>
</svg>
