<svg width="25" height="25" viewBox="0 0 25 25" fill="none" xmlns="http://www.w3.org/2000/svg">
<g clip-path="url(#clip0)">
<path d="M4.52344 11.3768C5.0907 11.3768 5.60413 11.1492 5.98352 10.7838L8.06488 11.8243C8.05444 11.9091 8.03906 11.9924 8.03906 12.08C8.03906 13.243 8.98535 14.1893 10.1484 14.1893C11.3115 14.1893 12.2578 13.243 12.2578 12.08C12.2578 11.7553 12.178 11.4514 12.0463 11.1763L14.8698 8.35284C15.1448 8.4845 15.4488 8.56433 15.7734 8.56433C16.9365 8.56433 17.8828 7.61804 17.8828 6.45496C17.8828 6.23596 17.8398 6.02887 17.7775 5.8302L20.2308 3.99072C20.5655 4.21429 20.9667 4.34558 21.3984 4.34558C22.5615 4.34558 23.5078 3.39929 23.5078 2.23621C23.5078 1.07312 22.5615 0.126831 21.3984 0.126831C20.2354 0.126831 19.2891 1.07312 19.2891 2.23621C19.2891 2.4552 19.3321 2.66229 19.3943 2.86096L16.9411 4.70044C16.6064 4.47687 16.2052 4.34558 15.7734 4.34558C14.6104 4.34558 13.6641 5.29187 13.6641 6.45496C13.6641 6.7796 13.7439 7.08356 13.8755 7.35858L11.0521 10.1821C10.777 10.0504 10.4731 9.97058 10.1484 9.97058C9.58118 9.97058 9.06775 10.1982 8.68835 10.5637L6.60699 9.52307C6.61743 9.43829 6.63281 9.35498 6.63281 9.26746C6.63281 8.10437 5.68652 7.15808 4.52344 7.15808C3.36035 7.15808 2.41406 8.10437 2.41406 9.26746C2.41406 10.4305 3.36035 11.3768 4.52344 11.3768Z" fill="#FF1678"/>
<path d="M24.2578 22.7206H23.5078V7.86121C23.5078 7.47266 23.1932 7.15808 22.8047 7.15808H19.9922C19.6036 7.15808 19.2891 7.47266 19.2891 7.86121V22.7206H17.8828V12.08C17.8828 11.6914 17.5682 11.3768 17.1797 11.3768H14.3672C13.9786 11.3768 13.6641 11.6914 13.6641 12.08V22.7206H12.2578V17.705C12.2578 17.3164 11.9432 17.0018 11.5547 17.0018H8.74219C8.35364 17.0018 8.03906 17.3164 8.03906 17.705V22.7206H6.63281V14.8925C6.63281 14.5039 6.31824 14.1893 5.92969 14.1893H3.11719C2.72864 14.1893 2.41406 14.5039 2.41406 14.8925V22.7206H1.66406C1.27551 22.7206 0.960938 23.0352 0.960938 23.4237C0.960938 23.8123 1.27551 24.1268 1.66406 24.1268H24.2578C24.6464 24.1268 24.9609 23.8123 24.9609 23.4237C24.9609 23.0352 24.6464 22.7206 24.2578 22.7206Z" fill="#FF1678"/>
</g>
<defs>
<clipPath id="clip0">
<rect width="24" height="24" fill="white" transform="translate(0.960938 0.126831)"/>
</clipPath>
</defs>
</svg>
