<svg width="25" height="25" viewBox="0 0 25 25" fill="none" xmlns="http://www.w3.org/2000/svg">
<path fill-rule="evenodd" clip-rule="evenodd" d="M21.8926 20.9844C22.9971 20.9844 23.8926 20.0889 23.8926 18.9844V15.8725L23.3933 15.5836C22.4715 15.0504 21.8926 14.0683 21.8926 12.9844C21.8926 11.9004 22.4715 10.9184 23.3933 10.3851L23.8926 10.0963V6.98438C23.8926 5.87981 22.9971 4.98438 21.8926 4.98438H3.89258C2.78801 4.98438 1.89258 5.87981 1.89258 6.98438V10.0963L2.39185 10.3851C3.3137 10.9184 3.89258 11.9004 3.89258 12.9844C3.89258 14.0683 3.3137 15.0504 2.39185 15.5836L1.89258 15.8725V18.9844C1.89258 20.0889 2.78801 20.9844 3.89258 20.9844H21.8926Z" fill="#FF1678"/>
<path fill-rule="evenodd" clip-rule="evenodd" d="M15.8984 6.98438C15.8984 7.53666 15.4507 7.98438 14.8984 7.98438C14.3462 7.98438 13.8984 7.53666 13.8984 6.98438C13.8984 6.43209 14.3462 5.98438 14.8984 5.98438C15.4507 5.98438 15.8984 6.43209 15.8984 6.98438ZM15.8984 10.0156C15.8984 10.5679 15.4507 11.0156 14.8984 11.0156C14.3462 11.0156 13.8984 10.5679 13.8984 10.0156C13.8984 9.46334 14.3462 9.01562 14.8984 9.01562C15.4507 9.01562 15.8984 9.46334 15.8984 10.0156ZM14.8984 13.9844C15.4507 13.9844 15.8984 13.5367 15.8984 12.9844C15.8984 12.4321 15.4507 11.9844 14.8984 11.9844C14.3462 11.9844 13.8984 12.4321 13.8984 12.9844C13.8984 13.5367 14.3462 13.9844 14.8984 13.9844ZM15.8984 15.9534C15.8984 16.5057 15.4507 16.9534 14.8984 16.9534C14.3462 16.9534 13.8984 16.5057 13.8984 15.9534C13.8984 15.4011 14.3462 14.9534 14.8984 14.9534C15.4507 14.9534 15.8984 15.4011 15.8984 15.9534ZM14.8984 19.9224C15.4507 19.9224 15.8984 19.4746 15.8984 18.9224C15.8984 18.3701 15.4507 17.9224 14.8984 17.9224C14.3462 17.9224 13.8984 18.3701 13.8984 18.9224C13.8984 19.4746 14.3462 19.9224 14.8984 19.9224Z" fill="white"/>
</svg>
