<svg width="25" height="25" viewBox="0 0 25 25" fill="none" xmlns="http://www.w3.org/2000/svg">
<g clip-path="url(#clip0)">
<path d="M8.51452 16.494C8.51452 14.2419 11.435 13.8816 11.435 12.6409C11.435 12.0957 11.0131 11.7698 10.4852 11.7698C9.75526 11.7698 9.35911 12.5091 9.35911 12.5091L8.51456 11.9461C8.51456 11.9461 9.08617 10.6968 10.5819 10.6968C11.6815 10.6968 12.6141 11.3651 12.6141 12.5442C12.6141 14.5499 9.81683 14.893 9.79032 16.0721H12.7108V17.0484H8.56754C8.54103 16.8465 8.51452 16.6703 8.51452 16.494ZM13.3469 14.7434L16.0389 10.8021H17.3849V14.4969H18.1944V15.4389H17.3849V17.0485H16.2674V15.4389H13.3469V14.7434ZM16.2674 14.4969V12.5621C16.2674 12.2541 16.3118 11.911 16.3118 11.911H16.2939C16.2939 11.911 16.1535 12.2448 15.9859 12.4826L14.5432 14.4797V14.4969H16.2674ZM21.777 14.1658L21.5597 14.9444C20.3241 19.3704 15.8156 22.1633 11.3557 21.0563C7.07205 19.9932 4.40979 15.8424 5.04994 11.6135L6.34068 11.9738C6.63986 12.0573 6.91731 11.7856 6.84002 11.4847L5.43633 6.01885C5.35908 5.71799 4.98512 5.6136 4.76316 5.83093L0.730817 9.77924C0.508857 9.99657 0.605406 10.3727 0.90466 10.4563L2.3096 10.8485C1.26113 16.5689 4.79018 22.2662 10.5491 23.7658C16.529 25.3231 22.6284 21.6216 24.29 15.6698L24.4978 14.9254C24.5577 14.7107 24.4323 14.4882 24.2176 14.4282L22.2742 13.8857C22.0595 13.8257 21.837 13.9512 21.777 14.1658ZM24.0735 10.7599L22.0354 11.0247C21.8144 11.0534 21.6586 11.2559 21.6872 11.4769L21.7675 12.095C21.7962 12.316 21.9987 12.4719 22.2197 12.4432L24.2577 12.1784C24.4787 12.1497 24.6346 11.9472 24.6059 11.7262L24.5256 11.1081C24.4969 10.8871 24.2945 10.7312 24.0735 10.7599ZM22.5045 6.90881L20.7141 7.91779C20.52 8.0272 20.4513 8.27328 20.5607 8.46748L20.8667 9.0105C20.9761 9.20465 21.2222 9.27336 21.4164 9.16395L23.2068 8.15497C23.4009 8.04556 23.4696 7.79948 23.3602 7.60528L23.0542 7.06226C22.9448 6.86811 22.6987 6.7994 22.5045 6.90881ZM19.6072 3.92584L18.3251 5.53203C18.1861 5.70619 18.2146 5.96015 18.3888 6.09913L18.8759 6.48799C19.0501 6.62705 19.304 6.59854 19.443 6.42434L20.7251 4.81815C20.8642 4.64395 20.8357 4.39003 20.6615 4.25101L20.1743 3.86215C20.0002 3.72317 19.7463 3.75164 19.6072 3.92584ZM15.8034 2.24541L15.2164 4.21494C15.1527 4.4285 15.2743 4.65329 15.4878 4.71693L16.0852 4.89497C16.2987 4.95866 16.5235 4.83709 16.5872 4.62356L17.1742 2.65404C17.2379 2.44047 17.1163 2.21572 16.9028 2.15204L16.3054 1.974C16.0919 1.91031 15.8671 2.03184 15.8034 2.24541ZM11.6471 2.11227L11.8406 4.15831C11.8616 4.38019 12.0585 4.54305 12.2803 4.52207L12.9009 4.46337C13.1227 4.44239 13.2856 4.24552 13.2646 4.02364L13.0711 1.97761C13.0502 1.75572 12.8533 1.5929 12.6314 1.61388L12.0109 1.67255C11.789 1.69353 11.6262 1.89039 11.6471 2.11227ZM7.74362 3.54584L8.68946 5.37038C8.79201 5.56823 9.03558 5.64548 9.23346 5.54289L9.78683 5.25607C9.98467 5.15348 10.0619 4.90995 9.95934 4.71207L9.0135 2.88753C8.91095 2.68968 8.66738 2.61243 8.4695 2.71502L7.91613 3.00188C7.71829 3.10439 7.64107 3.34796 7.74362 3.54584Z" fill="#FF1678"/>
</g>
<defs>
<clipPath id="clip0">
<rect width="24" height="24" fill="white" transform="translate(0.609375 0.867188)"/>
</clipPath>
</defs>
</svg>
