<svg width="71" height="71" viewBox="0 0 71 71" fill="none" xmlns="http://www.w3.org/2000/svg">
<circle cx="35.3008" cy="35.416" r="35" fill="#FF2462"/>
<g clip-path="url(#clip0)">
<path d="M50.6836 26.1191V42.5254L49.7396 43.6261L35.3027 44.7703C20.0346 43.5609 20.8984 43.6293 20.8645 43.6266L19.9219 42.5254V26.1191H50.6836Z" fill="white"/>
<path d="M50.6816 26.1191V42.5254L49.7377 43.6261L35.3008 44.7703V26.1191H50.6816Z" fill="white"/>
<path d="M21.9688 28.1699H48.6289V43.5508H21.9688V28.1699Z" fill="#FF2462"/>
<path d="M35.3008 28.1699H48.6309V43.5508H35.3008V28.1699Z" fill="#FF2462"/>
<path d="M46.5801 25.0938L39.4023 17.916V25.0938H46.5801Z" fill="white"/>
<path d="M46.582 25.0938V43.5508H24.0234V17.916H39.4043V25.0938H46.582Z" fill="#FF2462"/>
<path d="M46.5801 25.0938V43.5508H35.3008V17.916H39.4023V25.0938H46.5801Z" fill="#FF2462"/>
<path d="M31.2012 28.1699C29.505 28.1699 28.125 26.7899 28.125 25.0938C28.125 23.3976 29.505 22.0176 31.2012 22.0176C32.8973 22.0176 34.2773 23.3976 34.2773 25.0938C34.2773 26.7899 32.8973 28.1699 31.2012 28.1699Z" fill="white"/>
<path d="M35.3008 34.3223H27.0977V32.2715C27.0977 30.0098 28.9375 28.1699 31.1992 28.1699C33.461 28.1699 35.3008 30.0098 35.3008 32.2715V34.3223Z" fill="white"/>
<path d="M27.0977 36.373H42.4785V38.4238H27.0977V36.373Z" fill="white"/>
<path d="M35.3008 36.373H42.4785V38.4238H35.3008V36.373Z" fill="white"/>
<path d="M38.375 32.2715H42.4766V34.3223H38.375V32.2715Z" fill="white"/>
<path d="M38.375 28.1699H42.4766V30.2207H38.375V28.1699Z" fill="white"/>
<path d="M40.3194 51.4316H30.2812L32.332 47.3301H38.2686L40.3194 51.4316Z" fill="white"/>
<path d="M40.3199 51.4316H35.3008V47.3301H38.2691L40.3199 51.4316Z" fill="white"/>
<path d="M19.9219 42.5254H50.6836V48.8145H19.9219V42.5254Z" fill="white"/>
<path d="M35.3008 42.5254H50.6816V48.8145H35.3008V42.5254Z" fill="white"/>
<path d="M28.125 50.8652H42.4805V52.916H28.125V50.8652Z" fill="white"/>
<path d="M35.3008 50.8652H42.4785V52.916H35.3008V50.8652Z" fill="white"/>
</g>
<defs>
<clipPath id="clip0">
<rect width="35" height="35" fill="white" transform="translate(17.8008 17.916)"/>
</clipPath>
</defs>
</svg>
