<svg width="35" height="36" viewBox="0 0 35 36" fill="none" xmlns="http://www.w3.org/2000/svg">
<path opacity="0.8" d="M35 17.5156C35 27.1806 27.165 35.0156 17.5 35.0156C7.83502 35.0156 0 27.1806 0 17.5156C0 7.85064 7.83502 0.015625 17.5 0.015625C27.165 0.015625 35 7.85064 35 17.5156Z" fill="black"/>
<g clip-path="url(#clip0)">
<path fill-rule="evenodd" clip-rule="evenodd" d="M25.7608 20.124H25.3337C25.2092 20.4981 25.0571 20.8598 24.8821 21.2081L25.1862 21.5119C25.8658 22.1915 25.8658 23.2923 25.1862 23.9719L23.9567 25.2015C23.2771 25.881 22.1771 25.881 21.4975 25.2015L21.1933 24.8977C20.8442 25.0719 20.4837 25.2248 20.1092 25.3494V25.7765C20.1092 26.7369 19.3304 27.5156 18.37 27.5156H16.6308C15.6704 27.5156 14.8917 26.7369 14.8917 25.7765V25.3494C14.5167 25.2248 14.1558 25.0719 13.8075 24.8977L13.5038 25.2015C12.8242 25.881 11.7225 25.881 11.0437 25.2015L9.81417 23.9719C9.13458 23.2923 9.13458 22.1915 9.81417 21.5119L10.1179 21.2081C9.94375 20.8594 9.79167 20.4981 9.66625 20.124H9.23917C8.27875 20.124 7.5 19.3452 7.5 18.3848V16.646C7.5 15.6852 8.27875 14.9069 9.23917 14.9069H9.66625C9.79167 14.5323 9.94375 14.171 10.1179 13.8223L9.81417 13.5185C9.13458 12.8394 9.13458 11.7385 9.81417 11.0594L11.0437 9.82979C11.7225 9.15062 12.8242 9.15062 13.5038 9.82979L13.8075 10.1335C14.1558 9.95896 14.5162 9.80646 14.8917 9.68187V9.25479C14.8917 8.29437 15.6704 7.51562 16.6308 7.51562H18.37C19.3304 7.51562 20.1092 8.29437 20.1092 9.25479V9.68187C20.4833 9.80646 20.8442 9.95896 21.1933 10.1335L21.4975 9.82979C22.1771 9.15062 23.2771 9.15062 23.9567 9.82979L25.1862 11.0594C25.8658 11.7385 25.8658 12.8394 25.1862 13.5185L24.8821 13.8223C25.0571 14.171 25.2092 14.5319 25.3337 14.9069H25.7608C26.7212 14.9069 27.5 15.6852 27.5 16.646V18.3848C27.5 19.3452 26.7212 20.124 25.7608 20.124ZM17.5 21.8631C15.0992 21.8631 13.1525 19.9165 13.1525 17.5156C13.1525 15.1144 15.0992 13.1677 17.5 13.1677C19.9017 13.1677 21.8483 15.1144 21.8483 17.5156C21.8483 19.9165 19.9017 21.8631 17.5 21.8631Z" fill="white"/>
</g>
<defs>
<clipPath id="clip0">
<rect width="20" height="20" fill="white" transform="translate(7.5 7.51562)"/>
</clipPath>
</defs>
</svg>
