<svg width="35" height="35" viewBox="0 0 35 35" fill="none" xmlns="http://www.w3.org/2000/svg">
<path opacity="0.8" d="M35 17.5C35 27.165 27.165 35 17.5 35C7.83502 35 0 27.165 0 17.5C0 7.83502 7.83502 0 17.5 0C27.165 0 35 7.83502 35 17.5Z" fill="black"/>
<path d="M22.4243 22.1293L12.3661 12.0712C12.1477 11.8528 11.7937 11.8528 11.5753 12.0712C11.3569 12.2896 11.3569 12.6436 11.5753 12.862L21.6334 22.9202C21.8518 23.1386 22.2059 23.1386 22.4243 22.9202C22.6427 22.7018 22.6427 22.3477 22.4243 22.1293Z" fill="white" stroke="white" stroke-width="0.5"/>
<path d="M12.3666 22.9202L22.4247 12.8621C22.6431 12.6437 22.6431 12.2896 22.4247 12.0712C22.2063 11.8528 21.8523 11.8528 21.6339 12.0712L11.5757 22.1293C11.3573 22.3477 11.3573 22.7018 11.5757 22.9202C11.7941 23.1386 12.1482 23.1386 12.3666 22.9202Z" fill="white" stroke="white" stroke-width="0.5"/>
</svg>
