<svg width="101" height="101" viewBox="0 0 101 101" fill="none" xmlns="http://www.w3.org/2000/svg">
<path d="M100.703 50.5859C100.703 78.2002 78.3174 100.586 50.7031 100.586C23.0889 100.586 0.703125 78.2002 0.703125 50.5859C0.703125 22.9717 23.0889 0.585938 50.7031 0.585938C78.3174 0.585938 100.703 22.9717 100.703 50.5859Z" fill="#A1A1A1"/>
<path d="M71.6016 50.1523H26.6797C25.5881 50.1523 24.7031 51.0373 24.7031 52.1289C24.7031 53.2205 25.5881 54.1055 26.6797 54.1055H71.6016C72.6932 54.1055 73.5781 53.2205 73.5781 52.1289C73.5781 51.0373 72.6932 50.1523 71.6016 50.1523Z" fill="white" stroke="white" stroke-width="2"/>
<path d="M51.1173 74.5898V29.668C51.1173 28.5764 50.2323 27.6914 49.1407 27.6914C48.049 27.6914 47.1641 28.5764 47.1641 29.668V74.5898C47.1641 75.6814 48.049 76.5664 49.1407 76.5664C50.2323 76.5664 51.1173 75.6814 51.1173 74.5898Z" fill="white" stroke="white" stroke-width="2"/>
</svg>
