<svg width="25" height="25" viewBox="0 0 25 25" fill="none" xmlns="http://www.w3.org/2000/svg">
<path fill-rule="evenodd" clip-rule="evenodd" d="M4.04688 2.10156H18.4691L22.0469 5.77833V20.1016C22.0469 21.2061 21.1514 22.1016 20.0469 22.1016H4.04688C2.94231 22.1016 2.04688 21.2061 2.04688 20.1016V4.10156C2.04688 2.99699 2.94231 2.10156 4.04688 2.10156ZM17.6246 4.10156H17.0469V10.1016H7.04688V4.10156H4.04688V20.1016H6.04688V12.1016H18.0469V20.1016H20.0469V6.59081L17.6246 4.10156ZM9.04688 8.10156V4.10156H15.0469V8.10156H9.04688ZM8.04688 14.1016V20.1016H16.0469V14.1016H8.04688ZM14.0469 5.10156H12.0469V7.10156H14.0469V5.10156Z" fill="#454545"/>
</svg>
