<svg width="200" height="50" viewBox="0 0 200 50" fill="none" xmlns="http://www.w3.org/2000/svg">
<path d="M28.4282 17.9031H35.405V49.1294H28.4282V42.922C25.0334 47.6407 20.8233 50 15.7979 50C11.4408 50 7.71184 48.3851 4.61107 45.1552C1.53702 41.9253 0 38.0015 0 33.3838C0 29.0184 1.55039 25.2082 4.65116 21.9531C7.77867 18.6727 11.4408 17.0326 15.6375 17.0326C18.2304 17.0326 20.6897 17.7012 23.0152 19.0386C25.3408 20.376 27.1451 22.1171 28.4282 24.2619V17.9031ZM29.3504 33.6109C29.3504 30.7595 28.2678 28.3245 26.1026 26.3058C23.9375 24.2619 21.3446 23.24 18.324 23.24C15.3836 23.24 12.8174 24.2493 10.6255 26.268C8.43357 28.2866 7.33761 30.6586 7.33761 33.3838C7.33761 36.3361 8.40684 38.8468 10.5453 40.916C12.6838 42.9851 15.2767 44.0197 18.324 44.0197C21.3446 44.0197 23.9375 42.9977 26.1026 40.9538C28.2678 38.8847 29.3504 36.437 29.3504 33.6109Z" fill="black"/>
<path d="M43.2638 17.9031H74.5389L54.6111 43.3762H74.3785V49.1294H42.8629L62.9912 23.6185H43.2638V17.9031Z" fill="black"/>
<path d="M80.5934 7.64572C80.5934 6.28312 81.128 5.10977 82.1973 4.12566C83.2665 3.11633 84.5362 2.61166 86.0064 2.61166C87.4499 2.61166 88.6929 3.11633 89.7354 4.12566C90.8046 5.10977 91.3392 6.28312 91.3392 7.64572C91.3392 9.03356 90.8046 10.2195 89.7354 11.2036C88.6929 12.1877 87.4499 12.6798 86.0064 12.6798C84.5362 12.6798 83.2665 12.1877 82.1973 11.2036C81.128 10.2195 80.5934 9.03356 80.5934 7.64572ZM82.5581 17.9031H89.4547V49.1294H82.5581V17.9031Z" fill="black"/>
<path d="M101.002 0H107.899V24.0727C110.866 19.3793 115.116 17.0326 120.65 17.0326C124.926 17.0326 128.629 18.6475 131.756 21.8774C134.91 25.1072 136.488 28.9427 136.488 33.3838C136.488 37.8249 134.937 41.7108 131.836 45.0416C128.762 48.3472 125.167 50 121.051 50C118.404 50 115.891 49.3313 113.512 47.9939C111.133 46.6566 109.262 44.8398 107.899 42.5435V49.1294H101.002V0ZM129.11 33.3838C129.11 30.5324 128.027 28.0974 125.862 26.0787C123.697 24.0348 121.077 23.0129 118.003 23.0129C115.036 23.0129 112.457 24.0474 110.265 26.1166C108.099 28.1605 107.017 30.5829 107.017 33.3838C107.017 36.3109 108.099 38.7837 110.265 40.8024C112.457 42.7959 115.143 43.7926 118.324 43.7926C121.264 43.7926 123.79 42.7706 125.902 40.7267C128.041 38.6828 129.11 36.2352 129.11 33.3838Z" fill="black"/>
<path d="M173.095 17.9031H180.072V49.1294H173.095V42.922C169.701 47.6407 165.491 50 160.465 50C156.108 50 152.379 48.3851 149.278 45.1552C146.204 41.9253 144.667 38.0015 144.667 33.3838C144.667 29.0184 146.218 25.2082 149.318 21.9531C152.446 18.6727 156.108 17.0326 160.305 17.0326C162.898 17.0326 165.357 17.7012 167.682 19.0386C170.008 20.376 171.812 22.1171 173.095 24.2619V17.9031ZM174.018 33.6109C174.018 30.7595 172.935 28.3245 170.77 26.3058C168.605 24.2619 166.012 23.24 162.991 23.24C160.051 23.24 157.485 24.2493 155.293 26.268C153.101 28.2866 152.005 30.6586 152.005 33.3838C152.005 36.3361 153.074 38.8468 155.213 40.916C157.351 42.9851 159.944 44.0197 162.991 44.0197C166.012 44.0197 168.605 42.9977 170.77 40.9538C172.935 38.8847 174.018 36.437 174.018 33.6109Z" fill="black"/>
<path d="M189.254 7.64572C189.254 6.28312 189.789 5.10977 190.858 4.12566C191.927 3.11633 193.197 2.61166 194.667 2.61166C196.111 2.61166 197.354 3.11633 198.396 4.12566C199.465 5.10977 200 6.28312 200 7.64572C200 9.03356 199.465 10.2195 198.396 11.2036C197.354 12.1877 196.111 12.6798 194.667 12.6798C193.197 12.6798 191.927 12.1877 190.858 11.2036C189.789 10.2195 189.254 9.03356 189.254 7.64572ZM191.219 17.9031H198.115V49.1294H191.219V17.9031Z" fill="black"/>
</svg>
