<svg width="21" height="20" viewBox="0 0 21 20" fill="none" xmlns="http://www.w3.org/2000/svg">
<path d="M13.6846 18.0347V15.2911H13.6101C12.8652 16.3612 12.1141 17.1388 11.3569 17.6241C10.5996 18.0969 9.66225 18.3333 8.54493 18.3333C6.67032 18.3333 5.07504 17.5245 3.75909 15.907C2.44313 14.2895 1.78516 12.3236 1.78516 10.0093C1.78516 7.71988 2.48658 5.76019 3.88944 4.13023C5.2923 2.48783 6.95586 1.66663 8.88013 1.66663C9.79881 1.66663 10.6244 1.87193 11.3569 2.28253C12.0893 2.69313 12.8652 3.34636 13.6846 4.24221V2.02124H18.4518V18.0347H13.6846ZM10.1837 6.44453C9.24015 6.44453 8.45182 6.82402 7.81868 7.58301C7.18553 8.32956 6.86896 9.27519 6.86896 10.4199C6.86896 11.4899 7.16691 12.3547 7.76281 13.0141C8.37113 13.6612 9.16567 13.9847 10.1464 13.9847C11.0899 13.9847 11.8969 13.6114 12.5673 12.8648C13.2377 12.1058 13.5729 11.1913 13.5729 10.1213C13.5729 9.12588 13.2377 8.26735 12.5673 7.54569C11.8969 6.81158 11.1024 6.44453 10.1837 6.44453Z" fill="#A1A1A1"/>
</svg>
