<svg width="400" height="400" viewBox="0 0 400 400" fill="none" xmlns="http://www.w3.org/2000/svg">
<rect width="400" height="400" fill="#F3F3F3"/>
<path d="M220.541 246.28V230.477H220.112C215.821 236.641 211.495 241.12 207.133 243.915C202.771 246.638 197.372 248 190.936 248C180.139 248 170.95 243.342 163.37 234.025C155.79 224.708 152 213.384 152 200.054C152 186.867 156.04 175.579 164.121 166.19C172.201 156.73 181.783 152 192.867 152C198.159 152 202.914 153.183 207.133 155.548C211.352 157.913 215.821 161.675 220.541 166.835V154.043H248V246.28H220.541ZM200.375 179.521C194.941 179.521 190.4 181.707 186.753 186.078C183.106 190.379 181.283 195.825 181.283 202.419C181.283 208.582 182.999 213.563 186.431 217.362C189.935 221.088 194.512 222.952 200.161 222.952C205.596 222.952 210.244 220.802 214.105 216.502C217.966 212.13 219.897 206.862 219.897 200.699C219.897 194.965 217.966 190.02 214.105 185.863C210.244 181.635 205.667 179.521 200.375 179.521Z" fill="#E1E1E1"/>
<g clip-path="url(#clip0)">
<path d="M354.41 44.8546C354.355 44.8214 354.305 44.7796 354.262 44.7306L344.318 33.3728C344.139 33.1683 344.112 32.8721 344.252 32.6391L351.115 21.2234C351.218 21.0525 351.397 20.9406 351.596 20.9229C351.794 20.9053 351.991 20.9834 352.121 21.134L362.066 32.4918C362.245 32.6964 362.271 32.9923 362.131 33.2253L355.268 44.6409C355.165 44.8118 354.987 44.9241 354.787 44.9414C354.654 44.9537 354.522 44.9219 354.41 44.8546ZM345.558 32.8927L354.638 43.2625L360.825 32.9717L351.745 22.6018L345.558 32.8927Z" fill="#E1E1E1" fill-opacity="0.8"/>
<path d="M354.411 44.8539C354.299 44.7866 354.209 44.6852 354.157 44.5614C354.079 44.3776 354.094 44.1671 354.197 43.9963L361.06 32.5806C361.2 32.3476 361.475 32.2324 361.739 32.2944L376.434 35.7504C376.63 35.7956 376.79 35.932 376.867 36.1157C376.945 36.2995 376.93 36.5097 376.827 36.6806L369.964 48.0963C369.823 48.3293 369.55 48.4448 369.285 48.3827L354.59 44.9268C354.526 44.9117 354.466 44.8871 354.411 44.8539ZM361.897 33.6151L355.71 43.9054L369.127 47.0612L375.314 36.7709L361.897 33.6151Z" fill="#E1E1E1" fill-opacity="0.8"/>
<path d="M361.208 33.5459C361.152 33.5118 361.1 33.4685 361.057 33.4175L351.188 21.9327C351.012 21.7284 350.988 21.4344 351.127 21.2035C351.265 20.9726 351.537 20.8564 351.8 20.9161L366.572 24.2445C366.702 24.2744 366.821 24.3455 366.908 24.4471L376.776 35.9324C376.952 36.1364 376.976 36.4304 376.838 36.6613C376.699 36.8922 376.428 37.0084 376.165 36.9487L361.393 33.6197C361.327 33.6051 361.265 33.5801 361.208 33.5459ZM353.367 22.5503L361.87 32.4462L374.597 35.3142L366.095 25.418L353.367 22.5503Z" fill="#E1E1E1" fill-opacity="0.8"/>
<path d="M356.969 32.1118L352.402 26.8281L351.457 27.6454L356.023 32.9291L356.969 32.1118Z" fill="#E1E1E1" fill-opacity="0.8"/>
</g>
<g clip-path="url(#clip1)">
<path d="M75.6101 68.6367L57.4086 81.0351C55.6019 82.2658 53.1324 81.8003 51.904 79.9969L38.8137 60.7797C38.2839 60.002 37.491 59.9819 36.91 60.7153L36.3881 61.3648C36.138 61.6779 35.8387 61.9544 35.5015 62.1841C34.0684 63.1603 32.1573 63.1807 30.7455 62.2343L28.2647 60.5569C26.5569 59.4104 25.6434 56.9485 26.1868 54.9557L29.4829 42.9909C29.7069 42.1777 30.152 41.5236 30.771 41.102C31.7818 40.4135 33.1139 40.4631 34.2465 41.2307C34.2479 41.2309 36.7733 42.6699 42.1733 39.0872C47.4629 35.3884 47.0484 32.5116 47.0445 32.4828C46.7507 31.1741 47.1922 29.9162 48.203 29.2277C48.822 28.8061 49.593 28.6306 50.434 28.7195L62.7729 30.0318C64.8296 30.257 66.7855 32.0076 67.228 34.0196L67.8754 36.9399C68.2398 38.601 67.5211 40.3719 66.0888 41.3476C66.0888 41.3476 66.0896 41.347 66.0888 41.3476C65.7516 41.5773 65.3847 41.7546 65.0001 41.8738L64.214 42.1177C63.304 42.3999 63.0412 43.1368 63.5715 43.9153L76.6618 63.1325C77.8894 64.9364 77.4176 67.4055 75.6101 68.6367ZM36.1536 58.7114C37.6066 57.7216 39.4206 58.1182 40.4666 59.6538L53.5569 78.871C54.1644 79.7627 55.3868 79.9924 56.2827 79.3821L74.4841 66.9838C75.3808 66.3729 75.6155 65.1507 75.008 64.259L61.9178 45.0418C60.8718 43.5062 61.1669 41.6729 62.6198 40.6832C62.9174 40.4806 63.255 40.3208 63.6241 40.2072L64.4072 39.9642C65.4602 39.6378 66.1525 38.4232 65.9218 37.3705L65.275 34.451C65.0187 33.2861 63.7498 32.1516 62.5584 32.0207L50.2223 30.7089C49.3249 30.6136 48.7999 31.1769 49.0016 32.0716C49.094 32.4878 49.7146 36.2552 43.3001 40.7395C36.7554 45.0826 33.4794 43.1241 33.127 42.8874C32.3649 42.3708 31.6496 42.6512 31.412 43.5208L28.1164 55.4829C27.802 56.636 28.3938 58.2329 29.3834 58.8971L31.8637 60.5737C32.755 61.1716 34.147 60.9664 34.8285 60.1125L35.3493 59.4649C35.5846 59.1691 35.8569 58.9135 36.1536 58.7114Z" fill="#E1E1E1" fill-opacity="0.8"/>
</g>
<g clip-path="url(#clip2)">
<path d="M369.125 179.904H367.125C367.125 169.105 357.202 160.32 345.006 160.32C332.811 160.32 322.889 169.106 322.889 179.904H320.889C320.889 168.002 331.708 158.32 345.006 158.32C358.306 158.32 369.125 168.002 369.125 179.904Z" fill="#E1E1E1" fill-opacity="0.8"/>
<path d="M351.34 151.355H338.041V153.355H351.34V151.355Z" fill="#E1E1E1" fill-opacity="0.8"/>
<path d="M369 179.039H321V181.039H369V179.039Z" fill="#E1E1E1" fill-opacity="0.8"/>
<path d="M369 190.648H321V192.648H369V190.648Z" fill="#E1E1E1" fill-opacity="0.8"/>
<path d="M345.691 152.355H343.691V159.005H345.691V152.355Z" fill="#E1E1E1" fill-opacity="0.8"/>
</g>
<path d="M211 100.541H183C181.897 100.541 181 99.6432 181 98.5405V80.1172C181 79.0145 181.897 78.1172 183 78.1172H211C212.103 78.1172 213 79.0145 213 80.1172V98.5399C213 99.6432 212.103 100.541 211 100.541ZM183 79.4505C182.633 79.4505 182.333 79.7499 182.333 80.1172V98.5399C182.333 98.9079 182.633 99.2065 183 99.2065H211C211.368 99.2065 211.667 98.9079 211.667 98.5399V80.1172C211.667 79.7499 211.368 79.4505 211 79.4505H183Z" fill="#E1E1E1" fill-opacity="0.8"/>
<path d="M202.721 96.606H186.603C185.868 96.606 185.27 96.008 185.27 95.2727V83.388C185.27 82.6527 185.868 82.0547 186.603 82.0547H202.721C203.456 82.0547 204.054 82.6527 204.054 83.388V95.2727C204.054 96.008 203.456 96.606 202.721 96.606ZM202.721 95.2727V95.9394V95.2727ZM186.603 83.388V95.2727H202.719L202.721 83.388H186.603Z" fill="#E1E1E1" fill-opacity="0.8"/>
<path d="M209.031 85.0931C209.031 85.7078 208.533 86.2071 207.916 86.2071C207.302 86.2071 206.803 85.7071 206.803 85.0931C206.803 84.4785 207.302 83.9805 207.916 83.9805C208.533 83.9805 209.031 84.4778 209.031 85.0931Z" fill="#E1E1E1" fill-opacity="0.8"/>
<path d="M209.031 89.3255C209.031 89.9395 208.533 90.4402 207.916 90.4402C207.302 90.4402 206.803 89.9395 206.803 89.3255C206.803 88.7128 207.302 88.2148 207.916 88.2148C208.533 88.2148 209.031 88.7122 209.031 89.3255Z" fill="#E1E1E1" fill-opacity="0.8"/>
<path d="M187.757 103.877C187.389 103.877 187.09 103.579 187.09 103.21V100.464C187.09 100.095 187.389 99.7969 187.757 99.7969C188.125 99.7969 188.423 100.095 188.423 100.464V103.21C188.423 103.579 188.125 103.877 187.757 103.877Z" fill="#E1E1E1" fill-opacity="0.8"/>
<path d="M206.245 103.877C205.876 103.877 205.578 103.579 205.578 103.21V100.464C205.578 100.095 205.876 99.7969 206.245 99.7969C206.613 99.7969 206.911 100.095 206.911 100.464V103.21C206.911 103.579 206.613 103.877 206.245 103.877Z" fill="#E1E1E1" fill-opacity="0.8"/>
<path d="M127 156.629H99C97.8973 156.629 97 155.731 97 154.629V135.977C97 134.874 97.8973 133.977 99 133.977H127C128.103 133.977 129 134.874 129 135.977V154.629C129 155.732 128.103 156.629 127 156.629ZM99 135.31C98.6327 135.31 98.3333 135.609 98.3333 135.977V154.629C98.3333 154.997 98.6327 155.296 99 155.296H127C127.368 155.296 127.667 154.997 127.667 154.629V135.977C127.667 135.609 127.368 135.31 127 135.31H99Z" fill="#E1E1E1" fill-opacity="0.8"/>
<path d="M113.001 161.166C112.633 161.166 112.334 160.868 112.334 160.499V156.44C112.334 156.071 112.633 155.773 113.001 155.773C113.369 155.773 113.667 156.071 113.667 156.44V160.499C113.667 160.868 113.369 161.166 113.001 161.166Z" fill="#E1E1E1" fill-opacity="0.8"/>
<path d="M121.798 162.025H104.202C103.834 162.025 103.535 161.727 103.535 161.358C103.535 160.989 103.834 160.691 104.202 160.691H121.798C122.166 160.691 122.464 160.989 122.464 161.358C122.464 161.727 122.166 162.025 121.798 162.025Z" fill="#E1E1E1" fill-opacity="0.8"/>
<path d="M312.35 110.752H293.65C291.637 110.752 290 109.115 290 107.102V106.665C290 102.324 301.51 97.3907 302.823 96.8426C302.958 96.7862 303.112 96.7868 303.245 96.8447C304.551 97.407 316 102.455 316 106.665V107.102C316 109.115 314.363 110.752 312.35 110.752ZM303.028 97.9319C299.507 99.4306 291.083 103.657 291.083 106.665V107.102C291.083 108.517 292.234 109.669 293.65 109.669H312.35C313.765 109.669 314.917 108.517 314.917 107.102V106.665C314.917 103.758 306.533 99.4664 303.028 97.9319Z" fill="#E1E1E1" fill-opacity="0.8"/>
<path d="M303.163 97.709C302.864 97.709 302.621 97.4664 302.621 97.1674V94.4682C300.876 94.2061 299.533 92.6959 299.533 90.8786C299.533 88.8777 301.161 87.25 303.163 87.25C305.165 87.25 306.795 88.8777 306.795 90.8786C306.795 91.1776 306.553 91.4203 306.254 91.4203C305.954 91.4203 305.712 91.1776 305.712 90.8786C305.712 89.4752 304.569 88.3333 303.163 88.3333C301.759 88.3333 300.617 89.4752 300.617 90.8786C300.617 92.2826 301.759 93.425 303.163 93.425H303.705V97.1674C303.705 97.4669 303.462 97.709 303.163 97.709Z" fill="#E1E1E1" fill-opacity="0.8"/>
<g clip-path="url(#clip3)">
<path d="M258.252 375.351C254.659 377.848 249.873 377.886 245.624 375.49L243.058 377.274C243.821 382.092 242.116 386.564 238.523 389.061C233.095 392.834 225.128 390.792 220.763 384.511C216.398 378.23 217.264 370.052 222.692 366.28C224.396 365.096 226.436 364.448 228.61 364.397L238.592 357.46C239.396 355.441 240.713 353.756 242.42 352.57C247.848 348.798 255.815 350.838 260.179 357.118C264.544 363.4 263.679 371.579 258.252 375.351ZM241.388 375.998L245.01 373.481C245.337 373.254 245.77 373.242 246.109 373.453C249.807 375.757 254.021 375.854 257.11 373.708C261.633 370.565 262.273 363.635 258.537 358.26C254.802 352.885 248.084 351.069 243.561 354.212C242.11 355.221 241.002 356.685 240.354 358.449C240.284 358.642 240.156 358.808 239.987 358.926L229.498 366.215C229.33 366.332 229.129 366.395 228.923 366.394C227.042 366.387 225.282 366.916 223.832 367.923C219.31 371.065 218.67 377.995 222.405 383.369C226.141 388.745 232.859 390.562 237.381 387.419C240.47 385.273 241.849 381.288 240.98 377.019C240.899 376.628 241.061 376.226 241.388 375.998Z" fill="#E1E1E1" fill-opacity="0.8"/>
<path d="M234.508 373.743L224.875 380.438L226.016 382.08L235.65 375.385L234.508 373.743Z" fill="#E1E1E1" fill-opacity="0.8"/>
<path d="M227.738 372.523L226.096 373.664L232.79 383.296L234.432 382.155L227.738 372.523Z" fill="#E1E1E1" fill-opacity="0.8"/>
<path d="M251.165 362.42C249.481 363.59 247.16 363.173 245.99 361.49C244.82 359.806 245.239 357.486 246.922 356.316C248.606 355.146 250.926 355.563 252.096 357.247C253.266 358.93 252.848 361.25 251.165 362.42ZM248.064 357.958C247.286 358.499 247.093 359.572 247.633 360.348C248.173 361.125 249.246 361.318 250.023 360.778C250.8 360.238 250.993 359.165 250.453 358.388C249.913 357.611 248.841 357.418 248.064 357.958Z" fill="#E1E1E1" fill-opacity="0.8"/>
<path d="M252.646 371.003C250.962 372.173 248.641 371.755 247.471 370.072C246.301 368.388 246.719 366.068 248.403 364.898C250.086 363.728 252.406 364.145 253.576 365.829C254.746 367.512 254.328 369.834 252.646 371.003ZM249.544 366.54C248.766 367.081 248.573 368.154 249.113 368.93C249.654 369.708 250.727 369.901 251.504 369.361C252.281 368.821 252.474 367.748 251.934 366.97C251.393 366.194 250.321 366 249.544 366.54Z" fill="#E1E1E1" fill-opacity="0.8"/>
<path d="M234.357 361.326L232.714 362.467C231.741 361.066 231.093 360.007 230.961 358.139C230.751 355.097 232.823 353.912 235.095 353.085C235.299 353.011 235.515 352.936 235.738 352.859C237.256 352.336 239.146 351.686 239.435 350.355C239.513 349.989 239.462 349.672 239.282 349.417C239.063 349.109 238.657 348.896 238.167 348.831C235.622 348.502 233.809 349.941 231.712 351.606C231.119 352.075 230.526 352.545 229.913 352.976C229.193 353.482 228.52 353.996 227.866 354.497C225.311 356.447 222.899 358.291 219.018 358.705C218.76 358.733 218.499 358.739 218.238 358.743C217.929 358.75 217.637 358.755 217.394 358.807L216.977 356.851C217.405 356.76 217.825 356.752 218.197 356.744C218.401 356.74 218.607 356.737 218.808 356.715C222.131 356.359 224.226 354.76 226.652 352.907C227.327 352.39 228.022 351.861 228.764 351.339C229.346 350.931 229.908 350.484 230.469 350.039C232.719 348.254 235.043 346.412 238.424 346.847C239.485 346.985 240.368 347.487 240.916 348.262C241.417 348.972 241.586 349.865 241.391 350.776C240.865 353.209 238.279 354.1 236.39 354.75C236.176 354.823 235.971 354.894 235.779 354.964C233.54 355.782 232.854 356.518 232.957 358.001C233.054 359.393 233.503 360.098 234.357 361.326Z" fill="#E1E1E1" fill-opacity="0.8"/>
</g>
<g clip-path="url(#clip4)">
<path d="M19.5923 345.76C18.6247 345.76 17.6564 345.64 16.7143 345.402C10.0199 343.712 6.04826 336.497 7.86018 329.316C9.39372 323.242 14.5532 319 20.4083 319C21.3752 319 22.3442 319.12 23.287 319.358C26.5389 320.179 29.2504 322.311 30.9207 325.362C32.5824 328.395 33.0152 331.975 32.1397 335.443C30.6076 341.518 25.4474 345.76 19.5923 345.76ZM20.4083 320.417C15.2028 320.417 10.6078 324.219 9.23434 329.663C7.61297 336.086 11.1242 342.53 17.0607 344.028C17.8902 344.238 18.7423 344.343 19.5923 344.343C24.7971 344.343 29.3921 340.541 30.7663 335.097C31.5539 331.976 31.1679 328.76 29.679 326.042C28.1993 323.341 25.8065 321.455 22.9399 320.732C22.1104 320.522 21.259 320.417 20.4083 320.417Z" fill="#E1E1E1" fill-opacity="0.8"/>
<path d="M11.1508 330.147L9.77734 329.8C11.3031 323.758 17.1284 320 22.7689 321.422L22.4218 322.795C17.5428 321.562 12.4853 324.861 11.1508 330.147Z" fill="#E1E1E1" fill-opacity="0.8"/>
<path d="M18.0867 348.759C17.8062 348.759 17.5356 348.726 17.2806 348.662C17.1588 348.632 17.0349 348.603 16.9095 348.574C16.4306 348.464 15.8888 348.339 15.4092 348.084C15.0494 347.896 14.4955 347.407 14.4183 346.821L14.3984 346.721L14.4119 346.547C14.4388 346.391 14.5196 345.914 15.5488 345.05C15.8172 344.827 16.1048 344.645 16.4561 344.474L16.5674 344.42C16.8068 344.302 17.105 344.154 17.4237 344.152C18.0279 344.152 18.4621 344.613 18.6208 344.812C19.0862 345.393 19.3086 346.024 19.5239 346.634C19.5827 346.798 19.6408 346.964 19.7046 347.128C19.7818 347.295 19.9411 347.638 19.7449 348.046C19.6033 348.344 19.3143 348.557 18.9098 348.659C18.6506 348.725 18.3729 348.759 18.0867 348.759ZM15.8944 346.69C15.9504 346.747 16.0205 346.805 16.0708 346.831C16.3889 347 16.8153 347.098 17.2282 347.194C17.3635 347.225 17.4974 347.256 17.627 347.289C17.8183 347.336 18.052 347.353 18.2702 347.334C18.2426 347.258 18.2156 347.181 18.1887 347.106C18.0046 346.584 17.8303 346.09 17.5158 345.698C17.4747 345.647 17.4344 345.609 17.4039 345.586C17.3543 345.612 17.2551 345.66 17.1956 345.69L17.0632 345.755C16.8252 345.869 16.6354 345.989 16.4583 346.136C16.1849 346.365 15.9993 346.559 15.8944 346.69Z" fill="#E1E1E1" fill-opacity="0.8"/>
<path d="M17.2251 352.332C17.1061 350.363 18.6878 350.052 19.7347 349.846L19.8452 349.824C20.8766 349.619 21.5573 349.267 21.6529 349.092C21.9256 348.341 21.3079 347.877 19.722 347.058C18.8649 346.616 18.1247 346.233 17.7875 345.621L19.0285 344.938C19.1581 345.173 19.8594 345.535 20.3715 345.8C21.7088 346.49 23.7276 347.533 22.9803 349.586C22.6169 350.58 21.0331 351.033 20.1208 351.214L20.0081 351.237C18.753 351.484 18.5993 351.597 18.6382 352.247L17.2251 352.332Z" fill="#E1E1E1" fill-opacity="0.8"/>
</g>
<g clip-path="url(#clip5)">
<path d="M55.1663 253.001H39.0593C38.5363 253.001 38.1013 252.598 38.0623 252.076L35.3153 215.782C35.2943 215.504 35.3903 215.231 35.5793 215.027C35.7683 214.823 36.0343 214.707 36.3123 214.707H57.9143C58.1923 214.707 58.4583 214.823 58.6473 215.027C58.8363 215.231 58.9323 215.505 58.9113 215.782L56.1633 252.076C56.1243 252.598 55.6893 253.001 55.1663 253.001ZM39.9863 251.001H54.2383L56.8353 216.706H37.3913L39.9863 251.001Z" fill="#E1E1E1" fill-opacity="0.8"/>
<path d="M40.3604 231.969C39.2874 231.969 38.1644 231.742 37.0234 231.284L37.7674 229.428C39.9934 230.319 42.0064 230.108 43.5904 228.817L43.9784 228.499C45.5324 227.222 47.4664 225.634 49.2914 224.973C51.9104 224.024 54.9354 224.677 57.5874 226.765L56.3504 228.336C54.2524 226.686 51.9304 226.146 49.9724 226.853C48.4714 227.397 46.6084 228.927 45.2484 230.044L44.8544 230.366C43.5504 231.43 42.0134 231.969 40.3604 231.969Z" fill="#E1E1E1" fill-opacity="0.8"/>
<path d="M47.2663 226.938L40.3763 207.288L33.3443 209.871L32.6543 207.994L40.6393 205.061C40.8913 204.969 41.1683 204.981 41.4113 205.095C41.6533 205.209 41.8393 205.416 41.9283 205.668L49.1543 226.276L47.2663 226.938Z" fill="#E1E1E1" fill-opacity="0.8"/>
<path d="M74.8771 252.998H63.9101C61.0861 252.998 58.7891 250.512 58.7891 247.455V245.73C58.7891 245.177 59.2361 244.73 59.7891 244.73H78.9981C79.5511 244.73 79.9981 245.177 79.9981 245.73V247.455C79.9981 250.512 77.7011 252.998 74.8771 252.998ZM60.7891 246.73V247.455C60.7891 249.408 62.1891 250.998 63.9101 250.998H74.8771C76.5981 250.998 77.9981 249.408 77.9981 247.455V246.73H60.7891Z" fill="#E1E1E1" fill-opacity="0.8"/>
<path d="M78.9981 243.673H59.7891C59.2361 243.673 58.7891 243.226 58.7891 242.673C58.7891 237.464 63.5471 233.227 69.3941 233.227C75.2411 233.227 79.9981 237.464 79.9981 242.673C79.9981 243.226 79.5511 243.673 78.9981 243.673ZM60.8661 241.673H77.9211C77.3551 238.038 73.7471 235.227 69.3951 235.227C65.0411 235.227 61.4331 238.038 60.8661 241.673Z" fill="#E1E1E1" fill-opacity="0.8"/>
<path d="M53.2161 231.022L51.2188 230.918L50.2904 248.817L52.2878 248.92L53.2161 231.022Z" fill="#E1E1E1" fill-opacity="0.8"/>
<path d="M73.1195 240.274C71.2635 238.701 68.8425 238.742 68.8275 238.742L68.7695 236.742C68.8895 236.744 71.9575 236.67 74.4125 238.747L73.1195 240.274Z" fill="#E1E1E1" fill-opacity="0.8"/>
</g>
<g clip-path="url(#clip6)">
<path d="M113.766 389.998H88.2335C86.48 389.998 85.0527 388.61 85.0527 386.905V372.841C85.0527 371.134 86.48 369.746 88.2335 369.746H97.1255C97.5395 369.746 97.8755 370.082 97.8755 370.496C97.8755 370.91 97.5395 371.246 97.1255 371.246H88.2335C87.3065 371.246 86.5527 371.962 86.5527 372.841V386.905C86.5527 387.784 87.3065 388.498 88.2335 388.498H113.766C114.693 388.498 115.448 387.784 115.448 386.905V372.841C115.448 371.962 114.693 371.246 113.766 371.246H104.82C104.406 371.246 104.07 370.91 104.07 370.496C104.07 370.082 104.406 369.746 104.82 369.746H113.767C115.521 369.746 116.949 371.134 116.949 372.841V386.905C116.949 388.61 115.521 389.998 113.766 389.998Z" fill="#E1E1E1" fill-opacity="0.8"/>
<path d="M115.34 371.246H104.485C104.07 371.246 103.735 370.91 103.735 370.496C103.735 370.082 104.07 369.746 104.485 369.746H115.34C116.266 369.746 117.02 369.031 117.02 368.152V365.005C117.02 364.126 116.266 363.41 115.34 363.41H86.662C85.735 363.41 84.9805 364.126 84.9805 365.005V368.152C84.9805 369.031 85.735 369.746 86.662 369.746H97.516C97.93 369.746 98.266 370.082 98.266 370.496C98.266 370.91 97.93 371.246 97.516 371.246H86.662C84.9077 371.246 83.4805 369.858 83.4805 368.152V365.005C83.4805 363.298 84.9077 361.91 86.662 361.91H115.34C117.094 361.91 118.52 363.298 118.52 365.005V368.152C118.52 369.858 117.094 371.246 115.34 371.246Z" fill="#E1E1E1" fill-opacity="0.8"/>
<path d="M104.235 389.998H97.7695C97.3555 389.998 97.0195 389.663 97.0195 389.248V362.66C97.0195 362.246 97.3555 361.91 97.7695 361.91H104.235C104.649 361.91 104.985 362.246 104.985 362.66V389.248C104.985 389.663 104.649 389.998 104.235 389.998ZM98.5195 388.498H103.485V363.41H98.5195V388.498Z" fill="#E1E1E1" fill-opacity="0.8"/>
<path d="M103.817 363.411C103.402 363.411 103.067 363.075 103.067 362.661C103.067 362.247 103.402 361.911 103.817 361.911C104.261 361.872 108.029 361.095 108.88 359.29C109.203 358.605 109.042 357.813 108.388 356.871C107.264 355.251 106.408 355.475 106.125 355.549C104.028 356.099 101.977 360.804 101.873 361.653C101.89 362.037 101.611 362.376 101.224 362.429C100.812 362.479 100.435 362.196 100.38 361.785C100.255 360.856 102.518 355.327 105.383 354.215C106.457 353.799 108.062 353.772 109.619 356.015C110.877 357.826 110.614 359.212 110.173 360.056C108.839 362.607 104.206 363.411 103.817 363.411Z" fill="#E1E1E1" fill-opacity="0.8"/>
<path d="M98.1851 363.412C97.7959 363.412 93.1646 362.607 91.8296 360.056C91.3886 359.212 91.1261 357.827 92.3831 356.015C93.9394 353.773 95.5451 353.798 96.6184 354.215C99.4834 355.327 101.746 360.856 101.621 361.786C101.565 362.196 101.187 362.479 100.777 362.429C100.389 362.377 100.111 362.038 100.128 361.654C100.023 360.804 97.9729 356.099 95.8766 355.549C95.5954 355.476 94.7389 355.252 93.6146 356.871C92.9606 357.813 92.8001 358.605 93.1234 359.29C93.9731 361.094 97.7404 361.873 98.2174 361.912C98.6179 361.945 98.9359 362.29 98.9186 362.692C98.9036 363.094 98.5871 363.412 98.1851 363.412Z" fill="#E1E1E1" fill-opacity="0.8"/>
</g>
<g clip-path="url(#clip7)">
<path d="M234.867 30.7437L248.847 9.37783C249.807 7.91052 251.75 7.4763 253.177 8.41009L264.946 16.1104C266.373 17.0446 266.754 18.999 265.794 20.4663L260.925 27.9071C260.698 28.2535 260.233 28.3507 259.887 28.124C259.54 27.8974 259.443 27.4322 259.67 27.0858L264.538 19.645C265.046 18.8693 264.86 17.8469 264.124 17.3656L252.356 9.66528C251.62 9.18401 250.609 9.4234 250.102 10.1991L236.122 31.565C235.615 32.3407 235.8 33.3634 236.535 33.8446L248.304 41.5449C249.039 42.0262 250.051 41.7866 250.559 41.0109L255.457 33.5249C255.684 33.1779 256.149 33.0813 256.495 33.308C256.841 33.5346 256.939 33.9992 256.712 34.3462L251.813 41.8328C250.853 43.3007 248.91 43.735 247.482 42.8008L235.713 35.1005C234.286 34.1667 233.906 32.2116 234.867 30.7437Z" fill="#E1E1E1" fill-opacity="0.8"/>
<path d="M249.697 42.3299L255.64 33.246C255.868 32.899 256.332 32.8024 256.679 33.0291C257.025 33.2558 257.123 33.7203 256.896 34.0673L250.952 43.1511C250.445 43.9256 250.631 44.9481 251.367 45.4293L254 47.1524C254.736 47.6337 255.747 47.3947 256.254 46.6202L271.956 22.6222C272.464 21.8465 272.278 20.8234 271.542 20.3421L268.909 18.6191C268.173 18.1378 267.162 18.3774 266.654 19.1532L260.711 28.2357C260.485 28.5821 260.02 28.6793 259.673 28.4527C259.327 28.226 259.229 27.7609 259.456 27.4144L265.399 18.3319C266.359 16.8639 268.302 16.4297 269.73 17.3639L272.364 19.087C273.791 20.0212 274.172 21.9756 273.211 23.4435L257.509 47.4415C256.549 48.9088 254.607 49.3418 253.179 48.4076L250.546 46.6845C249.118 45.7503 248.737 43.7972 249.697 42.3299Z" fill="#E1E1E1" fill-opacity="0.8"/>
<path d="M240.087 22.768L243.626 17.3581C243.853 17.0117 244.317 16.9141 244.665 17.1412L266.913 31.6987C267.26 31.9254 267.357 32.3905 267.13 32.737L263.591 38.1468C263.364 38.4939 262.899 38.5905 262.552 38.3638L240.304 23.8062C239.956 23.5792 239.86 23.1144 240.087 22.768ZM244.471 18.807L241.752 22.9617L262.746 36.698L265.465 32.5433L244.471 18.807Z" fill="#E1E1E1" fill-opacity="0.8"/>
<path d="M262.563 36.9754C262.79 36.6283 263.255 36.5318 263.601 36.7584C263.948 36.9851 264.045 37.4496 263.818 37.7967C263.608 38.1896 262.195 41.7684 263.24 43.4681C263.636 44.1139 264.387 44.4133 265.533 44.3818C267.504 44.3276 267.786 43.4885 267.878 43.2112C268.567 41.1555 265.752 36.8637 265.098 36.3112C264.769 36.1152 264.637 35.6963 264.805 35.3431C264.988 34.9711 265.432 34.8112 265.805 34.9894C266.652 35.3934 270.039 40.3147 269.401 43.3211C269.161 44.4477 268.305 45.8051 265.576 45.8802C263.371 45.941 262.355 44.9625 261.891 44.1308C260.487 41.6184 262.35 37.3011 262.563 36.9754Z" fill="#E1E1E1" fill-opacity="0.8"/>
<path d="M265.647 32.2613C265.86 31.9356 269.069 28.5008 271.934 28.7803C272.882 28.8732 274.185 29.412 275.013 31.456C276.037 33.9856 275.137 35.3158 274.2 35.9856C271.701 37.7744 265.836 36.6406 265.126 36.0266C264.813 35.7556 264.784 35.2844 265.05 34.9683C265.306 34.6725 265.742 34.6253 266.054 34.8494C266.823 35.2274 271.882 36.0875 273.49 34.6343C273.705 34.4392 274.361 33.8449 273.623 32.018C273.192 30.9549 272.617 30.387 271.867 30.2822C269.892 30.0056 267.178 32.7318 266.884 33.1092C266.637 33.4263 266.175 33.5039 265.848 33.2693C265.52 33.0367 265.427 32.5977 265.647 32.2613Z" fill="#E1E1E1" fill-opacity="0.8"/>
</g>
<g clip-path="url(#clip8)">
<path d="M306.587 289.107L305.322 289.973C303.037 291.537 299.906 290.952 298.343 288.669L294.512 283.074C294.255 282.699 294.351 282.186 294.726 281.929C295.101 281.673 295.614 281.769 295.871 282.144L299.701 287.739C300.752 289.273 302.856 289.666 304.392 288.614L305.657 287.748C307.191 286.697 307.585 284.595 306.535 283.06L302.704 277.465C302.447 277.09 302.543 276.577 302.918 276.321C303.293 276.064 303.806 276.16 304.063 276.535L307.893 282.13C309.457 284.413 308.871 287.543 306.587 289.107Z" fill="#E1E1E1" fill-opacity="0.8"/>
<path d="M321.051 311.591C320.676 311.848 320.163 311.753 319.906 311.377L298.608 280.269C298.351 279.894 298.447 279.381 298.822 279.125C299.197 278.868 299.71 278.964 299.966 279.339L321.265 310.447C321.522 310.822 321.426 311.334 321.051 311.591Z" fill="#E1E1E1" fill-opacity="0.8"/>
<path d="M333.955 302.755C333.579 303.012 333.068 302.916 332.811 302.54L321.221 285.613C320.964 285.238 321.06 284.726 321.435 284.468C321.811 284.211 322.323 284.308 322.58 284.683L334.169 301.61C334.427 301.986 334.331 302.497 333.955 302.755Z" fill="#E1E1E1" fill-opacity="0.8"/>
<path d="M348.205 293.001C347.829 293.258 347.318 293.162 347.06 292.787L336.507 277.373L331.882 280.398C331.529 280.628 331.06 280.555 330.794 280.229C320.417 267.508 325.581 260.962 325.806 260.69C325.969 260.49 326.218 260.38 326.478 260.391C326.737 260.403 326.974 260.535 327.12 260.749L337.408 275.774C337.409 275.776 337.411 275.778 337.412 275.78L348.419 291.857C348.676 292.232 348.58 292.744 348.205 293.001ZM331.606 278.61L335.577 276.014L326.531 262.802C325.725 264.917 324.957 270.186 331.606 278.61Z" fill="#E1E1E1" fill-opacity="0.8"/>
<path d="M322.029 285.339C318.859 287.509 313.969 285.899 311.128 281.751C308.288 277.602 308.556 272.461 311.726 270.29C314.897 268.119 319.787 269.729 322.628 273.877C325.468 278.026 325.2 283.168 322.029 285.339ZM312.656 271.649C310.235 273.307 310.159 277.421 312.487 280.821C314.814 284.22 318.678 285.638 321.099 283.98C323.52 282.322 323.597 278.208 321.269 274.808C318.941 271.408 315.078 269.991 312.656 271.649Z" fill="#E1E1E1" fill-opacity="0.8"/>
</g>
<g clip-path="url(#clip9)">
<path d="M350.801 387H337.196C335.877 387 334.805 385.734 334.805 384.178V380.229C334.805 378.672 335.877 377.406 337.196 377.406H350.801C352.121 377.406 353.193 378.672 353.193 380.229V384.178C353.193 385.734 352.121 387 350.801 387ZM337.196 378.739C336.623 378.739 336.138 379.421 336.138 380.228V384.178C336.138 384.984 336.623 385.666 337.196 385.666H350.801C351.375 385.666 351.86 384.984 351.86 384.178V380.228C351.86 379.421 351.375 378.739 350.801 378.739H337.196Z" fill="#E1E1E1" fill-opacity="0.8"/>
<path d="M347.196 378.74H341.232C339.55 378.74 338.182 377.476 338.182 375.921V365.142C338.182 363.586 339.55 362.32 341.232 362.32H347.196C348.879 362.32 350.249 363.586 350.249 365.142V375.921C350.249 377.476 348.879 378.74 347.196 378.74ZM341.232 363.654C340.302 363.654 339.515 364.335 339.515 365.142V375.921C339.515 376.74 340.286 377.407 341.232 377.407H347.196C348.144 377.407 348.916 376.74 348.916 375.921V365.142C348.916 364.322 348.144 363.654 347.196 363.654H341.232Z" fill="#E1E1E1" fill-opacity="0.8"/>
<path d="M346.493 363.27C346.124 363.27 345.826 362.972 345.826 362.604V356.936L342.599 359.16V362.604C342.599 362.972 342.3 363.27 341.932 363.27C341.564 363.27 341.266 362.972 341.266 362.604V358.81C341.266 358.59 341.374 358.385 341.554 358.261L346.115 355.118C346.319 354.978 346.584 354.961 346.803 355.076C347.022 355.192 347.16 355.418 347.16 355.666V362.604C347.16 362.972 346.862 363.27 346.493 363.27Z" fill="#E1E1E1" fill-opacity="0.8"/>
</g>
<path d="M291 223.869H263C261.897 223.869 261 222.971 261 221.869V204.754C261 203.651 261.897 202.754 263 202.754H291C292.103 202.754 293 203.651 293 204.754V221.869C293 222.971 292.103 223.869 291 223.869ZM263 204.087C262.633 204.087 262.333 204.387 262.333 204.754V221.869C262.333 222.237 262.633 222.535 263 222.535H291C291.368 222.535 291.667 222.237 291.667 221.869V204.754C291.667 204.387 291.368 204.087 291 204.087H263Z" fill="#E1E1E1" fill-opacity="0.8"/>
<path d="M281.729 220.438C277.799 220.438 274.602 217.241 274.602 213.311C274.602 209.381 277.799 206.184 281.729 206.184C285.66 206.184 288.856 209.381 288.856 213.311C288.856 217.241 285.659 220.438 281.729 220.438ZM281.729 207.517C278.534 207.517 275.935 210.116 275.935 213.311C275.935 216.506 278.534 219.105 281.729 219.105C284.924 219.105 287.523 216.506 287.523 213.311C287.523 210.116 284.924 207.517 281.729 207.517Z" fill="#E1E1E1" fill-opacity="0.8"/>
<path d="M268.069 211.048H262.102C261.734 211.048 261.436 210.75 261.436 210.382C261.436 210.014 261.734 209.715 262.102 209.715H268.069C268.437 209.715 268.736 210.014 268.736 210.382C268.736 210.75 268.437 211.048 268.069 211.048Z" fill="#E1E1E1" fill-opacity="0.8"/>
<path d="M268.069 216.908H262.102C261.734 216.908 261.436 216.61 261.436 216.241C261.436 215.872 261.734 215.574 262.102 215.574H268.069C268.437 215.574 268.736 215.872 268.736 216.241C268.736 216.61 268.437 216.908 268.069 216.908Z" fill="#E1E1E1" fill-opacity="0.8"/>
<path d="M284.599 201.462H278.856C278.487 201.462 278.189 201.164 278.189 200.796C278.189 200.428 278.487 200.129 278.856 200.129H284.599C284.968 200.129 285.266 200.428 285.266 200.796C285.266 201.164 284.968 201.462 284.599 201.462Z" fill="#E1E1E1" fill-opacity="0.8"/>
<g clip-path="url(#clip10)">
<path d="M187.948 304.379C187.58 304.379 187.281 304.08 187.281 303.712V289.667C187.281 289.299 187.58 289 187.948 289C188.317 289 188.615 289.299 188.615 289.667V303.712C188.615 304.08 188.317 304.379 187.948 304.379Z" fill="#E1E1E1" fill-opacity="0.8"/>
<path d="M177.666 321.002C177.572 321.002 177.476 320.982 177.386 320.94C177.052 320.784 176.907 320.388 177.062 320.054L182.962 307.362V303.714C182.962 303.346 183.26 303.047 183.628 303.047H187.55C187.918 303.047 188.216 303.346 188.216 303.714C188.216 304.082 187.918 304.38 187.55 304.38H184.295V307.51C184.295 307.607 184.274 307.702 184.233 307.791L178.271 320.616C178.158 320.859 177.917 321.002 177.666 321.002Z" fill="#E1E1E1" fill-opacity="0.8"/>
<path d="M183.095 320.998C183.036 320.998 182.975 320.99 182.915 320.973C182.56 320.874 182.353 320.506 182.453 320.152L184.011 314.593C184.111 314.237 184.477 314.031 184.833 314.131C185.188 314.23 185.395 314.598 185.295 314.952L183.737 320.511C183.654 320.806 183.387 320.998 183.095 320.998Z" fill="#E1E1E1" fill-opacity="0.8"/>
<path d="M187.948 321C187.58 321 187.281 320.702 187.281 320.334V310.702C187.281 310.333 187.58 310.035 187.948 310.035C188.317 310.035 188.615 310.333 188.615 310.702V320.334C188.615 320.702 188.317 321 187.948 321Z" fill="#E1E1E1" fill-opacity="0.8"/>
<path d="M197.834 321.002C197.583 321.002 197.342 320.859 197.229 320.616L191.267 307.791C191.227 307.702 191.205 307.607 191.205 307.51V304.38H187.948C187.58 304.38 187.281 304.082 187.281 303.714C187.281 303.346 187.58 303.047 187.948 303.047H191.872C192.241 303.047 192.539 303.346 192.539 303.714V307.362L198.439 320.054C198.593 320.388 198.449 320.784 198.115 320.94C198.023 320.982 197.928 321.002 197.834 321.002Z" fill="#E1E1E1" fill-opacity="0.8"/>
<path d="M192.399 321.001C192.108 321.001 191.841 320.808 191.758 320.514L190.201 314.955C190.101 314.601 190.308 314.233 190.663 314.134C191.014 314.036 191.385 314.241 191.484 314.596L193.041 320.155C193.141 320.509 192.934 320.877 192.579 320.976C192.519 320.993 192.459 321.001 192.399 321.001Z" fill="#E1E1E1" fill-opacity="0.8"/>
<path d="M187.549 321C187.181 321 186.883 320.702 186.883 320.334V310.702C186.883 310.333 187.181 310.035 187.549 310.035C187.917 310.035 188.216 310.333 188.216 310.702V320.334C188.216 320.702 187.917 321 187.549 321Z" fill="#E1E1E1" fill-opacity="0.8"/>
<path d="M191.623 308.068H183.874C183.506 308.068 183.207 307.77 183.207 307.401C183.207 307.032 183.506 306.734 183.874 306.734H191.623C191.992 306.734 192.29 307.032 192.29 307.401C192.29 307.77 191.991 308.068 191.623 308.068Z" fill="#E1E1E1" fill-opacity="0.8"/>
</g>
<defs>
<clipPath id="clip0">
<rect width="30" height="30" fill="white" transform="translate(355.457 14) rotate(31.0149)"/>
</clipPath>
<clipPath id="clip1">
<rect width="48" height="48" fill="white" transform="translate(19.6523 48.6758) rotate(-34.2617)"/>
</clipPath>
<clipPath id="clip2">
<rect width="48" height="48" fill="white" transform="translate(321 148)"/>
</clipPath>
<clipPath id="clip3">
<rect width="48" height="48" fill="white" transform="translate(204 360.391) rotate(-34.7973)"/>
</clipPath>
<clipPath id="clip4">
<rect width="34" height="34" fill="white" transform="translate(3 319)"/>
</clipPath>
<clipPath id="clip5">
<rect width="48" height="48" fill="white" transform="translate(32 205)"/>
</clipPath>
<clipPath id="clip6">
<rect width="36" height="36" fill="white" transform="translate(83 354)"/>
</clipPath>
<clipPath id="clip7">
<rect width="36" height="36" fill="white" transform="translate(281.836 24.7109) rotate(123.197)"/>
</clipPath>
<clipPath id="clip8">
<rect width="39.5182" height="39.5182" fill="white" transform="translate(294 282.324) rotate(-34.3983)"/>
</clipPath>
<clipPath id="clip9">
<rect width="32" height="32" fill="white" transform="translate(328 355)"/>
</clipPath>
<clipPath id="clip10">
<rect width="32" height="32" fill="white" transform="translate(172 289)"/>
</clipPath>
</defs>
</svg>
