<svg width="18" height="24" viewBox="0 0 18 24" fill="none" xmlns="http://www.w3.org/2000/svg">
<path d="M16.0862 23.9982H1.91425C1.50725 23.9982 1.13375 23.8372 0.863248 23.5452C0.592748 23.2532 0.460748 22.8687 0.491748 22.4632L1.75725 5.84572C1.81825 5.04122 2.52475 4.38672 3.33175 4.38672H15.0507C15.8632 4.38672 16.5612 5.04672 16.6052 5.85772L17.5292 22.4722C17.5522 22.8767 17.4137 23.2587 17.1392 23.5487C16.8647 23.8387 16.4907 23.9982 16.0862 23.9982ZM3.33175 5.38672C3.04025 5.38672 2.77625 5.63172 2.75425 5.92122L1.48875 22.5392C1.47925 22.6642 1.51775 22.7797 1.59675 22.8652C1.67625 22.9507 1.78875 22.9982 1.91425 22.9982H16.0862C16.2132 22.9982 16.3292 22.9492 16.4127 22.8612C16.4962 22.7732 16.5382 22.6547 16.5312 22.5277L15.6077 5.91322C15.5917 5.62772 15.3372 5.38672 15.0512 5.38672H3.33175Z" fill="black"/>
<path d="M12.8427 6.781C12.5662 6.781 12.3427 6.557 12.3427 6.281C12.3427 3.369 10.8432 1 9.0002 1C7.1572 1 5.6582 3.369 5.6582 6.281C5.6582 6.557 5.4342 6.781 5.1582 6.781C4.8822 6.781 4.6582 6.557 4.6582 6.281C4.6582 2.8175 6.6057 0 9.0002 0C11.3947 0 13.3427 2.8175 13.3427 6.281C13.3427 6.557 13.1187 6.781 12.8427 6.781Z" fill="black"/>
</svg>
