<svg width="24" height="24" viewBox="0 0 24 24" fill="none" xmlns="http://www.w3.org/2000/svg">
<path d="M17.1986 23.9982H3.02655C2.61955 23.9982 2.24605 23.8372 1.97555 23.5452C1.70505 23.2532 1.57305 22.8687 1.60405 22.4632L2.86955 5.84572C2.93055 5.04122 3.63705 4.38672 4.44405 4.38672H16.1631C16.9756 4.38672 17.6736 5.04672 17.7176 5.85772L18.6416 22.4722C18.6646 22.8767 18.5261 23.2587 18.2516 23.5487C17.9771 23.8387 17.6031 23.9982 17.1986 23.9982ZM4.44405 5.38672C4.15255 5.38672 3.88855 5.63172 3.86655 5.92122L2.60105 22.5392C2.59155 22.6642 2.63005 22.7797 2.70905 22.8652C2.78855 22.9507 2.90105 22.9982 3.02655 22.9982H17.1986C17.3256 22.9982 17.4416 22.9492 17.5251 22.8612C17.6086 22.7732 17.6506 22.6547 17.6436 22.5277L16.7201 5.91322C16.7041 5.62772 16.4496 5.38672 16.1636 5.38672H4.44405Z" fill="#737373"/>
<path d="M13.954 6.781C13.6775 6.781 13.454 6.557 13.454 6.281C13.454 3.369 11.9545 1 10.1115 1C8.26853 1 6.76953 3.369 6.76953 6.281C6.76953 6.557 6.54553 6.781 6.26953 6.781C5.99353 6.781 5.76953 6.557 5.76953 6.281C5.76953 2.8175 7.71703 0 10.1115 0C12.506 0 14.454 2.8175 14.454 6.281C14.454 6.557 14.23 6.781 13.954 6.781Z" fill="#737373"/>
</svg>
