<svg width="24" height="24" viewBox="0 0 24 24" fill="none" xmlns="http://www.w3.org/2000/svg">
<path d="M19.0862 23.9982H4.91425C4.50725 23.9982 4.13375 23.8372 3.86325 23.5452C3.59275 23.2532 3.46075 22.8687 3.49175 22.4632L4.75725 5.84572C4.81825 5.04122 5.52475 4.38672 6.33175 4.38672H18.0507C18.8632 4.38672 19.5612 5.04672 19.6052 5.85772L20.5292 22.4722C20.5522 22.8767 20.4137 23.2587 20.1392 23.5487C19.8647 23.8387 19.4907 23.9982 19.0862 23.9982ZM6.33175 5.38672C6.04025 5.38672 5.77625 5.63172 5.75425 5.92122L4.48875 22.5392C4.47925 22.6642 4.51775 22.7797 4.59675 22.8652C4.67625 22.9507 4.78875 22.9982 4.91425 22.9982H19.0862C19.2132 22.9982 19.3292 22.9492 19.4127 22.8612C19.4962 22.7732 19.5382 22.6547 19.5312 22.5277L18.6077 5.91322C18.5917 5.62772 18.3372 5.38672 18.0512 5.38672H6.33175Z" fill="#FEFEFE"/>
<path d="M15.8427 6.781C15.5662 6.781 15.3427 6.557 15.3427 6.281C15.3427 3.369 13.8432 1 12.0002 1C10.1572 1 8.6582 3.369 8.6582 6.281C8.6582 6.557 8.4342 6.781 8.1582 6.781C7.8822 6.781 7.6582 6.557 7.6582 6.281C7.6582 2.8175 9.6057 0 12.0002 0C14.3947 0 16.3427 2.8175 16.3427 6.281C16.3427 6.557 16.1187 6.781 15.8427 6.781Z" fill="#FEFEFE"/>
</svg>
