<svg width="25" height="21" viewBox="0 0 25 21" fill="none" xmlns="http://www.w3.org/2000/svg">
<path fill-rule="evenodd" clip-rule="evenodd" d="M3.7128 16.3361C4.45673 17.1879 5.87041 18.4949 7.54687 19.3473C8.49869 19.7722 9.53827 20.0672 10.6349 20.2054C13.555 20.3948 16.7856 19.6895 19.0728 17.7689C19.1697 17.685 19.2646 17.5995 19.3575 17.5124C19.3585 17.5136 19.3596 17.5148 19.3606 17.516C19.6802 17.2225 19.9788 16.9031 20.2526 16.5569C20.2496 16.5561 20.2466 16.5552 20.2436 16.5543C21.3765 15.1368 22.0424 13.4129 22.0424 11.5552C22.0424 10.4981 21.828 9.37793 21.4312 8.27195C22.9399 7.89973 24.0625 6.53557 24.0625 4.91436C24.0625 3.00729 22.511 1.45582 20.6039 1.45582C19.4601 1.45582 18.3986 2.03165 17.7615 2.94639C16.0424 1.47973 14.0695 0.689453 12.0626 0.689453C10.0557 0.689453 8.08272 1.47973 6.36353 2.94655C5.72646 2.03173 4.66487 1.45582 3.52103 1.45582C1.61397 1.45582 0.0625 3.00729 0.0625 4.91436C0.0625 6.53572 1.18517 7.89988 2.694 8.27204C2.29718 9.37798 2.0829 10.4981 2.0829 11.5552C2.0829 13.3187 2.68284 14.9615 3.7128 16.3361ZM20.6039 2.63147C21.8627 2.63147 22.8868 3.65554 22.8868 4.91436C22.8868 6.04731 22.0563 6.99015 20.9719 7.16704C20.5012 6.17456 19.8868 5.2154 19.1522 4.34808C18.9819 4.14697 18.8074 3.95416 18.6298 3.76856C19.0333 3.07666 19.7866 2.63147 20.6039 2.63147ZM1.23807 4.91436C1.23807 3.65554 2.26214 2.63147 3.52096 2.63147C4.33827 2.63147 5.0916 3.07673 5.49505 3.7688C5.31751 3.95432 5.14312 4.14705 4.9729 4.34808C4.23834 5.2154 3.62394 6.17456 3.15313 7.16704C2.06871 6.99034 1.23807 6.04746 1.23807 4.91436ZM5.87006 5.10795C7.64116 3.01677 9.8404 1.8651 12.0626 1.8651C14.2848 1.8651 16.4841 3.01677 18.2552 5.10795C19.8904 7.03877 20.8668 9.44894 20.8668 11.5552C20.8668 15.5561 17.232 18.8409 12.6504 19.1016V12.2252C13.8292 12.0814 14.6351 11.5058 14.6351 10.7511C14.6351 9.87655 13.5532 9.24179 12.0626 9.24179C10.572 9.24179 9.49005 9.87655 9.49005 10.7511C9.49005 11.5058 10.296 12.0814 11.4748 12.2252V19.1016C6.89329 18.8409 3.25847 15.5561 3.25847 11.5552C3.25847 9.44894 4.23473 7.03877 5.87006 5.10795ZM12.0626 11.0847C11.3342 11.0847 10.863 10.8805 10.7055 10.7511C10.863 10.6217 11.3342 10.4174 12.0626 10.4174C12.7911 10.4174 13.2623 10.6217 13.4197 10.7511C13.2623 10.8805 12.7911 11.0847 12.0626 11.0847ZM7.45076 9.12059C7.45076 9.62673 7.04043 10.037 6.53429 10.037C6.0281 10.037 5.61783 9.62673 5.61783 9.12059C5.61783 8.61445 6.0281 8.20412 6.53429 8.20412C7.04043 8.20412 7.45076 8.61445 7.45076 9.12059ZM18.5093 9.12059C18.5093 9.62673 18.099 10.037 17.5928 10.037C17.0867 10.037 16.6764 9.62673 16.6764 9.12059C16.6764 8.61445 17.0867 8.20412 17.5928 8.20412C18.099 8.20412 18.5093 8.61445 18.5093 9.12059Z" fill="#A1A1A1"/>
</svg>
