<svg width="25" height="25" viewBox="0 0 25 25" fill="none" xmlns="http://www.w3.org/2000/svg">
<path fill-rule="evenodd" clip-rule="evenodd" d="M19.8789 10.925C19.8789 6.86587 17.6405 4.04855 14.7443 3.20276C14.6394 2.93141 14.4737 2.67915 14.2484 2.46748C13.4786 1.74424 12.2792 1.74424 11.5094 2.46748C11.2846 2.67868 11.1191 2.9303 11.0142 3.20097C8.11426 4.04308 5.87891 6.85424 5.87891 10.925C5.87891 13.5589 5.34789 15.0348 4.36486 16.1044C4.20051 16.2832 3.75522 16.6928 3.45358 16.9703L3.45356 16.9703L3.45355 16.9703L3.45341 16.9705C3.31077 17.1017 3.20029 17.2033 3.16687 17.237L2.87891 17.529V20.9391H8.96688C9.17274 22.0012 9.749 22.7117 10.7911 23.3477C12.0731 24.1299 13.6848 24.1299 14.9667 23.3477C15.8864 22.7864 16.5031 21.9239 16.7532 20.9391H22.8789V17.529L22.5909 17.237C22.5606 17.2063 22.4546 17.1084 22.3159 16.9805C22.0152 16.7031 21.5612 16.2843 21.3943 16.102C20.4106 15.0274 19.8789 13.5497 19.8789 10.925ZM14.6156 20.9391H11.0575C11.1988 21.202 11.4396 21.4004 11.8329 21.6404C12.4752 22.0324 13.2826 22.0324 13.9249 21.6404C14.2223 21.4589 14.4547 21.2188 14.6156 20.9391ZM19.9191 17.4525C20.1295 17.6823 20.5805 18.1025 20.8789 18.377V18.9391H4.87891V18.3774C5.17498 18.1061 5.62734 17.6863 5.83739 17.4578C7.17313 16.0044 7.87891 14.0429 7.87891 10.925C7.87891 7.14494 10.2117 4.93743 12.8789 4.93743C15.5386 4.93743 17.8789 7.15634 17.8789 10.925C17.8789 14.0328 18.5849 15.9951 19.9191 17.4525Z" fill="#454545"/>
</svg>
