<svg width="25" height="25" viewBox="0 0 25 25" fill="none" xmlns="http://www.w3.org/2000/svg">
<g clip-path="url(#clip0)">
<path d="M14.6398 17.0606C15.8654 15.9579 16.6413 14.3648 16.6413 12.5855C16.6413 9.25599 13.9434 6.55859 10.6144 6.55859C7.28589 6.55859 4.58849 9.25599 4.58849 12.5855C4.58849 14.3611 5.36179 15.9532 6.58526 17.0554C3.4518 17.2985 0.976619 19.894 0.954136 23.0881L0.894531 24.288H10.057H20.1256L20.1847 23.178C20.1967 21.5509 19.5578 19.9891 18.4096 18.8331C17.3968 17.8114 16.0594 17.1913 14.6398 17.0606Z" fill="#FF2462"/>
<path d="M19.0162 6.23615V8.04418C19.0162 8.79343 19.6248 9.40098 20.3745 9.40098C21.1248 9.40098 21.7324 8.79343 21.7324 8.04418V6.23615H23.5383C24.2876 6.23615 24.8956 5.62755 24.8956 4.8783C24.8956 4.12905 24.2876 3.52098 23.5383 3.52098H21.7324V1.73962C21.7324 0.989845 21.1248 0.382812 20.3745 0.382812C19.6248 0.382812 19.0162 0.989845 19.0162 1.73962V3.52045H17.2348C16.484 3.52045 15.877 4.12853 15.877 4.87778C15.877 5.62703 16.484 6.23563 17.2348 6.23563L19.0162 6.23615Z" fill="#FF2462"/>
</g>
<defs>
<clipPath id="clip0">
<rect width="24" height="24" fill="white" transform="translate(0.894531 0.289062)"/>
</clipPath>
</defs>
</svg>
