<svg width="25" height="25" viewBox="0 0 25 25" fill="none" xmlns="http://www.w3.org/2000/svg">
<path d="M8.31164 11.3711C7.51664 11.3711 6.86914 12.0181 6.86914 12.8141C6.86914 13.6091 7.51664 14.2566 8.31164 14.2566C9.10764 14.2566 9.75414 13.6091 9.75414 12.8141C9.75414 12.0181 9.10764 11.3711 8.31164 11.3711Z" fill="#737373"/>
<path d="M13.3917 11.3711C12.5967 11.3711 11.9492 12.0181 11.9492 12.8141C11.9492 13.6091 12.5967 14.2566 13.3917 14.2566C14.1877 14.2566 14.8352 13.6091 14.8352 12.8141C14.8352 12.0181 14.1877 11.3711 13.3917 11.3711Z" fill="#737373"/>
<path d="M18.3349 11.3398C17.5429 11.3398 16.8984 11.9848 16.8984 12.7773C16.8984 13.5688 17.5429 14.2128 18.3349 14.2128C19.1269 14.2128 19.7714 13.5688 19.7714 12.7773C19.7714 11.9848 19.1269 11.3398 18.3349 11.3398Z" fill="#737373"/>
<path d="M1.36892 24.3398C1.23492 24.3398 1.10391 24.2856 1.00791 24.1832C0.867913 24.0352 0.829912 23.8157 0.911913 23.6276L3.59794 17.4612C2.64993 15.7422 2.15042 13.8107 2.15042 11.857C2.15042 5.50656 7.24647 0.339844 13.51 0.339844C19.7736 0.339844 24.8691 5.50707 24.8691 11.8575C24.8691 18.2069 19.7736 23.3731 13.5095 23.3731C11.522 23.3731 9.565 22.8363 7.83348 21.8193L1.55092 24.3054C1.49192 24.3282 1.42992 24.3398 1.36892 24.3398ZM13.5095 1.35423C7.79698 1.35423 3.14993 6.06572 3.14993 11.8575C3.14993 13.7169 3.64744 15.5556 4.58795 17.1743C4.66945 17.3147 4.67945 17.487 4.61445 17.6366L2.31593 22.9138L7.69798 20.7842C7.84398 20.7274 8.00698 20.7411 8.13998 20.8232C9.7665 21.828 11.6235 22.3587 13.51 22.3587C19.2221 22.3592 23.8691 17.6483 23.8691 11.8575C23.8691 6.06622 19.2221 1.35423 13.5095 1.35423Z" fill="#737373"/>
</svg>
