<svg width="19" height="19" viewBox="0 0 19 19" fill="none" xmlns="http://www.w3.org/2000/svg">
<path fill-rule="evenodd" clip-rule="evenodd" d="M2.26214 15.9756L1.33398 15.0475L2.93807 13.4434C2.24326 12.3135 1.84255 10.9833 1.84255 9.5596C1.84255 5.45889 5.16683 2.1346 9.26755 2.1346C10.6429 2.1346 11.9309 2.50853 13.0354 3.16028L12.0687 4.16756C11.2306 3.73123 10.2779 3.4846 9.26755 3.4846C5.91242 3.4846 3.19255 6.20447 3.19255 9.5596C3.19255 10.6082 3.45821 11.5947 3.9259 12.4556L6.14686 10.2346H5.89255V8.8846H7.49686L14.4601 1.92139L15.3882 2.84954L2.26214 15.9756ZM4.71664 15.3824C5.96313 16.3294 7.51805 16.8915 9.20424 16.8915C13.305 16.8915 16.6292 13.5672 16.6292 9.4665C16.6292 7.67061 15.9916 6.02363 14.9305 4.73958L13.988 5.72162C14.797 6.7535 15.2792 8.05368 15.2792 9.4665C15.2792 12.8216 12.5594 15.5415 9.20424 15.5415C7.88111 15.5415 6.65678 15.1185 5.6591 14.4004L4.71664 15.3824ZM9.74631 10.1415H12.5792V8.7915H11.0419L9.74631 10.1415Z" fill="#454545"/>
</svg>
