<svg width="16" height="15" viewBox="0 0 16 15" fill="none" xmlns="http://www.w3.org/2000/svg">
<g clip-path="url(#clip0)">
<path d="M9.72138 15C9.44138 15 9.18669 14.8912 9.00294 14.6925L6.41513 12.1053C6.22357 11.9125 6.11857 11.6609 6.11857 11.3966V6.61156L1.21919 1.7125C0.932316 1.44031 0.841379 0.996875 1.00013 0.614375C1.16419 0.23875 1.52763 0 1.92732 0H14.9173C15.3176 0 15.6808 0.23875 15.842 0.60875C16.0039 0.996875 15.9129 1.44031 15.6186 1.71906L10.7267 6.61156V13.9947C10.7267 14.395 10.4867 14.7581 10.117 14.9194C10.0101 14.9597 9.87294 15 9.72138 15ZM1.92732 0.710625C1.812 0.710625 1.702 0.783437 1.6545 0.8925C1.61044 0.999062 1.63357 1.12625 1.71482 1.20312L6.8295 6.3175V11.3966C6.8295 11.4716 6.86138 11.5456 6.91794 11.6022L9.51575 14.2C9.57482 14.2634 9.63857 14.2891 9.72138 14.2891C9.74763 14.2891 9.79513 14.2812 9.85013 14.2603C9.94169 14.22 10.0154 14.1103 10.0154 13.9947V6.3175L15.1229 1.21C15.2108 1.12594 15.2345 0.999062 15.1883 0.887187C15.1426 0.78375 15.0333 0.710938 14.9173 0.710938H1.92732V0.710625Z" fill="#A1A1A1"/>
</g>
<defs>
<clipPath id="clip0">
<rect width="15" height="15" fill="white" transform="translate(0.921875)"/>
</clipPath>
</defs>
</svg>
