<svg width="16" height="16" viewBox="0 0 16 16" fill="none" xmlns="http://www.w3.org/2000/svg">
<g clip-path="url(#clip0)">
<path d="M9.258 15.1025C8.978 15.1025 8.72331 14.9938 8.53956 14.795L5.95175 12.2079C5.76019 12.015 5.65519 11.7635 5.65519 11.4991V6.7141L0.755812 1.81504C0.468937 1.54285 0.378 1.09941 0.53675 0.716914C0.700812 0.341289 1.06425 0.102539 1.46394 0.102539H14.4539C14.8543 0.102539 15.2174 0.341289 15.3786 0.711289C15.5405 1.09941 15.4496 1.54285 15.1552 1.8216L10.2633 6.7141V14.0972C10.2633 14.4975 10.0233 14.8607 9.65363 15.0219C9.54675 15.0622 9.40956 15.1025 9.258 15.1025ZM1.46394 0.813164C1.34862 0.813164 1.23862 0.885977 1.19112 0.995039C1.14706 1.1016 1.17019 1.22879 1.25144 1.30566L6.36613 6.42004V11.4991C6.36613 11.5741 6.398 11.6482 6.45456 11.7047L9.05238 14.3025C9.11144 14.366 9.17519 14.3916 9.258 14.3916C9.28425 14.3916 9.33175 14.3838 9.38675 14.3629C9.47831 14.3225 9.55206 14.2129 9.55206 14.0972V6.42004L14.6596 1.31254C14.7474 1.22848 14.7711 1.1016 14.7249 0.989727C14.6793 0.886289 14.5699 0.813477 14.4539 0.813477H1.46394V0.813164Z" fill="white"/>
</g>
<defs>
<clipPath id="clip0">
<rect width="15" height="15" fill="white" transform="translate(0.458618 0.102539)"/>
</clipPath>
</defs>
</svg>
