<svg width="19" height="18" viewBox="0 0 19 18" fill="none" xmlns="http://www.w3.org/2000/svg">
<path fill-rule="evenodd" clip-rule="evenodd" d="M0.203125 8.891C0.203125 10.612 1.59959 12.0084 3.3213 12.0084C5.04228 12.0084 6.43947 10.612 6.43947 8.891C6.43947 7.16856 5.04228 5.77209 3.3213 5.77209C1.59959 5.77209 0.203125 7.16856 0.203125 8.891ZM4.36118 8.891C4.36118 9.4649 3.89593 9.93015 3.32203 9.93015C2.7474 9.93015 2.28215 9.4649 2.28215 8.891C2.28215 8.31637 2.7474 7.85112 3.32203 7.85112C3.8952 7.85112 4.36118 8.31637 4.36118 8.891ZM14.467 6.32739C14.4728 6.35286 14.4786 6.37836 14.4842 6.40389L12.6538 8.23426C12.6518 8.20513 12.6497 8.17604 12.6474 8.14698L10.4521 10.3422C10.4441 10.382 10.4357 10.4216 10.4271 10.4611L7.30524 13.5829L7.25633 13.538L3.61856 17.1758L2.58728 16.1445L8.28011 10.4517C8.43498 9.95922 8.5185 9.4352 8.5185 8.89173C8.5185 7.26045 7.7674 5.80564 6.59334 4.85254L8.13638 3.43711C9.47687 4.62023 10.3768 6.28985 10.5616 8.17022L12.3391 6.39268C11.8695 4.69417 10.9329 3.18978 9.67724 2.02605L11.2123 0.617188C12.4154 1.76487 13.3688 3.17226 13.9822 4.74958L17.1718 1.55998L18.2031 2.59126L14.467 6.32739ZM12.5563 10.3943L14.7359 8.21477C14.749 8.43851 14.7556 8.66398 14.7556 8.891C14.7556 12.1455 13.3948 15.0807 11.2123 17.1648L9.67724 15.7552C11.173 14.3689 12.2161 12.4996 12.5563 10.3943Z" fill="#454545"/>
</svg>
