<svg width="25" height="25" viewBox="0 0 25 25" fill="none" xmlns="http://www.w3.org/2000/svg">
<path fill-rule="evenodd" clip-rule="evenodd" d="M9.67268 2.77075C10.425 2.13373 11.5159 1.77075 12.6768 1.77075C13.8376 1.77075 14.9286 2.13373 15.6808 2.77075H16.6768C17.7813 2.77075 18.6768 3.66618 18.6768 4.77075H19.6768C20.7813 4.77075 21.6768 5.66618 21.6768 6.77075V21.7708C21.6768 22.8753 20.7813 23.7708 19.6768 23.7708H5.67676C4.57219 23.7708 3.67676 22.8753 3.67676 21.7708V6.77075C3.67676 5.66618 4.57219 4.77075 5.67676 4.77075H6.67676C6.67676 3.66618 7.57219 2.77075 8.67676 2.77075H9.67268ZM16.6768 7.77075C17.417 7.77075 18.0634 7.36855 18.4092 6.77075H19.6768V21.7708H5.67676V6.77075H6.94432C7.29013 7.36855 7.93648 7.77075 8.67676 7.77075H16.6768ZM15.9697 11.0636L11.6768 15.3565L9.38386 13.0636L7.96965 14.4779L11.6768 18.185L17.3839 12.4779L15.9697 11.0636ZM10.5344 4.77075L10.8334 4.42613C11.162 4.04749 11.8662 3.77075 12.6768 3.77075C13.4873 3.77075 14.1916 4.04749 14.5201 4.42613L14.8191 4.77075H16.6768V5.77075H8.67676V4.77075H10.0781H10.5344Z" fill="#454545"/>
</svg>
