<svg width="12" height="12" viewBox="0 0 12 12" fill="none" xmlns="http://www.w3.org/2000/svg">
<g clip-path="url(#clip0)">
<path d="M9.17659 6.25027C9.11709 6.25027 9.05684 6.22927 9.00959 6.18577L2.65758 0.434525C2.55558 0.342025 2.54783 0.184275 2.64008 0.0822747C2.73283 -0.0202253 2.89058 -0.0279753 2.99258 0.0647747L9.34409 5.81577C9.44659 5.90852 9.45434 6.06627 9.36159 6.16827C9.31234 6.22302 9.24509 6.25027 9.17659 6.25027Z" fill="#FEFEFE"/>
<path d="M2.8259 12.0006C2.75765 12.0006 2.68965 11.9728 2.6404 11.9186C2.54815 11.8166 2.5564 11.6583 2.6579 11.5661L9.0099 5.81655C9.1114 5.7238 9.26965 5.73205 9.3619 5.83405C9.45465 5.93605 9.4464 6.0943 9.3444 6.18655L2.9929 11.9361C2.94515 11.9791 2.88515 12.0006 2.8259 12.0006Z" fill="#FEFEFE"/>
</g>
<defs>
<clipPath id="clip0">
<rect width="12" height="12" fill="white"/>
</clipPath>
</defs>
</svg>
