<svg width="19" height="19" viewBox="0 0 19 19" fill="none" xmlns="http://www.w3.org/2000/svg">
<g clip-path="url(#clip0)">
<path d="M12.8594 6.22058C12.8594 6.98351 12.273 7.5379 11.6253 7.5379C10.9777 7.5379 10.3911 6.98299 10.3911 6.22058V4.8974C10.3911 4.13434 10.9775 3.58008 11.6253 3.58008C12.2728 3.58008 12.8594 4.13486 12.8594 4.8974V6.22058Z" stroke="#A1A1A1" stroke-width="2" stroke-miterlimit="10" stroke-linecap="round" stroke-linejoin="round"/>
<path d="M6.53069 6.10974C6.53069 6.65993 6.11055 7.04204 5.66769 7.04204C5.22506 7.04204 4.80469 6.65945 4.80469 6.10974V5.00652C4.80469 4.45621 5.22476 4.07422 5.66769 4.07422C6.11037 4.07422 6.53069 4.45669 6.53069 5.00652V6.10974Z" stroke="#A1A1A1" stroke-width="2" stroke-miterlimit="10" stroke-linecap="round" stroke-linejoin="round"/>
<mask id="path-3-inside-1" fill="white">
<path d="M7.5425 10.8758C6.80612 10.3406 5.9036 10.0264 4.92278 10.0264C2.74766 10.0264 0.938124 11.5828 0.535824 13.6381C0.446364 14.0859 0.818784 14.4952 1.27292 14.4952H4.92278"/>
</mask>
<path d="M6.36675 12.4937C7.26029 13.143 8.51105 12.9451 9.1604 12.0515C9.80976 11.158 9.6118 9.90724 8.71826 9.25789L6.36675 12.4937ZM0.535824 13.6381L2.49709 14.0298L2.49858 14.0223L0.535824 13.6381ZM4.92278 16.4952C6.02735 16.4952 6.92278 15.5998 6.92278 14.4952C6.92278 13.3907 6.02735 12.4952 4.92278 12.4952V16.4952ZM8.71826 9.25789C7.6513 8.48251 6.33962 8.02637 4.92278 8.02637V12.0264C5.46759 12.0264 5.96095 12.1988 6.36675 12.4937L8.71826 9.25789ZM4.92278 8.02637C1.76917 8.02637 -0.845166 10.2818 -1.42693 13.2539L2.49858 14.0223C2.72141 12.8838 3.72616 12.0264 4.92278 12.0264V8.02637ZM-1.42543 13.2463C-1.78859 15.0643 -0.304131 16.4952 1.27292 16.4952V12.4952C1.9417 12.4952 2.68132 13.1075 2.49708 14.0298L-1.42543 13.2463ZM1.27292 16.4952H4.92278V12.4952H1.27292V16.4952Z" fill="#A1A1A1" mask="url(#path-3-inside-1)"/>
<path d="M6.76764 15.7287C7.2302 13.4701 9.2301 11.7705 11.6252 11.7705C14.0201 11.7705 16.0201 13.4695 16.4837 15.7287H6.76764Z" stroke="#A1A1A1" stroke-width="2" stroke-miterlimit="10" stroke-linecap="round" stroke-linejoin="round"/>
</g>
<defs>
<clipPath id="clip0">
<rect width="18" height="18" fill="white" transform="translate(0.015625 0.351562)"/>
</clipPath>
</defs>
</svg>
