<svg width="25" height="25" viewBox="0 0 25 25" fill="none" xmlns="http://www.w3.org/2000/svg">
<path fill-rule="evenodd" clip-rule="evenodd" d="M19.3329 21.2848L21.5501 19.0676L20.7692 16.2308L21.1094 15.4182L23.6768 13.9696V10.8342L21.1167 9.37949L20.7822 8.56843L21.5729 5.73011L19.3542 3.51459L16.517 4.29524L15.7064 3.95533L14.2576 1.38776H11.1222L9.66748 3.9478L8.85661 4.28222L6.01874 3.49056L3.80346 5.70584L4.58424 8.54343L4.24433 9.3541L1.67676 10.8029V13.9374L4.23449 15.3953L4.56928 16.2071L3.77873 19.0449L5.99485 21.2611L8.83243 20.4803L9.6432 20.8202L11.092 23.3867H14.2266L15.6835 20.8289L16.4951 20.4942L19.3329 21.2848ZM19.5294 14.0134L18.6576 16.0955L19.313 18.4763L18.7446 19.0447L16.3688 18.3829L14.2857 19.242L13.0641 21.3867H12.2597L11.0482 19.2406L8.96831 18.3686L6.58622 19.024L6.01878 18.4566L6.68061 16.0808L5.82158 13.9979L3.67676 12.7753V11.9708L5.82386 10.7593L6.69595 8.67931L6.04051 6.29722L6.60677 5.73096L8.98252 6.39371L11.0663 5.53431L12.2861 3.38776H13.0897L14.3012 5.53486L16.3812 6.40695L18.7637 5.75138L19.3326 6.31942L18.6709 8.69471L19.5302 10.7783L21.6768 11.9981V12.8017L19.5294 14.0134ZM12.6768 16.3878C10.4676 16.3878 8.67676 14.5969 8.67676 12.3878C8.67676 10.1786 10.4676 8.38776 12.6768 8.38776C14.8859 8.38776 16.6768 10.1786 16.6768 12.3878C16.6768 14.5969 14.8859 16.3878 12.6768 16.3878ZM14.6768 12.3878C14.6768 13.4923 13.7813 14.3878 12.6768 14.3878C11.5722 14.3878 10.6768 13.4923 10.6768 12.3878C10.6768 11.2832 11.5722 10.3878 12.6768 10.3878C13.7813 10.3878 14.6768 11.2832 14.6768 12.3878Z" fill="#454545"/>
</svg>
