<svg width="21" height="21" viewBox="0 0 21 21" fill="none" xmlns="http://www.w3.org/2000/svg">
<path fill-rule="evenodd" clip-rule="evenodd" d="M6.06177 5.71844C6.12081 5.63636 6.18639 5.53588 6.27 5.40039C6.30056 5.35089 6.38387 5.21343 6.4459 5.11109L6.51576 4.99597C7.20658 3.86595 7.70875 3.34729 8.61426 3.34729H11.9476C12.8531 3.34729 13.3553 3.86595 14.0461 4.99597L14.116 5.11124C14.1781 5.21356 14.2613 5.35091 14.2918 5.40039C14.3755 5.53588 14.441 5.63636 14.5001 5.71844C14.539 5.77256 14.573 5.81557 14.6008 5.84729H16.9476C18.3283 5.84729 19.4476 6.96658 19.4476 8.34729V15.8473C19.4476 17.228 18.3283 18.3473 16.9476 18.3473H3.61426C2.23355 18.3473 1.11426 17.228 1.11426 15.8473V8.34729C1.11426 6.96658 2.23355 5.84729 3.61426 5.84729H5.96109C5.98883 5.81557 6.02284 5.77256 6.06177 5.71844ZM3.61426 7.51396C3.15402 7.51396 2.78092 7.88705 2.78092 8.34729V15.8473C2.78092 16.3075 3.15402 16.6806 3.61426 16.6806H16.9476C17.4078 16.6806 17.7809 16.3075 17.7809 15.8473V8.34729C17.7809 7.88705 17.4078 7.51396 16.9476 7.51396H14.4476C13.894 7.51396 13.5206 7.21096 13.1471 6.69167C13.0611 6.57219 12.976 6.44172 12.8735 6.2757C12.8384 6.21885 12.7474 6.0686 12.6848 5.96541L12.6848 5.96533L12.6241 5.86528C12.2472 5.24873 12.0199 5.01396 11.9476 5.01396H8.61426C8.54198 5.01396 8.31468 5.24873 7.93776 5.86528L7.87715 5.96516C7.81461 6.06836 7.72343 6.21881 7.68832 6.2757C7.58586 6.44172 7.50071 6.57219 7.41477 6.69167C7.04123 7.21096 6.66788 7.51396 6.11426 7.51396H3.61426ZM16.9476 9.18062C16.9476 9.64086 16.5745 10.014 16.1143 10.014C15.654 10.014 15.2809 9.64086 15.2809 9.18062C15.2809 8.72039 15.654 8.34729 16.1143 8.34729C16.5745 8.34729 16.9476 8.72039 16.9476 9.18062ZM6.11426 11.6806C6.11426 13.9818 7.97974 15.8473 10.2809 15.8473C12.5821 15.8473 14.4476 13.9818 14.4476 11.6806C14.4476 9.37944 12.5821 7.51396 10.2809 7.51396C7.97974 7.51396 6.11426 9.37944 6.11426 11.6806ZM12.7809 11.6806C12.7809 13.0613 11.6616 14.1806 10.2809 14.1806C8.90021 14.1806 7.78092 13.0613 7.78092 11.6806C7.78092 10.2999 8.90021 9.18062 10.2809 9.18062C11.6616 9.18062 12.7809 10.2999 12.7809 11.6806Z" fill="#737373"/>
</svg>
