<svg width="25" height="24" viewBox="0 0 25 24" fill="none" xmlns="http://www.w3.org/2000/svg">
<path fill-rule="evenodd" clip-rule="evenodd" d="M12.0469 23C5.97174 23 1.04688 18.0751 1.04688 12C1.04688 5.92487 5.97174 1 12.0469 1C18.122 1 23.0469 5.92487 23.0469 12C23.0469 18.0751 18.122 23 12.0469 23ZM12.0469 21C17.0174 21 21.0469 16.9706 21.0469 12C21.0469 7.02944 17.0174 3 12.0469 3C7.07631 3 3.04688 7.02944 3.04688 12C3.04688 16.9706 7.07631 21 12.0469 21ZM8.75398 16.7071L12.0469 13.4142L15.3398 16.7071L16.754 15.2929L13.4611 12L16.754 8.70711L15.3398 7.29289L12.0469 10.5858L8.75398 7.29289L7.33977 8.70711L10.6327 12L7.33977 15.2929L8.75398 16.7071Z" fill="#454545"/>
</svg>
