<svg width="24" height="24" viewBox="0 0 24 24" fill="none" xmlns="http://www.w3.org/2000/svg">
<path d="M23.8255 6.06915C23.687 5.83815 23.3995 5.56365 22.8265 5.56365H6.848L6.072 3.88815C6.026 3.77315 5.963 3.66165 5.8705 3.53665C5.8155 3.46415 5.756 3.39765 5.6575 3.30915C5.594 3.25415 5.5265 3.20365 5.456 3.15965L5.417 3.13765C5.3455 3.09615 5.2715 3.06015 5.195 3.03165L5.144 3.01515C5.069 2.98965 4.993 2.96865 4.915 2.95565L4.8055 2.94365C4.757 2.93615 4.7085 2.93115 4.659 2.93115H1.524C0.684 2.93115 0 3.61465 0 4.45465C0 5.29565 0.6835 5.97965 1.524 5.97965H3.681L4.5525 7.86415C4.765 8.48715 5.0645 9.02465 5.066 9.02465L7.2195 13.8582C7.237 13.8972 7.258 13.9332 7.2885 13.9812L7.6905 14.8357C7.845 15.3407 8.2455 15.7212 8.7375 15.8632L8.7325 15.9287H19.1935L19.673 15.9207L19.667 15.8602C20.1535 15.7167 20.55 15.3357 20.703 14.8357L23.318 9.04215C23.4975 8.70215 24.3645 6.96065 23.8255 6.06915ZM22.5415 8.65515L20.06 14.1652L19.9915 14.1467L19.88 14.5587C19.802 14.8507 19.538 15.0527 19.21 15.0527H19.206L18.712 15.0382L18.714 15.0607H9.6275L9.1595 15.0547C8.8575 15.0547 8.592 14.8507 8.5135 14.5587L8.4005 14.1477L8.3335 14.1652L5.8375 8.62815C5.8345 8.62315 5.5545 8.12015 5.3675 7.56415L4.2355 5.11215H1.524C1.1625 5.11215 0.868 4.81715 0.868 4.45565C0.868 4.09415 1.1625 3.80015 1.524 3.80015L4.689 3.80365L4.768 3.81215C4.802 3.81865 4.8335 3.82715 4.887 3.84415C4.9205 3.85665 4.9525 3.87315 5.0005 3.89915C5.031 3.91865 5.059 3.94065 5.101 3.97565C5.1295 4.00165 5.1545 4.03015 5.186 4.07015C5.2205 4.11765 5.247 4.16415 5.275 4.23265L6.2925 6.43165H22.8265C23.0305 6.43165 23.0685 6.49365 23.0825 6.51715C23.269 6.82565 22.9575 7.86315 22.5415 8.65515ZM10.8275 16.8042C9.652 16.8042 8.696 17.7602 8.696 18.9362C8.696 20.1122 9.652 21.0692 10.8275 21.0692C12.004 21.0692 12.9595 20.1122 12.9595 18.9362C12.9595 17.7602 12.0035 16.8042 10.8275 16.8042ZM10.8275 20.2987C10.077 20.2987 9.4655 19.6882 9.4655 18.9362C9.4655 18.1852 10.077 17.5747 10.8275 17.5747C11.579 17.5747 12.19 18.1852 12.19 18.9362C12.19 19.6882 11.579 20.2987 10.8275 20.2987ZM18.22 16.8042C17.043 16.8042 16.087 17.7602 16.087 18.9362C16.087 20.1122 17.043 21.0692 18.22 21.0692C19.395 21.0692 20.352 20.1122 20.352 18.9362C20.352 17.7602 19.395 16.8042 18.22 16.8042ZM18.22 20.2987C17.468 20.2987 16.8575 19.6882 16.8575 18.9362C16.8575 18.1852 17.468 17.5747 18.22 17.5747C18.97 17.5747 19.5815 18.1852 19.5815 18.9362C19.5815 19.6882 18.97 20.2987 18.22 20.2987Z" fill="black"/>
</svg>
