<svg width="25" height="25" viewBox="0 0 25 25" fill="none" xmlns="http://www.w3.org/2000/svg">
<path fill-rule="evenodd" clip-rule="evenodd" d="M6.92672 4.27598C6.74912 4.27559 6.57791 4.2957 6.41523 4.33391C6.19221 3.84237 5.89763 3.40138 5.56258 3.06633C4.9939 2.49766 4.09702 2.27344 2.85547 2.27344V4.27344C3.61392 4.27344 4.05037 4.38255 4.14836 4.48054C4.52633 4.85851 4.85547 5.6265 4.85547 6.27344L4.86552 6.41486L5.84539 13.2739C4.20582 13.359 2.93567 14.6323 2.8567 16.2239L2.85547 17.2734C2.95229 18.9174 4.21822 20.182 5.79871 20.2718L6.02573 20.2722C6.43721 21.438 7.54878 22.2734 8.85547 22.2734C10.1617 22.2734 11.2729 21.4386 11.6848 20.2734H14.0262C14.438 21.4386 15.5492 22.2734 16.8555 22.2734C18.5123 22.2734 19.8555 20.9303 19.8555 19.2734C19.8555 17.6166 18.5123 16.2734 16.8555 16.2734C15.5492 16.2734 14.438 17.1082 14.0262 18.2734H11.6848C11.2729 17.1082 10.1617 16.2734 8.85547 16.2734C7.54925 16.2734 6.43801 17.1082 6.02617 18.2734H5.85547C5.34548 18.2428 4.88801 17.7858 4.85367 17.2136L4.85547 16.2734C4.88243 15.7547 5.33678 15.3004 5.90502 15.2722L7.87916 15.2727L7.89347 15.2734H17.9723L18.1199 15.2266C18.8781 14.986 19.4851 14.4151 19.7725 13.676L19.8778 13.4675L20.2201 12.7893C20.5742 12.0874 20.9284 11.3842 21.2734 10.6972C22.1187 9.01451 22.6503 7.9451 22.768 7.68249C23.3725 6.33389 22.1479 5.2959 20.8962 5.2738L6.92672 4.27598ZM17.6249 13.2734H7.96834C7.90413 13.2556 7.8552 13.2012 7.84562 13.1335L6.86573 6.27417L20.7488 7.26836C20.5059 7.76376 20.0644 8.6486 19.4862 9.79953L19.4718 9.82837C19.1418 10.4853 18.7881 11.1875 18.4345 11.8885L18.0926 12.5658L17.963 12.8223L17.9142 12.9357C17.862 13.0812 17.7583 13.2008 17.6249 13.2734ZM16.8555 20.2734C17.4078 20.2734 17.8555 19.8257 17.8555 19.2734C17.8555 18.7212 17.4078 18.2734 16.8555 18.2734C16.3032 18.2734 15.8555 18.7212 15.8555 19.2734C15.8555 19.8257 16.3032 20.2734 16.8555 20.2734ZM9.85547 19.2734C9.85547 19.8257 9.40775 20.2734 8.85547 20.2734C8.30318 20.2734 7.85547 19.8257 7.85547 19.2734C7.85547 18.7212 8.30318 18.2734 8.85547 18.2734C9.40775 18.2734 9.85547 18.7212 9.85547 19.2734Z" fill="#FF1678"/>
</svg>
