<svg width="24" height="20" viewBox="0 0 24 20" fill="none" xmlns="http://www.w3.org/2000/svg">
<path d="M23.825 4.06915C23.687 3.83815 23.399 3.56365 22.826 3.56365H6.848L6.072 1.88815C6.026 1.77315 5.963 1.66165 5.8705 1.53665C5.8155 1.46365 5.756 1.39765 5.6575 1.30915C5.594 1.25415 5.5265 1.20365 5.456 1.15965L5.417 1.13765C5.3455 1.09615 5.2715 1.06015 5.195 1.03165L5.144 1.01515C5.069 0.989652 4.993 0.968652 4.915 0.955652L4.8055 0.943652C4.757 0.936152 4.7085 0.931152 4.659 0.931152H1.524C0.684 0.931152 0 1.61465 0 2.45465C0 3.29565 0.6835 3.97965 1.524 3.97965H3.681L4.5525 5.86415C4.765 6.48715 5.0645 7.02465 5.066 7.02465L7.2195 11.8582C7.237 11.8972 7.258 11.9332 7.2885 11.9812L7.6905 12.8357C7.845 13.3412 8.2455 13.7212 8.7375 13.8637L8.7325 13.9292H19.1935L19.673 13.9207L19.667 13.8602C20.1535 13.7172 20.55 13.3357 20.703 12.8357L23.318 7.04215C23.4975 6.70215 24.3645 4.96065 23.825 4.06915ZM22.5415 6.65515L20.06 12.1652L19.991 12.1467L19.8795 12.5587C19.8015 12.8507 19.5375 13.0527 19.2095 13.0527H19.2055L18.7115 13.0382L18.7135 13.0607H9.6275L9.1595 13.0547C8.8575 13.0547 8.592 12.8507 8.5135 12.5587L8.4005 12.1477L8.3335 12.1652L5.8375 6.62815C5.8345 6.62315 5.5545 6.12015 5.3675 5.56415L4.2355 3.11215H1.524C1.1625 3.11215 0.868 2.81715 0.868 2.45565C0.868 2.09415 1.1625 1.80015 1.524 1.80015L4.689 1.80365L4.768 1.81215C4.802 1.81865 4.8335 1.82715 4.887 1.84415C4.9205 1.85665 4.9525 1.87315 5.0005 1.89915C5.031 1.91865 5.059 1.94065 5.101 1.97565C5.1295 2.00165 5.1545 2.03015 5.186 2.07015C5.2205 2.11765 5.247 2.16415 5.275 2.23265L6.2925 4.43165H22.826C23.03 4.43165 23.068 4.49365 23.0825 4.51715C23.269 4.82565 22.9575 5.86315 22.5415 6.65515ZM10.8275 14.8037C9.652 14.8037 8.696 15.7597 8.696 16.9362C8.696 18.1127 9.652 19.0697 10.8275 19.0697C12.004 19.0697 12.9595 18.1127 12.9595 16.9362C12.9595 15.7597 12.0035 14.8037 10.8275 14.8037ZM10.8275 18.2992C10.077 18.2992 9.4655 17.6882 9.4655 16.9362C9.4655 16.1852 10.077 15.5742 10.8275 15.5742C11.579 15.5742 12.19 16.1852 12.19 16.9362C12.19 17.6882 11.579 18.2992 10.8275 18.2992ZM18.2195 14.8037C17.0425 14.8037 16.0865 15.7597 16.0865 16.9362C16.0865 18.1127 17.0425 19.0697 18.2195 19.0697C19.395 19.0697 20.352 18.1127 20.352 16.9362C20.352 15.7597 19.395 14.8037 18.2195 14.8037ZM18.2195 18.2992C17.4675 18.2992 16.857 17.6882 16.857 16.9362C16.857 16.1852 17.4675 15.5742 18.2195 15.5742C18.9695 15.5742 19.5815 16.1852 19.5815 16.9362C19.5815 17.6882 18.9695 18.2992 18.2195 18.2992Z" fill="white"/>
</svg>
