<svg width="25" height="25" viewBox="0 0 25 25" fill="none" xmlns="http://www.w3.org/2000/svg">
<path d="M18.9359 24.8992H6.06458C4.3099 24.8992 2.88073 23.3789 2.86302 21.5029L1.35938 10.2674L2.39167 10.1289L3.90417 21.4669C3.90417 22.7852 4.87344 23.8575 6.06458 23.8575H18.9359C20.1266 23.8575 21.0953 22.7852 21.0953 21.4669L21.1 21.3977L22.6083 10.1289L23.6406 10.2674L22.1375 21.5029C22.1193 23.3789 20.6901 24.8992 18.9359 24.8992Z" fill="black"/>
<path d="M23.9583 5.5026V10.0969H1.04167V5.5026H23.9583ZM23.9583 4.46094H1.04167C0.46875 4.46094 0 4.92969 0 5.5026V10.0969C0 10.6698 0.46875 11.1385 1.04167 11.1385H23.9583C24.5312 11.1385 25 10.6698 25 10.0969V5.5026C25 4.92969 24.5312 4.46094 23.9583 4.46094Z" fill="black"/>
<path d="M6.50501 5.55071C6.34615 5.55071 6.18938 5.47832 6.0873 5.34134L2.80084 0.937691C2.62845 0.707483 2.67636 0.38092 2.90657 0.209045C3.13782 0.0366494 3.46386 0.0845661 3.63522 0.314774L6.92168 4.71842C7.09407 4.94863 7.04615 5.27519 6.81595 5.44707C6.72272 5.51686 6.61334 5.55071 6.50501 5.55071Z" fill="black"/>
<path d="M18.4951 5.55109C18.3868 5.55109 18.2774 5.51776 18.1842 5.44744C17.9534 5.27557 17.9061 4.94901 18.0779 4.7188L21.3639 0.315151C21.5357 0.0844219 21.8633 0.0365053 22.0925 0.209422C22.3232 0.381297 22.3706 0.707859 22.1988 0.938068L18.9128 5.34171C18.8107 5.47869 18.6534 5.55109 18.4951 5.55109Z" fill="black"/>
<path d="M9.17513 21.4138C8.88763 21.4138 8.6543 21.181 8.6543 20.893V13.6888C8.6543 13.4008 8.88763 13.168 9.17513 13.168C9.46263 13.168 9.69596 13.4008 9.69596 13.6888V20.893C9.69596 21.181 9.46263 21.4138 9.17513 21.4138Z" fill="black"/>
<path d="M15.8255 21.4138C15.5375 21.4138 15.3047 21.181 15.3047 20.893V13.6888C15.3047 13.4008 15.5375 13.168 15.8255 13.168C16.1135 13.168 16.3464 13.4008 16.3464 13.6888V20.893C16.3464 21.181 16.1135 21.4138 15.8255 21.4138Z" fill="black"/>
</svg>
