<svg width="19" height="19" viewBox="0 0 19 19" fill="none" xmlns="http://www.w3.org/2000/svg">
<path fill-rule="evenodd" clip-rule="evenodd" d="M4.65039 0.988281H12.4611L16.6504 5.17762V15.9883C16.6504 16.8167 15.9788 17.4883 15.1504 17.4883H4.65039C3.82196 17.4883 3.15039 16.8167 3.15039 15.9883V2.48828C3.15039 1.65985 3.82196 0.988281 4.65039 0.988281ZM10.6504 2.48828H4.65039V15.9883H15.1504V6.98828H12.1504C11.322 6.98828 10.6504 6.31671 10.6504 5.48828V2.48828ZM12.1504 2.79894V5.48828H14.8397L12.1504 2.79894ZM6.90039 12.9883V11.4883H11.4004V12.9883H6.90039ZM6.90039 8.48828V9.98828H12.9004V8.48828H6.90039Z" fill="#737373"/>
</svg>
