<svg width="25" height="25" viewBox="0 0 25 25" fill="none" xmlns="http://www.w3.org/2000/svg">
<path fill-rule="evenodd" clip-rule="evenodd" d="M9.01025 15.7937V13.7937H16.0103V15.7937H9.01025Z" fill="#A1A1A1"/>
<path fill-rule="evenodd" clip-rule="evenodd" d="M8.00977 11.7927V9.79272H17.0098V11.7927H8.00977Z" fill="#A1A1A1"/>
<path fill-rule="evenodd" clip-rule="evenodd" d="M12.5098 22.7922C10.7852 22.7922 9.12275 22.3542 7.65028 21.534L3.41508 21.8869L3.76801 17.6517C2.94778 16.1793 2.50977 14.5168 2.50977 12.7922C2.50977 7.26939 6.98692 2.79224 12.5098 2.79224C18.0326 2.79224 22.5098 7.26939 22.5098 12.7922C22.5098 18.3151 18.0326 22.7922 12.5098 22.7922ZM8.39501 19.6546L8.1184 19.4883L5.60469 19.6977L5.81417 17.184L5.64789 16.9074C4.90697 15.6749 4.51 14.264 4.51 12.7924C4.51 8.37416 8.09172 4.79244 12.51 4.79244C16.9283 4.79244 20.51 8.37416 20.51 12.7924C20.51 17.2107 16.9283 20.7924 12.51 20.7924C11.0385 20.7924 9.62758 20.3955 8.39501 19.6546Z" fill="#A1A1A1"/>
</svg>
