<svg width="14" height="8" viewBox="0 0 14 8" fill="none" xmlns="http://www.w3.org/2000/svg">
<path d="M2.23192 1.74705L2.23219 1.74736L5.26086 5.23003L12.1727 0.464645C12.1729 0.46449 12.1731 0.464336 12.1733 0.464181C12.4767 0.253312 12.8915 0.332137 13.1007 0.634024L13.1012 0.634728C13.3096 0.937824 13.2337 1.3525 12.9305 1.56176L12.9304 1.56182L5.52732 6.66575C5.52725 6.6658 5.52717 6.66585 5.5271 6.6659L5.52698 6.66599L2.23192 1.74705ZM2.23192 1.74705C1.99069 1.47059 1.56996 1.43898 1.29128 1.68222L2.23192 1.74705ZM1.22625 2.62264L4.64539 6.55437L1.29125 1.68225C1.01453 1.92375 0.984024 2.34427 1.22618 2.62255C1.2262 2.62258 1.22623 2.62261 1.22625 2.62264Z" fill="#A1A1A1" stroke="#A1A1A1" stroke-width="0.5"/>
</svg>
