<svg width="25" height="25" viewBox="0 0 25 25" fill="none" xmlns="http://www.w3.org/2000/svg">
<path fill-rule="evenodd" clip-rule="evenodd" d="M12.3818 23.5602C6.3067 23.5602 1.38184 18.6354 1.38184 12.5602C1.38184 6.48511 6.3067 1.56024 12.3818 1.56024C18.457 1.56024 23.3818 6.48511 23.3818 12.5602C23.3818 18.6354 18.457 23.5602 12.3818 23.5602ZM12.3818 21.5602C17.3524 21.5602 21.3818 17.5308 21.3818 12.5602C21.3818 7.58968 17.3524 3.56024 12.3818 3.56024C7.41127 3.56024 3.38184 7.58968 3.38184 12.5602C3.38184 17.5308 7.41127 21.5602 12.3818 21.5602ZM15.6747 8.85314L10.3818 14.146L8.08894 11.8531L6.67473 13.2673L10.3818 16.9745L17.0889 10.2673L15.6747 8.85314Z" fill="#FF1678"/>
</svg>
