<svg width="20" height="20" viewBox="0 0 20 20" fill="none" xmlns="http://www.w3.org/2000/svg">
<path d="M10.0013 20C4.48648 20 0 15.5133 0 10C0 4.48625 4.48648 0 10.0013 0C15.5139 0 20 4.48625 20 10C20 15.5133 15.5139 20 10.0013 20Z" fill="#0B5AF6"/>
<path d="M8.61172 13.2488C8.49465 13.2488 8.37882 13.1996 8.29715 13.1054L4.87771 9.17334C4.72647 8.99959 4.74522 8.73668 4.91854 8.58543C5.09229 8.43376 5.35519 8.45293 5.50644 8.62626L8.68172 12.2775L15.7785 7.38459C15.9668 7.25334 16.2264 7.30126 16.3581 7.49126C16.4885 7.68084 16.441 7.94001 16.2514 8.07084L8.84796 13.175C8.7763 13.2246 8.6938 13.2488 8.61172 13.2488Z" fill="white"/>
</svg>
