<svg width="15" height="16" viewBox="0 0 15 16" fill="none" xmlns="http://www.w3.org/2000/svg">
<g clip-path="url(#clip0)">
<path d="M14.4104 15.7305H0.590664C0.265352 15.7305 0.000976562 15.4655 0.000976562 15.1402V1.32047C0.000976563 0.995156 0.265664 0.730469 0.590664 0.730469H14.4104C14.7357 0.730469 15.0004 0.995156 15.0004 1.32047V15.1402C15.0004 15.4655 14.7357 15.7305 14.4104 15.7305ZM0.625977 15.1055H14.3754V1.35547H0.625977V15.1055Z" fill="#FEFEFE"/>
<path d="M10.858 5.78959L10.416 5.34766L5.23187 10.5318L5.6738 10.9737L10.858 5.78959Z" fill="#FEFEFE"/>
<path d="M5.95669 10.5309L4.07227 8.64648L3.63033 9.08842L5.51475 10.9728L5.95669 10.5309Z" fill="#FEFEFE"/>
</g>
<defs>
<clipPath id="clip0">
<rect width="15" height="15" fill="white" transform="translate(0 0.730469)"/>
</clipPath>
</defs>
</svg>
