<svg width="17" height="17" viewBox="0 0 17 17" fill="none" xmlns="http://www.w3.org/2000/svg">
<path fill-rule="evenodd" clip-rule="evenodd" d="M5.12402 4.83855V6.83855H4.45736C3.74512 6.83855 3.12402 7.35613 3.12402 8.06077V13.6163C3.12402 14.321 3.74512 14.8386 4.45736 14.8386H12.4574C13.1696 14.8386 13.7907 14.321 13.7907 13.6163V8.06077C13.7907 7.35613 13.1696 6.83855 12.4574 6.83855H11.7907V4.83855C11.7907 2.9976 10.2983 1.50522 8.45736 1.50522C6.61641 1.50522 5.12402 2.9976 5.12402 4.83855ZM10.4574 4.83855V6.83855H6.45736V4.83855C6.45736 3.73398 7.35279 2.83855 8.45736 2.83855C9.56193 2.83855 10.4574 3.73398 10.4574 4.83855ZM4.45736 13.5052V8.17189H12.4574V13.5052H4.45736ZM9.12402 10.8386C9.12402 11.2067 8.82555 11.5052 8.45736 11.5052C8.08917 11.5052 7.79069 11.2067 7.79069 10.8386C7.79069 10.4704 8.08917 10.1719 8.45736 10.1719C8.82555 10.1719 9.12402 10.4704 9.12402 10.8386Z" fill="#454545"/>
</svg>
