<svg width="25" height="25" viewBox="0 0 25 25" fill="none" xmlns="http://www.w3.org/2000/svg">
<path fill-rule="evenodd" clip-rule="evenodd" d="M22.4639 20.5234V13.5234H20.4639V20.5234H4.46387V4.52344H11.4639V2.52344H4.46387C3.3593 2.52344 2.46387 3.41887 2.46387 4.52344V20.5234C2.46387 21.628 3.3593 22.5234 4.46387 22.5234H20.4639C21.5684 22.5234 22.4639 21.628 22.4639 20.5234ZM19.6419 3.24686C19.1835 2.78486 18.5559 2.52344 17.9012 2.52344C17.2472 2.52344 16.6202 2.78427 16.1592 3.24807L7.7903 11.6169C7.04247 12.2758 6.55224 13.2563 6.46705 14.3107L6.4638 17.5258V18.5258H10.5984C11.7327 18.448 12.7228 17.9529 13.4213 17.1472L21.7428 8.82927C22.2045 8.3676 22.4639 7.74143 22.4639 7.08852C22.4639 6.43561 22.2045 5.80944 21.7428 5.34776L19.6419 3.24686ZM10.5279 16.5283C11.0621 16.4904 11.5594 16.2418 11.9587 15.7851L18.0207 9.723L15.2664 6.96854L9.15997 13.073C8.75482 13.4314 8.50418 13.9327 8.46387 14.3913V16.5264L10.5279 16.5283ZM16.6809 5.55456L19.4349 8.30878L20.3287 7.41506C20.4153 7.32845 20.4639 7.21099 20.4639 7.08852C20.4639 6.96604 20.4153 6.84858 20.3287 6.76197L18.225 4.65829C18.1394 4.57198 18.0228 4.52344 17.9012 4.52344C17.7796 4.52344 17.6631 4.57198 17.5774 4.65829L16.6809 5.55456Z" fill="white"/>
</svg>
