<svg width="24" height="24" viewBox="0 0 24 24" fill="none" xmlns="http://www.w3.org/2000/svg">
<g clip-path="url(#clip0)">
<path d="M18.4903 5.54297H5.50977V6.54297H18.4903V5.54297Z" fill="#737373"/>
<path d="M18.4903 9.52344H5.50977V10.5234H18.4903V9.52344Z" fill="#737373"/>
<path d="M18.4903 13.5078H5.50977V14.5078H18.4903V13.5078Z" fill="#737373"/>
<path d="M0.501953 24C0.417953 24 0.333453 23.9785 0.257453 23.936C0.0994531 23.8475 0.00195312 23.6805 0.00195312 23.5V3.098C0.00195312 1.3895 1.39145 0 3.09995 0H20.903C22.6115 0 24.001 1.3895 24.001 3.098V23.5C24.001 23.681 23.903 23.848 23.745 23.9365C23.5865 24.025 23.3935 24.0205 23.239 23.926L18.0535 20.737L12.1715 23.939C12.021 24.021 11.838 24.02 11.688 23.936L5.97995 20.738L0.762453 23.927C0.682953 23.9755 0.592453 24 0.501953 24ZM5.96945 19.659C6.05345 19.659 6.13795 19.68 6.21395 19.723L11.9365 22.9285L17.83 19.72C17.9875 19.6335 18.1785 19.6395 18.331 19.733L23.0015 22.605V3.098C23.001 1.941 22.0595 1 20.903 1H3.09995C1.94295 1 1.00195 1.941 1.00195 3.098V22.6085L5.70895 19.7325C5.78895 19.6835 5.87895 19.659 5.96945 19.659Z" fill="#737373"/>
</g>
<defs>
<clipPath id="clip0">
<rect width="24" height="24" fill="white"/>
</clipPath>
</defs>
</svg>
