<svg width="25" height="25" viewBox="0 0 25 25" fill="none" xmlns="http://www.w3.org/2000/svg">
<path fill-rule="evenodd" clip-rule="evenodd" d="M21.0568 3.04297H4.69318C3.68903 3.04297 2.875 3.9384 2.875 5.04297V7.04297C2.875 8.14754 3.68903 9.04297 4.69318 9.04297H21.0568C22.061 9.04297 22.875 8.14754 22.875 7.04297V5.04297C22.875 3.9384 22.061 3.04297 21.0568 3.04297ZM4.69318 11.043H21.0568C22.061 11.043 22.875 11.9384 22.875 13.043V15.043C22.875 16.1475 22.061 17.043 21.0568 17.043H4.69318C3.68903 17.043 2.875 16.1475 2.875 15.043V13.043C2.875 11.9384 3.68903 11.043 4.69318 11.043ZM4.875 13.043V15.043H20.875V13.043H4.875ZM4.875 5.04297V7.04297H20.875V5.04297H4.875ZM14.875 19.043H2.875V21.043H14.875V19.043Z" fill="#A1A1A1"/>
</svg>
