<svg width="21" height="21" viewBox="0 0 21 21" fill="none" xmlns="http://www.w3.org/2000/svg">
<path fill-rule="evenodd" clip-rule="evenodd" d="M10.9347 16.0208V15.1284C12.5876 14.892 14.017 13.9626 14.9192 12.644C17.1809 12.3324 18.4347 10.3732 18.4347 7.6875V5.1875C18.4347 4.26703 17.6885 3.52083 16.7681 3.52083H15.7118C15.4236 3.02267 14.885 2.6875 14.2681 2.6875H5.93473C5.31783 2.6875 4.77921 3.02267 4.49104 3.52083H3.43473C2.51426 3.52083 1.76807 4.26703 1.76807 5.1875V7.6875C1.76807 10.3732 3.02189 12.3324 5.28362 12.644C6.18577 13.9626 7.61515 14.892 9.26807 15.1284V16.0208H8.43473C7.51426 16.0208 6.76807 16.767 6.76807 17.6875H13.4347C13.4347 16.767 12.6885 16.0208 11.7681 16.0208H10.9347ZM3.43473 5.1875H4.26807V9.35417C4.26807 9.73563 4.30468 10.1085 4.37459 10.4696C3.75996 9.91637 3.43473 8.96355 3.43473 7.6875V5.1875ZM15.9347 5.1875V9.35417C15.9347 9.73563 15.8981 10.1085 15.8282 10.4696C16.4428 9.91637 16.7681 8.96355 16.7681 7.6875V5.1875H15.9347ZM5.93473 9.35417V4.35417H14.2681V9.35417C14.2681 11.6554 12.4026 13.5208 10.1014 13.5208C7.80021 13.5208 5.93473 11.6554 5.93473 9.35417Z" fill="#737373"/>
</svg>
