<svg width="25" height="25" viewBox="0 0 25 25" fill="none" xmlns="http://www.w3.org/2000/svg">
<path fill-rule="evenodd" clip-rule="evenodd" d="M12.2148 23.375C6.13971 23.375 1.21484 18.4501 1.21484 12.375C1.21484 6.29987 6.13971 1.375 12.2148 1.375C18.29 1.375 23.2148 6.29987 23.2148 12.375C23.2148 18.4501 18.29 23.375 12.2148 23.375ZM12.2151 21.375C17.1857 21.375 21.2151 17.3456 21.2151 12.375C21.2151 7.40443 17.1857 3.37499 12.2151 3.37499C7.24454 3.37499 3.2151 7.40443 3.2151 12.375C3.2151 17.3456 7.24454 21.375 12.2151 21.375ZM17.2148 11.375H13.2148V7.375H11.2148V11.375H7.21484V13.375H11.2148V17.375H13.2148V13.375H17.2148V11.375Z" fill="#737373"/>
</svg>
