<svg width="25" height="25" viewBox="0 0 25 25" fill="none" xmlns="http://www.w3.org/2000/svg">
<path fill-rule="evenodd" clip-rule="evenodd" d="M12.0469 23.1016C5.97174 23.1016 1.04688 18.1767 1.04688 12.1016C1.04688 6.02643 5.97174 1.10156 12.0469 1.10156C18.122 1.10156 23.0469 6.02643 23.0469 12.1016C23.0469 18.1767 18.122 23.1016 12.0469 23.1016ZM12.0469 21.1016C17.0174 21.1016 21.0469 17.0721 21.0469 12.1016C21.0469 7.131 17.0174 3.10156 12.0469 3.10156C7.07631 3.10156 3.04688 7.131 3.04688 12.1016C3.04688 17.0721 7.07631 21.1016 12.0469 21.1016ZM17.0469 11.1016H13.0469V7.10156H11.0469V11.1016H7.04688V13.1016H11.0469V17.1016H13.0469V13.1016H17.0469V11.1016Z" fill="black"/>
</svg>
