<svg width="13" height="13" viewBox="0 0 13 13" fill="none" xmlns="http://www.w3.org/2000/svg">
<g clip-path="url(#clip0)">
<path d="M10.4868 2.37209C9.35352 1.23886 7.8468 0.614746 6.24414 0.614746C4.64148 0.614746 3.13476 1.23886 2.00148 2.37209C0.868258 3.50536 0.244141 5.01209 0.244141 6.61475C0.244141 8.2174 0.868258 9.72413 2.00148 10.8574C3.13476 11.9906 4.64148 12.6147 6.24414 12.6147C7.34132 12.6147 8.41485 12.3158 9.3487 11.7501C9.57013 11.6159 9.64091 11.3277 9.50678 11.1063C9.37267 10.8848 9.08439 10.8141 8.863 10.9482C8.07562 11.4252 7.17004 11.6772 6.24414 11.6772C3.45266 11.6772 1.18164 9.40622 1.18164 6.61475C1.18164 3.82327 3.45266 1.55225 6.24414 1.55225C9.03562 1.55225 11.3066 3.82327 11.3066 6.61475C11.3066 7.61293 11.0098 8.58453 10.4482 9.42455C10.3043 9.63975 10.3621 9.93087 10.5774 10.0748C10.7926 10.2186 11.0837 10.1608 11.2276 9.94559C11.8926 8.95086 12.2441 7.79907 12.2441 6.61475C12.2441 5.01209 11.62 3.50536 10.4868 2.37209Z" fill="#FF1678"/>
<path d="M6.24288 2.396C5.98399 2.396 5.77413 2.60586 5.77413 2.86475V6.42059L4.05527 8.13945C3.8722 8.3225 3.8722 8.61929 4.05527 8.80236C4.14679 8.89388 4.26675 8.93965 4.38672 8.93965C4.5067 8.93965 4.62665 8.89388 4.71818 8.80236L6.57433 6.9462C6.66224 6.85831 6.71163 6.73906 6.71163 6.61475V2.86475C6.71163 2.60586 6.50177 2.396 6.24288 2.396Z" fill="#FF1678"/>
</g>
<defs>
<clipPath id="clip0">
<rect width="12" height="12" fill="white" transform="translate(0.244141 0.614746)"/>
</clipPath>
</defs>
</svg>
