<svg width="25" height="25" viewBox="0 0 25 25" fill="none" xmlns="http://www.w3.org/2000/svg">
<path fill-rule="evenodd" clip-rule="evenodd" d="M12.3818 23.0088C6.3067 23.0088 1.38184 18.0839 1.38184 12.0088C1.38184 5.93366 6.3067 1.00879 12.3818 1.00879C18.457 1.00879 23.3818 5.93366 23.3818 12.0088C23.3818 18.0839 18.457 23.0088 12.3818 23.0088ZM12.3818 21.0088C17.3524 21.0088 21.3818 16.9794 21.3818 12.0088C21.3818 7.03823 17.3524 3.00879 12.3818 3.00879C7.41127 3.00879 3.38184 7.03823 3.38184 12.0088C3.38184 16.9794 7.41127 21.0088 12.3818 21.0088ZM9.08894 16.7159L12.3818 13.423L15.6747 16.7159L17.0889 15.3017L13.796 12.0088L17.0889 8.7159L15.6747 7.30168L12.3818 10.5946L9.08894 7.30168L7.67473 8.7159L10.9676 12.0088L7.67473 15.3017L9.08894 16.7159Z" fill="#A1A1A1"/>
</svg>
