<svg width="21" height="21" viewBox="0 0 21 21" fill="none" xmlns="http://www.w3.org/2000/svg">
<g clip-path="url(#clip0)">
<path d="M19.9144 10.9534C19.9144 10.9514 19.9144 10.9474 19.9144 10.9454C19.8784 10.0774 19.6884 9.28741 19.3524 8.59941C19.0504 7.98341 18.6324 7.44741 18.1084 7.00941C17.1624 6.21541 15.9764 5.84141 15.0324 5.77541C14.9344 5.20141 14.7924 4.71341 14.6004 4.27141C14.3444 3.68741 14.0144 3.21541 13.5984 2.68941C13.5844 2.67341 13.5704 2.65541 13.5564 2.64141C12.7524 1.78541 11.7044 1.21141 10.5244 0.981413C10.3584 0.949413 10.2044 0.937413 10.0664 0.925413C9.99436 0.919413 9.92636 0.913413 9.86436 0.907413C9.79236 0.897413 9.73636 0.899413 9.70836 0.901413H9.30636C9.13036 0.901413 8.96436 0.919413 8.84036 0.933413C8.01036 1.03341 7.23636 1.31541 6.54036 1.76741C5.70236 2.31141 5.03836 3.04741 4.56236 3.95141C4.26836 4.51341 4.06436 5.12341 3.95836 5.76341C3.91236 6.03741 3.88636 6.32141 3.87836 6.60941C3.48236 6.65541 3.10036 6.76341 2.73636 6.93341C1.64436 7.44141 0.898359 8.30541 0.520359 9.49741C0.426359 9.79341 0.366359 10.0934 0.342359 10.3914C0.328359 10.4454 0.318359 10.5114 0.318359 10.5874V10.9434C0.318359 11.0734 0.338359 11.1854 0.354359 11.2674C0.358359 11.2934 0.362359 11.3154 0.364359 11.3314C0.456359 12.0434 0.712359 12.6934 1.12636 13.2674C1.73636 14.1114 2.54636 14.6474 3.53436 14.8614C3.66636 14.8894 3.78436 14.8994 3.88036 14.9054C3.92436 14.9094 3.96636 14.9114 3.99636 14.9154C4.08436 14.9274 4.15436 14.9234 4.19036 14.9214C4.59436 14.9074 4.91836 14.5754 4.91836 14.1674C4.91836 13.7514 4.58036 13.4134 4.16436 13.4134C4.15636 13.4134 4.14836 13.4134 4.14236 13.4134C4.08636 13.4074 4.03636 13.4034 3.98836 13.3994C3.93436 13.3954 3.88036 13.3914 3.85236 13.3854C3.23036 13.2494 2.73636 12.9214 2.34636 12.3814C2.08236 12.0174 1.91836 11.5994 1.85836 11.1394C1.85236 11.0854 1.84236 11.0374 1.83636 10.9974C1.83236 10.9754 1.82836 10.9474 1.82636 10.9354V10.6814C1.83436 10.6474 1.84036 10.6074 1.84236 10.5614C1.85436 10.3614 1.89236 10.1574 1.95836 9.95341C2.20636 9.16741 2.67036 8.62541 3.37436 8.29741C3.73236 8.12941 4.10636 8.06541 4.51836 8.09941C4.57436 8.10341 4.62036 8.10341 4.64636 8.10341C4.65036 8.10341 4.65436 8.10341 4.65836 8.10341C4.86836 8.10341 5.06836 8.01541 5.21036 7.86341C5.35236 7.70941 5.42436 7.50341 5.41036 7.29541C5.40836 7.25741 5.40436 7.21941 5.40036 7.18141C5.39436 7.11341 5.38836 7.05141 5.38636 6.99341C5.37236 6.64941 5.39036 6.32741 5.44236 6.01141C5.52236 5.52941 5.67436 5.07141 5.89436 4.65341C6.25236 3.97141 6.73236 3.44141 7.35836 3.03341C7.86636 2.70341 8.41036 2.50541 9.01836 2.43141C9.10036 2.42141 9.20636 2.40941 9.30236 2.40941H9.70836C9.71036 2.40941 9.71236 2.40941 9.71436 2.40941C9.79236 2.41741 9.86636 2.42341 9.94036 2.42941C10.0484 2.43741 10.1504 2.44541 10.2324 2.46141C11.0884 2.62941 11.8484 3.03941 12.4324 3.65141C13.0644 4.45541 13.4624 5.06741 13.6224 6.61741C13.6444 6.81941 13.7464 7.00541 13.9064 7.13141C14.0664 7.25741 14.2704 7.31341 14.4724 7.28541C15.0104 7.21341 16.2104 7.38741 17.1364 8.16341C17.9264 8.82541 18.3544 9.78141 18.4064 11.0054C18.4424 12.1694 18.1384 13.1014 17.5044 13.7754C17.1204 14.1834 16.6104 14.5054 15.9844 14.7314C15.3224 14.9714 14.5324 15.1074 13.6344 15.1354H13.2364V13.7934H13.4664C14.0524 13.7934 14.5864 13.4534 14.8344 12.9214C15.0804 12.3894 14.9964 11.7614 14.6184 11.3134L11.3144 7.40941C11.0284 7.07141 10.6064 6.87541 10.1644 6.87541C9.72236 6.87541 9.30036 7.07141 9.01436 7.40941L5.71236 11.3134C5.33436 11.7614 5.24836 12.3894 5.49636 12.9214C5.74236 13.4534 6.27636 13.7934 6.86436 13.7934H7.09436V20.0994H8.60236V12.2874H6.86436L10.1664 8.38341L13.4684 12.2874H11.7304C11.7304 12.2874 11.7364 15.8774 11.7364 15.9274C11.7364 16.3434 12.0544 16.6434 12.4704 16.6434H13.6484C13.6564 16.6434 13.6644 16.6434 13.6704 16.6434C14.7344 16.6114 15.6864 16.4454 16.5024 16.1494C17.3524 15.8414 18.0584 15.3894 18.6064 14.8094C19.0644 14.3214 19.4084 13.7434 19.6284 13.0914C19.8424 12.4494 19.9384 11.7294 19.9144 10.9534Z" fill="#A1A1A1"/>
</g>
<defs>
<clipPath id="clip0">
<rect width="20" height="20" fill="white" transform="translate(0.118164 0.5)"/>
</clipPath>
</defs>
</svg>
