<svg width="25" height="25" viewBox="0 0 25 25" fill="none" xmlns="http://www.w3.org/2000/svg">
<g clip-path="url(#clip0)">
<path d="M19.057 9.50488H5.05668C4.22964 9.50488 3.55664 10.1779 3.55664 11.0049V12.0049C3.55664 15.573 5.52769 18.8091 8.69975 20.4501C8.94477 20.5761 9.24674 20.4811 9.37378 20.2351C9.49978 19.9901 9.40476 19.6881 9.15876 19.5611C6.32069 18.0931 4.55665 15.198 4.55665 12.0049V11.0049C4.55665 10.7289 4.78067 10.5048 5.05668 10.5048H19.057C19.333 10.5048 19.557 10.7289 19.557 11.0049V12.0049C19.557 15.1979 17.793 18.093 14.954 19.5601C14.7079 19.687 14.6129 19.9891 14.7389 20.2341C14.828 20.4061 15.0029 20.5051 15.1839 20.5051C15.2619 20.5051 15.3399 20.4871 15.4129 20.4491C18.586 18.809 20.5571 15.5739 20.5571 12.0048V11.0048C20.5571 10.1779 19.884 9.50488 19.057 9.50488Z" fill="black"/>
<path d="M23.5196 19.8139C23.4416 19.6269 23.2596 19.5049 23.0576 19.5049H1.0571C0.855112 19.5049 0.673092 19.6269 0.59509 19.8139C0.517088 20.0009 0.560074 20.2159 0.703093 20.3589L1.82413 21.4809C2.48617 22.1419 3.36415 22.506 4.29919 22.506H19.8135C20.7486 22.506 21.6276 22.142 22.2906 21.4809L23.4117 20.3589C23.5546 20.2159 23.5976 20.0009 23.5196 19.8139ZM21.5826 20.7739C21.1106 21.2459 20.4816 21.5059 19.8146 21.5059H4.29919C3.63219 21.5059 3.00316 21.2459 2.53117 20.7739L2.26318 20.5059H21.8506L21.5826 20.7739Z" fill="black"/>
<path d="M23.5888 11.8662C22.2418 11.0002 20.0897 11.9402 19.8487 12.0492C19.5977 12.1642 19.4857 12.4602 19.6007 12.7122C19.7157 12.9642 20.0107 13.0752 20.2637 12.9602C20.7457 12.7412 22.2917 12.2222 23.0478 12.7092C23.3888 12.9282 23.5558 13.3533 23.5558 14.0053C23.5558 16.0073 19.5177 17.2173 17.9586 17.5153L17.6046 17.5853C17.3336 17.6383 17.1576 17.9013 17.2106 18.1723C17.2576 18.4103 17.4666 18.5753 17.7006 18.5753C17.7326 18.5753 17.7646 18.5723 17.7976 18.5654L18.1486 18.4964C18.4106 18.4463 24.5558 17.2413 24.5558 14.0053C24.5558 12.9992 24.2298 12.2802 23.5888 11.8662Z" fill="black"/>
</g>
<defs>
<clipPath id="clip0">
<rect width="24" height="24" fill="white" transform="translate(0.556641 0.00585938)"/>
</clipPath>
</defs>
</svg>
