<svg width="20" height="20" viewBox="0 0 20 20" fill="none" xmlns="http://www.w3.org/2000/svg">
<path fill-rule="evenodd" clip-rule="evenodd" d="M8.3335 12.5V14.1667H5.00016C2.69898 14.1667 0.833496 12.3012 0.833496 9.99999C0.833496 7.69881 2.69898 5.83333 5.00016 5.83333H8.3335V7.49999H5.00016C3.61945 7.49999 2.50016 8.61928 2.50016 9.99999C2.50016 11.3807 3.61945 12.5 5.00016 12.5H8.3335ZM11.6668 7.49999V5.83333H15.0002C17.3013 5.83333 19.1668 7.69881 19.1668 9.99999C19.1668 12.3012 17.3013 14.1667 15.0002 14.1667H11.6668V12.5H15.0002C16.3809 12.5 17.5002 11.3807 17.5002 9.99999C17.5002 8.61928 16.3809 7.49999 15.0002 7.49999H11.6668ZM5.8335 9.16666V10.8333H14.1668V9.16666H5.8335Z" fill="#454545"/>
</svg>
