<svg width="20" height="21" viewBox="0 0 20 21" fill="none" xmlns="http://www.w3.org/2000/svg">
<path fill-rule="evenodd" clip-rule="evenodd" d="M7.08203 12.6393V10.9727H12.9154V12.6393H7.08203Z" fill="#737373"/>
<path fill-rule="evenodd" clip-rule="evenodd" d="M6.25 9.30729V7.64062H13.75V9.30729H6.25Z" fill="#737373"/>
<path fill-rule="evenodd" clip-rule="evenodd" d="M9.9987 18.4753C8.56157 18.4753 7.17618 18.1102 5.94913 17.4267L2.41979 17.7208L2.7139 14.1915C2.03038 12.9644 1.66536 11.5791 1.66536 10.1419C1.66536 5.53955 5.39632 1.80859 9.9987 1.80859C14.6011 1.80859 18.332 5.53955 18.332 10.1419C18.332 14.7443 14.6011 18.4753 9.9987 18.4753ZM6.56973 15.8602L6.33922 15.7216L4.24446 15.8962L4.41902 13.8014L4.28046 13.5709C3.66303 12.5438 3.33222 11.368 3.33222 10.1417C3.33222 6.45984 6.31699 3.47507 9.99889 3.47507C13.6808 3.47507 16.6656 6.45984 16.6656 10.1417C16.6656 13.8236 13.6808 16.8084 9.99889 16.8084C8.77261 16.8084 7.59686 16.4776 6.56973 15.8602Z" fill="#737373"/>
</svg>
