<svg width="21" height="20" viewBox="0 0 21 20" fill="none" xmlns="http://www.w3.org/2000/svg">
<path fill-rule="evenodd" clip-rule="evenodd" d="M17.5962 15.8333V7.5C18.5167 7.5 19.2629 6.75381 19.2629 5.83333V4.16667C19.2629 3.24619 18.5167 2.5 17.5962 2.5H4.26286C3.34238 2.5 2.59619 3.24619 2.59619 4.16667V5.83333C2.59619 6.75381 3.34238 7.5 4.26286 7.5V15.8333C4.26286 16.7538 5.00905 17.5 5.92952 17.5H15.9295C16.85 17.5 17.5962 16.7538 17.5962 15.8333ZM5.92952 15.8333V7.5H15.9295V15.8333H5.92952ZM8.42952 10V8.33333H13.4295V10H8.42952ZM4.26286 5.83333V4.16667H17.5962V5.83333H4.26286Z" fill="#454545"/>
</svg>
