<svg width="21" height="21" viewBox="0 0 21 21" fill="none" xmlns="http://www.w3.org/2000/svg">
<path fill-rule="evenodd" clip-rule="evenodd" d="M10.0143 18.5412C8.57719 18.5412 7.19181 18.1762 5.96475 17.4926L2.43541 17.7868L2.72953 14.2574C2.046 13.0304 1.68099 11.645 1.68099 10.2078C1.68099 5.60547 5.41195 1.87451 10.0143 1.87451C14.6167 1.87451 18.3477 5.60547 18.3477 10.2078C18.3477 14.8102 14.6167 18.5412 10.0143 18.5412ZM6.58545 15.9268L6.35493 15.7883L4.26018 15.9628L4.43474 13.8681L4.29618 13.6376C3.67874 12.6104 3.34794 11.4347 3.34794 10.2084C3.34794 6.5265 6.3327 3.54174 10.0146 3.54174C13.6965 3.54174 16.6813 6.5265 16.6813 10.2084C16.6813 13.8903 13.6965 16.8751 10.0146 16.8751C8.78832 16.8751 7.61258 16.5443 6.58545 15.9268Z" fill="#737373"/>
</svg>
