<svg width="21" height="21" viewBox="0 0 21 21" fill="none" xmlns="http://www.w3.org/2000/svg">
<path fill-rule="evenodd" clip-rule="evenodd" d="M10.1838 19.1149C8.74662 19.1149 7.36124 18.7499 6.13419 18.0664L2.60485 18.3605L2.89896 14.8311C2.21544 13.6041 1.85042 12.2187 1.85042 10.7816C1.85042 6.1792 5.58138 2.44824 10.1838 2.44824C14.7861 2.44824 18.5171 6.1792 18.5171 10.7816C18.5171 15.3839 14.7861 19.1149 10.1838 19.1149ZM6.75488 16.5006L6.52437 16.362L4.42961 16.5366L4.60417 14.4418L4.46561 14.2113C3.84818 13.1842 3.51737 12.0084 3.51737 10.7821C3.51737 7.10023 6.50214 4.11547 10.184 4.11547C13.8659 4.11547 16.8507 7.10023 16.8507 10.7821C16.8507 14.464 13.8659 17.4488 10.184 17.4488C8.95776 17.4488 7.78201 17.118 6.75488 16.5006Z" fill="white"/>
</svg>
