<svg width="24" height="24" viewBox="0 0 24 24" fill="none" xmlns="http://www.w3.org/2000/svg">
<path fill-rule="evenodd" clip-rule="evenodd" d="M8.49988 14.9995V12.9995H15.4999V14.9995H8.49988Z" fill="white"/>
<path fill-rule="evenodd" clip-rule="evenodd" d="M7.5 11V9H16.5V11H7.5Z" fill="white"/>
<path fill-rule="evenodd" clip-rule="evenodd" d="M11.9999 22.0005C10.2753 22.0005 8.61286 21.5625 7.14039 20.7422L2.90519 21.0952L3.25812 16.86C2.4379 15.3875 1.99988 13.725 1.99988 12.0005C1.99988 6.47764 6.47703 2.00049 11.9999 2.00049C17.5227 2.00049 21.9999 6.47764 21.9999 12.0005C21.9999 17.5233 17.5227 22.0005 11.9999 22.0005ZM7.88476 18.8631L7.60814 18.6968L5.09443 18.9063L5.30391 16.3926L5.13763 16.116C4.39671 14.8834 3.99974 13.4725 3.99974 12.001C3.99974 7.58273 7.58147 4.00101 11.9997 4.00101C16.418 4.00101 19.9997 7.58273 19.9997 12.001C19.9997 16.4193 16.418 20.001 11.9997 20.001C10.5282 20.001 9.11732 19.604 7.88476 18.8631Z" fill="white"/>
</svg>
