<svg width="25" height="25" viewBox="0 0 25 25" fill="none" xmlns="http://www.w3.org/2000/svg">
<path fill-rule="evenodd" clip-rule="evenodd" d="M12.0469 23.1016C5.97174 23.1016 1.04688 18.1767 1.04688 12.1016C1.04688 6.02643 5.97174 1.10156 12.0469 1.10156C18.122 1.10156 23.0469 6.02643 23.0469 12.1016C23.0469 18.1767 18.122 23.1016 12.0469 23.1016ZM12.0469 21.1016C17.0174 21.1016 21.0469 17.0721 21.0469 12.1016C21.0469 7.131 17.0174 3.10156 12.0469 3.10156C7.07631 3.10156 3.04688 7.131 3.04688 12.1016C3.04688 17.0721 7.07631 21.1016 12.0469 21.1016ZM16.9574 15.55L15.3215 14.3994C14.5762 15.4592 13.3664 16.1016 12.0469 16.1016C10.7274 16.1016 9.51758 15.4592 8.77222 14.3994L7.13631 15.55C8.25233 17.1367 10.0693 18.1016 12.0469 18.1016C14.0244 18.1016 15.8414 17.1367 16.9574 15.55ZM14.0469 11.1016V9.10156H16.0469V11.1016H14.0469ZM8.04688 9.10156V11.1016H10.0469V9.10156H8.04688Z" fill="black"/>
</svg>
