<svg width="19" height="19" viewBox="0 0 19 19" fill="none" xmlns="http://www.w3.org/2000/svg">
<path fill-rule="evenodd" clip-rule="evenodd" d="M7.51562 2.99609H10.5156C11.3441 2.99609 12.0156 3.66767 12.0156 4.49609V5.24609H15.0156C15.8441 5.24609 16.5156 5.91767 16.5156 6.74609V14.9961C16.5156 15.8245 15.8441 16.4961 15.0156 16.4961H3.01562C2.1872 16.4961 1.51562 15.8245 1.51562 14.9961V6.74609C1.51562 5.91767 2.1872 5.24609 3.01562 5.24609H6.01562V4.49609C6.01562 3.66767 6.6872 2.99609 7.51562 2.99609ZM3.01562 6.74609H6.01562H12.0156H15.0156V10.4961H9.76562H8.26562H3.01562V6.74609ZM3.01562 14.9961V11.9961H8.26562V12.7461H9.76562V11.9961H15.0156V14.9961H3.01562ZM10.5156 4.49609V5.24609H7.51562V4.49609H10.5156Z" fill="#A1A1A1"/>
</svg>
