<svg width="17" height="17" viewBox="0 0 17 17" fill="none" xmlns="http://www.w3.org/2000/svg">
<path fill-rule="evenodd" clip-rule="evenodd" d="M8.45736 0.893372C12.5074 0.893372 15.7907 4.17662 15.7907 8.22671C15.7907 12.2768 12.5074 15.56 8.45736 15.56C4.40727 15.56 1.12402 12.2768 1.12402 8.22671C1.12402 4.17662 4.40727 0.893372 8.45736 0.893372ZM14.4048 9.02411C13.698 9.39173 12.7672 9.69913 11.7102 9.91107C11.56 11.4458 11.2046 12.8005 10.6877 13.7983C12.6605 13.0079 14.1158 11.2002 14.4048 9.02411ZM10.4482 8.76281C10.4542 8.58629 10.4574 8.40744 10.4574 8.22657C10.4574 4.88257 9.39495 2.22657 8.45735 2.22657C7.51976 2.22657 6.45735 4.88257 6.45735 8.22657C6.45735 8.41785 6.46083 8.60687 6.46756 8.79327C7.09298 8.85866 7.76125 8.89313 8.45742 8.89313C9.14277 8.89313 9.81521 8.8448 10.4482 8.76281ZM11.7882 8.52923C11.7898 8.42887 11.7907 8.32801 11.7907 8.22671C11.7907 6.00819 11.3869 4.00475 10.6876 2.65474C12.6717 3.44966 14.1325 5.27371 14.4097 7.46664C14.0959 7.81875 13.1064 8.237 11.7882 8.52923ZM6.57661 10.1447C7.1747 10.1986 7.80465 10.2265 8.45742 10.2265C9.09962 10.2265 9.73235 10.1901 10.3409 10.1226C10.0402 12.521 9.2087 14.2266 8.45735 14.2266C7.70832 14.2266 6.87964 12.5315 6.57661 10.1447ZM5.12772 8.59326C4.74511 8.51693 4.38852 8.42705 4.06293 8.32481C3.2359 8.0651 2.69546 7.74678 2.50114 7.49801C2.76828 5.29111 4.23353 3.45345 6.22714 2.65474C5.52776 4.00474 5.12402 6.00819 5.12402 8.22671C5.12402 8.34958 5.12526 8.47179 5.12772 8.59326ZM5.21009 9.967C5.36342 11.4787 5.7164 12.8126 6.22697 13.7983C4.28845 13.0216 2.84953 11.2626 2.52597 9.13694C3.22162 9.49928 4.13955 9.78092 5.21009 9.967Z" fill="#454545"/>
</svg>
