<svg width="21" height="21" viewBox="0 0 21 21" fill="none" xmlns="http://www.w3.org/2000/svg">
<path d="M8.94435 1.81494H2.53018C2.08852 1.81494 1.72852 2.17327 1.72852 2.61661V11.5308C1.72852 11.9741 2.08852 12.3316 2.53018 12.3316H8.94435C9.38768 12.3316 9.74518 11.9741 9.74518 11.5308V2.61661C9.74518 2.17327 9.38768 1.81494 8.94435 1.81494Z" fill="white"/>
<path d="M17.5947 1.81494H11.1806C10.7389 1.81494 10.3789 2.17411 10.3789 2.61661V6.53078C10.3789 6.97411 10.7389 7.33161 11.1806 7.33161H17.5947C18.0372 7.33161 18.3956 6.97328 18.3956 6.53078V2.61661C18.3956 2.17327 18.0372 1.81494 17.5947 1.81494Z" fill="white"/>
<path d="M8.94435 12.98H2.53018C2.08852 12.98 1.72852 13.34 1.72852 13.7825V17.6966C1.72852 18.1391 2.08852 18.4975 2.53018 18.4975H8.94435C9.38768 18.4975 9.74518 18.1391 9.74518 17.6966V13.7825C9.74518 13.34 9.38768 12.98 8.94435 12.98Z" fill="white"/>
<path d="M17.5947 7.97998H11.1806C10.7389 7.97998 10.3789 8.33915 10.3789 8.78165V17.6966C10.3789 18.1391 10.7389 18.4975 11.1806 18.4975H17.5947C18.0372 18.4975 18.3956 18.1391 18.3956 17.6966V8.78248C18.3956 8.33915 18.0372 7.97998 17.5947 7.97998Z" fill="white"/>
</svg>
