<svg width="21" height="21" viewBox="0 0 21 21" fill="none" xmlns="http://www.w3.org/2000/svg">
<path fill-rule="evenodd" clip-rule="evenodd" d="M4.53846 13.4134L6.52344 13.4134L6.52344 15.0801L1.84174 15.0801L4.75841 9.24672L1.84174 3.41339L17.3568 3.41339C18.2772 3.41339 19.0234 4.15958 19.0234 5.08006L19.0234 13.4134C19.0234 14.3339 18.2772 15.0801 17.3568 15.0801L16.5234 15.0801L16.5234 13.4134L17.3568 13.4134L17.3568 5.08006L4.53846 5.08006L6.6218 9.24672L4.53846 13.4134Z" fill="#FF1678"/>
<path d="M14.0232 13.9178C14.0232 14.4295 13.8697 14.8937 13.5626 15.3103C13.2629 15.7197 12.7001 15.9828 11.874 16.0998L11.9618 17.5801H10.8872L10.964 16.1546C10.54 16.1473 10.0904 16.0852 9.61527 15.9682C9.14743 15.8513 8.77828 15.727 8.50781 15.5954L8.67229 14.1042C9.6372 14.572 10.4852 14.8059 11.2162 14.8059C11.6036 14.8059 11.9069 14.7328 12.1262 14.5866C12.3455 14.4331 12.4552 14.2102 12.4552 13.9178C12.4552 13.6985 12.3931 13.5194 12.2688 13.3805C12.1518 13.2343 11.98 13.1137 11.7534 13.0186C11.5268 12.9163 11.165 12.7774 10.6679 12.602C10.2001 12.4412 9.81264 12.273 9.50562 12.0976C9.1986 11.9148 8.95372 11.6846 8.77097 11.4068C8.59553 11.1217 8.50781 10.7745 8.50781 10.3651C8.50781 9.7511 8.7198 9.24671 9.14378 8.85197C9.56776 8.45723 10.1781 8.23428 10.9749 8.18311L10.8872 6.7467H11.9618L11.874 8.20504C12.4808 8.27083 13.0985 8.42434 13.7271 8.66557L13.5846 10.102C13.1314 9.90461 12.7147 9.75841 12.3346 9.66338C11.9618 9.56104 11.589 9.50987 11.2162 9.50987C10.7995 9.50987 10.4815 9.57931 10.2622 9.7182C10.0429 9.85709 9.93325 10.0581 9.93325 10.3213C9.93325 10.526 9.99173 10.6941 10.1087 10.8257C10.2257 10.9572 10.3828 11.0669 10.5802 11.1546C10.7849 11.2423 11.0846 11.3483 11.4793 11.4726C12.3638 11.7504 13.0071 12.072 13.4091 12.4375C13.8185 12.7957 14.0232 13.2891 14.0232 13.9178Z" fill="#FF1678"/>
</svg>
