<svg width="54" height="32" viewBox="0 0 54 32" fill="none" xmlns="http://www.w3.org/2000/svg">
<rect x="24" y="15" width="30" height="17" rx="8.5" fill="#E50000"/>
<path d="M14.6271 29.4998H3.7534C3.34942 29.4998 2.98126 29.3126 2.74325 28.9859C2.50514 28.6592 2.43962 28.2511 2.56328 27.8661C3.79866 24.025 7.56612 21.3423 11.725 21.3423C13.6601 21.3423 15.5184 21.9251 17.0991 23.0276C17.6653 23.4226 18.4442 23.2837 18.8393 22.7175C19.2341 22.1513 19.0953 21.3721 18.5291 20.9771C17.7467 20.4313 16.9108 19.9861 16.0363 19.6462C17.1997 18.5882 17.9715 17.1068 18.1057 15.4479C19.8697 13.7293 22.1821 12.7876 24.6609 12.7876C26.596 12.7876 28.4544 13.3704 30.035 14.4729C30.6012 14.8678 31.3802 14.729 31.7752 14.1628C32.17 13.5966 32.0312 12.8174 31.4651 12.4225C30.6826 11.8767 29.8467 11.4314 28.9722 11.0914C30.2556 9.92444 31.0624 8.24209 31.0624 6.37477C31.0624 2.85983 28.203 0 24.6883 0C21.1735 0 18.3141 2.85983 18.3141 6.37498C18.3141 8.2347 19.1145 9.91103 20.3889 11.0775C20.2145 11.1446 20.0413 11.216 19.8695 11.2917C19.0874 11.6359 18.3518 12.0584 17.6681 12.5554C16.7247 10.2127 14.4284 8.55477 11.7523 8.55477C8.23755 8.55477 5.37815 11.4146 5.37815 14.9298C5.37815 16.784 6.17387 18.456 7.44167 19.622C4.05159 20.8926 1.30282 23.6212 0.183773 27.1009C-0.187373 28.2549 0.00919934 29.4788 0.723209 30.4585C1.43706 31.4381 2.54144 32 3.75346 32H14.6271C15.3175 32 15.877 31.4403 15.877 30.75C15.877 30.0597 15.3173 29.4998 14.6271 29.4998ZM24.6884 2.49996C26.8247 2.49996 28.5629 4.23825 28.5629 6.37493C28.5629 8.51161 26.8247 10.2499 24.6884 10.2499C22.5519 10.2499 20.8138 8.51155 20.8138 6.37493C20.8138 4.23825 22.5519 2.49996 24.6884 2.49996ZM11.7524 11.0546C13.8888 11.0546 15.6269 12.793 15.6269 14.9296C15.6269 17.0662 13.8888 18.8046 11.7524 18.8046C9.61597 18.8046 7.87787 17.0662 7.87787 14.9296C7.87787 12.793 9.61597 11.0546 11.7524 11.0546Z" fill="black"/>
<path d="M21.3774 28.4373V28.0182C21.3774 27.8393 21.2335 27.7046 21.0427 27.7046H20.3473C19.012 27.7046 17.9259 26.605 17.9259 25.2535V25.2094C17.9259 24.1578 18.6044 23.2619 19.5478 22.932V22.6394C19.5478 22.0619 20.0159 21.5938 20.5933 21.5938C21.1708 21.5938 21.6388 22.0619 21.6388 22.6394V22.7962C22.2163 22.7962 22.6844 23.2643 22.6844 23.8418C22.6844 24.4194 22.2163 24.8875 21.6388 24.8875H20.3473C20.1588 24.8875 20.0169 25.0257 20.0169 25.2094V25.2535C20.0169 25.4452 20.1712 25.6133 20.3473 25.6133H21.0428C22.3803 25.6133 23.4685 26.6922 23.4685 28.0182V28.4373C23.4685 29.562 22.6891 30.509 21.6388 30.7737V30.9519C21.6388 31.5295 21.1708 31.9976 20.5933 31.9976C20.0159 31.9976 19.5478 31.5295 19.5478 30.9519V30.8474H18.9205C18.3433 30.8474 17.875 30.3793 17.875 29.8019C17.875 29.2244 18.3432 28.7563 18.9205 28.7563H21.0428C21.2335 28.7563 21.3774 28.6193 21.3774 28.4373Z" fill="black"/>
<path d="M31.806 27.132C30.7793 27.132 29.9947 26.8937 29.452 26.417C28.9093 25.9403 28.638 25.2437 28.638 24.327V21.973C28.638 21.0563 28.9057 20.3597 29.441 19.883C29.9763 19.4063 30.75 19.168 31.762 19.168C32.4587 19.168 33.0343 19.2817 33.489 19.509C33.9437 19.7363 34.3103 20.081 34.589 20.543L33.665 21.192C33.4303 20.84 33.17 20.587 32.884 20.433C32.6053 20.2717 32.235 20.191 31.773 20.191C30.5483 20.191 29.936 20.785 29.936 21.973V24.327C29.936 25.515 30.5557 26.109 31.795 26.109C32.2863 26.109 32.6823 26.0247 32.983 25.856C33.2837 25.6873 33.544 25.4233 33.764 25.064L34.688 25.746C34.3433 26.23 33.9547 26.582 33.522 26.802C33.0893 27.022 32.5173 27.132 31.806 27.132ZM37.6224 20.323H35.2354V19.3H41.2964V20.323H38.9204V27H37.6224V20.323ZM45.1869 27.132C44.7836 27.132 44.4646 27.0147 44.2299 26.78C44.0026 26.5453 43.8009 26.131 43.6249 25.537L41.7989 19.3H43.0969L44.8569 25.515C44.9009 25.6617 44.9449 25.768 44.9889 25.834C45.0402 25.9 45.1062 25.933 45.1869 25.933C45.2602 25.933 45.3226 25.9 45.3739 25.834C45.4252 25.768 45.4692 25.6617 45.5059 25.515L47.2659 19.3H48.5639L46.7379 25.537C46.5619 26.131 46.3566 26.5453 46.1219 26.78C45.8946 27.0147 45.5829 27.132 45.1869 27.132Z" fill="white"/>
</svg>
