<svg width="47" height="16" viewBox="0 0 47 16" fill="none" xmlns="http://www.w3.org/2000/svg">
<rect y="0.333984" width="46.499" height="15.666" rx="7.83301" fill="#FF2462"/>
<g filter="url(#filter0_d)">
<path d="M11.4816 6.91992H4.98605C4.63105 6.91992 4.34326 7.20771 4.34326 7.56271C4.34326 7.91771 4.63105 8.2055 4.98605 8.2055H11.4816C11.8366 8.2055 12.1244 7.91771 12.1244 7.56271C12.1244 7.20771 11.8366 6.91992 11.4816 6.91992Z" fill="white" stroke="white"/>
<path d="M8.7601 10.9646V4.39323C8.7601 4.03906 8.47299 3.75195 8.11882 3.75195C7.76465 3.75195 7.47754 4.03906 7.47754 4.39323V10.9646C7.47754 11.3187 7.76465 11.6058 8.11882 11.6058C8.47299 11.6058 8.7601 11.3187 8.7601 10.9646Z" fill="white" stroke="white"/>
</g>
<path d="M15.4997 8.16706C15.4997 3.84795 12.023 0.333984 7.74977 0.333984C3.47652 0.333984 0 3.84795 0 8.16706C0 12.4862 3.47652 16 7.74977 16C12.023 16 15.4997 12.4862 15.4997 8.16706ZM1.99915 8.16706C1.99915 4.96198 4.57885 2.35459 7.74977 2.35459C10.9208 2.35459 13.5005 4.96198 13.5005 8.16706C13.5005 11.372 10.9208 13.9794 7.74977 13.9794C4.57885 13.9794 1.99915 11.372 1.99915 8.16706Z" fill="white"/>
<g filter="url(#filter1_d)">
<path d="M23.4849 9.1167L25.6172 9.76123C25.474 10.3592 25.2484 10.8587 24.9404 11.2598C24.6325 11.6608 24.2493 11.9634 23.791 12.1675C23.3363 12.3716 22.7562 12.4736 22.0508 12.4736C21.195 12.4736 20.495 12.3501 19.9507 12.103C19.41 11.8524 18.9427 11.4137 18.5488 10.7871C18.1549 10.1605 17.958 9.3584 17.958 8.38086C17.958 7.07747 18.3035 6.07666 18.9946 5.37842C19.6893 4.6766 20.6704 4.32568 21.938 4.32568C22.9299 4.32568 23.7087 4.5262 24.2744 4.92725C24.8438 5.32829 25.2663 5.94417 25.542 6.7749L23.3936 7.25293C23.3184 7.01302 23.2396 6.83757 23.1572 6.72656C23.0212 6.54036 22.8547 6.39714 22.6577 6.29688C22.4608 6.19661 22.2406 6.14648 21.9971 6.14648C21.4456 6.14648 21.0231 6.36849 20.7295 6.8125C20.5075 7.14193 20.3965 7.65934 20.3965 8.36475C20.3965 9.23844 20.529 9.83822 20.7939 10.1641C21.0589 10.4863 21.4313 10.6475 21.9111 10.6475C22.3766 10.6475 22.7275 10.5168 22.9639 10.2554C23.2038 9.99398 23.3774 9.61442 23.4849 9.1167ZM26.251 4.45996H33.647V6.4043H31.1655V12.334H28.7324V6.4043H26.251V4.45996ZM33.9746 4.45996H36.5205L38.293 10.1265L40.0386 4.45996H42.5093L39.5874 12.334H36.9502L33.9746 4.45996Z" fill="white"/>
</g>
<defs>
<filter id="filter0_d" x="3.84326" y="3.25195" width="9.78111" height="9.85388" filterUnits="userSpaceOnUse" color-interpolation-filters="sRGB">
<feFlood flood-opacity="0" result="BackgroundImageFix"/>
<feColorMatrix in="SourceAlpha" type="matrix" values="0 0 0 0 0 0 0 0 0 0 0 0 0 0 0 0 0 0 127 0"/>
<feOffset dx="1" dy="1"/>
<feColorMatrix type="matrix" values="0 0 0 0 0 0 0 0 0 0 0 0 0 0 0 0 0 0 0.25 0"/>
<feBlend mode="normal" in2="BackgroundImageFix" result="effect1_dropShadow"/>
<feBlend mode="normal" in="SourceGraphic" in2="effect1_dropShadow" result="shape"/>
</filter>
<filter id="filter1_d" x="17.958" y="4.32617" width="24.5513" height="9.14795" filterUnits="userSpaceOnUse" color-interpolation-filters="sRGB">
<feFlood flood-opacity="0" result="BackgroundImageFix"/>
<feColorMatrix in="SourceAlpha" type="matrix" values="0 0 0 0 0 0 0 0 0 0 0 0 0 0 0 0 0 0 127 0"/>
<feOffset dy="1"/>
<feColorMatrix type="matrix" values="0 0 0 0 0 0 0 0 0 0 0 0 0 0 0 0 0 0 0.25 0"/>
<feBlend mode="normal" in2="BackgroundImageFix" result="effect1_dropShadow"/>
<feBlend mode="normal" in="SourceGraphic" in2="effect1_dropShadow" result="shape"/>
</filter>
</defs>
</svg>
