<svg width="32" height="32" viewBox="0 0 32 32" fill="none" xmlns="http://www.w3.org/2000/svg">
<rect width="32" height="32" rx="16" fill="#FF2462"/>
<g filter="url(#filter0_d)">
<path d="M27.2609 16.1305C27.2609 9.99323 22.2676 5 16.1303 5C9.99303 5 5 9.99323 5 16.1305C5 22.2678 9.99303 27.2609 16.1303 27.2609C22.2676 27.2609 27.2609 22.2678 27.2609 16.1305ZM7.87121 16.1305C7.87121 11.5762 11.5762 7.87121 16.1303 7.87121C20.6846 7.87121 24.3897 11.5762 24.3897 16.1305C24.3897 20.6847 20.6846 24.3897 16.1303 24.3897C11.5762 24.3897 7.87121 20.6847 7.87121 16.1305Z" fill="white"/>
<path d="M17.2969 21.4604V21.1386C19.0154 20.8341 19.9899 19.7618 19.9899 18.1468C19.9899 15.8858 18.0758 15.2568 16.6779 14.7976C15.7681 14.4985 15.1718 14.276 15.1718 13.9229C15.1718 13.4137 15.8895 13.3588 16.1978 13.3588C16.8846 13.3588 17.4309 13.6505 17.7196 13.9296C18.022 14.2117 18.3143 14.3488 18.6133 14.3488C19.2702 14.3488 19.8046 13.8201 19.8046 13.1702C19.8046 12.9275 19.731 12.6894 19.5849 12.4718C19.1291 11.828 18.3087 11.3591 17.2969 11.1539V10.7944C17.2969 10.1884 16.804 9.69531 16.198 9.69531C15.5993 9.69531 15.1121 10.1884 15.1121 10.7944V11.1395C13.871 11.4033 12.6833 12.2426 12.6833 13.9229C12.6833 16.0577 14.5247 16.666 15.8696 17.1101C16.9794 17.4765 17.5021 17.6983 17.5021 18.1468C17.5021 18.4041 17.5021 18.8828 16.198 18.8828C15.5409 18.8828 14.9605 18.6085 14.3715 18.0195C14.2213 17.8691 13.9412 17.5892 13.4524 17.5892C12.8027 17.5892 12.2744 18.1236 12.2744 18.7806C12.2744 18.998 12.3376 19.2191 12.4515 19.4019C12.9719 20.2437 13.9679 20.8819 15.1121 21.1254V21.4604C15.1121 22.0664 15.5993 22.5595 16.198 22.5595C16.804 22.5595 17.2969 22.0664 17.2969 21.4604Z" fill="white"/>
</g>
<defs>
<filter id="filter0_d" x="5" y="5" width="23.2609" height="23.2609" filterUnits="userSpaceOnUse" color-interpolation-filters="sRGB">
<feFlood flood-opacity="0" result="BackgroundImageFix"/>
<feColorMatrix in="SourceAlpha" type="matrix" values="0 0 0 0 0 0 0 0 0 0 0 0 0 0 0 0 0 0 127 0"/>
<feOffset dx="1" dy="1"/>
<feColorMatrix type="matrix" values="0 0 0 0 0 0 0 0 0 0 0 0 0 0 0 0 0 0 0.25 0"/>
<feBlend mode="normal" in2="BackgroundImageFix" result="effect1_dropShadow"/>
<feBlend mode="normal" in="SourceGraphic" in2="effect1_dropShadow" result="shape"/>
</filter>
</defs>
</svg>
