<svg width="11" height="15" viewBox="0 0 11 15" fill="none" xmlns="http://www.w3.org/2000/svg">
<path d="M9.88558 14.9998H0.957764C0.440889 14.9998 0.0202637 14.5792 0.0202637 14.0623V2.34326C0.0202637 1.82639 0.440889 1.40576 0.957764 1.40576H9.88558C10.4025 1.40576 10.8231 1.82639 10.8231 2.34326V14.0623C10.8231 14.5792 10.4025 14.9998 9.88558 14.9998ZM0.957764 2.03076C0.785576 2.03076 0.645264 2.17107 0.645264 2.34326V14.0623C0.645264 14.2348 0.785576 14.3748 0.957764 14.3748H9.88558C10.0581 14.3748 10.1981 14.2348 10.1981 14.0623V2.34326C10.1981 2.17107 10.0581 2.03076 9.88558 2.03076H0.957764Z" fill="#A1A1A1"/>
<path d="M7.37718 0.625H3.46655C3.29405 0.625 3.15405 0.485 3.15405 0.3125C3.15405 0.14 3.29405 0 3.46655 0H7.37718C7.54999 0 7.68968 0.14 7.68968 0.3125C7.68968 0.485 7.54999 0.625 7.37718 0.625Z" fill="#A1A1A1"/>
<path d="M2.73177 5.10498H2.22583C2.05333 5.10498 1.91333 4.96498 1.91333 4.79248C1.91333 4.61998 2.05333 4.47998 2.22583 4.47998H2.73177C2.90427 4.47998 3.04427 4.61998 3.04427 4.79248C3.04427 4.96498 2.90427 5.10498 2.73177 5.10498Z" fill="#A1A1A1"/>
<path d="M8.6185 5.10498H4.25537C4.08287 5.10498 3.94287 4.96498 3.94287 4.79248C3.94287 4.61998 4.08287 4.47998 4.25537 4.47998H8.61819C8.791 4.47998 8.93069 4.61998 8.93069 4.79248C8.93069 4.96498 8.791 5.10498 8.6185 5.10498Z" fill="#A1A1A1"/>
<path d="M2.73177 7.56836H2.22583C2.05333 7.56836 1.91333 7.42836 1.91333 7.25586C1.91333 7.08336 2.05333 6.94336 2.22583 6.94336H2.73177C2.90427 6.94336 3.04427 7.08336 3.04427 7.25586C3.04427 7.42836 2.90427 7.56836 2.73177 7.56836Z" fill="#A1A1A1"/>
<path d="M8.6185 7.56836H4.25537C4.08287 7.56836 3.94287 7.42836 3.94287 7.25586C3.94287 7.08336 4.08287 6.94336 4.25537 6.94336H8.61819C8.791 6.94336 8.93069 7.08336 8.93069 7.25586C8.93069 7.42836 8.791 7.56836 8.6185 7.56836Z" fill="#A1A1A1"/>
<path d="M2.73177 10.0288H2.22583C2.05333 10.0288 1.91333 9.88912 1.91333 9.71631C1.91333 9.5435 2.05333 9.40381 2.22583 9.40381H2.73177C2.90427 9.40381 3.04427 9.5435 3.04427 9.71631C3.04427 9.88912 2.90427 10.0288 2.73177 10.0288Z" fill="#A1A1A1"/>
<path d="M8.6185 10.0288H4.25537C4.08287 10.0288 3.94287 9.88912 3.94287 9.71631C3.94287 9.5435 4.08287 9.40381 4.25537 9.40381H8.61819C8.791 9.40381 8.93069 9.5435 8.93069 9.71631C8.93069 9.88912 8.791 10.0288 8.6185 10.0288Z" fill="#A1A1A1"/>
<path d="M2.73177 12.4917H2.22583C2.05333 12.4917 1.91333 12.352 1.91333 12.1792C1.91333 12.0064 2.05333 11.8667 2.22583 11.8667H2.73177C2.90427 11.8667 3.04427 12.0064 3.04427 12.1792C3.04427 12.352 2.90427 12.4917 2.73177 12.4917Z" fill="#A1A1A1"/>
<path d="M8.6185 12.4917H4.25537C4.08287 12.4917 3.94287 12.352 3.94287 12.1792C3.94287 12.0064 4.08287 11.8667 4.25537 11.8667H8.61819C8.791 11.8667 8.93069 12.0064 8.93069 12.1792C8.93069 12.352 8.791 12.4917 8.6185 12.4917Z" fill="#A1A1A1"/>
</svg>
