<svg width="57" height="56" viewBox="0 0 57 56" fill="none" xmlns="http://www.w3.org/2000/svg">
<path fill-rule="evenodd" clip-rule="evenodd" d="M27.7848 0.0151868C33.0712 -0.0557327 45.153 -0.0890747 50.3047 5.06371C55.4564 10.216 56.1289 18.1494 56.1289 27.5865C56.1289 37.0235 55.694 45.4963 50.3047 50.8862C44.9159 56.2761 32.8962 55.913 28.95 55.9342C25.0031 55.9559 13.858 56.8974 6.04183 50.8862C-0.534407 43.2359 0.0548007 33.6221 0.217616 27.198C0.380431 20.774 0.205947 9.0913 6.43004 4.67523C12.6536 0.259168 18.1453 0.144853 27.7848 0.0151868Z" fill="#FD7E48"/>
<path fill-rule="evenodd" clip-rule="evenodd" d="M27.7848 0.0151868C33.0712 -0.0557327 45.153 -0.0890747 50.3047 5.06371C55.4564 10.216 56.1289 18.1494 56.1289 27.5865C56.1289 37.0235 55.694 45.4963 50.3047 50.8862C44.9159 56.2761 32.8962 55.913 28.95 55.9342C25.0031 55.9559 13.858 56.8974 6.04183 50.8862C-0.534407 43.2359 0.0548007 33.6221 0.217616 27.198C0.380431 20.774 0.205947 9.0913 6.43004 4.67523C12.6536 0.259168 18.1453 0.144853 27.7848 0.0151868Z" fill="url(#paint0_linear)"/>
<path fill-rule="evenodd" clip-rule="evenodd" d="M47.2372 47.8184C46.3483 48.7239 40.356 52.8325 39.5642 51.8158C38.7724 50.7991 42.8274 45.4775 43.7163 44.5714C44.6051 43.6654 46.6209 43.3203 47.4127 44.337C48.204 45.3537 48.1255 46.9123 47.2372 47.8184ZM31.1418 14.1501C30.0059 12.5851 35.8237 4.39446 37.0987 3.00041C38.3736 1.60637 41.2661 1.07447 42.4021 2.63946C43.5375 4.20445 43.4251 6.60301 42.1502 7.99759C40.8752 9.39163 32.2778 15.7151 31.1418 14.1501ZM6.15268 43.3478C5.36088 42.3311 9.41587 37.0095 10.3047 36.1034C11.1936 35.1974 13.2094 34.8523 14.0012 35.869C14.7925 36.8857 14.714 38.4443 13.8257 39.3504C12.9368 40.2559 6.94448 44.3645 6.15268 43.3478Z" fill="white" fill-opacity="0.3"/>
<g filter="url(#filter0_d)">
<g clip-path="url(#clip0)">
<path d="M25.3799 15H16.5678C15.7981 15 15.1719 15.6263 15.1719 16.396V25.2081C15.1719 25.9778 15.7981 26.604 16.5678 26.604H25.3799C26.1496 26.604 26.7759 25.9778 26.7759 25.2081V16.396C26.7759 15.6263 26.1496 15 25.3799 15Z" fill="white"/>
<path d="M39.6885 15H30.8764C30.1067 15 29.4805 15.6263 29.4805 16.396V25.2081C29.4805 25.9778 30.1067 26.604 30.8764 26.604H39.6885C40.4582 26.604 41.0845 25.9778 41.0845 25.2081V16.396C41.0845 15.6263 40.4582 15 39.6885 15Z" fill="white"/>
<path d="M25.3799 29.3965H16.5678C15.7981 29.3965 15.1719 30.0228 15.1719 30.7925V39.6045C15.1719 40.3742 15.7981 41.0005 16.5678 41.0005H25.3799C26.1496 41.0005 26.7759 40.3742 26.7759 39.6045V30.7925C26.7759 30.0228 26.1496 29.3965 25.3799 29.3965Z" fill="white"/>
<path d="M39.6885 29.3965H30.8764C30.1067 29.3965 29.4805 30.0228 29.4805 30.7925V39.6045C29.4805 40.3742 30.1067 41.0005 30.8764 41.0005H39.6885C40.4582 41.0005 41.0845 40.3742 41.0845 39.6045V30.7925C41.0845 30.0228 40.4582 29.3965 39.6885 29.3965Z" fill="white"/>
</g>
</g>
<defs>
<filter id="filter0_d" x="15.1289" y="15" width="26" height="28" filterUnits="userSpaceOnUse" color-interpolation-filters="sRGB">
<feFlood flood-opacity="0" result="BackgroundImageFix"/>
<feColorMatrix in="SourceAlpha" type="matrix" values="0 0 0 0 0 0 0 0 0 0 0 0 0 0 0 0 0 0 127 0"/>
<feOffset dy="2"/>
<feColorMatrix type="matrix" values="0 0 0 0 1 0 0 0 0 1 0 0 0 0 1 0 0 0 0.25 0"/>
<feBlend mode="normal" in2="BackgroundImageFix" result="effect1_dropShadow"/>
<feBlend mode="normal" in="SourceGraphic" in2="effect1_dropShadow" result="shape"/>
</filter>
<linearGradient id="paint0_linear" x1="42.5054" y1="5.53076" x2="4.50537" y2="56" gradientUnits="userSpaceOnUse">
<stop stop-color="#FF9168"/>
<stop offset="1" stop-color="#FF4941"/>
</linearGradient>
<clipPath id="clip0">
<rect x="15.1289" y="15" width="26" height="26" fill="white"/>
</clipPath>
</defs>
</svg>
