<svg width="24" height="24" viewBox="0 0 24 24" fill="none" xmlns="http://www.w3.org/2000/svg">
<path fill-rule="evenodd" clip-rule="evenodd" d="M23 18C23 19.1046 22.1046 20 21 20H3C1.89543 20 1 19.1046 1 18V14.8881L1.49927 14.5993C2.42113 14.066 3 13.084 3 12C3 10.916 2.42113 9.934 1.49927 9.40073L1 9.11192V6C1 4.89543 1.89543 4 3 4H21C22.1046 4 23 4.89543 23 6V9.11192L22.5007 9.40073C21.5789 9.934 21 10.916 21 12C21 13.084 21.5789 14.066 22.5007 14.5993L23 14.8881V18ZM19.0001 12.0001C19.0001 10.3996 19.7591 8.93045 21.0001 7.99953V6.00007H15C14.9999 6.55229 14.5522 6.99993 14 6.99993C13.4478 6.99993 13.0001 6.55229 13 6.00007H3.00006V7.99953C4.24107 8.93045 5.00006 10.3996 5.00006 12.0001C5.00006 13.6006 4.24107 15.0697 3.00006 16.0006V18.0001H13V17.9999C13 17.4476 13.4477 16.9999 14 16.9999C14.5523 16.9999 15 17.4476 15 17.9999V18.0001H21.0001V16.0006C19.7591 15.0697 19.0001 13.6006 19.0001 12.0001ZM14 15.9999C14.5523 15.9999 15 15.5522 15 14.9999C15 14.4476 14.5523 13.9999 14 13.9999C13.4477 13.9999 13 14.4476 13 14.9999C13 15.5522 13.4477 15.9999 14 15.9999ZM15 11.9999C15 12.5522 14.5523 12.9999 14 12.9999C13.4477 12.9999 13 12.5522 13 11.9999C13 11.4476 13.4477 10.9999 14 10.9999C14.5523 10.9999 15 11.4476 15 11.9999ZM14 9.99993C14.5523 9.99993 15 9.55222 15 8.99993C15 8.44765 14.5523 7.99993 14 7.99993C13.4477 7.99993 13 8.44765 13 8.99993C13 9.55222 13.4477 9.99993 14 9.99993Z" fill="#A1A1A1"/>
</svg>
