<svg width="57" height="56" viewBox="0 0 57 56" fill="none" xmlns="http://www.w3.org/2000/svg">
<path fill-rule="evenodd" clip-rule="evenodd" d="M27.7379 0.0151868C33.0244 -0.0557327 45.1061 -0.0890747 50.2578 5.06371C55.4096 10.216 56.082 18.1494 56.082 27.5865C56.082 37.0235 55.6472 45.4963 50.2578 50.8862C44.869 56.2761 32.8493 55.913 28.9031 55.9342C24.9563 55.9559 13.8111 56.8974 5.99496 50.8862C-0.581282 43.2359 0.00792569 33.6221 0.170741 27.198C0.333556 20.774 0.159072 9.0913 6.38316 4.67523C12.6067 0.259168 18.0984 0.144853 27.7379 0.0151868Z" fill="#FD7E48"/>
<path fill-rule="evenodd" clip-rule="evenodd" d="M27.7379 0.0151868C33.0244 -0.0557327 45.1061 -0.0890747 50.2578 5.06371C55.4096 10.216 56.082 18.1494 56.082 27.5865C56.082 37.0235 55.6472 45.4963 50.2578 50.8862C44.869 56.2761 32.8493 55.913 28.9031 55.9342C24.9563 55.9559 13.8111 56.8974 5.99496 50.8862C-0.581282 43.2359 0.00792569 33.6221 0.170741 27.198C0.333556 20.774 0.159072 9.0913 6.38316 4.67523C12.6067 0.259168 18.0984 0.144853 27.7379 0.0151868Z" fill="url(#paint0_linear)"/>
<path fill-rule="evenodd" clip-rule="evenodd" d="M47.1903 47.8184C46.3015 48.7239 40.3091 52.8325 39.5173 51.8158C38.7255 50.7991 42.7805 45.4775 43.6694 44.5714C44.5582 43.6654 46.5741 43.3203 47.3659 44.337C48.1571 45.3537 48.0786 46.9123 47.1903 47.8184ZM31.095 14.1501C29.959 12.5851 35.7768 4.39446 37.0518 3.00041C38.3267 1.60637 41.2192 1.07447 42.3552 2.63946C43.4907 4.20445 43.3782 6.60301 42.1033 7.99759C40.8283 9.39163 32.231 15.7151 31.095 14.1501ZM6.1058 43.3478C5.314 42.3311 9.36899 37.0095 10.2578 36.1034C11.1467 35.1974 13.1625 34.8523 13.9543 35.869C14.7456 36.8857 14.6671 38.4443 13.7788 39.3504C12.8899 40.2559 6.8976 44.3645 6.1058 43.3478Z" fill="white" fill-opacity="0.3"/>
<g filter="url(#filter0_d)">
<path fill-rule="evenodd" clip-rule="evenodd" d="M33.0993 20.2012C34.0188 20.2012 34.7642 19.4558 34.7642 18.5363C34.7642 18.2792 34.7059 18.0357 34.6019 17.8184H39.5366C40.9424 17.8184 42.082 18.958 42.082 20.3638V24.3244L41.4466 24.692C40.2733 25.3707 39.5366 26.6206 39.5366 28.0002C39.5366 29.3798 40.2733 30.6296 41.4466 31.3083L42.082 31.6759V35.6365C42.082 37.0424 40.9424 38.182 39.5366 38.182H34.7485C34.6369 37.3709 33.9411 36.7461 33.0992 36.7461C32.2574 36.7461 31.5616 37.3709 31.45 38.182H16.6275C15.2217 38.182 14.082 37.0424 14.082 35.6365V31.6759L14.7175 31.3083C15.8907 30.6296 16.6275 29.3798 16.6275 28.0002C16.6275 26.6206 15.8907 25.3707 14.7175 24.692L14.082 24.3244V20.3638C14.082 18.958 15.2217 17.8184 16.6275 17.8184H31.5968C31.4927 18.0357 31.4345 18.2792 31.4345 18.5363C31.4345 19.4558 32.1799 20.2012 33.0993 20.2012ZM33.0992 25.2475C34.0187 25.2475 34.7641 24.5021 34.7641 23.5827C34.7641 22.6632 34.0187 21.9178 33.0992 21.9178C32.1798 21.9178 31.4344 22.6632 31.4344 23.5827C31.4344 24.5021 32.1798 25.2475 33.0992 25.2475ZM34.7641 28.5253C34.7641 29.4448 34.0187 30.1902 33.0992 30.1902C32.1798 30.1902 31.4344 29.4448 31.4344 28.5253C31.4344 27.6059 32.1798 26.8605 33.0992 26.8605C34.0187 26.8605 34.7641 27.6059 34.7641 28.5253ZM33.0992 35.1331C34.0187 35.1331 34.7641 34.3878 34.7641 33.4683C34.7641 32.5488 34.0187 31.8034 33.0992 31.8034C32.1798 31.8034 31.4344 32.5488 31.4344 33.4683C31.4344 34.3878 32.1798 35.1331 33.0992 35.1331Z" fill="white"/>
</g>
<defs>
<filter id="filter0_d" x="14.082" y="17.8184" width="28" height="22.3636" filterUnits="userSpaceOnUse" color-interpolation-filters="sRGB">
<feFlood flood-opacity="0" result="BackgroundImageFix"/>
<feColorMatrix in="SourceAlpha" type="matrix" values="0 0 0 0 0 0 0 0 0 0 0 0 0 0 0 0 0 0 127 0"/>
<feOffset dy="2"/>
<feColorMatrix type="matrix" values="0 0 0 0 1 0 0 0 0 1 0 0 0 0 1 0 0 0 0.25 0"/>
<feBlend mode="normal" in2="BackgroundImageFix" result="effect1_dropShadow"/>
<feBlend mode="normal" in="SourceGraphic" in2="effect1_dropShadow" result="shape"/>
</filter>
<linearGradient id="paint0_linear" x1="42.4585" y1="5.53076" x2="4.4585" y2="56" gradientUnits="userSpaceOnUse">
<stop stop-color="#FFBC4F"/>
<stop offset="1" stop-color="#FF8328"/>
</linearGradient>
</defs>
</svg>
