<svg width="24" height="24" viewBox="0 0 24 24" fill="none" xmlns="http://www.w3.org/2000/svg">
<g clip-path="url(#clip0)">
<path d="M8.61377 19.216C8.56827 19.216 8.52127 19.2095 8.47527 19.1965C8.20977 19.1205 8.05677 18.8435 8.13277 18.578L11.8618 5.60449C11.9378 5.33949 12.2123 5.18499 12.4803 5.26199C12.7453 5.33799 12.8988 5.61549 12.8228 5.88049L9.09427 18.854C9.03127 19.0735 8.83127 19.216 8.61377 19.216Z" fill="#737373"/>
<path d="M10.7489 22.2649C10.4844 22.2649 10.2204 22.2264 9.96491 22.1499C8.51391 21.7154 7.67491 20.1749 8.09441 18.7159C8.42891 17.5494 9.50641 16.7344 10.7144 16.7344C10.9789 16.7344 11.2434 16.7729 11.4994 16.8494C12.9514 17.2829 13.7909 18.8244 13.3699 20.2849C13.0364 21.4504 11.9584 22.2649 10.7489 22.2649ZM10.7144 17.7344C9.94991 17.7344 9.26791 18.2514 9.05591 18.9919C8.78691 19.9269 9.32341 20.9139 10.2519 21.1919C10.4144 21.2404 10.5819 21.2649 10.7499 21.2649C11.5154 21.2649 12.1979 20.7484 12.4099 20.0089C12.6794 19.0719 12.1429 18.0844 11.2139 17.8074C11.0499 17.7589 10.8819 17.7344 10.7144 17.7344Z" fill="#737373"/>
<path d="M3.55244 14.1633C3.33494 14.1633 3.13544 14.0208 3.07244 13.8013C2.99594 13.5363 3.14894 13.2593 3.41444 13.1828L22.8599 7.58231C23.1254 7.50531 23.4024 7.65981 23.4784 7.92431C23.5549 8.18981 23.4019 8.46681 23.1359 8.54331L3.69144 14.1438C3.64494 14.1568 3.59844 14.1633 3.55244 14.1633Z" fill="#737373"/>
<path d="M2.78119 14.2942C1.56219 14.2942 0.466189 13.4822 0.115189 12.3202C-0.0963112 11.6157 -0.0198112 10.8737 0.331689 10.2302C0.683689 9.58519 1.26819 9.11769 1.97769 8.91419C2.22869 8.84169 2.48819 8.80469 2.74919 8.80469C3.97169 8.80469 5.06919 9.61669 5.41769 10.7792C5.62869 11.4827 5.55269 12.2242 5.20169 12.8667C4.84919 13.5122 4.26369 13.9807 3.55169 14.1852C3.30119 14.2572 3.04119 14.2942 2.78119 14.2942ZM2.74919 9.80469C2.58269 9.80469 2.41569 9.82819 2.25419 9.87519C1.80319 10.0047 1.43219 10.3007 1.20969 10.7087C0.987689 11.1157 0.938689 11.5857 1.07319 12.0317C1.29719 12.7747 2.00019 13.2942 2.78169 13.2942C2.94819 13.2942 3.11419 13.2702 3.27569 13.2237C3.72919 13.0932 4.10119 12.7967 4.32469 12.3872C4.54619 11.9812 4.59469 11.5122 4.46069 11.0662C4.23719 10.3237 3.53369 9.80469 2.74919 9.80469Z" fill="#737373"/>
<path d="M4.50647 2.73828H1.29297C1.01697 2.73828 0.792969 2.51428 0.792969 2.23828C0.792969 1.96228 1.01697 1.73828 1.29297 1.73828H4.50647C4.78247 1.73828 5.00647 1.96228 5.00647 2.23828C5.00647 2.51428 4.78247 2.73828 4.50647 2.73828Z" fill="#737373"/>
<path d="M10.838 2.73828H7.62305C7.34705 2.73828 7.12305 2.51428 7.12305 2.23828C7.12305 1.96228 7.34705 1.73828 7.62305 1.73828H10.838C11.114 1.73828 11.338 1.96228 11.338 2.23828C11.338 2.51428 11.114 2.73828 10.838 2.73828Z" fill="#737373"/>
<path d="M17.1686 2.73828H13.9531C13.6766 2.73828 13.4531 2.51428 13.4531 2.23828C13.4531 1.96228 13.6766 1.73828 13.9531 1.73828H17.1686C17.4451 1.73828 17.6686 1.96228 17.6686 2.23828C17.6686 2.51428 17.4451 2.73828 17.1686 2.73828Z" fill="#737373"/>
<path d="M23.4982 2.73828H20.2832C20.0067 2.73828 19.7832 2.51428 19.7832 2.23828C19.7832 1.96228 20.0067 1.73828 20.2832 1.73828H23.4982C23.7747 1.73828 23.9982 1.96228 23.9982 2.23828C23.9982 2.51428 23.7747 2.73828 23.4982 2.73828Z" fill="#737373"/>
</g>
<defs>
<clipPath id="clip0">
<rect width="24" height="24" fill="white"/>
</clipPath>
</defs>
</svg>
