<svg width="25" height="25" viewBox="0 0 25 25" fill="none" xmlns="http://www.w3.org/2000/svg">
<path fill-rule="evenodd" clip-rule="evenodd" d="M15.6768 20.7708V22.7708H4.67676C3.57219 22.7708 2.67676 21.8753 2.67676 20.7708V4.77075C2.67676 3.66618 3.57219 2.77075 4.67676 2.77075H20.6768C21.7813 2.77075 22.6768 3.66618 22.6768 4.77075V14.7708H20.6768V4.77075H4.67676V20.7708H15.6768ZM19.6768 21.7708H17.6768V19.7708H19.6768V17.7708H21.6768V19.7708H23.6768V21.7708H21.6768V23.7708H19.6768V21.7708Z" fill="#454545"/>
<path d="M15.6872 13.8713C15.6872 14.338 15.5472 14.7613 15.2672 15.1413C14.9939 15.5146 14.4806 15.7546 13.7272 15.8613L13.8072 17.2113H12.8272L12.8972 15.9113C12.5106 15.9046 12.1006 15.848 11.6672 15.7413C11.2406 15.6346 10.9039 15.5213 10.6572 15.4013L10.8072 14.0413C11.6872 14.468 12.4606 14.6813 13.1272 14.6813C13.4806 14.6813 13.7572 14.6146 13.9572 14.4813C14.1572 14.3413 14.2572 14.138 14.2572 13.8713C14.2572 13.6713 14.2006 13.508 14.0872 13.3813C13.9806 13.248 13.8239 13.138 13.6172 13.0513C13.4106 12.958 13.0806 12.8313 12.6272 12.6713C12.2006 12.5246 11.8472 12.3713 11.5672 12.2113C11.2872 12.0446 11.0639 11.8346 10.8972 11.5813C10.7372 11.3213 10.6572 11.0046 10.6572 10.6313C10.6572 10.0713 10.8506 9.6113 11.2372 9.2513C11.6239 8.8913 12.1806 8.68797 12.9072 8.6413L12.8272 7.3313H13.8072L13.7272 8.6613C14.2806 8.7213 14.8439 8.8613 15.4172 9.0813L15.2872 10.3913C14.8739 10.2113 14.4939 10.078 14.1472 9.9913C13.8072 9.89797 13.4672 9.8513 13.1272 9.8513C12.7472 9.8513 12.4572 9.91463 12.2572 10.0413C12.0572 10.168 11.9572 10.3513 11.9572 10.5913C11.9572 10.778 12.0106 10.9313 12.1172 11.0513C12.2239 11.1713 12.3672 11.2713 12.5472 11.3513C12.7339 11.4313 13.0072 11.528 13.3672 11.6413C14.1739 11.8946 14.7606 12.188 15.1272 12.5213C15.5006 12.848 15.6872 13.298 15.6872 13.8713Z" fill="#454545"/>
</svg>
