<svg width="36" height="36" viewBox="0 0 36 36" fill="none" xmlns="http://www.w3.org/2000/svg">
<circle cx="18.3525" cy="18.1973" r="17.5" fill="#D7003E"/>
<circle cx="18.3525" cy="18.1973" r="16" fill="#FF2462"/>
<g clip-path="url(#clip0)">
<path d="M18.3525 9.0306C23.4071 9.0306 27.5192 13.1427 27.5192 18.1973C27.5192 23.2518 23.4071 27.3639 18.3525 27.3639C13.298 27.3639 9.18587 23.2518 9.18587 18.1973C9.18587 13.1427 13.298 9.0306 18.3525 9.0306ZM18.3525 8.19727C12.83 8.19727 8.35254 12.6748 8.35254 18.1973C8.35254 23.7206 12.83 28.1973 18.3525 28.1973C23.8759 28.1973 28.3525 23.7206 28.3525 18.1973C28.3525 12.6748 23.8759 8.19727 18.3525 8.19727Z" fill="white"/>
<path d="M20.7683 18.6146H15.9375V11.0684H16.7708V17.7813H20.7683V18.6146Z" fill="white"/>
</g>
<defs>
<clipPath id="clip0">
<rect width="20" height="20" fill="white" transform="translate(8.35254 8.19727)"/>
</clipPath>
</defs>
</svg>
