<?xml version="1.0" encoding="utf-8"?>
<!-- Generator: Adobe Illustrator 16.0.0, SVG Export Plug-In . SVG Version: 6.00 Build 0)  -->
<!DOCTYPE svg PUBLIC "-//W3C//DTD SVG 1.1//EN" "http://www.w3.org/Graphics/SVG/1.1/DTD/svg11.dtd">
<svg version="1.1" id="Layer_1" xmlns="http://www.w3.org/2000/svg" xmlns:xlink="http://www.w3.org/1999/xlink" x="0px" y="0px"
	 width="48px" height="48px" viewBox="0 0 48 48" enable-background="new 0 0 48 48" xml:space="preserve">
<g>
	<rect x="28.73" y="40.154" width="3.945" height="2"/>
	<g>
		<path d="M37.075,48h-26.15c-1.654,0-3-1.346-3-3V3c0-1.654,1.346-3,3-3h26.15c1.654,0,3,1.346,3,3v42
			C40.075,46.654,38.729,48,37.075,48z M10.925,2c-0.551,0-1,0.449-1,1v42c0,0.552,0.449,1,1,1h26.15c0.552,0,1-0.448,1-1V3
			c0-0.551-0.448-1-1-1H10.925z"/>
	</g>
	<path d="M30.704,8.342H18.208c-0.552,0-1-0.448-1-1s0.448-1,1-1h12.496c0.553,0,1,0.448,1,1S31.257,8.342,30.704,8.342z"/>
</g>
</svg>
