<svg width="24" height="24" viewBox="0 0 24 24" fill="none" xmlns="http://www.w3.org/2000/svg">
<path d="M22.5 19.9468H1.5C0.673 19.9468 0 19.2733 0 18.4468V5.55078C0 4.72378 0.673 4.05078 1.5 4.05078H22.5C23.327 4.05078 24 4.72378 24 5.55078V18.4468C24 19.2743 23.327 19.9468 22.5 19.9468ZM1.5 5.05078C1.2245 5.05078 1 5.27528 1 5.55078V18.4468C1 18.7228 1.2245 18.9468 1.5 18.9468H22.5C22.776 18.9468 23 18.7228 23 18.4468V5.55078C23 5.27528 22.776 5.05078 22.5 5.05078H1.5Z" fill="#454545"/>
<path d="M11.9998 15.3954C11.0128 15.3954 10.0893 14.9859 9.39979 14.2394L1.38329 5.58591C1.19579 5.38341 1.20729 5.06691 1.41029 4.87941C1.61229 4.69191 1.92929 4.70341 2.11679 4.90641L10.1338 13.5609C10.6323 14.0994 11.2948 14.3959 12.0003 14.3959C12.7058 14.3959 13.3683 14.0994 13.8663 13.5609L21.8823 4.90641C22.0688 4.70391 22.3863 4.69141 22.5883 4.87941C22.7908 5.06691 22.8033 5.38341 22.6158 5.58641L14.6008 14.2409C13.9103 14.9849 12.9878 15.3954 11.9998 15.3954Z" fill="#454545"/>
</svg>
