<svg width="16" height="16" viewBox="0 0 16 16" fill="none" xmlns="http://www.w3.org/2000/svg">
<path fill-rule="evenodd" clip-rule="evenodd" d="M8.05488 2.7229C9.7596 2.7229 11.3897 3.61704 12.9088 5.08612C13.4271 5.58731 13.8959 6.12237 14.3087 6.65767C14.5578 6.98068 14.7346 7.23477 14.8314 7.38615L15.0468 7.7229L14.8314 8.05965C14.7346 8.21103 14.5578 8.46513 14.3087 8.78814C13.8959 9.32343 13.4271 9.8585 12.9088 10.3597C11.3897 11.8288 9.7596 12.7229 8.05488 12.7229C6.35017 12.7229 4.72009 11.8288 3.20095 10.3597C2.68269 9.8585 2.21383 9.32343 1.80108 8.78814C1.55201 8.46513 1.37518 8.21103 1.27836 8.05965L1.06299 7.7229L1.27836 7.38615C1.37518 7.23477 1.55201 6.98068 1.80108 6.65767C2.21383 6.12237 2.68269 5.58731 3.20095 5.08612C4.72009 3.61704 6.35017 2.7229 8.05488 2.7229ZM13.3188 7.42095C12.9409 6.93085 12.5112 6.44053 12.0399 5.98468C10.7315 4.71938 9.37056 3.9729 8.05489 3.9729C6.73921 3.9729 5.37832 4.71938 4.06991 5.98468C3.59853 6.44053 3.16888 6.93085 2.79098 7.42095C2.70936 7.5268 2.63394 7.62779 2.56499 7.7229C2.63394 7.81801 2.70936 7.919 2.79098 8.02485C3.16888 8.51495 3.59853 9.00527 4.06991 9.46112C5.37832 10.7264 6.73921 11.4729 8.05489 11.4729C9.37056 11.4729 10.7315 10.7264 12.0399 9.46112C12.5112 9.00527 12.9409 8.51495 13.3188 8.02485C13.4004 7.919 13.4758 7.81801 13.5448 7.7229C13.4758 7.62779 13.4004 7.5268 13.3188 7.42095ZM5.55489 7.7229C5.55489 9.10361 6.67418 10.2229 8.05489 10.2229C9.43561 10.2229 10.5549 9.10361 10.5549 7.7229C10.5549 6.34219 9.43561 5.2229 8.05489 5.2229C6.67418 5.2229 5.55489 6.34219 5.55489 7.7229ZM9.30489 7.7229C9.30489 8.41326 8.74525 8.9729 8.05489 8.9729C7.36454 8.9729 6.80489 8.41326 6.80489 7.7229C6.80489 7.03254 7.36454 6.4729 8.05489 6.4729C8.74525 6.4729 9.30489 7.03254 9.30489 7.7229Z" fill="white"/>
</svg>
