<svg width="24" height="24" viewBox="0 0 24 24" fill="none" xmlns="http://www.w3.org/2000/svg">
<path fill-rule="evenodd" clip-rule="evenodd" d="M2.70664 1.29297L1.29243 2.70718L5.35725 6.772C4.97859 7.08582 4.60385 7.42283 4.23324 7.78123C3.40403 8.58312 2.65384 9.43923 1.99344 10.2957C1.59494 10.8125 1.31201 11.2191 1.1571 11.4613L0.8125 12.0001L1.1571 12.5389C1.31201 12.7811 1.59494 13.1876 1.99344 13.7045C2.65384 14.5609 3.40403 15.417 4.23324 16.2189C6.66386 18.5695 9.27199 20.0001 11.9995 20.0001C13.7204 20.0001 15.3938 19.4306 17.0051 18.4198L21.2924 22.7072L22.7066 21.293L2.70664 1.29297ZM15.5442 16.9589L14.0315 15.4463C13.436 15.7981 12.7413 16.0001 11.9995 16.0001C9.7904 16.0001 7.99953 14.2092 7.99953 12.0001C7.99953 11.2583 8.20146 10.5636 8.55335 9.96811L6.77925 8.19401C6.39186 8.50642 6.00631 8.8488 5.62357 9.21893C4.86937 9.94828 4.18192 10.7328 3.57728 11.517C3.44669 11.6863 3.32602 11.8479 3.2157 12.0001C3.32602 12.1523 3.44669 12.3138 3.57728 12.4832C4.18192 13.2674 4.86937 14.0519 5.62357 14.7812C7.71703 16.8057 9.89446 18.0001 11.9995 18.0001C13.1677 18.0001 14.3581 17.6323 15.5442 16.9589ZM10.0673 11.482C10.0231 11.6473 9.99953 11.8209 9.99953 12.0001C9.99953 13.1046 10.895 14.0001 11.9995 14.0001C12.1787 14.0001 12.3524 13.9765 12.5176 13.9323L10.0673 11.482ZM20.0976 15.891L18.6834 14.4768C19.3175 13.8357 19.9004 13.1593 20.4218 12.4832C20.5524 12.3138 20.673 12.1523 20.7834 12.0001C20.673 11.8479 20.5524 11.6863 20.4218 11.517C19.8171 10.7328 19.1297 9.94828 18.3755 9.21893C16.282 7.19445 14.1046 6.00008 11.9995 6.00008C11.4772 6.00008 10.9505 6.0736 10.4217 6.21509L8.83968 4.63312C9.87213 4.22145 10.9266 4.00008 11.9995 4.00008C14.7271 4.00008 17.3352 5.4307 19.7658 7.78123C20.595 8.58312 21.3452 9.43923 22.0056 10.2957C22.4041 10.8125 22.6871 11.2191 22.842 11.4613L23.1866 12.0001L22.842 12.5389C22.6871 12.7811 22.4041 13.1876 22.0056 13.7045C21.4345 14.4452 20.7961 15.1857 20.0976 15.891Z" fill="#A1A1A1"/>
</svg>
