<svg width="16" height="9" viewBox="0 0 16 9" fill="none" xmlns="http://www.w3.org/2000/svg">
<path d="M13.3402 2.6196C10.4371 -0.283355 5.71422 -0.283355 2.81127 2.6196L0.87207 4.55849L2.85912 6.54569C4.31052 7.99709 6.21702 8.72294 8.12382 8.72294C10.0305 8.72294 11.9368 7.99709 13.3885 6.54569L15.3274 4.60649L13.3402 2.6196ZM13.0429 6.20024C10.3305 8.91269 5.91702 8.91269 3.20442 6.20024L1.56267 4.55849L3.15642 2.96474C5.86887 0.252445 10.2822 0.252445 12.9948 2.96474L14.6367 4.60649L13.0429 6.20024Z" fill="#454545"/>
<path d="M8.09325 1.40088C6.34305 1.40088 4.91895 2.82483 4.91895 4.57503C4.91895 6.32523 6.3429 7.74933 8.09325 7.74933C9.8436 7.74933 11.2674 6.32538 11.2674 4.57503C11.2672 2.82483 9.8436 1.40088 8.09325 1.40088ZM8.09325 7.26108C6.6123 7.26108 5.4072 6.05613 5.4072 4.57503C5.4072 3.09423 6.6123 1.88913 8.09325 1.88913C9.5742 1.88913 10.779 3.09423 10.779 4.57503C10.7788 6.05613 9.5742 7.26108 8.09325 7.26108Z" fill="#454545"/>
</svg>
