<svg width="15" height="7" viewBox="0 0 15 7" fill="none" xmlns="http://www.w3.org/2000/svg">
<path d="M7.55869 7.39344C5.00119 7.39344 2.48932 6.20406 0.0933795 3.85844C-0.026308 3.74125 -0.0322455 3.55094 0.0796295 3.42625C0.205567 3.28625 3.21057 0 7.55838 0C10.1159 0 12.5878 1.14781 14.9056 3.41156C15.0221 3.52531 15.0315 3.71 14.9271 3.835C14.8062 3.98063 11.914 7.39344 7.55869 7.39344ZM0.756192 3.62875C2.96182 5.7125 5.249 6.76844 7.559 6.76844C11.0046 6.76844 13.5465 4.3875 14.2512 3.65C12.1187 1.6425 9.86869 0.625312 7.55869 0.625312C4.11213 0.625312 1.4965 2.9075 0.756192 3.62875Z" fill="black"/>
<path d="M7.50041 6.33969C6.04322 6.33969 4.85791 5.15469 4.85791 3.69844C4.85791 2.24062 6.04322 1.05469 7.50041 1.05469C8.95697 1.05469 10.142 2.24062 10.142 3.69844C10.142 5.15469 8.95697 6.33969 7.50041 6.33969ZM7.50041 1.67969C6.38791 1.67969 5.48291 2.58531 5.48291 3.69844C5.48291 4.81031 6.38791 5.71469 7.50041 5.71469C8.6126 5.71469 9.51697 4.81 9.51697 3.69844C9.51697 2.58531 8.6126 1.67969 7.50041 1.67969Z" fill="black"/>
</svg>
