<svg width="24" height="24" viewBox="0 0 24 24" fill="none" xmlns="http://www.w3.org/2000/svg">
<path d="M20 24H4C1.7945 24 0 22.2055 0 20V4C0 1.7945 1.7945 0 4 0H20C22.2055 0 24 1.7945 24 4V20C24 22.2055 22.2055 24 20 24Z" fill="black"/>
<path fill-rule="evenodd" clip-rule="evenodd" d="M13.5605 9.4245V8.2385C13.5605 7.6695 13.937 7.533 14.21 7.533C14.474 7.533 15.869 7.533 15.869 7.533V5H13.585C11.044 5 10.475 6.8755 10.475 8.094V9.4245H9V11.212V12.3825H10.491C10.491 15.741 10.491 19.772 10.491 19.772H13.4485C13.4485 19.772 13.4485 15.684 13.4485 12.3825H15.6365L15.733 11.22L15.9095 9.4245H13.5605Z" fill="white"/>
</svg>
