<?xml version="1.0" encoding="utf-8"?>
<!-- Generator: Adobe Illustrator 16.0.0, SVG Export Plug-In . SVG Version: 6.00 Build 0)  -->
<!DOCTYPE svg PUBLIC "-//W3C//DTD SVG 1.1//EN" "http://www.w3.org/Graphics/SVG/1.1/DTD/svg11.dtd">
<svg version="1.1" id="Layer_1" xmlns="http://www.w3.org/2000/svg" xmlns:xlink="http://www.w3.org/1999/xlink" x="0px" y="0px"
	 width="48px" height="48px" viewBox="0 0 48 48" enable-background="new 0 0 48 48" xml:space="preserve">
<g>
	<path d="M41.262,45.695H6.738C3.022,45.695,0,42.672,0,38.956V38.15c0-8.015,21.25-17.122,23.673-18.134
		c0.25-0.104,0.533-0.103,0.78,0.004C26.863,21.058,48,30.377,48,38.15v0.806C48,42.672,44.978,45.695,41.262,45.695z
		 M24.052,22.027C17.551,24.794,2,32.596,2,38.15v0.806c0,2.613,2.125,4.739,4.738,4.739h34.524c2.612,0,4.738-2.126,4.738-4.739
		V38.15C46,32.783,30.522,24.86,24.052,22.027z"/>
	<path d="M24.3,21.614c-0.552,0-1-0.448-1-1v-4.983c-3.222-0.484-5.701-3.272-5.701-6.627c0-3.694,3.006-6.699,6.701-6.699
		c3.697,0,6.706,3.005,6.706,6.699c0,0.552-0.447,1-1,1s-1-0.448-1-1c0-2.591-2.111-4.699-4.706-4.699
		c-2.592,0-4.701,2.108-4.701,4.699c0,2.592,2.109,4.701,4.701,4.701h1v6.909C25.3,21.167,24.853,21.614,24.3,21.614z"/>
</g>
</svg>
