<svg width="25" height="25" viewBox="0 0 25 25" fill="none" xmlns="http://www.w3.org/2000/svg">
<g clip-path="url(#clip0)">
<path d="M24.7031 12.9082C24.7031 6.28079 19.3305 0.908203 12.7031 0.908203C6.07571 0.908203 0.703125 6.28079 0.703125 12.9082C0.703125 19.5356 6.07571 24.9082 12.7031 24.9082C19.3305 24.9082 24.7031 19.5356 24.7031 12.9082Z" fill="#FF1678"/>
<g filter="url(#filter0_d)">
<path d="M17.4518 11.0193L17.084 11.4689C16.6911 11.949 16.7521 12.6646 17.2202 13.0676C17.6883 13.4705 18.3863 13.408 18.7792 12.9279L19.1434 12.4827C19.7332 11.7744 19.868 10.818 19.4948 9.9849C19.1187 9.14536 18.3157 8.62386 17.3991 8.62386H15.577L17.5491 5.29873C17.757 4.94833 17.7641 4.51017 17.5683 4.1529C17.3723 3.79541 17.0036 3.57422 16.6038 3.57422H10.7946C10.3931 3.57422 10.0231 3.79718 9.82791 4.15689L6.05647 11.1019C5.57431 11.9898 5.5862 13.0432 6.08845 13.9195C6.59071 14.7956 7.48219 15.3189 8.4733 15.3189H10.18L8.49361 20.062C8.29197 20.5549 8.3285 21.0769 8.59627 21.5013C8.88845 21.965 9.41902 22.2409 10.0166 22.2409H10.0244C10.5262 22.2389 11.0118 22.0341 11.3567 21.6793C11.3714 21.6642 11.3857 21.6487 11.3995 21.6327L15.8325 16.5275C16.239 16.0596 16.1986 15.3422 15.7421 14.9255C15.2857 14.5086 14.5861 14.5501 14.1798 15.0181L11.5765 18.0166L12.8008 14.5731C12.9244 14.2251 12.8747 13.8371 12.6677 13.5337C12.4606 13.2302 12.1222 13.0496 11.7611 13.0496H8.4733C8.18759 13.0496 8.04452 12.8539 7.99633 12.7697C7.94792 12.6855 7.85088 12.4621 7.98984 12.2061L11.4449 5.84372H14.6356L12.6634 9.16885C12.4557 9.51925 12.4483 9.95742 12.6443 10.3147C12.8404 10.6722 13.209 10.8934 13.6089 10.8934H17.3991C17.4611 10.8934 17.4754 10.9133 17.4838 10.9322C17.4901 10.9463 17.4981 10.9641 17.4601 11.0093C17.4572 11.0126 17.4546 11.0159 17.4518 11.0193Z" fill="white"/>
</g>
</g>
<defs>
<filter id="filter0_d" x="1.70312" y="0.574219" width="22" height="26.6667" filterUnits="userSpaceOnUse" color-interpolation-filters="sRGB">
<feFlood flood-opacity="0" result="BackgroundImageFix"/>
<feColorMatrix in="SourceAlpha" type="matrix" values="0 0 0 0 0 0 0 0 0 0 0 0 0 0 0 0 0 0 127 0"/>
<feOffset dy="1"/>
<feGaussianBlur stdDeviation="2"/>
<feColorMatrix type="matrix" values="0 0 0 0 0 0 0 0 0 0 0 0 0 0 0 0 0 0 0.25 0"/>
<feBlend mode="normal" in2="BackgroundImageFix" result="effect1_dropShadow"/>
<feBlend mode="normal" in="SourceGraphic" in2="effect1_dropShadow" result="shape"/>
</filter>
<clipPath id="clip0">
<rect width="25" height="25" fill="white"/>
</clipPath>
</defs>
</svg>
.16722 17.9812 3.6243L17.9811 3.62419C17.6824 3.07931 17.1148 2.73398 16.4905 2.73398H10.6813C10.0547 2.73398 9.485 3.08188 9.18736 3.63032C9.18732 3.63039 9.18728 3.63046 9.18725 3.63053L5.41592 10.5754L16.2587 11.2531ZM11.673 21.8579L11.2434 21.439M11.673 21.8579C11.6732 21.8577 11.6734 21.8575 11.6737 21.8573L11.2434 21.439M11.673 21.8579C11.214 22.3297 10.5738 22.598 9.91347 22.6006L9.91108 22.6007L9.9033 22.6007C9.12244 22.6007 8.3892 22.2374 7.97554 21.5812M11.2434 21.439C10.8985 21.7939 10.4129 21.9987 9.91108 22.0007H9.9033C9.30574 22.0007 8.77517 21.7247 8.48298 21.2611M7.97554 21.5812L8.48298 21.2611M7.97554 21.5812C7.97548 21.5811 7.97543 21.581 7.97537 21.581L8.48298 21.2611M7.97554 21.5812C7.59922 20.9847 7.55622 20.2633 7.81936 19.6085M8.48298 21.2611C8.21522 20.8366 8.17869 20.3147 8.38033 19.8218M8.38033 19.8218L7.815 19.6208L7.81936 19.6085M8.38033 19.8218L9.85336 15.6787H9.21657M8.38033 19.8218L7.825 19.5946C7.8231 19.5993 7.82122 19.6039 7.81936 19.6085M7.81936 19.6085L9.21657 15.6787M9.21657 15.6787L9.42989 15.0787L5.41592 10.5754C4.83451 11.646 4.84882 12.9207 5.45461 13.9776L5.45464 13.9777C6.06127 15.0359 7.14878 15.6787 8.36001 15.6787H9.21657Z" stroke="#FF1678" stroke-width="1.2"/>
</g>
<defs>
<filter id="filter0_d" x="4.39062" y="2.13477" width="16.4001" height="22.0667" filterUnits="userSpaceOnUse" color-interpolation-filters="sRGB">
<feFlood flood-opacity="0" result="BackgroundImageFix"/>
<feColorMatrix in="SourceAlpha" type="matrix" values="0 0 0 0 0 0 0 0 0 0 0 0 0 0 0 0 0 0 127 0"/>
<feOffset dy="1"/>
<feColorMatrix type="matrix" values="0 0 0 0 0 0 0 0 0 0 0 0 0 0 0 0 0 0 0.25 0"/>
<feBlend mode="normal" in2="BackgroundImageFix" result="effect1_dropShadow"/>
<feBlend mode="normal" in="SourceGraphic" in2="effect1_dropShadow" result="shape"/>
</filter>
</defs>
</svg>
