<svg width="101" height="24" viewBox="0 0 101 24" fill="none" xmlns="http://www.w3.org/2000/svg">
<path opacity="0.7" fill-rule="evenodd" clip-rule="evenodd" d="M5.17578 0.12207C2.41436 0.12207 0.175781 2.36065 0.175781 5.12207V23.8652H100.737V5.12207C100.737 2.36065 98.498 0.12207 95.7366 0.12207H5.17578Z" fill="black"/>
<path fill-rule="evenodd" clip-rule="evenodd" d="M7.74512 14.4935H11.979V21.0358L21.2128 9.49349H16.979V2.95117L7.74512 14.4935ZM13.6457 12.8268H11.2128L15.3123 7.70246V11.1601H17.7451L13.6457 16.2845V12.8268Z" fill="#FF2462"/>
<path d="M25.1681 8.22793H30.3401V9.71593H26.7041V11.5039H29.5121V12.9919H26.7041V16.6279H25.1681V8.22793ZM31.4728 8.22793H33.0088V15.2599H36.4648V16.6279H31.4728V8.22793ZM41.8288 14.6359H38.7688L38.0728 16.6279H36.5848L39.5728 8.22793H41.0248L44.0128 16.6279H42.5248L41.8288 14.6359ZM41.3488 13.2919L40.3048 10.2919L39.2488 13.2919H41.3488ZM47.4088 16.7959C46.9368 16.7959 46.4288 16.7319 45.8848 16.6039C45.3488 16.4759 44.9288 16.3359 44.6248 16.1839L44.8048 14.5519C45.8608 15.0639 46.7888 15.3199 47.5888 15.3199C48.0128 15.3199 48.3448 15.2399 48.5848 15.0799C48.8248 14.9119 48.9448 14.6679 48.9448 14.3479C48.9448 14.1079 48.8768 13.9119 48.7408 13.7599C48.6128 13.5999 48.4248 13.4679 48.1768 13.3639C47.9288 13.2519 47.5328 13.0999 46.9888 12.9079C46.4768 12.7319 46.0528 12.5479 45.7168 12.3559C45.3808 12.1559 45.1128 11.9039 44.9128 11.5999C44.7208 11.2879 44.6248 10.9079 44.6248 10.4599C44.6248 9.73993 44.8888 9.15993 45.4168 8.71993C45.9448 8.27993 46.7008 8.05993 47.6848 8.05993C48.1488 8.05993 48.6088 8.11193 49.0648 8.21593C49.5288 8.31993 49.9528 8.44793 50.3368 8.59993L50.1808 10.1719C49.6848 9.95593 49.2288 9.79593 48.8128 9.69193C48.4048 9.57993 47.9968 9.52393 47.5888 9.52393C47.1328 9.52393 46.7848 9.59993 46.5448 9.75193C46.3048 9.90393 46.1848 10.1239 46.1848 10.4119C46.1848 10.6359 46.2488 10.8199 46.3768 10.9639C46.5048 11.1079 46.6768 11.2279 46.8928 11.3239C47.1168 11.4199 47.4448 11.5359 47.8768 11.6719C48.8448 11.9759 49.5488 12.3279 49.9888 12.7279C50.4368 13.1199 50.6608 13.6599 50.6608 14.3479C50.6608 15.0039 50.4328 15.5759 49.9768 16.0639C49.5208 16.5519 48.6648 16.7959 47.4088 16.7959ZM51.9338 8.22793H53.4698V11.5519H57.3098V8.22793H58.8458V16.6279H57.3098V12.9919H53.4698V16.6279H51.9338V8.22793ZM65.8307 16.7959C65.3587 16.7959 64.8507 16.7319 64.3067 16.6039C63.7707 16.4759 63.3507 16.3359 63.0467 16.1839L63.2267 14.5519C64.2827 15.0639 65.2107 15.3199 66.0107 15.3199C66.4347 15.3199 66.7667 15.2399 67.0067 15.0799C67.2467 14.9119 67.3667 14.6679 67.3667 14.3479C67.3667 14.1079 67.2987 13.9119 67.1627 13.7599C67.0347 13.5999 66.8467 13.4679 66.5987 13.3639C66.3507 13.2519 65.9547 13.0999 65.4107 12.9079C64.8987 12.7319 64.4747 12.5479 64.1387 12.3559C63.8027 12.1559 63.5347 11.9039 63.3347 11.5999C63.1427 11.2879 63.0467 10.9079 63.0467 10.4599C63.0467 9.73993 63.3107 9.15993 63.8387 8.71993C64.3667 8.27993 65.1227 8.05993 66.1067 8.05993C66.5707 8.05993 67.0307 8.11193 67.4867 8.21593C67.9507 8.31993 68.3747 8.44793 68.7587 8.59993L68.6027 10.1719C68.1067 9.95593 67.6507 9.79593 67.2347 9.69193C66.8267 9.57993 66.4187 9.52393 66.0107 9.52393C65.5547 9.52393 65.2067 9.59993 64.9667 9.75193C64.7267 9.90393 64.6067 10.1239 64.6067 10.4119C64.6067 10.6359 64.6707 10.8199 64.7987 10.9639C64.9267 11.1079 65.0987 11.2279 65.3147 11.3239C65.5387 11.4199 65.8667 11.5359 66.2987 11.6719C67.2667 11.9759 67.9707 12.3279 68.4107 12.7279C68.8587 13.1199 69.0827 13.6599 69.0827 14.3479C69.0827 15.0039 68.8547 15.5759 68.3987 16.0639C67.9427 16.5519 67.0867 16.7959 65.8307 16.7959ZM74.7116 14.6359H71.6516L70.9556 16.6279H69.4676L72.4556 8.22793H73.9076L76.8956 16.6279H75.4076L74.7116 14.6359ZM74.2316 13.2919L73.1876 10.2919L72.1316 13.2919H74.2316ZM77.8556 8.22793H79.3916V15.2599H82.8476V16.6279H77.8556V8.22793ZM83.8556 8.22793H89.2316V9.71593H85.4276V11.5039H88.3796V12.9919H85.4276V15.1399H89.3516V16.6279H83.8556V8.22793Z" fill="#FF2462"/>
</svg>
