<svg width="16" height="19" viewBox="0 0 16 19" fill="none" xmlns="http://www.w3.org/2000/svg">
<path d="M0.0351562 9.09316C0.0351562 10.9812 1.56716 12.5132 3.45596 12.5132C5.34396 12.5132 6.87676 10.9812 6.87676 9.09316C6.87676 7.20356 5.34396 5.67156 3.45596 5.67156C1.56716 5.67156 0.0351562 7.20356 0.0351562 9.09316ZM4.59676 9.09316C4.59676 9.72276 4.08636 10.2332 3.45676 10.2332C2.82636 10.2332 2.31596 9.72276 2.31596 9.09316C2.31596 8.46276 2.82636 7.95236 3.45676 7.95236C4.08556 7.95236 4.59676 8.46276 4.59676 9.09316ZM12.1128 0.0163574C14.5072 2.30036 16 5.52196 16 9.09316C16 12.6636 14.5072 15.8836 12.1128 18.17L10.4288 16.6236C12.4512 14.7492 13.7192 12.07 13.7192 9.09316C13.7192 6.11636 12.4512 3.43636 10.4288 1.56196L12.1128 0.0163574ZM11.4376 9.09316C11.4376 6.70996 10.3944 4.57156 8.73836 3.10996L7.04556 4.66276C8.33356 5.70836 9.15756 7.30436 9.15756 9.09396C9.15756 10.882 8.33356 12.478 7.04556 13.5244L8.73836 15.0764C10.3952 13.614 11.4376 11.4748 11.4376 9.09316Z" fill="#454545"/>
</svg>
