<svg width="24" height="24" viewBox="0 0 24 24" fill="none" xmlns="http://www.w3.org/2000/svg">
<g clip-path="url(#clip0)">
<path d="M13.1565 10.1417L16.3734 5.53792L12.4589 1.8877L6.99219 3.85366L7.17417 9.00569L13.1565 10.1417Z" fill="#A1A1A1"/>
<path d="M11.0742 19.4707L14.0181 22.5369L19.1603 20.3417L20 15.7984L14.8955 15.1699L11.0742 19.4707Z" fill="#A1A1A1"/>
<path d="M0.761157 16.2963L0.82614 16.3758C2.57534 20.8384 6.91738 24 12.0001 24C18.6278 24 24 18.6278 24 12C24 5.37257 18.6277 0 12 0C5.37257 0 0 5.37291 0 12C0 13.4839 0.271154 14.9044 0.76377 16.2166L0.761157 16.2963ZM0.625629 12C0.625629 10.4845 0.926056 9.03857 1.46657 7.71473L4.30523 4.19278L5.04098 3.01299C6.96635 1.51869 9.38022 0.625677 12.0005 0.625677C12.0635 0.625677 12.1254 0.629548 12.1888 0.630225L13.4583 1.09783L16.2563 1.45487C18.048 2.18075 19.6151 3.34917 20.8196 4.82595L20.3537 6.85487L22.1921 12.0393L23.3665 12.3368C23.1862 18.4536 18.1593 23.3739 12.0004 23.3739C8.93396 23.3739 6.14931 22.1523 4.10147 20.1727L6.30912 18.2764L4.20226 12.8457L0.905831 11.7103L0.829623 14.1319C0.697724 13.4414 0.625629 12.7292 0.625629 12Z" fill="#A1A1A1"/>
</g>
<defs>
<clipPath id="clip0">
<rect width="24" height="24" fill="white"/>
</clipPath>
</defs>
</svg>
