<svg width="24" height="25" viewBox="0 0 24 25" fill="none" xmlns="http://www.w3.org/2000/svg">
<g clip-path="url(#clip0)">
<path d="M22.4919 14.0201C21.6313 13.1517 20.4935 12.6225 19.2858 12.5107C20.3283 11.5727 20.9855 10.219 20.9855 8.70638C20.9855 5.87669 18.6928 3.58398 15.8626 3.58398C13.16 3.58398 10.9473 5.67801 10.7549 8.33097C13.1595 9.37144 14.8473 11.7677 14.8473 14.5503C14.8473 15.5657 14.6162 16.5586 14.1858 17.46C14.8054 17.7831 15.3759 18.2014 15.8741 18.7033C17.1489 19.988 17.874 21.7641 17.8605 23.5742L17.8594 23.6113L17.8584 23.6427L17.8129 24.5002H23.9491L23.9998 17.7141C24.0103 16.3296 23.4681 15.002 22.4919 14.0201Z" fill="#737373"/>
<path d="M11.4968 18.3554C12.5383 17.4185 13.1987 16.0638 13.1987 14.5517C13.1987 11.721 10.9044 9.42773 8.07469 9.42773C5.24501 9.42773 2.95178 11.721 2.95178 14.5517C2.95178 16.0617 3.60901 17.4148 4.64896 18.3523C1.98502 18.5588 -0.118937 20.7648 -0.138283 23.481L-0.188477 24.5011H7.60099H16.1611L16.2119 23.5573C16.2223 22.1738 15.6785 20.8458 14.7029 19.8639C13.8402 18.9944 12.7035 18.4668 11.4968 18.3554Z" fill="#737373"/>
</g>
<defs>
<clipPath id="clip0">
<rect width="24" height="24" fill="white" transform="translate(0 0.5)"/>
</clipPath>
</defs>
</svg>
