<svg width="32" height="34" viewBox="0 0 32 34" fill="none" xmlns="http://www.w3.org/2000/svg">
<rect opacity="0.5" width="32" height="32" rx="16" fill="black"/>
<g filter="url(#filter0_d)">
<path d="M12.3328 24.2805L24.9222 11.6909C25.081 11.5321 25.3387 11.5321 25.4975 11.6909C25.6563 11.8496 25.6563 12.1074 25.4975 12.2662L12.9081 24.8558C12.749 25.0149 12.4915 25.0146 12.3328 24.8558C12.174 24.697 12.174 24.4393 12.3328 24.2805Z" fill="white"/>
<path d="M11.9275 18.6588C12.0051 18.5811 12.1133 18.5351 12.2318 18.5402C12.4562 18.5494 12.6311 18.7387 12.6216 18.9634L12.3817 24.766C18.2532 24.5405 18.2918 24.5572 18.4014 24.6046C18.6076 24.6941 18.7023 24.9337 18.6128 25.14C18.5403 25.3068 18.3683 25.4017 18.1954 25.3825C17.8649 25.3758 14.3115 25.5056 11.9729 25.5959C11.8596 25.5999 11.7497 25.5568 11.6691 25.4762C11.5889 25.396 11.546 25.2858 11.5506 25.1725L11.8084 18.9297C11.8127 18.8236 11.8578 18.7284 11.9275 18.6588Z" fill="white"/>
<path d="M19.0893 7.14507C19.2481 6.98629 19.5055 6.986 19.6646 7.14507C19.8234 7.30386 19.8234 7.5616 19.6646 7.72039L7.07719 20.3097C6.9184 20.4685 6.66095 20.4688 6.50188 20.3097C6.3431 20.1509 6.34281 19.8935 6.50188 19.7344L19.0893 7.14507Z" fill="white"/>
<path d="M13.4733 6.73384C13.5602 6.64697 13.683 6.60354 13.8058 6.61706C14.1375 6.62367 17.6906 6.4948 20.0289 6.40534C20.1422 6.40131 20.2521 6.44446 20.3327 6.52501C20.4126 6.60497 20.4558 6.71543 20.4506 6.82877L20.1932 13.0718C20.184 13.2962 19.9944 13.4708 19.77 13.4616C19.5456 13.4524 19.371 13.2628 19.3805 13.0381L19.6199 7.23552C13.7425 7.45989 13.7092 7.44493 13.5932 7.39229C13.3884 7.29967 13.2978 7.0589 13.3904 6.85409C13.4109 6.80777 13.4393 6.76779 13.4733 6.73384Z" fill="white"/>
</g>
<defs>
<filter id="filter0_d" x="2.38281" y="6.4043" width="27.234" height="27.1911" filterUnits="userSpaceOnUse" color-interpolation-filters="sRGB">
<feFlood flood-opacity="0" result="BackgroundImageFix"/>
<feColorMatrix in="SourceAlpha" type="matrix" values="0 0 0 0 0 0 0 0 0 0 0 0 0 0 0 0 0 0 127 0"/>
<feOffset dy="4"/>
<feGaussianBlur stdDeviation="2"/>
<feColorMatrix type="matrix" values="0 0 0 0 0 0 0 0 0 0 0 0 0 0 0 0 0 0 0.25 0"/>
<feBlend mode="normal" in2="BackgroundImageFix" result="effect1_dropShadow"/>
<feBlend mode="normal" in="SourceGraphic" in2="effect1_dropShadow" result="shape"/>
</filter>
</defs>
</svg>
