<svg width="18" height="20" viewBox="0 0 18 20" fill="none" xmlns="http://www.w3.org/2000/svg">
<path d="M11.6776 18.1828L0 8.5404L5.6044 7.9268L10.6176 1.8548L9.0016 0.5208L12.2484 0L17.7472 4.5404L17.8492 7.8256L16.2332 6.492L11.2196 12.5632L11.6776 18.1828ZM1.97 9.1296L10.7268 16.3604L10.3964 12.3044L16.1252 5.3656L16.9944 6.0828L16.9588 4.9264L12.0176 0.8472L10.8756 1.0304L11.744 1.7472L6.0144 8.6868L1.97 9.1296Z" fill="black"/>
<path d="M6.40204 13.3102L5.78516 12.8008L1.02036 18.5705L1.63724 19.0799L6.40204 13.3102Z" fill="black"/>
<path d="M9.88594 14.2083H9.08594V11.4691L14.1895 4.78906L14.8255 5.27466L9.88594 11.7395V14.2083Z" fill="black"/>
</svg>
