<svg width="23" height="25" viewBox="0 0 23 25" fill="none" xmlns="http://www.w3.org/2000/svg">
<path d="M15.0931 23.6972L0.496094 11.6442L7.50159 10.8772L13.7681 3.28725L11.7481 1.61975L15.8066 0.96875L22.6801 6.64425L22.8076 10.7507L20.7876 9.08375L14.5206 16.6728L15.0931 23.6972ZM2.95859 12.3807L13.9046 21.4192L13.4916 16.3492L20.6526 7.67575L21.7391 8.57225L21.6946 7.12675L15.5181 2.02775L14.0906 2.25675L15.1761 3.15275L8.01409 11.8273L2.95859 12.3807Z" fill="#FEFEFE"/>
<path d="M8.49766 17.6055L7.72656 16.9688L1.77057 24.1808L2.54167 24.8176L8.49766 17.6055Z" fill="#FEFEFE"/>
<path d="M12.8528 18.731H11.8528V15.307L18.2323 6.95703L19.0273 7.56403L12.8528 15.645V18.731Z" fill="#FEFEFE"/>
</svg>
