<svg width="23" height="23" viewBox="0 0 23 23" fill="none" xmlns="http://www.w3.org/2000/svg">
<mask id="path-1-outside-1" maskUnits="userSpaceOnUse" x="0.164551" y="0.0976562" width="23" height="22" fill="black">
<rect fill="white" x="0.164551" y="0.0976562" width="23" height="22"/>
<path fill-rule="evenodd" clip-rule="evenodd" d="M1.16455 11.0977C1.16455 16.6205 5.65162 21.0977 11.1867 21.0977C16.7218 21.0977 21.2089 16.6205 21.2089 11.0977C21.2089 5.57481 16.7218 1.09766 11.1867 1.09766C5.65162 1.09766 1.16455 5.57481 1.16455 11.0977ZM19.387 11.0959C19.387 15.6146 15.7157 19.2777 11.187 19.2777C6.65833 19.2777 2.98709 15.6146 2.98709 11.0959C2.98709 6.57719 6.65833 2.91406 11.187 2.91406C15.7157 2.91406 19.387 6.57719 19.387 11.0959ZM12.1013 12.9176H13.0118V14.7358H9.36741V12.9176H10.2785V11.0994H9.36741V9.28125H12.1013V12.9176ZM12.0985 7.45987C12.0985 7.96195 11.6904 8.36896 11.1871 8.36896C10.6837 8.36896 10.2757 7.96195 10.2757 7.45987C10.2757 6.9578 10.6837 6.55078 11.1871 6.55078C11.6904 6.55078 12.0985 6.9578 12.0985 7.45987Z"/>
</mask>
<path fill-rule="evenodd" clip-rule="evenodd" d="M1.16455 11.0977C1.16455 16.6205 5.65162 21.0977 11.1867 21.0977C16.7218 21.0977 21.2089 16.6205 21.2089 11.0977C21.2089 5.57481 16.7218 1.09766 11.1867 1.09766C5.65162 1.09766 1.16455 5.57481 1.16455 11.0977ZM19.387 11.0959C19.387 15.6146 15.7157 19.2777 11.187 19.2777C6.65833 19.2777 2.98709 15.6146 2.98709 11.0959C2.98709 6.57719 6.65833 2.91406 11.187 2.91406C15.7157 2.91406 19.387 6.57719 19.387 11.0959ZM12.1013 12.9176H13.0118V14.7358H9.36741V12.9176H10.2785V11.0994H9.36741V9.28125H12.1013V12.9176ZM12.0985 7.45987C12.0985 7.96195 11.6904 8.36896 11.1871 8.36896C10.6837 8.36896 10.2757 7.96195 10.2757 7.45987C10.2757 6.9578 10.6837 6.55078 11.1871 6.55078C11.6904 6.55078 12.0985 6.9578 12.0985 7.45987Z" fill="#737373"/>
<path d="M13.0118 12.9176H14.0118V11.9176H13.0118V12.9176ZM12.1013 12.9176H11.1013V13.9176H12.1013V12.9176ZM13.0118 14.7358V15.7358H14.0118V14.7358H13.0118ZM9.36741 14.7358H8.36741V15.7358H9.36741V14.7358ZM9.36741 12.9176V11.9176H8.36741V12.9176H9.36741ZM10.2785 12.9176V13.9176H11.2785V12.9176H10.2785ZM10.2785 11.0994H11.2785V10.0994H10.2785V11.0994ZM9.36741 11.0994H8.36741V12.0994H9.36741V11.0994ZM9.36741 9.28125V8.28125H8.36741V9.28125H9.36741ZM12.1013 9.28125H13.1013V8.28125H12.1013V9.28125ZM11.1867 20.0977C6.20182 20.0977 2.16455 16.0661 2.16455 11.0977H0.164551C0.164551 17.1749 5.10142 22.0977 11.1867 22.0977V20.0977ZM20.2089 11.0977C20.2089 16.0661 16.1716 20.0977 11.1867 20.0977V22.0977C17.272 22.0977 22.2089 17.1749 22.2089 11.0977H20.2089ZM11.1867 2.09766C16.1716 2.09766 20.2089 6.12918 20.2089 11.0977H22.2089C22.2089 5.02044 17.272 0.0976562 11.1867 0.0976562V2.09766ZM2.16455 11.0977C2.16455 6.12918 6.20182 2.09766 11.1867 2.09766V0.0976562C5.10142 0.0976562 0.164551 5.02044 0.164551 11.0977H2.16455ZM11.187 20.2777C16.2659 20.2777 20.387 16.1689 20.387 11.0959H18.387C18.387 15.0602 15.1655 18.2777 11.187 18.2777V20.2777ZM1.98709 11.0959C1.98709 16.1689 6.10813 20.2777 11.187 20.2777V18.2777C7.20853 18.2777 3.98709 15.0602 3.98709 11.0959H1.98709ZM11.187 1.91406C6.10813 1.91406 1.98709 6.02282 1.98709 11.0959H3.98709C3.98709 7.13156 7.20853 3.91406 11.187 3.91406V1.91406ZM20.387 11.0959C20.387 6.02282 16.2659 1.91406 11.187 1.91406V3.91406C15.1655 3.91406 18.387 7.13156 18.387 11.0959H20.387ZM13.0118 11.9176H12.1013V13.9176H13.0118V11.9176ZM14.0118 14.7358V12.9176H12.0118V14.7358H14.0118ZM9.36741 15.7358H13.0118V13.7358H9.36741V15.7358ZM8.36741 12.9176V14.7358H10.3674V12.9176H8.36741ZM10.2785 11.9176H9.36741V13.9176H10.2785V11.9176ZM9.27851 11.0994V12.9176H11.2785V11.0994H9.27851ZM9.36741 12.0994H10.2785V10.0994H9.36741V12.0994ZM8.36741 9.28125V11.0994H10.3674V9.28125H8.36741ZM12.1013 8.28125H9.36741V10.2812H12.1013V8.28125ZM13.1013 12.9176V9.28125H11.1013V12.9176H13.1013ZM11.1871 9.36896C12.2403 9.36896 13.0985 8.51663 13.0985 7.45987H11.0985C11.0985 7.40727 11.1405 7.36896 11.1871 7.36896V9.36896ZM9.27566 7.45987C9.27566 8.51663 10.1338 9.36896 11.1871 9.36896V7.36896C11.2336 7.36896 11.2757 7.40727 11.2757 7.45987H9.27566ZM11.1871 5.55078C10.1338 5.55078 9.27566 6.40312 9.27566 7.45987H11.2757C11.2757 7.51247 11.2336 7.55078 11.1871 7.55078V5.55078ZM13.0985 7.45987C13.0985 6.40312 12.2403 5.55078 11.1871 5.55078V7.55078C11.1405 7.55078 11.0985 7.51247 11.0985 7.45987H13.0985Z" fill="black" fill-opacity="0.07" mask="url(#path-1-outside-1)"/>
</svg>
