<svg width="21" height="21" viewBox="0 0 21 21" fill="none" xmlns="http://www.w3.org/2000/svg">
<path fill-rule="evenodd" clip-rule="evenodd" d="M5.37386 5.35579H7.04053V4.52246H13.7072V5.35579H15.3739V4.52246H17.0405V7.02246H3.70719V4.52246H5.37386V5.35579ZM3.70719 8.68913V17.0225H17.0405V8.68913H3.70719ZM7.04053 2.85579H13.7072V2.02246H15.3739V2.85579H17.0405C17.961 2.85579 18.7072 3.60199 18.7072 4.52246V17.0225C18.7072 17.9429 17.961 18.6891 17.0405 18.6891H3.70719C2.78672 18.6891 2.04053 17.9429 2.04053 17.0225V4.52246C2.04053 3.60199 2.78672 2.85579 3.70719 2.85579H5.37386V2.02246H7.04053V2.85579Z" fill="#737373"/>
</svg>
