<svg width="11" height="15" viewBox="0 0 11 15" fill="none" xmlns="http://www.w3.org/2000/svg">
<path d="M9.92854 14.9994H1.07104C0.816664 14.9994 0.583226 14.8988 0.414164 14.7163C0.245101 14.5338 0.162601 14.2934 0.181976 14.04L0.972914 3.65406C1.01104 3.15125 1.4526 2.74219 1.95698 2.74219H9.28135C9.78916 2.74219 10.2254 3.15469 10.2529 3.66156L10.8304 14.0456C10.8448 14.2984 10.7582 14.5372 10.5867 14.7184C10.4151 14.8997 10.1814 14.9994 9.92854 14.9994ZM1.95698 3.36719C1.77479 3.36719 1.60979 3.52031 1.59604 3.70125L0.805101 14.0875C0.799164 14.1656 0.823226 14.2378 0.872601 14.2913C0.922289 14.3447 0.992601 14.3744 1.07104 14.3744H9.92854C10.0079 14.3744 10.0804 14.3438 10.1326 14.2888C10.1848 14.2338 10.211 14.1597 10.2067 14.0803L9.62948 3.69625C9.61948 3.51781 9.46041 3.36719 9.28166 3.36719H1.95698Z" fill="black"/>
<path d="M7.90047 4.23812C7.72766 4.23812 7.58797 4.09812 7.58797 3.92562C7.58797 2.10562 6.65078 0.625 5.49891 0.625C4.34703 0.625 3.41016 2.10562 3.41016 3.92562C3.41016 4.09812 3.27016 4.23812 3.09766 4.23812C2.92516 4.23812 2.78516 4.09812 2.78516 3.92562C2.78516 1.76094 4.00234 0 5.49891 0C6.99547 0 8.21297 1.76094 8.21297 3.92562C8.21297 4.09812 8.07297 4.23812 7.90047 4.23812Z" fill="black"/>
</svg>
