<svg width="21" height="21" viewBox="0 0 21 21" fill="none" xmlns="http://www.w3.org/2000/svg">
<path fill-rule="evenodd" clip-rule="evenodd" d="M5.66309 9.27344C3.59202 9.27344 1.91309 7.59451 1.91309 5.52344C1.91309 3.45237 3.59202 1.77344 5.66309 1.77344C7.73415 1.77344 9.41309 3.45237 9.41309 5.52344C9.41309 7.59451 7.73415 9.27344 5.66309 9.27344ZM1.91309 14.6901C1.91309 16.7612 3.59202 18.4401 5.66309 18.4401C7.73415 18.4401 9.41309 16.7612 9.41309 14.6901C9.41309 12.619 7.73415 10.9401 5.66309 10.9401C3.59202 10.9401 1.91309 12.619 1.91309 14.6901ZM11.0798 14.6901C11.0798 16.7612 12.7587 18.4401 14.8298 18.4401C16.9008 18.4401 18.5798 16.7612 18.5798 14.6901C18.5798 12.619 16.9008 10.9401 14.8298 10.9401C12.7587 10.9401 11.0798 12.619 11.0798 14.6901ZM11.0798 5.52344C11.0798 7.59451 12.7587 9.27344 14.8298 9.27344C16.9008 9.27344 18.5798 7.59451 18.5798 5.52344C18.5798 3.45237 16.9008 1.77344 14.8298 1.77344C12.7587 1.77344 11.0798 3.45237 11.0798 5.52344ZM14.8298 7.60677C15.9803 7.60677 16.9131 6.67403 16.9131 5.52344C16.9131 4.37284 15.9803 3.4401 14.8298 3.4401C13.6792 3.4401 12.7464 4.37284 12.7464 5.52344C12.7464 6.67403 13.6792 7.60677 14.8298 7.60677ZM7.74642 5.52344C7.74642 6.67403 6.81368 7.60677 5.66309 7.60677C4.51249 7.60677 3.57975 6.67403 3.57975 5.52344C3.57975 4.37284 4.51249 3.4401 5.66309 3.4401C6.81368 3.4401 7.74642 4.37284 7.74642 5.52344ZM14.8298 16.7734C15.9803 16.7734 16.9131 15.8407 16.9131 14.6901C16.9131 13.5395 15.9803 12.6068 14.8298 12.6068C13.6792 12.6068 12.7464 13.5395 12.7464 14.6901C12.7464 15.8407 13.6792 16.7734 14.8298 16.7734ZM7.74642 14.6901C7.74642 15.8407 6.81368 16.7734 5.66309 16.7734C4.51249 16.7734 3.57975 15.8407 3.57975 14.6901C3.57975 13.5395 4.51249 12.6068 5.66309 12.6068C6.81368 12.6068 7.74642 13.5395 7.74642 14.6901Z" fill="#A1A1A1"/>
</svg>
