<svg width="25" height="25" viewBox="0 0 25 25" fill="none" xmlns="http://www.w3.org/2000/svg">
<path d="M16.6484 22.0788C16.6715 22.0671 16.6957 22.0564 16.7188 22.0457C16.71 22.0329 16.7012 22.0222 16.6935 22.0094C16.6803 22.0297 16.6627 22.0575 16.6484 22.0788Z" fill="#454545"/>
<path d="M12.1467 21.7435C10.3242 21.7435 8.62582 21.2353 7.1768 20.3693C8.48083 20.3821 6.20676 18.4408 7.77333 18.1429C9.4168 17.8289 10.1089 16.002 9.58267 16.0297C9.05755 16.0564 8.05787 15.7659 7.35474 14.9074C6.65055 14.0425 6.03426 14.24 5.30812 14.3757C4.67314 14.4974 3.89098 16.2827 3.69653 16.7515C3.20217 15.8311 2.86711 14.8198 2.71549 13.751C3.52185 13.341 4.83795 12.6511 5.31362 12.2699C6.0145 11.705 5.0796 11.4765 4.96425 11.1359C4.85002 10.7953 4.96425 10.0019 4.96425 9.21389C4.96425 8.41838 6.59672 8.41838 7.17568 7.62714C7.59202 7.06226 6.82962 5.81614 6.35394 5.14127C7.96115 3.93891 9.96713 3.21602 12.1467 3.21602C12.7246 3.21602 13.2881 3.27473 13.8385 3.37087C14 4.34686 14.3362 5.68907 14.9855 6.0393C16.0368 6.60526 17.3089 7.85138 17.7791 8.07558C18.2471 8.30195 18.826 10.2304 18.7118 11.0227C18.6294 11.5822 17.9153 12.1983 17.6231 12.791L22.4788 15.7317C22.8216 14.7066 23.0105 13.6164 23.0105 12.4813C23.0105 6.65971 18.135 1.92505 12.1479 1.92505C6.15731 1.92505 1.28516 6.65971 1.28516 12.4814C1.28516 18.3041 6.15731 23.0409 12.1479 23.0409C12.3753 23.0409 12.5971 23.0206 12.8213 23.0078L12.5675 21.7222C12.4269 21.7286 12.2885 21.7435 12.1467 21.7435ZM21.5604 13.8482C21.355 13.0558 20.9573 12.2913 20.1114 11.7008C19.5324 11.3036 19.0601 9.55021 19.4116 8.98217C19.6214 8.64367 20.1674 8.34576 20.5695 8.15998C21.2737 9.45095 21.6758 10.9202 21.6758 12.4814C21.6758 12.947 21.6285 13.4008 21.5604 13.8482Z" fill="#454545"/>
<path d="M18.7519 18.4802L23.2879 17.6013L11.9243 10.7194L11.6562 10.9009L14.1862 23.6772L16.6558 19.879L19.0507 23.2704C19.5055 23.9089 20.3404 24.115 20.9194 23.7295C21.495 23.3429 21.5983 22.51 21.1468 21.8704L18.7519 18.4802Z" fill="#454545"/>
</svg>
