<svg width="25" height="25" viewBox="0 0 25 25" fill="none" xmlns="http://www.w3.org/2000/svg">
<path fill-rule="evenodd" clip-rule="evenodd" d="M20.7111 3.77539H4.34748C3.34332 3.77539 2.5293 4.67082 2.5293 5.77539V7.77539C2.5293 8.87996 3.34332 9.77539 4.34748 9.77539H20.7111C21.7153 9.77539 22.5293 8.87996 22.5293 7.77539V5.77539C22.5293 4.67082 21.7153 3.77539 20.7111 3.77539ZM4.34748 11.7754H20.7111C21.7153 11.7754 22.5293 12.6708 22.5293 13.7754V15.7754C22.5293 16.88 21.7153 17.7754 20.7111 17.7754H4.34748C3.34332 17.7754 2.5293 16.88 2.5293 15.7754V13.7754C2.5293 12.6708 3.34332 11.7754 4.34748 11.7754ZM4.5293 13.7754V15.7754H20.5293V13.7754H4.5293ZM4.5293 5.77539V7.77539H20.5293V5.77539H4.5293ZM14.5293 19.7754H2.5293V21.7754H14.5293V19.7754Z" fill="#737373"/>
</svg>
