<svg width="19" height="19" viewBox="0 0 19 19" fill="none" xmlns="http://www.w3.org/2000/svg">
<path fill-rule="evenodd" clip-rule="evenodd" d="M15.7656 16.7852H4.51562C3.27298 16.7852 2.26562 15.7778 2.26562 14.5352V4.03516C2.26562 2.79252 3.27298 1.78516 4.51562 1.78516H15.7656V13.7852C15.3514 13.7852 15.0156 14.1209 15.0156 14.5352C15.0156 14.9494 15.3514 15.2852 15.7656 15.2852V16.7852ZM13.5156 14.5352C13.5156 14.2722 13.5607 14.0197 13.6437 13.7852H4.51562C4.10141 13.7852 3.76562 14.1209 3.76562 14.5352C3.76562 14.9494 4.10141 15.2852 4.51562 15.2852H13.6437C13.5607 15.0506 13.5156 14.7981 13.5156 14.5352ZM4.51562 3.28516H14.2656V12.2852H4.51562C4.25265 12.2852 4.00021 12.3303 3.76562 12.4132V4.03516C3.76562 3.62094 4.10141 3.28516 4.51562 3.28516Z" fill="#A1A1A1"/>
</svg>
