<svg width="24" height="24" viewBox="0 0 24 24" fill="none" xmlns="http://www.w3.org/2000/svg">
<path d="M21.128 23.9831H2.87305V11.4766H3.69905V23.1566H20.302V11.4766H21.128V23.9831Z" fill="#737373"/>
<path d="M0.581 12.4531L0 11.8656L12 0.015625L24 11.8656L23.419 12.4531L12 1.17713L0.581 12.4531Z" fill="#737373"/>
<path d="M15.7029 23.5706H14.8769V14.5001C14.8769 13.9436 14.4239 13.4901 13.8669 13.4901H10.1324C9.57487 13.4901 9.12187 13.9431 9.12187 14.5001V23.5706H8.29688V14.5001C8.29688 13.4886 9.11988 12.6641 10.1329 12.6641H13.8674C14.8799 12.6641 15.7034 13.4881 15.7034 14.5001V23.5706H15.7029Z" fill="#737373"/>
</svg>
