<svg width="21" height="21" viewBox="0 0 21 21" fill="none" xmlns="http://www.w3.org/2000/svg">
<path fill-rule="evenodd" clip-rule="evenodd" d="M16.8311 4.354V13.5207C17.7515 13.5207 18.4977 12.7745 18.4977 11.854V3.52067C18.4977 2.6002 17.7515 1.854 16.8311 1.854H8.49772C7.57725 1.854 6.83105 2.6002 6.83105 3.52067H15.9977C16.458 3.52067 16.8311 3.89377 16.8311 4.354ZM14.3311 16.0207V6.854C14.3311 6.39377 13.958 6.02067 13.4977 6.02067H4.33105C4.33105 5.1002 5.07725 4.354 5.99772 4.354H14.3311C15.2515 4.354 15.9977 5.1002 15.9977 6.02067V14.354C15.9977 15.2745 15.2515 16.0207 14.3311 16.0207ZM11.8311 6.854H3.49772C2.57725 6.854 1.83105 7.6002 1.83105 8.52067V16.854C1.83105 17.7745 2.57725 18.5207 3.49772 18.5207H11.8311C12.7515 18.5207 13.4977 17.7745 13.4977 16.854V8.52067C13.4977 7.6002 12.7515 6.854 11.8311 6.854ZM3.49772 16.854V8.52067H11.8311V16.854H3.49772Z" fill="#737373"/>
</svg>
