<svg width="26" height="26" viewBox="0 0 26 26" fill="none" xmlns="http://www.w3.org/2000/svg">
<path fill-rule="evenodd" clip-rule="evenodd" d="M11.761 9.03289C12.3223 8.2765 12.5235 7.47932 11.8887 6.77566C10.4642 4.78235 9.50616 3.5497 8.90524 2.95608C7.7628 1.82753 5.88346 1.98019 4.89403 2.95511C4.36259 3.47876 4.18268 3.65858 3.63701 4.21282C0.597556 7.25391 2.45117 13.6827 7.37876 18.6151C12.3052 23.5464 18.7334 25.401 21.7792 22.3535C22.2827 21.8681 22.7091 21.4415 23.0453 21.0861C24.0149 20.0613 24.1621 18.2649 23.0389 17.0978C22.4631 16.4994 21.2876 15.5877 19.2104 14.1018C18.5742 13.533 17.8199 13.6563 17.1284 14.11C16.7957 14.3282 16.5536 14.549 16.0965 15.0066L15.2664 15.8371C15.1571 15.9465 13.6725 15.203 12.2314 13.7605C10.7894 12.3172 10.0465 10.8325 10.1553 10.7237C10.3797 10.4993 10.6566 10.2222 10.986 9.89254C11.131 9.74736 11.2003 9.67708 11.2893 9.58362C11.4745 9.38892 11.6279 9.21222 11.761 9.03289ZM16.7976 17.3692L17.6279 16.5385C17.8795 16.2866 18.0425 16.1318 18.1752 16.025C19.9948 17.3318 21.0486 18.1534 21.4791 18.6007C21.7375 18.8692 21.6974 19.3592 21.4727 19.5966C21.1618 19.9253 20.7578 20.3294 20.2621 20.8075C18.2926 22.7779 13.1036 21.2808 8.91031 17.0834C4.71566 12.8846 3.2193 7.69486 5.17397 5.73911C5.71744 5.18714 5.88963 5.01504 6.41347 4.49888C6.60989 4.30534 7.1449 4.26188 7.38384 4.49791C7.84649 4.95494 8.70471 6.05382 9.96719 7.81244C9.90183 7.89358 9.8202 7.98528 9.72087 8.08968C9.64796 8.16631 9.58721 8.22788 9.45442 8.36081C9.12529 8.69026 8.84867 8.96703 8.62456 9.19112C7.21282 10.6027 8.41511 13.0053 10.6998 15.2922C12.9829 17.5776 15.3864 18.7812 16.7976 17.3692Z" fill="#454545"/>
</svg>
