<svg width="24" height="24" viewBox="0 0 24 24" fill="none" xmlns="http://www.w3.org/2000/svg">
<path d="M20 23.5H4C2.07064 23.5 0.5 21.9294 0.5 20V4C0.5 2.07064 2.07064 0.5 4 0.5H20C21.9294 0.5 23.5 2.07064 23.5 4V20C23.5 21.9294 21.9294 23.5 20 23.5Z" fill="white" stroke="white"/>
<g clip-path="url(#clip0)">
<path fill-rule="evenodd" clip-rule="evenodd" d="M7.83333 11.1665V13.1665H11.1417C11.0083 14.024 10.1417 15.6832 7.83333 15.6832C5.84167 15.6832 4.21667 14.034 4.21667 11.9998C4.21667 9.9665 5.84167 8.3165 7.83333 8.3165C8.96667 8.3165 9.725 8.79984 10.1583 9.2165L11.7417 7.6915C10.725 6.7415 9.40833 6.1665 7.83333 6.1665C4.60833 6.1665 2 8.77484 2 11.9998C2 15.2248 4.60833 17.8332 7.83333 17.8332C11.2 17.8332 13.4342 15.4665 13.4342 12.1332C13.4342 11.7498 13.3917 11.4582 13.3417 11.1665H7.83333V11.1665ZM7.83333 11.1665L22 12.8332H19.5V15.3332H17.8333V12.8332H15.3333V11.1665H17.8333V8.6665H19.5V11.1665H22V12.8332L7.83333 11.1665Z" fill="#DD4B39"/>
</g>
<defs>
<clipPath id="clip0">
<rect width="20" height="20" fill="white" transform="translate(2 2)"/>
</clipPath>
</defs>
</svg>
