<svg width="24" height="24" viewBox="0 0 24 24" fill="none" xmlns="http://www.w3.org/2000/svg">
<path d="M21.2795 21.125H2.7215C1.221 21.125 0 19.9045 0 18.4045V5.5955C0 4.0955 1.221 2.875 2.7215 2.875H21.2795C22.7795 2.875 24 4.0955 24 5.5955V18.4045C24 19.9045 22.7795 21.125 21.2795 21.125ZM2.7215 3.875C1.772 3.875 1 4.6465 1 5.5955V18.4045C1 19.353 1.772 20.125 2.7215 20.125H21.2795C22.228 20.125 23 19.353 23 18.4045V5.5955C23 4.647 22.228 3.875 21.2795 3.875H2.7215Z" fill="black"/>
<path d="M11.5057 12.6419L1.13672 4.16038L1.77022 3.38638L11.5102 11.3534L21.8852 2.98438L22.5127 3.76237L11.5057 12.6419Z" fill="black"/>
</svg>
