<svg width="21" height="21" viewBox="0 0 21 21" fill="none" xmlns="http://www.w3.org/2000/svg">
<path d="M10.9485 20.25C5.70985 20.25 1.44727 15.9872 1.44727 10.75C1.44727 5.51244 5.70984 1.25 10.9485 1.25C16.185 1.25 20.4473 5.51235 20.4473 10.75C20.4473 15.9873 16.185 20.25 10.9485 20.25Z" fill="#FF2462" stroke="white"/>
<mask id="path-2-inside-1" fill="white">
<path d="M9.55899 13.9968C9.44191 13.9968 9.32608 13.9476 9.24442 13.8535L5.82498 9.92139C5.67373 9.74764 5.69248 9.48472 5.86581 9.33347C6.03955 9.18181 6.30246 9.20097 6.4537 9.37431L9.62899 13.0256L16.7258 8.13264C16.9141 8.00139 17.1737 8.04931 17.3053 8.23931C17.4357 8.42889 17.3882 8.68806 17.1987 8.81889L9.79523 13.9231C9.72357 13.9726 9.64107 13.9968 9.55899 13.9968Z"/>
</mask>
<path d="M9.55899 13.9968C9.44191 13.9968 9.32608 13.9476 9.24442 13.8535L5.82498 9.92139C5.67373 9.74764 5.69248 9.48472 5.86581 9.33347C6.03955 9.18181 6.30246 9.20097 6.4537 9.37431L9.62899 13.0256L16.7258 8.13264C16.9141 8.00139 17.1737 8.04931 17.3053 8.23931C17.4357 8.42889 17.3882 8.68806 17.1987 8.81889L9.79523 13.9231C9.72357 13.9726 9.64107 13.9968 9.55899 13.9968Z" fill="white"/>
<path d="M9.24442 13.8535L9.9999 13.1983L9.999 13.1973L9.24442 13.8535ZM5.82498 9.92139L6.57956 9.26518L6.57925 9.26482L5.82498 9.92139ZM5.86581 9.33347L6.5233 10.0869L6.52343 10.0868L5.86581 9.33347ZM6.4537 9.37431L7.20828 8.71809L7.20719 8.71684L6.4537 9.37431ZM9.62899 13.0256L8.87441 13.6818L9.46085 14.3561L10.1966 13.8488L9.62899 13.0256ZM16.7258 8.13264L17.2934 8.95594L17.2975 8.95305L16.7258 8.13264ZM17.3053 8.23931L18.1292 7.67256L18.1273 7.66974L17.3053 8.23931ZM17.1987 8.81889L17.7663 9.64219L17.7667 9.64192L17.1987 8.81889ZM9.79523 13.9231L9.22762 13.0998L9.22625 13.1007L9.79523 13.9231ZM9.55899 12.9968C9.72055 12.9968 9.88437 13.0651 9.9999 13.1983L8.48894 14.5086C8.7678 14.8302 9.16327 14.9968 9.55899 14.9968V12.9968ZM9.999 13.1973L6.57956 9.26518L5.0704 10.5776L8.48984 14.5097L9.999 13.1973ZM6.57925 9.26482C6.79201 9.50925 6.76377 9.87709 6.5233 10.0869L5.20832 8.58001C4.6212 9.09235 4.55545 9.98603 5.07071 10.578L6.57925 9.26482ZM6.52343 10.0868C6.27742 10.3016 5.90895 10.271 5.70021 10.0318L7.20719 8.71684C6.69596 8.13095 5.80169 8.06204 5.20819 8.58013L6.52343 10.0868ZM5.69913 10.0305L8.87441 13.6818L10.3836 12.3693L7.20828 8.71809L5.69913 10.0305ZM10.1966 13.8488L17.2934 8.95593L16.1582 7.30935L9.06136 12.2023L10.1966 13.8488ZM17.2975 8.95305C17.0256 9.1426 16.6625 9.06731 16.4834 8.80888L18.1273 7.66974C17.6849 7.03131 16.8026 6.86018 16.154 7.31223L17.2975 8.95305ZM16.4814 8.80605C16.2995 8.54159 16.3657 8.17873 16.6307 7.99586L17.7667 9.64192C18.4108 9.19738 18.572 8.31619 18.1292 7.67256L16.4814 8.80605ZM16.6311 7.99559L9.22762 13.0998L10.3628 14.7464L17.7663 9.64219L16.6311 7.99559ZM9.22625 13.1007C9.327 13.031 9.4442 12.9968 9.55899 12.9968V14.9968C9.83793 14.9968 10.1201 14.9143 10.3642 14.7454L9.22625 13.1007Z" fill="white" mask="url(#path-2-inside-1)"/>
</svg>
