<svg width="49" height="48" viewBox="0 0 49 48" fill="none" xmlns="http://www.w3.org/2000/svg">
<path d="M24.501 48C24.1825 48 23.8834 47.854 23.6905 47.607L0.209949 17.543C-0.0912015 17.158 -0.0656803 16.616 0.269158 16.259L15.2276 0.323C15.4206 0.117 15.6931 0 15.979 0H33.0241C33.3099 0 33.5825 0.117 33.7754 0.323L48.7308 16.259C49.0657 16.616 49.0912 17.158 48.7901 17.543L25.3116 47.607C25.1186 47.854 24.8195 48 24.501 48ZM2.35169 16.995L24.501 45.354L46.6483 16.995L32.5749 2H16.4271L2.35169 16.995Z" fill="black"/>
<path d="M45.9788 18H3.02117C2.45749 18 2 17.552 2 17C2 16.448 2.45749 16 3.02117 16H45.9788C46.5435 16 47 16.448 47 17C47 17.552 46.5435 18 45.9788 18Z" fill="black"/>
<path d="M24.9945 47C24.5797 47 24.1911 46.7375 24.0464 46.3183L14.0564 17.359C14.0052 17.2104 13.9881 17.0507 14.0082 16.894L15.8983 1.88938C15.9686 1.33184 16.4758 0.937086 17.0222 1.0083C17.5726 1.07952 17.9622 1.58924 17.8919 2.14678L16.0319 16.9134L25.9436 45.6469C26.1264 46.1769 25.8502 46.7579 25.3269 46.943C25.2165 46.9827 25.104 47 24.9945 47Z" fill="black"/>
<path d="M25.0045 47C24.895 47 24.7825 46.9817 24.6731 46.943C24.1498 46.7568 23.8736 46.1769 24.0564 45.6468L33.9691 16.9124L32.1091 2.14539C32.0398 1.58784 32.4285 1.07912 32.9788 1.0079C33.5332 0.938716 34.0324 1.33145 34.1027 1.889L35.9918 16.8941C36.0119 17.0508 35.9948 17.2095 35.9436 17.3591L25.9536 46.3193C25.8079 46.7375 25.4193 47 25.0045 47Z" fill="black"/>
</svg>
