<svg width="31" height="31" viewBox="0 0 31 31" fill="none" xmlns="http://www.w3.org/2000/svg">
<g filter="url(#filter0_d)">
<path fill-rule="evenodd" clip-rule="evenodd" d="M6.01961 2.92773L4.60539 4.34195L8.89829 8.63484H6.3125C5.20793 8.63484 4.3125 9.53027 4.3125 10.6348V16.6348C4.3125 17.7394 5.20793 18.6348 6.3125 18.6348H10.0764L17.3125 22.2529V17.0491L24.6054 24.3419L26.0196 22.9277L6.01961 2.92773ZM15.3125 15.0491L11.3125 11.0491V17.0168L15.3125 19.0168V15.0491ZM15.3125 8.25288V9.42063L17.3125 11.4206V5.01681L13.0433 7.15141L14.534 8.64213L15.3125 8.25288ZM9.3125 10.6348H6.3125V16.6348H9.3125V10.6348Z" fill="white"/>
</g>
<defs>
<filter id="filter0_d" x="-0.6875" y="-0.365234" width="32" height="32" filterUnits="userSpaceOnUse" color-interpolation-filters="sRGB">
<feFlood flood-opacity="0" result="BackgroundImageFix"/>
<feColorMatrix in="SourceAlpha" type="matrix" values="0 0 0 0 0 0 0 0 0 0 0 0 0 0 0 0 0 0 127 0"/>
<feOffset dy="2"/>
<feGaussianBlur stdDeviation="2"/>
<feColorMatrix type="matrix" values="0 0 0 0 0 0 0 0 0 0 0 0 0 0 0 0 0 0 0.5 0"/>
<feBlend mode="normal" in2="BackgroundImageFix" result="effect1_dropShadow"/>
<feBlend mode="normal" in="SourceGraphic" in2="effect1_dropShadow" result="shape"/>
</filter>
</defs>
</svg>
