<svg width="48" height="48" viewBox="0 0 48 48" fill="none" xmlns="http://www.w3.org/2000/svg">
<path d="M36.2699 43.854H24.6909C24.1389 43.854 23.6909 43.407 23.6909 42.854V40.605C17.5449 37.924 13.4629 31.74 13.4629 25.002C13.4629 24.45 13.9109 24.002 14.4629 24.002H46.4969C47.0499 24.002 47.4969 24.45 47.4969 25.002C47.4969 31.849 43.5059 37.9 37.2679 40.606V42.854C37.2699 43.406 36.8219 43.854 36.2699 43.854ZM25.6909 41.854H35.2689V39.936C35.2689 39.523 35.5229 39.153 35.9079 39.003C41.4209 36.865 45.0879 31.829 45.4659 26.002H15.4979C15.8899 31.754 19.6299 36.899 25.0529 39.003C25.4379 39.152 25.6919 39.523 25.6919 39.936V41.854H25.6909Z" fill="black"/>
<path d="M41.9893 15.094L2.73535 4.18359L2.19975 6.11059L41.4537 17.021L41.9893 15.094Z" fill="black"/>
<path d="M41.2949 18.6931L0.52002 17.8896L0.48062 19.8892L41.2555 20.6927L41.2949 18.6931Z" fill="black"/>
<path d="M24.2402 23.5399H22.2402V12.1209C22.2402 10.4019 23.6362 9.00391 25.3512 9.00391H25.5622C27.2802 9.00391 28.6772 10.4019 28.6772 12.1209V20.3359H26.6772V12.1209C26.6772 11.5049 26.1772 11.0039 25.5622 11.0039H25.3512C24.7392 11.0039 24.2402 11.5049 24.2402 12.1209V23.5399Z" fill="black"/>
<path d="M37.5591 23.2671H35.5591V14.2361C35.5591 13.6221 35.0601 13.1221 34.4461 13.1221H34.2351C33.6201 13.1221 33.1201 13.6221 33.1201 14.2361V19.5131H31.1201V14.2361C31.1201 12.5191 32.5171 11.1221 34.2351 11.1221H34.4461C36.1631 11.1221 37.5591 12.5191 37.5591 14.2361V23.2671Z" fill="black"/>
<path d="M30.0042 24.2675H29.7942C28.0772 24.2675 26.6802 22.8695 26.6802 21.1515V12.9355H28.6802V21.1515C28.6802 21.7675 29.1802 22.2675 29.7942 22.2675H30.0042C30.6192 22.2675 31.1192 21.7675 31.1192 21.1515V12.9355H33.1192V21.1515C33.1192 22.8695 31.7222 24.2675 30.0042 24.2675Z" fill="black"/>
</svg>
