<svg width="49" height="48" viewBox="0 0 49 48" fill="none" xmlns="http://www.w3.org/2000/svg">
<path d="M8.12787 15.4365H6.22708C2.793 15.4365 0 12.7015 0 9.34049V1.10449C0 0.552492 0.457333 0.104492 1.02083 0.104492C1.58433 0.104492 2.04167 0.552492 2.04167 1.10449V9.34049C2.04167 11.5995 3.91898 13.4365 6.22708 13.4365H8.12787C10.4339 13.4365 12.3102 11.5995 12.3102 9.34049V1.10449C12.3102 0.552492 12.7676 0.104492 13.3311 0.104492C13.8946 0.104492 14.3519 0.552492 14.3519 1.10449V9.34049C14.3519 12.7015 11.5599 15.4365 8.12787 15.4365Z" fill="black"/>
<path d="M7.17464 47.8965C6.61114 47.8965 6.15381 47.4495 6.15381 46.8965V1.10449C6.15381 0.552492 6.61114 0.104492 7.17464 0.104492C7.73814 0.104492 8.19548 0.552492 8.19548 1.10449V46.8965C8.19548 47.4495 7.73814 47.8965 7.17464 47.8965Z" fill="black"/>
<path d="M26.5672 47.8965C26.0027 47.8965 25.5464 47.4495 25.5464 46.8965V21.9785C25.5464 21.4265 26.0027 20.9785 26.5672 20.9785C27.1317 20.9785 27.5881 21.4265 27.5881 21.9785V46.8965C27.5881 47.4495 27.1317 47.8965 26.5672 47.8965Z" fill="black"/>
<path d="M47.9789 47.8962C47.4144 47.8962 46.9581 47.4492 46.9581 46.8962V24.2062L40.1073 24.0642C39.5846 24.0532 39.1559 23.6582 39.112 23.1482C37.4062 3.27825 47.2756 0.262245 47.6962 0.143245C48.0024 0.0552452 48.3352 0.115245 48.5925 0.305245C48.8497 0.494245 48.9998 0.790245 48.9998 1.10425V23.2222C48.9998 23.2252 48.9998 23.2282 48.9998 23.2312V46.8972C48.9998 47.4492 48.5435 47.8962 47.9789 47.8962ZM41.0771 22.0832L46.9581 22.2062V2.75725C44.6521 4.32424 40.1757 9.07825 41.0771 22.0832Z" fill="black"/>
<path d="M26.567 22.2565C21.8028 22.2565 17.9277 17.2875 17.9277 11.1805C17.9277 5.07349 21.8038 0.104492 26.567 0.104492C31.3323 0.104492 35.2084 5.07349 35.2084 11.1805C35.2084 17.2875 31.3323 22.2565 26.567 22.2565ZM26.567 2.10449C22.9288 2.10449 19.9694 6.17649 19.9694 11.1805C19.9694 16.1845 22.9288 20.2565 26.567 20.2565C30.2053 20.2565 33.1667 16.1855 33.1667 11.1805C33.1667 6.17549 30.2063 2.10449 26.567 2.10449Z" fill="black"/>
</svg>
