<svg width="49" height="48" viewBox="0 0 49 48" fill="none" xmlns="http://www.w3.org/2000/svg">
<path d="M49 42.2016H0V35.3076H49V42.2016ZM2.04167 40.2016H46.9583V37.3076H2.04167V40.2016Z" fill="black"/>
<path d="M45.8847 33.9488H2.09397L2.08887 32.7128C2.08887 20.6078 12.1431 10.7588 24.5002 10.7588C36.8574 10.7588 46.9116 20.6078 46.9116 32.7128L46.8749 33.8698L45.8847 33.9488ZM4.14585 31.9488H44.8557C44.4453 21.2988 35.4722 12.7588 24.5013 12.7588C13.5304 12.7588 4.55622 21.2988 4.14585 31.9488Z" fill="black"/>
<path d="M8.86803 27.339L6.93457 26.696C9.49074 19.325 16.5498 14.373 24.5 14.373V16.373C17.4247 16.373 11.1435 20.78 8.86803 27.339Z" fill="black"/>
<path d="M28.7936 12.6258L26.9735 11.7188C27.1675 11.3448 27.2665 10.9388 27.2665 10.5108C27.2665 9.0158 26.0251 7.7998 24.5 7.7998C22.9749 7.7998 21.7336 9.0158 21.7336 10.5108C21.7336 10.9178 21.8224 11.3078 21.998 11.6688L20.1543 12.5278C19.8471 11.8968 19.6919 11.2178 19.6919 10.5108C19.6919 7.9128 21.8489 5.7998 24.5 5.7998C27.1511 5.7998 29.3081 7.9128 29.3081 10.5108C29.3081 11.2468 29.1295 11.9778 28.7936 12.6258Z" fill="black"/>
</svg>
