<svg width="15" height="15" viewBox="0 0 15 15" fill="none" xmlns="http://www.w3.org/2000/svg">
<path d="M7.5 15C3.36469 15 0 11.6353 0 7.5C0 3.36469 3.36469 0 7.5 0C11.6353 0 15 3.36469 15 7.5C15 11.6353 11.6353 15 7.5 15ZM7.5 0.625C3.70906 0.625 0.625 3.70906 0.625 7.5C0.625 11.2909 3.70906 14.375 7.5 14.375C11.2909 14.375 14.375 11.2909 14.375 7.5C14.375 3.70906 11.2909 0.625 7.5 0.625Z" fill="#737373"/>
<path d="M7.076 8.568C7.076 8.376 7.1 8.216 7.148 8.088C7.196 7.96 7.296 7.808 7.448 7.632C7.6 7.456 7.86 7.184 8.228 6.816C8.572 6.472 8.8 6.188 8.912 5.964C9.032 5.732 9.092 5.468 9.092 5.172C9.092 4.692 8.952 4.316 8.672 4.044C8.392 3.772 7.992 3.636 7.472 3.636C6.976 3.636 6.588 3.756 6.308 3.996C6.036 4.236 5.852 4.612 5.756 5.124L5 4.836C5.088 4.244 5.344 3.792 5.768 3.48C6.192 3.16 6.76 3 7.472 3C8.24 3 8.836 3.192 9.26 3.576C9.684 3.96 9.896 4.484 9.896 5.148C9.896 5.516 9.82 5.852 9.668 6.156C9.524 6.46 9.276 6.788 8.924 7.14C8.54 7.524 8.284 7.784 8.156 7.92C8.036 8.048 7.96 8.152 7.928 8.232C7.896 8.312 7.88 8.424 7.88 8.568V9.24H7.076V8.568ZM7.484 11.676C7.316 11.676 7.172 11.62 7.052 11.508C6.932 11.388 6.872 11.244 6.872 11.076C6.872 10.908 6.932 10.764 7.052 10.644C7.172 10.524 7.316 10.464 7.484 10.464C7.644 10.464 7.784 10.524 7.904 10.644C8.024 10.764 8.084 10.908 8.084 11.076C8.084 11.244 8.024 11.388 7.904 11.508C7.792 11.62 7.652 11.676 7.484 11.676Z" fill="#737373"/>
</svg>
