<svg width="18" height="14" viewBox="0 0 18 14" fill="none" xmlns="http://www.w3.org/2000/svg">
<path fill-rule="evenodd" clip-rule="evenodd" d="M0.831055 1.72257C0.831055 2.64305 1.57725 3.38924 2.49772 3.38924C3.4182 3.38924 4.16439 2.64305 4.16439 1.72257C4.16439 0.8021 3.4182 0.0559082 2.49772 0.0559082C1.57725 0.0559082 0.831055 0.8021 0.831055 1.72257ZM17.4977 0.889241V2.55591H5.83105V0.889241H17.4977ZM17.4977 7.55591V5.88924H5.83105V7.55591H17.4977ZM5.83105 12.5559H17.4977V10.8892H5.83105V12.5559ZM0.831055 11.7226C0.831055 12.643 1.57725 13.3892 2.49772 13.3892C3.4182 13.3892 4.16439 12.643 4.16439 11.7226C4.16439 10.8021 3.4182 10.0559 2.49772 10.0559C1.57725 10.0559 0.831055 10.8021 0.831055 11.7226ZM2.49772 8.38924C1.57725 8.38924 0.831055 7.64305 0.831055 6.72257C0.831055 5.8021 1.57725 5.05591 2.49772 5.05591C3.4182 5.05591 4.16439 5.8021 4.16439 6.72257C4.16439 7.64305 3.4182 8.38924 2.49772 8.38924Z" fill="white"/>
</svg>
