<svg width="24" height="24" viewBox="0 0 24 24" fill="none" xmlns="http://www.w3.org/2000/svg">
<path d="M20.9845 24H3.0155C1.353 24 0 22.647 0 20.9845V3.0155C0 1.353 1.353 0 3.0155 0H20.9845C22.647 0 24 1.353 24 3.0155V20.9845C24 22.647 22.647 24 20.9845 24ZM3.0155 1C1.9045 1 1 1.9045 1 3.0155V20.9845C1 22.0955 1.9045 23 3.0155 23H20.9845C22.0955 23 23 22.0955 23 20.9845V3.0155C23 1.9045 22.0955 1 20.9845 1H3.0155Z" fill="black"/>
<path d="M13.1158 17.2813L8.19783 11.6238L3.96283 17.0613L3.17383 16.4473L8.15533 10.0508L13.2008 15.8538L17.2078 12.2223L20.3428 16.2608L19.5518 16.8738L17.0798 13.6883L13.1158 17.2813Z" fill="black"/>
<path d="M13.3702 11.1388C12.0472 11.1388 10.9707 10.0623 10.9707 8.73934C10.9707 7.41634 12.0472 6.33984 13.3702 6.33984C14.6932 6.33984 15.7697 7.41634 15.7697 8.73934C15.7697 10.0623 14.6942 11.1388 13.3702 11.1388ZM13.3702 7.33984C12.5982 7.33984 11.9707 7.96734 11.9707 8.73934C11.9707 9.51134 12.5982 10.1388 13.3702 10.1388C14.1417 10.1388 14.7697 9.51134 14.7697 8.73934C14.7697 7.96734 14.1417 7.33984 13.3702 7.33984Z" fill="black"/>
</svg>
