<svg width="33" height="33" viewBox="0 0 33 33" fill="none" xmlns="http://www.w3.org/2000/svg">
<circle cx="16.5859" cy="16.6797" r="16" fill="#F6F5F7"/>
<path fill-rule="evenodd" clip-rule="evenodd" d="M6.58594 16.6797C6.58594 22.2025 11.0631 26.6797 16.5859 26.6797C22.1088 26.6797 26.5859 22.2025 26.5859 16.6797C26.5859 11.1568 22.1088 6.67969 16.5859 6.67969C11.0631 6.67969 6.58594 11.1568 6.58594 16.6797ZM24.7676 16.6796C24.7676 21.1983 21.1045 24.8614 16.5858 24.8614C12.0671 24.8614 8.404 21.1983 8.404 16.6796C8.404 12.1609 12.0671 8.49775 16.5858 8.49775C21.1045 8.49775 24.7676 12.1609 24.7676 16.6796ZM17.4975 18.4966H18.4059V20.3147H14.7696V18.4966H15.6787V16.6784H14.7696V14.8602H17.4975V18.4966ZM17.495 13.0419C17.495 13.5439 17.0879 13.9509 16.5856 13.9509C16.0834 13.9509 15.6763 13.5439 15.6763 13.0419C15.6763 12.5398 16.0834 12.1328 16.5856 12.1328C17.0879 12.1328 17.495 12.5398 17.495 13.0419Z" fill="#737373"/>
</svg>
