<svg width="25" height="25" viewBox="0 0 25 25" fill="none" xmlns="http://www.w3.org/2000/svg">
<circle cx="12.5859" cy="12.6797" r="12" fill="#F6F5F7"/>
<path fill-rule="evenodd" clip-rule="evenodd" d="M5.08594 12.6797C5.08594 16.8218 8.4438 20.1797 12.5859 20.1797C16.7281 20.1797 20.0859 16.8218 20.0859 12.6797C20.0859 8.53755 16.7281 5.17969 12.5859 5.17969C8.4438 5.17969 5.08594 8.53755 5.08594 12.6797ZM18.7223 12.6797C18.7223 16.0687 15.975 18.8161 12.5859 18.8161C9.19692 18.8161 6.44957 16.0687 6.44957 12.6797C6.44957 9.29067 9.19692 6.54332 12.5859 6.54332C15.975 6.54332 18.7223 9.29067 18.7223 12.6797ZM13.2699 14.0422H13.9513V15.4059H11.224V14.0422H11.9058V12.6786H11.224V11.3149H13.2699V14.0422ZM13.2682 9.9513C13.2682 10.3279 12.9628 10.6331 12.5862 10.6331C12.2095 10.6331 11.9041 10.3279 11.9041 9.9513C11.9041 9.57475 12.2095 9.26949 12.5862 9.26949C12.9628 9.26949 13.2682 9.57475 13.2682 9.9513Z" fill="#737373"/>
</svg>
