<svg width="25" height="25" viewBox="0 0 25 25" fill="none" xmlns="http://www.w3.org/2000/svg">
<path fill-rule="evenodd" clip-rule="evenodd" d="M0.619141 12.0088C0.619141 18.6362 5.99172 24.0088 12.6191 24.0088C19.2466 24.0088 24.6191 18.6362 24.6191 12.0088C24.6191 5.38137 19.2466 0.00878906 12.6191 0.00878906C5.99172 0.00878906 0.619141 5.38137 0.619141 12.0088ZM22.4371 12.0088C22.4371 17.4312 18.0414 21.827 12.6189 21.827C7.1965 21.827 2.80075 17.4312 2.80075 12.0088C2.80075 6.58636 7.1965 2.19061 12.6189 2.19061C18.0414 2.19061 22.4371 6.58636 22.4371 12.0088ZM13.7133 14.1888H14.8035V16.3707H10.4398V14.1888H11.5307V12.007H10.4398V9.8252H13.7133V14.1888ZM13.7109 7.64338C13.7109 8.24587 13.2223 8.73429 12.6196 8.73429C12.0169 8.73429 11.5283 8.24587 11.5283 7.64338C11.5283 7.04088 12.0169 6.55247 12.6196 6.55247C13.2223 6.55247 13.7109 7.04088 13.7109 7.64338Z" fill="#A1A1A1"/>
</svg>
