<svg width="24" height="24" viewBox="0 0 24 24" fill="none" xmlns="http://www.w3.org/2000/svg">
<path d="M20 24H4C1.7945 24 0 22.206 0 20V4C0 1.7945 1.7945 0 4 0H20C22.2055 0 24 1.7945 24 4V20C24 22.206 22.2055 24 20 24Z" fill="black"/>
<path fill-rule="evenodd" clip-rule="evenodd" d="M8.5505 12.254C8.5505 10.21 10.2095 8.543 12.2535 8.543C14.3055 8.543 15.965 10.21 15.965 12.254C15.965 14.306 14.306 15.965 12.2535 15.965C10.21 15.965 8.5505 14.3055 8.5505 12.254ZM16.085 5H8.4305C6.547 5 5 6.539 5 8.4305V16.085C5 17.9685 6.547 19.5155 8.4305 19.5155H16.085C17.9765 19.5155 19.5155 17.968 19.5155 16.085V8.4305C19.516 6.539 17.977 5 16.085 5ZM8.4305 5.858H16.085C17.504 5.858 18.658 7.012 18.658 8.431V16.0855C18.658 17.5045 17.504 18.6585 16.085 18.6585H8.4305C7.0115 18.6585 5.8575 17.5045 5.8575 16.0855V8.4305C5.8575 7.0115 7.0115 5.858 8.4305 5.858ZM16.8465 6.9395C16.43 6.9395 16.0935 7.276 16.0935 7.6925C16.0935 8.1095 16.43 8.446 16.8465 8.446C17.2635 8.446 17.6005 8.1095 17.6005 7.6925C17.6005 7.2765 17.2635 6.9395 16.8465 6.9395ZM16.935 12.254C16.935 9.673 14.843 7.573 12.254 7.573C9.673 7.573 7.5735 9.673 7.5735 12.254C7.5735 14.843 9.6735 16.9345 12.254 16.9345C14.843 16.9345 16.935 14.843 16.935 12.254Z" fill="white"/>
</svg>
