<svg width="24" height="24" viewBox="0 0 24 24" fill="none" xmlns="http://www.w3.org/2000/svg">
<g clip-path="url(#clip0)">
<path d="M4.1885 16.1895C1.879 16.1895 0 14.3105 0 12.001C0 9.6915 1.879 7.8125 4.1885 7.8125C6.498 7.8125 8.377 9.6915 8.377 12.001C8.377 14.3105 6.498 16.1895 4.1885 16.1895ZM4.1885 8.8125C2.4305 8.8125 1 10.243 1 12.001C1 13.7595 2.4305 15.1895 4.1885 15.1895C5.9465 15.1895 7.377 13.7595 7.377 12.001C7.377 10.243 5.9465 8.8125 4.1885 8.8125Z" fill="#FEFEFE"/>
<path d="M19.8115 8.37798C17.502 8.37798 15.623 6.49898 15.623 4.18948C15.623 1.87998 17.502 0.000976562 19.8115 0.000976562C22.121 0.000976562 24 1.87998 24 4.18948C24 6.49898 22.121 8.37798 19.8115 8.37798ZM19.8115 1.00098C18.053 1.00098 16.623 2.43148 16.623 4.18948C16.623 5.94748 18.053 7.37798 19.8115 7.37798C21.57 7.37798 23 5.94748 23 4.18948C23 2.43148 21.57 1.00098 19.8115 1.00098Z" fill="#FEFEFE"/>
<path d="M19.8115 24C17.502 24 15.623 22.121 15.623 19.8115C15.623 17.502 17.502 15.623 19.8115 15.623C22.121 15.623 24 17.502 24 19.8115C24 22.121 22.121 24 19.8115 24ZM19.8115 16.623C18.053 16.623 16.623 18.053 16.623 19.8115C16.623 21.57 18.053 23 19.8115 23C21.57 23 23 21.57 23 19.8115C23 18.053 21.57 16.623 19.8115 16.623Z" fill="#FEFEFE"/>
<path d="M16.7807 5.93742L16.3296 5.04492L7.65003 9.43187L8.10113 10.3244L16.7807 5.93742Z" fill="#FEFEFE"/>
<path d="M16.6148 17.8636L7.375 13.5254L6.95 14.4306L16.1898 18.7688L16.6148 17.8636Z" fill="#FEFEFE"/>
</g>
<defs>
<clipPath id="clip0">
<rect width="24" height="24" fill="white"/>
</clipPath>
</defs>
</svg>
