<svg width="25" height="25" viewBox="0 0 25 25" fill="none" xmlns="http://www.w3.org/2000/svg">
<path fill-rule="evenodd" clip-rule="evenodd" d="M3.60529 3.95703H21.9689C22.9731 3.95703 23.7871 4.85246 23.7871 5.95703V17.957C23.7871 19.0616 22.9731 19.957 21.9689 19.957H3.60529C2.60114 19.957 1.78711 19.0616 1.78711 17.957V5.95703C1.78711 4.85246 2.60114 3.95703 3.60529 3.95703ZM3.78717 5.9571V17.9571H21.7872V5.9571H3.78717ZM5.78704 13.957V15.957H7.78704V13.957H5.78704ZM8.78704 15.957V13.957H11.787V15.957H8.78704ZM17.787 13.957V15.957H19.787V13.957H17.787ZM14.787 15.957V13.957H16.787V15.957H14.787ZM8.78704 8.9571H5.78704V11.9571H8.78704V8.9571Z" fill="#A1A1A1"/>
</svg>
