<svg width="21" height="20" viewBox="0 0 21 20" fill="none" xmlns="http://www.w3.org/2000/svg">
<circle cx="10.0195" cy="10" r="10" fill="#454545"/>
<path fill-rule="evenodd" clip-rule="evenodd" d="M6.89453 6.87506V8.7501H6.26953C5.60181 8.7501 5.01953 9.23533 5.01953 9.89593V15.1043C5.01953 15.7649 5.60181 16.2501 6.26953 16.2501H13.7695C14.4372 16.2501 15.0195 15.7649 15.0195 15.1043V9.89593C15.0195 9.23533 14.4372 8.7501 13.7695 8.7501H13.1445V6.87506C13.1445 5.14917 11.7454 3.75006 10.0195 3.75006C8.29364 3.75006 6.89453 5.14917 6.89453 6.87506ZM11.8945 6.87506V8.7501H8.14453V6.87506C8.14453 5.83953 8.984 5.00006 10.0195 5.00006C11.0551 5.00006 11.8945 5.83953 11.8945 6.87506ZM6.26957 15.0001V10.0001H13.7696V15.0001H6.26957ZM10.6445 12.5C10.6445 12.8452 10.3647 13.125 10.0195 13.125C9.67431 13.125 9.39449 12.8452 9.39449 12.5C9.39449 12.1548 9.67431 11.875 10.0195 11.875C10.3647 11.875 10.6445 12.1548 10.6445 12.5Z" fill="white"/>
</svg>
