<svg width="21" height="21" viewBox="0 0 21 21" fill="none" xmlns="http://www.w3.org/2000/svg">
<path fill-rule="evenodd" clip-rule="evenodd" d="M10.112 20.1587C5.04937 20.1587 0.945312 16.0546 0.945312 10.992C0.945312 5.9294 5.04937 1.82535 10.112 1.82535C15.1746 1.82535 19.2786 5.9294 19.2786 10.992C19.2786 16.0546 15.1746 20.1587 10.112 20.1587ZM10.112 18.492C14.2541 18.492 17.612 15.1342 17.612 10.992C17.612 6.84988 14.2541 3.49201 10.112 3.49201C5.96984 3.49201 2.61198 6.84988 2.61198 10.992C2.61198 15.1342 5.96984 18.492 10.112 18.492ZM12.856 7.90277L8.4453 12.3135L6.53456 10.4028L5.35604 11.5813L8.4453 14.6705L14.0346 9.08128L12.856 7.90277Z" fill="#A1A1A1"/>
</svg>
