<svg width="25" height="25" viewBox="0 0 25 25" fill="none" xmlns="http://www.w3.org/2000/svg">
<path fill-rule="evenodd" clip-rule="evenodd" d="M22.083 15.4192V20.6692C22.083 22.1189 20.9078 23.2942 19.458 23.2942H5.02051C3.57076 23.2942 2.39551 22.1189 2.39551 20.6692V6.23169C2.39551 4.78194 3.57076 3.60669 5.02051 3.60669H10.2705V6.23169H5.02051V20.6692H19.458V15.4192H22.083Z" fill="#454545"/>
<path fill-rule="evenodd" clip-rule="evenodd" d="M17.1924 9.88944C17.7935 10.7616 18.1455 11.8188 18.1455 12.9583C18.1455 15.9484 15.7215 18.3723 12.7314 18.3723C9.74134 18.3723 7.31738 15.9484 7.31738 12.9583C7.31738 9.96815 9.74134 7.54419 12.7314 7.54419C13.8709 7.54419 14.9281 7.89617 15.8003 8.49732L19.4182 4.87938L20.8103 6.2715L17.1924 9.88944ZM16.1768 12.9583C16.1768 11.0555 14.6342 9.51294 12.7314 9.51294C10.8287 9.51294 9.28613 11.0555 9.28613 12.9583C9.28613 14.861 10.8287 16.4036 12.7314 16.4036C14.6342 16.4036 16.1768 14.861 16.1768 12.9583Z" fill="#454545"/>
</svg>
