<svg width="19" height="19" viewBox="0 0 19 19" fill="none" xmlns="http://www.w3.org/2000/svg">
<path fill-rule="evenodd" clip-rule="evenodd" d="M9.01562 18.7461C4.04506 18.7461 0.015625 14.7167 0.015625 9.74609C0.015625 4.77553 4.04506 0.746094 9.01562 0.746094C13.9862 0.746094 18.0156 4.77553 18.0156 9.74609C18.0156 14.7167 13.9862 18.7461 9.01562 18.7461ZM9.01562 16.4961C12.7435 16.4961 15.7656 13.474 15.7656 9.74609C15.7656 6.01817 12.7435 2.99609 9.01562 2.99609C5.2877 2.99609 2.26562 6.01817 2.26562 9.74609C2.26562 13.474 5.2877 16.4961 9.01562 16.4961ZM3.39062 9.74609C3.39062 12.8527 5.90902 15.3711 9.01562 15.3711C12.1222 15.3711 14.6406 12.8527 14.6406 9.74609C14.6406 6.63949 12.1222 4.12109 9.01562 4.12109C5.90902 4.12109 3.39062 6.63949 3.39062 9.74609ZM9.01562 13.1211C10.8796 13.1211 12.3906 11.6101 12.3906 9.74609C12.3906 7.88213 10.8796 6.37109 9.01562 6.37109C7.15166 6.37109 5.64062 7.88213 5.64062 9.74609C5.64062 11.6101 7.15166 13.1211 9.01562 13.1211ZM6.76562 9.74609C6.76562 10.9887 7.77298 11.9961 9.01562 11.9961C10.2583 11.9961 11.2656 10.9887 11.2656 9.74609C11.2656 8.50345 10.2583 7.49609 9.01562 7.49609C7.77298 7.49609 6.76562 8.50345 6.76562 9.74609Z" fill="#A1A1A1"/>
</svg>
