<?xml version="1.0" encoding="utf-8"?>
<!-- Generator: Adobe Illustrator 16.0.0, SVG Export Plug-In . SVG Version: 6.00 Build 0)  -->
<!DOCTYPE svg PUBLIC "-//W3C//DTD SVG 1.1//EN" "http://www.w3.org/Graphics/SVG/1.1/DTD/svg11.dtd">
<svg version="1.1" id="Layer_1" xmlns="http://www.w3.org/2000/svg" xmlns:xlink="http://www.w3.org/1999/xlink" x="0px" y="0px"
	 width="48px" height="48px" viewBox="0 0 48 48" enable-background="new 0 0 48 48" xml:space="preserve">
<g>
	<g>
		<path d="M45,36.943H3c-1.654,0-3-1.346-3-3V5.965c0-1.654,1.346-3,3-3h42c1.654,0,3,1.346,3,3v27.979
			C48,35.598,46.654,36.943,45,36.943z M3,4.965c-0.551,0-1,0.449-1,1v27.979c0,0.552,0.449,1,1,1h42c0.552,0,1-0.448,1-1V5.965
			c0-0.551-0.448-1-1-1H3z"/>
	</g>
	<path d="M24.002,43.751c-0.552,0-1-0.447-1-1v-6.089c0-0.553,0.448-1,1-1c0.553,0,1,0.447,1,1v6.089
		C25.002,43.304,24.555,43.751,24.002,43.751z"/>
	<path d="M37.198,45.035H10.804c-0.552,0-1-0.447-1-1s0.448-1,1-1h26.394c0.553,0,1,0.447,1,1S37.751,45.035,37.198,45.035z"/>
</g>
</svg>
