<svg width="24" height="24" viewBox="0 0 24 24" fill="none" xmlns="http://www.w3.org/2000/svg">
<path d="M16.274 12.6588C15.0637 12.6588 13.9289 12.1903 13.078 11.3399L12.6611 10.9234C11.8102 10.073 11.3418 8.93752 11.3418 7.72658C11.3418 6.51565 11.8102 5.38021 12.6611 4.52876L15.8716 1.31993C16.7209 0.468975 17.8562 0 19.0675 0C20.2789 0 21.4137 0.468975 22.263 1.32043L22.6795 1.73391C24.4402 3.50031 24.4402 6.36866 22.6805 8.12956L19.471 11.3399C18.6191 12.1908 17.4838 12.6588 16.274 12.6588ZM19.0675 1.00045C18.1237 1.00045 17.2398 1.36493 16.579 2.02739L13.368 5.23672C12.7061 5.89868 12.3411 6.78313 12.3411 7.72708C12.3411 8.67103 12.7056 9.55498 13.368 10.2164L13.7849 10.6329C14.4468 11.2949 15.3307 11.6594 16.274 11.6594C17.2173 11.6594 18.1012 11.2949 18.7636 10.6329L21.9731 7.4231C23.3434 6.05167 23.3434 3.81729 21.9726 2.44237L21.5561 2.02889C20.8948 1.36493 20.0109 1.00045 19.0675 1.00045Z" fill="#737373"/>
<path d="M4.9332 23.9987C3.7224 23.9987 2.58758 23.5302 1.73772 22.6797L1.32129 22.2633C-0.440429 20.4983 -0.440429 17.6305 1.32129 15.8706L4.53027 12.6588C5.38213 11.8083 6.51695 11.3398 7.72675 11.3398C8.93656 11.3398 10.0714 11.8083 10.9222 12.6588L11.3392 13.0738C12.1915 13.9257 12.6605 15.0616 12.6605 16.2721C12.6605 17.4825 12.1915 18.618 11.3397 19.4689L8.12969 22.6797C7.27882 23.5302 6.14401 23.9987 4.9332 23.9987ZM7.72625 12.3403C6.7834 12.3403 5.89955 12.7048 5.23715 13.3662L2.02817 16.5781C0.655894 17.949 0.656394 20.1824 2.02817 21.5573L2.44461 21.9728C3.106 22.6347 3.98936 22.9992 4.9332 22.9992C5.87705 22.9992 6.76091 22.6347 7.4223 21.9733L10.6323 18.7624C11.2947 18.1005 11.6596 17.2165 11.6596 16.2731C11.6596 15.3296 11.2952 14.4447 10.6323 13.7827L10.2154 13.3677C9.55296 12.7043 8.6691 12.3403 7.72625 12.3403Z" fill="#737373"/>
<path d="M7.25786 17.2434C7.12988 17.2434 7.0019 17.1944 6.90441 17.0969C6.70895 16.9014 6.70895 16.5854 6.90441 16.3899L16.3894 6.90443C16.5849 6.70894 16.9008 6.70894 17.0963 6.90443C17.2917 7.09992 17.2917 7.4159 17.0963 7.61139L7.6113 17.0969C7.51382 17.1949 7.38584 17.2434 7.25786 17.2434Z" fill="#737373"/>
</svg>
