<svg width="24" height="24" viewBox="0 0 24 24" fill="none" xmlns="http://www.w3.org/2000/svg">
<g clip-path="url(#clip0)">
<path d="M17.1129 23.925C14.8504 23.925 11.0994 22.871 6.07687 17.8485C-3.04763 8.72253 0.738372 3.79053 0.904372 3.58503L0.955872 3.53003L4.99037 -0.167969L9.95987 6.51453L7.74187 8.73303L15.2199 16.2115L18.2259 13.656L24.2224 19.1405L20.3384 23.0195C20.2929 23.0565 19.1924 23.925 17.1129 23.925ZM1.66637 4.23503C1.42437 4.58553 -1.34063 9.01553 6.78387 17.141C11.5644 21.9215 15.0389 22.9245 17.1129 22.9245C18.6859 22.9245 19.5649 22.345 19.6969 22.251L22.7764 19.1725L18.2009 14.989L15.1649 17.571L6.32737 8.73353L8.64137 6.41903L4.84887 1.31853L1.66637 4.23503Z" fill="#737373"/>
</g>
<defs>
<clipPath id="clip0">
<rect width="24" height="24" fill="white"/>
</clipPath>
</defs>
</svg>
