<svg width="19" height="19" viewBox="0 0 19 19" fill="none" xmlns="http://www.w3.org/2000/svg">
<path d="M5.55081 2.18157C7.00081 2.10657 8.90498 3.52532 9.67581 4.24407L10.9883 2.96289C12.486 2.18276 13.2048 2.18233 14.4824 2.18157L14.4883 2.18157C17.6883 3.03152 18.3424 6.34826 18.2695 7.90039L16.1445 11.2129L9.86523 16.6182C7.66733 14.5973 2.76331 9.94414 2.11331 8.99414C1.46331 8.04414 1.63415 5.93164 1.80081 4.99414C2.44665 4.08787 4.10081 2.25657 5.55081 2.18157Z" fill="white" stroke="white" stroke-width="0.1"/>
<g clip-path="url(#clip0)">
<path d="M13.0691 1.75531C11.8026 1.98067 10.7604 2.64739 9.96802 3.73837C9.9268 3.68095 9.88504 3.62443 9.84112 3.56827C8.57788 1.95007 6.47008 1.27867 4.5961 1.89751C2.90662 2.45587 1.79386 3.62983 1.28914 5.38717C0.853903 6.90223 1.02022 8.27545 1.78324 9.46885C2.24998 10.1993 2.85568 10.8633 3.3865 11.4166C4.72264 12.8093 6.172 14.0358 7.9369 15.4485C8.34406 15.7744 8.75554 16.0952 9.17224 16.4197C9.36466 16.5699 9.55834 16.7207 9.75328 16.8733C9.81538 16.9221 9.89026 16.9466 9.96514 16.9466C10.0397 16.9466 10.1142 16.9223 10.1761 16.8742C10.3386 16.7479 10.4992 16.624 10.6576 16.502C10.9978 16.2396 11.3294 15.9834 11.6568 15.7221C13.3094 14.4027 15.2129 12.8462 16.8872 11.0734C17.46 10.4668 18.0045 9.85963 18.3735 9.10093C19.3278 7.13875 18.875 4.60777 17.2965 3.08245C16.0905 1.91731 14.668 1.47145 13.0691 1.75531ZM17.755 8.79997C17.4287 9.47119 16.9218 10.0348 16.387 10.6011C14.7432 12.3418 12.8619 13.8796 11.2275 15.1846C10.9031 15.4434 10.5741 15.6974 10.2373 15.9575C10.1475 16.0268 10.0569 16.0963 9.96586 16.167C9.84166 16.07 9.71818 15.9737 9.5947 15.8776C9.18052 15.5547 8.77138 15.2359 8.36656 14.9119C6.62272 13.516 5.1928 12.3066 3.88258 10.9405C3.37498 10.4115 2.79718 9.77863 2.36248 9.09859C1.71052 8.07871 1.57174 6.89395 1.94992 5.57707C2.38822 4.05139 3.35104 3.03313 4.81192 2.55055C5.2063 2.42023 5.61292 2.35741 6.01846 2.35741C7.25668 2.35741 8.48194 2.94439 9.29914 3.99145C9.38302 4.09891 9.4642 4.21645 9.54988 4.34083C9.59434 4.40527 9.64042 4.47205 9.68956 4.54135C9.75472 4.63351 9.85768 4.68571 9.97396 4.68643C10.0866 4.68517 10.1918 4.62865 10.2549 4.53505L10.4207 4.28989C11.1283 3.24535 12.0339 2.63785 13.1893 2.43229C14.5595 2.18875 15.7804 2.57359 16.8185 3.57691C18.1668 4.87993 18.5695 7.12543 17.755 8.79997Z" fill="black"/>
</g>
<defs>
<clipPath id="clip0">
<rect width="18" height="18" fill="white" transform="translate(0.961914 0.211914)"/>
</clipPath>
</defs>
</svg>
