<svg width="25" height="25" viewBox="0 0 25 25" fill="none" xmlns="http://www.w3.org/2000/svg">
<g clip-path="url(#clip0)">
<path fill-rule="evenodd" clip-rule="evenodd" d="M12.5135 23.3703C12.5135 23.3703 6.72119e-08 17.938 6.72119e-08 9.35208C-0.000520766 4.35 3.02604 1.63281 6.22396 1.63281V2.71979C4.89271 2.71979 3.65052 3.29479 2.72552 4.3375C1.65312 5.54687 1.08698 7.28177 1.08698 9.35208C1.08698 16.275 10.375 21.1427 12.5125 22.1708C14.6422 21.1401 23.9125 16.2547 23.9125 9.30052C23.9125 7.25521 23.35 5.55417 22.2849 4.38333C21.3672 3.37344 20.126 2.81823 18.7896 2.81823C15.1375 2.81823 12.4969 8.35521 12.4969 8.35521C12.4969 8.35521 9.84323 2.72083 6.225 2.71979L6.22396 1.63281H6.225C8.61823 1.63281 11.1083 3.15677 12.4943 6.38333C13.8318 3.24792 16.3568 1.73073 18.7896 1.73073C21.9734 1.73073 25 4.33021 25 9.30052C25 17.938 12.5135 23.3703 12.5135 23.3703Z" fill="#737373"/>
</g>
<defs>
<clipPath id="clip0">
<rect width="25" height="25" fill="white"/>
</clipPath>
</defs>
</svg>
