<svg width="21" height="21" viewBox="0 0 21 21" fill="none" xmlns="http://www.w3.org/2000/svg">
<path fill-rule="evenodd" clip-rule="evenodd" d="M14.753 2.6421C13.5466 2.64209 12.769 2.78581 11.8775 3.22215C11.5475 3.3837 11.2379 3.57825 10.9503 3.80522C10.6738 3.59097 10.3766 3.40536 10.0602 3.24887C9.15142 2.7994 8.33389 2.64209 7.17078 2.64209C4.05569 2.64209 1.79199 5.22315 1.79199 8.57532C1.79199 11.1069 3.20352 13.5523 5.83269 15.917C7.21274 17.1582 8.97476 18.3865 10.2367 19.04L10.9587 19.4139L11.6807 19.04C12.9426 18.3865 14.7046 17.1582 16.0846 15.917C18.7138 13.5523 20.1253 11.1069 20.1253 8.57532C20.1253 5.25863 17.8403 2.65489 14.753 2.6421ZM18.4587 8.57532C18.4587 10.5587 17.2805 12.5999 14.9701 14.6778C13.7105 15.8107 12.0911 16.9429 10.9587 17.5368C9.82619 16.9429 8.20684 15.8107 6.94722 14.6778C4.63684 12.5999 3.45866 10.5587 3.45866 8.57532C3.45866 6.09852 5.02836 4.30876 7.17078 4.30876C8.09556 4.30876 8.66543 4.41841 9.32127 4.74279C9.70866 4.9344 10.0511 5.1874 10.3474 5.50357L10.9606 6.15767L11.5682 5.49838C11.8712 5.16955 12.2187 4.91079 12.6103 4.71911C13.2469 4.4075 13.7812 4.30876 14.7496 4.30876C16.8655 4.31753 18.4587 6.13289 18.4587 8.57532Z" fill="#737373"/>
</svg>
