<svg width="21" height="21" viewBox="0 0 21 21" fill="none" xmlns="http://www.w3.org/2000/svg">
<circle cx="10.1289" cy="10.7815" r="9.5" fill="#FF2462" stroke="white"/>
<path fill-rule="evenodd" clip-rule="evenodd" d="M5.62891 9.76729C5.62891 12.5322 10.1338 14.2815 10.1338 14.2815C10.1338 14.2815 14.6289 12.5322 14.6289 9.75068C14.6289 8.15012 13.5393 7.31303 12.3932 7.31303C11.5173 7.31303 10.6083 7.8016 10.1268 8.81128C9.62791 7.77225 8.73147 7.28149 7.86991 7.28149H7.86953C6.71828 7.28149 5.62872 8.15649 5.62891 9.76729ZM12.1618 7.68153H12.4796L13.2094 7.85184C12.9619 7.72848 12.6838 7.66323 12.3932 7.66323C12.3147 7.66323 12.2375 7.66958 12.1618 7.68153ZM7.72046 12.4908C8.03701 12.7378 8.36686 12.9574 8.68058 13.1466L7.72046 12.4908ZM7.47021 12.287L6.77358 11.5919C6.98076 11.8405 7.21838 12.0727 7.47021 12.287ZM6.20337 10.67L6.13398 10.479C6.15458 10.5434 6.17777 10.607 6.20337 10.67ZM7.86953 7.56053V7.28149L7.86983 7.56057L7.86953 7.56053Z" fill="white"/>
<path d="M10.1338 14.2815L9.95279 14.7476L10.134 14.8179L10.3151 14.7475L10.1338 14.2815ZM5.62891 9.76729L6.12891 9.76729L6.12891 9.76723L5.62891 9.76729ZM10.1268 8.81128L9.67612 9.02771L10.1284 9.9696L10.5782 9.0265L10.1268 8.81128ZM12.1618 7.68153L12.0839 7.18763L12.1618 8.18153V7.68153ZM12.4796 7.68153L12.5932 7.19461L12.5371 7.18153H12.4796V7.68153ZM13.2094 7.85184L13.0958 8.33876L13.4325 7.40434L13.2094 7.85184ZM7.72046 12.4908L8.00249 12.0779L7.41285 12.885L7.72046 12.4908ZM8.68058 13.1466L8.42231 13.5747L8.9626 12.7337L8.68058 13.1466ZM7.47021 12.287L7.14619 12.6678L7.82336 11.933L7.47021 12.287ZM6.77358 11.5919L7.12673 11.238L6.3895 11.9121L6.77358 11.5919ZM6.20337 10.67L5.7402 10.8583L6.67332 10.4992L6.20337 10.67ZM6.13398 10.479L6.60392 10.3082L5.65778 10.6314L6.13398 10.479ZM7.86953 7.56053H7.36953V8.00645L7.81254 8.05727L7.86953 7.56053ZM7.86983 7.56057L7.81284 8.05731L8.37043 8.12128L8.36983 7.56003L7.86983 7.56057ZM10.1338 14.2815C10.3148 13.8154 10.3149 13.8154 10.315 13.8155C10.315 13.8155 10.315 13.8155 10.3151 13.8155C10.3151 13.8155 10.315 13.8155 10.3149 13.8155C10.3147 13.8154 10.3142 13.8152 10.3135 13.8149C10.312 13.8143 10.3094 13.8133 10.3058 13.8119C10.2987 13.809 10.2874 13.8045 10.2724 13.7983C10.2423 13.786 10.1969 13.7672 10.1386 13.742C10.0218 13.6915 9.85316 13.6157 9.65012 13.5161C9.24276 13.3162 8.70312 13.0236 8.16675 12.6507C7.05284 11.8763 6.12891 10.8791 6.12891 9.76729H5.12891C5.12891 11.4203 6.45741 12.6803 7.59594 13.4718C8.18579 13.8818 8.77237 14.1993 9.20967 14.4138C9.42896 14.5214 9.61231 14.6039 9.74186 14.6599C9.80667 14.6879 9.85813 14.7093 9.894 14.724C9.91194 14.7313 9.92599 14.737 9.93588 14.7409C9.94082 14.7429 9.94473 14.7444 9.94756 14.7455C9.94897 14.7461 9.95012 14.7465 9.95099 14.7469C9.95143 14.7471 9.9518 14.7472 9.9521 14.7473C9.95225 14.7474 9.95242 14.7474 9.95249 14.7475C9.95265 14.7475 9.95279 14.7476 10.1338 14.2815ZM14.1289 9.75068C14.1289 10.8723 13.2052 11.8737 12.095 12.6492C11.56 13.023 11.0217 13.3161 10.6153 13.5161C10.4128 13.6158 10.2446 13.6916 10.1281 13.7421C10.0699 13.7673 10.0247 13.7862 9.99467 13.7985C9.97966 13.8047 9.96846 13.8092 9.96132 13.812C9.95776 13.8134 9.95521 13.8144 9.95372 13.815C9.95298 13.8153 9.9525 13.8155 9.95228 13.8156C9.95218 13.8156 9.95214 13.8157 9.95216 13.8156C9.95218 13.8156 9.95225 13.8156 9.95225 13.8156C9.95234 13.8156 9.95245 13.8155 10.1338 14.2815C10.3151 14.7475 10.3153 14.7474 10.3154 14.7473C10.3155 14.7473 10.3157 14.7472 10.3158 14.7472C10.3161 14.7471 10.3165 14.7469 10.3169 14.7467C10.3178 14.7464 10.3189 14.746 10.3204 14.7454C10.3232 14.7443 10.3271 14.7427 10.332 14.7408C10.3419 14.7368 10.3559 14.7312 10.3739 14.7238C10.4097 14.7092 10.461 14.6877 10.5257 14.6597C10.6551 14.6036 10.8381 14.521 11.057 14.4133C11.4935 14.1984 12.0789 13.8803 12.6677 13.469C13.805 12.6745 15.1289 11.4105 15.1289 9.75068H14.1289ZM12.3932 7.81303C12.8455 7.81303 13.2752 7.97783 13.59 8.28789C13.9002 8.5934 14.1289 9.06961 14.1289 9.75068H15.1289C15.1289 8.8312 14.8128 8.08857 14.2917 7.57539C13.7752 7.06677 13.087 6.81303 12.3932 6.81303V7.81303ZM10.5782 9.0265C10.9754 8.19349 11.7071 7.81303 12.3932 7.81303V6.81303C11.3276 6.81303 10.2413 7.4097 9.67554 8.59605L10.5782 9.0265ZM7.86991 7.78149C8.53272 7.78149 9.25756 8.15608 9.67612 9.02771L10.5776 8.59484C9.99825 7.38841 8.93022 6.78149 7.86991 6.78149V7.78149ZM7.86953 7.78149H7.86991V6.78149H7.86953V7.78149ZM6.12891 9.76723C6.12875 8.42833 6.99869 7.78149 7.86953 7.78149V6.78149C6.43787 6.78149 5.12869 7.88465 5.12891 9.76734L6.12891 9.76723ZM12.1618 8.18153H12.4796V7.18153H12.1618V8.18153ZM12.366 8.16844L13.0958 8.33876L13.3231 7.36492L12.5932 7.19461L12.366 8.16844ZM13.4325 7.40434C13.1137 7.24546 12.759 7.16323 12.3932 7.16323V8.16323C12.6087 8.16323 12.8102 8.21149 12.9864 8.29933L13.4325 7.40434ZM12.3932 7.16323C12.2876 7.16323 12.1844 7.17178 12.0839 7.18763L12.2396 8.17542C12.2906 8.16738 12.3418 8.16323 12.3932 8.16323V7.16323ZM7.41285 12.885C7.74839 13.1468 8.0954 13.3775 8.42231 13.5747L8.93884 12.7185C8.63832 12.5372 8.32563 12.3288 8.02808 12.0966L7.41285 12.885ZM8.9626 12.7337L8.00249 12.0779L7.43844 12.9036L8.39855 13.5595L8.9626 12.7337ZM7.82336 11.933L7.12673 11.238L6.42043 11.9459L7.11706 12.6409L7.82336 11.933ZM6.3895 11.9121C6.61853 12.1868 6.87738 12.4391 7.14619 12.6678L7.79423 11.9062C7.55937 11.7064 7.343 11.4942 7.15765 11.2718L6.3895 11.9121ZM6.67332 10.4992L6.60392 10.3082L5.66403 10.6497L5.73343 10.8407L6.67332 10.4992ZM5.65778 10.6314C5.68241 10.7084 5.70998 10.784 5.7402 10.8583L6.66654 10.4817C6.64557 10.4301 6.62676 10.3784 6.61018 10.3266L5.65778 10.6314ZM7.36953 7.28149V7.56053H8.36953V7.28149H7.36953ZM8.36983 7.56003L8.36953 7.28096L7.36953 7.28203L7.36983 7.5611L8.36983 7.56003ZM7.81254 8.05727L7.81284 8.05731L7.92682 7.06382L7.92652 7.06379L7.81254 8.05727Z" fill="white"/>
</svg>
