<svg width="21" height="21" viewBox="0 0 21 21" fill="none" xmlns="http://www.w3.org/2000/svg">
<path fill-rule="evenodd" clip-rule="evenodd" d="M14.753 1.87404C13.5466 1.87402 12.769 2.01774 11.8775 2.45408C11.5475 2.61563 11.2379 2.81018 10.9503 3.03716C10.6738 2.82291 10.3766 2.63729 10.0602 2.4808C9.15142 2.03134 8.33389 1.87402 7.17078 1.87402C4.05569 1.87402 1.79199 4.45508 1.79199 7.80725C1.79199 10.3388 3.20352 12.7843 5.83269 15.1489C7.21274 16.3901 8.97476 17.6185 10.2367 18.2719L10.9587 18.6458L11.6807 18.2719C12.9426 17.6185 14.7046 16.3901 16.0846 15.1489C18.7138 12.7843 20.1253 10.3388 20.1253 7.80725C20.1253 4.49056 17.8403 1.88682 14.753 1.87404ZM18.4587 7.80725C18.4587 9.7906 17.2805 11.8318 14.9701 13.9097C13.7105 15.0426 12.0911 16.1748 10.9587 16.7688C9.82619 16.1748 8.20684 15.0426 6.94722 13.9097C4.63684 11.8318 3.45866 9.7906 3.45866 7.80725C3.45866 5.33045 5.02836 3.54069 7.17078 3.54069C8.09556 3.54069 8.66543 3.65035 9.32127 3.97473C9.70866 4.16633 10.0511 4.41933 10.3474 4.7355L10.9606 5.38961L11.5682 4.73031C11.8712 4.40148 12.2187 4.14272 12.6103 3.95105C13.2469 3.63943 13.7812 3.54069 14.7496 3.5407C16.8655 3.54947 18.4587 5.36483 18.4587 7.80725Z" fill="#FF1678"/>
<path d="M8.35514 2.78564L11.0114 4.40023L13.4593 3.15023L17.4697 3.82731L19.2926 7.57731L18.1989 11.2231L11.0114 17.6294L7.46973 14.9211L3.82389 11.2231L3.25098 6.69189L5.28223 3.51481L8.35514 2.78564Z" fill="#FF1678" stroke="#FF1678"/>
</svg>
