<svg width="21" height="21" viewBox="0 0 21 21" fill="none" xmlns="http://www.w3.org/2000/svg">
<path fill-rule="evenodd" clip-rule="evenodd" d="M13.9234 2.44777C12.717 2.44775 11.9394 2.59147 11.0479 3.02781C10.7179 3.18936 10.4083 3.38391 10.1207 3.61089C9.84423 3.39664 9.54697 3.21102 9.23058 3.05453C8.32183 2.60507 7.5043 2.44775 6.34119 2.44775C3.2261 2.44775 0.962402 5.02881 0.962402 8.38098C0.962402 10.9125 2.37393 13.358 5.0031 15.7227C6.38315 16.9639 8.14517 18.1922 9.40707 18.8456L10.1291 19.2195L10.8511 18.8456C12.113 18.1922 13.875 16.9639 15.255 15.7227C17.8842 13.358 19.2957 10.9125 19.2957 8.38098C19.2957 5.06429 17.0107 2.46055 13.9234 2.44777ZM17.6291 8.38098C17.6291 10.3643 16.4509 12.4055 14.1405 14.4835C12.8809 15.6164 11.2615 16.7485 10.1291 17.3425C8.9966 16.7485 7.37725 15.6164 6.11763 14.4835C3.80725 12.4055 2.62907 10.3643 2.62907 8.38098C2.62907 5.90419 4.19877 4.11442 6.34119 4.11442C7.26597 4.11442 7.83584 4.22408 8.49168 4.54846C8.87907 4.74006 9.22147 4.99306 9.51784 5.30923L10.131 5.96334L10.7386 5.30404C11.0417 4.97521 11.3891 4.71645 11.7807 4.52478C12.4173 4.21316 12.9516 4.11442 13.92 4.11443C16.0359 4.1232 17.6291 5.93856 17.6291 8.38098Z" fill="white"/>
</svg>
