<svg width="666" height="1" viewBox="0 0 666 1" fill="none" xmlns="http://www.w3.org/2000/svg">
<path d="M0 0H6.734V0.611H0V0Z" fill="#454545"/>
<path d="M6.72852 0H13.4625V0.611H6.72852V0Z" fill="#454545"/>
<path d="M16.6816 0H23.4156V0.611H16.6816V0Z" fill="#454545"/>
<path d="M23.4102 0H30.1442V0.611H23.4102V0Z" fill="#454545"/>
<path d="M33.3633 0H40.0973V0.611H33.3633V0Z" fill="#454545"/>
<path d="M40.0918 0H46.8258V0.611H40.0918V0Z" fill="#454545"/>
<path d="M50.0449 0H56.7789V0.611H50.0449V0Z" fill="#454545"/>
<path d="M56.7734 0H63.5074V0.611H56.7734V0Z" fill="#454545"/>
<path d="M66.7266 0H73.4606V0.611H66.7266V0Z" fill="#454545"/>
<path d="M73.4551 0H80.1891V0.611H73.4551V0Z" fill="#454545"/>
<path d="M83.4082 0H90.1422V0.611H83.4082V0Z" fill="#454545"/>
<path d="M90.1367 0H96.8707V0.611H90.1367V0Z" fill="#454545"/>
<path d="M100.09 0H106.824V0.611H100.09V0Z" fill="#454545"/>
<path d="M106.818 0H113.552V0.611H106.818V0Z" fill="#454545"/>
<path d="M116.771 0H123.505V0.611H116.771V0Z" fill="#454545"/>
<path d="M123.5 0H130.234V0.611H123.5V0Z" fill="#454545"/>
<path d="M133.453 0H140.187V0.611H133.453V0Z" fill="#454545"/>
<path d="M140.182 0H146.916V0.611H140.182V0Z" fill="#454545"/>
<path d="M150.135 0H156.869V0.611H150.135V0Z" fill="#454545"/>
<path d="M156.863 0H163.597V0.611H156.863V0Z" fill="#454545"/>
<path d="M166.816 0H173.55V0.611H166.816V0Z" fill="#454545"/>
<path d="M173.545 0H180.279V0.611H173.545V0Z" fill="#454545"/>
<path d="M183.498 0H190.232V0.611H183.498V0Z" fill="#454545"/>
<path d="M190.227 0H196.961V0.611H190.227V0Z" fill="#454545"/>
<path d="M200.18 0H206.914V0.611H200.18V0Z" fill="#454545"/>
<path d="M206.908 0H213.642V0.611H206.908V0Z" fill="#454545"/>
<path d="M216.861 0H223.595V0.611H216.861V0Z" fill="#454545"/>
<path d="M223.59 0H230.324V0.611H223.59V0Z" fill="#454545"/>
<path d="M233.543 0H240.277V0.611H233.543V0Z" fill="#454545"/>
<path d="M240.271 0H247.005V0.611H240.271V0Z" fill="#454545"/>
<path d="M250.225 0H256.959V0.611H250.225V0Z" fill="#454545"/>
<path d="M256.953 0H263.687V0.611H256.953V0Z" fill="#454545"/>
<path d="M266.906 0H273.64V0.611H266.906V0Z" fill="#454545"/>
<path d="M273.635 0H280.369V0.611H273.635V0Z" fill="#454545"/>
<path d="M283.588 0H290.322V0.611H283.588V0Z" fill="#454545"/>
<path d="M290.316 0H297.05V0.611H290.316V0Z" fill="#454545"/>
<path d="M300.27 0H307.004V0.611H300.27V0Z" fill="#454545"/>
<path d="M306.998 0H313.732V0.611H306.998V0Z" fill="#454545"/>
<path d="M316.951 0H323.685V0.611H316.951V0Z" fill="#454545"/>
<path d="M323.68 0H330.414V0.611H323.68V0Z" fill="#454545"/>
<path d="M333.633 0H340.367V0.611H333.633V0Z" fill="#454545"/>
<path d="M340.361 0H347.095V0.611H340.361V0Z" fill="#454545"/>
<path d="M350.314 0H357.048V0.611H350.314V0Z" fill="#454545"/>
<path d="M357.043 0H363.777V0.611H357.043V0Z" fill="#454545"/>
<path d="M366.996 0H373.73V0.611H366.996V0Z" fill="#454545"/>
<path d="M373.725 0H380.459V0.611H373.725V0Z" fill="#454545"/>
<path d="M383.678 0H390.412V0.611H383.678V0Z" fill="#454545"/>
<path d="M390.406 0H397.14V0.611H390.406V0Z" fill="#454545"/>
<path d="M400.359 0H407.093V0.611H400.359V0Z" fill="#454545"/>
<path d="M407.088 0H413.822V0.611H407.088V0Z" fill="#454545"/>
<path d="M417.041 0H423.775V0.611H417.041V0Z" fill="#454545"/>
<path d="M423.77 0H430.504V0.611H423.77V0Z" fill="#454545"/>
<path d="M433.723 0H440.457V0.611H433.723V0Z" fill="#454545"/>
<path d="M440.451 0H447.185V0.611H440.451V0Z" fill="#454545"/>
<path d="M450.404 0H457.138V0.611H450.404V0Z" fill="#454545"/>
<path d="M457.133 0H463.867V0.611H457.133V0Z" fill="#454545"/>
<path d="M467.086 0H473.82V0.611H467.086V0Z" fill="#454545"/>
<path d="M473.814 0H480.548V0.611H473.814V0Z" fill="#454545"/>
<path d="M483.768 0H490.502V0.611H483.768V0Z" fill="#454545"/>
<path d="M490.496 0H497.23V0.611H490.496V0Z" fill="#454545"/>
<path d="M499 0H505.734V0.611H499V0Z" fill="#454545"/>
<path d="M505.729 0H512.463V0.611H505.729V0Z" fill="#454545"/>
<path d="M515.682 0H522.416V0.611H515.682V0Z" fill="#454545"/>
<path d="M522.41 0H529.144V0.611H522.41V0Z" fill="#454545"/>
<path d="M532.363 0H539.097V0.611H532.363V0Z" fill="#454545"/>
<path d="M539.092 0H545.826V0.611H539.092V0Z" fill="#454545"/>
<path d="M549.045 0H555.779V0.611H549.045V0Z" fill="#454545"/>
<path d="M555.773 0H562.507V0.611H555.773V0Z" fill="#454545"/>
<path d="M565.727 0H572.461V0.611H565.727V0Z" fill="#454545"/>
<path d="M572.455 0H579.189V0.611H572.455V0Z" fill="#454545"/>
<path d="M582.408 0H589.142V0.611H582.408V0Z" fill="#454545"/>
<path d="M589.137 0H595.871V0.611H589.137V0Z" fill="#454545"/>
<path d="M599.09 0H605.824V0.611H599.09V0Z" fill="#454545"/>
<path d="M605.818 0H612.552V0.611H605.818V0Z" fill="#454545"/>
<path d="M615.771 0H622.505V0.611H615.771V0Z" fill="#454545"/>
<path d="M622.5 0H629.234V0.611H622.5V0Z" fill="#454545"/>
<path d="M632.453 0H639.187V0.611H632.453V0Z" fill="#454545"/>
<path d="M639.182 0H645.916V0.611H639.182V0Z" fill="#454545"/>
<path d="M649.135 0H655.869V0.611H649.135V0Z" fill="#454545"/>
<path d="M655.863 0H662.597V0.611H655.863V0Z" fill="#454545"/>
</svg>
