<svg width="21" height="21" viewBox="0 0 21 21" fill="none" xmlns="http://www.w3.org/2000/svg">
<path fill-rule="evenodd" clip-rule="evenodd" d="M8.45117 13.3496V15.0163H5.11784C2.81665 15.0163 0.951172 13.1508 0.951172 10.8496C0.951172 8.54846 2.81665 6.68298 5.11784 6.68298H8.45117V8.34965H5.11784C3.73713 8.34965 2.61784 9.46894 2.61784 10.8496C2.61784 12.2304 3.73713 13.3496 5.11784 13.3496H8.45117ZM11.7845 8.34965V6.68298H15.1178C17.419 6.68298 19.2845 8.54846 19.2845 10.8496C19.2845 13.1508 17.419 15.0163 15.1178 15.0163H11.7845V13.3496H15.1178C16.4986 13.3496 17.6178 12.2304 17.6178 10.8496C17.6178 9.46894 16.4986 8.34965 15.1178 8.34965H11.7845ZM5.95117 10.0163V11.683H14.2845V10.0163H5.95117Z" fill="#A1A1A1"/>
</svg>
