<svg width="19" height="19" viewBox="0 0 19 19" fill="none" xmlns="http://www.w3.org/2000/svg">
<path fill-rule="evenodd" clip-rule="evenodd" d="M7.55859 12.2261V13.7261H4.55859C2.48753 13.7261 0.808594 12.0471 0.808594 9.97607C0.808594 7.90501 2.48753 6.22607 4.55859 6.22607H7.55859V7.72607H4.55859C3.31595 7.72607 2.30859 8.73343 2.30859 9.97607C2.30859 11.2187 3.31595 12.2261 4.55859 12.2261H7.55859ZM10.5586 7.72607V6.22607H13.5586C15.6297 6.22607 17.3086 7.90501 17.3086 9.97607C17.3086 12.0471 15.6297 13.7261 13.5586 13.7261H10.5586V12.2261H13.5586C14.8012 12.2261 15.8086 11.2187 15.8086 9.97607C15.8086 8.73343 14.8012 7.72607 13.5586 7.72607H10.5586ZM12.8086 9.22607H5.30859V10.7261H12.8086V9.22607Z" fill="black"/>
</svg>
