<svg width="21" height="21" viewBox="0 0 21 21" fill="none" xmlns="http://www.w3.org/2000/svg">
<path fill-rule="evenodd" clip-rule="evenodd" d="M10.7109 20.2869L11.259 19.8083C15.8682 15.7837 18.2109 12.2696 18.2109 9.18063C18.2109 4.80619 14.7967 1.68063 10.7109 1.68063C6.62515 1.68063 3.21094 4.80619 3.21094 9.18063C3.21094 12.2696 5.55369 15.7837 10.1628 19.8083L10.7109 20.2869ZM10.7109 18.0668C6.79978 14.5419 4.8776 11.555 4.8776 9.18063C4.8776 5.76114 7.51437 3.3473 10.7109 3.3473C13.9075 3.3473 16.5443 5.76114 16.5443 9.18063C16.5443 11.555 14.6221 14.5419 10.7109 18.0668ZM10.7109 5.01397C13.0121 5.01397 14.8776 6.87945 14.8776 9.18063C14.8776 11.4818 13.0121 13.3473 10.7109 13.3473C8.40975 13.3473 6.54427 11.4818 6.54427 9.18063C6.54427 6.87945 8.40975 5.01397 10.7109 5.01397ZM8.21094 9.18063C8.21094 7.79992 9.33023 6.68063 10.7109 6.68063C12.0916 6.68063 13.2109 7.79992 13.2109 9.18063C13.2109 10.5613 12.0916 11.6806 10.7109 11.6806C9.33023 11.6806 8.21094 10.5613 8.21094 9.18063Z" fill="#737373"/>
</svg>
