<svg width="24" height="24" viewBox="0 0 24 24" fill="none" xmlns="http://www.w3.org/2000/svg">
<path fill-rule="evenodd" clip-rule="evenodd" d="M7 7V10H6C4.93165 10 4 10.7764 4 11.8334V20.1667C4 21.2237 4.93165 22 6 22H18C19.0683 22 20 21.2237 20 20.1667V11.8334C20 10.7764 19.0683 10 18 10H17V7C17 4.23858 14.7614 2 12 2C9.23858 2 7 4.23858 7 7ZM15 7V10H9V7C9 5.34315 10.3431 4 12 4C13.6569 4 15 5.34315 15 7ZM6.00004 20.0001V12.0001H18V20.0001H6.00004ZM13 16C13 16.5522 12.5522 17 12 17C11.4477 17 11 16.5522 11 16C11 15.4477 11.4477 15 12 15C12.5522 15 13 15.4477 13 16Z" fill="white"/>
</svg>
