<svg width="21" height="21" viewBox="0 0 21 21" fill="none" xmlns="http://www.w3.org/2000/svg">
<path fill-rule="evenodd" clip-rule="evenodd" d="M6.10937 6.76921V9.26921H5.27604C4.38575 9.26921 3.60938 9.91618 3.60938 10.797V17.7414C3.60938 18.6222 4.38575 19.2692 5.27604 19.2692H15.276C16.1663 19.2692 16.9427 18.6222 16.9427 17.7414V10.797C16.9427 9.91618 16.1663 9.26921 15.276 9.26921H14.4427V6.76921C14.4427 4.46802 12.5772 2.60254 10.276 2.60254C7.97485 2.60254 6.10937 4.46802 6.10937 6.76921ZM12.776 6.76921V9.26921H7.77604V6.76921C7.77604 5.38849 8.89533 4.26921 10.276 4.26921C11.6568 4.26921 12.776 5.38849 12.776 6.76921ZM5.27604 17.6025V10.9359H15.276V17.6025H5.27604ZM11.1094 14.2692C11.1094 14.7294 10.7363 15.1025 10.276 15.1025C9.8158 15.1025 9.44271 14.7294 9.44271 14.2692C9.44271 13.809 9.8158 13.4359 10.276 13.4359C10.7363 13.4359 11.1094 13.809 11.1094 14.2692Z" fill="#737373"/>
</svg>
