<svg width="57" height="56" viewBox="0 0 57 56" fill="none" xmlns="http://www.w3.org/2000/svg">
<path fill-rule="evenodd" clip-rule="evenodd" d="M28.0309 0.0151868C33.3173 -0.0557327 45.399 -0.0890747 50.5508 5.06371C55.7025 10.216 56.375 18.1494 56.375 27.5865C56.375 37.0235 55.9401 45.4963 50.5508 50.8862C45.162 56.2761 33.1423 55.913 29.196 55.9342C25.2492 55.9559 14.1041 56.8974 6.28793 50.8862C-0.288314 43.2359 0.300894 33.6221 0.463709 27.198C0.626524 20.774 0.45204 9.0913 6.67613 4.67523C12.8997 0.259168 18.3914 0.144853 28.0309 0.0151868Z" fill="#FD7E48"/>
<path fill-rule="evenodd" clip-rule="evenodd" d="M28.0309 0.0151868C33.3173 -0.0557327 45.399 -0.0890747 50.5508 5.06371C55.7025 10.216 56.375 18.1494 56.375 27.5865C56.375 37.0235 55.9401 45.4963 50.5508 50.8862C45.162 56.2761 33.1423 55.913 29.196 55.9342C25.2492 55.9559 14.1041 56.8974 6.28793 50.8862C-0.288314 43.2359 0.300894 33.6221 0.463709 27.198C0.626524 20.774 0.45204 9.0913 6.67613 4.67523C12.8997 0.259168 18.3914 0.144853 28.0309 0.0151868Z" fill="url(#paint0_linear)"/>
<path fill-rule="evenodd" clip-rule="evenodd" d="M47.4833 47.8184C46.5944 48.7239 40.6021 52.8325 39.8103 51.8158C39.0185 50.7991 43.0735 45.4775 43.9624 44.5714C44.8512 43.6654 46.867 43.3203 47.6588 44.337C48.4501 45.3537 48.3716 46.9123 47.4833 47.8184ZM31.3879 14.1501C30.2519 12.5851 36.0698 4.39446 37.3447 3.00041C38.6197 1.60637 41.5122 1.07447 42.6482 2.63946C43.7836 4.20445 43.6712 6.60301 42.3963 7.99759C41.1213 9.39163 32.5239 15.7151 31.3879 14.1501ZM6.39877 43.3478C5.60697 42.3311 9.66196 37.0095 10.5508 36.1034C11.4397 35.1974 13.4555 34.8523 14.2473 35.869C15.0386 36.8857 14.9601 38.4443 14.0718 39.3504C13.1829 40.2559 7.19057 44.3645 6.39877 43.3478Z" fill="white" fill-opacity="0.3"/>
<g filter="url(#filter0_d)">
<path fill-rule="evenodd" clip-rule="evenodd" d="M28.3757 40.728C21.3466 40.728 15.6484 35.0298 15.6484 28.0007C15.6484 20.9716 21.3466 15.2734 28.3757 15.2734C35.4048 15.2734 41.103 20.9716 41.103 28.0007C41.103 35.0298 35.4048 40.728 28.3757 40.728ZM20.9646 24.7792C20.9646 26.39 22.2705 27.6959 23.8813 27.6959C25.4921 27.6959 26.798 26.39 26.798 24.7792C26.798 23.1684 25.4921 21.8625 23.8813 21.8625C22.2705 21.8625 20.9646 23.1684 20.9646 24.7792ZM33.0458 34.1655C31.4349 34.1655 30.1291 32.8597 30.1291 31.2489C30.1291 29.638 31.4349 28.3322 33.0458 28.3322C34.6566 28.3322 35.9624 29.638 35.9624 31.2489C35.9624 32.8597 34.6566 34.1655 33.0458 34.1655ZM26.3131 35.9686L33.9494 20.6959H31.1035L23.4672 35.9686H26.3131Z" fill="white"/>
</g>
<defs>
<filter id="filter0_d" x="14.375" y="14" width="28" height="30" filterUnits="userSpaceOnUse" color-interpolation-filters="sRGB">
<feFlood flood-opacity="0" result="BackgroundImageFix"/>
<feColorMatrix in="SourceAlpha" type="matrix" values="0 0 0 0 0 0 0 0 0 0 0 0 0 0 0 0 0 0 127 0"/>
<feOffset dy="2"/>
<feColorMatrix type="matrix" values="0 0 0 0 1 0 0 0 0 1 0 0 0 0 1 0 0 0 0.25 0"/>
<feBlend mode="normal" in2="BackgroundImageFix" result="effect1_dropShadow"/>
<feBlend mode="normal" in="SourceGraphic" in2="effect1_dropShadow" result="shape"/>
</filter>
<linearGradient id="paint0_linear" x1="7.34375" y1="47.2168" x2="50.3437" y2="8.2168" gradientUnits="userSpaceOnUse">
<stop stop-color="#B057FF"/>
<stop offset="1" stop-color="#7A7DFF"/>
</linearGradient>
</defs>
</svg>
