<svg width="18" height="19" viewBox="0 0 18 19" fill="none" xmlns="http://www.w3.org/2000/svg">
<path fill-rule="evenodd" clip-rule="evenodd" d="M9 18.2691L9.4933 17.8384C13.6415 14.2162 15.75 11.0535 15.75 8.27344C15.75 4.33644 12.6772 1.52344 9 1.52344C5.32279 1.52344 2.25 4.33644 2.25 8.27344C2.25 11.0535 4.35848 14.2162 8.5067 17.8384L9 18.2691ZM9 16.271C5.47996 13.0986 3.75 10.4104 3.75 8.27344C3.75 5.19589 6.12309 3.02344 9 3.02344C11.8769 3.02344 14.25 5.19589 14.25 8.27344C14.25 10.4104 12.52 13.0986 9 16.271ZM9 4.52344C11.0711 4.52344 12.75 6.20237 12.75 8.27344C12.75 10.3445 11.0711 12.0234 9 12.0234C6.92893 12.0234 5.25 10.3445 5.25 8.27344C5.25 6.20237 6.92893 4.52344 9 4.52344ZM6.75 8.27344C6.75 7.0308 7.75736 6.02344 9 6.02344C10.2426 6.02344 11.25 7.0308 11.25 8.27344C11.25 9.51608 10.2426 10.5234 9 10.5234C7.75736 10.5234 6.75 9.51608 6.75 8.27344Z" fill="black"/>
</svg>
