<svg width="23" height="27" viewBox="0 0 23 27" fill="none" xmlns="http://www.w3.org/2000/svg">
<g filter="url(#filter0_d)">
<path fill-rule="evenodd" clip-rule="evenodd" d="M11.5781 17.815L12.0714 17.3843C16.2196 13.7621 18.3281 10.5994 18.3281 7.81934C18.3281 3.88233 15.2553 1.06934 11.5781 1.06934C7.90091 1.06934 4.82812 3.88233 4.82812 7.81934C4.82812 10.5994 6.93661 13.7621 11.0848 17.3843L11.5781 17.815ZM11.5781 15.8169C8.05808 12.6445 6.32812 9.95626 6.32812 7.81934C6.32812 4.74179 8.70121 2.56934 11.5781 2.56934C14.455 2.56934 16.8281 4.74179 16.8281 7.81934C16.8281 9.95626 15.0982 12.6445 11.5781 15.8169ZM11.5781 4.06934C13.6492 4.06934 15.3281 5.74827 15.3281 7.81934C15.3281 9.8904 13.6492 11.5693 11.5781 11.5693C9.50706 11.5693 7.82812 9.8904 7.82812 7.81934C7.82812 5.74827 9.50706 4.06934 11.5781 4.06934ZM9.32812 7.81934C9.32812 6.5767 10.3355 5.56934 11.5781 5.56934C12.8208 5.56934 13.8281 6.5767 13.8281 7.81934C13.8281 9.06198 12.8208 10.0693 11.5781 10.0693C10.3355 10.0693 9.32812 9.06198 9.32812 7.81934Z" fill="white"/>
</g>
<defs>
<filter id="filter0_d" x="-1.42188" y="0.319336" width="26" height="27" filterUnits="userSpaceOnUse" color-interpolation-filters="sRGB">
<feFlood flood-opacity="0" result="BackgroundImageFix"/>
<feColorMatrix in="SourceAlpha" type="matrix" values="0 0 0 0 0 0 0 0 0 0 0 0 0 0 0 0 0 0 127 0"/>
<feOffset dy="5"/>
<feGaussianBlur stdDeviation="2"/>
<feColorMatrix type="matrix" values="0 0 0 0 0 0 0 0 0 0 0 0 0 0 0 0 0 0 0.5 0"/>
<feBlend mode="normal" in2="BackgroundImageFix" result="effect1_dropShadow"/>
<feBlend mode="normal" in="SourceGraphic" in2="effect1_dropShadow" result="shape"/>
</filter>
</defs>
</svg>
