<svg width="21" height="21" viewBox="0 0 21 21" fill="none" xmlns="http://www.w3.org/2000/svg">
<g clip-path="url(#clip0)">
<path d="M10.0849 0.717773C6.25792 0.717773 3.14453 3.83162 3.14453 7.65866C3.14453 11.3425 9.44162 19.9493 9.70974 20.3138L9.95998 20.6543C9.98924 20.6944 10.0358 20.7178 10.0849 20.7178C10.1346 20.7178 10.1809 20.6944 10.2105 20.6543L10.4606 20.3138C10.7289 19.9493 17.0258 11.3425 17.0258 7.65866C17.0258 3.83162 13.9119 0.717773 10.0849 0.717773ZM10.0849 5.17245C11.4561 5.17245 12.5711 6.28751 12.5711 7.65866C12.5711 9.02911 11.456 10.1449 10.0849 10.1449C8.71447 10.1449 7.59865 9.02911 7.59865 7.65866C7.59865 6.28751 8.71442 5.17245 10.0849 5.17245Z" fill="#FF2462"/>
</g>
<defs>
<clipPath id="clip0">
<rect width="20" height="20" fill="white" transform="translate(0.0859375 0.717773)"/>
</clipPath>
</defs>
</svg>
