<svg width="21" height="21" viewBox="0 0 21 21" fill="none" xmlns="http://www.w3.org/2000/svg">
<path fill-rule="evenodd" clip-rule="evenodd" d="M7.69922 12.5805V10.9138H13.5326V12.5805H7.69922Z" fill="#737373"/>
<path fill-rule="evenodd" clip-rule="evenodd" d="M6.86719 9.24675V7.58008H14.3672V9.24675H6.86719Z" fill="#737373"/>
<path fill-rule="evenodd" clip-rule="evenodd" d="M10.6159 18.413C9.17875 18.413 7.79337 18.048 6.56631 17.3645L3.03698 17.6586L3.33109 14.1292C2.64757 12.9022 2.28255 11.5168 2.28255 10.0797C2.28255 5.4773 6.01351 1.74634 10.6159 1.74634C15.2183 1.74634 18.9492 5.4773 18.9492 10.0797C18.9492 14.682 15.2183 18.413 10.6159 18.413ZM7.18714 15.7977L6.95663 15.6591L4.86187 15.8337L5.03644 13.7389L4.89787 13.5084C4.28044 12.4813 3.94963 11.3055 3.94963 10.0793C3.94963 6.39736 6.9344 3.4126 10.6163 3.4126C14.2982 3.4126 17.283 6.39736 17.283 10.0793C17.283 13.7612 14.2982 16.7459 10.6163 16.7459C9.39002 16.7459 8.21428 16.4151 7.18714 15.7977Z" fill="#737373"/>
</svg>
