<svg width="21" height="21" viewBox="0 0 21 21" fill="none" xmlns="http://www.w3.org/2000/svg">
<path fill-rule="evenodd" clip-rule="evenodd" d="M10.3694 18.8034C8.93229 18.8034 7.54691 18.4384 6.31985 17.7548L2.79052 18.049L3.08463 14.5196C2.40111 13.2926 2.03609 11.9072 2.03609 10.4701C2.03609 5.86768 5.76705 2.13672 10.3694 2.13672C14.9718 2.13672 18.7028 5.86768 18.7028 10.4701C18.7028 15.0724 14.9718 18.8034 10.3694 18.8034ZM6.94061 16.1893L6.7101 16.0507L4.61534 16.2253L4.78991 14.1305L4.65134 13.9C4.03391 12.8729 3.7031 11.6972 3.7031 10.4709C3.7031 6.78897 6.68787 3.8042 10.3698 3.8042C14.0517 3.8042 17.0364 6.78897 17.0364 10.4709C17.0364 14.1528 14.0517 17.1375 10.3698 17.1375C9.14349 17.1375 7.96775 16.8067 6.94061 16.1893Z" fill="#737373"/>
<path fill-rule="evenodd" clip-rule="evenodd" d="M6.31941 17.7509C7.54646 18.4345 8.93185 18.7995 10.369 18.7995C14.9714 18.7995 18.7023 15.0685 18.7023 10.4661C18.7023 5.86377 14.9714 2.13281 10.369 2.13281C5.76661 2.13281 2.03564 5.86377 2.03564 10.4661C2.03564 11.9033 2.40066 13.2887 3.08418 14.5157L2.79007 18.0451L6.31941 17.7509ZM4.64863 16.2186C4.63829 16.2084 4.62797 16.1982 4.61768 16.188L4.6149 16.2214L4.64863 16.2186Z" fill="#737373"/>
</svg>
