<svg width="25" height="25" viewBox="0 0 25 25" fill="none" xmlns="http://www.w3.org/2000/svg">
<path fill-rule="evenodd" clip-rule="evenodd" d="M8.50391 15.6292V13.6292H15.5039V15.6292H8.50391Z" fill="#454545"/>
<path fill-rule="evenodd" clip-rule="evenodd" d="M7.50391 11.6289V9.62891H16.5039V11.6289H7.50391Z" fill="#454545"/>
<path fill-rule="evenodd" clip-rule="evenodd" d="M12.0039 22.6287C10.2793 22.6287 8.61689 22.1906 7.14442 21.3704L2.90922 21.7234L3.26215 17.4881C2.44192 16.0157 2.00391 14.3532 2.00391 12.6287C2.00391 7.10581 6.48106 2.62866 12.0039 2.62866C17.5268 2.62866 22.0039 7.10581 22.0039 12.6287C22.0039 18.1515 17.5268 22.6287 12.0039 22.6287ZM7.88911 19.4906L7.61249 19.3243L5.09878 19.5338L5.30826 17.0201L5.14198 16.7435C4.40106 15.5109 4.00409 14.1 4.00409 12.6285C4.00409 8.2102 7.58582 4.62848 12.0041 4.62848C16.4224 4.62848 20.0041 8.2102 20.0041 12.6285C20.0041 17.0468 16.4224 20.6285 12.0041 20.6285C10.5326 20.6285 9.12167 20.2315 7.88911 19.4906Z" fill="#454545"/>
</svg>
