<svg width="25" height="25" viewBox="0 0 25 25" fill="none" xmlns="http://www.w3.org/2000/svg">
<path fill-rule="evenodd" clip-rule="evenodd" d="M9.31641 15.062V13.062H16.3164V15.062H9.31641Z" fill="#454545"/>
<path fill-rule="evenodd" clip-rule="evenodd" d="M8.31641 11.0618V9.06177H17.3164V11.0618H8.31641Z" fill="#454545"/>
<path fill-rule="evenodd" clip-rule="evenodd" d="M12.8164 22.0615C11.0918 22.0615 9.42939 21.6235 7.95692 20.8033L3.72172 21.1562L4.07465 16.921C3.25442 15.4485 2.81641 13.7861 2.81641 12.0615C2.81641 6.53868 7.29356 2.06152 12.8164 2.06152C18.3393 2.06152 22.8164 6.53868 22.8164 12.0615C22.8164 17.5844 18.3393 22.0615 12.8164 22.0615ZM8.70161 18.9234L8.42499 18.7572L5.91128 18.9666L6.12076 16.4529L5.95448 16.1763C5.21356 14.9438 4.81659 13.5329 4.81659 12.0613C4.81659 7.64306 8.39832 4.06134 12.8166 4.06134C17.2349 4.06134 20.8166 7.64306 20.8166 12.0613C20.8166 16.4796 17.2349 20.0613 12.8166 20.0613C11.3451 20.0613 9.93417 19.6644 8.70161 18.9234Z" fill="#454545"/>
</svg>
