<svg width="25" height="25" viewBox="0 0 25 25" fill="none" xmlns="http://www.w3.org/2000/svg">
<path fill-rule="evenodd" clip-rule="evenodd" d="M8.77612 15.1875V13.1875H15.7761V15.1875H8.77612Z" fill="#454545"/>
<path fill-rule="evenodd" clip-rule="evenodd" d="M7.77612 11.1875V9.1875H16.7761V11.1875H7.77612Z" fill="#454545"/>
<path fill-rule="evenodd" clip-rule="evenodd" d="M12.2761 22.1875C10.5516 22.1875 8.8891 21.7495 7.41664 20.9293L3.18143 21.2822L3.53437 17.047C2.71414 15.5745 2.27612 13.9121 2.27612 12.1875C2.27612 6.66465 6.75327 2.1875 12.2761 2.1875C17.799 2.1875 22.2761 6.66465 22.2761 12.1875C22.2761 17.7103 17.799 22.1875 12.2761 22.1875ZM8.16113 19.0496L7.88452 18.8833L5.37081 19.0928L5.58029 16.5791L5.41401 16.3025C4.67309 15.0699 4.27612 13.659 4.27612 12.1875C4.27612 7.76922 7.85785 4.1875 12.2761 4.1875C16.6944 4.1875 20.2761 7.76922 20.2761 12.1875C20.2761 16.6058 16.6944 20.1875 12.2761 20.1875C10.8046 20.1875 9.3937 19.7905 8.16113 19.0496Z" fill="#454545"/>
</svg>
