<svg width="21" height="21" viewBox="0 0 21 21" fill="none" xmlns="http://www.w3.org/2000/svg">
<path fill-rule="evenodd" clip-rule="evenodd" d="M4.31734 2.35117C4.13974 2.35079 3.96854 2.37089 3.80585 2.40911C3.58283 1.91757 3.28825 1.47658 2.9532 1.14153C2.38453 0.572853 1.48765 0.348633 0.246094 0.348633V2.34863C1.00454 2.34863 1.44099 2.45775 1.53899 2.55574C1.91696 2.93371 2.24609 3.70169 2.24609 4.34863L2.25614 4.49005L3.23601 11.3491C1.59645 11.4342 0.326291 12.7075 0.247322 14.2991L0.246094 15.3486C0.342915 16.9926 1.60885 18.2572 3.18933 18.347L3.41635 18.3474C3.82783 19.5132 4.9394 20.3486 6.24609 20.3486C7.55231 20.3486 8.66355 19.5138 9.07539 18.3486H11.4168C11.8286 19.5138 12.9399 20.3486 14.2461 20.3486C15.9029 20.3486 17.2461 19.0055 17.2461 17.3486C17.2461 15.6918 15.9029 14.3486 14.2461 14.3486C12.9399 14.3486 11.8286 15.1834 11.4168 16.3486H9.07539C8.66355 15.1834 7.55231 14.3486 6.24609 14.3486C4.93987 14.3486 3.82864 15.1834 3.4168 16.3486H3.24609C2.7361 16.318 2.27863 15.861 2.2443 15.2888L2.24609 14.3486C2.27306 13.8299 2.7274 13.3756 3.29565 13.3474L5.26979 13.3479L5.28409 13.3486H15.3629L15.5106 13.3018C16.2688 13.0612 16.8757 12.4903 17.1631 11.7512L17.2685 11.5427L17.6108 10.8645C17.9649 10.1626 18.319 9.45939 18.6641 8.77243C19.5093 7.08971 20.0409 6.0203 20.1586 5.75769C20.7632 4.40908 19.5385 3.3711 18.2868 3.34899L4.31734 2.35117ZM15.0155 11.3486H5.35896C5.29475 11.3308 5.24582 11.2764 5.23625 11.2086L4.25635 4.34937L18.1395 5.34356C17.8966 5.83895 17.455 6.72379 16.8769 7.87472L16.8624 7.90356C16.5324 8.56049 16.1787 9.26268 15.8251 9.96371L15.4832 10.641L15.3537 10.8975L15.3049 11.0109C15.2526 11.1564 15.1489 11.276 15.0155 11.3486ZM14.2461 18.3486C14.7984 18.3486 15.2461 17.9009 15.2461 17.3486C15.2461 16.7963 14.7984 16.3486 14.2461 16.3486C13.6938 16.3486 13.2461 16.7963 13.2461 17.3486C13.2461 17.9009 13.6938 18.3486 14.2461 18.3486ZM7.24609 17.3486C7.24609 17.9009 6.79838 18.3486 6.24609 18.3486C5.69381 18.3486 5.24609 17.9009 5.24609 17.3486C5.24609 16.7963 5.69381 16.3486 6.24609 16.3486C6.79838 16.3486 7.24609 16.7963 7.24609 17.3486Z" fill="#A1A1A1"/>
</svg>
