<svg width="21" height="21" viewBox="0 0 21 21" fill="none" xmlns="http://www.w3.org/2000/svg">
<path fill-rule="evenodd" clip-rule="evenodd" d="M4.27507 15.5403V4.70695H14.2751V15.5403C14.2751 15.8325 14.3252 16.113 14.4173 16.3736H5.1084C4.64816 16.3736 4.27507 16.0005 4.27507 15.5403ZM16.7751 18.0403H5.1084C3.72769 18.0403 2.6084 16.921 2.6084 15.5403V3.04028H14.2751H15.1084H15.9417L15.9417 7.20695H19.2751L19.2751 8.04028L19.2751 8.87362L19.2751 15.5403C19.2751 16.921 18.1558 18.0403 16.7751 18.0403ZM15.9417 8.87362H17.6084V15.5403C17.6084 16.0005 17.2353 16.3736 16.7751 16.3736C16.3148 16.3736 15.9417 16.0005 15.9417 15.5403L15.9417 8.87362ZM9.27506 6.37362V9.70695H5.94173V6.37362H9.27506ZM12.6084 8.87362V7.20695H10.1084V8.87362H12.6084ZM12.6084 10.5403V12.2069H5.94173V10.5403H12.6084ZM12.6084 14.7069V13.0403H5.94173V14.7069H12.6084Z" fill="#454545"/>
</svg>
