<svg width="21" height="21" viewBox="0 0 21 21" fill="none" xmlns="http://www.w3.org/2000/svg">
<path fill-rule="evenodd" clip-rule="evenodd" d="M3.45182 15.002V4.16862H13.4518V15.002C13.4518 15.2941 13.502 15.5746 13.5941 15.8353H4.28516C3.82492 15.8353 3.45182 15.4622 3.45182 15.002ZM15.9518 17.502H4.28516C2.90444 17.502 1.78516 16.3827 1.78516 15.002V2.50195H13.4518H14.2852H15.1185L15.1185 6.66862H18.4518L18.4518 7.50195L18.4518 8.33529L18.4518 15.002C18.4518 16.3827 17.3325 17.502 15.9518 17.502ZM15.1185 8.33529H16.7852V15.002C16.7852 15.4622 16.4121 15.8353 15.9518 15.8353C15.4916 15.8353 15.1185 15.4622 15.1185 15.002L15.1185 8.33529ZM8.45182 5.83529V9.16862H5.11849V5.83529H8.45182ZM11.7852 8.33529V6.66862H9.28516V8.33529H11.7852ZM11.7852 10.002V11.6686H5.11849V10.002H11.7852ZM11.7852 14.1686V12.502H5.11849V14.1686H11.7852Z" fill="#A1A1A1"/>
</svg>
