<svg width="36" height="36" viewBox="0 0 36 36" fill="none" xmlns="http://www.w3.org/2000/svg">
<rect width="35.2023" height="35.2023" rx="5" transform="matrix(-1 0 0 1 35.2021 0)" fill="black"/>
<path d="M16.9824 25.6945C16.9824 26.0706 17.1124 26.4458 17.3724 26.7327C17.891 27.3065 18.7336 27.3065 19.255 26.7327L25.8128 19.5067C26.3095 18.96 26.3328 18.08 25.8714 17.5006L19.4903 9.49833C19.0038 8.89015 18.1627 8.82975 17.6116 9.3662C17.0591 9.90265 17.0068 10.8317 17.4904 11.4369L23.046 18.4036L17.3724 24.6564C17.1124 24.9429 16.9824 25.3189 16.9824 25.6945Z" fill="white"/>
<path d="M8.98242 25.6945C8.98242 26.0706 9.11243 26.4458 9.37243 26.7327C9.89103 27.3065 10.7336 27.3065 11.255 26.7327L17.8128 19.5067C18.3095 18.96 18.3328 18.08 17.8714 17.5006L11.4903 9.49833C11.0038 8.89015 10.1627 8.82975 9.6116 9.3662C9.05908 9.90265 9.0068 10.8317 9.49043 11.4369L15.046 18.4036L9.37243 24.6564C9.11243 24.9429 8.98242 25.3189 8.98242 25.6945Z" fill="white"/>
</svg>
