<svg width="41" height="41" viewBox="0 0 41 41" fill="none" xmlns="http://www.w3.org/2000/svg">
<g opacity="0.8" filter="url(#filter0_d)">
<rect x="5.04102" y="1.24756" width="30" height="30" rx="15" fill="black" fill-opacity="0.5"/>
<rect x="4.54102" y="0.747559" width="31" height="31" rx="15.5" stroke="white"/>
</g>
<g clip-path="url(#clip0)">
<path d="M16.0977 9.94575C16.0977 9.6345 16.2127 9.32387 16.4427 9.08637C16.9014 8.61137 17.6467 8.61137 18.108 9.08637L23.9089 15.0679C24.3483 15.5204 24.3689 16.2489 23.9608 16.7286L18.3161 23.3526C17.8858 23.8561 17.1417 23.9061 16.6542 23.462C16.1655 23.0179 16.1192 22.2489 16.547 21.7479L21.4614 15.9811L16.4427 10.8051C16.2127 10.5679 16.0977 10.2567 16.0977 9.94575Z" fill="white"/>
</g>
<defs>
<filter id="filter0_d" x="0.0410156" y="0.247559" width="40" height="40" filterUnits="userSpaceOnUse" color-interpolation-filters="sRGB">
<feFlood flood-opacity="0" result="BackgroundImageFix"/>
<feColorMatrix in="SourceAlpha" type="matrix" values="0 0 0 0 0 0 0 0 0 0 0 0 0 0 0 0 0 0 127 0"/>
<feOffset dy="4"/>
<feGaussianBlur stdDeviation="2"/>
<feColorMatrix type="matrix" values="0 0 0 0 0 0 0 0 0 0 0 0 0 0 0 0 0 0 0.25 0"/>
<feBlend mode="normal" in2="BackgroundImageFix" result="effect1_dropShadow"/>
<feBlend mode="normal" in="SourceGraphic" in2="effect1_dropShadow" result="shape"/>
</filter>
<clipPath id="clip0">
<rect width="15" height="15" fill="white" transform="translate(12.541 23.7476) rotate(-90)"/>
</clipPath>
</defs>
</svg>
