<svg width="25" height="25" viewBox="0 0 25 25" fill="none" xmlns="http://www.w3.org/2000/svg">
<path fill-rule="evenodd" clip-rule="evenodd" d="M12.6768 23.7708C6.60163 23.7708 1.67676 18.8459 1.67676 12.7708C1.67676 6.69562 6.60163 1.77075 12.6768 1.77075C18.7519 1.77075 23.6768 6.69562 23.6768 12.7708C23.6768 18.8459 18.7519 23.7708 12.6768 23.7708ZM20.0763 17.8954C21.0854 16.4411 21.6768 14.675 21.6768 12.7708C21.6768 7.80019 17.6473 3.77075 12.6768 3.77075C7.70619 3.77075 3.67676 7.80019 3.67676 12.7708C3.67676 14.675 4.26814 16.4411 5.27726 17.8954C6.40271 16.4088 9.04736 15.7708 12.6768 15.7708C16.3062 15.7708 18.9508 16.4088 20.0763 17.8954ZM18.6414 19.5105C18.3488 18.4581 16.2461 17.7708 12.6768 17.7708C9.10738 17.7708 7.00476 18.4581 6.71208 19.5105C8.30006 20.9169 10.3887 21.7708 12.6768 21.7708C14.9648 21.7708 17.0535 20.9169 18.6414 19.5105ZM12.6768 15.7708C10.4376 15.7708 8.67676 14.1981 8.67676 10.7708C8.67676 8.52651 10.2559 6.77075 12.6768 6.77075C15.091 6.77075 16.6768 8.69233 16.6768 10.9708C16.6768 14.2504 14.8948 15.7708 12.6768 15.7708ZM10.6768 10.7708C10.6768 13.04 11.495 13.7708 12.6768 13.7708C13.8545 13.7708 14.6768 13.0691 14.6768 10.9708C14.6768 9.72117 13.8924 8.77075 12.6768 8.77075C11.4105 8.77075 10.6768 9.58658 10.6768 10.7708Z" fill="#454545"/>
</svg>
