<svg width="21" height="21" viewBox="0 0 21 21" fill="none" xmlns="http://www.w3.org/2000/svg">
<path d="M7.01654 9.94141C6.35404 9.94141 5.81445 10.4806 5.81445 11.1439C5.81445 11.8064 6.35404 12.346 7.01654 12.346C7.67987 12.346 8.21862 11.8064 8.21862 11.1439C8.21862 10.4806 7.67987 9.94141 7.01654 9.94141Z" fill="#FF2462"/>
<path d="M11.2507 9.94141C10.5882 9.94141 10.0486 10.4806 10.0486 11.1439C10.0486 11.8064 10.5882 12.346 11.2507 12.346C11.914 12.346 12.4536 11.8064 12.4536 11.1439C12.4536 10.4806 11.914 9.94141 11.2507 9.94141Z" fill="#FF2462"/>
<path d="M15.3692 9.91895C14.7092 9.91895 14.1721 10.4564 14.1721 11.1169C14.1721 11.7764 14.7092 12.3131 15.3692 12.3131C16.0292 12.3131 16.5663 11.7764 16.5663 11.1169C16.5663 10.4564 16.0292 9.91895 15.3692 9.91895Z" fill="#FF2462"/>
<path d="M1.23093 20.752C1.11927 20.752 1.0101 20.7067 0.930098 20.6214C0.81343 20.4981 0.781763 20.3151 0.850097 20.1584L3.08845 15.0197C2.29844 13.5872 1.88219 11.9777 1.88219 10.3496C1.88219 5.05755 6.1289 0.751953 11.3485 0.751953C16.5682 0.751953 20.8145 5.05798 20.8145 10.35C20.8145 15.6412 16.5682 19.9463 11.3481 19.9463C9.69185 19.9463 8.061 19.499 6.61807 18.6515L1.3826 20.7232C1.33343 20.7422 1.28177 20.752 1.23093 20.752ZM11.3481 1.59727C6.58765 1.59727 2.71511 5.52351 2.71511 10.35C2.71511 11.8995 3.1297 13.4318 3.91346 14.7806C3.98138 14.8977 3.98971 15.0413 3.93554 15.1659L2.02011 19.5636L6.50515 17.7889C6.62682 17.7416 6.76265 17.753 6.87349 17.8214C8.22892 18.6587 9.77643 19.101 11.3485 19.101C16.1086 19.1014 19.9811 15.1756 19.9811 10.35C19.9811 5.52394 16.1086 1.59727 11.3481 1.59727Z" fill="#FF2462"/>
</svg>
