<svg width="70" height="71" viewBox="0 0 70 71" fill="none" xmlns="http://www.w3.org/2000/svg">
<path opacity="0.5" d="M35 70.166C54.33 70.166 70 54.496 70 35.166C70 15.8361 54.33 0.166016 35 0.166016C15.67 0.166016 0 15.8361 0 35.166C0 54.496 15.67 70.166 35 70.166Z" fill="#FF2462"/>
<circle cx="32.4911" cy="32.6395" r="18.0887" fill="white"/>
<path fill-rule="evenodd" clip-rule="evenodd" d="M33.5011 55.91C21.2079 55.91 11.2422 45.9443 11.2422 33.651C11.2422 21.3578 21.2079 11.3921 33.5011 11.3921C45.7944 11.3921 55.7601 21.3578 55.7601 33.651C55.7601 38.7954 54.0149 43.5322 51.0843 47.3016L66.0724 62.2896L62.1375 66.2245L47.1492 51.2362C43.3802 54.1656 38.6444 55.91 33.5011 55.91ZM50.1943 33.651C50.1943 42.871 42.72 50.3452 33.5001 50.3452C24.2801 50.3452 16.8059 42.871 16.8059 33.651C16.8059 24.4311 24.2801 16.9568 33.5001 16.9568C42.72 16.9568 50.1943 24.4311 50.1943 33.651Z" fill="#FF2462"/>
<path d="M26.0387 40.7607C26.9711 40.1585 27.9473 39.6825 28.9672 39.3329C29.987 38.9832 31.1623 38.8083 32.493 38.8083C33.8237 38.8083 34.9989 38.9832 36.0188 39.3329C37.0387 39.6825 38.0148 40.1585 38.9473 40.7607L38.9473 42.305C38.0537 41.7805 37.0872 41.3677 36.0479 41.0666C35.0086 40.7655 33.8237 40.615 32.493 40.615C31.1623 40.615 29.9773 40.7655 28.938 41.0666C27.8987 41.3677 26.9323 41.7805 26.0387 42.305L26.0387 40.7607Z" fill="#FF2462"/>
<ellipse rx="1.08252" ry="1.35151" transform="matrix(-1 0 0 1 28.4546 35.166)" fill="#FF2462"/>
<ellipse rx="1.08252" ry="1.35151" transform="matrix(-1 0 0 1 33.9194 35.166)" fill="#FF2462"/>
</svg>
