<svg width="18" height="24" viewBox="0 0 18 24" fill="none" xmlns="http://www.w3.org/2000/svg">
<path d="M9.00009 24.0002C4.27659 24.0002 0.433594 20.1562 0.433594 15.4317C0.433594 10.7087 4.27659 6.86621 9.00009 6.86621C13.7236 6.86621 17.5666 10.7087 17.5666 15.4317C17.5666 20.1567 13.7236 24.0002 9.00009 24.0002ZM9.00009 7.86621C4.82809 7.86621 1.43359 11.2602 1.43359 15.4317C1.43359 19.6052 4.82809 23.0002 9.00009 23.0002C13.1726 23.0002 16.5666 19.6052 16.5666 15.4317C16.5666 11.2602 13.1726 7.86621 9.00009 7.86621Z" fill="#737373"/>
<path d="M13.8048 9.4295C13.5283 9.4295 13.3048 9.2055 13.3048 8.9295V4.7655C13.3048 2.689 11.5213 1 9.32878 1H8.67128C6.47978 1 4.69678 2.689 4.69678 4.7655V8.82C4.69678 9.096 4.47278 9.32 4.19678 9.32C3.92078 9.32 3.69678 9.096 3.69678 8.82V4.7655C3.69678 2.138 5.92828 0 8.67128 0H9.32878C12.0723 0 14.3048 2.138 14.3048 4.7655V8.9295C14.3048 9.2055 14.0813 9.4295 13.8048 9.4295Z" fill="#737373"/>
<path d="M10.4856 13.9855C10.4856 13.166 9.81962 12.5005 9.00062 12.5005C8.18012 12.5005 7.51562 13.166 7.51562 13.9855C7.51562 14.6505 7.95713 15.1895 8.55663 15.3805V18.3645H9.44362V15.3805C10.0436 15.1895 10.4856 14.6505 10.4856 13.9855Z" fill="#737373"/>
</svg>
