<svg width="25" height="25" viewBox="0 0 25 25" fill="none" xmlns="http://www.w3.org/2000/svg">
<path fill-rule="evenodd" clip-rule="evenodd" d="M22.207 20.9805V13.9805H20.207V20.9805H4.20703V4.98047H11.207V2.98047H4.20703C3.10246 2.98047 2.20703 3.8759 2.20703 4.98047V20.9805C2.20703 22.085 3.10246 22.9805 4.20703 22.9805H20.207C21.3116 22.9805 22.207 22.085 22.207 20.9805ZM19.3851 3.70389C18.9267 3.24189 18.2991 2.98047 17.6443 2.98047C16.9903 2.98047 16.3634 3.2413 15.9024 3.7051L7.53346 12.0739C6.78563 12.7328 6.2954 13.7133 6.21021 14.7678L6.20697 17.9828V18.9828H10.3416C11.4759 18.905 12.466 18.41 13.1645 17.6042L21.486 9.2863C21.9477 8.82463 22.207 8.19846 22.207 7.54555C22.207 6.89264 21.9477 6.26647 21.486 5.80479L19.3851 3.70389ZM10.271 16.9853C10.8052 16.9475 11.3025 16.6988 11.7018 16.2421L17.7639 10.18L15.0096 7.42557L8.90313 13.5301C8.49798 13.8884 8.24734 14.3897 8.20703 14.8483V16.9834L10.271 16.9853ZM16.4241 6.01159L19.1781 8.76582L20.0718 7.87209C20.1584 7.78549 20.2071 7.66803 20.2071 7.54555C20.2071 7.42307 20.1584 7.30561 20.0718 7.219L17.9682 5.11533C17.8825 5.02901 17.766 4.98047 17.6444 4.98047C17.5228 4.98047 17.4062 5.02901 17.3206 5.11533L16.4241 6.01159Z" fill="white"/>
</svg>
