<svg width="25" height="25" viewBox="0 0 25 25" fill="none" xmlns="http://www.w3.org/2000/svg">
<path fill-rule="evenodd" clip-rule="evenodd" d="M22.5625 20.5001V13.5001H20.5625V20.5001H4.5625V4.50012H11.5625V2.50012H4.5625C3.45793 2.50012 2.5625 3.39555 2.5625 4.50012V20.5001C2.5625 21.6047 3.45793 22.5001 4.5625 22.5001H20.5625C21.6671 22.5001 22.5625 21.6047 22.5625 20.5001ZM19.7406 3.22354C19.2822 2.76154 18.6546 2.50012 17.9998 2.50012C17.3458 2.50012 16.7189 2.76095 16.2579 3.22475L7.88896 11.5935C7.14113 12.2525 6.65091 13.233 6.56571 14.2874L6.56247 17.5025V18.5025H10.6971C11.8314 18.4247 12.8215 17.9296 13.52 17.1239L21.8415 8.80596C22.3032 8.34428 22.5625 7.71811 22.5625 7.0652C22.5625 6.41229 22.3032 5.78612 21.8415 5.32444L19.7406 3.22354ZM10.6265 16.5049C11.1607 16.4671 11.658 16.2185 12.0573 15.7617L18.1194 9.69966L15.3651 6.94521L9.2586 13.0497C8.85345 13.408 8.60281 13.9093 8.5625 14.3679V16.5031L10.6265 16.5049ZM16.7795 5.53123L19.5336 8.28545L20.4273 7.39174C20.5139 7.30513 20.5626 7.18767 20.5626 7.06519C20.5626 6.94272 20.5139 6.82526 20.4273 6.73865L18.3236 4.63497C18.238 4.54866 18.1214 4.50011 17.9999 4.50011C17.8783 4.50011 17.7617 4.54866 17.6761 4.63497L16.7795 5.53123Z" fill="#737373"/>
</svg>
