<svg width="21" height="21" viewBox="0 0 21 21" fill="none" xmlns="http://www.w3.org/2000/svg">
<path fill-rule="evenodd" clip-rule="evenodd" d="M10.1738 19.8446L10.7219 19.366C15.3311 15.3414 17.6738 11.8272 17.6738 8.73828C17.6738 4.36383 14.2596 1.23828 10.1738 1.23828C6.08804 1.23828 2.67383 4.36383 2.67383 8.73828C2.67383 11.8272 5.01658 15.3414 9.62572 19.366L10.1738 19.8446ZM10.1738 17.6245C6.26267 14.0996 4.34049 11.1126 4.34049 8.73828C4.34049 5.31878 6.97726 2.90495 10.1738 2.90495C13.3704 2.90495 16.0072 5.31878 16.0072 8.73828C16.0072 11.1126 14.085 14.0996 10.1738 17.6245ZM10.1738 4.57161C12.475 4.57161 14.3405 6.43709 14.3405 8.73828C14.3405 11.0395 12.475 12.9049 10.1738 12.9049C7.87264 12.9049 6.00716 11.0395 6.00716 8.73828C6.00716 6.43709 7.87264 4.57161 10.1738 4.57161ZM7.67383 8.73828C7.67383 7.35757 8.79312 6.23828 10.1738 6.23828C11.5545 6.23828 12.6738 7.35757 12.6738 8.73828C12.6738 10.119 11.5545 11.2383 10.1738 11.2383C8.79312 11.2383 7.67383 10.119 7.67383 8.73828Z" fill="#454545"/>
</svg>
