<svg width="48" height="48" viewBox="0 0 48 48" fill="none" xmlns="http://www.w3.org/2000/svg">
<circle r="24" transform="matrix(-1 0 0 1 24 24)" fill="black" fill-opacity="0.5"/>
<g clip-path="url(#clip0)">
<path d="M30.0566 14.3203C30.0566 13.8422 29.88 13.3651 29.5267 13.0003C28.8221 12.2707 27.6773 12.2707 26.9688 13.0003L18.0586 22.188C17.3837 22.883 17.352 24.0019 17.9789 24.7387L26.6491 34.9133C27.3101 35.6865 28.453 35.7633 29.2018 35.0813C29.9525 34.3992 30.0235 33.2179 29.3664 32.4485L21.8179 23.5905L29.5267 15.6403C29.88 15.276 30.0566 14.7979 30.0566 14.3203Z" fill="white"/>
</g>
<defs>
<clipPath id="clip0">
<rect width="23.04" height="23.04" fill="white" transform="matrix(4.37114e-08 -1 -1 -4.37114e-08 35.5195 35.5195)"/>
</clipPath>
</defs>
</svg>
