<svg width="36" height="36" viewBox="0 0 36 36" fill="none" xmlns="http://www.w3.org/2000/svg">
<rect width="35.2023" height="35.2023" rx="5" fill="black"/>
<path d="M18.2197 25.6945C18.2197 26.0706 18.0897 26.4458 17.8297 26.7327C17.3111 27.3065 16.4686 27.3065 15.9471 26.7327L9.38938 19.5067C8.89268 18.96 8.86936 18.08 9.33074 17.5006L15.7119 9.49833C16.1983 8.89015 17.0394 8.82975 17.5906 9.3662C18.1431 9.90265 18.1954 10.8317 17.7117 11.4369L12.1562 18.4036L17.8297 24.6564C18.0897 24.9429 18.2197 25.3189 18.2197 25.6945Z" fill="white"/>
<path d="M26.2197 25.6945C26.2197 26.0706 26.0897 26.4458 25.8297 26.7327C25.3111 27.3065 24.4686 27.3065 23.9471 26.7327L17.3894 19.5067C16.8927 18.96 16.8694 18.08 17.3307 17.5006L23.7119 9.49833C24.1983 8.89015 25.0394 8.82975 25.5906 9.3662C26.1431 9.90265 26.1954 10.8317 25.7117 11.4369L20.1562 18.4036L25.8297 24.6564C26.0897 24.9429 26.2197 25.3189 26.2197 25.6945Z" fill="white"/>
</svg>
