<svg width="14" height="14" viewBox="0 0 14 14" fill="none" xmlns="http://www.w3.org/2000/svg">
<path d="M7.00029 13.9994C3.14037 13.9994 0 10.8593 0 6.99971C0 3.14008 3.14037 0 7.00029 0C10.8599 0 14 3.14008 14 6.99971C14 10.8593 10.8599 13.9994 7.00029 13.9994ZM7.00029 0.583333C3.46208 0.583333 0.583333 3.46179 0.583333 6.99971C0.583333 10.5376 3.46208 13.4161 7.00029 13.4161C10.5382 13.4161 13.4167 10.5376 13.4167 6.99971C13.4167 3.46179 10.5382 0.583333 7.00029 0.583333Z" fill="black"/>
<path d="M7.001 13.9994C4.79629 13.9994 3.06934 10.9247 3.06934 6.99971C3.06934 3.07446 4.79629 0 7.001 0C9.20542 0 10.9321 3.07475 10.9321 6.99971C10.9321 10.9247 9.20542 13.9994 7.001 13.9994ZM7.001 0.583333C5.15475 0.583333 3.65267 3.46179 3.65267 6.99971C3.65267 10.5376 5.15475 13.4161 7.001 13.4161C8.81575 13.4161 10.3488 10.4778 10.3488 6.99971C10.3488 3.52158 8.81575 0.583333 7.001 0.583333Z" fill="black"/>
<path d="M7.00065 13.6978C6.83965 13.6978 6.70898 13.5674 6.70898 13.4061V0.588542C6.70898 0.427542 6.83965 0.296875 7.00065 0.296875C7.16194 0.296875 7.29232 0.427542 7.29232 0.588542V13.4061C7.29232 13.5671 7.16194 13.6978 7.00065 13.6978Z" fill="black"/>
<path d="M13.7083 7.29036H0.291667C0.130667 7.29036 0 7.15999 0 6.9987C0 6.8377 0.130667 6.70703 0.291667 6.70703H13.7083C13.8696 6.70703 14 6.8377 14 6.9987C14 7.15999 13.8696 7.29036 13.7083 7.29036Z" fill="black"/>
<path d="M12.8602 4.03451H1.13932C0.978323 4.03451 0.847656 3.90384 0.847656 3.74284C0.847656 3.58184 0.978323 3.45117 1.13932 3.45117H12.8602C13.0215 3.45117 13.1519 3.58184 13.1519 3.74284C13.1519 3.90384 13.0215 4.03451 12.8602 4.03451Z" fill="black"/>
<path d="M12.8602 10.5599H1.13932C0.978323 10.5599 0.847656 10.4295 0.847656 10.2682C0.847656 10.1069 0.978323 9.97656 1.13932 9.97656H12.8602C13.0215 9.97656 13.1519 10.1069 13.1519 10.2682C13.1519 10.4295 13.0215 10.5599 12.8602 10.5599Z" fill="black"/>
</svg>
