<svg width="16" height="16" viewBox="0 0 16 16" fill="none" xmlns="http://www.w3.org/2000/svg">
<g clip-path="url(#clip0)">
<path d="M8.10039 15.6373C4.02024 15.6373 0.712891 12.3298 0.712891 8.2498C0.712891 4.16965 4.02024 0.862305 8.10039 0.862305C12.1804 0.862305 15.4879 4.16965 15.4879 8.2498C15.4879 12.3298 12.1804 15.6373 8.10039 15.6373ZM8.10039 1.534C4.39119 1.534 1.38459 4.5406 1.38459 8.2498C1.38459 11.9592 4.39134 14.9658 8.10039 14.9658C11.8097 14.9658 14.8163 11.959 14.8163 8.2498C14.8163 4.5406 11.8097 1.534 8.10039 1.534Z" fill="#454545"/>
<path d="M8.10051 15.6373C5.47191 15.6373 4.11426 12.33 4.11426 8.2498C4.11426 4.16965 5.47191 0.862305 8.10051 0.862305C10.729 0.862305 12.0868 4.16965 12.0868 8.2498C12.0868 12.33 10.729 15.6373 8.10051 15.6373ZM8.10051 1.53415C5.71086 1.53415 4.54701 4.5406 4.54701 8.2498C4.54701 11.959 5.71101 14.9658 8.10051 14.9658C10.4903 14.9658 11.6542 11.959 11.6542 8.2498C11.6542 4.5406 10.4903 1.53415 8.10051 1.53415Z" fill="#454545"/>
<path d="M14.8771 8.57273H1.3246C1.14655 8.57273 1.00195 8.42813 1.00195 8.25008C1.00195 8.07203 1.14655 7.92773 1.3246 7.92773H14.8771C15.0553 7.92773 15.1998 8.07233 15.1998 8.25008C15.1998 8.42828 15.055 8.57273 14.8771 8.57273Z" fill="#454545"/>
</g>
<defs>
<clipPath id="clip0">
<rect width="15" height="15" fill="white" transform="translate(0.600586 0.75)"/>
</clipPath>
</defs>
</svg>
