<svg width="16" height="16" viewBox="0 0 16 16" fill="none" xmlns="http://www.w3.org/2000/svg">
<path fill-rule="evenodd" clip-rule="evenodd" d="M7.54297 0.8479C11.3399 0.8479 14.418 3.92594 14.418 7.7229C14.418 11.5199 11.3399 14.5979 7.54297 14.5979C3.74601 14.5979 0.667969 11.5199 0.667969 7.7229C0.667969 3.92594 3.74601 0.8479 7.54297 0.8479ZM13.1187 8.47068C12.4561 8.81532 11.5834 9.10351 10.5925 9.30221C10.4516 10.741 10.1184 12.011 9.63387 12.9465C11.4833 12.2055 12.8477 10.5108 13.1187 8.47068ZM9.4094 8.22572C9.41505 8.0602 9.41797 7.89249 9.41797 7.7229C9.41797 4.5879 8.42197 2.0979 7.54297 2.0979C6.66397 2.0979 5.66797 4.5879 5.66797 7.7229C5.66797 7.90226 5.67123 8.0795 5.67754 8.25429C6.26385 8.31558 6.89033 8.34791 7.54298 8.34791C8.1855 8.34791 8.81594 8.30259 9.4094 8.22572ZM10.6656 8.00674C10.6672 7.91257 10.668 7.81795 10.668 7.7229C10.668 5.64312 10.2895 3.76497 9.63387 2.49934C11.494 3.2446 12.8635 4.95464 13.1233 7.0105C12.8292 7.34061 11.9015 7.73275 10.6656 8.00674ZM5.77979 9.52124C6.34048 9.57175 6.93103 9.59791 7.54298 9.59791C8.14505 9.59791 8.73825 9.56378 9.30877 9.50049C9.02685 11.749 8.24734 13.3479 7.54297 13.3479C6.84076 13.3479 6.06389 11.7588 5.77979 9.52124ZM4.42144 8.06679C4.06272 7.99523 3.7284 7.91096 3.42314 7.8151C2.64785 7.57164 2.14121 7.27323 1.959 7.04002C2.20939 4.97102 3.58305 3.24816 5.45206 2.49934C4.79644 3.76497 4.41797 5.64312 4.41797 7.7229C4.41797 7.83817 4.41913 7.95283 4.42144 8.06679ZM4.49868 9.35467C4.64245 10.7718 4.97339 12.0224 5.45206 12.9465C3.6347 12.2183 2.2857 10.5693 1.98232 8.57652C2.63449 8.9162 3.49505 9.18022 4.49868 9.35467Z" fill="white"/>
</svg>
