<svg width="29" height="29" viewBox="0 0 29 29" fill="none" xmlns="http://www.w3.org/2000/svg">
<g clip-path="url(#clip0)">
<path d="M27.0928 7.50964V20.6346L26.3376 21.5152L14.7881 22.4306C2.57355 21.4631 3.26462 21.5178 3.23749 21.5156L2.4834 20.6346V7.50964H27.0928Z" fill="white"/>
<path d="M27.0928 7.50964V20.6346L26.3376 21.5152L14.7881 22.4306V7.50964H27.0928Z" fill="white"/>
<path d="M4.12402 9.15027H25.4521V21.455H4.12402V9.15027Z" fill="#FF2462"/>
<path d="M14.7881 9.15027H25.4521V21.455H14.7881V9.15027Z" fill="#FF2462"/>
<path d="M23.8115 6.68933L18.0693 0.947144V6.68933H23.8115Z" fill="white"/>
<path d="M23.8115 6.68933V21.455H5.76465V0.947144H18.0693V6.68933H23.8115Z" fill="#FF2462"/>
<path d="M23.8115 6.68933V21.455H14.7881V0.947144H18.0693V6.68933H23.8115Z" fill="#FF2462"/>
<path d="M11.5068 9.15027C10.1499 9.15027 9.0459 8.04626 9.0459 6.68933C9.0459 5.3324 10.1499 4.22839 11.5068 4.22839C12.8638 4.22839 13.9678 5.3324 13.9678 6.68933C13.9678 8.04626 12.8638 9.15027 11.5068 9.15027Z" fill="white"/>
<path d="M14.7881 14.0721H8.22559V12.4315C8.22559 10.6221 9.69745 9.15027 11.5068 9.15027C13.3162 9.15027 14.7881 10.6221 14.7881 12.4315V14.0721Z" fill="white"/>
<path d="M8.22559 15.7128H20.5303V17.3534H8.22559V15.7128Z" fill="white"/>
<path d="M14.7881 15.7128H20.5303V17.3534H14.7881V15.7128Z" fill="white"/>
<path d="M17.249 12.4315H20.5303V14.0721H17.249V12.4315Z" fill="white"/>
<path d="M17.249 9.15027H20.5303V10.7909H17.249V9.15027Z" fill="white"/>
<path d="M18.804 27.76H10.7734L12.4141 24.4788H17.1633L18.804 27.76Z" fill="white"/>
<path d="M18.8033 27.76H14.7881V24.4788H17.1627L18.8033 27.76Z" fill="white"/>
<path d="M2.4834 20.6346H27.0928V25.6659H2.4834V20.6346Z" fill="white"/>
<path d="M14.7881 20.6346H27.0928V25.6659H14.7881V20.6346Z" fill="white"/>
<path d="M9.0459 27.3065H20.5303V28.9471H9.0459V27.3065Z" fill="white"/>
<path d="M14.7881 27.3065H20.5303V28.9471H14.7881V27.3065Z" fill="white"/>
</g>
<defs>
<clipPath id="clip0">
<rect width="28" height="28" fill="white" transform="translate(0.788086 0.947144)"/>
</clipPath>
</defs>
</svg>
