<svg width="29" height="29" viewBox="0 0 29 29" fill="none" xmlns="http://www.w3.org/2000/svg">
<g clip-path="url(#clip0)">
<path d="M16.9609 16.9204C14.2471 16.9204 12.0391 14.7124 12.0391 11.9985C12.0391 9.28467 14.2471 7.07666 16.9609 7.07666C19.6748 7.07666 21.8828 9.28467 21.8828 11.9985C21.8828 14.7124 19.6748 16.9204 16.9609 16.9204Z" fill="#F6F5F7"/>
<path d="M16.9609 7.07666V16.9204C19.6748 16.9204 21.8828 14.7124 21.8828 11.9985C21.8828 9.28467 19.6748 7.07666 16.9609 7.07666Z" fill="#F6F5F7"/>
<path d="M23.5234 8.71729C21.7141 8.71729 20.2422 7.24542 20.2422 5.43604C20.2422 3.62665 21.7141 2.15479 23.5234 2.15479C25.3328 2.15479 26.8047 3.62665 26.8047 5.43604C26.8047 7.24542 25.3328 8.71729 23.5234 8.71729Z" fill="white"/>
<path d="M23.5234 2.15479V8.71729C25.3328 8.71729 26.8047 7.24542 26.8047 5.43604C26.8047 3.62665 25.3328 2.15479 23.5234 2.15479Z" fill="white"/>
<path d="M16.1406 5.32666C14.7837 5.32666 13.6797 4.22266 13.6797 2.86572C13.6797 1.50879 14.7837 0.404785 16.1406 0.404785C17.4976 0.404785 18.6016 1.50879 18.6016 2.86572C18.6016 4.22266 17.4976 5.32666 16.1406 5.32666Z" fill="white"/>
<path d="M16.1406 0.404785V5.32666C17.4976 5.32666 18.6016 4.22266 18.6016 2.86572C18.6016 1.50879 17.4976 0.404785 16.1406 0.404785Z" fill="white"/>
<path d="M16.1406 10.3579H17.7812V13.6392H16.1406V10.3579Z" fill="#FF2462"/>
<path d="M16.9609 10.3579H17.7812V13.6392H16.9609V10.3579Z" fill="#FF2462"/>
<path d="M28.5547 19.3803L21.3353 28.4048H0.554688V20.2017H1.63583C3.23224 20.2017 4.66223 19.4098 5.74573 18.2378C6.49533 17.428 7.56729 16.9204 8.75781 16.9204C10.0998 16.9204 11.291 17.5647 12.0397 18.561H16.1406C16.4239 18.561 16.6984 18.5971 16.9609 18.6644C18.3762 19.0287 19.4219 20.3132 19.4219 21.8423H12.3125V23.4829H20.1668L24.4044 19.0314C25.5813 17.7943 27.6009 17.9644 28.5547 19.3803Z" fill="white"/>
<path d="M19.4219 21.8418H16.9609V18.6639C18.3762 19.0282 19.4219 20.3127 19.4219 21.8418Z" fill="white"/>
<path d="M28.5547 19.3799L21.3353 28.4044H16.9609V23.4825H20.1668L24.4044 19.0311C25.5813 17.794 27.6009 17.964 28.5547 19.3799Z" fill="white"/>
</g>
<defs>
<clipPath id="clip0">
<rect width="28" height="28" fill="white" transform="translate(0.554688 0.404785)"/>
</clipPath>
</defs>
</svg>
