<svg width="29" height="29" viewBox="0 0 29 29" fill="none" xmlns="http://www.w3.org/2000/svg">
<g clip-path="url(#clip0)">
<path d="M28.627 7.7876V28.4048H7.29883V0.404785H21.2441C21.2441 2.4436 22.0704 4.28931 23.4064 5.62531C24.7785 6.99719 26.6381 7.7876 28.627 7.7876Z" fill="white"/>
<path d="M28.627 7.7876V28.4048H17.9629V0.404785H21.2441C21.2441 2.4436 22.0704 4.28931 23.4064 5.62531C24.7785 6.99741 26.6379 7.7876 28.627 7.7876Z" fill="white"/>
<path d="M17.9629 11.9985H25.3457V13.6392H17.9629V11.9985Z" fill="#FF1678"/>
<path d="M17.9629 15.2798H25.3457V16.9204H17.9629V15.2798Z" fill="#FF1678"/>
<path d="M17.9629 18.561H25.3457V20.2017H17.9629V18.561Z" fill="#FF1678"/>
<path d="M17.9629 21.8423H25.3457V23.4829H17.9629V21.8423Z" fill="#FF1678"/>
<path d="M13.8613 17.7407C13.8613 17.5914 13.8543 17.4382 13.8395 17.2797L15.7431 16.1804L13.2822 11.9182L11.36 13.0282C11.1116 12.856 10.8507 12.7052 10.5801 12.5755V10.3579H5.6582V12.5755C5.38754 12.7052 5.12671 12.856 4.87827 13.0282L2.93643 11.9067L0.626953 16.1723L2.40045 17.2633C2.38464 17.428 2.37695 17.5861 2.37695 17.7407C2.37695 17.8954 2.38464 18.0535 2.40045 18.2182L0.626953 19.3091L2.93643 23.5748L4.87827 22.4532C5.12714 22.6254 5.38754 22.7762 5.6582 22.9059V25.1235H10.5801V22.9059C10.8507 22.7762 11.1111 22.6254 11.36 22.4532L13.2822 23.5632L15.7431 19.301L13.8395 18.2017C13.8543 18.0432 13.8613 17.89 13.8613 17.7407ZM8.11914 20.2017C6.76242 20.2017 5.6582 19.0974 5.6582 17.7407C5.6582 16.384 6.76242 15.2798 8.11914 15.2798C9.47586 15.2798 10.5801 16.384 10.5801 17.7407C10.5801 19.0974 9.47586 20.2017 8.11914 20.2017Z" fill="white"/>
<path d="M28.627 7.7876L21.2441 0.404785V7.7876H28.627Z" fill="#F2F2F2"/>
<path d="M13.8395 18.2017L15.7431 19.301L13.2822 23.5632L11.36 22.4532C11.1111 22.6254 10.8507 22.7762 10.5801 22.9059V25.1235H8.11914V20.2017C9.47586 20.2017 10.5801 19.0974 10.5801 17.7407C10.5801 16.384 9.47586 15.2798 8.11914 15.2798V10.3579H10.5801V12.5755C10.8507 12.7052 11.1116 12.856 11.36 13.0282L13.2822 11.9182L15.7431 16.1804L13.8395 17.2797C13.8543 17.4382 13.8613 17.5914 13.8613 17.7407C13.8613 17.89 13.8543 18.0432 13.8395 18.2017Z" fill="#FF1678"/>
</g>
<defs>
<clipPath id="clip0">
<rect width="28" height="28" fill="white" transform="translate(0.626953 0.404785)"/>
</clipPath>
</defs>
</svg>
