<svg width="29" height="29" viewBox="0 0 29 29" fill="none" xmlns="http://www.w3.org/2000/svg">
<rect x="10.2109" y="2.96982" width="15.3333" height="15.3333" rx="1.5" fill="white" stroke="white"/>
<mask id="path-2-inside-1" fill="white">
<path fill-rule="evenodd" clip-rule="evenodd" d="M9.05436 9.50629H4.6377C3.53313 9.50629 2.6377 10.4017 2.6377 11.5063V23.8396C2.6377 24.9442 3.53313 25.8396 4.6377 25.8396H16.971C18.0756 25.8396 18.971 24.9442 18.971 23.8396V19.423H11.0544C9.94979 19.423 9.05436 18.5275 9.05436 17.423V9.50629Z"/>
</mask>
<path fill-rule="evenodd" clip-rule="evenodd" d="M9.05436 9.50629H4.6377C3.53313 9.50629 2.6377 10.4017 2.6377 11.5063V23.8396C2.6377 24.9442 3.53313 25.8396 4.6377 25.8396H16.971C18.0756 25.8396 18.971 24.9442 18.971 23.8396V19.423H11.0544C9.94979 19.423 9.05436 18.5275 9.05436 17.423V9.50629Z" fill="white"/>
<path d="M9.05436 9.50629H10.0544V8.50629H9.05436V9.50629ZM18.971 19.423H19.971V18.423H18.971V19.423ZM4.6377 10.5063H9.05436V8.50629H4.6377V10.5063ZM3.6377 11.5063C3.6377 10.954 4.08541 10.5063 4.6377 10.5063V8.50629C2.98084 8.50629 1.6377 9.84943 1.6377 11.5063H3.6377ZM3.6377 23.8396V11.5063H1.6377V23.8396H3.6377ZM4.6377 24.8396C4.08541 24.8396 3.6377 24.3919 3.6377 23.8396H1.6377C1.6377 25.4965 2.98084 26.8396 4.6377 26.8396V24.8396ZM16.971 24.8396H4.6377V26.8396H16.971V24.8396ZM17.971 23.8396C17.971 24.3919 17.5233 24.8396 16.971 24.8396V26.8396C18.6279 26.8396 19.971 25.4965 19.971 23.8396H17.971ZM17.971 19.423V23.8396H19.971V19.423H17.971ZM18.971 18.423H11.0544V20.423H18.971V18.423ZM11.0544 18.423C10.5021 18.423 10.0544 17.9752 10.0544 17.423H8.05436C8.05436 19.0798 9.39751 20.423 11.0544 20.423V18.423ZM10.0544 17.423V9.50629H8.05436V17.423H10.0544Z" fill="white" mask="url(#path-2-inside-1)"/>
</svg>
