<svg width="31" height="31" viewBox="0 0 31 31" fill="none" xmlns="http://www.w3.org/2000/svg">
<path fill-rule="evenodd" clip-rule="evenodd" d="M15.9609 29.249C8.36702 29.249 2.21094 23.0929 2.21094 15.499C2.21094 7.90511 8.36702 1.74902 15.9609 1.74902C23.5549 1.74902 29.7109 7.90511 29.7109 15.499C29.7109 23.0929 23.5549 29.249 15.9609 29.249ZM15.9609 26.749C22.1741 26.749 27.2109 21.7122 27.2109 15.499C27.2109 9.28582 22.1741 4.24902 15.9609 4.24902C9.74773 4.24902 4.71094 9.28582 4.71094 15.499C4.71094 21.7122 9.74773 26.749 15.9609 26.749ZM22.2109 14.249H17.2109V9.24902H14.7109V14.249H9.71094V16.749H14.7109V21.749H17.2109V16.749H22.2109V14.249Z" fill="#FF1678"/>
</svg>
