<svg width="57" height="56" viewBox="0 0 57 56" fill="none" xmlns="http://www.w3.org/2000/svg">
<path fill-rule="evenodd" clip-rule="evenodd" d="M27.6754 0.0151868C32.9619 -0.0557327 45.0436 -0.0890747 50.1953 5.06371C55.3471 10.216 56.0195 18.1494 56.0195 27.5865C56.0195 37.0235 55.5847 45.4963 50.1953 50.8862C44.8065 56.2761 32.7868 55.913 28.8406 55.9342C24.8938 55.9559 13.7486 56.8974 5.93246 50.8862C-0.643782 43.2359 -0.0545743 33.6221 0.108241 27.198C0.271056 20.774 0.0965717 9.0913 6.32066 4.67523C12.5442 0.259168 18.0359 0.144853 27.6754 0.0151868Z" fill="#FD7E48"/>
<path fill-rule="evenodd" clip-rule="evenodd" d="M27.6754 0.0151868C32.9619 -0.0557327 45.0436 -0.0890747 50.1953 5.06371C55.3471 10.216 56.0195 18.1494 56.0195 27.5865C56.0195 37.0235 55.5847 45.4963 50.1953 50.8862C44.8065 56.2761 32.7868 55.913 28.8406 55.9342C24.8938 55.9559 13.7486 56.8974 5.93246 50.8862C-0.643782 43.2359 -0.0545743 33.6221 0.108241 27.198C0.271056 20.774 0.0965717 9.0913 6.32066 4.67523C12.5442 0.259168 18.0359 0.144853 27.6754 0.0151868Z" fill="url(#paint0_linear)"/>
<path fill-rule="evenodd" clip-rule="evenodd" d="M47.1278 47.8184C46.239 48.7239 40.2466 52.8325 39.4548 51.8158C38.663 50.7991 42.718 45.4775 43.6069 44.5714C44.4957 43.6654 46.5116 43.3203 47.3034 44.337C48.0946 45.3537 48.0161 46.9123 47.1278 47.8184ZM31.0325 14.1501C29.8965 12.5851 35.7143 4.39446 36.9893 3.00041C38.2642 1.60637 41.1567 1.07447 42.2927 2.63946C43.4282 4.20445 43.3157 6.60301 42.0408 7.99759C40.7658 9.39163 32.1685 15.7151 31.0325 14.1501ZM6.0433 43.3478C5.2515 42.3311 9.30649 37.0095 10.1953 36.1034C11.0842 35.1974 13.1 34.8523 13.8918 35.869C14.6831 36.8857 14.6046 38.4443 13.7163 39.3504C12.8274 40.2559 6.8351 44.3645 6.0433 43.3478Z" fill="white" fill-opacity="0.3"/>
<g filter="url(#filter0_d)">
<path fill-rule="evenodd" clip-rule="evenodd" d="M38.4195 36.4934V24.3601C39.8555 24.3601 41.0195 23.2736 41.0195 21.9334V19.5067C41.0195 18.1665 39.8555 17.0801 38.4195 17.0801H17.6195C16.8679 17.0801 16.1908 17.3777 15.7161 17.8537H15.3316V18.353C15.1326 18.6961 15.0195 19.0891 15.0195 19.5067V21.9334C15.0195 23.2736 16.1836 24.3601 17.6195 24.3601V36.4934C17.6195 37.8336 18.7836 38.9201 20.2195 38.9201H35.8195C37.2555 38.9201 38.4195 37.8336 38.4195 36.4934ZM33.5238 26.4401H22.5148V29.5601H33.5238V26.4401Z" fill="white"/>
</g>
<defs>
<filter id="filter0_d" x="15.0195" y="17.0801" width="26" height="23.84" filterUnits="userSpaceOnUse" color-interpolation-filters="sRGB">
<feFlood flood-opacity="0" result="BackgroundImageFix"/>
<feColorMatrix in="SourceAlpha" type="matrix" values="0 0 0 0 0 0 0 0 0 0 0 0 0 0 0 0 0 0 127 0"/>
<feOffset dy="2"/>
<feColorMatrix type="matrix" values="0 0 0 0 1 0 0 0 0 1 0 0 0 0 1 0 0 0 0.25 0"/>
<feBlend mode="normal" in2="BackgroundImageFix" result="effect1_dropShadow"/>
<feBlend mode="normal" in="SourceGraphic" in2="effect1_dropShadow" result="shape"/>
</filter>
<linearGradient id="paint0_linear" x1="40.396" y1="21.5308" x2="4.396" y2="56" gradientUnits="userSpaceOnUse">
<stop stop-color="#75DFD1"/>
<stop offset="1" stop-color="#51C8EA"/>
</linearGradient>
</defs>
</svg>
