<svg width="24" height="24" viewBox="0 0 24 24" fill="none" xmlns="http://www.w3.org/2000/svg">
<g clip-path="url(#clip0)">
<path d="M8.81982 19.1749C9.35777 19.1749 9.79792 18.7347 9.79792 18.1968V0.98235C9.79792 0.607395 9.58601 0.265062 9.25996 0.102066C8.93391 -0.0609309 8.5264 -0.0283661 8.23297 0.199875L1.84274 4.99253C1.40259 5.31858 1.32107 5.92172 1.64712 6.36186C1.97317 6.80201 2.57631 6.88353 3.01645 6.55748L7.84173 2.93854V18.1968C7.84173 18.7347 8.28187 19.1749 8.81982 19.1749Z" fill="#737373"/>
<path d="M15.1768 4.99371C14.6389 4.99371 14.1987 5.43386 14.1987 5.97181V23.0233C14.1987 23.3982 14.4106 23.7242 14.7367 23.9035C14.8834 23.9687 15.0301 24.0014 15.1768 24.0014C15.3887 24.0014 15.5843 23.9362 15.7637 23.8057L22.1539 19.0946C22.5941 18.7686 22.6756 18.1654 22.3658 17.7253C22.0398 17.2851 21.4366 17.2036 20.9965 17.5134L16.1549 21.0834V5.97186C16.1549 5.43386 15.7148 4.99371 15.1768 4.99371Z" fill="#737373"/>
</g>
<defs>
<clipPath id="clip0">
<rect width="24" height="24" fill="white"/>
</clipPath>
</defs>
</svg>
