<svg width="25" height="24" viewBox="0 0 25 24" fill="none" xmlns="http://www.w3.org/2000/svg">
<path fill-rule="evenodd" clip-rule="evenodd" d="M10.416 18C5.99774 18 2.41602 14.4183 2.41602 10C2.41602 5.58172 5.99774 2 10.416 2C14.8343 2 18.416 5.58172 18.416 10C18.416 11.8487 17.7889 13.551 16.7359 14.9056L22.1231 20.2929L20.7089 21.7071L15.3217 16.3199C13.967 17.3729 12.2647 18 10.416 18ZM16.416 10C16.416 13.3137 13.7297 16 10.416 16C7.10231 16 4.41602 13.3137 4.41602 10C4.41602 6.68629 7.10231 4 10.416 4C13.7297 4 16.416 6.68629 16.416 10Z" fill="#454545"/>
</svg>
