<?xml version="1.0" encoding="utf-8"?>
<!-- Generator: Adobe Illustrator 16.0.0, SVG Export Plug-In . SVG Version: 6.00 Build 0)  -->
<!DOCTYPE svg PUBLIC "-//W3C//DTD SVG 1.1//EN" "http://www.w3.org/Graphics/SVG/1.1/DTD/svg11.dtd">
<svg version="1.1" id="Layer_1" xmlns="http://www.w3.org/2000/svg" xmlns:xlink="http://www.w3.org/1999/xlink" x="0px" y="0px"
	 width="48px" height="48px" viewBox="0 0 48 48" enable-background="new 0 0 48 48" xml:space="preserve">
<g>
	<path d="M19.58,29.42c-0.162,0-0.325-0.039-0.474-0.12L0.525,19.279c-0.345-0.186-0.549-0.556-0.523-0.947
		c0.026-0.391,0.277-0.73,0.644-0.869l46-17.399c0.438-0.167,0.938-0.003,1.193,0.393c0.256,0.396,0.2,0.917-0.133,1.25
		l-27.42,27.42C20.095,29.319,19.839,29.42,19.58,29.42z M3.403,18.559l15.996,8.627L43.006,3.58L3.403,18.559z"/>
	<path d="M29.604,48c-0.366,0-0.705-0.2-0.88-0.525L18.697,28.893c-0.21-0.389-0.14-0.869,0.173-1.182L46.287,0.293
		c0.334-0.334,0.854-0.39,1.25-0.133c0.396,0.255,0.559,0.753,0.393,1.193l-17.391,46c-0.139,0.366-0.479,0.618-0.869,0.645
		C29.647,47.999,29.625,48,29.604,48z M20.811,28.599l8.632,15.998L44.415,4.993L20.811,28.599z"/>
</g>
</svg>
