<svg width="24" height="24" viewBox="0 0 24 24" fill="none" xmlns="http://www.w3.org/2000/svg">
<path fill-rule="evenodd" clip-rule="evenodd" d="M18.6562 20.897L20.8733 18.6798L20.0925 15.843L20.4327 15.0305L23 13.5818V10.4464L20.44 8.99173L20.1055 8.18067L20.8961 5.34235L18.6774 3.12683L15.8403 3.90748L15.0296 3.56758L13.5808 1H10.4454L8.99072 3.56004L8.17985 3.89446L5.34198 3.10281L3.1267 5.31809L3.90748 8.15567L3.56758 8.96634L1 10.4151V13.5496L3.55774 15.0076L3.89252 15.8193L3.10197 18.6572L5.31809 20.8733L8.15567 20.0925L8.96644 20.4325L10.4153 22.999H13.5498L15.0067 20.4412L15.8183 20.1065L18.6562 20.897ZM18.8517 13.6256L17.9799 15.7078L18.6353 18.0886L18.0669 18.657L15.6911 17.9952L13.608 18.8543L12.3864 20.999H11.582L10.3705 18.8529L8.29064 17.9808L5.90855 18.6363L5.34112 18.0688L6.00294 15.6931L5.14391 13.6102L2.99909 12.3876V11.5831L5.14619 10.3715L6.01828 8.29158L5.36284 5.90949L5.9291 5.34324L8.30485 6.00598L10.3886 5.14658L11.6084 3.00003H12.412L13.6235 5.14713L15.7035 6.01922L18.0861 5.36365L18.6549 5.93169L17.9932 8.30698L18.8525 10.3906L20.9991 11.6103V12.414L18.8517 13.6256ZM12.0009 16C9.79177 16 8.00091 14.2091 8.00091 12C8.00091 9.79083 9.79177 7.99997 12.0009 7.99997C14.2101 7.99997 16.0009 9.79083 16.0009 12C16.0009 14.2091 14.2101 16 12.0009 16ZM14 12C14 13.1046 13.1046 14 12 14C10.8954 14 10 13.1046 10 12C10 10.8954 10.8954 10 12 10C13.1046 10 14 10.8954 14 12Z" fill="white"/>
</svg>
