<svg width="25" height="25" viewBox="0 0 25 25" fill="none" xmlns="http://www.w3.org/2000/svg">
<path fill-rule="evenodd" clip-rule="evenodd" d="M19.5187 21.3345L21.7359 19.1173L20.955 16.2805L21.2952 15.468L23.8625 14.0193V10.8839L21.3025 9.42923L20.968 8.61817L21.7587 5.77985L19.54 3.56433L16.7028 4.34498L15.8922 4.00508L14.4434 1.4375H11.308L9.85327 3.99754L9.0424 4.33196L6.20453 3.54031L3.98925 5.75559L4.77003 8.59317L4.43012 9.40384L1.86255 10.8526V13.9871L4.42029 15.4451L4.75507 16.2568L3.96452 19.0947L6.18064 21.3108L9.01822 20.53L9.82899 20.87L11.2778 23.4365H14.4124L15.8693 20.8787L16.6809 20.544L19.5187 21.3345ZM19.7152 14.0631L18.8434 16.1453L19.4987 18.5261L18.9303 19.0945L16.5546 18.4326L14.4715 19.2917L13.2499 21.4365H12.4455L11.234 19.2904L9.1541 18.4183L6.77201 19.0737L6.20458 18.5063L6.8664 16.1305L6.00737 14.0476L3.86255 12.8251V12.0205L6.00965 10.809L6.88174 8.72905L6.2263 6.34697L6.79256 5.78071L9.16831 6.44345L11.2521 5.58405L12.4719 3.4375H13.2755L14.487 5.5846L16.567 6.4567L18.9495 5.80112L19.5184 6.36916L18.8567 8.74446L19.716 10.8281L21.8625 12.0478V12.8514L19.7152 14.0631ZM12.8625 16.4375C10.6534 16.4375 8.86255 14.6466 8.86255 12.4375C8.86255 10.2284 10.6534 8.4375 12.8625 8.4375C15.0717 8.4375 16.8625 10.2284 16.8625 12.4375C16.8625 14.6466 15.0717 16.4375 12.8625 16.4375ZM14.8625 12.4375C14.8625 13.5421 13.9671 14.4375 12.8625 14.4375C11.758 14.4375 10.8625 13.5421 10.8625 12.4375C10.8625 11.3329 11.758 10.4375 12.8625 10.4375C13.9671 10.4375 14.8625 11.3329 14.8625 12.4375Z" fill="#454545"/>
</svg>
