<svg width="51" height="51" viewBox="0 0 51 51" fill="none" xmlns="http://www.w3.org/2000/svg">
<circle cx="25.6646" cy="25.9336" r="25" fill="#0068FF"/>
<path fill-rule="evenodd" clip-rule="evenodd" d="M10.6646 25.8501C10.6646 18.1649 17.3803 11.9346 25.6646 11.9346C33.9488 11.9346 40.6646 18.1649 40.6646 25.8501C40.6646 33.5352 33.9488 39.7655 25.6646 39.7655C24.2254 39.7655 22.8336 39.5772 21.5161 39.2261L16.8316 41.8886C16.601 42.0196 16.3146 41.8551 16.3116 41.59L16.251 36.6835C12.8442 34.1327 10.6646 30.228 10.6646 25.8501Z" fill="white"/>
<path d="M17.8855 29.2191C18.8815 29.2191 19.8111 29.2133 20.7406 29.2213C21.2629 29.2257 21.5451 29.4485 21.5932 29.8608C21.654 30.3827 21.3502 30.7289 20.7862 30.7353C19.7223 30.7474 18.6583 30.74 17.5943 30.74C17.2872 30.74 16.9793 30.7507 16.6732 30.733C16.2913 30.711 15.918 30.6353 15.7354 30.2404C15.5524 29.8448 15.6796 29.4899 15.9323 29.1677C16.949 27.8716 17.967 26.5765 18.9843 25.2809C19.0447 25.204 19.1031 25.1254 19.1618 25.0484C19.0997 24.9358 19.0011 24.9862 18.9243 24.9858C18.2114 24.9813 17.4983 24.9864 16.7854 24.9807C16.6225 24.9794 16.4547 24.9662 16.2979 24.9251C15.9671 24.8382 15.7664 24.5727 15.7637 24.2562C15.7611 23.9391 15.9559 23.6705 16.2858 23.5773C16.4417 23.5332 16.6102 23.5179 16.773 23.5172C17.9467 23.5125 19.1204 23.5127 20.2941 23.5166C20.5014 23.5173 20.7103 23.5226 20.9116 23.5923C21.3566 23.7464 21.5525 24.1575 21.3716 24.5928C21.2141 24.9719 20.963 25.2942 20.7123 25.614C19.8519 26.7116 18.9881 27.8067 18.126 28.9031C18.059 28.9882 17.9946 29.0754 17.8855 29.2191Z" fill="#0180C7"/>
<path d="M25.5224 25.7454C25.6828 25.5431 25.8419 25.3526 26.1129 25.2972C26.63 25.1916 27.1204 25.5284 27.1273 26.0554C27.1445 27.3741 27.1382 28.6933 27.1303 30.0122C27.1282 30.3724 26.9068 30.6486 26.583 30.7589C26.2436 30.8746 25.8899 30.7903 25.6632 30.5035C25.5522 30.3631 25.5048 30.339 25.35 30.4648C24.7506 30.9519 24.0745 31.0372 23.3438 30.7995C22.1713 30.4183 21.6887 29.5026 21.5615 28.3812C21.4248 27.1764 21.8248 26.1426 22.9006 25.5088C23.7936 24.9826 24.7009 25.0267 25.5224 25.7454ZM23.1956 28.1576C23.2019 28.3845 23.2766 28.6896 23.4725 28.9545C23.8986 29.5305 24.7728 29.5288 25.1984 28.9533C25.5674 28.4545 25.5656 27.6268 25.1963 27.1286C25.001 26.8652 24.7404 26.7273 24.4151 26.7082C23.6936 26.6656 23.1882 27.2251 23.1956 28.1576Z" fill="#0180C7"/>
<path d="M30.0842 28.194C30.0339 26.4997 31.1428 25.2339 32.7199 25.1853C34.3959 25.1337 35.6253 26.2632 35.6754 27.9099C35.7261 29.5773 34.7056 30.7602 33.1318 30.9183C31.4222 31.0901 30.0596 29.8415 30.0842 28.194ZM31.7394 28.0345C31.7377 28.3722 31.817 28.6871 32.02 28.9607C32.436 29.5216 33.3013 29.5261 33.726 28.973C34.1088 28.4743 34.1103 27.6269 33.7324 27.1228C33.5354 26.86 33.2737 26.7246 32.9493 26.7073C32.2383 26.6695 31.7424 27.2144 31.7394 28.0345Z" fill="#0180C7"/>
<path d="M29.5078 26.8817C29.5078 27.9039 29.513 28.926 29.5059 29.9482C29.5017 30.5328 28.9871 30.9281 28.4337 30.7881C28.1013 30.704 27.8529 30.3505 27.8523 29.9387C27.8498 28.1912 27.8512 26.4436 27.8512 24.6961C27.8512 24.3883 27.847 24.0805 27.8523 23.7729C27.8611 23.2657 28.1832 22.9365 28.6673 22.9317C29.1675 22.9267 29.5028 23.2572 29.5061 23.7824C29.5124 24.8155 29.5079 25.8486 29.5078 26.8817Z" fill="#0180C7"/>
</svg>
