<svg width="51" height="51" viewBox="0 0 51 51" fill="none" xmlns="http://www.w3.org/2000/svg">
<circle cx="25.7896" cy="25.9336" r="25" fill="#007CEA"/>
<path d="M25.7896 10.9336C17.5053 10.9336 10.7896 17.1639 10.7896 24.8491C10.7896 29.227 12.9692 33.1317 16.376 35.6825L16.4366 40.5891C16.4396 40.8541 16.726 41.0187 16.9566 40.8876L21.6411 38.2251C22.9586 38.5762 24.3504 38.7646 25.7896 38.7646C34.0738 38.7646 40.7896 32.5342 40.7896 24.8491C40.7896 17.1639 34.0738 10.9336 25.7896 10.9336ZM26.9285 29.3342L23.7222 25.9942C23.5344 25.7984 23.239 25.7518 23.0002 25.8806L17.374 28.9128C17.1597 29.0282 16.9496 28.7538 17.1162 28.5766L23.7646 21.5232C23.9554 21.3211 24.2768 21.3211 24.4672 21.5236L27.6724 24.9276C27.8606 25.1279 28.1597 25.1756 28.4011 25.0441L33.9299 22.0314C34.1441 21.9148 34.3554 22.1896 34.1884 22.3671L27.6281 29.3308C27.4388 29.5319 27.12 29.5334 26.9285 29.3342Z" fill="white"/>
</svg>
