<svg width="51" height="51" viewBox="0 0 51 51" fill="none" xmlns="http://www.w3.org/2000/svg">
<circle cx="25.6392" cy="25.9336" r="25" fill="#1BD741"/>
<path d="M13.1392 38.4336L14.89 32.2218C13.7641 30.3112 13.1713 28.1373 13.1713 25.904C13.1713 19.0278 18.7716 13.4336 25.6553 13.4336C32.539 13.4336 38.1392 19.0278 38.1392 25.904C38.1392 32.7802 32.539 38.3744 25.6553 38.3744C23.5104 38.3744 21.4101 37.826 19.5521 36.7846L13.1392 38.4336ZM19.8799 34.5159L20.2621 34.749C21.882 35.7369 23.747 36.259 25.6553 36.259C31.3712 36.259 36.0215 31.6138 36.0215 25.904C36.0215 20.1942 31.3712 15.549 25.6553 15.549C19.9393 15.549 15.289 20.1942 15.289 25.904C15.289 27.8935 15.8551 29.8255 16.9258 31.4911L17.1832 31.8914L16.1749 35.4686L19.8799 34.5159Z" fill="white"/>
<ellipse cx="20.2407" cy="25.9329" rx="1.49023" ry="1.48861" fill="white"/>
<ellipse cx="25.1821" cy="25.9329" rx="1.49023" ry="1.48861" fill="white"/>
<ellipse cx="30.1235" cy="25.9329" rx="1.49023" ry="1.48861" fill="white"/>
</svg>
