<svg width="51" height="51" viewBox="0 0 51 51" fill="none" xmlns="http://www.w3.org/2000/svg">
<circle cx="25.2896" cy="25.9336" r="25" fill="url(#paint0_radial)"/>
<path d="M10.2896 20.0637C10.389 19.3517 10.4647 18.6358 10.5911 17.929C11.3073 13.9259 14.1021 11.2023 18.0982 11.0628C22.9096 10.8951 27.7355 10.8863 32.5462 11.062C36.8955 11.2208 40.0453 14.4865 40.1811 18.8983C40.3257 23.583 40.3257 28.2792 40.1811 32.9639C40.0453 37.3757 36.8966 40.641 32.5466 40.8002C27.7359 40.9763 22.9088 40.9807 18.0985 40.7976C13.7485 40.6318 10.7414 37.3587 10.4505 32.9402C10.4254 32.5581 10.3445 32.1792 10.2896 31.7989C10.2896 27.887 10.2896 23.9752 10.2896 20.0637ZM25.2936 38.1855C27.4952 38.1855 29.699 38.2523 31.8977 38.17C35.345 38.0404 37.4654 35.9541 37.5458 32.4617C37.6456 28.1101 37.6456 23.7525 37.5458 19.4005C37.4654 15.9088 35.3435 13.7738 31.8977 13.6996C27.524 13.6058 23.1455 13.6065 18.7718 13.6996C15.3522 13.7723 13.2256 15.8642 13.1328 19.3174C13.0148 23.7241 13.0148 28.1385 13.1328 32.5451C13.2256 35.998 15.3522 38.0415 18.7722 38.17C20.9432 38.2519 23.1197 38.1855 25.2936 38.1855Z" fill="url(#paint1_linear)"/>
<path d="M10.2896 20.0637C10.389 19.3517 10.4647 18.6358 10.5911 17.929C11.3073 13.9259 14.1021 11.2023 18.0982 11.0628C22.9096 10.8951 27.7355 10.8863 32.5462 11.062C36.8955 11.2208 40.0453 14.4865 40.1811 18.8983C40.3257 23.583 40.3257 28.2792 40.1811 32.9639C40.0453 37.3757 36.8966 40.641 32.5466 40.8002C27.7359 40.9763 22.9088 40.9807 18.0985 40.7976C13.7485 40.6318 10.7414 37.3587 10.4505 32.9402C10.4254 32.5581 10.3445 32.1792 10.2896 31.7989C10.2896 27.887 10.2896 23.9752 10.2896 20.0637ZM25.2936 38.1855C27.4952 38.1855 29.699 38.2523 31.8977 38.17C35.345 38.0404 37.4654 35.9541 37.5458 32.4617C37.6456 28.1101 37.6456 23.7525 37.5458 19.4005C37.4654 15.9088 35.3435 13.7738 31.8977 13.6996C27.524 13.6058 23.1455 13.6065 18.7718 13.6996C15.3522 13.7723 13.2256 15.8642 13.1328 19.3174C13.0148 23.7241 13.0148 28.1385 13.1328 32.5451C13.2256 35.998 15.3522 38.0415 18.7722 38.17C20.9432 38.2519 23.1197 38.1855 25.2936 38.1855Z" fill="white"/>
<path d="M25.2898 18.1846C21.0679 18.1846 17.645 21.6552 17.645 25.9363C17.645 30.2178 21.0679 33.6884 25.2898 33.6884C29.512 33.6884 32.9346 30.2178 32.9346 25.9363C32.9346 21.6552 29.512 18.1846 25.2898 18.1846ZM25.2898 31.0194C22.5212 31.0194 20.277 28.7437 20.277 25.9363C20.277 23.1289 22.5212 20.8532 25.2898 20.8532C28.0583 20.8532 30.3025 23.1289 30.3025 25.9363C30.3025 28.7437 28.0583 31.0194 25.2898 31.0194Z" fill="white"/>
<path d="M35.2004 17.8268C35.2004 18.8452 34.3862 19.6709 33.3819 19.6709C32.3776 19.6709 31.563 18.8452 31.563 17.8268C31.563 16.8081 32.3776 15.9824 33.3819 15.9824C34.3862 15.9824 35.2004 16.8081 35.2004 17.8268Z" fill="white"/>
<defs>
<radialGradient id="paint0_radial" cx="0" cy="0" r="1" gradientUnits="userSpaceOnUse" gradientTransform="translate(10.5393 44.6296) scale(55.1412)">
<stop stop-color="#FAE100"/>
<stop offset="0.0544" stop-color="#FADC04"/>
<stop offset="0.1167" stop-color="#FBCE0E"/>
<stop offset="0.1829" stop-color="#FCB720"/>
<stop offset="0.2514" stop-color="#FE9838"/>
<stop offset="0.3054" stop-color="#FF7950"/>
<stop offset="0.4922" stop-color="#FF1C74"/>
<stop offset="1" stop-color="#6C1CD1"/>
</radialGradient>
<linearGradient id="paint1_linear" x1="34.7662" y1="16.391" x2="15.1897" y2="35.6964" gradientUnits="userSpaceOnUse">
<stop stop-color="#833AB4"/>
<stop offset="0.0922" stop-color="#9C3495"/>
<stop offset="0.2927" stop-color="#DC2546"/>
<stop offset="0.392" stop-color="#FD1D1D"/>
<stop offset="0.5589" stop-color="#FC6831"/>
<stop offset="0.6887" stop-color="#FC9B40"/>
<stop offset="0.7521" stop-color="#FCAF45"/>
<stop offset="0.7806" stop-color="#FDB750"/>
<stop offset="0.8656" stop-color="#FECB6A"/>
<stop offset="0.9415" stop-color="#FFD87A"/>
<stop offset="1" stop-color="#FFDC80"/>
</linearGradient>
</defs>
</svg>
