<svg width="51" height="51" viewBox="0 0 51 51" fill="none" xmlns="http://www.w3.org/2000/svg">
<circle cx="25.5" cy="25.5" r="25.5" fill="#F2F2F2"/>
<path fill-rule="evenodd" clip-rule="evenodd" d="M25.5481 26.9873L35.4289 34.3646H15.5713L25.4521 26.9873L25.5001 27.0228L25.5481 26.9873Z" fill="#F7F5ED"/>
<path fill-rule="evenodd" clip-rule="evenodd" d="M15.5715 34.5015L25.5107 27.2855L25.4567 27.247L25.4509 27.2511L25.4319 27.2377C24.5129 26.5905 23.5979 25.933 22.685 25.2685C22.6849 25.2684 22.6848 25.2684 22.6847 25.2683C20.3097 23.5393 17.9494 21.7622 15.5713 19.9912V34.5016L15.5715 34.5015Z" fill="#F7F5ED"/>
<path fill-rule="evenodd" clip-rule="evenodd" d="M35.4287 34.3649H36.1261C37.0132 34.3649 37.739 33.6391 37.739 32.7521V18.0591C37.739 17.172 37.0132 16.4463 36.1261 16.4463H35.4287V34.3649Z" fill="#E75A4D"/>
<path fill-rule="evenodd" clip-rule="evenodd" d="M15.5715 34.5012H14.874C13.987 34.5012 13.2612 33.7755 13.2612 32.8884V18.059C13.2612 17.172 13.987 16.4463 14.874 16.4463H15.5715V34.5012H15.5715Z" fill="#E75A4D"/>
<path fill-rule="evenodd" clip-rule="evenodd" d="M25.5481 23.8237L35.4289 16.4463H15.5713L25.4521 23.8237L25.5001 23.7882L25.5481 23.8237Z" fill="#F7F5ED"/>
<path fill-rule="evenodd" clip-rule="evenodd" d="M25.5103 27.2855L35.4284 34.3652V19.9912C33.7876 21.2131 32.1552 22.438 30.5206 23.648C28.9734 24.7933 27.4242 25.9253 25.8639 27.0288L25.8635 27.0291L25.5103 27.2855Z" fill="#B7B6AD"/>
<path d="M25.5975 27.2945L15.6084 34.5528L15.5337 34.4497L25.5229 27.1914L25.5975 27.2945Z" fill="#B7B6AD"/>
<path fill-rule="evenodd" clip-rule="evenodd" d="M25.5109 27.2861C21.7452 25.0431 16.9414 20.9888 13.2612 18.2801L14.3501 16.5733L15.5397 16.476L15.5715 16.4473L25.4523 23.8247L25.5003 23.7891L25.5483 23.8247L35.4291 16.4473L35.4609 16.476L36.6505 16.5733L37.7394 18.2801C33.7591 21.2097 29.6044 24.5999 25.5109 27.2861Z" fill="#E75A4D"/>
</svg>
