<svg width="51" height="51" viewBox="0 0 51 51" fill="none" xmlns="http://www.w3.org/2000/svg">
<circle cx="25.7896" cy="25.9336" r="25" fill="#00BDFA"/>
<path d="M40.7896 16.6113C39.7187 17.1714 38.1058 17.4303 37.5712 17.5048C37.5667 17.479 37.5623 17.4543 37.5579 17.4295C39.3757 16.3051 39.9322 14.1882 39.9322 14.1882C38.8063 14.8318 37.8141 15.1889 37.0668 15.3868C36.6466 15.4994 36.3035 15.5604 36.0569 15.5943C34.924 14.4327 33.3422 13.7119 31.5912 13.7119C28.1461 13.7119 25.3527 16.5045 25.3527 19.9507C25.3527 20.0748 25.3561 20.1981 25.3642 20.3204C25.3808 20.6191 25.4188 20.9126 25.4775 21.1981C23.81 21.1733 17.7909 20.6619 12.8031 14.868C12.8031 14.868 10.0256 19.7141 14.6951 23.0244C14.6951 23.0244 12.8031 22.9653 11.7987 22.256C11.7987 22.256 11.5033 26.9255 16.8814 28.4025C16.8814 28.4025 14.9905 28.8759 14.0441 28.4619C14.0441 28.4619 14.9901 32.4808 19.7184 32.777C19.7184 32.777 16.3272 35.8816 10.7896 35.4348C13.5131 37.1592 16.7422 38.1573 20.2043 38.1573C29.9388 38.1573 37.8304 30.2661 37.8304 20.5316C37.8304 20.4101 37.8293 20.2886 37.8267 20.1671C37.8293 20.0951 37.8304 20.0235 37.8304 19.9507C37.8304 19.9002 37.8293 19.8496 37.8285 19.799C39.6283 18.5997 40.7896 16.6113 40.7896 16.6113Z" fill="white"/>
</svg>
