<svg width="21" height="21" viewBox="0 0 21 21" fill="none" xmlns="http://www.w3.org/2000/svg">
<path fill-rule="evenodd" clip-rule="evenodd" d="M11.9204 5.78109C11.9204 6.02061 11.9457 6.25423 11.9937 6.47943L7.76786 8.59233C7.15677 7.89099 6.25702 7.44775 5.25374 7.44775C3.41279 7.44775 1.92041 8.94014 1.92041 10.7811C1.92041 12.622 3.41279 14.1144 5.25374 14.1144C6.25702 14.1144 7.15677 13.6712 7.76786 12.9698L11.9937 15.0828C11.9457 15.308 11.9204 15.5416 11.9204 15.7811C11.9204 17.622 13.4128 19.1144 15.2537 19.1144C17.0947 19.1144 18.5871 17.622 18.5871 15.7811C18.5871 13.9401 17.0947 12.4478 15.2537 12.4478C14.2505 12.4478 13.3507 12.891 12.7396 13.5923L8.51381 11.4794C8.56181 11.2542 8.58708 11.0206 8.58708 10.7811C8.58708 10.5416 8.56181 10.308 8.51381 10.0828L12.7396 7.96984C13.3507 8.67118 14.2505 9.11442 15.2537 9.11442C17.0947 9.11442 18.5871 7.62204 18.5871 5.78109C18.5871 3.94014 17.0947 2.44775 15.2537 2.44775C13.4128 2.44775 11.9204 3.94014 11.9204 5.78109ZM6.92041 10.7811C6.92041 11.7016 6.17422 12.4478 5.25374 12.4478C4.33327 12.4478 3.58708 11.7016 3.58708 10.7811C3.58708 9.86061 4.33327 9.11442 5.25374 9.11442C6.17422 9.11442 6.92041 9.86061 6.92041 10.7811ZM15.2537 7.44775C16.1742 7.44775 16.9204 6.70156 16.9204 5.78109C16.9204 4.86061 16.1742 4.11442 15.2537 4.11442C14.3333 4.11442 13.5871 4.86061 13.5871 5.78109C13.5871 6.70156 14.3333 7.44775 15.2537 7.44775ZM16.9204 15.7811C16.9204 16.7016 16.1742 17.4478 15.2537 17.4478C14.3333 17.4478 13.5871 16.7016 13.5871 15.7811C13.5871 14.8606 14.3333 14.1144 15.2537 14.1144C16.1742 14.1144 16.9204 14.8606 16.9204 15.7811Z" fill="white"/>
</svg>
