<svg width="51" height="51" viewBox="0 0 51 51" fill="none" xmlns="http://www.w3.org/2000/svg">
<circle cx="25.2896" cy="25.9336" r="25" fill="#FF2462"/>
<path d="M27.0942 22.2351C26.8208 22.0594 26.5021 22.0117 26.2075 22.0773C25.9161 22.1422 25.6489 22.3179 25.4747 22.5891C25.2997 22.8617 25.2521 23.1789 25.317 23.4719C25.381 23.7648 25.5568 24.0336 25.8286 24.2078C26.9591 24.932 27.6333 26.1617 27.6333 27.4961C27.6333 28.5398 27.2271 29.5203 26.4896 30.2578L21.8021 34.9453C21.0638 35.6836 20.0826 36.0898 19.0396 36.0898C16.8857 36.0898 15.1333 34.3375 15.1333 32.1836C15.1333 31.1398 15.5396 30.1594 16.2771 29.4219L18.5005 27.1977C18.7349 26.9633 18.849 26.6547 18.8443 26.3477C18.8388 26.0547 18.7248 25.7641 18.5005 25.5406C18.2716 25.3117 17.9716 25.1969 17.6724 25.1969C17.3724 25.1969 17.0724 25.3109 16.8443 25.5406L14.6209 27.7648C13.4396 28.9445 12.7896 30.5141 12.7896 32.1836C12.7896 35.6297 15.5935 38.4336 19.0396 38.4336C20.7091 38.4336 22.2786 37.7836 23.4591 36.6023L28.1466 31.9148C29.327 30.736 29.9771 29.1656 29.9771 27.4961C29.9771 25.3594 28.8997 23.393 27.0942 22.2351ZM31.5396 13.4336C29.87 13.4336 28.3005 14.0836 27.12 15.2648L22.4325 19.9523C21.2521 21.1312 20.6021 22.7016 20.6021 24.3703C20.6021 26.507 21.6794 28.4742 23.4849 29.632C23.7583 29.807 24.0771 29.8547 24.3716 29.7891C24.663 29.725 24.9302 29.5492 25.1044 29.2781C25.2794 29.0047 25.3271 28.6875 25.2622 28.3945C25.1981 28.1016 25.0224 27.8328 24.7505 27.6594C23.6208 26.9344 22.9458 25.7047 22.9458 24.3703C22.9458 23.3266 23.352 22.3461 24.0895 21.6086L28.777 16.9211C29.5153 16.1836 30.4966 15.7773 31.5396 15.7773C33.6935 15.7773 35.4458 17.5297 35.4458 19.6828C35.4458 20.7266 35.0396 21.707 34.302 22.4445L32.0786 24.668C31.8442 24.9023 31.7302 25.211 31.7349 25.518C31.7403 25.811 31.8544 26.1016 32.0786 26.325C32.3075 26.5539 32.6075 26.668 32.9075 26.668C33.2075 26.668 33.5075 26.5539 33.7356 26.325L35.9591 24.1008C37.1396 22.9226 37.7896 21.3523 37.7896 19.6828C37.7896 16.2375 34.9856 13.4336 31.5396 13.4336Z" fill="white"/>
</svg>
