<svg width="24" height="24" viewBox="0 0 24 24" fill="none" xmlns="http://www.w3.org/2000/svg">
<g clip-path="url(#clip0)">
<path d="M16.4846 3.757C16.4851 1.6855 18.1716 0 20.2441 0C22.3151 0 24.0001 1.6855 24.0001 3.7575C24.0001 5.83 22.3151 7.516 20.2441 7.516C18.1711 7.516 16.4846 5.83 16.4846 3.757ZM23.0001 3.7575C23.0001 2.237 21.7636 1 20.2441 1C18.7226 1 17.4846 2.237 17.4841 3.7575C17.4841 5.2785 18.7226 6.5165 20.2441 6.5165C21.7636 6.516 23.0001 5.2785 23.0001 3.7575Z" fill="#FEFEFE"/>
<path d="M16.4846 20.2439C16.4846 18.1709 18.1711 16.4844 20.2446 16.4844C22.3151 16.4864 24.0001 18.1729 24.0001 20.2439C24.0001 22.3149 22.3151 24.0009 20.2441 24.0009C18.1711 24.0009 16.4846 22.3154 16.4846 20.2439ZM23.0001 20.2439C23.0001 18.7234 21.7636 17.4859 20.2431 17.4844C18.7226 17.4844 17.4836 18.7224 17.4836 20.2439C17.4836 21.7634 18.7216 23.0009 20.2431 23.0009C21.7636 23.0009 23.0001 21.7634 23.0001 20.2439Z" fill="#FEFEFE"/>
<path d="M0 11.9997C0 9.92769 1.6855 8.24219 3.758 8.24219C5.831 8.24219 7.517 9.92769 7.517 11.9997C7.5165 14.0717 5.8305 15.7572 3.758 15.7572C1.6855 15.7572 0 14.0717 0 11.9997ZM6.516 11.9992C6.516 10.4787 5.278 9.24169 3.7575 9.24169C2.237 9.24169 0.9995 10.4787 0.9995 11.9992C0.9995 13.5197 2.2375 14.7572 3.758 14.7572C5.2785 14.7572 6.5155 13.5202 6.516 11.9992Z" fill="#FEFEFE"/>
<path d="M16.7593 4.70934L6.79077 9.73828L7.24117 10.6311L17.2097 5.60214L16.7593 4.70934Z" fill="#FEFEFE"/>
<path d="M7.24109 13.3654L6.79102 14.2578L16.7611 19.2859L17.2112 18.3934L7.24109 13.3654Z" fill="#FEFEFE"/>
</g>
<defs>
<clipPath id="clip0">
<rect width="24" height="24" fill="white"/>
</clipPath>
</defs>
</svg>
