<svg width="57" height="56" viewBox="0 0 57 56" fill="none" xmlns="http://www.w3.org/2000/svg">
<path fill-rule="evenodd" clip-rule="evenodd" d="M27.8121 0.0151868C33.0986 -0.0557327 45.1803 -0.0890747 50.332 5.06371C55.4838 10.216 56.1562 18.1494 56.1562 27.5865C56.1562 37.0235 55.7214 45.4963 50.332 50.8862C44.9432 56.2761 32.9236 55.913 28.9773 55.9342C25.0305 55.9559 13.8854 56.8974 6.06918 50.8862C-0.507064 43.2359 0.0821444 33.6221 0.244959 27.198C0.407774 20.774 0.23329 9.0913 6.45738 4.67523C12.6809 0.259168 18.1726 0.144853 27.8121 0.0151868Z" fill="#FD7E48"/>
<path fill-rule="evenodd" clip-rule="evenodd" d="M27.8121 0.0151868C33.0986 -0.0557327 45.1803 -0.0890747 50.332 5.06371C55.4838 10.216 56.1562 18.1494 56.1562 27.5865C56.1562 37.0235 55.7214 45.4963 50.332 50.8862C44.9432 56.2761 32.9236 55.913 28.9773 55.9342C25.0305 55.9559 13.8854 56.8974 6.06918 50.8862C-0.507064 43.2359 0.0821444 33.6221 0.244959 27.198C0.407774 20.774 0.23329 9.0913 6.45738 4.67523C12.6809 0.259168 18.1726 0.144853 27.8121 0.0151868Z" fill="url(#paint0_linear)"/>
<path fill-rule="evenodd" clip-rule="evenodd" d="M47.2645 47.8184C46.3757 48.7239 40.3834 52.8325 39.5916 51.8158C38.7998 50.7991 42.8547 45.4775 43.7436 44.5714C44.6325 43.6654 46.6483 43.3203 47.4401 44.337C48.2314 45.3537 48.1529 46.9123 47.2645 47.8184ZM31.1692 14.1501C30.0332 12.5851 35.8511 4.39446 37.126 3.00041C38.4009 1.60637 41.2934 1.07447 42.4294 2.63946C43.5649 4.20445 43.4524 6.60301 42.1775 7.99759C40.9026 9.39163 32.3052 15.7151 31.1692 14.1501ZM6.18002 43.3478C5.38822 42.3311 9.44321 37.0095 10.3321 36.1034C11.2209 35.1974 13.2367 34.8523 14.0285 35.869C14.8198 36.8857 14.7413 38.4443 13.853 39.3504C12.9642 40.2559 6.97182 44.3645 6.18002 43.3478Z" fill="white" fill-opacity="0.3"/>
<path d="M40.4063 24.4081V22.75C40.4029 22.199 40.2438 21.6602 39.9473 21.1957C39.6508 20.7313 39.229 20.3601 38.7307 20.125L36.0313 18.8519C35.7676 18.7233 35.5455 18.5229 35.3907 18.2736C35.2359 18.0244 35.1547 17.7365 35.1563 17.4431C35.1575 17.2212 35.1148 17.0012 35.0306 16.7959C34.9465 16.5905 34.8226 16.4038 34.6661 16.2464C34.5096 16.0891 34.3235 15.9642 34.1186 15.879C33.9136 15.7939 33.6939 15.75 33.4719 15.75H22.8407C22.394 15.75 21.9655 15.9275 21.6497 16.2433C21.3338 16.5592 21.1563 16.9877 21.1563 17.4344C21.1523 17.7226 21.0683 18.004 20.9138 18.2473C20.7594 18.4906 20.5404 18.6862 20.2813 18.8125L17.5251 20.16C17.0364 20.3996 16.6253 20.7722 16.3389 21.235C16.0526 21.6978 15.9026 22.232 15.9063 22.7763V25.4013C15.9104 25.8541 16.0342 26.2979 16.2651 26.6875C16.4643 27.0403 16.7473 27.3386 17.0892 27.556C17.431 27.7735 17.8211 27.9034 18.2251 27.9344C18.7197 27.9606 19.2107 27.8362 19.6333 27.5777C20.0558 27.3191 20.3901 26.9386 20.5919 26.4863C20.6097 26.4428 20.6399 26.4056 20.6789 26.3794C20.7179 26.3532 20.7637 26.3392 20.8107 26.3392C20.8576 26.3392 20.9035 26.3532 20.9425 26.3794C20.9814 26.4056 21.0117 26.4428 21.0294 26.4863C21.2228 26.9175 21.5367 27.2836 21.9333 27.5405C22.33 27.7973 22.7925 27.934 23.2651 27.934C23.7376 27.934 24.2001 27.7973 24.5968 27.5405C24.9935 27.2836 25.3074 26.9175 25.5007 26.4863C25.5184 26.4428 25.5487 26.4056 25.5877 26.3794C25.6266 26.3532 25.6725 26.3392 25.7194 26.3392C25.7664 26.3392 25.8123 26.3532 25.8512 26.3794C25.8902 26.4056 25.9205 26.4428 25.9382 26.4863C26.1332 26.9218 26.4512 27.291 26.8531 27.5483C27.255 27.8057 27.7233 27.94 28.2005 27.9349C28.6777 27.9298 29.1431 27.7854 29.5394 27.5195C29.9357 27.2536 30.2457 26.8778 30.4313 26.4381C30.449 26.4021 30.4764 26.3718 30.5104 26.3506C30.5444 26.3293 30.5837 26.3181 30.6238 26.3181C30.6639 26.3181 30.7032 26.3293 30.7372 26.3506C30.7713 26.3718 30.7987 26.4021 30.8163 26.4381C31.0036 26.8822 31.3176 27.2611 31.7192 27.5276C32.1207 27.7941 32.5919 27.9362 33.0738 27.9362C33.5557 27.9362 34.0269 27.7941 34.4285 27.5276C34.83 27.2611 35.1441 26.8822 35.3313 26.4381C35.3479 26.3997 35.3754 26.3669 35.4104 26.3439C35.4453 26.3209 35.4863 26.3086 35.5282 26.3086C35.5701 26.3086 35.611 26.3209 35.646 26.3439C35.681 26.3669 35.7085 26.3997 35.7251 26.4381C35.92 26.8986 36.2523 27.2876 36.6767 27.5521C37.101 27.8165 37.5966 27.9436 38.0959 27.9158C38.5951 27.8881 39.0736 27.7069 39.466 27.397C39.8584 27.0871 40.1455 26.6636 40.2882 26.1844C40.3264 26.0728 40.3571 25.9588 40.3801 25.8431V25.8125C40.401 25.6677 40.4098 25.5213 40.4063 25.375V24.4081Z" fill="white"/>
<path d="M40.4073 39.2273C40.3648 39.0163 40.2486 38.8273 40.0794 38.6942C39.9103 38.5611 39.6992 38.4926 39.4842 38.501C39.2649 38.501 39.0545 38.4139 38.8995 38.2588C38.7444 38.1038 38.6573 37.8935 38.6573 37.6742V30.6742C38.6657 30.4591 38.5972 30.2481 38.4641 30.0789C38.331 29.9097 38.142 29.7935 37.931 29.751C37.8043 29.7292 37.6744 29.7355 37.5504 29.7695C37.4264 29.8036 37.3114 29.8646 37.2137 29.9481C37.1159 30.0317 37.0378 30.1357 36.9848 30.2529C36.9319 30.3701 36.9054 30.4975 36.9073 30.626V37.626C36.9073 37.8581 36.8151 38.0807 36.651 38.2448C36.4869 38.4088 36.2643 38.501 36.0323 38.501H29.9073C29.6752 38.501 29.4527 38.4088 29.2886 38.2448C29.1245 38.0807 29.0323 37.8581 29.0323 37.626V30.6742C29.0407 30.4591 28.9722 30.2481 28.8391 30.0789C28.706 29.9097 28.517 29.7935 28.306 29.751C28.1793 29.7292 28.0494 29.7355 27.9254 29.7695C27.8014 29.8036 27.6864 29.8646 27.5887 29.9481C27.4909 30.0317 27.4128 30.1357 27.3599 30.2529C27.3069 30.3701 27.2804 30.4975 27.2823 30.626V36.751C27.2823 37.2152 27.0979 37.6603 26.7697 37.9885C26.4415 38.3167 25.9964 38.501 25.5323 38.501H21.1573C20.6932 38.501 20.248 38.3167 19.9198 37.9885C19.5917 37.6603 19.4073 37.2152 19.4073 36.751V30.6742C19.4157 30.4591 19.3472 30.2481 19.2141 30.0789C19.081 29.9097 18.892 29.7935 18.681 29.751C18.5543 29.7292 18.4244 29.7355 18.3004 29.7695C18.1764 29.8036 18.0614 29.8646 17.9637 29.9481C17.8659 30.0317 17.7878 30.1357 17.7349 30.2529C17.6819 30.3701 17.6554 30.4975 17.6573 30.626V37.7398C17.6573 37.9417 17.5771 38.1353 17.4343 38.2781C17.2916 38.4208 17.0979 38.501 16.896 38.501H16.8304C16.6153 38.4926 16.4043 38.5611 16.2351 38.6942C16.066 38.8273 15.9498 39.0163 15.9073 39.2273C15.8854 39.354 15.8917 39.484 15.9258 39.6079C15.9599 39.7319 16.0208 39.8469 16.1044 39.9446C16.1879 40.0424 16.292 40.1205 16.4091 40.1735C16.5263 40.2264 16.6537 40.2529 16.7823 40.251H39.5323C39.6608 40.2529 39.7882 40.2264 39.9054 40.1735C40.0226 40.1205 40.1266 40.0424 40.2102 39.9446C40.2937 39.8469 40.3547 39.7319 40.3888 39.6079C40.4228 39.484 40.4292 39.354 40.4073 39.2273Z" fill="white"/>
<path d="M24.6562 35C25.1395 35 25.5312 34.6082 25.5312 34.125C25.5312 33.6418 25.1395 33.25 24.6562 33.25C24.173 33.25 23.7812 33.6418 23.7812 34.125C23.7812 34.6082 24.173 35 24.6562 35Z" fill="white"/>
<defs>
<linearGradient id="paint0_linear" x1="42.5327" y1="5.53076" x2="4.53272" y2="56" gradientUnits="userSpaceOnUse">
<stop stop-color="#47B9FF"/>
<stop offset="1" stop-color="#006CFF"/>
</linearGradient>
</defs>
</svg>
