<svg width="24" height="25" viewBox="0 0 24 25" fill="none" xmlns="http://www.w3.org/2000/svg">
<path d="M21.5009 24.033H2.94043C2.38893 24.033 1.94043 23.5845 1.94043 23.033V11.113H2.94043V23.033H21.5009V11.113H22.5009V23.033C22.5009 23.5845 22.0519 24.033 21.5009 24.033Z" fill="white"/>
<path d="M21.9987 11.8337H18.5307C17.0612 11.8337 15.6502 10.6562 15.3882 9.20871L14.4907 4.24821L15.4752 4.07021L16.3727 9.03021C16.5497 10.0077 17.5387 10.8337 18.5307 10.8337H21.9987C22.4097 10.8337 22.7222 10.7077 22.8562 10.4882C22.9902 10.2682 22.9577 9.93271 22.7682 9.56721L19.9657 4.17121L20.8527 3.71021L23.6557 9.10621C24.0092 9.78921 24.0297 10.4822 23.7092 11.0077C23.3912 11.5322 22.7672 11.8337 21.9987 11.8337Z" fill="white"/>
<path d="M14.0322 11.8336H10.5657C9.81917 11.8336 9.15667 11.5396 8.70017 11.0056C8.24367 10.4716 8.05617 9.77106 8.17217 9.03306L8.95167 4.08856L9.94017 4.24506L9.16067 9.18956C9.09067 9.63356 9.19717 10.0481 9.46067 10.3561C9.72417 10.6641 10.1167 10.8341 10.5662 10.8341H14.0327C14.4807 10.8341 14.8667 10.6671 15.1212 10.3631C15.3747 10.0596 15.4702 9.64906 15.3902 9.20856L14.4927 4.24856L15.4772 4.07056L16.3747 9.03056C16.5087 9.76806 16.3357 10.4691 15.8882 11.0041C15.4412 11.5391 14.7817 11.8336 14.0322 11.8336Z" fill="white"/>
<path d="M7.56693 11.8333H1.10043C0.726934 11.8333 0.414434 11.6753 0.243434 11.3993C0.0724341 11.1233 0.0699341 10.7733 0.235934 10.4388L3.59093 3.67334L4.48693 4.11784L1.15693 10.8338H7.56693C7.73293 10.8338 7.91443 10.6788 7.94043 10.5153L8.96493 4.01834L9.95293 4.17434L8.92843 10.6713C8.82443 11.3228 8.22693 11.8333 7.56693 11.8333Z" fill="white"/>
<path d="M19.7597 1V3.378H4.63721V1H19.7597ZM20.2597 0H4.13721C3.86221 0 3.63721 0.225 3.63721 0.5V3.878C3.63721 4.153 3.86221 4.378 4.13721 4.378H20.2597C20.5342 4.378 20.7597 4.153 20.7597 3.878V0.5C20.7597 0.225 20.5337 0 20.2597 0Z" fill="white"/>
<path d="M15.3176 14.2842V23.0002H9.12158V14.2842H15.3176ZM15.8176 13.2842H8.62158C8.34658 13.2842 8.12158 13.5087 8.12158 13.7842V23.5002C8.12158 23.7752 8.34658 24.0002 8.62158 24.0002H15.8176C16.0931 24.0002 16.3176 23.7752 16.3176 23.5002V13.7842C16.3176 13.5102 16.0931 13.2842 15.8176 13.2842Z" fill="white"/>
</svg>
