<svg width="22" height="22" viewBox="0 0 22 22" fill="none" xmlns="http://www.w3.org/2000/svg">
<path d="M5.36922 16.5969L5.36923 16.5969C9.54518 20.7976 12.7007 21.7148 14.6536 21.7148C16.4433 21.7148 17.4056 20.9623 17.4737 20.9067L17.4835 20.8986L17.4925 20.8895L20.6977 17.6695L20.8811 17.4852L20.6898 17.3092L15.7414 12.7564L15.5782 12.6062L15.4096 12.7504L13.1053 14.721L7.273 8.8537L8.92817 7.18833L9.07948 7.03609L8.95188 6.86348L4.85096 1.31623L4.68532 1.09216L4.48046 1.28105L1.15113 4.35082L1.14411 4.35729L1.1376 4.36428L1.0951 4.40994L1.08888 4.41662L1.08316 4.42374C0.987501 4.54287 0.139172 5.6695 0.287948 7.74147C0.436601 9.81172 1.57764 12.7822 5.36922 16.5969ZM4.49775 3.07148L7.33418 6.90882L5.57593 8.67789L5.40075 8.85415L5.57595 9.03038L12.8688 16.3665L13.0323 16.5311L13.2086 16.3802L15.5455 14.3811L18.9667 17.5278L16.6245 19.8831C16.4943 19.9719 15.826 20.3843 14.6536 20.3843C13.0303 20.3843 10.2231 19.5962 6.30727 15.6571C2.97966 12.3093 1.91026 9.7511 1.67712 8.02286C1.45609 6.38434 1.98278 5.46234 2.0984 5.28334L4.49775 3.07148Z" fill="white" stroke="white" stroke-width="0.5"/>
</svg>
