<svg width="24" height="24" viewBox="0 0 24 24" fill="none" xmlns="http://www.w3.org/2000/svg">
<path d="M22.5001 8.92125V7.5C22.4971 7.02771 22.3607 6.56587 22.1066 6.16776C21.8525 5.76965 21.491 5.4515 21.0638 5.25L18.7501 4.15875C18.524 4.04855 18.3337 3.87675 18.201 3.66312C18.0683 3.44949 17.9986 3.20273 18.0001 2.95125V2.95125C18.001 2.76102 17.9644 2.57248 17.8923 2.39645C17.8202 2.22042 17.714 2.06037 17.5799 1.92551C17.4457 1.79065 17.2862 1.68364 17.1105 1.61061C16.9349 1.53759 16.7465 1.5 16.5563 1.5H7.44381C7.0609 1.5 6.69368 1.65211 6.42292 1.92286C6.15217 2.19362 6.00006 2.56084 6.00006 2.94375C5.99658 3.19076 5.92463 3.43196 5.79221 3.64051C5.6598 3.84906 5.47212 4.01677 5.25006 4.125L2.88756 5.28C2.4687 5.48536 2.1163 5.80474 1.87085 6.20143C1.62541 6.59812 1.49689 7.05603 1.50006 7.5225V9.7725C1.50355 10.1607 1.60963 10.541 1.80756 10.875C1.97833 11.1774 2.22092 11.433 2.51392 11.6194C2.80692 11.8058 3.14131 11.9172 3.48756 11.9438C3.91156 11.9662 4.3324 11.8596 4.69459 11.638C5.05677 11.4164 5.34327 11.0902 5.51631 10.7025C5.5315 10.6652 5.55746 10.6334 5.59085 10.6109C5.62425 10.5885 5.66357 10.5765 5.70381 10.5765C5.74404 10.5765 5.78337 10.5885 5.81676 10.6109C5.85016 10.6334 5.87611 10.6652 5.89131 10.7025C6.05701 11.0721 6.32607 11.3859 6.66607 11.6061C7.00607 11.8263 7.40249 11.9434 7.80756 11.9434C8.21262 11.9434 8.60904 11.8263 8.94904 11.6061C9.28904 11.3859 9.5581 11.0721 9.72381 10.7025C9.739 10.6652 9.76496 10.6334 9.79835 10.6109C9.83175 10.5885 9.87107 10.5765 9.91131 10.5765C9.95154 10.5765 9.99087 10.5885 10.0243 10.6109C10.0577 10.6334 10.0836 10.6652 10.0988 10.7025C10.266 11.0758 10.5385 11.3922 10.883 11.6128C11.2275 11.8334 11.6289 11.9486 12.038 11.9442C12.447 11.9398 12.8458 11.8161 13.1855 11.5882C13.5252 11.3603 13.7909 11.0381 13.9501 10.6613C13.9652 10.6304 13.9887 10.6044 14.0178 10.5862C14.047 10.568 14.0807 10.5584 14.1151 10.5584C14.1494 10.5584 14.1831 10.568 14.2123 10.5862C14.2414 10.6044 14.2649 10.6304 14.2801 10.6613C14.4406 11.0419 14.7097 11.3667 15.0539 11.5951C15.3981 11.8235 15.802 11.9453 16.2151 11.9453C16.6281 11.9453 17.032 11.8235 17.3762 11.5951C17.7204 11.3667 17.9896 11.0419 18.1501 10.6613C18.1643 10.6283 18.1878 10.6002 18.2178 10.5805C18.2478 10.5607 18.2829 10.5502 18.3188 10.5502C18.3547 10.5502 18.3898 10.5607 18.4198 10.5805C18.4498 10.6002 18.4734 10.6283 18.4876 10.6613C18.6547 11.0559 18.9395 11.3894 19.3032 11.6161C19.6669 11.8428 20.0918 11.9516 20.5197 11.9278C20.9476 11.9041 21.3577 11.7487 21.694 11.4831C22.0304 11.2175 22.2765 10.8545 22.3988 10.4438C22.4316 10.3481 22.4579 10.2504 22.4776 10.1513V10.125C22.4955 10.0008 22.503 9.87541 22.5001 9.75V8.92125Z" fill="#454545"/>
<path d="M22.4992 21.6226C22.4628 21.4417 22.3632 21.2797 22.2182 21.1656C22.0732 21.0516 21.8923 20.9929 21.708 21.0001C21.52 21.0001 21.3397 20.9254 21.2068 20.7925C21.0739 20.6596 20.9992 20.4793 20.9992 20.2913V14.2913C21.0064 14.107 20.9477 13.9261 20.8336 13.7811C20.7196 13.6361 20.5576 13.5365 20.3767 13.5001C20.2681 13.4813 20.1567 13.4867 20.0504 13.5159C19.9442 13.5451 19.8456 13.5974 19.7618 13.669C19.6781 13.7406 19.6111 13.8298 19.5657 13.9302C19.5203 14.0307 19.4976 14.1399 19.4992 14.2501V20.2501C19.4992 20.449 19.4202 20.6397 19.2795 20.7804C19.1389 20.921 18.9481 21.0001 18.7492 21.0001H13.4992C13.3003 21.0001 13.1095 20.921 12.9689 20.7804C12.8282 20.6397 12.7492 20.449 12.7492 20.2501V14.2913C12.7564 14.107 12.6977 13.9261 12.5836 13.7811C12.4696 13.6361 12.3076 13.5365 12.1267 13.5001C12.0181 13.4813 11.9067 13.4867 11.8004 13.5159C11.6942 13.5451 11.5956 13.5974 11.5118 13.669C11.4281 13.7406 11.3611 13.8298 11.3157 13.9302C11.2703 14.0307 11.2476 14.1399 11.2492 14.2501V19.5001C11.2492 19.8979 11.0912 20.2794 10.8099 20.5607C10.5286 20.842 10.147 21.0001 9.74921 21.0001H5.99921C5.60139 21.0001 5.21986 20.842 4.93855 20.5607C4.65725 20.2794 4.49921 19.8979 4.49921 19.5001V14.2913C4.5064 14.107 4.4477 13.9261 4.33363 13.7811C4.21956 13.6361 4.05757 13.5365 3.87671 13.5001C3.76811 13.4813 3.6567 13.4867 3.55043 13.5159C3.44416 13.5451 3.34562 13.5974 3.26184 13.669C3.17806 13.7406 3.11109 13.8298 3.0657 13.9302C3.02031 14.0307 2.99761 14.1399 2.99921 14.2501V20.3476C2.99921 20.5206 2.93047 20.6866 2.8081 20.809C2.68573 20.9313 2.51977 21.0001 2.34671 21.0001H2.29046C2.10611 20.9929 1.92523 21.0516 1.78024 21.1656C1.63524 21.2797 1.53561 21.4417 1.49921 21.6226C1.48046 21.7312 1.48588 21.8426 1.51508 21.9489C1.54428 22.0551 1.59654 22.1537 1.66815 22.2374C1.73976 22.3212 1.82895 22.3882 1.92938 22.4336C2.02981 22.479 2.13901 22.5017 2.24921 22.5001H21.7492C21.8594 22.5017 21.9686 22.479 22.069 22.4336C22.1695 22.3882 22.2587 22.3212 22.3303 22.2374C22.4019 22.1537 22.4541 22.0551 22.4833 21.9489C22.5125 21.8426 22.518 21.7312 22.4992 21.6226Z" fill="#454545"/>
<path d="M9 18C9.41421 18 9.75 17.6642 9.75 17.25C9.75 16.8358 9.41421 16.5 9 16.5C8.58579 16.5 8.25 16.8358 8.25 17.25C8.25 17.6642 8.58579 18 9 18Z" fill="#454545"/>
</svg>
