<svg width="24" height="24" viewBox="0 0 24 24" fill="none" xmlns="http://www.w3.org/2000/svg">
<path d="M12 0C5.3833 0 0 5.3833 0 12C0 18.6167 5.3833 24 12 24C18.6167 24 24 18.6167 24 12C24 5.3833 18.6167 0 12 0ZM12 22.9565C5.95826 22.9565 1.04348 18.0417 1.04348 12C1.04348 5.95826 5.95826 1.04348 12 1.04348C18.0417 1.04348 22.9565 5.95826 22.9565 12C22.9565 18.0417 18.0417 22.9565 12 22.9565Z" fill="#A1A1A1"/>
<path d="M9.39215 9.91287C9.39215 9.04992 8.68989 8.34766 7.82694 8.34766C6.96398 8.34766 6.26172 9.04992 6.26172 9.91287C6.26172 10.7758 6.96398 11.4781 7.82694 11.4781C8.68989 11.4781 9.39215 10.7758 9.39215 9.91287ZM7.3052 9.91287C7.3052 9.6254 7.53946 9.39113 7.82694 9.39113C8.11441 9.39113 8.34868 9.6254 8.34868 9.91287C8.34868 10.2004 8.11441 10.4346 7.82694 10.4346C7.53946 10.4346 7.3052 10.2004 7.3052 9.91287Z" fill="#A1A1A1"/>
<path d="M16.1746 8.34766C15.3116 8.34766 14.6094 9.04992 14.6094 9.91287C14.6094 10.7758 15.3116 11.4781 16.1746 11.4781C17.0375 11.4781 17.7398 10.7758 17.7398 9.91287C17.7398 9.04992 17.0375 8.34766 16.1746 8.34766ZM16.1746 10.4346C15.8871 10.4346 15.6528 10.2004 15.6528 9.91287C15.6528 9.6254 15.8871 9.39113 16.1746 9.39113C16.4621 9.39113 16.6963 9.6254 16.6963 9.91287C16.6963 10.2004 16.4621 10.4346 16.1746 10.4346Z" fill="#A1A1A1"/>
<path d="M17.0443 14.7415C16.8293 14.549 16.499 14.5677 16.3076 14.7822C15.2192 15.9983 13.6498 16.6954 12.0006 16.6954C10.3519 16.6954 8.78199 15.9983 7.69364 14.7822C7.50112 14.5677 7.1719 14.549 6.95695 14.7415C6.74199 14.9335 6.72425 15.2632 6.91625 15.4782C8.20234 16.915 10.0556 17.7389 12.0006 17.7389C13.9462 17.7389 15.7994 16.9145 17.085 15.4782C17.277 15.2632 17.2587 14.9335 17.0443 14.7415Z" fill="#A1A1A1"/>
</svg>
