<svg width="24" height="24" viewBox="0 0 24 24" fill="none" xmlns="http://www.w3.org/2000/svg">
<rect width="24" height="24" fill="white"/>
<path d="M3.4375 2.03125L2.03125 3.4375L6.8125 8.1875L6 9H2V15H6L12 21V13.4062L16.5625 17.9688C15.7858 18.4333 14.9323 18.7897 14 18.9062V20.9062C15.4481 20.7683 16.8422 20.2378 18.0312 19.4375L20.5625 21.9688L21.9688 20.5625L3.4375 2.03125ZM12 3L9.5 5.5L12 7.90625V3ZM14 3.1875V5.1875C17.4 5.5875 20 8.5 20 12C20 13.1 19.6875 14.1875 19.1875 15.1875L20.6875 16.6875C21.4875 15.2875 22 13.7938 22 12.0938C22 7.49375 18.5 3.6875 14 3.1875ZM14 8.09375V9.90625L16.9062 12.8125C17.0063 12.6125 17 12.3 17 12C17 10.1 15.7 8.59375 14 8.09375Z" fill="white"/>
</svg>
