<svg width="24" height="24" viewBox="0 0 24 24" fill="none" xmlns="http://www.w3.org/2000/svg">
<path d="M20.9845 24H3.0155C1.353 24 0 22.647 0 20.9845V3.0155C0 1.353 1.353 0 3.0155 0H20.9845C22.647 0 24 1.353 24 3.0155V20.9845C24 22.647 22.647 24 20.9845 24ZM3.0155 1C1.9045 1 1 1.9045 1 3.0155V20.9845C1 22.0955 1.9045 23 3.0155 23H20.9845C22.0955 23 23 22.0955 23 20.9845V3.0155C23 1.9045 22.0955 1 20.9845 1H3.0155Z" fill="black"/>
<path d="M10.0836 7.95955C10.0836 8.55855 9.59861 9.04705 8.99711 9.04705C8.39911 9.04705 7.91211 8.55855 7.91211 7.95955C7.91211 7.35955 8.39911 6.87305 8.99711 6.87305C9.59811 6.87305 10.0836 7.35955 10.0836 7.95955Z" fill="black"/>
<path d="M16.089 7.95955C16.089 8.55855 15.6035 9.04705 15.004 9.04705C14.4045 9.04705 13.916 8.55855 13.916 7.95955C13.916 7.35955 14.4045 6.87305 15.004 6.87305C15.6035 6.87305 16.089 7.35955 16.089 7.95955Z" fill="black"/>
<path d="M11.953 16.4465C9.08654 16.4465 7.15704 15.015 7.12854 14.9935C6.90904 14.8255 6.86654 14.512 7.03404 14.293C7.20054 14.074 7.51354 14.032 7.73354 14.198C7.88804 14.3135 11.567 17.0125 16.3095 14.167C16.5475 14.025 16.8535 14.1015 16.9955 14.3385C17.137 14.576 17.061 14.8825 16.8235 15.0245C15.0475 16.09 13.3835 16.4465 11.953 16.4465Z" fill="black"/>
</svg>
