<?xml version="1.0" encoding="utf-8"?>
<!-- Generator: Adobe Illustrator 16.0.0, SVG Export Plug-In . SVG Version: 6.00 Build 0)  -->
<!DOCTYPE svg PUBLIC "-//W3C//DTD SVG 1.1//EN" "http://www.w3.org/Graphics/SVG/1.1/DTD/svg11.dtd">
<svg version="1.1" id="Layer_1" xmlns="http://www.w3.org/2000/svg" xmlns:xlink="http://www.w3.org/1999/xlink" x="0px" y="0px"
	 width="48px" height="48px" viewBox="0 0 48 48" enable-background="new 0 0 48 48" xml:space="preserve">
<g>
	<g>
		<path d="M36.357,47.801H11.644c-3.369,0-6.113-2.919-6.147-6.521L2.61,19.708l1.982-0.266l2.904,21.769
			c0,2.531,1.861,4.59,4.148,4.59h24.713c2.286,0,4.146-2.059,4.146-4.59l0.009-0.133l2.896-21.636l1.982,0.266L42.504,41.28
			C42.469,44.882,39.725,47.801,36.357,47.801z"/>
		<g>
			<path d="M46,10.559v8.821H2v-8.821H46 M46,8.559H2c-1.1,0-2,0.9-2,2v8.821c0,1.1,0.9,2,2,2h44c1.1,0,2-0.9,2-2v-8.821
				C48,9.459,47.1,8.559,46,8.559L46,8.559z"/>
		</g>
		<g>
			<path d="M12.491,10.655c-0.305,0-0.606-0.139-0.802-0.402l-6.31-8.455C5.048,1.356,5.14,0.729,5.582,0.399
				c0.444-0.331,1.07-0.239,1.399,0.203l6.31,8.455c0.331,0.442,0.239,1.069-0.203,1.399C12.909,10.59,12.699,10.655,12.491,10.655z
				"/>
			<path d="M35.511,10.655c-0.208,0-0.418-0.064-0.597-0.199c-0.443-0.33-0.534-0.957-0.204-1.399l6.309-8.455
				c0.33-0.443,0.959-0.535,1.399-0.203c0.443,0.33,0.534,0.957,0.204,1.399l-6.309,8.455
				C36.117,10.516,35.815,10.655,35.511,10.655z"/>
		</g>
	</g>
	<g>
		<path d="M17.616,41.113c-0.552,0-1-0.447-1-1V26.281c0-0.553,0.448-1,1-1s1,0.447,1,1v13.832
			C18.616,40.666,18.168,41.113,17.616,41.113z"/>
		<path d="M30.384,41.113c-0.553,0-1-0.447-1-1V26.281c0-0.553,0.447-1,1-1s1,0.447,1,1v13.832
			C31.384,40.666,30.937,41.113,30.384,41.113z"/>
	</g>
</g>
</svg>
