<svg width="71" height="71" viewBox="0 0 71 71" fill="none" xmlns="http://www.w3.org/2000/svg">
<path d="M35.5859 70.5088C54.9159 70.5088 70.5859 54.8388 70.5859 35.5088C70.5859 16.1788 54.9159 0.508789 35.5859 0.508789C16.256 0.508789 0.585938 16.1788 0.585938 35.5088C0.585938 54.8388 16.256 70.5088 35.5859 70.5088Z" fill="#FF1678"/>
<path d="M45.7773 26.0544C46.7823 25.0494 48.4118 25.0494 49.4168 26.0544C50.4218 27.0595 50.4218 28.6889 49.4168 29.694L33.9756 45.1351C32.9706 46.1402 31.3411 46.1402 30.3361 45.1351L21.7577 36.5567C20.7526 35.5517 20.7526 33.9222 21.7577 32.9172C22.7627 31.9121 24.3922 31.9121 25.3972 32.9172L32.1559 39.6758L45.7773 26.0544Z" fill="white"/>
</svg>
