<svg width="21" height="21" viewBox="0 0 21 21" fill="none" xmlns="http://www.w3.org/2000/svg">
<path fill-rule="evenodd" clip-rule="evenodd" d="M9.94625 7.82274C10.3866 7.22926 10.5446 6.60379 10.0465 6.05169C8.92878 4.4877 8.17709 3.52054 7.70559 3.05478C6.80922 2.16931 5.33466 2.28908 4.55833 3.05402C4.14136 3.46488 4.0002 3.60597 3.57206 4.04084C1.18726 6.42692 2.64163 11.471 6.50789 15.3411C10.3733 19.2103 15.4169 20.6654 17.8067 18.2743C18.2018 17.8934 18.5363 17.5587 18.8001 17.2799C19.5609 16.4758 19.6764 15.0663 18.7951 14.1506C18.3433 13.6811 17.421 12.9657 15.7912 11.7999C15.292 11.3536 14.7002 11.4503 14.1576 11.8063C13.8966 11.9775 13.7066 12.1508 13.348 12.5098L12.6967 13.1614C12.6109 13.2473 11.446 12.6639 10.3153 11.5321C9.18397 10.3996 8.60103 9.23472 8.68641 9.14935L9.33816 8.49723C9.45196 8.38333 9.50636 8.32818 9.57613 8.25485C9.72149 8.10208 9.84184 7.96344 9.94625 7.82274ZM13.8984 14.3636L14.5498 13.7118C14.7472 13.5142 14.8751 13.3927 14.9792 13.3089C16.4069 14.3342 17.2338 14.9789 17.5715 15.3298C17.7743 15.5405 17.7428 15.9249 17.5665 16.1112C17.3226 16.3691 17.0056 16.6862 16.6167 17.0613C15.0714 18.6073 11 17.4327 7.70986 14.1393C4.41868 10.8449 3.24461 6.77292 4.77827 5.23841C5.20469 4.80533 5.33979 4.6703 5.75081 4.26531C5.90492 4.11346 6.3247 4.07936 6.51217 4.26455C6.87518 4.62314 7.54854 5.48534 8.53911 6.86518C8.48783 6.92885 8.42378 7.00079 8.34584 7.08271C8.28863 7.14283 8.24097 7.19114 8.13678 7.29544L7.48566 7.94691C6.37798 9.0545 7.32132 10.9396 9.11393 12.7339C10.9053 14.5271 12.7911 15.4715 13.8984 14.3636Z" fill="#737373"/>
</svg>
