<svg width="24" height="24" viewBox="0 0 24 24" fill="none" xmlns="http://www.w3.org/2000/svg">
<g clip-path="url(#clip0)">
<path d="M20.8513 19.636L17.0323 15.101C16.8698 14.908 16.5803 14.882 16.3853 15.0465L14.0763 16.991C14.0758 16.991 14.0758 16.991 14.0753 16.9915C13.5968 17.3945 13.0918 17.59 12.5298 17.59C11.2643 17.59 9.67684 16.533 8.06084 14.613C7.07934 13.447 6.37534 12.2215 6.07834 11.162C5.72884 9.91604 5.95184 8.94704 6.73934 8.28204C6.73984 8.28154 6.74084 8.28154 6.74134 8.28104L9.05234 6.33504C9.24634 6.17204 9.27134 5.88254 9.10784 5.68854L5.29034 1.15204C5.21184 1.05854 5.09984 1.00054 4.97834 0.990538C4.85634 0.978038 4.73684 1.01804 4.64384 1.09654L2.33284 3.04154C2.32984 3.04404 2.32884 3.04804 2.32584 3.05004C2.32284 3.05304 2.31834 3.05354 2.31534 3.05654C-0.256158 5.43954 1.19184 11.42 5.61334 16.6725C8.85634 20.5245 12.9203 23.014 15.9668 23.014C16.9563 23.014 17.7968 22.755 18.4663 22.2435C18.4688 22.2415 18.4698 22.2385 18.4728 22.2365C18.4763 22.2335 18.4808 22.2325 18.4833 22.23L20.7958 20.2825C20.8893 20.204 20.9473 20.092 20.9573 19.9705C20.9683 19.85 20.9293 19.7295 20.8513 19.636Z" stroke="black" stroke-miterlimit="10"/>
</g>
<defs>
<clipPath id="clip0">
<rect width="24" height="24" fill="white"/>
</clipPath>
</defs>
</svg>
