<svg width="19" height="18" viewBox="0 0 19 18" fill="none" xmlns="http://www.w3.org/2000/svg">
<path fill-rule="evenodd" clip-rule="evenodd" d="M8.63823 6.25416C9.02681 5.7305 9.16615 5.17861 8.72668 4.69146C7.74046 3.31148 7.07721 2.4581 6.66118 2.04714C5.87026 1.26584 4.56919 1.37152 3.88419 2.04647C3.51628 2.40899 3.39172 2.53348 3.01395 2.91719C0.909711 5.02256 2.19298 9.47323 5.60439 12.888C9.01503 16.302 13.4653 17.5859 15.5739 15.4761C15.9225 15.1401 16.2177 14.8447 16.4505 14.5987C17.1217 13.8892 17.2236 12.6455 16.446 11.8375C16.0474 11.4233 15.2336 10.7921 13.7955 9.76343C13.3551 9.36961 12.8329 9.45496 12.3541 9.76906C12.1238 9.92015 11.9562 10.073 11.6398 10.3898L11.0651 10.9648C10.9894 11.0405 9.96159 10.5258 8.96388 9.52711C7.96564 8.52788 7.45127 7.50003 7.52661 7.4247L8.10169 6.8493C8.2021 6.74879 8.2501 6.70014 8.31166 6.63544C8.43992 6.50064 8.54611 6.37831 8.63823 6.25416ZM12.1251 12.0255L12.6999 11.4504C12.8741 11.276 12.987 11.1688 13.0788 11.0949C14.3386 11.9996 15.0681 12.5684 15.3661 12.8781C15.5451 13.064 15.5173 13.4032 15.3617 13.5676C15.1465 13.7951 14.8668 14.0749 14.5237 14.4059C13.1601 15.77 9.56777 14.7335 6.66469 11.8276C3.76071 8.92077 2.72476 5.32787 4.078 3.97389C4.45424 3.59176 4.57345 3.47262 4.93611 3.11527C5.07209 2.98128 5.44249 2.9512 5.6079 3.1146C5.92821 3.43101 6.52235 4.19177 7.39638 5.40928C7.35113 5.46545 7.29462 5.52893 7.22585 5.60121C7.17537 5.65426 7.13332 5.69689 7.04138 5.78892L6.46687 6.36375C5.48951 7.34103 6.32186 9.00431 7.90358 10.5876C9.48421 12.1698 11.1481 13.0031 12.1251 12.0255Z" fill="white"/>
</svg>
