<svg width="25" height="25" viewBox="0 0 25 25" fill="none" xmlns="http://www.w3.org/2000/svg">
<g clip-path="url(#clip0)">
<path d="M22.756 24.0758L20.8548 17.1201C20.8121 16.9636 20.7166 16.8268 20.5845 16.7327C17.5709 14.5865 18.5588 15.29 15.9825 13.4554C16.9604 12.4505 17.5241 11.092 17.5241 9.66989C17.5241 6.83489 17.5429 6.67973 17.4598 6.16251C17.4291 3.19476 15.1798 0.964355 12.2031 0.964355H11.9844C9.00774 0.964355 6.75845 3.19476 6.72774 6.16256C6.64463 6.67978 6.66348 6.83479 6.66348 9.66993C6.66348 11.0919 7.2272 12.4505 8.20515 13.4555C4.9449 15.7771 6.8499 14.4205 3.60306 16.7327C3.47096 16.8268 3.37543 16.9637 3.33268 17.1201L1.43148 24.0759C1.30928 24.523 1.64645 24.9644 2.10971 24.9644H11.3907V17.5339L12.0938 17.0719L12.7969 17.5339V24.9644H22.0779C22.5414 24.9644 22.8782 24.5227 22.756 24.0758ZM11.6346 3.24257H12.5529C12.9413 3.24257 13.2561 3.55739 13.2561 3.9457C13.2561 4.33401 12.9413 4.64882 12.5529 4.64882H11.6346C11.2463 4.64882 10.9315 4.33401 10.9315 3.9457C10.9315 3.55739 11.2463 3.24257 11.6346 3.24257ZM11.3907 15.8512L9.84409 16.8674L7.78098 15.4839L9.36076 14.3589C10.0065 14.7355 10.704 14.9609 11.3907 15.0493V15.8512ZM12.0938 13.6881C9.86045 13.6881 8.06973 11.8756 8.06973 9.66993C8.06968 9.1664 8.06912 8.74968 8.06865 8.40075L8.44665 8.95261C8.57771 9.144 8.79474 9.25837 9.02673 9.25837H15.1608C15.3928 9.25837 15.6098 9.144 15.7409 8.95261L16.1189 8.40075C16.1184 8.74964 16.1179 9.1664 16.1179 9.66993C16.1179 11.8559 14.347 13.6881 12.0938 13.6881ZM12.7969 15.8512V15.0492C13.5202 14.9562 14.2121 14.7174 14.8268 14.3588L16.4066 15.4838L14.3435 16.8674L12.7969 15.8512ZM18.0669 21.9687H15.6014C15.2131 21.9687 14.8983 21.6539 14.8983 21.2656C14.8983 20.8773 15.2131 20.5625 15.6014 20.5625H18.0669C18.4553 20.5625 18.7701 20.8773 18.7701 21.2656C18.7701 21.6539 18.4553 21.9687 18.0669 21.9687Z" fill="#737373"/>
</g>
<defs>
<clipPath id="clip0">
<rect width="24" height="24" fill="white" transform="translate(0.09375 0.964355)"/>
</clipPath>
</defs>
</svg>
