<svg width="25" height="25" viewBox="0 0 25 25" fill="none" xmlns="http://www.w3.org/2000/svg">
<path fill-rule="evenodd" clip-rule="evenodd" d="M12.875 23.7871C6.79987 23.7871 1.875 18.8622 1.875 12.7871C1.875 6.71198 6.79987 1.78711 12.875 1.78711C18.9501 1.78711 23.875 6.71198 23.875 12.7871C23.875 18.8622 18.9501 23.7871 12.875 23.7871ZM12.875 21.7871C17.8456 21.7871 21.875 17.7577 21.875 12.7871C21.875 7.81655 17.8456 3.78711 12.875 3.78711C7.90444 3.78711 3.875 7.81655 3.875 12.7871C3.875 17.7577 7.90444 21.7871 12.875 21.7871ZM17.875 11.7871H13.875V7.78711H11.875V11.7871H7.875V13.7871H11.875V17.7871H13.875V13.7871H17.875V11.7871Z" fill="#FF1678"/>
</svg>
