<svg width="24" height="18" viewBox="0 0 24 18" fill="none" xmlns="http://www.w3.org/2000/svg">
<path d="M8.99979 17.648C13.7761 17.648 17.648 13.7761 17.648 8.99979C17.648 4.22351 13.7761 0.351562 8.99979 0.351562C4.22351 0.351562 0.351562 4.22351 0.351562 8.99979C0.351562 13.7761 4.22351 17.648 8.99979 17.648Z" fill="#FDDF6D"/>
<path d="M10.853 16.3712C6.07676 16.3712 2.20482 12.4993 2.20482 7.72296C2.20482 5.17118 3.31024 2.87787 5.06809 1.29492C2.26828 2.72645 0.351562 5.63921 0.351562 8.99966C0.351562 13.7759 4.22346 17.6479 8.99975 17.6479C11.2242 17.6479 13.2523 16.8077 14.7847 15.4278C13.6051 16.0309 12.2688 16.3712 10.853 16.3712Z" fill="#FCC56B"/>
<path d="M10.2584 14.8043C8.32511 14.8043 6.75781 13.237 6.75781 11.3037H13.759C13.759 13.237 12.1917 14.8043 10.2584 14.8043Z" fill="#7F184C"/>
<path d="M8.65839 6.67336C8.46408 6.67336 8.30659 6.51582 8.30659 6.32155C8.30659 5.86775 7.93741 5.49857 7.48362 5.49857C7.02982 5.49857 6.66065 5.86778 6.66065 6.32155C6.66065 6.51585 6.50311 6.67336 6.30884 6.67336C6.11453 6.67336 5.95703 6.51582 5.95703 6.32155C5.95703 5.47977 6.64191 4.79492 7.48365 4.79492C8.32539 4.79492 9.01027 5.47977 9.01027 6.32155C9.01024 6.51585 8.8527 6.67336 8.65839 6.67336Z" fill="#7F184C"/>
<path d="M14.5998 6.67336C14.4055 6.67336 14.248 6.51582 14.248 6.32155C14.248 5.86775 13.8788 5.49857 13.425 5.49857C12.9712 5.49857 12.6021 5.86778 12.6021 6.32155C12.6021 6.51585 12.4445 6.67336 12.2502 6.67336C12.056 6.67336 11.8984 6.51582 11.8984 6.32155C11.8984 5.47977 12.5833 4.79492 13.4251 4.79492C14.2668 4.79492 14.9517 5.47977 14.9517 6.32155C14.9516 6.51585 14.7941 6.67336 14.5998 6.67336Z" fill="#7F184C"/>
<path d="M5.28399 8.46289C4.64176 8.46289 4.12109 8.98356 4.12109 9.62579H6.44692C6.44685 8.98356 5.92622 8.46289 5.28399 8.46289Z" fill="#F9A880"/>
<path d="M15.4286 8.30859C14.7863 8.30859 14.2656 8.82925 14.2656 9.47148H16.5915C16.5915 8.82922 16.0709 8.30859 15.4286 8.30859Z" fill="#F9A880"/>
<path d="M7.60938 11.3066V11.8531C7.60938 12.0835 7.79616 12.2702 8.02654 12.2702H12.4851C12.7155 12.2702 12.9023 12.0835 12.9023 11.8531V11.3066H7.60938Z" fill="#F2F2F2"/>
<path d="M10.3322 13.3555C9.38595 12.9159 8.3359 12.9798 7.48438 13.4357C8.12422 14.2697 9.13043 14.8079 10.2628 14.8079C10.7618 14.8079 11.236 14.7027 11.6656 14.5146C11.3504 14.0268 10.8985 13.6186 10.3322 13.3555Z" fill="#FC4C59"/>
<path d="M12.3164 3.2475C12.4681 2.71156 11.8131 2.05693 10.8534 1.78533C9.89365 1.51374 8.9927 1.72803 8.84103 2.26397C8.68936 2.79991 9.34441 3.45455 10.3041 3.72614C11.2638 3.99774 12.1648 3.78344 12.3164 3.2475Z" fill="#FCEB88"/>
<path d="M16.4268 3.91496C15.422 2.45004 14.0239 1.32377 12.3838 0.657844C12.2038 0.584789 11.9985 0.671449 11.9254 0.851484C11.8523 1.03152 11.939 1.23669 12.119 1.30985C13.6309 1.92371 14.9199 2.9622 15.8465 4.313C16.7949 5.69577 17.2963 7.31647 17.2963 9C17.2963 13.5747 13.5746 17.2963 8.99996 17.2963C4.42533 17.2963 0.703652 13.5746 0.703652 9C0.703652 4.4254 4.42533 0.703652 9 0.703652C9.19431 0.703652 9.35181 0.546117 9.35181 0.351844C9.35181 0.15757 9.19431 0 9 0C4.03734 0 0 4.03734 0 9C0 13.9627 4.03734 18 9 18C13.9627 18 18 13.9627 18 9C18 7.17374 17.456 5.41536 16.4268 3.91496Z" fill="black"/>
<path d="M6.66072 6.32155C6.66072 5.86775 7.02993 5.49857 7.48369 5.49857C7.93745 5.49857 8.30666 5.86778 8.30666 6.32155C8.30666 6.51585 8.4642 6.67336 8.65847 6.67336C8.85278 6.67336 9.01028 6.51582 9.01028 6.32155C9.01028 5.47977 8.32544 4.79492 7.48366 4.79492C6.64188 4.79492 5.95703 5.47977 5.95703 6.32155C5.95703 6.51585 6.11457 6.67336 6.30884 6.67336C6.50322 6.67336 6.66072 6.51585 6.66072 6.32155Z" fill="black"/>
<path d="M12.6021 6.32155C12.6021 5.86775 12.9713 5.49857 13.4251 5.49857C13.8789 5.49857 14.2481 5.86778 14.2481 6.32155C14.2481 6.51585 14.4056 6.67336 14.5999 6.67336C14.7942 6.67336 14.9517 6.51582 14.9517 6.32155C14.9517 5.47977 14.2668 4.79492 13.4251 4.79492C12.5833 4.79492 11.8984 5.47977 11.8984 6.32155C11.8984 6.51585 12.056 6.67336 12.2502 6.67336C12.4445 6.67336 12.6021 6.51585 12.6021 6.32155Z" fill="black"/>
<path d="M6.40625 11.3069C6.40625 13.4311 8.13443 15.1593 10.2587 15.1593C12.3829 15.1593 14.1111 13.4311 14.1111 11.3069C14.1111 11.1126 13.9536 10.9551 13.7593 10.9551H6.75806C6.56379 10.955 6.40625 11.1126 6.40625 11.3069ZM13.388 11.6587C13.2125 13.23 11.876 14.4557 10.2587 14.4557C8.64131 14.4557 7.30488 13.23 7.12938 11.6587H13.388Z" fill="black"/>
<path d="M10.9299 0.95557C11.1242 0.95557 11.2817 0.79806 11.2817 0.603762C11.2817 0.409463 11.1242 0.251953 10.9299 0.251953C10.7356 0.251953 10.5781 0.409463 10.5781 0.603762C10.5781 0.79806 10.7356 0.95557 10.9299 0.95557Z" fill="black"/>
<circle cx="18.375" cy="12.375" r="5.125" fill="#FF1678" stroke="white"/>
<path fill-rule="evenodd" clip-rule="evenodd" d="M19.0312 11.7187H21V13.0312H19.0312V15H17.7187V13.0312H15.75V11.7187H17.7187V9.75H19.0312V11.7187Z" fill="white"/>
</svg>
