<svg width="24" height="25" viewBox="0 0 24 25" fill="none" xmlns="http://www.w3.org/2000/svg">
<g clip-path="url(#clip0)">
<path d="M20.1923 20.8056C24.7089 16.289 24.7089 8.9376 20.1923 4.4208C15.6758 -0.0959969 8.32432 -0.0959969 3.80752 4.4208C-0.709278 8.9376 -0.709278 16.289 3.80752 20.8056C8.32432 25.3222 15.6755 25.3222 20.1923 20.8056ZM4.62496 5.23824C8.69296 1.17048 15.3071 1.17048 19.3751 5.23824C23.4429 9.30624 23.4429 15.9204 19.3751 19.9884C15.3071 24.0562 8.69296 24.0562 4.62496 19.9884C0.556962 15.9202 0.561522 9.306 4.62496 5.23824Z" fill="white"/>
<path d="M11.9999 16.9488C12.1605 16.9488 12.3023 16.8828 12.4111 16.7786C12.515 16.6747 12.5812 16.5286 12.5812 16.3678V13.188H15.7607C15.9213 13.188 16.0631 13.122 16.1719 13.0178C16.2758 12.9139 16.342 12.7678 16.342 12.607C16.342 12.2856 16.0819 12.0259 15.7655 12.0305H12.5855V8.85095C12.5855 8.52959 12.3261 8.26991 12.0093 8.27447C11.6882 8.27447 11.428 8.53439 11.4331 8.85095V12.0305H8.2533C7.93194 12.0305 7.67226 12.2904 7.67682 12.607C7.67682 12.9283 7.93674 13.188 8.2533 13.1837H11.4331V16.363C11.4187 16.6891 11.6788 16.9488 11.9999 16.9488Z" fill="white"/>
</g>
<defs>
<clipPath id="clip0">
<rect width="24" height="24" fill="white" transform="translate(0 0.613281)"/>
</clipPath>
</defs>
</svg>
