<svg width="15" height="17" viewBox="0 0 15 17" fill="none" xmlns="http://www.w3.org/2000/svg">
<path d="M0.229492 8.27459C0.229492 9.97379 1.60829 11.3526 3.30821 11.3526C5.00741 11.3526 6.38693 9.97379 6.38693 8.27459C6.38693 6.57395 5.00741 5.19515 3.30821 5.19515C1.60829 5.19515 0.229492 6.57395 0.229492 8.27459ZM4.33493 8.27459C4.33493 8.84123 3.87557 9.30059 3.30893 9.30059C2.74157 9.30059 2.28221 8.84123 2.28221 8.27459C2.28221 7.70723 2.74157 7.24787 3.30893 7.24787C3.87485 7.24787 4.33493 7.70723 4.33493 8.27459ZM11.0993 0.105469C13.2543 2.16107 14.5978 5.06051 14.5978 8.27459C14.5978 11.4879 13.2543 14.3859 11.0993 16.4437L9.58373 15.0519C11.4039 13.365 12.5451 10.9537 12.5451 8.27459C12.5451 5.59547 11.4039 3.18347 9.58373 1.49651L11.0993 0.105469ZM10.4917 8.27459C10.4917 6.12971 9.55277 4.20515 8.06237 2.88971L6.53885 4.28723C7.69805 5.22827 8.43965 6.66467 8.43965 8.27531C8.43965 9.88451 7.69805 11.3209 6.53885 12.2627L8.06237 13.6595C9.55349 12.3433 10.4917 10.418 10.4917 8.27459Z" fill="#454545"/>
</svg>
