<svg width="16" height="16" viewBox="0 0 16 16" fill="none" xmlns="http://www.w3.org/2000/svg">
<path d="M1.61328 8.13253C1.61328 9.64293 2.83888 10.8685 4.34992 10.8685C5.86032 10.8685 7.08656 9.64293 7.08656 8.13253C7.08656 6.62085 5.86032 5.39525 4.34992 5.39525C2.83888 5.39525 1.61328 6.62085 1.61328 8.13253ZM5.26256 8.13253C5.26256 8.63621 4.85424 9.04453 4.35056 9.04453C3.84624 9.04453 3.43792 8.63621 3.43792 8.13253C3.43792 7.62821 3.84624 7.21989 4.35056 7.21989C4.8536 7.21989 5.26256 7.62821 5.26256 8.13253ZM11.2754 0.871094C13.1909 2.69829 14.3851 5.27557 14.3851 8.13253C14.3851 10.9889 13.1909 13.5649 11.2754 15.394L9.92816 14.1569C11.5461 12.6573 12.5605 10.514 12.5605 8.13253C12.5605 5.75109 11.5461 3.60709 9.92816 2.10757L11.2754 0.871094ZM10.7352 8.13253C10.7352 6.22597 9.90064 4.51525 8.57584 3.34597L7.2216 4.58821C8.252 5.42469 8.9112 6.70149 8.9112 8.13317C8.9112 9.56357 8.252 10.8404 7.2216 11.6775L8.57584 12.9191C9.90128 11.7492 10.7352 10.0378 10.7352 8.13253Z" fill="white"/>
</svg>
