<svg width="25" height="25" viewBox="0 0 25 25" fill="none" xmlns="http://www.w3.org/2000/svg">
<path fill-rule="evenodd" clip-rule="evenodd" d="M12.7871 23.5527C6.71198 23.5527 1.78711 18.6279 1.78711 12.5527C1.78711 6.4776 6.71198 1.55273 12.7871 1.55273C18.8622 1.55273 23.7871 6.4776 23.7871 12.5527C23.7871 18.6279 18.8622 23.5527 12.7871 23.5527ZM21.6549 14.0985C19.7215 13.6493 17.9137 13.5338 16.2259 13.7545C17.0669 15.8297 17.6791 17.8601 18.0617 19.8459C19.9224 18.4979 21.2469 16.4553 21.6549 14.0985ZM16.2149 20.8769C15.8559 18.7166 15.1983 16.4862 14.241 14.186C11.5536 15.0172 9.20156 16.8095 7.15736 19.575C8.69889 20.8124 10.6565 21.5527 12.7871 21.5527C14.0008 21.5527 15.1584 21.3125 16.2149 20.8769ZM5.73248 18.1419C7.93876 15.2406 10.509 13.306 13.4197 12.3487C13.232 11.9555 13.0358 11.5604 12.8311 11.1633C12.3143 11.3013 11.7784 11.4205 11.2244 11.5218C8.99372 11.9296 7.06021 12.009 3.92409 11.9642C3.88294 11.9636 3.84367 11.963 3.80615 11.9625C3.79352 12.1576 3.78711 12.3544 3.78711 12.5527C3.78711 14.6646 4.51453 16.6067 5.73248 18.1419ZM4.16401 9.96725C4.8776 7.58387 6.55233 5.61571 8.73821 4.51274C9.905 6.1551 10.9404 7.76735 11.8447 9.34936C11.5268 9.42482 11.2001 9.4931 10.8647 9.55441C8.84709 9.92326 7.05209 10.0037 4.16401 9.96725ZM10.6826 3.80012C11.8532 5.47569 12.8935 7.12533 13.8031 8.74916C15.7198 8.00794 17.2076 6.90636 18.2214 5.37798C16.7114 4.23248 14.8286 3.55273 12.7871 3.55273C12.0624 3.55273 11.3577 3.63839 10.6826 3.80012ZM19.6882 6.77529C20.903 8.22487 21.6696 10.0629 21.7747 12.076C19.5126 11.5885 17.3853 11.5165 15.3992 11.8572C15.1934 11.4156 14.9775 10.9719 14.7516 10.5263C16.8125 9.69233 18.4811 8.46758 19.6882 6.77529Z" fill="#A1A1A1"/>
</svg>
