<svg width="25" height="25" viewBox="0 0 25 25" fill="none" xmlns="http://www.w3.org/2000/svg">
<path fill-rule="evenodd" clip-rule="evenodd" d="M13.7871 5.10605C13.4605 5.05933 13.1266 5.03516 12.7871 5.03516C12.4476 5.03516 12.1137 5.05933 11.7871 5.10605V1.08C12.1165 1.05032 12.45 1.03516 12.7871 1.03516C13.1242 1.03516 13.4577 1.05032 13.7871 1.08V5.10605ZM7.78711 12.0352C7.78711 14.7966 10.0257 17.0352 12.7871 17.0352C15.5485 17.0352 17.7871 14.7966 17.7871 12.0352C17.7871 9.27373 15.5485 7.03516 12.7871 7.03516C10.0257 7.03516 7.78711 9.27373 7.78711 12.0352ZM15.7871 12.0352C15.7871 13.692 14.444 15.0352 12.7871 15.0352C11.1303 15.0352 9.78711 13.692 9.78711 12.0352C9.78711 10.3783 11.1303 9.03516 12.7871 9.03516C14.444 9.03516 15.7871 10.3783 15.7871 12.0352ZM13.7871 22.9903V18.9643C13.4605 19.011 13.1266 19.0352 12.7871 19.0352C12.4476 19.0352 12.1137 19.011 11.7871 18.9643V22.9903C12.1165 23.02 12.45 23.0352 12.7871 23.0352C13.1242 23.0352 13.4577 23.02 13.7871 22.9903ZM19.7162 11.0352H23.7423C23.7719 11.3645 23.7871 11.6981 23.7871 12.0352C23.7871 12.3722 23.7719 12.7058 23.7423 13.0352H19.7162C19.7629 12.7086 19.7871 12.3747 19.7871 12.0352C19.7871 11.6956 19.7629 11.3618 19.7162 11.0352ZM5.78711 12.0352C5.78711 11.6956 5.81128 11.3618 5.858 11.0352H1.83195C1.80227 11.3645 1.78711 11.6981 1.78711 12.0352C1.78711 12.3722 1.80227 12.7058 1.83195 13.0352H5.858C5.81128 12.7086 5.78711 12.3747 5.78711 12.0352ZM16.9793 6.42877L19.8262 3.58189C20.3392 4.00956 20.8127 4.48306 21.2404 4.9961L18.3935 7.84299C17.992 7.30689 17.5154 6.83028 16.9793 6.42877ZM4.33384 4.9961L7.18073 7.84299C7.58224 7.30689 8.05884 6.83028 8.59494 6.42877L5.74805 3.58189C5.23501 4.00956 4.76151 4.48306 4.33384 4.9961ZM18.3935 16.2273L21.2404 19.0742C20.8127 19.5873 20.3392 20.0608 19.8262 20.4884L16.9793 17.6415C17.5154 17.24 17.992 16.7634 18.3935 16.2273ZM5.74805 20.4884L8.59494 17.6415C8.05884 17.24 7.58224 16.7634 7.18073 16.2273L4.33384 19.0742C4.76151 19.5873 5.23501 20.0608 5.74805 20.4884Z" fill="#A1A1A1"/>
</svg>
