<svg width="57" height="57" viewBox="0 0 57 57" fill="none" xmlns="http://www.w3.org/2000/svg">
<circle cx="28.3408" cy="28.1547" r="28" fill="#FF1678"/>
<rect x="24.2109" y="16.9698" width="15.3333" height="15.3333" rx="1.5" fill="white" stroke="white"/>
<mask id="path-3-inside-1" fill="white">
<path fill-rule="evenodd" clip-rule="evenodd" d="M23.0544 23.5063H18.6377C17.5331 23.5063 16.6377 24.4017 16.6377 25.5063V37.8396C16.6377 38.9442 17.5331 39.8396 18.6377 39.8396H30.971C32.0756 39.8396 32.971 38.9442 32.971 37.8396V33.423H25.0544C23.9498 33.423 23.0544 32.5275 23.0544 31.423V23.5063Z"/>
</mask>
<path fill-rule="evenodd" clip-rule="evenodd" d="M23.0544 23.5063H18.6377C17.5331 23.5063 16.6377 24.4017 16.6377 25.5063V37.8396C16.6377 38.9442 17.5331 39.8396 18.6377 39.8396H30.971C32.0756 39.8396 32.971 38.9442 32.971 37.8396V33.423H25.0544C23.9498 33.423 23.0544 32.5275 23.0544 31.423V23.5063Z" fill="white"/>
<path d="M23.0544 23.5063H24.0544V22.5063H23.0544V23.5063ZM32.971 33.423H33.971V32.423H32.971V33.423ZM18.6377 24.5063H23.0544V22.5063H18.6377V24.5063ZM17.6377 25.5063C17.6377 24.954 18.0854 24.5063 18.6377 24.5063V22.5063C16.9808 22.5063 15.6377 23.8494 15.6377 25.5063H17.6377ZM17.6377 37.8396V25.5063H15.6377V37.8396H17.6377ZM18.6377 38.8396C18.0854 38.8396 17.6377 38.3919 17.6377 37.8396H15.6377C15.6377 39.4965 16.9808 40.8396 18.6377 40.8396V38.8396ZM30.971 38.8396H18.6377V40.8396H30.971V38.8396ZM31.971 37.8396C31.971 38.3919 31.5233 38.8396 30.971 38.8396V40.8396C32.6279 40.8396 33.971 39.4965 33.971 37.8396H31.971ZM31.971 33.423V37.8396H33.971V33.423H31.971ZM32.971 32.423H25.0544V34.423H32.971V32.423ZM25.0544 32.423C24.5021 32.423 24.0544 31.9752 24.0544 31.423H22.0544C22.0544 33.0798 23.3975 34.423 25.0544 34.423V32.423ZM24.0544 31.423V23.5063H22.0544V31.423H24.0544Z" fill="white" mask="url(#path-3-inside-1)"/>
</svg>
