<svg width="71" height="71" viewBox="0 0 71 71" fill="none" xmlns="http://www.w3.org/2000/svg">
<circle cx="35.7695" cy="35.416" r="35" fill="#FF2462"/>
<g clip-path="url(#clip0)">
<path d="M47.0399 35.4851C47.0399 29.2708 41.9842 24.2148 35.77 24.2148C32.1552 24.2148 28.8491 25.9404 26.7543 28.7292L24.5 35.4851C24.5 41.6994 29.5557 46.755 35.77 46.755C39.385 46.755 42.6911 45.0297 44.7856 42.2409L47.0399 35.4851Z" fill="white"/>
<path d="M35.7695 24.2148V46.755C39.3846 46.755 42.6907 45.0297 44.7852 42.2409L47.0395 35.4851C47.0395 29.2708 41.9838 24.2148 35.7695 24.2148Z" fill="#F6F5F7"/>
<path d="M38.8426 37.5333C38.8426 38.8687 37.986 40.0081 36.7934 40.4308V42.5742H34.7442V40.4308C33.5517 40.0081 32.6953 38.8687 32.6953 37.5333H34.7442C34.7442 38.0983 35.204 38.5579 35.7688 38.5579C36.3336 38.5579 36.7934 38.0983 36.7934 37.5333C36.7934 36.9685 36.3336 36.5089 35.7688 36.5089C34.0742 36.5089 32.6953 35.1297 32.6953 33.4352C32.6953 32.0998 33.5517 30.9606 34.7442 30.5377V28.3809H36.7934V30.5377C37.986 30.9606 38.8426 32.0998 38.8426 33.4352H36.7934C36.7934 32.8704 36.3336 32.4106 35.7688 32.4106C35.204 32.4106 34.7442 32.8704 34.7442 33.4352C34.7442 33.9999 35.204 34.4598 35.7688 34.4598C37.4634 34.4598 38.8426 35.8387 38.8426 37.5333Z" fill="#FF2462"/>
<path d="M38.8433 37.5335C38.8433 38.8689 37.9867 40.0083 36.7941 40.431V42.5744H35.7695V38.5581C36.3343 38.5581 36.7941 38.0985 36.7941 37.5335C36.7941 36.9687 36.3343 36.5091 35.7695 36.5091V34.46C37.4641 34.46 38.8433 35.8389 38.8433 37.5335Z" fill="#FF2462"/>
<path d="M35.7695 32.4106V28.3809H36.7941V30.5377C37.9867 30.9606 38.8433 32.0998 38.8433 33.4352H36.7941C36.7941 32.8704 36.3343 32.4106 35.7695 32.4106Z" fill="#FF2462"/>
<path d="M25.5247 17.916L18.9531 24.4876H22.4509V36.7821H28.5982V24.4876H32.096L25.5247 17.916Z" fill="white"/>
<path d="M49.0904 46.3443V34.0498H42.9431V46.3443H39.4453L46.0169 52.9159L46.027 52.9058L52.5882 46.3443H49.0904Z" fill="#F6F5F7"/>
<path d="M32.0947 24.4871H28.5969V36.7816H25.5234V17.9299L25.5266 17.9189L32.0947 24.4871Z" fill="white"/>
<path d="M52.5869 46.3443L46.0258 52.9058C46.0188 52.9028 46.0156 52.9015 46.0156 52.9015V34.0498H49.0891V46.3443H52.5869Z" fill="#F6F5F7"/>
</g>
<defs>
<clipPath id="clip0">
<rect width="35" height="35" fill="white" transform="translate(18.2695 17.916)"/>
</clipPath>
</defs>
</svg>
