<svg width="25" height="25" viewBox="0 0 25 25" fill="none" xmlns="http://www.w3.org/2000/svg">
<path fill-rule="evenodd" clip-rule="evenodd" d="M9.32991 2.20703C10.0822 1.57001 11.1731 1.20703 12.334 1.20703C13.4948 1.20703 14.5858 1.57001 15.3381 2.20703H16.334C17.4386 2.20703 18.334 3.10246 18.334 4.20703H19.334C20.4386 4.20703 21.334 5.10246 21.334 6.20703V21.207C21.334 22.3116 20.4386 23.207 19.334 23.207H5.33398C4.22941 23.207 3.33398 22.3116 3.33398 21.207V6.20703C3.33398 5.10246 4.22941 4.20703 5.33398 4.20703H6.33398C6.33398 3.10246 7.22941 2.20703 8.33398 2.20703H9.32991ZM16.334 7.20703C17.0743 7.20703 17.7206 6.80483 18.0664 6.20703H19.334V21.207H5.33398V6.20703H6.60155C6.94736 6.80483 7.5937 7.20703 8.33398 7.20703H16.334ZM8.33398 16.207V14.207H14.334V16.207H8.33398ZM8.33398 10.207V12.207H16.334V10.207H8.33398ZM10.1916 4.20703L10.4906 3.86241C10.8192 3.48377 11.5234 3.20703 12.334 3.20703C13.1446 3.20703 13.8488 3.48377 14.1773 3.86241L14.4764 4.20703H16.334V5.20703H8.33398V4.20703H9.73533H10.1916Z" fill="#737373"/>
</svg>
