<svg width="21" height="21" viewBox="0 0 21 21" fill="none" xmlns="http://www.w3.org/2000/svg">
<path fill-rule="evenodd" clip-rule="evenodd" d="M0.712891 10.992C0.712891 16.5149 5.19004 20.992 10.7129 20.992C16.2357 20.992 20.7129 16.5149 20.7129 10.992C20.7129 5.46916 16.2357 0.992004 10.7129 0.992004C5.19004 0.992004 0.712891 5.46916 0.712891 10.992ZM18.8946 10.992C18.8946 15.5107 15.2315 19.1738 10.7128 19.1738C6.19408 19.1738 2.53095 15.5107 2.53095 10.992C2.53095 6.47331 6.19408 2.81019 10.7128 2.81019C15.2315 2.81019 18.8946 6.47331 18.8946 10.992ZM11.6247 12.8087H12.5332V14.6269H8.89686V12.8087H9.80595V10.9905H8.89686V9.17234H11.6247V12.8087ZM11.6226 7.35416C11.6226 7.85624 11.2155 8.26325 10.7132 8.26325C10.211 8.26325 9.80386 7.85624 9.80386 7.35416C9.80386 6.85208 10.211 6.44507 10.7132 6.44507C11.2155 6.44507 11.6226 6.85208 11.6226 7.35416Z" fill="#A1A1A1"/>
</svg>
