<svg width="24" height="25" viewBox="0 0 24 25" fill="none" xmlns="http://www.w3.org/2000/svg">
<g clip-path="url(#clip0)">
<path d="M5.48298 5.09349H20.7182C21.0592 5.09349 21.3358 4.81754 21.3358 4.47664C21.3358 4.13607 21.0595 3.85979 20.719 3.85979H5.48298C4.54988 3.85979 3.89874 3.27351 3.89874 2.67175C3.89874 2.06998 4.54988 1.4837 5.48298 1.4837H18.5171C19.5226 1.4837 20.281 1.49049 20.5572 1.49805C20.745 1.54616 20.9329 1.4903 21.0691 1.39237C21.2164 1.28642 21.3358 1.10808 21.3358 0.890327L21.3358 0.883349C21.3358 0.840126 21.3359 0.782555 21.3286 0.728221C21.3203 0.666374 21.3006 0.589706 21.2475 0.517136C21.1426 0.37359 20.9678 0.326774 20.8024 0.30163C20.4626 0.249979 19.8084 0.249986 18.5777 0.25L18.5179 0.25H5.48298C3.96977 0.25 2.66504 1.29866 2.66504 2.67175C2.66504 4.04483 3.96977 5.09349 5.48298 5.09349Z" fill="black" stroke="black" stroke-width="0.5"/>
<path d="M6.21668 24.7501H20.7182C21.0592 24.7501 21.3358 24.4742 21.3358 24.1333C21.3358 23.7927 21.0595 23.5164 20.719 23.5164H6.21668C4.93871 23.5164 3.89874 22.4764 3.89874 21.1985V2.77163C3.89874 2.43106 3.62246 2.15479 3.28189 2.15479C2.94132 2.15479 2.66504 2.43106 2.66504 2.77163V21.1985C2.66504 23.1568 4.2583 24.7501 6.21668 24.7501Z" fill="black" stroke="black" stroke-width="0.5"/>
<path d="M20.1013 24.1332C20.1013 24.4738 20.3776 24.7501 20.7182 24.7501C21.0598 24.7501 21.335 24.4735 21.335 24.1332V4.47671C21.335 4.13614 21.0587 3.85986 20.7182 3.85986C20.3776 3.85986 20.1013 4.13614 20.1013 4.47671V24.1332Z" fill="black" stroke="black" stroke-width="0.5"/>
<path d="M8.423 14.9212H15.5766C15.9182 14.9212 16.1934 14.6446 16.1934 14.3043C16.1934 13.9638 15.9171 13.6875 15.5766 13.6875H8.423C8.08243 13.6875 7.80615 13.9638 7.80615 14.3043C7.80615 14.6449 8.08243 14.9212 8.423 14.9212Z" fill="black" stroke="black" stroke-width="0.5"/>
<path d="M11.3828 17.8812C11.3828 18.2218 11.6591 18.4981 11.9997 18.4981C12.341 18.4981 12.6165 18.2226 12.6165 17.8812V10.7277C12.6165 10.3871 12.3402 10.1108 11.9997 10.1108C11.6591 10.1108 11.3828 10.3871 11.3828 10.7277V17.8812Z" fill="black" stroke="black" stroke-width="0.5"/>
</g>
<defs>
<clipPath id="clip0">
<rect width="24" height="24" fill="white" transform="translate(0 0.5)"/>
</clipPath>
</defs>
</svg>
