<svg width="25" height="25" viewBox="0 0 25 25" fill="none" xmlns="http://www.w3.org/2000/svg">
<path fill-rule="evenodd" clip-rule="evenodd" d="M17.1164 1.62893C15.5405 1.62891 14.5045 1.81126 13.3196 2.36362C12.9698 2.52669 12.6366 2.71635 12.3213 2.93221C12.0219 2.7309 11.7063 2.5522 11.3756 2.39641C10.1693 1.82818 9.08191 1.62891 7.56126 1.62891C3.39173 1.62891 0.333984 4.94932 0.333984 9.24878C0.333984 12.4708 2.18879 15.5312 5.60161 18.4545C7.36906 19.9684 9.62044 21.4631 11.2436 22.2637L12.334 22.8014L13.4243 22.2637C15.0475 21.4631 17.2989 19.9684 19.0664 18.4545C22.4792 15.5312 24.334 12.4708 24.334 9.24878C24.334 4.9921 21.2499 1.64523 17.1164 1.62893ZM21.334 9.24878C21.334 11.4447 19.9258 13.7682 17.1147 16.1761C15.6224 17.4543 13.7171 18.7352 12.334 19.4532C10.9509 18.7352 9.04554 17.4543 7.55323 16.1761C4.74222 13.7682 3.33398 11.4447 3.33398 9.24878C3.33398 6.55348 5.10632 4.62891 7.56126 4.62891C8.67135 4.62891 9.3321 4.75 10.0972 5.11038C10.5388 5.31841 10.9263 5.59114 11.2609 5.931L12.339 7.02638L13.4078 5.92186C13.7498 5.56843 14.1422 5.29013 14.5872 5.08269C15.3276 4.73751 15.9446 4.62891 17.1105 4.62891C19.5315 4.63847 21.334 6.59452 21.334 9.24878Z" fill="#737373"/>
</svg>
