<svg width="24" height="25" viewBox="0 0 24 25" fill="none" xmlns="http://www.w3.org/2000/svg">
<path d="M7.4425 11.6738C6.6475 11.6738 6 12.3208 6 13.1168C6 13.9118 6.6475 14.5593 7.4425 14.5593C8.2385 14.5593 8.885 13.9118 8.885 13.1168C8.885 12.3208 8.2385 11.6738 7.4425 11.6738Z" fill="white"/>
<path d="M12.5236 11.6738C11.7286 11.6738 11.0811 12.3208 11.0811 13.1168C11.0811 13.9118 11.7286 14.5593 12.5236 14.5593C13.3196 14.5593 13.9671 13.9118 13.9671 13.1168C13.9671 12.3208 13.3196 11.6738 12.5236 11.6738Z" fill="white"/>
<path d="M17.4658 11.6465C16.6738 11.6465 16.0293 12.2915 16.0293 13.084C16.0293 13.8755 16.6738 14.5195 17.4658 14.5195C18.2578 14.5195 18.9023 13.8755 18.9023 13.084C18.9023 12.2915 18.2578 11.6465 17.4658 11.6465Z" fill="white"/>
<path d="M0.499777 24.6465C0.365776 24.6465 0.234774 24.5922 0.138773 24.4898C-0.00122799 24.3418 -0.0392283 24.1223 0.0427724 23.9342L2.7288 17.7678C1.78079 16.0488 1.28128 14.1174 1.28128 12.1636C1.28128 5.8132 6.37733 0.646484 12.6409 0.646484C18.9045 0.646484 24 5.81371 24 12.1641C24 18.5135 18.9045 23.6798 12.6404 23.6798C10.6529 23.6798 8.69586 23.1429 6.96434 22.126L0.681778 24.612C0.622778 24.6348 0.560777 24.6465 0.499777 24.6465ZM12.6404 1.66087C6.92784 1.66087 2.28079 6.37236 2.28079 12.1641C2.28079 14.0236 2.7783 15.8622 3.71881 17.4809C3.80031 17.6213 3.81031 17.7937 3.74531 17.9432L1.44679 23.2205L6.82884 21.0908C6.97484 21.034 7.13784 21.0477 7.27084 21.1299C8.89736 22.1346 10.7544 22.6654 12.6409 22.6654C18.3529 22.6659 23 17.9549 23 12.1641C23 6.37286 18.3529 1.66087 12.6404 1.66087Z" fill="white"/>
</svg>
