<svg width="36" height="36" viewBox="0 0 36 36" fill="none" xmlns="http://www.w3.org/2000/svg">
<circle cx="17.6218" cy="18.4624" r="17.5" fill="#C4C4C4"/>
<circle cx="17.6218" cy="18.4624" r="16" fill="#FF2462"/>
<path d="M25.2284 28.4623H10.0159V18.0254H10.7042V27.7725H24.5401V18.0254H25.2284V28.4623Z" fill="white"/>
<path d="M8.10595 18.8417L7.62178 18.3514L17.6218 8.4624L27.6218 18.3514L27.1376 18.8417L17.6218 9.43169L8.10595 18.8417Z" fill="white"/>
<path d="M20.7077 28.1178H20.0194V20.5483C20.0194 20.0839 19.6419 19.7054 19.1777 19.7054H16.0656C15.601 19.7054 15.2235 20.0835 15.2235 20.5483V28.1178H14.536V20.5483C14.536 19.7042 15.2219 19.0161 16.066 19.0161H19.1781C20.0219 19.0161 20.7081 19.7038 20.7081 20.5483V28.1178H20.7077Z" fill="white"/>
</svg>
