<svg width="25" height="25" viewBox="0 0 25 25" fill="none" xmlns="http://www.w3.org/2000/svg">
<path fill-rule="evenodd" clip-rule="evenodd" d="M11.5333 9.10871C12.0514 8.41051 12.2372 7.67465 11.6512 7.02512C10.3362 5.18514 9.4519 4.04731 8.8972 3.49935C7.84264 2.45762 6.10787 2.59853 5.19455 3.49846C4.70399 3.98182 4.53792 4.14781 4.03422 4.65942C1.22857 7.46658 2.9396 13.4008 7.48815 17.9538C12.0357 22.5058 17.9693 24.2178 20.7809 21.4047C21.2457 20.9566 21.6392 20.5628 21.9496 20.2348C22.8446 19.2888 22.9805 17.6305 21.9437 16.5532C21.4121 16.0009 20.3271 15.1593 18.4097 13.7877C17.8224 13.2626 17.1262 13.3765 16.4878 13.7953C16.1807 13.9967 15.9573 14.2005 15.5353 14.6229L14.7691 15.3895C14.6681 15.4905 13.2977 14.8042 11.9675 13.4726C10.6365 12.1403 9.95065 10.7699 10.0511 10.6694L10.8179 9.90224C10.9518 9.76823 11.0158 9.70335 11.0978 9.61708C11.2688 9.43736 11.4104 9.27425 11.5333 9.10871ZM16.1825 16.8038L16.9489 16.0369C17.1811 15.8045 17.3316 15.6615 17.4541 15.563C19.1337 16.7692 20.1065 17.5277 20.5038 17.9405C20.7424 18.1884 20.7053 18.6407 20.4979 18.8599C20.2109 19.1632 19.8381 19.5363 19.3805 19.9776C17.5625 21.7964 12.7727 20.4145 8.90189 16.5399C5.0299 12.6641 3.64864 7.8736 5.45295 6.0683C5.95462 5.55879 6.11356 5.39993 6.59711 4.92347C6.77842 4.74482 7.27228 4.7047 7.49283 4.92258C7.9199 5.34445 8.7121 6.3588 9.87747 7.98214C9.81714 8.05704 9.74179 8.14168 9.65009 8.23806C9.58279 8.30879 9.52672 8.36563 9.40414 8.48833L8.63812 9.25477C7.33497 10.5578 8.44478 12.7755 10.5537 14.8866C12.6612 16.9961 14.8798 18.1072 16.1825 16.8038ZM18.6767 12.7707L18.8767 10.7707H16.8767L16.6767 12.7707H14.6767L14.8767 10.7707H12.6767L12.8767 8.77074H15.0767L15.2767 6.77074H13.6767L13.8767 4.77074H15.4767L15.6767 2.77074H17.6767L17.4767 4.77074H19.4767L19.6767 2.77074H21.6767L21.4767 4.77074H23.6767L23.4767 6.77074H21.2767L21.0767 8.77074H22.6767L22.4767 10.7707H20.8767L20.6767 12.7707H18.6767ZM19.2767 6.77074H17.2767L17.0767 8.77074H19.0767L19.2767 6.77074Z" fill="#454545"/>
</svg>
