<svg width="26" height="26" viewBox="0 0 26 26" fill="none" xmlns="http://www.w3.org/2000/svg">
<circle cx="13" cy="13" r="12.5" fill="white" stroke="#737373"/>
<path d="M16.174 12.5575C15.84 12.2225 15.4045 11.9365 14.8735 11.7015C14.594 11.5815 14.023 11.4135 13.1615 11.1975V6.2635C13.7165 6.3775 14.159 6.6135 14.4785 6.9715C14.797 7.33 15.007 7.846 15.109 8.517L16.876 8.249C16.726 7.166 16.275 6.3135 15.5285 5.692C14.945 5.2035 14.1565 4.912 13.162 4.817V4H12.1525V4.817C11.018 4.9325 10.1615 5.2425 9.585 5.7485C8.724 6.503 8.2935 7.4885 8.2935 8.7065C8.2935 9.3895 8.442 10.003 8.736 10.5415C9.0325 11.0805 9.4505 11.5025 9.9955 11.805C10.732 12.2175 11.4515 12.4895 12.1525 12.6225V18.0695C11.481 17.9995 10.9045 17.6625 10.4235 17.053C10.0885 16.6245 9.8545 15.9475 9.719 15.0285L8 15.352C8.0625 16.2395 8.288 16.99 8.679 17.6055C9.07 18.221 9.5315 18.6665 10.0665 18.942C10.6035 19.2165 11.297 19.408 12.1525 19.517V21.229H13.162V19.497C14.3595 19.442 15.335 19.016 16.09 18.224C16.844 17.431 17.221 16.4435 17.221 15.258C17.221 14.719 17.13 14.219 16.9515 13.754C16.77 13.2915 16.511 12.894 16.174 12.5575ZM12.1525 10.978C11.3725 10.745 10.8205 10.43 10.494 10.037C10.1685 9.645 10.0045 9.157 10.0045 8.5745C10.0045 7.9855 10.1945 7.475 10.5795 7.0425C10.9635 6.612 11.486 6.3455 12.151 6.2445V10.978H12.1525V10.978ZM14.813 17.206C14.378 17.701 13.8285 17.989 13.162 18.0705V12.861C14.081 13.1595 14.6945 13.4965 15.0015 13.873C15.308 14.2505 15.462 14.749 15.462 15.371C15.462 16.1005 15.245 16.712 14.813 17.206Z" fill="#737373"/>
</svg>
