<svg width="24" height="24" viewBox="0 0 24 24" fill="none" xmlns="http://www.w3.org/2000/svg">
<path d="M20 24H4C1.7945 24 0 22.206 0 20V4C0 1.7945 1.7945 0 4 0H20C22.2055 0 24 1.7945 24 4V20C24 22.206 22.2055 24 20 24Z" fill="black"/>
<path fill-rule="evenodd" clip-rule="evenodd" d="M19.7785 7.403C19.2415 7.6355 18.657 7.796 18.0395 7.876C18.6725 7.4995 19.153 6.922 19.378 6.217C18.793 6.5615 18.136 6.81 17.4465 6.946C16.9005 6.361 16.108 6 15.2265 6C13.559 6 12.1965 7.3385 12.1965 8.9815C12.1965 9.222 12.237 9.4465 12.285 9.663C9.7605 9.543 7.524 8.3565 6.033 6.545C5.7765 6.9935 5.6165 7.499 5.6165 8.044C5.6165 9.086 6.1615 10 6.9625 10.529C6.466 10.521 6.001 10.3845 5.5925 10.16C5.5925 10.1765 5.5925 10.184 5.5925 10.2005C5.5925 10.585 5.665 10.938 5.8005 11.2745C6.1695 12.2125 7.011 12.9175 8.0295 13.1185C7.7645 13.1905 7.5085 13.2305 7.228 13.2305C7.0355 13.2305 6.843 13.2065 6.6585 13.1665C7.0515 14.353 8.1655 15.2185 9.4885 15.2505C8.4465 16.0525 7.148 16.525 5.729 16.525C5.4805 16.525 5.2485 16.5085 5 16.485C6.3465 17.327 7.941 17.8235 9.6485 17.8235C14.3855 17.8235 17.311 14.545 18.0725 11.1385C18.209 10.5295 18.2725 9.9285 18.2725 9.3355C18.2725 9.207 18.2725 9.071 18.2725 8.9505C18.857 8.5255 19.3785 7.9965 19.7785 7.403Z" fill="white"/>
</svg>
