<svg width="25" height="25" viewBox="0 0 25 25" fill="none" xmlns="http://www.w3.org/2000/svg">
<path fill-rule="evenodd" clip-rule="evenodd" d="M20.5234 13.4336H15.5234C14.4189 13.4336 13.5234 14.329 13.5234 15.4336V20.4336C13.5234 21.5382 14.4189 22.4336 15.5234 22.4336H20.5234C21.628 22.4336 22.5234 21.5382 22.5234 20.4336V15.4336C22.5234 14.329 21.628 13.4336 20.5234 13.4336ZM15.5234 20.4336V15.4336H20.5234V20.4336H15.5234ZM11.5234 4.43359V20.4336C11.5234 21.5382 10.628 22.4336 9.52344 22.4336H4.52344C3.41887 22.4336 2.52344 21.5382 2.52344 20.4336V4.43359C2.52344 3.32902 3.41887 2.43359 4.52344 2.43359H9.52344C10.628 2.43359 11.5234 3.32902 11.5234 4.43359ZM9.52344 4.43359H4.52344V20.4336H9.52344V4.43359ZM20.5234 2.43359H15.5234C14.4189 2.43359 13.5234 3.32902 13.5234 4.43359V9.43359C13.5234 10.5382 14.4189 11.4336 15.5234 11.4336H20.5234C21.628 11.4336 22.5234 10.5382 22.5234 9.43359V4.43359C22.5234 3.32902 21.628 2.43359 20.5234 2.43359ZM15.5234 9.43359V4.43359H20.5234V9.43359H15.5234Z" fill="#737373"/>
</svg>
