<svg width="24" height="24" viewBox="0 0 24 24" fill="none" xmlns="http://www.w3.org/2000/svg">
<g clip-path="url(#clip0)">
<path d="M19.1096 1.7832H8.09961V6.34894H21.461V4.13373C21.461 2.83752 20.4061 1.7832 19.1096 1.7832Z" fill="#CCF4FF"/>
<path d="M12.8773 7.05157H0V2.81506C0 1.2627 1.26324 0 2.81616 0H6.93347C7.34271 0 7.73694 0.0862427 8.09509 0.248291C8.59534 0.473694 9.02509 0.845215 9.32648 1.33063L12.8773 7.05157Z" fill="#3185FF"/>
<path d="M24 8.00049V21.647C24 22.9448 22.9435 24.0004 21.6451 24.0004H2.35492C1.05652 24.0004 0 22.9448 0 21.647V5.64648H21.6451C22.9435 5.64648 24 6.70245 24 8.00049Z" fill="#3185FF"/>
<path d="M18.3131 14.8229C18.3131 18.3043 15.481 21.1365 12 21.1365C8.51898 21.1365 5.68689 18.3043 5.68689 14.8229C5.68689 11.342 8.51898 8.50977 12 8.50977C15.481 8.50977 18.3131 11.342 18.3131 14.8229Z" fill="white"/>
<path d="M14.0348 14.9005C13.9031 15.012 13.7418 15.0663 13.582 15.0663C13.3818 15.0663 13.183 14.9816 13.0438 14.8164L12.7031 14.4125V17.0571C12.7031 17.4453 12.3881 17.7602 11.9999 17.7602C11.6117 17.7602 11.2968 17.4453 11.2968 17.0571V14.4125L10.956 14.8164C10.7052 15.1132 10.2619 15.1511 9.96508 14.9005C9.66845 14.6501 9.63037 14.2067 9.88067 13.9099L11.2725 12.2599C11.4539 12.0453 11.7187 11.9219 11.9999 11.9219C12.2812 11.9219 12.546 12.0453 12.7274 12.2599L14.1192 13.9099C14.3695 14.2067 14.3314 14.6501 14.0348 14.9005Z" fill="#3185FF"/>
</g>
<defs>
<clipPath id="clip0">
<rect width="24" height="24" fill="white"/>
</clipPath>
</defs>
</svg>
