<svg width="25" height="25" viewBox="0 0 25 25" fill="none" xmlns="http://www.w3.org/2000/svg">
<path fill-rule="evenodd" clip-rule="evenodd" d="M12.8955 23.7942C6.82038 23.7942 1.89551 18.8693 1.89551 12.7942C1.89551 6.71906 6.82038 1.79419 12.8955 1.79419C18.9706 1.79419 23.8955 6.71906 23.8955 12.7942C23.8955 18.8693 18.9706 23.7942 12.8955 23.7942ZM20.295 17.9188C21.3041 16.4645 21.8955 14.6984 21.8955 12.7942C21.8955 7.82363 17.8661 3.79419 12.8955 3.79419C7.92494 3.79419 3.89551 7.82363 3.89551 12.7942C3.89551 14.6984 4.48689 16.4645 5.49601 17.9188C6.62146 16.4323 9.26611 15.7942 12.8955 15.7942C16.5249 15.7942 19.1696 16.4323 20.295 17.9188ZM18.8602 19.534C18.5675 18.4815 16.4649 17.7942 12.8955 17.7942C9.32613 17.7942 7.22351 18.4815 6.93083 19.534C8.51881 20.9404 10.6074 21.7942 12.8955 21.7942C15.1836 21.7942 17.2722 20.9404 18.8602 19.534ZM12.8955 15.7942C10.6564 15.7942 8.89551 14.2216 8.89551 10.7942C8.89551 8.54995 10.4746 6.79419 12.8955 6.79419C15.3097 6.79419 16.8955 8.71577 16.8955 10.9942C16.8955 14.2738 15.1136 15.7942 12.8955 15.7942ZM10.8955 10.7942C10.8955 13.0634 11.7137 13.7942 12.8955 13.7942C14.0732 13.7942 14.8955 13.0926 14.8955 10.9942C14.8955 9.74461 14.1112 8.79419 12.8955 8.79419C11.6292 8.79419 10.8955 9.61001 10.8955 10.7942Z" fill="#454545"/>
</svg>
