<svg width="24" height="24" viewBox="0 0 24 24" fill="none" xmlns="http://www.w3.org/2000/svg">
<path d="M9.65519 8.85081C7.29069 8.85081 5.36719 6.95181 5.36719 4.61731C5.36719 2.28231 7.29069 0.382812 9.65519 0.382812C12.0187 0.382812 13.9417 2.28231 13.9417 4.61731C13.9417 6.95181 12.0187 8.85081 9.65519 8.85081ZM9.65519 1.38281C7.84219 1.38281 6.36719 2.83381 6.36719 4.61731C6.36719 6.40031 7.84219 7.85081 9.65519 7.85081C11.4672 7.85081 12.9417 6.40031 12.9417 4.61731C12.9417 2.83381 11.4672 1.38281 9.65519 1.38281Z" fill="black"/>
<path d="M10.8015 19.6902H0.5C0.224 19.6902 0 19.4667 0 19.1902C0 13.9352 4.331 9.66016 9.6545 9.66016C11.263 9.66016 12.861 10.0652 14.276 10.8312C14.5185 10.9627 14.609 11.2662 14.477 11.5087C14.3455 11.7517 14.0415 11.8422 13.7995 11.7102C12.5305 11.0232 11.0975 10.6597 9.6545 10.6597C5.0525 10.6597 1.2785 14.2182 1.0145 18.6897H10.8015C11.0775 18.6897 11.3015 18.9132 11.3015 19.1897C11.3015 19.4662 11.0775 19.6902 10.8015 19.6902Z" fill="black"/>
<path d="M20.6559 22.4701C19.7634 22.9411 18.8514 23.1196 17.7624 23.1196C15.0954 23.1196 12.8379 21.1701 12.8379 18.0481C12.8379 14.7006 15.1614 11.8086 18.7704 11.8086C21.5969 11.8086 23.4994 13.7906 23.4994 16.5036C23.4994 18.9431 22.1349 20.3721 20.6079 20.3721C19.9574 20.3721 19.3539 19.9336 19.4039 18.9431H19.3384C18.7704 19.9001 18.0224 20.3721 17.0474 20.3721C16.1039 20.3721 15.2914 19.6106 15.2914 18.3261C15.2914 16.3091 16.8834 14.4751 19.1424 14.4751C19.8419 14.4751 20.4604 14.6181 20.8819 14.8136L20.3299 17.7556C20.0854 18.9916 20.2809 19.5581 20.8154 19.5756C21.6464 19.5941 22.5724 18.4866 22.5724 16.6036C22.5724 14.2461 21.1574 12.5551 18.6389 12.5551C15.9894 12.5551 13.7639 14.6536 13.7639 17.9516C13.7639 20.6671 15.5359 22.3401 17.9399 22.3401C18.8669 22.3401 19.7294 22.1451 20.3939 21.7701L20.6559 22.4701ZM19.7619 15.4486C19.5984 15.3991 19.3224 15.3356 18.9474 15.3356C17.5184 15.3356 16.3624 16.6836 16.3624 18.2621C16.3624 18.9771 16.7219 19.4971 17.4354 19.4971C18.3789 19.4971 19.2409 18.2931 19.4189 17.2846L19.7619 15.4486Z" fill="black"/>
</svg>
