<svg width="23" height="23" viewBox="0 0 23 23" fill="none" xmlns="http://www.w3.org/2000/svg">
<path fill-rule="evenodd" clip-rule="evenodd" d="M0.589844 11.1504C0.589844 17.2255 5.51471 22.1504 11.5898 22.1504C17.665 22.1504 22.5898 17.2255 22.5898 11.1504C22.5898 5.07526 17.665 0.150391 11.5898 0.150391C5.51471 0.150391 0.589844 5.07526 0.589844 11.1504ZM20.5898 11.1504C20.5898 13.0546 19.9985 14.8207 18.9893 16.275C17.8639 14.7885 15.2192 14.1504 11.5898 14.1504C13.8079 14.1504 15.5898 12.63 15.5898 9.35039C15.5898 7.07197 14.004 5.15039 11.5898 5.15039C9.16894 5.15039 7.58984 6.90615 7.58984 9.15039C7.58984 12.5778 9.35071 14.1504 11.5898 14.1504C7.96045 14.1504 5.3158 14.7885 4.19035 16.275C3.18123 14.8207 2.58984 13.0546 2.58984 11.1504C2.58984 6.17983 6.61928 2.15039 11.5898 2.15039C16.5604 2.15039 20.5898 6.17983 20.5898 11.1504Z" fill="white"/>
</svg>
