<svg width="25" height="25" viewBox="0 0 25 25" fill="none" xmlns="http://www.w3.org/2000/svg">
<path fill-rule="evenodd" clip-rule="evenodd" d="M12.8955 23.2942C6.82038 23.2942 1.89551 18.3693 1.89551 12.2942C1.89551 6.21906 6.82038 1.29419 12.8955 1.29419C18.9706 1.29419 23.8955 6.21906 23.8955 12.2942C23.8955 18.3693 18.9706 23.2942 12.8955 23.2942ZM20.295 17.4188C21.3041 15.9645 21.8955 14.1984 21.8955 12.2942C21.8955 7.32363 17.8661 3.29419 12.8955 3.29419C7.92494 3.29419 3.89551 7.32363 3.89551 12.2942C3.89551 14.1984 4.48689 15.9645 5.49601 17.4188C6.62146 15.9323 9.26611 15.2942 12.8955 15.2942C16.5249 15.2942 19.1696 15.9323 20.295 17.4188ZM12.8955 15.2942C10.6564 15.2942 8.89551 13.7216 8.89551 10.2942C8.89551 8.04995 10.4746 6.29419 12.8955 6.29419C15.3097 6.29419 16.8955 8.21577 16.8955 10.4942C16.8955 13.7738 15.1136 15.2942 12.8955 15.2942Z" fill="#454545"/>
</svg>
