<svg width="24" height="24" viewBox="0 0 24 24" fill="none" xmlns="http://www.w3.org/2000/svg">
<path d="M17.788 22.8661H1C0.4485 22.8661 0 22.4176 0 21.8661V10.0781C0 9.52663 0.4485 9.07812 1 9.07812H17.788C18.3395 9.07812 18.788 9.52663 18.788 10.0781V21.8661C18.788 22.4176 18.3395 22.8661 17.788 22.8661ZM17.788 21.8661V22.3661V21.8661ZM1 10.0781V21.8661H17.7865L17.788 10.0781H1Z" fill="#737373"/>
<path d="M23.4995 21.9159C23.418 21.9159 23.336 21.8959 23.2615 21.8559L18.567 19.3209C18.3245 19.1894 18.2335 18.8864 18.365 18.6434C18.496 18.4014 18.799 18.3094 19.0425 18.4414L22.9995 20.5774V11.3879L19.0525 13.6374C18.813 13.7734 18.507 13.6894 18.3705 13.4504C18.234 13.2109 18.318 12.9049 18.5575 12.7684L23.252 10.0929C23.407 10.0049 23.5965 10.0054 23.7505 10.0949C23.905 10.1849 23.9995 10.3494 23.9995 10.5274V21.4159C23.9995 21.5924 23.9065 21.7554 23.756 21.8449C23.6765 21.8924 23.5885 21.9159 23.4995 21.9159Z" fill="#737373"/>
<path d="M14.1543 19.6016H4.63281C4.35681 19.6016 4.13281 19.3781 4.13281 19.1016C4.13281 18.8251 4.35681 18.6016 4.63281 18.6016H14.1538C14.4303 18.6016 14.6538 18.8251 14.6538 19.1016C14.6538 19.3781 14.4303 19.6016 14.1543 19.6016Z" fill="#737373"/>
<path d="M5.9977 8.43681C3.9842 8.43681 2.3457 6.79881 2.3457 4.78481C2.3457 2.77081 3.9842 1.13281 5.9977 1.13281C8.0112 1.13281 9.6497 2.77131 9.6497 4.78481C9.6497 6.79831 8.0112 8.43681 5.9977 8.43681ZM5.9977 2.13281C4.5352 2.13281 3.3457 3.32231 3.3457 4.78481C3.3457 6.24681 4.5352 7.43681 5.9977 7.43681C7.4597 7.43681 8.6497 6.24731 8.6497 4.78481C8.6497 3.32231 7.4597 2.13281 5.9977 2.13281Z" fill="#737373"/>
<path d="M14.1558 7.86619C12.6053 7.86619 11.3438 6.60469 11.3438 5.05419C11.3438 3.50369 12.6053 2.24219 14.1558 2.24219C15.7068 2.24219 16.9683 3.50369 16.9683 5.05419C16.9683 6.60469 15.7063 7.86619 14.1558 7.86619ZM14.1558 3.24219C13.1568 3.24219 12.3442 4.05519 12.3442 5.05419C12.3442 6.05319 13.1568 6.86619 14.1558 6.86619C15.1553 6.86619 15.9683 6.05369 15.9683 5.05419C15.9683 4.05469 15.1553 3.24219 14.1558 3.24219Z" fill="#737373"/>
</svg>
