<svg width="25" height="25" viewBox="0 0 25 25" fill="none" xmlns="http://www.w3.org/2000/svg">
<path fill-rule="evenodd" clip-rule="evenodd" d="M16.1273 2.17341C17.1894 1.86997 18.2964 2.48495 18.5998 3.54702C18.6509 3.7257 18.6768 3.91063 18.6768 4.09646V5.77073H20.6768C21.7813 5.77073 22.6768 6.66616 22.6768 7.77073V19.7707C22.6768 20.8753 21.7813 21.7707 20.6768 21.7707H4.67676C3.57219 21.7707 2.67676 20.8753 2.67676 19.7707H2.70346C2.68571 19.6632 2.67676 19.5543 2.67676 19.445V7.52503C2.67676 6.63207 3.26871 5.8473 4.12732 5.60199L16.1273 2.17341ZM10.8168 19.7707H20.6768V11.7707H18.6768V16.0164C18.6768 16.9094 18.0848 17.6942 17.2262 17.9395L10.8168 19.7707ZM20.6768 7.77073V9.77073H18.6768V7.77073H20.6768ZM4.67676 7.52501V19.445L16.6768 16.0164V4.09644L4.67676 7.52501ZM14.6768 9.77073C14.6768 10.323 14.229 10.7707 13.6768 10.7707C13.1245 10.7707 12.6768 10.323 12.6768 9.77073C12.6768 9.21845 13.1245 8.77073 13.6768 8.77073C14.229 8.77073 14.6768 9.21845 14.6768 9.77073Z" fill="#454545"/>
</svg>
