<svg width="21" height="20" viewBox="0 0 21 20" fill="none" xmlns="http://www.w3.org/2000/svg">
<path fill-rule="evenodd" clip-rule="evenodd" d="M2.60352 5.00016C2.60352 5.92064 3.34971 6.66683 4.27018 6.66683C5.19066 6.66683 5.93685 5.92064 5.93685 5.00016C5.93685 4.07969 5.19066 3.3335 4.27018 3.3335C3.34971 3.3335 2.60352 4.07969 2.60352 5.00016ZM19.2702 4.16683V5.8335H7.60352V4.16683H19.2702ZM19.2702 10.8335V9.16683H7.60352V10.8335H19.2702ZM7.60352 15.8335H19.2702V14.1668H7.60352V15.8335ZM2.60352 15.0002C2.60352 15.9206 3.34971 16.6668 4.27018 16.6668C5.19066 16.6668 5.93685 15.9206 5.93685 15.0002C5.93685 14.0797 5.19066 13.3335 4.27018 13.3335C3.34971 13.3335 2.60352 14.0797 2.60352 15.0002ZM4.27018 11.6668C3.34971 11.6668 2.60352 10.9206 2.60352 10.0002C2.60352 9.07969 3.34971 8.3335 4.27018 8.3335C5.19066 8.3335 5.93685 9.07969 5.93685 10.0002C5.93685 10.9206 5.19066 11.6668 4.27018 11.6668Z" fill="#737373"/>
</svg>
