<svg width="25" height="24" viewBox="0 0 25 24" fill="none" xmlns="http://www.w3.org/2000/svg">
<path fill-rule="evenodd" clip-rule="evenodd" d="M2.93652 6C2.93652 7.10457 3.83195 8 4.93652 8C6.04109 8 6.93652 7.10457 6.93652 6C6.93652 4.89543 6.04109 4 4.93652 4C3.83195 4 2.93652 4.89543 2.93652 6ZM22.9365 5.00003V7.00003H8.93652V5.00003H22.9365ZM22.9365 13V11H8.93652V13H22.9365ZM22.9365 19V17H8.93652V19H22.9365ZM2.93652 18C2.93652 19.1046 3.83195 20 4.93652 20C6.04109 20 6.93652 19.1046 6.93652 18C6.93652 16.8954 6.04109 16 4.93652 16C3.83195 16 2.93652 16.8954 2.93652 18ZM4.93652 14C3.83195 14 2.93652 13.1046 2.93652 12C2.93652 10.8954 3.83195 10 4.93652 10C6.04109 10 6.93652 10.8954 6.93652 12C6.93652 13.1046 6.04109 14 4.93652 14Z" fill="white"/>
</svg>
