<svg width="24" height="25" viewBox="0 0 24 25" fill="none" xmlns="http://www.w3.org/2000/svg">
<path fill-rule="evenodd" clip-rule="evenodd" d="M2 6.53906C2 7.64363 2.89543 8.53906 4 8.53906C5.10457 8.53906 6 7.64363 6 6.53906C6 5.43449 5.10457 4.53906 4 4.53906C2.89543 4.53906 2 5.43449 2 6.53906ZM8 5.53906H22V7.53906H8V5.53906ZM22 11.5391H8V13.5391H22V11.5391ZM8 19.5391H22V17.5391H8V19.5391ZM2 18.5391C2 19.6436 2.89543 20.5391 4 20.5391C5.10457 20.5391 6 19.6436 6 18.5391C6 17.4345 5.10457 16.5391 4 16.5391C2.89543 16.5391 2 17.4345 2 18.5391ZM4 14.5391C2.89543 14.5391 2 13.6436 2 12.5391C2 11.4345 2.89543 10.5391 4 10.5391C5.10457 10.5391 6 11.4345 6 12.5391C6 13.6436 5.10457 14.5391 4 14.5391Z" fill="black"/>
</svg>
