<svg width="25" height="25" viewBox="0 0 25 25" fill="none" xmlns="http://www.w3.org/2000/svg">
<path fill-rule="evenodd" clip-rule="evenodd" d="M22.8997 18.6711C23.583 17.5001 23.875 15.6118 23.875 12.5402C23.875 9.48075 23.5858 7.60345 22.8952 6.401C22.2031 5.15233 21.3823 4.756 19.7533 4.66087C18.6412 4.58549 15.8773 4.54297 12.8777 4.54297C9.87161 4.54297 7.10644 4.58548 5.986 4.66146C4.36612 4.75623 3.54511 5.15343 2.84693 6.40557C2.16638 7.60387 1.875 9.49034 1.875 12.5514C1.875 15.595 2.16779 17.491 2.85291 18.6853C3.54201 19.9213 4.34993 20.3138 5.9836 20.4285C7.15776 20.4972 10.0794 20.543 12.8777 20.543C15.6696 20.543 18.5899 20.4972 19.7533 20.4293C21.402 20.3138 22.2098 19.9207 22.8997 18.6711ZM19.6275 6.65695C20.6464 6.7165 20.8354 6.80808 21.1584 7.39267C21.6286 8.20703 21.8751 9.80075 21.8751 12.5514C21.8751 15.2813 21.6273 16.8838 21.1606 17.684C20.8365 18.2704 20.6488 18.3617 19.6252 18.4335C18.524 18.4977 15.6321 18.543 12.8777 18.543C10.1172 18.543 7.22381 18.4977 6.1121 18.4327C5.10107 18.3617 4.91072 18.2692 4.5938 17.7008C4.12393 16.8816 3.87506 15.2701 3.87506 12.5402C3.87506 9.81202 4.1226 8.20942 4.58996 7.38646C4.91181 6.8093 5.10351 6.71656 6.11216 6.65753C7.18014 6.58514 9.91931 6.54303 12.8777 6.54303C15.8298 6.54303 18.5677 6.58516 19.6275 6.65695ZM10.875 9.54303L15.875 12.543L10.875 15.543V9.54303Z" fill="#A1A1A1"/>
</svg>
