<svg width="24" height="24" viewBox="0 0 24 24" fill="none" xmlns="http://www.w3.org/2000/svg">
<g clip-path="url(#clip0)">
<path d="M3.429 15.4295C1.5385 15.4295 0 13.891 0 12.0005C0 10.11 1.5385 8.57147 3.429 8.57147C5.3195 8.57147 6.858 10.11 6.858 12.0005C6.858 13.891 5.3195 15.4295 3.429 15.4295ZM3.429 9.57147C2.0895 9.57147 1 10.661 1 12.0005C1 13.34 2.0895 14.4295 3.429 14.4295C4.7685 14.4295 5.858 13.3395 5.858 12.0005C5.858 10.6615 4.7685 9.57147 3.429 9.57147Z" fill="white"/>
<path d="M12.0003 15.429C10.1098 15.429 8.57178 13.891 8.57178 12.001C8.57178 10.1105 10.1098 8.57247 12.0003 8.57247C13.8903 8.57247 15.4283 10.1105 15.4283 12.001C15.4283 13.891 13.8903 15.429 12.0003 15.429ZM12.0003 9.57247C10.6613 9.57247 9.57178 10.662 9.57178 12.001C9.57178 13.34 10.6613 14.429 12.0003 14.429C13.3393 14.429 14.4283 13.3395 14.4283 12.001C14.4283 10.662 13.3393 9.57247 12.0003 9.57247Z" fill="white"/>
<path d="M20.5725 15.4295C18.6825 15.4295 17.1445 13.8915 17.1445 12.0015C17.1445 10.1115 18.6825 8.57347 20.5725 8.57347C22.4625 8.57347 24 10.1115 24 12.0015C24 13.8915 22.4625 15.4295 20.5725 15.4295ZM20.5725 9.57347C19.2335 9.57347 18.1445 10.6625 18.1445 12.0015C18.1445 13.3405 19.234 14.4295 20.5725 14.4295C21.911 14.4295 23 13.3405 23 12.0015C23 10.6625 21.911 9.57347 20.5725 9.57347Z" fill="white"/>
</g>
<defs>
<clipPath id="clip0">
<rect width="24" height="24" fill="white"/>
</clipPath>
</defs>
</svg>
