<?xml version="1.0" encoding="utf-8"?>
<!-- Generator: Adobe Illustrator 16.0.0, SVG Export Plug-In . SVG Version: 6.00 Build 0)  -->
<!DOCTYPE svg PUBLIC "-//W3C//DTD SVG 1.1//EN" "http://www.w3.org/Graphics/SVG/1.1/DTD/svg11.dtd">
<svg version="1.1" id="Layer_1" xmlns="http://www.w3.org/2000/svg" xmlns:xlink="http://www.w3.org/1999/xlink" x="0px" y="0px"
	 width="48px" height="48px" viewBox="0 0 48 48" enable-background="new 0 0 48 48" xml:space="preserve">
<g>
	<path d="M6.858,30.859C3.077,30.859,0,27.782,0,24.001s3.077-6.858,6.858-6.858s6.858,3.077,6.858,6.858
		S10.639,30.859,6.858,30.859z M6.858,19.143C4.179,19.143,2,21.322,2,24.001s2.179,4.858,4.858,4.858s4.858-2.18,4.858-4.858
		S9.537,19.143,6.858,19.143z"/>
	<path d="M24.001,30.857c-3.781,0-6.857-3.076-6.857-6.856c0-3.781,3.076-6.857,6.857-6.857c3.78,0,6.856,3.076,6.856,6.857
		C30.857,27.781,27.781,30.857,24.001,30.857z M24.001,19.144c-2.678,0-4.857,2.179-4.857,4.857c0,2.678,2.179,4.856,4.857,4.856
		c2.678,0,4.856-2.179,4.856-4.856C28.857,21.323,26.679,19.144,24.001,19.144z"/>
	<path d="M41.145,30.857c-3.78,0-6.856-3.076-6.856-6.856s3.076-6.856,6.856-6.856S48,20.221,48,24.001S44.925,30.857,41.145,30.857
		z M41.145,19.145c-2.678,0-4.856,2.178-4.856,4.856s2.179,4.856,4.856,4.856S46,26.679,46,24.001S43.822,19.145,41.145,19.145z"/>
</g>
</svg>
