<?xml version="1.0" encoding="utf-8"?>
<!-- Generator: Adobe Illustrator 16.0.0, SVG Export Plug-In . SVG Version: 6.00 Build 0)  -->
<!DOCTYPE svg PUBLIC "-//W3C//DTD SVG 1.1//EN" "http://www.w3.org/Graphics/SVG/1.1/DTD/svg11.dtd">
<svg version="1.1" id="Layer_1" xmlns="http://www.w3.org/2000/svg" xmlns:xlink="http://www.w3.org/1999/xlink" x="0px" y="0px"
	 width="48px" height="48px" viewBox="0 0 48 48" enable-background="new 0 0 48 48" xml:space="preserve">
<g>
	<path d="M3.238,24.999c-0.552,0-1-0.447-1-1c0-0.552,0.448-1,1-1L47,22.998c0.553,0,1,0.448,1,1c0,0.553-0.447,1-1,1L3.238,24.999z
		"/>
	<path d="M12.288,35.982c-0.311,0-0.607-0.146-0.796-0.394c-0.558-0.61-6.964-6.853-11.188-10.953C0.109,24.447,0,24.188,0,23.917
		s0.111-0.53,0.306-0.718l11.296-10.902c0.397-0.382,1.031-0.373,1.414,0.025c0.383,0.397,0.372,1.03-0.025,1.414L2.438,23.92
		C13.095,34.266,13.127,34.357,13.23,34.647c0.186,0.52-0.086,1.092-0.606,1.277C12.513,35.964,12.399,35.982,12.288,35.982z"/>
</g>
</svg>
