<?xml version="1.0" encoding="utf-8"?>
<!-- Generator: Adobe Illustrator 16.0.0, SVG Export Plug-In . SVG Version: 6.00 Build 0)  -->
<!DOCTYPE svg PUBLIC "-//W3C//DTD SVG 1.1//EN" "http://www.w3.org/Graphics/SVG/1.1/DTD/svg11.dtd">
<svg version="1.1" id="Layer_1" xmlns="http://www.w3.org/2000/svg" xmlns:xlink="http://www.w3.org/1999/xlink" x="0px" y="0px"
	 width="48px" height="48px" viewBox="0 0 48 48" enable-background="new 0 0 48 48" xml:space="preserve">
<g>
	<path d="M12.139,48c-0.105,0-0.212-0.017-0.318-0.052c-0.523-0.176-0.805-0.743-0.63-1.267c0.1-0.298,0.194-0.578,23.256-22.845
		L11.419,1.721c-0.398-0.382-0.411-1.016-0.028-1.414c0.383-0.398,1.015-0.411,1.414-0.028l23.776,22.835
		c0.196,0.188,0.308,0.448,0.308,0.72c0,0.272-0.11,0.532-0.306,0.721c-9.052,8.737-22.724,21.993-23.624,23.019
		C12.772,47.841,12.464,48,12.139,48z"/>
</g>
</svg>
