<?xml version="1.0" encoding="utf-8"?>
<!-- Generator: Adobe Illustrator 16.0.0, SVG Export Plug-In . SVG Version: 6.00 Build 0)  -->
<!DOCTYPE svg PUBLIC "-//W3C//DTD SVG 1.1//EN" "http://www.w3.org/Graphics/SVG/1.1/DTD/svg11.dtd">
<svg version="1.1" id="Layer_1" xmlns="http://www.w3.org/2000/svg" xmlns:xlink="http://www.w3.org/1999/xlink" x="0px" y="0px"
	 width="48px" height="48px" viewBox="0 0 48 48" enable-background="new 0 0 48 48" xml:space="preserve">
<g>
	<path d="M35.891,48c-0.249,0-0.499-0.093-0.692-0.278L11.417,24.883c-0.196-0.188-0.307-0.449-0.307-0.72
		c0-0.272,0.11-0.532,0.306-0.721c9.057-8.744,22.737-22.005,23.628-23.019c0.251-0.355,0.719-0.518,1.146-0.368
		c0.522,0.181,0.798,0.751,0.616,1.273c-0.102,0.292-0.196,0.566-23.254,22.831l23.031,22.119c0.398,0.383,0.411,1.016,0.029,1.414
		C36.416,47.897,36.153,48,35.891,48z"/>
</g>
</svg>
