<?xml version="1.0" encoding="utf-8"?>
<!-- Generator: Adobe Illustrator 16.0.0, SVG Export Plug-In . SVG Version: 6.00 Build 0)  -->
<!DOCTYPE svg PUBLIC "-//W3C//DTD SVG 1.1//EN" "http://www.w3.org/Graphics/SVG/1.1/DTD/svg11.dtd">
<svg version="1.1" id="Layer_1" xmlns="http://www.w3.org/2000/svg" xmlns:xlink="http://www.w3.org/1999/xlink" x="0px" y="0px"
	 width="48px" height="48px" viewBox="0 0 48 48" enable-background="new 0 0 48 48" xml:space="preserve">
<g>
	<g>
		<g>
			<path d="M19.315,20.186c-0.256,0-0.512-0.098-0.707-0.293L2.048,3.33c-0.391-0.391-0.391-1.024,0-1.414
				c0.391-0.391,1.023-0.391,1.414,0l16.56,16.563c0.391,0.391,0.391,1.024,0,1.414C19.827,20.088,19.571,20.186,19.315,20.186z"/>
			<path d="M1.291,18.749c-0.544,0-0.99-0.437-1-0.982L0,1.018c-0.004-0.271,0.101-0.532,0.292-0.724C0.483,0.102,0.758,0,1.015,0
				c6.287,0.095,15.837,0.219,16.714,0.178c0.406-0.063,0.831,0.143,1.031,0.533c0.253,0.491,0.06,1.094-0.432,1.347
				c-0.292,0.149-0.384,0.197-16.311-0.042l0.273,15.716c0.009,0.552-0.431,1.008-0.982,1.018
				C1.302,18.749,1.296,18.749,1.291,18.749z"/>
		</g>
		<g>
			<path d="M45.251,46.371c-0.256,0-0.512-0.098-0.707-0.293L27.982,29.523c-0.391-0.391-0.391-1.023,0-1.414s1.023-0.391,1.414,0
				l16.562,16.555c0.391,0.391,0.391,1.023,0,1.414C45.763,46.273,45.507,46.371,45.251,46.371z"/>
			<path d="M47,48c-0.005,0-0.01,0-0.016,0c-6.3-0.095-15.87-0.22-16.725-0.183c-0.435,0.055-0.862-0.169-1.048-0.583
				c-0.226-0.504,0.001-1.096,0.505-1.321c0.263-0.116,0.377-0.167,16.266,0.071l-0.277-15.713c-0.01-0.552,0.431-1.008,0.982-1.018
				c0.531,0.019,1.008,0.431,1.018,0.982L48,46.982c0.005,0.271-0.101,0.532-0.292,0.724C47.521,47.895,47.266,48,47,48z"/>
		</g>
	</g>
	<g>
		<g>
			<path d="M28.814,20.312c-0.256,0-0.512-0.098-0.707-0.293c-0.391-0.391-0.391-1.024,0-1.414L44.67,2.047
				c0.391-0.391,1.023-0.391,1.414,0s0.391,1.024,0,1.414L29.521,20.019C29.326,20.214,29.07,20.312,28.814,20.312z"/>
			<path d="M46.832,18.874c-0.374,0-0.731-0.21-0.903-0.569c-0.131-0.275-0.182-0.381,0.056-16.287L30.27,2.296
				c-0.538-0.011-1.008-0.43-1.018-0.982s0.43-1.008,0.982-1.018L46.982,0c0.254-0.013,0.531,0.101,0.724,0.292
				C47.898,0.483,48.004,0.744,48,1.015c-0.095,6.293-0.22,15.852-0.179,16.719c0.06,0.421-0.155,0.849-0.56,1.042
				C47.123,18.843,46.977,18.874,46.832,18.874z"/>
		</g>
		<g>
			<path d="M2.627,46.246c-0.256,0-0.512-0.098-0.707-0.293c-0.391-0.391-0.391-1.023,0-1.414l16.558-16.563
				c0.391-0.391,1.023-0.391,1.414,0s0.391,1.023,0,1.414L3.334,45.953C3.139,46.148,2.883,46.246,2.627,46.246z"/>
			<path d="M1,48c-0.265,0-0.519-0.104-0.706-0.292C0.102,47.517-0.004,47.256,0,46.985c0.094-6.309,0.218-15.883,0.182-16.727
				c-0.056-0.426,0.169-0.855,0.582-1.041c0.505-0.225,1.096-0.002,1.322,0.502c0.121,0.27,0.164,0.363-0.071,16.262l15.711-0.277
				c0.508,0.003,1.008,0.431,1.018,0.982s-0.43,1.008-0.982,1.018L1.018,48C1.012,48,1.006,48,1,48z"/>
		</g>
	</g>
</g>
</svg>
