<svg width="25" height="25" viewBox="0 0 25 25" fill="none" xmlns="http://www.w3.org/2000/svg">
<path d="M17.6352 24.07V20.1193H17.5279C16.4553 21.6601 15.3737 22.78 14.2832 23.4787C13.1927 24.1596 11.843 24.5 10.2341 24.5C7.53464 24.5 5.23743 23.3354 3.34246 21.0062C1.44749 18.6769 0.5 15.846 0.5 12.5134C0.5 9.21669 1.51006 6.39474 3.53017 4.04759C5.55028 1.68253 7.94581 0.5 10.7168 0.5C12.0397 0.5 13.2285 0.795633 14.2832 1.3869C15.338 1.97816 16.4553 2.91881 17.6352 4.20885V1.01064H24.5V24.07H17.6352ZM12.5939 7.38018C11.2352 7.38018 10.1 7.92665 9.18827 9.0196C8.27654 10.0946 7.82067 11.4563 7.82067 13.1047C7.82067 14.6456 8.24972 15.8908 9.10782 16.8404C9.9838 17.7721 11.1279 18.238 12.5402 18.238C13.8989 18.238 15.0609 17.7004 16.0263 16.6254C16.9916 15.5325 17.4743 14.2156 17.4743 12.6747C17.4743 11.2413 16.9916 10.005 16.0263 8.96585C15.0609 7.90873 13.9168 7.38018 12.5939 7.38018Z" fill="black"/>
</svg>
