<?xml version="1.0" encoding="utf-8"?>
<!-- Generator: Adobe Illustrator 16.0.0, SVG Export Plug-In . SVG Version: 6.00 Build 0)  -->
<!DOCTYPE svg PUBLIC "-//W3C//DTD SVG 1.1//EN" "http://www.w3.org/Graphics/SVG/1.1/DTD/svg11.dtd">
<svg version="1.1" id="Layer_1" xmlns="http://www.w3.org/2000/svg" xmlns:xlink="http://www.w3.org/1999/xlink" x="0px" y="0px"
	 width="48px" height="48px" viewBox="0 0 48 48" enable-background="new 0 0 48 48" xml:space="preserve">
<g>
	<g>
		<path d="M23.997,41.137c-0.552,0-1-0.447-1-1V1c0-0.552,0.448-1,1-1c0.553,0,1,0.448,1,1v39.137
			C24.997,40.689,24.55,41.137,23.997,41.137z"/>
		<path d="M23.918,43.291c-0.256,0-0.511-0.098-0.707-0.292L12.307,32.11c-0.391-0.391-0.391-1.023-0.001-1.415
			c0.39-0.392,1.022-0.391,1.414-0.001l10.2,10.186c10.368-10.297,10.464-10.326,10.768-10.421c0.535-0.161,1.089,0.132,1.252,0.658
			c0.131,0.421-0.03,0.862-0.369,1.107c-0.626,0.55-6.857,6.713-10.947,10.775C24.428,43.194,24.173,43.291,23.918,43.291z"/>
	</g>
	<path d="M47,48H1c-0.552,0-1-0.447-1-1s0.448-1,1-1h46c0.553,0,1,0.447,1,1S47.553,48,47,48z"/>
</g>
</svg>
