<?xml version="1.0" encoding="utf-8"?>
<!-- Generator: Adobe Illustrator 16.0.0, SVG Export Plug-In . SVG Version: 6.00 Build 0)  -->
<!DOCTYPE svg PUBLIC "-//W3C//DTD SVG 1.1//EN" "http://www.w3.org/Graphics/SVG/1.1/DTD/svg11.dtd">
<svg version="1.1" id="Layer_1" xmlns="http://www.w3.org/2000/svg" xmlns:xlink="http://www.w3.org/1999/xlink" x="0px" y="0px"
	 width="48px" height="48px" viewBox="0 0 48 48" enable-background="new 0 0 48 48" xml:space="preserve">
<g>
	<path d="M23.5,27.528c0.38,0,0.688,0.309,0.688,0.688v19.095c0,0.38-0.308,0.688-0.688,0.688c-0.381,0-0.688-0.309-0.688-0.688
		V28.217C22.812,27.837,23.119,27.528,23.5,27.528z"/>
	<path d="M23.556,26.045c0.176,0,0.352,0.067,0.487,0.201l7.507,7.498c0.27,0.27,0.27,0.704,0.002,0.974
		c-0.27,0.271-0.704,0.27-0.975,0.002l-7.023-7.015c-7.139,7.09-7.205,7.109-7.414,7.176c-0.369,0.11-0.75-0.091-0.862-0.453
		c-0.09-0.29,0.021-0.594,0.254-0.763c0.43-0.378,4.721-4.622,7.537-7.419C23.204,26.112,23.38,26.045,23.556,26.045z"/>
</g>
<g>
	<path d="M23.5,19.356c-0.38,0-0.688-0.309-0.688-0.688V0.688C22.812,0.309,23.12,0,23.5,0c0.381,0,0.688,0.309,0.688,0.688v17.979
		C24.188,19.048,23.881,19.356,23.5,19.356z"/>
	<path d="M23.444,20.84c-0.176,0-0.352-0.067-0.487-0.201l-7.508-7.498c-0.27-0.27-0.27-0.704-0.002-0.974
		c0.27-0.271,0.705-0.27,0.975-0.002l7.023,7.015c7.139-7.09,7.205-7.109,7.414-7.176c0.369-0.11,0.751,0.091,0.862,0.453
		c0.09,0.29-0.021,0.594-0.254,0.763c-0.431,0.378-4.721,4.622-7.537,7.419C23.796,20.772,23.62,20.84,23.444,20.84z"/>
</g>
<path d="M47,24.688H1c-0.552,0-1-0.447-1-1s0.448-1,1-1h46c0.553,0,1,0.447,1,1S47.553,24.688,47,24.688z"/>
</svg>
