<?xml version="1.0" encoding="utf-8"?>
<!-- Generator: Adobe Illustrator 16.0.0, SVG Export Plug-In . SVG Version: 6.00 Build 0)  -->
<!DOCTYPE svg PUBLIC "-//W3C//DTD SVG 1.1//EN" "http://www.w3.org/Graphics/SVG/1.1/DTD/svg11.dtd">
<svg version="1.1" id="Layer_1" xmlns="http://www.w3.org/2000/svg" xmlns:xlink="http://www.w3.org/1999/xlink" x="0px" y="0px"
	 width="48px" height="48px" viewBox="0 0 48 48" enable-background="new 0 0 48 48" xml:space="preserve">
<g>
	<g>
		<path d="M24,48c-0.552,0-1-0.447-1-1L22.997,7.862c0-0.552,0.448-1,1-1c0.552,0,1,0.448,1,1L25,47C25,47.552,24.553,48,24,48z"/>
		<path d="M34.984,17.595c-0.256,0-0.512-0.098-0.707-0.292l-10.2-10.191C13.72,17.397,13.622,17.433,13.344,17.53
			c-0.521,0.184-1.092-0.092-1.274-0.613c-0.149-0.425,0.006-0.882,0.351-1.136c0.61-0.538,6.853-6.715,10.955-10.79
			c0.391-0.388,1.022-0.386,1.412,0.002l10.905,10.895c0.391,0.391,0.391,1.023,0,1.414C35.496,17.498,35.24,17.595,34.984,17.595z"
			/>
	</g>
	<path d="M47,2H1C0.448,2,0,1.552,0,1s0.448-1,1-1h46c0.553,0,1,0.448,1,1S47.553,2,47,2z"/>
</g>
</svg>
