<svg width="24" height="24" viewBox="0 0 24 24" fill="none" xmlns="http://www.w3.org/2000/svg">
<path d="M22.9078 19.6355C22.9078 19.5485 22.8833 19.4695 22.8473 19.3965C22.6148 17.626 21.6088 16.111 20.1803 15.1765V10.3635C20.1803 6.7995 17.8988 3.776 14.7183 2.6545C14.6793 1.1825 13.4818 0 11.9993 0C10.5188 0 9.31981 1.1825 9.28031 2.655C6.10081 3.7765 3.81781 6.8 3.81781 10.364V15.1765C2.39031 16.111 1.38431 17.6265 1.15181 19.397C1.11581 19.4695 1.09131 19.5485 1.09131 19.6355C1.09131 19.689 1.10681 19.738 1.12181 19.7875C1.11281 19.9205 1.09131 20.0475 1.09131 20.182H1.63631H2.18231H21.8178H22.3638H22.9088C22.9088 20.0465 22.8873 19.9205 22.8788 19.7875C22.8928 19.7385 22.9078 19.6895 22.9078 19.6355ZM2.31381 19.091C2.59331 17.8685 3.34231 16.792 4.41531 16.09L4.90931 15.767V15.1765V10.364C4.90931 7.3675 6.81181 4.683 9.64281 3.684L10.3508 3.4345L10.3703 2.6845C10.3948 1.7915 11.1098 1.091 11.9993 1.091C12.8883 1.091 13.6048 1.791 13.6293 2.6845L13.6488 3.4345L14.3568 3.684C17.1878 4.683 19.0908 7.3675 19.0908 10.364V15.1765V15.767L19.5833 16.09C20.6563 16.792 21.4063 17.8685 21.6858 19.091H2.31381Z" fill="white"/>
<path d="M11.9994 22.909C11.0959 22.909 10.3639 22.1755 10.3639 21.2725H9.27295C9.27295 22.7795 10.4934 24 11.9994 24C13.5069 24 14.7269 22.7795 14.7269 21.2725H13.6354C13.6354 22.176 12.9044 22.909 11.9994 22.909Z" fill="white"/>
</svg>
