<svg width="106" height="31" viewBox="0 0 106 31" fill="none" xmlns="http://www.w3.org/2000/svg">
<rect x="1.0625" y="1.41406" width="104.062" height="29" rx="4.5" fill="white" stroke="#FF2462"/>
<path d="M46.1241 15.5331C46.7867 15.6451 47.2954 15.8971 47.6501 16.2891C48.0047 16.6811 48.3221 17.3064 48.6021 18.1651L49.6241 21.5391H48.2941L47.3001 18.2911C47.1694 17.8617 47.0247 17.5304 46.8661 17.2971C46.7167 17.0637 46.5114 16.8817 46.2501 16.7511C45.9981 16.6204 45.6527 16.5364 45.2141 16.4991L43.2821 18.5431V21.5391H41.9521V11.7391H43.2821V16.9191L48.1121 11.7391H49.7081L46.1241 15.5331ZM53.6983 20.7411C54.0809 20.7411 54.4076 20.6851 54.6783 20.5731C54.9583 20.4611 55.2289 20.2791 55.4903 20.0271L56.2463 20.7131C55.9663 21.0491 55.6163 21.2964 55.1963 21.4551C54.7856 21.6137 54.2769 21.6931 53.6703 21.6931C52.7089 21.6931 51.9809 21.4877 51.4863 21.0771C51.0009 20.6571 50.7583 20.0364 50.7583 19.2151V17.1291C50.7583 16.4104 51.0056 15.8457 51.5003 15.4351C52.0043 15.0151 52.6903 14.8051 53.5583 14.8051C54.4543 14.8051 55.1449 15.0244 55.6303 15.4631C56.1249 15.9017 56.3723 16.5317 56.3723 17.3531C56.3723 17.9037 56.2743 18.2817 56.0783 18.4871C55.8916 18.6924 55.5276 18.7951 54.9863 18.7951H51.9903V19.2291C51.9903 19.7331 52.1303 20.1111 52.4103 20.3631C52.6903 20.6151 53.1196 20.7411 53.6983 20.7411ZM53.5583 15.7571C53.0636 15.7571 52.6763 15.8877 52.3963 16.1491C52.1256 16.4104 51.9903 16.7651 51.9903 17.2131V17.9131H54.3843C54.6736 17.9131 54.8696 17.8664 54.9723 17.7731C55.0843 17.6797 55.1403 17.5024 55.1403 17.2411C55.1403 16.7744 55.0003 16.4104 54.7203 16.1491C54.4403 15.8877 54.0529 15.7571 53.5583 15.7571ZM55.9243 10.9971H57.1703L55.9943 12.6211H55.0423L55.9243 10.9971ZM51.2903 13.9231C51.5609 13.7177 51.8689 13.4097 52.2143 12.9991C52.5596 12.5791 52.8349 12.1731 53.0403 11.7811H54.0063C54.2209 12.1824 54.4963 12.5884 54.8323 12.9991C55.1776 13.4097 55.4809 13.7177 55.7423 13.9231H54.6083C54.4029 13.7644 54.1929 13.5637 53.9783 13.3211C53.7729 13.0784 53.6236 12.8684 53.5303 12.6911C53.4369 12.8684 53.2783 13.0784 53.0543 13.3211C52.8396 13.5637 52.6343 13.7644 52.4383 13.9231H51.2903ZM59.0385 15.9251V19.4531C59.0385 19.8544 59.1178 20.1531 59.2765 20.3491C59.4352 20.5357 59.6872 20.6291 60.0325 20.6291H60.9285V21.5951H60.0325C59.2392 21.5951 58.6698 21.4271 58.3245 21.0911C57.9792 20.7551 57.8065 20.2091 57.8065 19.4531V13.6011C57.8065 13.4051 57.7692 13.2464 57.6945 13.1251C57.6198 12.9944 57.4845 12.8544 57.2885 12.7051L58.1145 11.9771C58.4598 12.1637 58.6978 12.3784 58.8285 12.6211C58.9685 12.8544 59.0385 13.1811 59.0385 13.6011V14.9591H60.9285V15.9251H59.0385ZM69.5904 21.6931C68.6197 21.6931 67.9057 21.3664 67.4484 20.7131V21.5391H66.2164V12.9151C66.2164 12.7097 66.179 12.5464 66.1044 12.4251C66.039 12.3037 65.9037 12.1637 65.6984 12.0051L66.5104 11.2771C66.865 11.4637 67.1077 11.6784 67.2384 11.9211C67.3784 12.1544 67.4484 12.4857 67.4484 12.9151V15.8131C67.9244 15.1411 68.6337 14.8051 69.5764 14.8051C70.1644 14.8051 70.673 14.9451 71.1024 15.2251C71.541 15.4957 71.877 15.8737 72.1104 16.3591C72.3437 16.8444 72.4604 17.3997 72.4604 18.0251V18.4731C72.4604 19.0984 72.3437 19.6537 72.1104 20.1391C71.8864 20.6244 71.555 21.0071 71.1164 21.2871C70.687 21.5577 70.1784 21.6931 69.5904 21.6931ZM69.2964 20.7271C69.8844 20.7271 70.351 20.5171 70.6964 20.0971C71.051 19.6771 71.2284 19.1357 71.2284 18.4731V18.0251C71.2284 17.3624 71.051 16.8211 70.6964 16.4011C70.351 15.9811 69.8844 15.7711 69.2964 15.7711C68.3444 15.7711 67.7284 16.2331 67.4484 17.1571V19.3411C67.7284 20.2651 68.3444 20.7271 69.2964 20.7271ZM79.327 20.0691C79.327 20.2651 79.3644 20.4284 79.439 20.5591C79.5137 20.6804 79.649 20.8157 79.845 20.9651L79.019 21.6931C78.543 21.4504 78.2537 21.1051 78.151 20.6571C77.927 20.9744 77.6144 21.2264 77.213 21.4131C76.821 21.5997 76.3684 21.6931 75.855 21.6931C75.155 21.6931 74.6137 21.5297 74.231 21.2031C73.8484 20.8671 73.657 20.3864 73.657 19.7611C73.657 19.1171 73.881 18.6364 74.329 18.3191C74.777 18.0017 75.393 17.8011 76.177 17.7171L77.129 17.6051C77.5304 17.5584 77.7917 17.4884 77.913 17.3951C78.0437 17.2924 78.1044 17.1197 78.095 16.8771C78.0577 16.5131 77.9084 16.2237 77.647 16.0091C77.395 15.7944 77.0077 15.6871 76.485 15.6871C76.1024 15.6871 75.7757 15.7524 75.505 15.8831C75.2344 16.0044 74.987 16.2051 74.763 16.4851L73.923 15.8831C74.1564 15.5284 74.4784 15.2624 74.889 15.0851C75.309 14.8984 75.841 14.8051 76.485 14.8051C77.4277 14.8051 78.137 15.0011 78.613 15.3931C79.089 15.7851 79.327 16.3544 79.327 17.1011V20.0691ZM76.149 20.7831C76.737 20.7831 77.2084 20.6291 77.563 20.3211C77.927 20.0131 78.109 19.6211 78.109 19.1451V18.2071C77.8944 18.3284 77.563 18.4077 77.115 18.4451L76.289 18.5291C75.3184 18.6411 74.833 19.0377 74.833 19.7191C74.833 20.0644 74.945 20.3304 75.169 20.5171C75.393 20.6944 75.7197 20.7831 76.149 20.7831ZM76.779 23.9611C76.5644 23.9611 76.3824 23.8817 76.233 23.7231C76.0837 23.5737 76.009 23.3917 76.009 23.1771C76.009 22.9624 76.0837 22.7804 76.233 22.6311C76.3824 22.4817 76.5644 22.4071 76.779 22.4071C76.9844 22.4071 77.1617 22.4817 77.311 22.6311C77.4697 22.7897 77.549 22.9717 77.549 23.1771C77.549 23.3917 77.4744 23.5737 77.325 23.7231C77.1757 23.8817 76.9937 23.9611 76.779 23.9611ZM84.7805 14.8051C85.4618 14.8051 85.9891 15.0011 86.3625 15.3931C86.7451 15.7851 86.9365 16.3357 86.9365 17.0451V21.5391H85.7045V17.1991C85.7045 16.7511 85.5925 16.4011 85.3685 16.1491C85.1445 15.8971 84.8365 15.7711 84.4445 15.7711C84.0058 15.7711 83.6278 15.9251 83.3105 16.2331C82.9931 16.5411 82.7598 16.9564 82.6105 17.4791V21.5391H81.3785V16.4291C81.3785 16.2331 81.3411 16.0744 81.2665 15.9531C81.1918 15.8224 81.0565 15.6824 80.8605 15.5331L81.6725 14.8051C81.9711 14.9731 82.1905 15.1504 82.3305 15.3371C82.4705 15.5237 82.5591 15.7664 82.5965 16.0651C82.8111 15.6731 83.1051 15.3651 83.4785 15.1411C83.8518 14.9171 84.2858 14.8051 84.7805 14.8051Z" fill="#FF2462"/>
<g clip-path="url(#clip0)">
<path d="M24.1142 19.0208C24.8802 18.3316 25.3652 17.3359 25.3652 16.2239C25.3652 14.1429 23.679 12.457 21.5983 12.457C19.518 12.457 17.8322 14.1429 17.8322 16.2239C17.8322 17.3336 18.3155 18.3287 19.0801 19.0175C17.1217 19.1695 15.5747 20.7916 15.5607 22.788L15.5234 23.5379H21.25H27.5428L27.5798 22.8442C27.5873 21.8272 27.188 20.8511 26.4703 20.1286C25.8374 19.4901 25.0015 19.1025 24.1142 19.0208Z" fill="#FF2462"/>
<path d="M26.8487 12.256V13.386C26.8487 13.8543 27.2291 14.234 27.6977 14.234C28.1666 14.234 28.5464 13.8543 28.5464 13.386V12.256H29.6751C30.1434 12.256 30.5234 11.8756 30.5234 11.4073C30.5234 10.9391 30.1434 10.559 29.6751 10.559H28.5464V9.44566C28.5464 8.97705 28.1666 8.59766 27.6977 8.59766C27.2291 8.59766 26.8487 8.97705 26.8487 9.44566V10.5587H25.7354C25.2661 10.5587 24.8867 10.9387 24.8867 11.407C24.8867 11.8753 25.2661 12.2557 25.7354 12.2557L26.8487 12.256Z" fill="#FF2462"/>
</g>
<defs>
<clipPath id="clip0">
<rect width="15" height="15" fill="white" transform="translate(15.5234 8.53906)"/>
</clipPath>
</defs>
</svg>
