<svg width="106" height="30" viewBox="0 0 106 30" fill="none" xmlns="http://www.w3.org/2000/svg">
<rect x="0.25" width="105" height="30" rx="5" fill="#FF2462"/>
<path d="M49.5293 12.1492V20.2132C49.5293 20.7919 49.408 21.2259 49.1653 21.5152C48.932 21.8046 48.5587 21.9492 48.0453 21.9492H47.1073L43.0753 14.1932V21.9492H41.8153V12.1492H43.3553L47.7933 20.8012H47.8773C48.0267 20.8012 48.1293 20.7452 48.1853 20.6332C48.2413 20.5212 48.2693 20.3159 48.2693 20.0172V12.1492H49.5293ZM55.1945 15.2152C55.8759 15.2152 56.4032 15.4112 56.7765 15.8032C57.1592 16.1952 57.3505 16.7459 57.3505 17.4552V21.9492H56.1185V17.6092C56.1185 17.1612 56.0065 16.8112 55.7825 16.5592C55.5679 16.3072 55.2645 16.1812 54.8725 16.1812C54.4245 16.1812 54.0419 16.3352 53.7245 16.6432C53.4072 16.9512 53.1739 17.3666 53.0245 17.8892V21.9492H51.7925V13.3112C51.7925 13.1152 51.7552 12.9566 51.6805 12.8352C51.6059 12.7046 51.4705 12.5646 51.2745 12.4152L52.0865 11.6872C52.4412 11.8739 52.6839 12.0886 52.8145 12.3312C52.9545 12.5646 53.0245 12.8912 53.0245 13.3112V16.4612C53.2392 16.0692 53.5285 15.7659 53.8925 15.5512C54.2659 15.3272 54.6999 15.2152 55.1945 15.2152ZM64.6981 20.4792C64.6981 20.6752 64.7355 20.8386 64.8101 20.9692C64.8848 21.0906 65.0201 21.2259 65.2161 21.3752L64.3901 22.1032C63.9141 21.8606 63.6248 21.5152 63.5221 21.0672C63.2981 21.3846 62.9855 21.6366 62.5841 21.8232C62.1921 22.0099 61.7395 22.1032 61.2261 22.1032C60.5261 22.1032 59.9848 21.9399 59.6021 21.6132C59.2195 21.2772 59.0281 20.7966 59.0281 20.1712C59.0281 19.5272 59.2521 19.0466 59.7001 18.7292C60.1481 18.4119 60.7641 18.2112 61.5481 18.1272L62.5001 18.0152C62.9015 17.9686 63.1628 17.8986 63.2841 17.8052C63.4148 17.7026 63.4755 17.5299 63.4661 17.2872C63.4288 16.9232 63.2795 16.6339 63.0181 16.4192C62.7661 16.2046 62.3788 16.0972 61.8561 16.0972C61.4735 16.0972 61.1468 16.1626 60.8761 16.2932C60.6055 16.4146 60.3581 16.6152 60.1341 16.8952L59.2941 16.2932C59.5275 15.9386 59.8495 15.6726 60.2601 15.4952C60.6801 15.3086 61.2121 15.2152 61.8561 15.2152C62.7988 15.2152 63.5081 15.4112 63.9841 15.8032C64.4601 16.1952 64.6981 16.7646 64.6981 17.5112V20.4792ZM61.5201 21.1932C62.1081 21.1932 62.5795 21.0392 62.9341 20.7312C63.2981 20.4232 63.4801 20.0312 63.4801 19.5552V18.6172C63.2655 18.7386 62.9341 18.8179 62.4861 18.8552L61.6601 18.9392C60.6895 19.0512 60.2041 19.4479 60.2041 20.1292C60.2041 20.4746 60.3161 20.7406 60.5401 20.9272C60.7641 21.1046 61.0908 21.1932 61.5201 21.1932ZM62.5141 10.0772H63.7881L62.5841 11.7012H61.6321L62.5141 10.0772ZM62.1501 14.4312C61.4968 14.4312 60.9741 14.2399 60.5821 13.8572C60.1995 13.4746 60.0081 12.9659 60.0081 12.3312H60.9041C60.9321 12.7046 61.0535 12.9986 61.2681 13.2132C61.4828 13.4279 61.7768 13.5352 62.1501 13.5352C62.5235 13.5352 62.8175 13.4279 63.0321 13.2132C63.2561 12.9986 63.3775 12.7046 63.3961 12.3312H64.2921C64.2921 12.9659 64.0961 13.4746 63.7041 13.8572C63.3215 14.2399 62.8035 14.4312 62.1501 14.4312ZM70.1516 15.2152C70.8329 15.2152 71.3602 15.4112 71.7336 15.8032C72.1162 16.1952 72.3076 16.7459 72.3076 17.4552V21.9492H71.0756V17.6092C71.0756 17.1612 70.9636 16.8112 70.7396 16.5592C70.5156 16.3072 70.2076 16.1812 69.8156 16.1812C69.3769 16.1812 68.9989 16.3352 68.6816 16.6432C68.3642 16.9512 68.1309 17.3666 67.9816 17.8892V21.9492H66.7496V16.8392C66.7496 16.6432 66.7122 16.4846 66.6376 16.3632C66.5629 16.2326 66.4276 16.0926 66.2316 15.9432L67.0436 15.2152C67.3422 15.3832 67.5616 15.5606 67.7016 15.7472C67.8416 15.9339 67.9302 16.1766 67.9676 16.4752C68.1822 16.0832 68.4762 15.7752 68.8496 15.5512C69.2229 15.3272 69.6569 15.2152 70.1516 15.2152ZM79.2182 16.3352V19.8632C79.2182 20.2646 79.2975 20.5632 79.4562 20.7592C79.6149 20.9459 79.8669 21.0392 80.2122 21.0392H81.1082V22.0052H80.2122C79.4189 22.0052 78.8495 21.8372 78.5042 21.5012C78.1589 21.1652 77.9862 20.6192 77.9862 19.8632V14.0112C77.9862 13.8152 77.9489 13.6566 77.8742 13.5352C77.7995 13.4046 77.6642 13.2646 77.4682 13.1152L78.2942 12.3872C78.6395 12.5739 78.8775 12.7886 79.0082 13.0312C79.1482 13.2646 79.2182 13.5912 79.2182 14.0112V15.3692H81.1082V16.3352H79.2182ZM83.2803 14.0812C83.0656 14.0812 82.8789 14.0066 82.7203 13.8572C82.5709 13.6986 82.4963 13.5119 82.4963 13.2972C82.4963 13.0826 82.5709 12.9006 82.7203 12.7512C82.8789 12.5926 83.0656 12.5132 83.2803 12.5132C83.4949 12.5132 83.6769 12.5926 83.8263 12.7512C83.9849 12.9006 84.0643 13.0826 84.0643 13.2972C84.0643 13.5119 83.9849 13.6986 83.8263 13.8572C83.6769 14.0066 83.4949 14.0812 83.2803 14.0812ZM83.5883 22.1032C83.2429 21.9166 83.0003 21.7066 82.8603 21.4732C82.7296 21.2306 82.6643 20.8992 82.6643 20.4792V15.3692H83.8963V20.4792C83.8963 20.6752 83.9336 20.8386 84.0083 20.9692C84.0829 21.0906 84.2183 21.2259 84.4143 21.3752L83.5883 22.1032ZM89.593 15.2152C90.2743 15.2152 90.8016 15.4112 91.175 15.8032C91.5576 16.1952 91.749 16.7459 91.749 17.4552V21.9492H90.517V17.6092C90.517 17.1612 90.405 16.8112 90.181 16.5592C89.957 16.3072 89.649 16.1812 89.257 16.1812C88.8183 16.1812 88.4403 16.3352 88.123 16.6432C87.8056 16.9512 87.5723 17.3666 87.423 17.8892V21.9492H86.191V16.8392C86.191 16.6432 86.1536 16.4846 86.079 16.3632C86.0043 16.2326 85.869 16.0926 85.673 15.9432L86.485 15.2152C86.7836 15.3832 87.003 15.5606 87.143 15.7472C87.283 15.9339 87.3716 16.1766 87.409 16.4752C87.6236 16.0832 87.9176 15.7752 88.291 15.5512C88.6643 15.3272 89.0983 15.2152 89.593 15.2152Z" fill="white"/>
<path d="M17.1242 14.3906C16.6273 14.3906 16.2227 14.795 16.2227 15.2925C16.2227 15.7894 16.6273 16.1941 17.1242 16.1941C17.6217 16.1941 18.0258 15.7894 18.0258 15.2925C18.0258 14.795 17.6217 14.3906 17.1242 14.3906Z" fill="white"/>
<path d="M20.3 14.3906C19.8031 14.3906 19.3984 14.795 19.3984 15.2925C19.3984 15.7894 19.8031 16.1941 20.3 16.1941C20.7975 16.1941 21.2022 15.7894 21.2022 15.2925C21.2022 14.795 20.7975 14.3906 20.3 14.3906Z" fill="white"/>
<path d="M23.388 14.375C22.893 14.375 22.4902 14.7781 22.4902 15.2734C22.4902 15.7681 22.893 16.1706 23.388 16.1706C23.883 16.1706 24.2859 15.7681 24.2859 15.2734C24.2859 14.7781 23.883 14.375 23.388 14.375Z" fill="white"/>
<path d="M12.785 22.5C12.7013 22.5 12.6194 22.4661 12.5594 22.4021C12.4719 22.3096 12.4481 22.1724 12.4994 22.0548L14.1782 18.2008C13.5856 17.1264 13.2735 15.9193 13.2735 14.6982C13.2735 10.7292 16.4585 7.5 20.3732 7.5C24.2879 7.5 27.4727 10.7295 27.4727 14.6985C27.4727 18.6669 24.2879 21.8958 20.3729 21.8958C19.1307 21.8958 17.9076 21.5603 16.8254 20.9247L12.8988 22.4785C12.8619 22.4927 12.8231 22.5 12.785 22.5ZM20.3729 8.13399C16.8026 8.13399 13.8982 11.0787 13.8982 14.6985C13.8982 15.8607 14.2091 17.0099 14.7969 18.0215C14.8478 18.1093 14.8541 18.217 14.8135 18.3105L13.3769 21.6087L16.7407 20.2777C16.8319 20.2422 16.9338 20.2508 17.0169 20.3021C18.0335 20.9301 19.1941 21.2618 20.3732 21.2618C23.9432 21.2621 26.8477 18.3178 26.8477 14.6985C26.8477 11.079 23.9432 8.13399 20.3729 8.13399Z" fill="white"/>
</svg>
