<svg width="24" height="24" viewBox="0 0 24 24" fill="none" xmlns="http://www.w3.org/2000/svg">
<g clip-path="url(#clip0)">
<path d="M20.902 23.9995H3.09898C1.39048 23.9995 0.000976562 22.61 0.000976562 20.9015V3.098C0.000976562 1.3895 1.39048 0 3.09898 0H15.74V1H3.09898C1.94198 1 1.00098 1.941 1.00098 3.098V20.9015C1.00098 22.058 1.94198 22.9995 3.09898 22.9995H20.902C22.0585 22.9995 23 22.058 23 20.9015V7.023H24V20.9015C24 22.61 22.6105 23.9995 20.902 23.9995Z" fill="white"/>
<path d="M15.9546 12.02L11.9326 7.99852L19.7831 0.146516L20.4901 0.853516L13.3466 7.99852L15.9546 10.606L23.0976 3.46252L23.8046 4.16952L15.9546 12.02Z" fill="white"/>
<path d="M9.08057 14.8715L12.0196 7.91496L12.9406 8.30396L10.9606 12.9915L15.6481 11.0105L16.0376 11.932L9.08057 14.8715Z" fill="white"/>
</g>
<defs>
<clipPath id="clip0">
<rect width="24" height="24" fill="white"/>
</clipPath>
</defs>
</svg>
