<?xml version="1.0" encoding="utf-8"?>
<!-- Generator: Adobe Illustrator 16.0.0, SVG Export Plug-In . SVG Version: 6.00 Build 0)  -->
<!DOCTYPE svg PUBLIC "-//W3C//DTD SVG 1.1//EN" "http://www.w3.org/Graphics/SVG/1.1/DTD/svg11.dtd">
<svg version="1.1" id="Layer_1" xmlns="http://www.w3.org/2000/svg" xmlns:xlink="http://www.w3.org/1999/xlink" x="0px" y="0px"
	 width="48px" height="48px" viewBox="0 0 48 48" enable-background="new 0 0 48 48" xml:space="preserve">
<g>
	<path d="M43.913,6.049H17.992c-0.552,0-1-0.448-1-1s0.448-1,1-1h25.921c0.553,0,1,0.448,1,1S44.466,6.049,43.913,6.049z"/>
	<path d="M43.913,25.002H17.992c-0.552,0-1-0.447-1-1c0-0.552,0.448-1,1-1h25.921c0.553,0,1,0.448,1,1
		C44.913,24.555,44.466,25.002,43.913,25.002z"/>
	<path d="M43.913,43.951H17.992c-0.552,0-1-0.447-1-1s0.448-1,1-1h25.921c0.553,0,1,0.447,1,1S44.466,43.951,43.913,43.951z"/>
	<path d="M12.37,10.283H4.086c-0.552,0-1-0.448-1-1V1c0-0.552,0.448-1,1-1h8.284c0.552,0,1,0.448,1,1v8.283
		C13.37,9.835,12.922,10.283,12.37,10.283z M5.086,8.283h6.284V2H5.086V8.283z"/>
	<path d="M12.37,29.141H4.086c-0.552,0-1-0.447-1-1v-8.284c0-0.552,0.448-1,1-1h8.284c0.552,0,1,0.448,1,1v8.284
		C13.37,28.693,12.922,29.141,12.37,29.141z M5.086,27.141h6.284v-6.284H5.086V27.141z"/>
	<path d="M12.37,48H4.086c-0.552,0-1-0.447-1-1v-8.279c0-0.553,0.448-1,1-1h8.284c0.552,0,1,0.447,1,1V47
		C13.37,47.553,12.922,48,12.37,48z M5.086,46h6.284v-6.279H5.086V46z"/>
</g>
</svg>
