<svg width="58" height="21" viewBox="0 0 58 21" fill="none" xmlns="http://www.w3.org/2000/svg">
<rect x="10" y="2" width="48" height="18" rx="5" fill="black"/>
<path d="M13.439 0C7.683 0 3 4.683 3 10.439C3 16.195 7.683 20.878 13.439 20.878C19.1955 20.878 23.878 16.195 23.878 10.439C23.878 4.683 19.1955 0 13.439 0Z" fill="black"/>
<path d="M12.5012 18C8.365 18 5 14.6353 5 10.5C5 6.36469 8.365 3 12.5012 3C16.6363 3 20.0006 6.36469 20.0006 10.5C20.0006 14.6353 16.6363 18 12.5012 18ZM12.5012 3.625C8.70969 3.625 5.625 6.70906 5.625 10.5C5.625 14.2909 8.70969 17.375 12.5012 17.375C16.2919 17.375 19.3756 14.2909 19.3756 10.5C19.3756 6.70906 16.2919 3.625 12.5012 3.625Z" fill="white"/>
<path d="M11.4595 12.9363C11.3717 12.9363 11.2848 12.8995 11.2236 12.8288L8.65887 9.87976C8.54543 9.74945 8.55949 9.55226 8.68949 9.43883C8.8198 9.32508 9.01699 9.33945 9.13043 9.46945L11.512 12.2079L16.8348 8.5382C16.9764 8.43976 17.1711 8.4757 17.2695 8.6182C17.3673 8.76039 17.3317 8.95476 17.1895 9.05289L11.6367 12.881C11.5829 12.9182 11.5211 12.9363 11.4595 12.9363Z" fill="white"/>
<path d="M23.8418 15.3847L23.8405 15.3836C23.1018 14.7167 22.75 13.7537 22.75 12.538V9.556C22.75 8.3597 23.0919 7.40755 23.8098 6.74089L23.8418 15.3847ZM23.8418 15.3847C24.585 16.0465 25.643 16.358 26.976 16.358C27.8123 16.358 28.5316 16.2284 29.124 15.9573C29.7182 15.6854 30.2349 15.2501 30.676 14.662L30.8246 14.4639L30.6279 14.3134L29.9139 13.7674L29.7087 13.6105L29.5586 13.8207C29.2532 14.2483 28.8971 14.5544 28.492 14.7485C28.0861 14.943 27.5793 15.046 26.962 15.046C26.0289 15.046 25.3624 14.8218 24.9207 14.4134M23.8418 15.3847L24.9207 14.4134M24.9207 14.4134C24.4917 14.0081 24.258 13.3977 24.258 12.538V9.556C24.258 8.70519 24.4873 8.0985 24.9084 7.69304C25.3417 7.28478 25.985 7.062 26.878 7.062C27.4756 7.062 27.9679 7.16465 28.3641 7.35855L28.3641 7.35863L28.3698 7.36127C28.7756 7.54726 29.1311 7.84054 29.4355 8.24932L29.583 8.44734L29.7828 8.30236L30.4968 7.78436L30.6944 7.64101L30.5558 7.44007C30.1575 6.86249 29.646 6.43493 29.0234 6.16346C28.405 5.88453 27.6733 5.75 26.836 5.75C25.5553 5.75 24.5337 6.06804 23.8099 6.7408L24.9207 14.4134ZM33.9057 6.966V7.216H34.1557H37.0837V15.954V16.204H37.3337H38.3417H38.5917V15.954V7.216H41.5197H41.7697V6.966V6.154V5.904H41.5197H34.1557H33.9057V6.154V6.966ZM48.0527 15.8689L48.0527 15.8689L48.0559 15.8724C48.3595 16.1985 48.7547 16.358 49.2188 16.358C49.6756 16.358 50.0654 16.1971 50.3678 15.8724L50.3678 15.8724L50.3707 15.8692C50.6594 15.5485 50.8918 15.054 51.0824 14.4155L51.0825 14.4153L53.5185 6.22527L53.614 5.904H53.2788H52.2568H52.0701L52.0171 6.08299L49.5956 14.2575C49.5955 14.2578 49.5954 14.258 49.5953 14.2583C49.5049 14.5567 49.422 14.7421 49.354 14.839C49.3001 14.9077 49.2574 14.92 49.2188 14.92C49.1712 14.92 49.1186 14.9031 49.055 14.824C48.9883 14.7285 48.9102 14.5494 48.8295 14.2623L48.8295 14.2623L48.8285 14.259L46.4065 6.08299L46.3535 5.904H46.1668H45.1588H44.8236L44.9192 6.22527L47.355 14.4145L47.5948 14.344L47.3552 14.4153L47.3552 14.4152C47.5451 15.0606 47.7725 15.5563 48.0527 15.8689Z" fill="#FEFEFE" stroke="#FEFEFE" stroke-width="0.5"/>
</svg>
