<svg width="61" height="24" viewBox="0 0 61 24" fill="none" xmlns="http://www.w3.org/2000/svg">
<rect x="17" y="3" width="44" height="18" rx="5" fill="black"/>
<path d="M26.8418 16.3847L26.8405 16.3836C26.1018 15.7167 25.75 14.7537 25.75 13.538V10.556C25.75 9.3597 26.0919 8.40755 26.8098 7.74089L26.8418 16.3847ZM26.8418 16.3847C27.585 17.0465 28.643 17.358 29.976 17.358C30.8123 17.358 31.5316 17.2284 32.124 16.9573C32.7182 16.6854 33.2349 16.2501 33.676 15.662L33.8246 15.4639L33.6279 15.3134L32.9139 14.7674L32.7087 14.6105L32.5586 14.8207C32.2532 15.2483 31.8971 15.5544 31.492 15.7485C31.0861 15.943 30.5793 16.046 29.962 16.046C29.0289 16.046 28.3624 15.8218 27.9207 15.4134M26.8418 16.3847L27.9207 15.4134M27.9207 15.4134C27.4917 15.0081 27.258 14.3977 27.258 13.538V10.556C27.258 9.70518 27.4873 9.09849 27.9084 8.69303C28.3417 8.28477 28.985 8.062 29.878 8.062C30.4756 8.062 30.9679 8.16465 31.3641 8.35855L31.3641 8.35863L31.3698 8.36127C31.7756 8.54726 32.1311 8.84054 32.4355 9.24932L32.583 9.44734L32.7828 9.30236L33.4968 8.78436L33.6944 8.64101L33.5558 8.44007C33.1575 7.86249 32.646 7.43493 32.0234 7.16346C31.405 6.88453 30.6733 6.75 29.836 6.75C28.5553 6.75 27.5337 7.06804 26.8099 7.7408L27.9207 15.4134ZM36.9057 7.966V8.216H37.1557H40.0837V16.954V17.204H40.3337H41.3417H41.5917V16.954V8.216H44.5197H44.7697V7.966V7.154V6.904H44.5197H37.1557H36.9057V7.154V7.966ZM51.0527 16.8689L51.0527 16.8689L51.0559 16.8724C51.3595 17.1985 51.7547 17.358 52.2188 17.358C52.6756 17.358 53.0654 17.1971 53.3678 16.8724L53.3678 16.8724L53.3707 16.8692C53.6594 16.5485 53.8918 16.054 54.0824 15.4155L54.0825 15.4153L56.5185 7.22527L56.614 6.904H56.2788H55.2568H55.0701L55.0171 7.08299L52.5956 15.2575C52.5955 15.2578 52.5954 15.258 52.5953 15.2583C52.5049 15.5567 52.422 15.7421 52.354 15.839C52.3001 15.9077 52.2574 15.92 52.2188 15.92C52.1712 15.92 52.1186 15.9031 52.055 15.824C51.9883 15.7285 51.9102 15.5494 51.8295 15.2623L51.8295 15.2623L51.8285 15.259L49.4065 7.08299L49.3535 6.904H49.1668H48.1588H47.8236L47.9192 7.22527L50.355 15.4145L50.5948 15.344L50.3552 15.4153L50.3552 15.4152C50.5451 16.0606 50.7725 16.5563 51.0527 16.8689Z" fill="#FEFEFE" stroke="#FEFEFE" stroke-width="0.5"/>
<path d="M12 24C5.383 24 0 18.6165 0 12C0 5.383 5.383 0 12 0C18.6165 0 24 5.383 24 12C24 18.6165 18.6165 24 12 24Z" fill="black"/>
<path d="M12.0005 1.5614C6.24452 1.5614 1.56152 6.2444 1.56152 12.0004C1.56152 17.7564 6.24452 22.4394 12.0005 22.4394C17.757 22.4394 22.4395 17.7564 22.4395 12.0004C22.4395 6.2444 17.757 1.5614 12.0005 1.5614Z" fill="white"/>
<path d="M15.2658 11.9448C14.9318 11.6098 14.4963 11.3238 13.9653 11.0888C13.6858 10.9688 13.1148 10.8008 12.2533 10.5848V5.65083C12.8083 5.76483 13.2508 6.00083 13.5703 6.35883C13.8888 6.71733 14.0988 7.23333 14.2008 7.90433L15.9678 7.63633C15.8178 6.55333 15.3668 5.70083 14.6203 5.07933C14.0368 4.59083 13.2483 4.29933 12.2538 4.20433V3.38733H11.2443V4.20433C10.1098 4.31983 9.2533 4.62983 8.6768 5.13583C7.8158 5.89033 7.3853 6.87583 7.3853 8.09383C7.3853 8.77683 7.5338 9.39033 7.8278 9.92883C8.1243 10.4678 8.5423 10.8898 9.0873 11.1923C9.8238 11.6048 10.5433 11.8768 11.2443 12.0098V17.4568C10.5728 17.3868 9.9963 17.0498 9.5153 16.4403C9.1803 16.0118 8.9463 15.3348 8.8108 14.4158L7.0918 14.7393C7.1543 15.6268 7.3798 16.3773 7.7708 16.9928C8.1618 17.6083 8.6233 18.0538 9.1583 18.3293C9.6953 18.6038 10.3888 18.7953 11.2443 18.9043V20.6163H12.2538V18.8843C13.4513 18.8293 14.4268 18.4033 15.1818 17.6113C15.9358 16.8183 16.3128 15.8308 16.3128 14.6453C16.3128 14.1063 16.2218 13.6063 16.0433 13.1413C15.8618 12.6788 15.6028 12.2813 15.2658 11.9448ZM11.2443 10.3653C10.4643 10.1323 9.9123 9.81733 9.5858 9.42433C9.2603 9.03233 9.0963 8.54433 9.0963 7.96183C9.0963 7.37283 9.2863 6.86233 9.6713 6.42983C10.0553 5.99933 10.5778 5.73283 11.2428 5.63183V10.3653H11.2443ZM13.9048 16.5933C13.4698 17.0883 12.9203 17.3763 12.2538 17.4578V12.2483C13.1728 12.5468 13.7863 12.8838 14.0933 13.2603C14.3998 13.6378 14.5538 14.1363 14.5538 14.7583C14.5538 15.4878 14.3368 16.0993 13.9048 16.5933Z" fill="black"/>
</svg>
