<svg width="24" height="25" viewBox="0 0 24 25" fill="none" xmlns="http://www.w3.org/2000/svg">
<g clip-path="url(#clip0)">
<path d="M11.9996 21.0556C12.2241 21.0556 12.4063 20.8738 12.4063 20.6489V7.22514C12.4063 7.00019 12.2241 6.81836 11.9996 6.81836C11.775 6.81836 11.5928 7.00019 11.5928 7.22514V20.6489C11.5928 20.8738 11.775 21.0556 11.9996 21.0556Z" fill="#A1A1A1"/>
<path d="M7.93217 21.0556C8.15671 21.0556 8.33895 20.8738 8.33895 20.6489V7.22514C8.33895 7.00019 8.15671 6.81836 7.93217 6.81836C7.70763 6.81836 7.52539 7.00019 7.52539 7.22514V20.6489C7.52539 20.8738 7.70763 21.0556 7.93217 21.0556Z" fill="#A1A1A1"/>
<path d="M16.0679 21.0556C16.2925 21.0556 16.4747 20.8738 16.4747 20.6489V7.22514C16.4747 7.00019 16.2925 6.81836 16.0679 6.81836C15.8434 6.81836 15.6611 7.00019 15.6611 7.22514V20.6489C15.6611 20.8738 15.8434 21.0556 16.0679 21.0556Z" fill="#A1A1A1"/>
<path d="M21.3559 2.75122H15.6431C15.5984 2.24275 15.4418 1.38526 14.9056 0.834886C14.5664 0.487089 14.136 0.310547 13.6267 0.310547H9.55934C9.05005 0.310547 8.61968 0.487089 8.28042 0.834886C7.74429 1.38526 7.58768 2.24275 7.54293 2.75122H2.64408C2.41954 2.75122 2.2373 2.93306 2.2373 3.158C2.2373 3.38295 2.41954 3.56478 2.64408 3.56478H3.47432L4.2533 22.2852C4.26836 22.9857 4.70442 24.3105 6.24978 24.3105H17.7503C19.2956 24.3105 19.7317 22.9857 19.7463 22.2937L20.5257 3.56478H21.3559C21.5805 3.56478 21.7627 3.38295 21.7627 3.158C21.7627 2.93306 21.5805 2.75122 21.3559 2.75122ZM8.86456 1.40112C9.0468 1.21482 9.27419 1.12411 9.55934 1.12411H13.6267C13.9119 1.12411 14.1393 1.21482 14.3215 1.40112C14.649 1.7359 14.7804 2.32492 14.8259 2.75122H8.36056C8.40612 2.32492 8.53751 1.7359 8.86456 1.40112ZM18.9332 22.2681C18.9307 22.3938 18.8746 23.497 17.7503 23.497H6.24978C5.13764 23.497 5.07093 22.3918 5.06646 22.2596L4.28829 3.56478H19.7113L18.9332 22.2681Z" fill="#A1A1A1"/>
</g>
<defs>
<clipPath id="clip0">
<rect width="24" height="24" fill="white" transform="translate(0 0.310547)"/>
</clipPath>
</defs>
</svg>
