<?xml version="1.0" encoding="utf-8"?>
<!-- Generator: Adobe Illustrator 16.0.0, SVG Export Plug-In . SVG Version: 6.00 Build 0)  -->
<!DOCTYPE svg PUBLIC "-//W3C//DTD SVG 1.1//EN" "http://www.w3.org/Graphics/SVG/1.1/DTD/svg11.dtd">
<svg version="1.1" id="Layer_1" xmlns="http://www.w3.org/2000/svg" xmlns:xlink="http://www.w3.org/1999/xlink" x="0px" y="0px"
	 width="48px" height="48px" viewBox="0 0 48 48" enable-background="new 0 0 48 48" xml:space="preserve">
<g>
	<g>
		<path d="M17.229,38.427c-0.091,0-0.185-0.013-0.277-0.039c-0.531-0.152-0.837-0.706-0.685-1.237l7.458-25.947
			c0.152-0.53,0.701-0.839,1.237-0.685c0.53,0.152,0.837,0.707,0.685,1.237L18.19,37.703C18.064,38.142,17.664,38.427,17.229,38.427
			z"/>
		<path d="M21.5,44.525L21.5,44.525c-0.529,0-1.057-0.077-1.568-0.23c-2.902-0.869-4.58-3.95-3.741-6.868
			c0.669-2.333,2.824-3.963,5.24-3.963c0.529,0,1.058,0.077,1.57,0.23c2.904,0.867,4.583,3.95,3.741,6.871
			C26.075,42.896,23.919,44.525,21.5,44.525z M21.431,35.464c-1.529,0-2.893,1.034-3.317,2.515c-0.538,1.87,0.535,3.844,2.392,4.4
			c0.325,0.097,0.66,0.146,0.996,0.146c1.531,0,2.896-1.033,3.32-2.512c0.539-1.874-0.534-3.849-2.392-4.403
			C22.102,35.513,21.766,35.464,21.431,35.464z"/>
	</g>
	<g>
		<path d="M7.108,28.326c-0.435,0-0.834-0.285-0.96-0.724c-0.153-0.53,0.153-1.084,0.684-1.237l38.891-11.201
			c0.531-0.154,1.085,0.155,1.237,0.684c0.153,0.531-0.153,1.085-0.685,1.238L7.386,28.287C7.293,28.313,7.2,28.326,7.108,28.326z"
			/>
		<path d="M5.564,28.584c-2.438,0-4.63-1.624-5.332-3.948c-0.423-1.409-0.27-2.893,0.433-4.18c0.704-1.29,1.873-2.225,3.292-2.632
			c0.502-0.145,1.021-0.219,1.543-0.219c2.445,0,4.64,1.624,5.337,3.949c0.422,1.407,0.27,2.89-0.432,4.175
			c-0.705,1.291-1.876,2.228-3.3,2.637C6.604,28.51,6.084,28.584,5.564,28.584z M5.5,19.605c-0.333,0-0.667,0.047-0.99,0.141
			c-0.902,0.259-1.644,0.851-2.089,1.667c-0.444,0.814-0.542,1.754-0.273,2.646c0.448,1.486,1.854,2.525,3.417,2.525
			c0.333,0,0.665-0.048,0.988-0.141c0.907-0.261,1.651-0.854,2.098-1.673c0.443-0.812,0.54-1.75,0.272-2.642
			C8.476,20.643,7.069,19.605,5.5,19.605z"/>
	</g>
	<g>
		<path d="M9.015,5.475H2.588c-0.552,0-1-0.448-1-1s0.448-1,1-1h6.427c0.552,0,1,0.448,1,1S9.567,5.475,9.015,5.475z"/>
		<path d="M21.68,5.475h-6.43c-0.552,0-1-0.448-1-1s0.448-1,1-1h6.43c0.552,0,1,0.448,1,1S22.232,5.475,21.68,5.475z"/>
		<path d="M34.34,5.475h-6.431c-0.553,0-1-0.448-1-1s0.447-1,1-1h6.431c0.553,0,1,0.448,1,1S34.893,5.475,34.34,5.475z"/>
		<path d="M47,5.475h-6.43c-0.553,0-1-0.448-1-1s0.447-1,1-1H47c0.553,0,1,0.448,1,1S47.553,5.475,47,5.475z"/>
	</g>
</g>
</svg>
