<svg width="32" height="32" viewBox="0 0 32 32" fill="none" xmlns="http://www.w3.org/2000/svg">
<g clip-path="url(#clip0)">
<path d="M16.0678 21.8363C11.6465 21.8363 8.0498 18.239 8.0498 13.8183C8.0498 9.39696 11.6465 5.80029 16.0678 5.80029C20.4891 5.80029 24.0858 9.39696 24.0858 13.8183C24.0858 18.239 20.4891 21.8363 16.0678 21.8363ZM16.0678 7.13363C12.3818 7.13363 9.38314 10.1323 9.38314 13.8183C9.38314 17.5043 12.3818 20.503 16.0678 20.503C19.7538 20.503 22.7525 17.5043 22.7525 13.8183C22.7525 10.1323 19.7538 7.13363 16.0678 7.13363Z" fill="black"/>
<path d="M16.0705 26.6373C9.00054 26.6373 3.24854 20.8867 3.24854 13.818C3.24854 6.75 9.0012 1 16.0712 1C23.1365 1 28.8845 6.75 28.8845 13.818C28.8845 20.8867 23.1359 26.6373 16.0705 26.6373ZM16.0712 2.33333C9.73587 2.33333 4.58187 7.48533 4.58187 13.818C4.58187 20.1513 9.7352 25.304 16.0705 25.304C22.4012 25.304 27.5512 20.1513 27.5512 13.818C27.5512 7.48533 22.4019 2.33333 16.0712 2.33333Z" fill="black"/>
<path d="M26.1352 33.0001C25.9279 33.0001 25.7312 32.9034 25.6039 32.7361L20.2219 25.6301C19.9992 25.3374 20.0572 24.9187 20.3506 24.6967L25.5046 20.7914C25.6459 20.6841 25.8219 20.6354 25.9979 20.6628C26.1732 20.6868 26.3312 20.7794 26.4379 20.9208L31.8179 28.0261C31.9659 28.2208 31.9952 28.4808 31.8939 28.7034C31.7926 28.9261 31.5786 29.0761 31.3346 29.0934L27.9239 29.3421L26.7612 32.5614C26.6786 32.7914 26.4759 32.9574 26.2346 32.9934C26.2019 32.9974 26.1686 33.0001 26.1352 33.0001ZM21.6866 25.3561L25.9252 30.9521L26.8179 28.4808C26.9072 28.2334 27.1339 28.0614 27.3966 28.0428L30.0152 27.8521L25.7786 22.2561L21.6866 25.3561Z" fill="black"/>
<path d="M5.82089 33.0002C5.78756 33.0002 5.75422 32.9975 5.72089 32.9922C5.47956 32.9555 5.27689 32.7895 5.19422 32.5602L4.03089 29.3409L0.617557 29.0922C0.373557 29.0749 0.158891 28.9249 0.0588907 28.7022C-0.0411093 28.4795 -0.0124426 28.2195 0.134891 28.0242L5.52022 20.9189C5.62689 20.7782 5.78556 20.6855 5.96089 20.6615C6.13489 20.6349 6.31289 20.6829 6.45422 20.7902L11.6069 24.6955C11.9002 24.9175 11.9576 25.3362 11.7356 25.6289L6.35222 32.7362C6.22556 32.9035 6.02756 33.0002 5.82089 33.0002ZM1.93889 27.8515L4.55889 28.0422C4.82156 28.0609 5.04756 28.2329 5.13756 28.4802L6.03089 30.9522L10.2702 25.3555L6.18022 22.2555L1.93889 27.8515Z" fill="black"/>
</g>
<defs>
<clipPath id="clip0">
<rect width="32" height="32" fill="white"/>
</clipPath>
</defs>
</svg>
