<svg width="32" height="32" viewBox="0 0 32 32" fill="none" xmlns="http://www.w3.org/2000/svg">
<g clip-path="url(#clip0)">
<path d="M27.3466 32.0005H4.65058C3.09191 32.0005 1.82324 30.7665 1.82324 29.2505V16.7492C1.82324 15.2325 3.09191 13.9985 4.65058 13.9985H12.5546C12.9226 13.9985 13.2212 14.2972 13.2212 14.6652C13.2212 15.0332 12.9226 15.3319 12.5546 15.3319H4.65058C3.82658 15.3319 3.15658 15.9679 3.15658 16.7492V29.2505C3.15658 30.0319 3.82658 30.6672 4.65058 30.6672H27.3466C28.1706 30.6672 28.8412 30.0319 28.8412 29.2505V16.7492C28.8412 15.9679 28.1706 15.3319 27.3466 15.3319H19.3946C19.0259 15.3319 18.7279 15.0332 18.7279 14.6652C18.7279 14.2972 19.0259 13.9985 19.3946 13.9985H27.3472C28.9066 13.9985 30.1752 15.2325 30.1752 16.7492V29.2505C30.1752 30.7665 28.9059 32.0005 27.3466 32.0005Z" fill="black"/>
<path d="M28.7463 15.3314H19.0969C18.7283 15.3314 18.4303 15.0327 18.4303 14.6647C18.4303 14.2967 18.7283 13.998 19.0969 13.998H28.7463C29.5689 13.998 30.2389 13.362 30.2389 12.5807V9.78338C30.2389 9.00205 29.5689 8.36605 28.7463 8.36605H3.25427C2.43027 8.36605 1.7596 9.00205 1.7596 9.78338V12.5807C1.7596 13.362 2.43027 13.998 3.25427 13.998H12.9023C13.2703 13.998 13.5689 14.2967 13.5689 14.6647C13.5689 15.0327 13.2703 15.3314 12.9023 15.3314H3.25427C1.69494 15.3314 0.42627 14.0974 0.42627 12.5807V9.78338C0.42627 8.26671 1.69494 7.03271 3.25427 7.03271H28.7463C30.3049 7.03271 31.5723 8.26671 31.5723 9.78338V12.5807C31.5723 14.0974 30.3049 15.3314 28.7463 15.3314Z" fill="black"/>
<path d="M18.8738 32H13.1271C12.7591 32 12.4604 31.702 12.4604 31.3334V7.69938C12.4604 7.33138 12.7591 7.03271 13.1271 7.03271H18.8738C19.2424 7.03271 19.5405 7.33138 19.5405 7.69938V31.3334C19.5405 31.702 19.2418 32 18.8738 32ZM13.7938 30.6667H18.2071V8.36605H13.7938V30.6667Z" fill="black"/>
<path d="M18.5036 8.36666C18.1349 8.36666 17.8369 8.06799 17.8369 7.69999C17.8369 7.33199 18.1349 7.03332 18.5036 7.03332C18.8983 6.99866 22.2476 6.30732 23.0036 4.70332C23.2909 4.09399 23.1483 3.38999 22.5669 2.55266C21.5676 1.11332 20.8063 1.31199 20.5549 1.37799C18.6909 1.86666 16.8683 6.04866 16.7756 6.80399C16.7903 7.14466 16.5429 7.44666 16.1983 7.49332C15.8323 7.53799 15.4976 7.28599 15.4483 6.92132C15.3369 6.09532 17.3489 1.18066 19.8956 0.191989C20.8503 -0.178011 22.2769 -0.201344 23.6609 1.79199C24.7789 3.40199 24.5456 4.63399 24.1529 5.38399C22.9676 7.65132 18.8496 8.36666 18.5036 8.36666Z" fill="black"/>
<path d="M13.4965 8.36633C13.1505 8.36633 9.03387 7.651 7.8472 5.38367C7.4552 4.63367 7.22187 3.40233 8.3392 1.79167C9.72254 -0.201001 11.1499 -0.179001 12.1039 0.191665C14.6505 1.17967 16.6619 6.09433 16.5505 6.921C16.5012 7.28567 16.1652 7.537 15.8005 7.493C15.4559 7.44633 15.2085 7.145 15.2232 6.80367C15.1305 6.04833 13.3079 1.86633 11.4445 1.37767C11.1945 1.31233 10.4332 1.11367 9.43387 2.55233C8.85254 3.38967 8.70987 4.09367 8.9972 4.703C9.75254 6.30633 13.1012 6.99833 13.5252 7.03367C13.8812 7.063 14.1639 7.369 14.1485 7.72633C14.1352 8.08366 13.8539 8.36633 13.4965 8.36633Z" fill="black"/>
</g>
<defs>
<clipPath id="clip0">
<rect width="32" height="32" fill="white"/>
</clipPath>
</defs>
</svg>
