<svg width="32" height="32" viewBox="0 0 32 32" fill="none" xmlns="http://www.w3.org/2000/svg">
<path d="M30 25.542H2C0.897333 25.542 0 24.6447 0 23.542V5.11865C0 4.01599 0.897333 3.11865 2 3.11865H30C31.1027 3.11865 32 4.01599 32 5.11865V23.5413C32 24.6447 31.1027 25.542 30 25.542ZM2 4.45199C1.63267 4.45199 1.33333 4.75132 1.33333 5.11865V23.5413C1.33333 23.9093 1.63267 24.208 2 24.208H30C30.368 24.208 30.6667 23.9093 30.6667 23.5413V5.11865C30.6667 4.75132 30.368 4.45199 30 4.45199H2Z" fill="black"/>
<path d="M21.7214 21.606H5.60335C4.86802 21.606 4.27002 21.008 4.27002 20.2727V8.38802C4.27002 7.65269 4.86802 7.05469 5.60335 7.05469H21.7214C22.4567 7.05469 23.0547 7.65269 23.0547 8.38802V20.2727C23.0547 21.008 22.4567 21.606 21.7214 21.606ZM21.7214 20.2727V20.9394V20.2727ZM5.60335 8.38802V20.2727H21.7194L21.7214 8.38802H5.60335Z" fill="black"/>
<path d="M28.0307 10.0961C28.0307 10.7107 27.5334 11.2101 26.9161 11.2101C26.3021 11.2101 25.8027 10.7101 25.8027 10.0961C25.8027 9.4814 26.3021 8.9834 26.9161 8.9834C27.5334 8.9834 28.0307 9.48073 28.0307 10.0961Z" fill="black"/>
<path d="M28.0307 14.3275C28.0307 14.9415 27.5334 15.4421 26.9161 15.4421C26.3021 15.4421 25.8027 14.9415 25.8027 14.3275C25.8027 13.7148 26.3021 13.2168 26.9161 13.2168C27.5334 13.2168 28.0307 13.7141 28.0307 14.3275Z" fill="black"/>
<path d="M6.75602 28.8803C6.38802 28.8803 6.08936 28.5823 6.08936 28.2136V25.467C6.08936 25.0983 6.38802 24.8003 6.75602 24.8003C7.12402 24.8003 7.42269 25.0983 7.42269 25.467V28.2136C7.42269 28.5823 7.12402 28.8803 6.75602 28.8803Z" fill="black"/>
<path d="M25.2453 28.8803C24.8766 28.8803 24.5786 28.5823 24.5786 28.2136V25.467C24.5786 25.0983 24.8766 24.8003 25.2453 24.8003C25.6139 24.8003 25.9119 25.0983 25.9119 25.467V28.2136C25.9119 28.5823 25.6139 28.8803 25.2453 28.8803Z" fill="black"/>
</svg>
