<svg width="32" height="32" viewBox="0 0 32 32" fill="none" xmlns="http://www.w3.org/2000/svg">
<path d="M14.7296 31.9999C9.38622 31.9999 5.03955 26.5913 5.03955 19.9433C5.03955 13.2946 9.38622 7.88525 14.7296 7.88525C20.0729 7.88525 24.4189 13.2946 24.4189 19.9433C24.4189 26.5913 20.0722 31.9999 14.7296 31.9999ZM14.7296 9.21859C10.1216 9.21859 6.37288 14.0299 6.37288 19.9433C6.37288 25.8559 10.1216 30.6666 14.7296 30.6666C19.3369 30.6666 23.0856 25.8559 23.0856 19.9433C23.0856 14.0299 19.3369 9.21859 14.7296 9.21859Z" fill="black"/>
<path d="M14.7297 18.2441C14.3617 18.2441 14.063 17.9461 14.063 17.5774V12.4054C14.063 12.0374 14.3617 11.7388 14.7297 11.7388C15.0977 11.7388 15.3963 12.0374 15.3963 12.4054V17.5774C15.3963 17.9461 15.0977 18.2441 14.7297 18.2441Z" fill="black"/>
<path d="M14.7292 8.43067C14.3859 8.43067 14.0939 8.16667 14.0652 7.81867C13.9886 6.89067 14.2279 6.128 14.7752 5.55C16.0059 4.25133 18.4639 4.322 20.0919 4.36933C20.3086 4.37533 20.5106 4.38133 20.6906 4.38333L21.2359 4.39C22.5932 4.41133 23.2132 4.422 24.3239 3.542C25.4999 2.60467 25.6279 2.13067 25.6279 0.666667C25.6279 0.298667 25.9259 0 26.2946 0C26.6632 0 26.9612 0.298667 26.9612 0.666667C26.9612 2.41467 26.7099 3.34533 25.1539 4.58533C23.6692 5.76333 22.6406 5.74533 21.2152 5.724L20.6799 5.71733C20.4892 5.71533 20.2786 5.70933 20.0539 5.70267C18.7466 5.66533 16.5639 5.602 15.7432 6.468C15.4639 6.76267 15.3499 7.16867 15.3946 7.71C15.4246 8.07667 15.1519 8.39867 14.7846 8.42933C14.7659 8.43 14.7472 8.43067 14.7292 8.43067Z" fill="black"/>
</svg>
