<svg width="32" height="32" viewBox="0 0 32 32" fill="none" xmlns="http://www.w3.org/2000/svg">
<path d="M21.4595 23.4408C14.6882 23.4408 9.18018 17.8582 9.18018 10.9955C9.18018 7.94417 10.3155 4.9915 12.3768 2.6815L12.8182 2.1875L31.2548 18.4382L30.8448 18.9355C28.4842 21.7988 25.0635 23.4408 21.4595 23.4408ZM12.9448 4.07617C11.3728 6.0575 10.5135 8.49017 10.5135 10.9955C10.5135 17.1222 15.4242 22.1075 21.4595 22.1075C24.4548 22.1075 27.3108 20.8275 29.3915 18.5735L12.9448 4.07617Z" fill="black"/>
<path d="M21.3912 31.9988H0.66652C0.401187 31.9988 0.16052 31.8414 0.0551868 31.5968C-0.0508131 31.3534 -0.00147982 31.0701 0.18052 30.8761L8.73185 21.7408C8.96452 21.4928 9.34585 21.4588 9.61852 21.6634L21.7919 30.7988C22.0212 30.9714 22.1145 31.2708 22.0239 31.5428C21.9325 31.8154 21.6785 31.9988 21.3912 31.9988ZM2.20385 30.6654H19.3919L9.29585 23.0888L2.20385 30.6654Z" fill="black"/>
<path d="M23.6588 9.32668C23.4928 9.32668 23.3262 9.26535 23.1975 9.14068C22.9322 8.88602 22.9235 8.46335 23.1781 8.19802L30.8522 0.206684C31.1075 -0.0579823 31.5302 -0.0679823 31.7948 0.188018C32.0602 0.442684 32.0688 0.865351 31.8142 1.13068L24.1402 9.12202C24.0095 9.25802 23.8341 9.32668 23.6588 9.32668Z" fill="black"/>
</svg>
