<svg width="32" height="32" viewBox="0 0 32 32" fill="none" xmlns="http://www.w3.org/2000/svg">
<path d="M19.4773 31.227L17.5596 19.3037L16.2432 19.5154L18.1609 31.4387L19.4773 31.227Z" fill="black"/>
<path d="M12.1166 4.39306L11.9043 3.07666L6.70386 3.91522L6.91613 5.23162L12.1166 4.39306Z" fill="black"/>
<path d="M21.9252 2.81298L21.7129 1.49658L16.5151 2.33472L16.7274 3.65112L21.9252 2.81298Z" fill="black"/>
<path d="M15.5176 6.646L15.1582 4.41602L13.8418 4.62815L14.2012 6.85813L15.5176 6.646Z" fill="black"/>
<path d="M14.2227 5.58498C12.6833 5.58498 11.4307 4.33231 11.4307 2.79298C11.4307 1.25364 12.6833 0.000976562 14.2227 0.000976562C15.7627 0.000976562 17.0147 1.25364 17.0147 2.79298C17.0147 4.33231 15.7627 5.58498 14.2227 5.58498ZM14.2227 1.33431C13.418 1.33431 12.764 1.98831 12.764 2.79298C12.764 3.59764 13.418 4.25164 14.2227 4.25164C15.0273 4.25164 15.6813 3.59764 15.6813 2.79298C15.6813 1.98831 15.0273 1.33431 14.2227 1.33431Z" fill="black"/>
<path d="M14.8532 27.9209C11.8106 27.9209 9.30724 26.0842 8.8999 23.5542L7.1579 12.7442C6.92724 11.3115 7.3859 9.85955 8.44924 8.65755C9.4799 7.49221 10.9592 6.70421 12.6139 6.43755L16.8966 5.74755C17.2959 5.68355 17.7006 5.65088 18.0999 5.65088C21.1419 5.65088 23.6466 7.48888 24.0579 10.0215L25.7979 20.8315C26.2179 23.4409 24.3392 25.9942 21.3299 26.9035C21.1452 26.9602 20.9472 26.9322 20.7839 26.8309C20.6212 26.7295 20.5099 26.5615 20.4792 26.3722L19.4372 19.8969C19.2766 18.9009 18.3192 18.1835 17.2852 18.3422L16.2019 18.5182C15.1799 18.6835 14.4819 19.6482 14.6466 20.6702L15.6892 27.1455C15.7199 27.3355 15.6666 27.5295 15.5439 27.6775C15.4212 27.8255 15.2406 27.9135 15.0479 27.9182L14.8532 27.9209ZM18.0992 6.98488C17.7706 6.98488 17.4372 7.01155 17.1086 7.06488L12.8252 7.75488C11.4739 7.97221 10.2746 8.60688 9.4479 9.54154C8.6539 10.4389 8.30857 11.5009 8.47457 12.5322L10.2166 23.3422C10.4932 25.0595 12.1432 26.3469 14.2432 26.5569L13.3292 20.8822C13.0479 19.1355 14.2406 17.4842 15.9879 17.2015L17.0726 17.0255C18.8379 16.7402 20.4779 17.9802 20.7532 19.6842L21.6666 25.3582C23.5752 24.5009 24.7566 22.7489 24.4819 21.0435L22.7419 10.2342C22.4352 8.35155 20.4839 6.98488 18.0992 6.98488Z" fill="black"/>
</svg>
