<svg width="32" height="32" viewBox="0 0 32 32" fill="none" xmlns="http://www.w3.org/2000/svg">
<g clip-path="url(#clip0)">
<path d="M30.405 31.9996H1.59637C0.669039 31.9996 -0.0849609 31.2463 -0.0849609 30.3196V9.83496C-0.0849609 8.9083 0.669039 8.1543 1.59637 8.1543H1.80704L16.001 18.1416L30.193 8.1543H30.4037C31.331 8.1543 32.0844 8.9083 32.0844 9.83496V30.3196C32.085 30.767 31.9104 31.189 31.5937 31.5063C31.2764 31.8243 30.8544 31.9996 30.405 31.9996ZM1.43904 9.52563C1.32637 9.58296 1.24837 9.7003 1.24837 9.83496V30.3196C1.24837 30.5103 1.40437 30.6663 1.59637 30.6663H30.405C30.5964 30.6663 30.7524 30.511 30.7524 30.3196L30.7517 9.8343C30.7517 9.69963 30.6744 9.5823 30.5617 9.52496L16.001 19.7716L1.43904 9.52563Z" fill="black"/>
<path d="M27.9652 10.7813H26.6318V1.68067C26.6318 1.48933 26.4758 1.33333 26.2845 1.33333H5.71516C5.52382 1.33333 5.36849 1.48933 5.36849 1.68067V10.7813H4.03516V1.68067C4.03516 0.754 4.78849 0 5.71516 0H26.2845C27.2118 0 27.9652 0.754 27.9652 1.68067V10.7813Z" fill="black"/>
<path d="M21.7345 6.03125H10.2651V7.36458H21.7345V6.03125Z" fill="black"/>
<path d="M21.7345 10.085H10.2651V11.4183H21.7345V10.085Z" fill="black"/>
</g>
<defs>
<clipPath id="clip0">
<rect width="32" height="32" fill="white"/>
</clipPath>
</defs>
</svg>
