<svg width="32" height="32" viewBox="0 0 32 32" fill="none" xmlns="http://www.w3.org/2000/svg">
<g clip-path="url(#clip0)">
<path d="M22.8023 32.0001H9.197C7.87833 32.0001 6.80566 30.7347 6.80566 29.1787V25.2294C6.80566 23.6727 7.87833 22.4067 9.197 22.4067H22.8023C24.1217 22.4067 25.1943 23.6727 25.1943 25.2294V29.1787C25.1943 30.7347 24.1217 32.0001 22.8023 32.0001ZM9.197 23.7394C8.62366 23.7394 8.139 24.4214 8.139 25.2287V29.1781C8.139 29.9847 8.62366 30.6661 9.197 30.6661H22.8023C23.3757 30.6661 23.861 29.9847 23.861 29.1781V25.2287C23.861 24.4214 23.3757 23.7394 22.8023 23.7394H9.197Z" fill="black"/>
<path d="M19.1956 23.7393H13.2323C11.5503 23.7393 10.1816 22.4747 10.1816 20.92V10.1407C10.1816 8.58534 11.5503 7.31934 13.2323 7.31934H19.1956C20.879 7.31934 22.249 8.58467 22.249 10.1407V20.92C22.249 22.4747 20.879 23.7393 19.1956 23.7393ZM13.2323 8.65267C12.3016 8.65267 11.515 9.334 11.515 10.1407V20.92C11.515 21.7393 12.2856 22.406 13.2323 22.406H19.1956C20.1443 22.406 20.9156 21.7393 20.9156 20.92V10.1407C20.9156 9.32067 20.1443 8.65267 19.1956 8.65267H13.2323Z" fill="black"/>
<path d="M18.4944 8.27081C18.1258 8.27081 17.8278 7.97214 17.8278 7.60414V1.93614L14.6004 4.16014V7.60414C14.6004 7.97214 14.3018 8.27081 13.9338 8.27081C13.5658 8.27081 13.2671 7.97214 13.2671 7.60414V3.81014C13.2671 3.59081 13.3751 3.38547 13.5558 3.26147L18.1164 0.118139C18.3204 -0.0218615 18.5858 -0.0385282 18.8044 0.0768052C19.0238 0.192139 19.1611 0.418805 19.1611 0.666805V7.60414C19.1611 7.97214 18.8631 8.27081 18.4944 8.27081Z" fill="black"/>
</g>
<defs>
<clipPath id="clip0">
<rect width="32" height="32" fill="white"/>
</clipPath>
</defs>
</svg>
