<svg width="32" height="32" viewBox="0 0 32 32" fill="none" xmlns="http://www.w3.org/2000/svg">
<g clip-path="url(#clip0)">
<path d="M25.3743 32C23.4623 32 21.653 31.244 20.281 29.8713L2.13032 11.7187C0.802317 10.3913 0.0469838 8.64067 0.00298376 6.79067C-0.0410162 4.92867 0.63965 3.198 1.91965 1.918C3.15698 0.681333 4.82765 0 6.62498 0C8.53698 0 10.3463 0.756667 11.7203 2.13L29.871 20.2807C32.631 23.0407 32.7257 27.4367 30.0817 30.0813C28.8437 31.3187 27.1723 32 25.3743 32ZM6.62498 1.33333C5.18365 1.33333 3.84765 1.876 2.86232 2.86133C1.84232 3.88133 1.30032 5.26533 1.33565 6.75933C1.37165 8.26533 1.98832 9.692 3.07232 10.776L21.223 28.9287C22.3443 30.0493 23.8183 30.6667 25.3743 30.6667C26.8163 30.6667 28.153 30.124 29.1383 29.1387C31.2623 27.014 31.1677 23.4633 28.9277 21.2233L10.777 3.07267C9.65498 1.95133 8.18098 1.33333 6.62498 1.33333Z" fill="black"/>
<path d="M20.7758 12.1684L19.833 11.2256L11.2257 19.8329L12.1685 20.7757L20.7758 12.1684Z" fill="black"/>
</g>
<defs>
<clipPath id="clip0">
<rect width="32" height="32" fill="white"/>
</clipPath>
</defs>
</svg>
