<svg width="32" height="32" viewBox="0 0 32 32" fill="none" xmlns="http://www.w3.org/2000/svg">
<g clip-path="url(#clip0)">
<path d="M16 28.7793C15.9313 28.7793 15.8627 28.7686 15.7967 28.7473L0.463333 23.8299C0.187333 23.7413 0 23.4853 0 23.1953V8.98728C0 8.77461 0.102 8.57395 0.274 8.44861C0.446 8.32328 0.668667 8.28661 0.870667 8.35261L16.204 13.2699C16.48 13.3586 16.6667 13.6146 16.6667 13.9046V28.1126C16.6667 28.3253 16.5653 28.526 16.3927 28.6513C16.2773 28.736 16.1393 28.7793 16 28.7793ZM1.33333 22.7093L15.3333 27.1986V14.3906L1.33333 9.90128V22.7093Z" fill="black"/>
<path d="M16.0002 28.7793C15.8608 28.7793 15.7228 28.736 15.6075 28.6513C15.4355 28.526 15.3335 28.3253 15.3335 28.1126V13.9046C15.3335 13.6146 15.5208 13.3586 15.7968 13.2699L31.1302 8.35261C31.3335 8.28661 31.5548 8.32328 31.7268 8.44861C31.8988 8.57395 32.0002 8.77461 32.0002 8.98728V23.1953C32.0002 23.4853 31.8135 23.7413 31.5375 23.8299L16.2042 28.7473C16.1375 28.7686 16.0688 28.7793 16.0002 28.7793ZM16.6668 14.3906V27.198L30.6668 22.7086V9.90128L16.6668 14.3906Z" fill="black"/>
<path d="M16 14.7063C15.9293 14.7063 15.8587 14.695 15.7907 14.6723L0.457333 9.597C0.184 9.507 0 9.25167 0 8.96433C0 8.677 0.184 8.42167 0.457333 8.33167L15.7907 3.25567C15.9267 3.211 16.074 3.211 16.21 3.25567L31.5433 8.33167C31.816 8.42167 32 8.677 32 8.96433C32 9.25167 31.816 9.507 31.5427 9.597L16.2093 14.6723C16.1413 14.695 16.0707 14.7063 16 14.7063ZM2.788 8.96433L16 13.3377L29.2113 8.96433L16 4.59033L2.788 8.96433Z" fill="black"/>
<path d="M11.3371 15.7262L4.25879 13.4058L3.84346 14.6727L10.9218 16.9932L11.3371 15.7262Z" fill="black"/>
</g>
<defs>
<clipPath id="clip0">
<rect width="32" height="32" fill="white"/>
</clipPath>
</defs>
</svg>
