<svg width="32" height="32" viewBox="0 0 32 32" fill="none" xmlns="http://www.w3.org/2000/svg">
<g clip-path="url(#clip0)">
<path d="M7.08449 32.0002C5.29649 32.0002 3.62049 31.3088 2.36449 30.0522L1.94715 29.6342C0.691822 28.3782 0.000488281 26.7028 0.000488281 24.9148C0.000488281 23.1275 0.691822 21.4522 1.94782 20.1962L12.7698 9.3735L13.7125 10.3162L2.89049 21.1388C0.807822 23.2208 0.807822 26.6095 2.89049 28.6915L3.30782 29.1095C4.31182 30.1142 5.65316 30.6668 7.08449 30.6668C8.51582 30.6668 9.85715 30.1142 10.8605 29.1095L29.1085 10.8622C31.1905 8.77949 31.1905 5.3915 29.1085 3.3095L28.6898 2.8895C28.6432 2.8435 28.5952 2.7975 28.5472 2.75283C26.9132 2.34683 25.5945 4.09016 25.5818 4.10816C25.1598 4.7235 25.0092 5.34083 25.1345 5.97616C25.4038 7.34016 26.8792 8.33816 26.8945 8.34816L27.5818 8.79683L20.7832 15.5935L13.6658 8.47483L20.1952 1.94683C22.5785 -0.436504 26.3765 -0.666505 29.0285 1.41016C29.2398 1.57883 29.4398 1.75483 29.6312 1.94483L30.0518 2.36683C31.3072 3.6215 31.9985 5.2975 31.9985 7.08549C31.9985 8.8735 31.3072 10.5488 30.0512 11.8048L11.8038 30.0522C10.5485 31.3088 8.87249 32.0002 7.08449 32.0002ZM15.5518 8.4755L20.7832 13.7082L25.5292 8.96349C24.9238 8.42149 24.0705 7.46749 23.8265 6.23483C23.6305 5.24283 23.8558 4.26683 24.4965 3.33416C24.5572 3.25216 25.3898 2.14883 26.6865 1.62616C24.7952 0.962829 22.6238 1.40416 21.1378 2.89016L15.5518 8.4755Z" fill="black"/>
<path d="M7.10355 31.893C3.24622 31.893 0.108887 28.7556 0.108887 24.899C0.108887 21.0423 3.24689 17.9043 7.10355 17.9043C10.9602 17.9043 14.0982 21.0423 14.0982 24.899C14.0982 28.7556 10.9602 31.893 7.10355 31.893ZM7.10355 19.237C3.98155 19.237 1.44222 21.777 1.44222 24.8983C1.44222 28.0196 3.98222 30.559 7.10355 30.559C10.2249 30.559 12.7649 28.019 12.7649 24.8983C12.7649 21.777 10.2249 19.237 7.10355 19.237Z" fill="black"/>
</g>
<defs>
<clipPath id="clip0">
<rect width="32" height="32" fill="white"/>
</clipPath>
</defs>
</svg>
