<svg width="32" height="32" viewBox="0 0 32 32" fill="none" xmlns="http://www.w3.org/2000/svg">
<g clip-path="url(#clip0)">
<path d="M25.0026 20.7905H6.22461V14.7378H25.0026V20.7905ZM7.55794 19.4571H23.6693V16.0711H7.55794V19.4571Z" fill="black"/>
<path d="M21.5361 31.9995H9.69009L7.71143 19.4575H23.5148L21.5361 31.9995ZM10.8294 30.6662H20.3968L21.9548 20.7909H9.27143L10.8294 30.6662Z" fill="black"/>
<path d="M18.0117 14.5541C17.9337 14.5541 17.8564 14.5528 17.779 14.5488L17.6657 14.5501C17.2857 14.5501 16.8977 14.2595 16.8897 13.7041C16.8784 13.0195 16.8037 12.4368 16.6537 11.8721C16.457 11.1288 16.3904 10.3415 16.4517 9.46481C16.5397 8.19748 17.4744 6.64148 18.6284 5.84615C19.859 4.99748 21.293 4.65548 22.6797 4.32481C24.013 4.00681 25.273 3.70681 26.293 2.99081L27.1104 2.41748L27.327 3.39215C27.439 3.89681 27.397 4.45681 27.357 4.99815C27.3397 5.23148 27.3217 5.45815 27.3217 5.66281C27.3217 5.85215 27.3257 6.04348 27.3297 6.23615C27.3444 7.03348 27.361 7.85748 27.139 8.67148C26.7337 10.1615 25.5217 12.1808 23.821 13.0928C22.7837 13.6495 21.5697 13.9328 20.4997 14.1821L20.3224 14.2235C19.7637 14.3548 19.0597 14.5021 18.369 14.5428H18.3664C18.247 14.5501 18.1284 14.5541 18.0117 14.5541ZM26.043 4.66681C25.069 5.12548 24.0157 5.37681 22.9884 5.62215C21.6624 5.93815 20.4097 6.23681 19.3844 6.94415C18.561 7.51215 17.8424 8.68415 17.7824 9.55748C17.731 10.2861 17.7837 10.9315 17.9424 11.5301C18.083 12.0581 18.1697 12.6135 18.2057 13.2161C18.819 13.1901 19.489 13.0495 20.0184 12.9248L20.197 12.8828C21.2357 12.6408 22.309 12.3901 23.191 11.9168C24.4837 11.2235 25.509 9.58281 25.8524 8.31948C26.0237 7.69081 26.0104 6.99615 25.9964 6.26081C25.9924 6.05948 25.9884 5.85948 25.9884 5.66148C25.9884 5.42681 26.007 5.16615 26.027 4.89748C26.0324 4.82215 26.0384 4.74415 26.043 4.66681Z" fill="black"/>
<path d="M12.6794 13.4486H12.4647L12.3874 13.4006C11.5481 13.2446 10.6721 12.8466 9.99273 12.5119L9.81406 12.4239C8.83339 11.9406 7.72139 11.3926 6.84073 10.6206C5.39206 9.35256 4.66739 7.11056 4.60739 5.56456C4.57273 4.7179 4.77673 3.91256 4.97273 3.13323C5.01873 2.9519 5.06406 2.7719 5.10606 2.59256C5.15206 2.39256 5.18673 2.16523 5.22273 1.93256C5.30473 1.3979 5.38939 0.845896 5.61139 0.379896L6.04139 -0.523438L6.70939 0.221229C7.54273 1.1499 8.70206 1.72656 9.93006 2.33723C11.2061 2.97256 12.5261 3.62923 13.5334 4.73323C14.4761 5.76723 15.0367 7.4939 14.8374 8.74856C14.6961 9.6239 14.4541 10.3752 14.0981 11.0472C13.8227 11.5679 13.6187 12.1186 13.4554 12.7806C13.3321 13.2746 12.9601 13.4486 12.6794 13.4486ZM6.57539 1.91123C6.56339 1.9859 6.55206 2.06056 6.54073 2.13523C6.49939 2.40323 6.45873 2.6639 6.40473 2.89523C6.36139 3.0819 6.31339 3.27056 6.26606 3.45923C6.09206 4.14656 5.91273 4.85723 5.93873 5.51323C5.98939 6.8239 6.61739 8.65456 7.71806 9.61856C8.46739 10.2752 9.45139 10.7599 10.4021 11.2286L10.5814 11.3172C11.0814 11.5639 11.6981 11.8479 12.2821 12.0092C12.4514 11.4332 12.6614 10.9112 12.9194 10.4239C13.2061 9.8819 13.4027 9.26523 13.5201 8.53723C13.6574 7.67456 13.2214 6.37056 12.5481 5.6319C11.7081 4.7119 10.5561 4.13856 9.33539 3.53123C8.39006 3.06056 7.42139 2.57856 6.57539 1.91123Z" fill="black"/>
</g>
<defs>
<clipPath id="clip0">
<rect width="32" height="32" fill="white"/>
</clipPath>
</defs>
</svg>
