<svg width="32" height="32" viewBox="0 0 32 32" fill="none" xmlns="http://www.w3.org/2000/svg">
<g clip-path="url(#clip0)">
<path d="M7.134 28.0476C3.2 28.0463 0 25.1243 0 21.5336C0 17.9436 3.2 15.0229 7.134 15.0229C11.0693 15.0229 14.2707 17.9436 14.2707 21.5336C14.2707 25.1249 11.0693 28.0476 7.134 28.0476ZM7.134 16.3563C3.93533 16.3563 1.33333 18.6789 1.33333 21.5336C1.33333 24.3889 3.93533 26.7136 7.13467 26.7143C10.334 26.7143 12.938 24.3903 12.938 21.5336C12.9373 18.6789 10.334 16.3563 7.134 16.3563Z" fill="black"/>
<path d="M24.8648 28.048C20.9308 28.048 17.7295 25.1253 17.7295 21.534C17.7295 17.9427 20.9308 15.02 24.8648 15.02C28.7988 15.02 32.0002 17.942 32.0002 21.534C32.0002 25.126 28.7988 28.048 24.8648 28.048ZM24.8648 16.3527C21.6655 16.3527 19.0628 18.6767 19.0628 21.5334C19.0628 24.39 21.6655 26.714 24.8648 26.714C28.0642 26.714 30.6668 24.3907 30.6668 21.534C30.6668 18.6774 28.0642 16.3527 24.8648 16.3527Z" fill="black"/>
<path d="M18.9305 18.919C18.7598 18.919 18.5892 18.8537 18.4592 18.7237C16.0325 16.299 13.6418 18.625 13.5405 18.725C13.2792 18.985 12.8578 18.983 12.5978 18.723C12.3378 18.4617 12.3385 18.0397 12.5998 17.7797C13.7778 16.607 16.7158 15.0977 19.4018 17.781C19.6625 18.041 19.6625 18.463 19.4018 18.7237C19.2718 18.8537 19.1012 18.919 18.9305 18.919Z" fill="black"/>
<path d="M1.2927 19.5848C1.2107 19.5848 1.1267 19.5701 1.04603 19.5374C0.704033 19.4014 0.537366 19.0134 0.673366 18.6714L5.86937 5.63942C5.88603 5.59742 5.9067 5.55809 5.9307 5.52076C5.9687 5.46276 6.88137 4.09542 8.42137 3.96276C9.47603 3.86942 10.512 4.36542 11.508 5.43076C11.7594 5.69942 11.7454 6.12142 11.4767 6.37342C11.2074 6.62342 10.786 6.61076 10.534 6.34209C9.83537 5.59409 9.1667 5.24076 8.54403 5.29142C7.77203 5.35342 7.2167 6.02409 7.07803 6.20809L1.9127 19.1648C1.8087 19.4261 1.55803 19.5848 1.2927 19.5848Z" fill="black"/>
<path d="M30.7053 19.585C30.4406 19.585 30.1906 19.4263 30.0859 19.165L24.9199 6.20763C24.7846 6.02697 24.2286 5.35297 23.4539 5.29097C22.8386 5.2463 22.1626 5.5943 21.4639 6.3423C21.2113 6.61097 20.7893 6.6243 20.5219 6.37363C20.2533 6.1223 20.2386 5.7003 20.4899 5.43097C21.4846 4.3663 22.5246 3.87097 23.5766 3.96297C25.1173 4.09563 26.0299 5.46297 26.0679 5.52097C26.0919 5.5583 26.1126 5.59763 26.1293 5.63963L31.3246 18.6716C31.4613 19.0136 31.2946 19.4016 30.9519 19.5376C30.8713 19.5696 30.7873 19.585 30.7053 19.585Z" fill="black"/>
</g>
<defs>
<clipPath id="clip0">
<rect width="32" height="32" fill="white"/>
</clipPath>
</defs>
</svg>
