<svg width="32" height="32" viewBox="0 0 32 32" fill="none" xmlns="http://www.w3.org/2000/svg">
<g clip-path="url(#clip0)">
<path d="M15.4439 32.0005H4.7059C4.35724 32.0005 4.06724 31.7319 4.04124 31.3839L2.2099 7.18786C2.1959 7.00252 2.2599 6.82052 2.3859 6.68452C2.5119 6.54852 2.68924 6.47119 2.87457 6.47119H17.2759C17.4612 6.47119 17.6386 6.54852 17.7646 6.68452C17.8906 6.82052 17.9546 7.00319 17.9406 7.18786L16.1086 31.3839C16.0826 31.7319 15.7926 32.0005 15.4439 32.0005ZM5.3239 30.6672H14.8252L16.5566 7.80386H3.5939L5.3239 30.6672Z" fill="black"/>
<path d="M5.57379 17.9808C4.85845 17.9808 4.10979 17.8294 3.34912 17.5241L3.84512 16.2868C5.32912 16.8808 6.67112 16.7401 7.72712 15.8794L7.98579 15.6674C9.02179 14.8161 10.3111 13.7574 11.5278 13.3168C13.2738 12.6841 15.2905 13.1194 17.0585 14.5114L16.2338 15.5588C14.8351 14.4588 13.2871 14.0988 11.9818 14.5701C10.9811 14.9328 9.73912 15.9528 8.83246 16.6974L8.56979 16.9121C7.70045 17.6214 6.67579 17.9808 5.57379 17.9808Z" fill="black"/>
<path d="M10.1774 14.6264L5.58404 1.52645L0.896035 3.24845L0.436035 1.99712L5.75937 0.041785C5.92737 -0.0195483 6.11204 -0.0115483 6.27404 0.0644516C6.43537 0.140452 6.55937 0.278452 6.6187 0.446452L11.436 14.1851L10.1774 14.6264Z" fill="black"/>
<path d="M28.5852 32.0003H21.2739C19.3912 32.0003 17.8599 30.3429 17.8599 28.3049V27.1549C17.8599 26.7863 18.1579 26.4883 18.5265 26.4883H31.3325C31.7012 26.4883 31.9992 26.7863 31.9992 27.1549V28.3049C31.9992 30.3429 30.4679 32.0003 28.5852 32.0003ZM19.1932 27.8216V28.3049C19.1932 29.6069 20.1265 30.6669 21.2739 30.6669H28.5852C29.7325 30.6669 30.6659 29.6069 30.6659 28.3049V27.8216H19.1932Z" fill="black"/>
<path d="M31.3325 25.7838H18.5265C18.1579 25.7838 17.8599 25.4858 17.8599 25.1172C17.8599 21.6445 21.0319 18.8198 24.9299 18.8198C28.8279 18.8198 31.9992 21.6445 31.9992 25.1172C31.9992 25.4858 31.7012 25.7838 31.3325 25.7838ZM19.2445 24.4505H30.6145C30.2372 22.0272 27.8319 20.1532 24.9305 20.1532C22.0279 20.1532 19.6225 22.0272 19.2445 24.4505Z" fill="black"/>
<path d="M14.1431 17.3489L12.8115 17.2798L12.1926 29.2123L13.5242 29.2813L14.1431 17.3489Z" fill="black"/>
<path d="M27.4132 23.5173C26.1758 22.4686 24.5618 22.4959 24.5518 22.4959L24.5132 21.1626C24.5932 21.1639 26.6385 21.1146 28.2752 22.4993L27.4132 23.5173Z" fill="black"/>
</g>
<defs>
<clipPath id="clip0">
<rect width="32" height="32" fill="white"/>
</clipPath>
</defs>
</svg>
