<svg width="32" height="32" viewBox="0 0 32 32" fill="none" xmlns="http://www.w3.org/2000/svg">
<path d="M16.7015 20.8756C14.7269 20.8756 13.3322 19.9983 12.6289 18.5296H18.0789V17.465H12.2642C12.1702 17.0283 12.1015 16.5663 12.1015 16.0623C12.1015 15.705 12.1329 15.3703 12.1782 15.0483H18.0795V13.9823H12.4315C13.0849 12.1403 14.6615 11.1243 16.7729 11.1243C17.7675 11.1243 18.6022 11.339 19.1895 11.6196L19.5622 10.359C19.1535 10.1476 18.2109 9.82764 16.7229 9.82764C13.7689 9.82764 11.5882 11.4463 10.8042 13.9816H8.91553V15.0476H10.5629C10.5122 15.393 10.4649 15.7423 10.4649 16.115C10.4649 16.591 10.5122 17.0396 10.5849 17.4636H8.91619V18.529H10.8675C11.7009 20.899 13.7875 22.1703 16.3802 22.1703C17.8389 22.1703 18.9769 21.8856 19.5469 21.605L19.2262 20.3776C18.6009 20.681 17.6449 20.8756 16.7015 20.8756Z" fill="black"/>
<path d="M16 32C7.178 32 0 24.822 0 16C0 7.178 7.178 0 16 0C24.822 0 32 7.178 32 16C32 24.822 24.822 32 16 32ZM16 1.33333C7.91267 1.33333 1.33333 7.91267 1.33333 16C1.33333 24.0873 7.91267 30.6667 16 30.6667C24.0873 30.6667 30.6667 24.0873 30.6667 16C30.6667 7.91267 24.0873 1.33333 16 1.33333Z" fill="black"/>
</svg>
