<svg width="32" height="32" viewBox="0 0 32 32" fill="none" xmlns="http://www.w3.org/2000/svg">
<g clip-path="url(#clip0)">
<path d="M28.474 1.45882C28.976 1.45882 29.4573 1.69482 29.9433 2.18149C31.368 3.60682 30.2967 4.94149 29.9547 5.29749L5.964 28.7362L1.952 29.9135L3.11067 25.8882L26.818 2.18216C26.824 2.17549 27.5967 1.45882 28.474 1.45882ZM28.4733 0.125488C26.988 0.125488 25.8753 1.23882 25.8753 1.23882L1.92533 25.1882L0 31.8755L6.658 29.9228L30.886 6.25149C30.886 6.25149 33.3927 3.74616 30.886 1.23882C30.0507 0.404155 29.216 0.125488 28.4733 0.125488Z" fill="black"/>
<path d="M6.94893 28.6739L2.95166 24.7148L2.01292 25.6627L6.0102 29.6217L6.94893 28.6739Z" fill="black"/>
<path d="M29.7211 6.55918L25.4517 2.25098L24.5046 3.18951L28.774 7.49772L29.7211 6.55918Z" fill="black"/>
</g>
<defs>
<clipPath id="clip0">
<rect width="32" height="32" fill="white"/>
</clipPath>
</defs>
</svg>
