<svg width="32" height="32" viewBox="0 0 32 32" fill="none" xmlns="http://www.w3.org/2000/svg">
<path d="M5.308 10.2907H4.06667C1.824 10.2907 0 8.46734 0 6.22667V0.736003C0 0.368003 0.298667 0.0693359 0.666667 0.0693359C1.03467 0.0693359 1.33333 0.368003 1.33333 0.736003V6.22667C1.33333 7.73267 2.55933 8.95734 4.06667 8.95734H5.308C6.814 8.95734 8.03933 7.73267 8.03933 6.22667V0.736003C8.03933 0.368003 8.338 0.0693359 8.706 0.0693359C9.074 0.0693359 9.37267 0.368003 9.37267 0.736003V6.22667C9.37267 8.46734 7.54933 10.2907 5.308 10.2907Z" fill="black"/>
<path d="M4.68571 31.9307C4.31771 31.9307 4.01904 31.6327 4.01904 31.264V0.736003C4.01904 0.368003 4.31771 0.0693359 4.68571 0.0693359C5.05371 0.0693359 5.35238 0.368003 5.35238 0.736003V31.264C5.35238 31.6327 5.05371 31.9307 4.68571 31.9307Z" fill="black"/>
<path d="M17.3507 31.9307C16.9821 31.9307 16.6841 31.6327 16.6841 31.264V14.652C16.6841 14.284 16.9821 13.9854 17.3507 13.9854C17.7194 13.9854 18.0174 14.284 18.0174 14.652V31.264C18.0174 31.6327 17.7194 31.9307 17.3507 31.9307Z" fill="black"/>
<path d="M31.333 31.9307C30.9643 31.9307 30.6663 31.6327 30.6663 31.264V16.1373L26.1923 16.0427C25.851 16.0353 25.571 15.772 25.5423 15.432C24.4283 2.18533 30.8737 0.174667 31.1483 0.095334C31.3483 0.0366674 31.5657 0.0766673 31.7337 0.203334C31.9017 0.329334 31.9997 0.526667 31.9997 0.736001V15.4813C31.9997 15.4833 31.9997 15.4853 31.9997 15.4873V31.2647C31.9997 31.6327 31.7017 31.9307 31.333 31.9307ZM26.8257 14.722L30.6663 14.804V1.838C29.1603 2.88267 26.237 6.052 26.8257 14.722Z" fill="black"/>
<path d="M17.35 14.8373C14.2387 14.8373 11.708 11.5247 11.708 7.45334C11.708 3.382 14.2393 0.0693359 17.35 0.0693359C20.462 0.0693359 22.9933 3.382 22.9933 7.45334C22.9933 11.5247 20.462 14.8373 17.35 14.8373ZM17.35 1.40267C14.974 1.40267 13.0413 4.11734 13.0413 7.45334C13.0413 10.7893 14.974 13.504 17.35 13.504C19.726 13.504 21.66 10.79 21.66 7.45334C21.66 4.11667 19.7267 1.40267 17.35 1.40267Z" fill="black"/>
</svg>
