<svg width="32" height="32" viewBox="0 0 32 32" fill="none" xmlns="http://www.w3.org/2000/svg">
<path d="M30.4647 27.3057H1.53533C0.688667 27.3057 0 26.6177 0 25.7724V6.53369C0 5.68769 0.688667 4.99902 1.53533 4.99902H30.4653C31.312 4.99902 32 5.68769 32 6.53369V25.7724C32 26.6177 31.3113 27.3057 30.4647 27.3057ZM1.53533 6.33236C1.424 6.33236 1.33333 6.42236 1.33333 6.53369V25.7724C1.33333 25.883 1.424 25.973 1.53533 25.973H30.4647C30.576 25.973 30.6667 25.883 30.6667 25.7724V6.53369C30.6667 6.42236 30.576 6.33236 30.4653 6.33236H1.53533Z" fill="black"/>
<path d="M20.5923 17.439H4.48096V18.7723H20.5923V17.439Z" fill="black"/>
<path d="M13.4563 21.3447H4.48096V22.6781H13.4563V21.3447Z" fill="black"/>
</svg>
