<svg width="32" height="32" viewBox="0 0 32 32" fill="none" xmlns="http://www.w3.org/2000/svg">
<path d="M31.7376 7.13267H31.6683L31.6956 7.11867L16.193 0L0.265625 7.286L0.294292 7.29867V24.688L15.387 31.9533V32L15.439 31.9767L15.4496 31.982L15.4563 31.9687L31.7376 24.5273V7.13267ZM28.7463 7.146L25.395 8.74933L12.5383 3.088L16.193 1.41533L28.7463 7.146ZM8.22696 5.06L20.779 10.958L16.1863 13.1533L3.20496 7.286L8.22696 5.06ZM1.67229 23.8787V7.88733L15.6656 14.2747L15.671 30.53L1.67229 23.8787ZM17.0523 29.9933L17.073 14.2707L21.9443 11.874L21.977 19.566L26.1463 17.2767V9.77667L30.361 7.714V23.6973L17.0523 29.9933Z" fill="black"/>
</svg>
