<svg width="32" height="32" viewBox="0 0 32 32" fill="none" xmlns="http://www.w3.org/2000/svg">
<path d="M24.2382 31.8669H7.7629C5.5169 31.8669 3.68757 29.9209 3.6649 27.5196L1.74023 13.1383L3.06157 12.9609L4.99757 27.4736C4.99757 29.1609 6.23823 30.5336 7.7629 30.5336H24.2382C25.7622 30.5336 27.0022 29.1609 27.0022 27.4736L27.0082 27.3849L28.9389 12.9609L30.2602 13.1383L28.3362 27.5196C28.3129 29.9209 26.4836 31.8669 24.2382 31.8669Z" fill="black"/>
<path d="M30.6667 7.03939V12.9201H1.33333V7.03939H30.6667ZM30.6667 5.70605H1.33333C0.6 5.70605 0 6.30605 0 7.03939V12.9201C0 13.6534 0.6 14.2534 1.33333 14.2534H30.6667C31.4 14.2534 32 13.6534 32 12.9201V7.03939C32 6.30605 31.4 5.70605 30.6667 5.70605Z" fill="black"/>
<path d="M8.32752 7.10321C8.12419 7.10321 7.92352 7.01055 7.79286 6.83521L3.58619 1.19855C3.36552 0.903879 3.42686 0.485879 3.72152 0.265879C4.01752 0.045212 4.43486 0.106545 4.65419 0.401212L8.86086 6.03788C9.08152 6.33255 9.02019 6.75055 8.72552 6.97055C8.60619 7.05988 8.46619 7.10321 8.32752 7.10321Z" fill="black"/>
<path d="M23.6741 7.10321C23.5354 7.10321 23.3954 7.06054 23.2761 6.97054C22.9807 6.75054 22.9201 6.33254 23.1401 6.03787L27.3461 0.401206C27.5661 0.105873 27.9854 0.0445393 28.2787 0.265873C28.5741 0.485873 28.6347 0.903873 28.4147 1.19854L24.2087 6.83521C24.0781 7.01054 23.8767 7.10321 23.6741 7.10321Z" fill="black"/>
<path d="M11.7438 27.4087C11.3758 27.4087 11.0771 27.1107 11.0771 26.742V17.5207C11.0771 17.152 11.3758 16.854 11.7438 16.854C12.1118 16.854 12.4105 17.152 12.4105 17.5207V26.742C12.4105 27.1107 12.1118 27.4087 11.7438 27.4087Z" fill="black"/>
<path d="M20.256 27.4087C19.8874 27.4087 19.5894 27.1107 19.5894 26.742V17.5207C19.5894 17.152 19.8874 16.854 20.256 16.854C20.6247 16.854 20.9227 17.152 20.9227 17.5207V26.742C20.9227 27.1107 20.6247 27.4087 20.256 27.4087Z" fill="black"/>
</svg>
