<svg width="32" height="32" viewBox="0 0 32 32" fill="none" xmlns="http://www.w3.org/2000/svg">
<path d="M3.60123 27.4658L2.2959 27.1944C2.30457 27.1518 2.38923 26.7598 2.61723 26.1758L3.85857 26.6618C3.67057 27.1411 3.6019 27.4624 3.60123 27.4658Z" fill="black"/>
<path d="M21.3443 31.9081C20.4243 31.7001 19.6269 31.1368 18.9056 30.1841L19.9683 29.3795C20.4996 30.0801 21.0296 30.4701 21.6376 30.6075L21.3443 31.9081ZM24.2829 31.5894L23.7749 30.3561C24.4516 30.0775 25.0783 29.6135 25.5876 29.0141L26.6029 29.8775C25.9576 30.6381 25.1549 31.2301 24.2829 31.5894ZM17.5263 27.8488L17.2983 27.3968C16.9949 26.7941 16.6803 26.1695 16.3396 25.5781L17.4943 24.9115C17.8543 25.5361 18.1769 26.1768 18.4889 26.7975L18.7149 27.2441L17.5263 27.8488ZM27.9669 27.3861L26.6963 26.9834C26.9083 26.3128 27.0163 25.5914 27.0169 24.8401L27.0143 24.6448L28.3476 24.6081L28.3503 24.8408C28.3496 25.7301 28.2209 26.5861 27.9669 27.3861ZM4.65226 25.1395L3.54492 24.3975C4.08092 23.5975 4.72826 22.9101 5.46959 22.3555L6.26892 23.4221C5.64826 23.8861 5.10426 24.4641 4.65226 25.1395ZM14.9169 23.6161C14.3429 23.0221 13.7263 22.6055 13.0316 22.3415L13.5049 21.0955C14.3869 21.4301 15.1623 21.9515 15.8756 22.6895L14.9169 23.6161ZM8.36826 22.3634L7.97759 21.0888C8.82092 20.8301 9.74159 20.6888 10.7136 20.6681L10.7416 22.0014C9.89225 22.0188 9.09425 22.1408 8.36826 22.3634ZM26.6216 22.2661C26.3983 21.5194 26.0783 20.7581 25.6696 20.0041L26.8429 19.3701C27.2943 20.2041 27.6489 21.0501 27.8989 21.8835L26.6216 22.2661Z" fill="black"/>
<path d="M24.5595 18.2543C24.3815 18.011 24.1928 17.7663 23.9941 17.519L25.0321 16.6816C25.2448 16.9456 25.4455 17.207 25.6361 17.4676L24.5595 18.2543Z" fill="black"/>
<path d="M2.492 31.1715C1.118 31.1715 0 30.0288 0 28.6242C0 27.2195 1.118 26.0762 2.492 26.0762C3.86667 26.0762 4.984 27.2195 4.984 28.6242C4.984 30.0288 3.866 31.1715 2.492 31.1715ZM2.492 27.4088C1.85333 27.4088 1.33333 27.9542 1.33333 28.6242C1.33333 29.2935 1.85333 29.8382 2.492 29.8382C3.13067 29.8382 3.65067 29.2935 3.65067 28.6242C3.65067 27.9542 3.13067 27.4088 2.492 27.4088Z" fill="black"/>
<path d="M23.9207 18.3816C22.546 18.3816 21.4287 17.2383 21.4287 15.8336C21.4287 14.429 22.5467 13.2856 23.9207 13.2856C25.2947 13.2856 26.4127 14.4283 26.4127 15.8336C26.4127 17.239 25.2947 18.3816 23.9207 18.3816ZM23.9207 14.619C23.282 14.619 22.762 15.1636 22.762 15.8336C22.762 16.5036 23.282 17.0483 23.9207 17.0483C24.5594 17.0483 25.0794 16.5036 25.0794 15.8336C25.0794 15.1643 24.5594 14.619 23.9207 14.619Z" fill="black"/>
<path d="M24.6986 13.954H23.3652V0.666709C23.3652 0.432709 23.4879 0.216042 23.6879 0.0953755C23.8886 -0.0259578 24.1366 -0.0312912 24.3446 0.0780422L31.6459 3.95804C31.8772 4.08138 32.0146 4.32804 31.9979 4.58938C31.9812 4.85071 31.8132 5.07804 31.5679 5.17071L24.6972 7.77071V13.954H24.6986ZM24.6986 1.77604V6.34471L29.7199 4.44471L24.6986 1.77604Z" fill="black"/>
</svg>
