<svg width="32" height="32" viewBox="0 0 32 32" fill="none" xmlns="http://www.w3.org/2000/svg">
<g clip-path="url(#clip0)">
<path d="M15.6171 25.185C14.7065 25.185 13.7951 25.0717 12.9085 24.8477C6.60778 23.257 2.86978 16.4664 4.57512 9.70836C6.01845 3.99169 10.8745 -0.000976562 16.3851 -0.000976562C17.2951 -0.000976562 18.2071 0.112357 19.0945 0.336357C22.1551 1.10902 24.7071 3.11502 26.2791 5.98636C27.8431 8.84102 28.2505 12.211 27.4265 15.475C25.9845 21.1924 21.1278 25.185 15.6171 25.185ZM16.3851 1.33236C11.4858 1.33236 7.16112 4.91102 5.86845 10.0344C4.34245 16.0797 7.64712 22.145 13.2345 23.555C14.0151 23.7524 14.8171 23.8517 15.6171 23.8517C20.5158 23.8517 24.8405 20.273 26.1338 15.149C26.8751 12.2117 26.5118 9.18502 25.1105 6.62636C23.7178 4.08436 21.4658 2.30969 18.7678 1.62902C17.9871 1.43169 17.1858 1.33236 16.3851 1.33236Z" fill="black"/>
<path d="M7.67108 10.49L6.37842 10.1634C7.81442 4.47671 13.2971 0.940041 18.6057 2.27804L18.2791 3.57071C13.6871 2.41004 8.92708 5.51537 7.67108 10.49Z" fill="black"/>
<path d="M14.1998 28.0062C13.9358 28.0062 13.6812 27.9756 13.4412 27.9156C13.3265 27.8869 13.2098 27.8596 13.0918 27.8329C12.6412 27.7289 12.1312 27.6109 11.6798 27.3716C11.3412 27.1942 10.8198 26.7342 10.7472 26.1829L10.7285 26.0889L10.7412 25.9249C10.7665 25.7776 10.8425 25.3289 11.8112 24.5156C12.0638 24.3056 12.3345 24.1342 12.6652 23.9736L12.7698 23.9229C12.9952 23.8116 13.2758 23.6729 13.5758 23.6709C14.1445 23.6709 14.5532 24.1049 14.7025 24.2916C15.1405 24.8382 15.3498 25.4322 15.5525 26.0062C15.6078 26.1609 15.6625 26.3176 15.7225 26.4716C15.7952 26.6289 15.9452 26.9516 15.7605 27.3356C15.6272 27.6156 15.3552 27.8162 14.9745 27.9122C14.7305 27.9742 14.4692 28.0062 14.1998 28.0062ZM12.1365 26.0589C12.1892 26.1129 12.2552 26.1676 12.3025 26.1922C12.6018 26.3509 13.0032 26.4436 13.3918 26.5336C13.5192 26.5629 13.6452 26.5922 13.7672 26.6229C13.9472 26.6676 14.1672 26.6829 14.3725 26.6656C14.3465 26.5942 14.3212 26.5216 14.2958 26.4509C14.1225 25.9596 13.9585 25.4949 13.6625 25.1256C13.6238 25.0776 13.5858 25.0422 13.5572 25.0202C13.5105 25.0449 13.4172 25.0902 13.3612 25.1182L13.2365 25.1789C13.0125 25.2869 12.8338 25.3996 12.6672 25.5382C12.4098 25.7536 12.2352 25.9356 12.1365 26.0589Z" fill="black"/>
<path d="M13.3878 31.3714C13.2758 29.5188 14.7645 29.2254 15.7498 29.0314L15.8538 29.0114C16.8245 28.8181 17.4651 28.4868 17.5551 28.3221C17.8118 27.6154 17.2305 27.1788 15.7378 26.4081C14.9311 25.9914 14.2345 25.6314 13.9171 25.0554L15.0851 24.4121C15.2071 24.6334 15.8671 24.9748 16.3491 25.2234C17.6078 25.8734 19.5078 26.8548 18.8045 28.7874C18.4625 29.7228 16.9718 30.1488 16.1131 30.3194L16.0071 30.3408C14.8258 30.5734 14.6811 30.6801 14.7178 31.2914L13.3878 31.3714Z" fill="black"/>
</g>
<defs>
<clipPath id="clip0">
<rect width="32" height="32" fill="white"/>
</clipPath>
</defs>
</svg>
