<svg width="32" height="32" viewBox="0 0 32 32" fill="none" xmlns="http://www.w3.org/2000/svg">
<g clip-path="url(#clip0)">
<path d="M15.9489 15.3787C15.5809 15.3787 15.2822 15.08 15.2822 14.712V0.666667C15.2822 0.298667 15.5809 0 15.9489 0C16.3176 0 16.6156 0.298667 16.6156 0.666667V14.712C16.6156 15.08 16.3176 15.3787 15.9489 15.3787Z" fill="black"/>
<path d="M5.66688 32.0001C5.57288 32.0001 5.47688 31.9807 5.38622 31.9381C5.05222 31.7827 4.90755 31.3861 5.06288 31.0521L10.9622 18.3607V14.7121C10.9622 14.3441 11.2609 14.0454 11.6289 14.0454H15.5502C15.9182 14.0454 16.2169 14.3441 16.2169 14.7121C16.2169 15.0801 15.9182 15.3787 15.5502 15.3787H12.2955V18.5081C12.2955 18.6054 12.2742 18.7007 12.2335 18.7894L6.27155 31.6147C6.15821 31.8574 5.91755 32.0001 5.66688 32.0001Z" fill="black"/>
<path d="M11.0958 31.9999C11.0365 31.9999 10.9758 31.9919 10.9151 31.9753C10.5605 31.8759 10.3538 31.5079 10.4531 31.1539L12.0118 25.5946C12.1111 25.2393 12.4778 25.0326 12.8338 25.1326C13.1885 25.2319 13.3951 25.5999 13.2958 25.9539L11.7371 31.5133C11.6545 31.8079 11.3871 31.9999 11.0958 31.9999Z" fill="black"/>
<path d="M15.9489 31.9995C15.5809 31.9995 15.2822 31.7015 15.2822 31.3328V21.7008C15.2822 21.3322 15.5809 21.0342 15.9489 21.0342C16.3176 21.0342 16.6156 21.3322 16.6156 21.7008V31.3328C16.6156 31.7015 16.3176 31.9995 15.9489 31.9995Z" fill="black"/>
<path d="M25.8349 32.0001C25.5836 32.0001 25.3429 31.8574 25.2296 31.6147L19.2682 18.7894C19.2276 18.7007 19.2062 18.6054 19.2062 18.5081V15.3787H15.9489C15.5809 15.3787 15.2822 15.0801 15.2822 14.7121C15.2822 14.3441 15.5809 14.0454 15.9489 14.0454H19.8729C20.2416 14.0454 20.5396 14.3441 20.5396 14.7121V18.3607L26.4396 31.0521C26.5942 31.3861 26.4496 31.7827 26.1162 31.9381C26.0242 31.9807 25.9289 32.0001 25.8349 32.0001Z" fill="black"/>
<path d="M20.4008 32.0004C20.1095 32.0004 19.8422 31.8078 19.7595 31.5138L18.2022 25.9544C18.1028 25.6004 18.3095 25.2324 18.6642 25.1331C19.0155 25.0358 19.3862 25.2404 19.4855 25.5951L21.0428 31.1544C21.1422 31.5084 20.9355 31.8764 20.5808 31.9758C20.5208 31.9924 20.4602 32.0004 20.4008 32.0004Z" fill="black"/>
<path d="M15.5495 31.9995C15.1815 31.9995 14.8828 31.7015 14.8828 31.3328V21.7008C14.8828 21.3322 15.1815 21.0342 15.5495 21.0342C15.9175 21.0342 16.2161 21.3322 16.2161 21.7008V31.3328C16.2161 31.7015 15.9175 31.9995 15.5495 31.9995Z" fill="black"/>
<path d="M19.624 19.0667H11.8747C11.5067 19.0667 11.208 18.7687 11.208 18.4001C11.208 18.0314 11.5067 17.7334 11.8747 17.7334H19.624C19.9927 17.7334 20.2907 18.0314 20.2907 18.4001C20.2907 18.7687 19.992 19.0667 19.624 19.0667Z" fill="black"/>
</g>
<defs>
<clipPath id="clip0">
<rect width="32" height="32" fill="white"/>
</clipPath>
</defs>
</svg>
