<svg width="32" height="32" viewBox="0 0 32 32" fill="none" xmlns="http://www.w3.org/2000/svg">
<g clip-path="url(#clip0)">
<path d="M23.6397 26.6821H8.74768L3.40234 17.1947L15.9343 -0.481934L28.5897 17.1807L23.6397 26.6821ZM9.52701 25.3487H22.8317L27.029 17.2907L15.9403 1.8154L4.97834 17.2767L9.52701 25.3487Z" fill="black"/>
<path d="M26.7543 32.0004H5.24295C4.29428 32.0004 3.52295 31.2291 3.52295 30.2804V27.0711C3.52295 26.1224 4.29428 25.3511 5.24295 25.3511H26.7543C27.7029 25.3511 28.4749 26.1224 28.4749 27.0711V30.2804C28.4749 31.2291 27.7029 32.0004 26.7543 32.0004ZM5.24295 26.6837C5.02962 26.6837 4.85628 26.8571 4.85628 27.0704V30.2797C4.85628 30.4931 5.02962 30.6664 5.24295 30.6664H26.7543C26.9676 30.6664 27.1416 30.4931 27.1416 30.2797V27.0704C27.1416 26.8571 26.9676 26.6837 26.7543 26.6837H5.24295Z" fill="black"/>
<path d="M16.6668 0.666992H15.3335V8.82832H16.6668V0.666992Z" fill="black"/>
<path d="M15.999 21.7369C13.7563 21.7369 11.9316 19.9122 11.9316 17.6682C11.9316 15.4256 13.7563 13.6016 15.999 13.6016C18.2423 13.6016 20.0683 15.4256 20.0683 17.6682C20.0683 19.9122 18.2423 21.7369 15.999 21.7369ZM15.999 14.9356C14.4916 14.9356 13.265 16.1616 13.265 17.6689C13.265 19.1769 14.4916 20.4042 15.999 20.4042C17.5076 20.4042 18.735 19.1769 18.735 17.6689C18.735 16.1616 17.5076 14.9356 15.999 14.9356Z" fill="black"/>
</g>
<defs>
<clipPath id="clip0">
<rect width="32" height="32" fill="white"/>
</clipPath>
</defs>
</svg>
