<svg width="32" height="32" viewBox="0 0 32 32" fill="none" xmlns="http://www.w3.org/2000/svg">
<path d="M30 24.6286H2C0.897333 24.6286 0 23.7312 0 22.6286V3.97656C0 2.8739 0.897333 1.97656 2 1.97656H30C31.1027 1.97656 32 2.8739 32 3.97656V22.6292C32 23.7319 31.1027 24.6286 30 24.6286ZM2 3.3099C1.63267 3.3099 1.33333 3.60923 1.33333 3.97656V22.6292C1.33333 22.9972 1.63267 23.2959 2 23.2959H30C30.368 23.2959 30.6667 22.9972 30.6667 22.6292V3.97656C30.6667 3.60923 30.368 3.3099 30 3.3099H2Z" fill="black"/>
<path d="M16.0011 29.1671C15.6331 29.1671 15.3345 28.8691 15.3345 28.5004V24.4411C15.3345 24.0724 15.6331 23.7744 16.0011 23.7744C16.3698 23.7744 16.6678 24.0724 16.6678 24.4411V28.5004C16.6678 28.8691 16.3698 29.1671 16.0011 29.1671Z" fill="black"/>
<path d="M24.7988 30.0233H7.2028C6.8348 30.0233 6.53613 29.7253 6.53613 29.3566C6.53613 28.9879 6.8348 28.6899 7.2028 28.6899H24.7988C25.1675 28.6899 25.4655 28.9879 25.4655 29.3566C25.4655 29.7253 25.1675 30.0233 24.7988 30.0233Z" fill="black"/>
</svg>
