<svg width="32" height="32" viewBox="0 0 32 32" fill="none" xmlns="http://www.w3.org/2000/svg">
<g clip-path="url(#clip0)">
<path d="M24.9487 32.0001H7.04801C6.68001 32.0001 6.38135 31.7021 6.38135 31.3335V19.4181C6.38135 19.0495 6.68001 18.7515 7.04801 18.7515H24.9487C25.3173 18.7515 25.6153 19.0495 25.6153 19.4181V31.3335C25.6153 31.7021 25.3173 32.0001 24.9487 32.0001ZM7.71468 30.6668H24.282V20.0848H7.71468V30.6668Z" fill="black"/>
<path d="M7.04782 26.083H4.75049C2.13116 26.083 0.000488281 23.9917 0.000488281 21.4224V10.9337C0.000488281 8.36171 2.13116 6.26904 4.75049 6.26904H27.2478C29.8672 6.26904 31.9978 8.36171 31.9978 10.9337V21.4217C31.9978 23.991 29.8672 26.0824 27.2478 26.0824H24.9485C24.5798 26.0824 24.2818 25.7844 24.2818 25.4157C24.2818 25.047 24.5798 24.749 24.9485 24.749H27.2478C29.1318 24.749 30.6645 23.2564 30.6645 21.4217V10.9337C30.6645 9.09704 29.1318 7.60238 27.2478 7.60238H4.75049C2.86649 7.60238 1.33382 9.09704 1.33382 10.9337V21.4224C1.33382 23.257 2.86649 24.7497 4.75049 24.7497H7.04782C7.41582 24.7497 7.71449 25.0477 7.71449 25.4164C7.71449 25.785 7.41582 26.083 7.04782 26.083Z" fill="black"/>
<path d="M24.0567 7.60333H7.94206C7.57406 7.60333 7.27539 7.30467 7.27539 6.93667V0.666667C7.27539 0.298667 7.57406 0 7.94206 0H24.0567C24.4254 0 24.7234 0.298667 24.7234 0.666667V6.93667C24.7234 7.30467 24.4254 7.60333 24.0567 7.60333ZM8.60872 6.27H23.3901V1.33333H8.60872V6.27Z" fill="black"/>
<path d="M11.2818 13.2269H7.45915C7.09115 13.2269 6.79248 12.9282 6.79248 12.5602C6.79248 12.1922 7.09115 11.8936 7.45915 11.8936H11.2818C11.6498 11.8936 11.9485 12.1922 11.9485 12.5602C11.9485 12.9282 11.6498 13.2269 11.2818 13.2269Z" fill="black"/>
<path d="M19.5703 13.2269H15.7497C15.3817 13.2269 15.083 12.9282 15.083 12.5602C15.083 12.1922 15.3817 11.8936 15.7497 11.8936H19.5703C19.939 11.8936 20.237 12.1922 20.237 12.5602C20.237 12.9282 19.939 13.2269 19.5703 13.2269Z" fill="black"/>
</g>
<defs>
<clipPath id="clip0">
<rect width="32" height="32" fill="white"/>
</clipPath>
</defs>
</svg>
