<svg width="32" height="32" viewBox="0 0 32 32" fill="none" xmlns="http://www.w3.org/2000/svg">
<path d="M24.5504 17.8227H6.53107L6.4824 17.2087C6.46374 17.01 5.64574 9.55667 5.2164 5.64467L5.2124 5.572C5.2124 2.5 7.71774 0 10.7971 0H20.9004C23.9804 0 26.4864 2.5 26.4864 5.572L26.4824 5.64467C26.0517 9.55933 25.2337 17.016 25.2151 17.2167L25.1571 17.8193L24.5504 17.8227ZM7.74574 16.4893H23.9524C24.1851 14.348 24.9657 7.24 25.1531 5.53667C25.1337 3.216 23.2337 1.33333 20.9004 1.33333H10.7971C8.4644 1.33333 6.56507 3.216 6.54574 5.53667C6.79974 7.85 7.52374 14.4413 7.74574 16.4893Z" fill="black"/>
<path d="M8.87588 20.7913L7.56348 20.5557L5.64958 31.2169L6.96198 31.4525L8.87588 20.7913Z" fill="black"/>
<path d="M26.0492 31.2147L24.1333 20.5552L22.821 20.791L24.737 31.4506L26.0492 31.2147Z" fill="black"/>
<path d="M13.2562 1.08008H11.9229V16.7987H13.2562V1.08008Z" fill="black"/>
<path d="M19.7728 1.08008H18.4395V16.7987H19.7728V1.08008Z" fill="black"/>
<path d="M25.3127 21.3399H6.68734C4.818 21.3399 3.354 20.2746 3.354 18.9153C3.354 17.5553 4.818 16.4893 6.68734 16.4893H25.3127C27.182 16.4893 28.646 17.5553 28.646 18.9153C28.646 20.2746 27.1813 21.3399 25.3127 21.3399ZM6.68734 17.8226C5.54267 17.8226 4.68734 18.3993 4.68734 18.9153C4.68734 19.4299 5.54267 20.0066 6.68734 20.0066H25.3127C26.4573 20.0066 27.3127 19.4306 27.3127 18.9153C27.3127 18.3999 26.4573 17.8226 25.3127 17.8226H6.68734Z" fill="black"/>
</svg>
