<svg width="32" height="32" viewBox="0 0 32 32" fill="none" xmlns="http://www.w3.org/2000/svg">
<path d="M21.318 10.35H3.82667C1.71667 10.35 0 8.63333 0 6.52267V3.82733C0 1.71733 1.71667 0 3.82667 0H21.316C23.4267 0 25.1433 1.71733 25.1433 3.82733V6.52267C25.144 7.54133 24.7447 8.502 24.02 9.22667C23.2967 9.95133 22.3367 10.35 21.318 10.35ZM3.82667 1.33333C2.452 1.33333 1.33333 2.452 1.33333 3.82733V6.52267C1.33333 7.898 2.452 9.01667 3.82667 9.01667H21.3173C22.6927 9.01667 23.8107 7.898 23.8107 6.52267L23.81 3.828C23.8107 2.452 22.6913 1.33333 21.3167 1.33333H3.82667Z" fill="black"/>
<path d="M3.41829 5.47191H2.08496L2.08896 4.06457C2.15696 3.44991 2.74029 2.28857 4.45963 2.28857H20.689V3.62191H4.45963C3.63696 3.62191 3.45763 4.02791 3.41829 4.19657V5.47191Z" fill="black"/>
<path d="M13.2381 18.3616H11.9048V12.569H30.6661V5.84163H24.4775V4.5083H31.9995V13.9023H13.2381V18.3616Z" fill="black"/>
<path d="M15.754 31.9998H9.39062V17.8911H15.754V31.9998ZM10.724 30.6664H14.4206V19.2244H10.724V30.6664Z" fill="black"/>
</svg>
