<svg width="32" height="32" viewBox="0 0 32 32" fill="none" xmlns="http://www.w3.org/2000/svg">
<path d="M10.987 24.2898C10.8103 24.2898 10.6403 24.2198 10.5156 24.0945L7.90497 21.4838C7.64431 21.2231 7.64431 20.8018 7.90497 20.5411L20.5416 7.90448C20.8023 7.64382 21.2236 7.64382 21.4843 7.90448L24.095 10.5152C24.2203 10.6405 24.2903 10.8098 24.2903 10.9865C24.2903 11.1632 24.2203 11.3332 24.095 11.4578L11.4583 24.0945C11.3336 24.2191 11.1636 24.2898 10.987 24.2898ZM9.31964 21.0125L10.987 22.6805L22.6816 10.9858L21.0136 9.31848L9.31964 21.0125Z" fill="black"/>
<path d="M12.1176 31.9996C11.3936 31.9996 10.7136 31.7189 10.2036 31.2103L0.79231 21.7976C0.28231 21.2876 0.000976562 20.6083 0.000976562 19.8829C0.000976562 19.1576 0.28231 18.4776 0.79231 17.9676L1.61831 17.1403C2.12831 16.6303 2.80831 16.3496 3.53298 16.3496C4.25764 16.3496 4.93764 16.6303 5.44764 17.1403L14.8596 26.5516C15.915 27.6069 15.915 29.3249 14.8596 30.3803L14.0316 31.2096C13.5216 31.7189 12.8423 31.9996 12.1176 31.9996ZM3.53298 17.6829C3.16431 17.6829 2.81898 17.8249 2.56098 18.0829L1.73498 18.9103C1.47631 19.1689 1.33364 19.5136 1.33364 19.8829C1.33364 20.2516 1.47564 20.5963 1.73431 20.8543L11.1456 30.2669C11.661 30.7809 12.5736 30.7816 13.0896 30.2663L13.917 29.4376C14.453 28.9016 14.453 28.0303 13.917 27.4943L4.50498 18.0829C4.24698 17.8249 3.90231 17.6829 3.53298 17.6829Z" fill="black"/>
<path d="M7.53549 31.7332C6.80683 31.7332 6.05616 31.4012 5.47483 30.8212L1.18083 26.5252C0.695493 26.0405 0.379493 25.4312 0.291493 24.8105C0.194826 24.1292 0.38816 23.4898 0.821493 23.0552C1.18016 22.6972 1.68016 22.5005 2.23083 22.5005C2.96016 22.5005 3.71149 22.8332 4.29283 23.4145L8.58616 27.7085C9.07149 28.1938 9.38749 28.8032 9.47549 29.4238C9.57216 30.1052 9.37883 30.7445 8.94549 31.1785C8.58616 31.5365 8.08549 31.7332 7.53549 31.7332ZM2.23016 23.8332C2.09216 23.8332 1.90016 23.8612 1.76416 23.9972C1.58016 24.1812 1.58949 24.4678 1.61149 24.6225C1.65883 24.9538 1.84549 25.3038 2.12349 25.5812L6.41749 29.8772C6.74483 30.2038 7.16349 30.3992 7.53549 30.3992C7.67349 30.3992 7.86616 30.3712 8.00283 30.2345C8.18616 30.0512 8.17749 29.7652 8.15549 29.6105C8.10816 29.2785 7.92149 28.9292 7.64283 28.6505L3.34949 24.3565C3.02149 24.0285 2.60283 23.8332 2.23016 23.8332Z" fill="black"/>
<path d="M4.2719 28.6718L3.3291 27.729L2.09733 28.9608L3.04013 29.9036L4.2719 28.6718Z" fill="black"/>
<path d="M28.4669 15.652C27.7423 15.652 27.0629 15.3713 26.5529 14.8613L17.1409 5.448C16.6303 4.93733 16.3489 4.256 16.3496 3.53067C16.3503 2.80667 16.6316 2.12733 17.1416 1.61867L17.9689 0.790667C18.4783 0.280667 19.1576 0 19.8829 0C20.6083 0 21.2876 0.280667 21.7969 0.790667L31.2083 10.2047C31.7183 10.714 31.9989 11.394 31.9989 12.1193C31.9989 12.844 31.7183 13.524 31.2083 14.034L30.3816 14.8613C29.8716 15.3713 29.1916 15.652 28.4669 15.652ZM19.8829 1.33333C19.5143 1.33333 19.1696 1.47533 18.9116 1.73333L18.0836 2.562C17.8256 2.81933 17.6829 3.164 17.6829 3.532C17.6829 3.90133 17.8249 4.24733 18.0836 4.50533L27.4956 13.9187C28.0109 14.434 28.9236 14.434 29.4389 13.9187L30.2656 13.0913C30.5236 12.8333 30.6656 12.488 30.6656 12.1193C30.6656 11.7507 30.5236 11.4053 30.2656 11.1473L20.8543 1.73333C20.5969 1.47533 20.2516 1.33333 19.8829 1.33333Z" fill="black"/>
<path d="M29.7688 9.5006C29.0395 9.5006 28.2888 9.16727 27.7082 8.5846L23.4142 4.29127C22.8322 3.70993 22.4988 2.95793 22.4995 2.2286C22.4995 1.6786 22.6975 1.1786 23.0555 0.821268C23.4128 0.464602 23.9128 0.266602 24.4635 0.266602C25.1915 0.266602 25.9435 0.599268 26.5255 1.17927L30.8195 5.4746C31.8755 6.52927 32.0368 8.08593 31.1795 8.9446C30.8202 9.30393 30.3202 9.5006 29.7688 9.5006ZM24.4635 1.59993C24.3262 1.59993 24.1335 1.6286 23.9975 1.76527C23.8615 1.90127 23.8328 2.0926 23.8328 2.22993C23.8328 2.6026 24.0288 3.0206 24.3568 3.34927L28.6515 7.64327C28.9795 7.97193 29.3968 8.16793 29.7688 8.16793C29.9068 8.16793 30.0995 8.13927 30.2362 8.0026C30.5262 7.7126 30.4495 6.9906 29.8768 6.4186L25.5835 2.12393C25.2555 1.79593 24.8362 1.59993 24.4635 1.59993Z" fill="black"/>
<path d="M29.9049 3.04134L28.9624 2.09814L27.7301 3.32956L28.6726 4.27276L29.9049 3.04134Z" fill="black"/>
</svg>
