<svg width="32" height="32" viewBox="0 0 32 32" fill="none" xmlns="http://www.w3.org/2000/svg">
<g clip-path="url(#clip0)">
<path d="M3.53733 20.0756C1.58667 20.0756 0 18.489 0 16.5383C0 14.5876 1.58667 13.001 3.53733 13.001C5.488 13.001 7.07467 14.5876 7.07467 16.5383C7.07467 18.489 5.488 20.0756 3.53733 20.0756ZM3.53733 14.3343C2.322 14.3343 1.33333 15.323 1.33333 16.5383C1.33333 17.7536 2.322 18.7423 3.53733 18.7423C4.75267 18.7423 5.74133 17.7536 5.74133 16.5383C5.74133 15.323 4.75267 14.3343 3.53733 14.3343Z" fill="black"/>
<path d="M4.20443 19.4097H2.87109V33.7657H4.20443V19.4097Z" fill="black"/>
<path d="M28.4618 20.076C26.5112 20.076 24.9238 18.4887 24.9238 16.538C24.9238 14.5873 26.5112 13 28.4618 13C30.4125 13 31.9998 14.5873 31.9998 16.538C31.9998 18.4887 30.4125 20.076 28.4618 20.076ZM28.4618 14.3333C27.2465 14.3333 26.2572 15.322 26.2572 16.538C26.2572 17.754 27.2458 18.7427 28.4618 18.7427C29.6778 18.7427 30.6665 17.754 30.6665 16.538C30.6665 15.322 29.6778 14.3333 28.4618 14.3333Z" fill="black"/>
<path d="M29.1292 19.4097H27.7959V33.7657H29.1292V19.4097Z" fill="black"/>
<path d="M15.3619 21.6105C9.2046 21.6105 5.6046 18.5825 5.55127 18.5358L6.42327 17.5272C6.7226 17.7838 13.8813 23.7385 25.7013 17.4438L26.3273 18.6212C22.1219 20.8605 18.4246 21.6105 15.3619 21.6105Z" fill="black"/>
</g>
<defs>
<clipPath id="clip0">
<rect width="32" height="32" fill="white"/>
</clipPath>
</defs>
</svg>
