<svg width="32" height="32" viewBox="0 0 32 32" fill="none" xmlns="http://www.w3.org/2000/svg">
<path d="M23.3396 32H8.6576C7.20026 32 6.01426 30.8167 6.01426 29.362V13.8607C6.01426 13.2333 5.58493 12.9247 4.9896 13.1107L4.45826 13.2727C4.20293 13.3513 3.93426 13.3913 3.66226 13.3913C2.50626 13.3913 1.4456 12.6853 1.02293 11.634L0.285596 9.77867C-0.22507 8.506 0.195596 6.80667 1.24293 5.91267L7.5496 0.557333C7.97826 0.193333 8.46893 0 8.96826 0C9.7836 0 10.4989 0.527333 10.8349 1.37533C10.8356 1.376 11.6869 3.11667 16.0069 3.16933C20.3096 3.11667 21.1609 1.376 21.1696 1.35867C21.4989 0.527333 22.2143 0 23.0296 0C23.5289 0 24.0196 0.192667 24.4496 0.557333L30.7556 5.91133C31.8043 6.80733 32.2249 8.506 31.7136 9.78067L30.9743 11.6327C30.5516 12.6847 29.4909 13.3907 28.3356 13.3907C28.3356 13.3907 28.3363 13.3907 28.3356 13.3907C28.0636 13.3907 27.7949 13.3507 27.5383 13.272L27.0136 13.1113C26.4063 12.9253 25.9849 13.2327 25.9849 13.8607V29.362C25.9843 30.8167 24.7976 32 23.3396 32ZM5.32493 11.7227C6.49693 11.7227 7.3476 12.622 7.3476 13.8607V29.362C7.3476 30.0813 7.93493 30.6667 8.6576 30.6667H23.3396C24.0629 30.6667 24.6509 30.0813 24.6509 29.362V13.8607C24.6509 12.622 25.5016 11.7227 26.6736 11.7227C26.9136 11.7227 27.1596 11.7613 27.4056 11.8373L27.9283 11.9973C28.6309 12.2127 29.4683 11.8033 29.7363 11.1367L30.4756 9.28533C30.7716 8.54733 30.4983 7.446 29.8909 6.92667L23.5863 1.574C23.1276 1.18467 22.6269 1.298 22.4023 1.86667C22.2969 2.13067 21.2249 4.43933 16.0076 4.50267C10.7716 4.43933 9.7016 2.13067 9.59626 1.868C9.37026 1.29733 8.87093 1.18333 8.4136 1.57333L2.10826 6.92733C1.50226 7.44467 1.22893 8.54667 1.52493 9.284L2.26226 11.1387C2.52893 11.8027 3.37293 12.212 4.06893 11.9973L4.59893 11.836C4.8396 11.7613 5.0856 11.7227 5.32493 11.7227Z" fill="black"/>
</svg>
