<svg width="32" height="32" viewBox="0 0 32 32" fill="none" xmlns="http://www.w3.org/2000/svg">
<path d="M24.008 28.8291C21.0913 28.8291 18.4567 27.0291 17.042 24.1011H14.9587C13.5433 27.0291 10.9087 28.8291 7.99133 28.8291C3.58467 28.8291 0 24.6805 0 19.5811C0 14.4825 3.58533 10.3345 7.992 10.3345C9.37533 10.3345 10.7387 10.7558 11.948 11.5551H20.052C21.26 10.7558 22.622 10.3345 24.008 10.3345C28.4147 10.3345 32 14.4825 32 19.5811C32 24.6805 28.4147 28.8291 24.008 28.8291ZM14.53 22.7678H17.47C17.736 22.7678 17.9773 22.9258 18.0827 23.1705C19.2307 25.8385 21.5007 27.4951 24.008 27.4951C27.68 27.4958 30.6667 23.9451 30.6667 19.5811C30.6667 15.2178 27.68 11.6678 24.008 11.6678C22.83 11.6678 21.666 12.0478 20.6407 12.7671C20.5287 12.8458 20.3953 12.8885 20.258 12.8885H11.7427C11.606 12.8885 11.472 12.8465 11.36 12.7678C10.3327 12.0485 9.168 11.6678 7.99133 11.6678C4.32 11.6678 1.33333 15.2178 1.33333 19.5811C1.33333 23.9451 4.32 27.4958 7.99133 27.4958C10.4987 27.4958 12.7693 25.8391 13.918 23.1711C14.0227 22.9265 14.264 22.7678 14.53 22.7678Z" fill="black"/>
<path d="M11.6219 18.915H3.80127V20.2484H11.6219V18.915Z" fill="black"/>
<path d="M8.37923 15.6719H7.0459V23.4919H8.37923V15.6719Z" fill="black"/>
<path d="M25.0485 19.0537C23.6818 19.0537 22.5698 17.9423 22.5698 16.5757C22.5698 15.209 23.6818 14.0977 25.0485 14.0977C26.4152 14.0977 27.5265 15.209 27.5265 16.5757C27.5265 17.9423 26.4152 19.0537 25.0485 19.0537ZM25.0485 15.431C24.4172 15.431 23.9032 15.945 23.9032 16.5757C23.9032 17.2063 24.4172 17.7203 25.0485 17.7203C25.6792 17.7203 26.1932 17.2063 26.1932 16.5757C26.1932 15.9443 25.6798 15.431 25.0485 15.431Z" fill="black"/>
<path d="M22.5944 24.3156C21.2277 24.3156 20.1157 23.2036 20.1157 21.8369C20.1157 20.4702 21.2277 19.3589 22.5944 19.3589C23.9611 19.3589 25.0724 20.4702 25.0724 21.8369C25.0724 23.2036 23.9604 24.3156 22.5944 24.3156ZM22.5944 20.6922C21.9631 20.6922 21.4491 21.2062 21.4491 21.8369C21.4491 22.4682 21.9631 22.9822 22.5944 22.9822C23.2251 22.9822 23.7391 22.4682 23.7391 21.8369C23.7384 21.2062 23.2251 20.6922 22.5944 20.6922Z" fill="black"/>
<path d="M16.2626 12.0608H14.9292C14.9292 10.9235 14.9772 10.0975 15.6159 9.02418C16.6586 7.27951 18.2432 7.41885 19.8019 7.83018C19.9419 7.86751 20.0886 7.90884 20.2399 7.95151C21.2699 8.24285 22.5519 8.60551 23.2166 7.98684C23.3986 7.81618 23.4912 7.62351 23.4892 7.41551C23.4872 7.16351 23.3459 6.89218 23.1019 6.67018C21.8339 5.52218 20.2939 5.62018 18.5126 5.73351C18.0099 5.76484 17.5059 5.79684 17.0066 5.79951C16.4199 5.80218 15.8559 5.82818 15.3072 5.85284C13.1666 5.94884 11.1446 6.04018 8.86257 4.79085C8.71057 4.70751 8.56524 4.61151 8.42057 4.51485C8.24924 4.40085 8.08724 4.29285 7.93457 4.22885L8.45057 2.99951C8.71924 3.11218 8.95257 3.26751 9.15924 3.40485C9.27257 3.48018 9.3859 3.55685 9.50457 3.62151C11.4592 4.69085 13.2146 4.61218 15.2479 4.52085C15.8139 4.49485 16.3952 4.46951 17.0006 4.46618C17.4739 4.46418 17.9519 4.43351 18.4286 4.40285C20.3392 4.28218 22.3126 4.15751 23.9979 5.68218C24.5259 6.16085 24.8186 6.77218 24.8232 7.40484C24.8279 7.98418 24.5806 8.53751 24.1272 8.96151C22.9132 10.0935 21.1586 9.59751 19.8772 9.23485C19.7326 9.19351 19.5932 9.15418 19.4612 9.11951C17.9246 8.71551 17.2692 8.85751 16.7612 9.70818C16.2846 10.5075 16.2626 11.0642 16.2626 12.0608Z" fill="black"/>
</svg>
