<svg width="32" height="32" viewBox="0 0 32 32" fill="none" xmlns="http://www.w3.org/2000/svg">
<path d="M30 27.87H2C0.897333 27.87 0 26.9727 0 25.87V8.75537C0 7.6527 0.897333 6.75537 2 6.75537H30C31.1027 6.75537 32 7.6527 32 8.75537V25.87C32 26.9727 31.1027 27.87 30 27.87ZM2 8.0887C1.63267 8.0887 1.33333 8.38804 1.33333 8.75537V25.87C1.33333 26.238 1.63267 26.5367 2 26.5367H30C30.368 26.5367 30.6667 26.238 30.6667 25.87V8.75537C30.6667 8.38804 30.368 8.0887 30 8.0887H2Z" fill="black"/>
<path d="M20.7294 24.4402C16.7994 24.4402 13.6021 21.2429 13.6021 17.3129C13.6021 13.3829 16.7994 10.1855 20.7294 10.1855C24.6601 10.1855 27.8567 13.3829 27.8567 17.3129C27.8567 21.2429 24.6594 24.4402 20.7294 24.4402ZM20.7294 11.5189C17.5347 11.5189 14.9354 14.1182 14.9354 17.3129C14.9354 20.5075 17.5347 23.1069 20.7294 23.1069C23.9241 23.1069 26.5234 20.5075 26.5234 17.3129C26.5234 14.1182 23.9241 11.5189 20.7294 11.5189Z" fill="black"/>
<path d="M7.06937 15.0496H1.1027C0.734702 15.0496 0.436035 14.751 0.436035 14.383C0.436035 14.015 0.734702 13.7163 1.1027 13.7163H7.06937C7.43737 13.7163 7.73604 14.015 7.73604 14.383C7.73604 14.751 7.43737 15.0496 7.06937 15.0496Z" fill="black"/>
<path d="M7.06937 20.9071H1.1027C0.734702 20.9071 0.436035 20.6091 0.436035 20.2404C0.436035 19.8717 0.734702 19.5737 1.1027 19.5737H7.06937C7.43737 19.5737 7.73604 19.8717 7.73604 20.2404C7.73604 20.6091 7.43737 20.9071 7.06937 20.9071Z" fill="black"/>
<path d="M23.5999 5.46322H17.8566C17.4879 5.46322 17.1899 5.16455 17.1899 4.79655C17.1899 4.42855 17.4879 4.12988 17.8566 4.12988H23.5999C23.9686 4.12988 24.2666 4.42855 24.2666 4.79655C24.2666 5.16455 23.9686 5.46322 23.5999 5.46322Z" fill="black"/>
</svg>
