<svg width="32" height="32" viewBox="0 0 32 32" fill="none" xmlns="http://www.w3.org/2000/svg">
<path d="M20.4982 26.7695H17.8682V28.1029H20.4982V26.7695Z" fill="black"/>
<path d="M23.4314 32H5.99805C4.89538 32 3.99805 31.1027 3.99805 30V2C3.99805 0.897333 4.89538 0 5.99805 0H23.4314C24.534 0 25.4314 0.897333 25.4314 2V30C25.4314 31.1027 24.534 32 23.4314 32ZM5.99805 1.33333C5.63071 1.33333 5.33138 1.63267 5.33138 2V30C5.33138 30.368 5.63071 30.6667 5.99805 30.6667H23.4314C23.7994 30.6667 24.098 30.368 24.098 30V2C24.098 1.63267 23.7994 1.33333 23.4314 1.33333H5.99805Z" fill="black"/>
<path d="M19.1839 5.56136H10.8532C10.4852 5.56136 10.1865 5.26269 10.1865 4.89469C10.1865 4.52669 10.4852 4.22803 10.8532 4.22803H19.1839C19.5525 4.22803 19.8505 4.52669 19.8505 4.89469C19.8505 5.26269 19.5525 5.56136 19.1839 5.56136Z" fill="black"/>
</svg>
