<svg width="32" height="32" viewBox="0 0 32 32" fill="none" xmlns="http://www.w3.org/2000/svg">
<g clip-path="url(#clip0)">
<path d="M20.5805 23.7294L12.4658 11.3734L21.5558 5.41211L29.6712 17.7721L20.5805 23.7294ZM14.3125 11.7568L20.9632 21.8841L27.8238 17.3874L21.1732 7.25744L14.3125 11.7568Z" fill="black"/>
<path d="M20.9316 26.7008L18.731 23.3481L30.055 15.9248L32.2563 19.2741L20.9316 26.7008ZM20.5776 23.7321L21.3143 24.8548L30.409 18.8921L29.673 17.7701L20.5776 23.7321Z" fill="black"/>
<path d="M12.0802 13.2198L9.88086 9.86785L21.2062 2.44385L23.4069 5.79385L12.0802 13.2198ZM11.7269 10.2518L12.4635 11.3745L21.5595 5.41118L20.8235 4.28985L11.7269 10.2518Z" fill="black"/>
<path d="M2.06201 29.5575L-0.257324 26.0249L16.4793 15.0542L18.7987 18.5875L2.06201 29.5575ZM1.59001 26.4089L2.44534 27.7122L16.9513 18.2029L16.0953 16.8989L1.59001 26.4089Z" fill="black"/>
</g>
<defs>
<clipPath id="clip0">
<rect width="32" height="32" fill="white"/>
</clipPath>
</defs>
</svg>
