<svg width="32" height="32" viewBox="0 0 32 32" fill="none" xmlns="http://www.w3.org/2000/svg">
<path d="M27.508 30.4632H4.492C2.01467 30.4632 0 28.4479 0 25.9706V25.4332C0 20.0899 14.1667 14.0186 15.782 13.3439C15.9487 13.2746 16.1373 13.2752 16.302 13.3466C17.9087 14.0386 32 20.2512 32 25.4332V25.9706C32 28.4479 29.9853 30.4632 27.508 30.4632ZM16.0347 14.6846C11.7007 16.5292 1.33333 21.7306 1.33333 25.4332V25.9706C1.33333 27.7126 2.75 29.1299 4.492 29.1299H27.508C29.2493 29.1299 30.6667 27.7126 30.6667 25.9706V25.4332C30.6667 21.8552 20.348 16.5732 16.0347 14.6846Z" fill="black"/>
<path d="M16.1998 14.4093C15.8318 14.4093 15.5331 14.1106 15.5331 13.7426V10.4206C13.3851 10.098 11.7324 8.23929 11.7324 6.00262C11.7324 3.53995 13.7364 1.53662 16.1998 1.53662C18.6644 1.53662 20.6704 3.53995 20.6704 6.00262C20.6704 6.37062 20.3724 6.66929 20.0038 6.66929C19.6351 6.66929 19.3371 6.37062 19.3371 6.00262C19.3371 4.27529 17.9298 2.86995 16.1998 2.86995C14.4718 2.86995 13.0658 4.27529 13.0658 6.00262C13.0658 7.73062 14.4718 9.13662 16.1998 9.13662H16.8664V13.7426C16.8664 14.1113 16.5684 14.4093 16.1998 14.4093Z" fill="black"/>
</svg>
