<svg width="32" height="32" viewBox="0 0 32 32" fill="none" xmlns="http://www.w3.org/2000/svg">
<g clip-path="url(#clip0)">
<path d="M31.3265 30.5788H5.76113C5.39313 30.5788 5.09446 30.2808 5.09446 29.9121L5.0918 29.8021V26.4281C5.0918 19.1641 11.0285 13.2534 18.3251 13.2534H18.7651C26.0631 13.2541 31.9998 19.1641 31.9998 26.4288V29.8027C31.9998 29.8214 31.9958 29.8974 31.9938 29.9161C31.9645 30.2608 31.6731 30.5788 31.3265 30.5788ZM6.42513 29.2454H30.6658L30.6665 26.4288C30.6665 19.8994 25.3278 14.5874 18.7651 14.5874H18.3251C11.7631 14.5874 6.42513 19.8994 6.42513 26.4288V29.2454Z" fill="black"/>
<path d="M18.5493 14.5874C16.4927 14.5874 14.8193 12.9228 14.8193 10.8761C14.8193 8.82811 16.4927 7.16211 18.5493 7.16211C20.6027 7.16278 22.2733 8.82878 22.2733 10.8761C22.2733 12.9228 20.6027 14.5874 18.5493 14.5874ZM18.5493 8.49544C17.228 8.49544 16.1527 9.56344 16.1527 10.8761C16.1527 12.1874 17.228 13.2541 18.5493 13.2541C19.868 13.2541 20.94 12.1874 20.94 10.8761C20.94 9.56411 19.868 8.49611 18.5493 8.49544Z" fill="black"/>
<path d="M5.75988 25.5654C5.53455 25.5654 5.31521 25.4514 5.18988 25.2454L0.0972135 16.8721C-0.0627865 16.6087 -0.0221198 16.2714 0.19588 16.0534L2.80655 13.4494C3.04855 13.2081 3.43455 13.1901 3.69921 13.4054L8.86388 17.6254C9.14921 17.8587 9.19121 18.2781 8.95855 18.5634C8.72521 18.8494 8.30588 18.8901 8.02055 18.6581L3.32255 14.8187L1.50921 16.6274L6.32921 24.5527C6.52055 24.8674 6.42055 25.2774 6.10588 25.4687C5.99788 25.5341 5.87788 25.5654 5.75988 25.5654Z" fill="black"/>
<path d="M9.57946 18.1401C9.34679 18.1401 9.12146 18.0181 8.99879 17.8021C8.06946 16.1607 7.57812 14.2914 7.57812 12.3961C7.57812 6.34472 12.4975 1.42139 18.5441 1.42139C24.5921 1.42139 29.5128 6.34472 29.5128 12.3961C29.5128 14.1687 29.0821 15.9274 28.2661 17.4807C28.0941 17.8067 27.6928 17.9314 27.3655 17.7614C27.0395 17.5901 26.9135 17.1874 27.0848 16.8607C27.8008 15.4974 28.1795 13.9534 28.1795 12.3961C28.1795 7.08005 23.8575 2.75472 18.5441 2.75472C13.2328 2.75472 8.91146 7.08005 8.91146 12.3961C8.91146 14.0621 9.34279 15.7034 10.1588 17.1447C10.3401 17.4654 10.2275 17.8721 9.90746 18.0534C9.80346 18.1121 9.69079 18.1401 9.57946 18.1401Z" fill="black"/>
</g>
<defs>
<clipPath id="clip0">
<rect width="32" height="32" fill="white"/>
</clipPath>
</defs>
</svg>
