<svg width="24" height="24" viewBox="0 0 24 24" fill="none" xmlns="http://www.w3.org/2000/svg">
<path d="M20 24H4C1.7945 24 0 22.2055 0 20V4C0 1.7945 1.7945 0 4 0H20C22.2055 0 24 1.7945 24 4V20C24 22.2055 22.2055 24 20 24Z" fill="black"/>
<path fill-rule="evenodd" clip-rule="evenodd" d="M13.1591 10.884C12.0931 10.9 11.0276 10.9 9.96106 10.9C9.65656 10.9 9.34406 10.884 9.04706 10.9C8.98356 10.9 8.88706 10.972 8.88706 11.012C8.87906 11.6295 8.87906 12.2465 8.87906 12.8875C9.75256 12.8875 10.6101 12.8875 11.4841 12.8875C11.4601 13.016 11.4361 13.112 11.3961 13.2C11.0026 14.3865 9.77656 14.9715 8.45406 14.7555C6.81856 14.4825 5.80906 12.9755 6.10556 11.3405C6.13756 11.108 6.21806 10.8835 6.29806 10.675C6.84256 9.48899 8.18156 8.76749 9.50456 9.06399C9.97706 9.16799 10.3861 9.38499 10.7306 9.69699C11.2116 9.21649 11.6686 8.75949 12.1656 8.26249C12.1336 8.23849 12.0776 8.19849 12.0456 8.15849C10.8911 7.18849 9.56856 6.82749 8.08556 7.07599C5.94556 7.42049 4.40706 9.10399 4.07856 11.0675C3.92606 11.901 3.99006 12.7915 4.31906 13.6565C5.13656 15.7325 7.22806 17.007 9.47256 16.7585C10.5701 16.6385 11.5491 16.2455 12.3021 15.4355C13.4316 14.234 13.7286 12.791 13.5446 11.1955C13.5116 10.932 13.4076 10.884 13.1591 10.884ZM18.0086 11.0365C17.9126 11.0365 17.8006 11.0365 17.6881 11.0365C17.6881 11.012 17.6881 10.98 17.6881 10.972C17.6881 10.884 17.6881 10.812 17.6881 10.7475C17.6881 10.339 17.6961 9.92999 17.6881 9.51299C17.6881 9.44899 17.6076 9.32849 17.5751 9.32849C17.2071 9.31249 16.8296 9.31249 16.4376 9.31249C16.4376 9.80949 16.4376 10.2745 16.4376 10.7475C16.4376 10.8355 16.4376 10.932 16.4376 11.02C15.8521 11.02 15.3076 11.02 14.7141 11.02C14.7141 11.1565 14.7141 11.245 14.7141 11.3325C14.7301 11.637 14.7386 11.9495 14.7626 12.254C15.0591 12.2705 15.3561 12.286 15.6676 12.286C15.9171 12.294 16.1731 12.286 16.4456 12.286C16.4456 12.8795 16.4456 13.4245 16.4456 13.9695C16.8711 13.961 17.2631 13.9695 17.6886 13.9695C17.6886 13.408 17.6886 12.863 17.6886 12.286C18.2651 12.286 18.8101 12.286 19.3706 12.286C19.3706 11.958 19.3706 11.6525 19.3706 11.3325C19.3706 11.228 19.3706 11.132 19.3706 11.036C18.9231 11.0365 18.4661 11.0365 18.0086 11.0365Z" fill="white"/>
</svg>
