<?xml version="1.0" encoding="utf-8"?>
<!-- Generator: Adobe Illustrator 16.0.0, SVG Export Plug-In . SVG Version: 6.00 Build 0)  -->
<!DOCTYPE svg PUBLIC "-//W3C//DTD SVG 1.1//EN" "http://www.w3.org/Graphics/SVG/1.1/DTD/svg11.dtd">
<svg version="1.1" id="Layer_1" xmlns="http://www.w3.org/2000/svg" xmlns:xlink="http://www.w3.org/1999/xlink" x="0px" y="0px"
	 width="48px" height="48px" viewBox="0 0 48 48" enable-background="new 0 0 48 48" xml:space="preserve">
<g>
	<g>
		<g>
			<path d="M46.99,45.868H8.642c-0.552,0-1-0.447-1-1l-0.004-0.165v-5.061c0-10.896,8.905-19.762,19.85-19.762h0.66
				C39.095,19.881,48,28.746,48,39.643v5.061c0,0.028-0.006,0.142-0.009,0.17C47.947,45.391,47.51,45.868,46.99,45.868z
				 M9.638,43.868h36.361L46,39.643c0-9.794-8.008-17.762-17.852-17.762h-0.66c-9.843,0-17.85,7.968-17.85,17.762V43.868z"/>
			<path d="M27.824,21.881c-3.085,0-5.595-2.497-5.595-5.567c0-3.072,2.51-5.571,5.595-5.571c3.08,0.001,5.586,2.5,5.586,5.571
				C33.41,19.384,30.904,21.881,27.824,21.881z M27.824,12.743c-1.982,0-3.595,1.602-3.595,3.571c0,1.967,1.613,3.567,3.595,3.567
				c1.978,0,3.586-1.6,3.586-3.567C31.41,14.346,29.802,12.744,27.824,12.743z"/>
		</g>
		<path d="M8.64,38.348c-0.338,0-0.667-0.171-0.855-0.48l-7.639-12.56c-0.24-0.395-0.179-0.901,0.148-1.228l3.916-3.906
			c0.363-0.362,0.942-0.389,1.339-0.066l7.747,6.33c0.428,0.35,0.491,0.979,0.142,1.407c-0.35,0.429-0.979,0.49-1.407,0.142
			l-7.047-5.759l-2.72,2.713l7.23,11.888c0.287,0.472,0.137,1.087-0.335,1.374C8.997,38.301,8.817,38.348,8.64,38.348z"/>
		<path d="M14.369,27.21c-0.349,0-0.687-0.183-0.871-0.507c-1.394-2.462-2.131-5.266-2.131-8.109
			c0-9.077,7.379-16.462,16.449-16.462c9.072,0,16.453,7.385,16.453,16.462c0,2.659-0.646,5.297-1.87,7.627
			c-0.258,0.489-0.86,0.676-1.351,0.421c-0.489-0.257-0.678-0.861-0.421-1.351c1.074-2.045,1.642-4.361,1.642-6.697
			c0-7.974-6.483-14.462-14.453-14.462c-7.967,0-14.449,6.488-14.449,14.462c0,2.499,0.647,4.961,1.871,7.123
			c0.272,0.481,0.103,1.091-0.377,1.363C14.705,27.168,14.536,27.21,14.369,27.21z"/>
	</g>
</g>
</svg>
