<svg width="24" height="24" viewBox="0 0 24 24" fill="none" xmlns="http://www.w3.org/2000/svg">
<path d="M20 23.5H4C2.07064 23.5 0.5 21.9294 0.5 20V4C0.5 2.07064 2.07064 0.5 4 0.5H20C21.9294 0.5 23.5 2.07064 23.5 4V20C23.5 21.9294 21.9294 23.5 20 23.5Z" fill="white" stroke="white"/>
<path fill-rule="evenodd" clip-rule="evenodd" d="M13.5606 9.4245V8.2385C13.5606 7.6695 13.9371 7.533 14.2101 7.533C14.4741 7.533 15.8691 7.533 15.8691 7.533V5H13.5851C11.0441 5 10.4751 6.8755 10.4751 8.094V9.4245H9.00012V11.212V12.3825H10.4911C10.4911 15.741 10.4911 19.772 10.4911 19.772H13.4486C13.4486 19.772 13.4486 15.684 13.4486 12.3825H15.6366L15.7331 11.22L15.9096 9.4245H13.5606Z" fill="#385185"/>
</svg>
