<?xml version="1.0" encoding="utf-8"?>
<!-- Generator: Adobe Illustrator 16.0.0, SVG Export Plug-In . SVG Version: 6.00 Build 0)  -->
<!DOCTYPE svg PUBLIC "-//W3C//DTD SVG 1.1//EN" "http://www.w3.org/Graphics/SVG/1.1/DTD/svg11.dtd">
<svg version="1.1" id="Layer_1" xmlns="http://www.w3.org/2000/svg" xmlns:xlink="http://www.w3.org/1999/xlink" x="0px" y="0px"
	 width="48px" height="48px" viewBox="0 0 48 48" enable-background="new 0 0 48 48" xml:space="preserve">
<g>
	<g>
		<path d="M40,48H8c-4.411,0-8-3.588-8-8V8c0-4.411,3.589-8,8-8h32c4.411,0,8,3.589,8,8v32C48,44.412,44.411,48,40,48z"/>
	</g>
</g>
<path display="none" fill-rule="evenodd" clip-rule="evenodd" fill="#FFFFFF" d="M26.212,19.343v-2.372
	c0-1.138,0.753-1.411,1.299-1.411c0.528,0,3.318,0,3.318,0v-5.066h-4.568c-5.082,0-6.22,3.751-6.22,6.188v2.661h-2.95v3.575v2.341
	h2.982c0,6.717,0,14.779,0,14.779h5.915c0,0,0-8.176,0-14.779h4.376l0.193-2.325l0.353-3.591H26.212z"/>
<path display="none" fill-rule="evenodd" clip-rule="evenodd" fill="#FFFFFF" d="M26.947,23.244
	c-2.132,0.032-4.263,0.032-6.396,0.032c-0.609,0-1.234-0.032-1.828,0c-0.127,0-0.32,0.144-0.32,0.224
	c-0.016,1.235-0.016,2.469-0.016,3.751c1.747,0,3.462,0,5.21,0c-0.048,0.257-0.096,0.449-0.176,0.625
	c-0.787,2.373-3.239,3.543-5.884,3.111c-3.271-0.546-5.29-3.56-4.697-6.83c0.064-0.465,0.225-0.914,0.385-1.331
	c1.089-2.372,3.767-3.815,6.413-3.222c0.945,0.208,1.763,0.642,2.452,1.266c0.962-0.961,1.876-1.875,2.87-2.869
	c-0.064-0.048-0.176-0.128-0.24-0.208c-2.309-1.94-4.954-2.662-7.92-2.165c-4.28,0.689-7.357,4.056-8.014,7.983
	c-0.305,1.667-0.177,3.448,0.481,5.178c1.635,4.152,5.818,6.701,10.307,6.204c2.195-0.24,4.153-1.026,5.659-2.646
	c2.259-2.403,2.853-5.289,2.485-8.48C27.652,23.34,27.444,23.244,26.947,23.244L26.947,23.244z M36.646,23.549
	c-0.192,0-0.416,0-0.641,0c0-0.049,0-0.113,0-0.129c0-0.176,0-0.32,0-0.449c0-0.817,0.016-1.635,0-2.469
	c0-0.128-0.161-0.369-0.226-0.369c-0.736-0.032-1.491-0.032-2.275-0.032c0,0.994,0,1.924,0,2.87c0,0.176,0,0.369,0,0.545
	c-1.171,0-2.26,0-3.447,0c0,0.273,0,0.45,0,0.625c0.032,0.609,0.049,1.234,0.097,1.843c0.593,0.033,1.187,0.064,1.81,0.064
	c0.499,0.016,1.011,0,1.556,0c0,1.187,0,2.277,0,3.367c0.851-0.017,1.635,0,2.486,0c0-1.123,0-2.213,0-3.367
	c1.153,0,2.243,0,3.364,0c0-0.656,0-1.267,0-1.907c0-0.209,0-0.401,0-0.593C38.475,23.549,37.561,23.549,36.646,23.549
	L36.646,23.549z"/>
<path display="none" fill-rule="evenodd" clip-rule="evenodd" fill="#FFFFFF" d="M36.937,28.184
	c0.208-0.913,0.306-1.826,0.306-2.773c0-0.337,0-0.672-0.032-0.993c-0.513-6.669-6.157-11.927-13.065-11.927
	c-0.754,0-1.507,0.049-2.245,0.176c-1.169-0.721-2.549-1.138-4.04-1.138c-4.2,0-7.599,3.35-7.599,7.502
	c0,1.364,0.369,2.678,1.042,3.783c-0.096,0.465-0.176,0.946-0.225,1.412c-0.016,0.4-0.048,0.785-0.048,1.185
	c0,7.134,5.868,12.922,13.113,12.922c0.818,0,1.619-0.081,2.404-0.225c1.059,0.576,2.277,0.897,3.591,0.897
	c4.2,0,7.599-3.366,7.599-7.503C37.738,30.316,37.434,29.178,36.937,28.184z M30.757,31.559c-0.594,0.833-1.491,1.507-2.645,2.004
	c-1.17,0.465-2.532,0.689-4.12,0.689c-1.875,0-3.463-0.322-4.681-0.963c-0.882-0.48-1.603-1.09-2.165-1.892
	c-0.544-0.784-0.817-1.57-0.817-2.34c0-0.48,0.16-0.865,0.546-1.217c0.336-0.322,0.817-0.499,1.362-0.499
	c0.432,0,0.833,0.129,1.154,0.401c0.304,0.24,0.544,0.608,0.769,1.106c0.226,0.529,0.466,0.978,0.738,1.314
	c0.256,0.321,0.625,0.625,1.089,0.85c0.497,0.225,1.123,0.319,1.908,0.319c1.09,0,1.987-0.224,2.645-0.672
	c0.642-0.449,0.962-0.962,0.962-1.604c0-0.53-0.145-0.913-0.479-1.249c-0.387-0.322-0.851-0.563-1.413-0.754
	c-0.593-0.177-1.41-0.385-2.403-0.579c-1.362-0.287-2.533-0.64-3.446-1.008c-0.93-0.401-1.684-0.946-2.245-1.637
	c-0.177-0.224-0.321-0.463-0.448-0.721c-0.272-0.545-0.401-1.154-0.401-1.876c0-0.962,0.304-1.859,0.897-2.596
	c0.593-0.771,1.427-1.347,2.549-1.732c1.09-0.433,2.373-0.625,3.832-0.625c1.187,0,2.212,0.145,3.079,0.401
	c0.864,0.273,1.57,0.641,2.146,1.057c0.593,0.449,1.01,0.916,1.282,1.412c0.273,0.528,0.402,1.01,0.402,1.49
	c0,0.465-0.177,0.882-0.53,1.234c-0.369,0.368-0.817,0.561-1.346,0.561c-0.481,0-0.866-0.111-1.123-0.336
	c-0.239-0.225-0.514-0.546-0.784-1.042c-0.322-0.593-0.722-1.089-1.188-1.443c-0.433-0.32-1.17-0.479-2.18-0.479
	c-0.945,0-1.715,0.192-2.277,0.561c-0.544,0.353-0.817,0.738-0.817,1.234c0,0.272,0.097,0.529,0.272,0.754
	c0.192,0.208,0.45,0.417,0.785,0.592c0.353,0.16,0.69,0.288,1.042,0.385c0.08,0.032,0.144,0.032,0.224,0.049
	c0.369,0.111,0.915,0.224,1.604,0.399c1.042,0.225,2.035,0.465,2.9,0.738c0.866,0.272,1.603,0.626,2.229,1.026
	c0.642,0.385,1.138,0.913,1.475,1.522c0.354,0.626,0.529,1.395,0.529,2.292C31.671,29.747,31.366,30.709,30.757,31.559z"/>
<path display="none" fill-rule="evenodd" clip-rule="evenodd" fill="#FFFFFF" d="M38.499,17.469c0,0-0.304-2.132-1.187-3.062
	c-1.121-1.218-2.388-1.234-2.948-1.315c-4.136-0.304-10.34-0.304-10.34-0.304h-0.033c0,0-6.187,0-10.324,0.304
	c-0.592,0.081-1.842,0.097-2.964,1.315c-0.882,0.93-1.186,3.062-1.186,3.062s-0.306,2.501-0.306,4.97v0.321v2.035
	c0,2.5,0.306,4.971,0.306,4.971s0.304,2.131,1.186,3.076c1.122,1.234,2.598,1.188,3.271,1.314
	c2.356,0.242,10.051,0.322,10.051,0.322s6.204-0.033,10.34-0.322c0.561-0.08,1.827-0.08,2.948-1.314
	c0.883-0.945,1.187-3.076,1.187-3.076s0.289-2.471,0.289-4.971v-1.908v-0.448C38.788,19.97,38.499,17.469,38.499,17.469
	L38.499,17.469z M28.946,23.305l-8,4.31V20.98v-2.02l3.623,1.972L28.946,23.305z"/>
<path display="none" fill-rule="evenodd" clip-rule="evenodd" fill="#FFFFFF" d="M24.697,10.501c-8.304,0-12.52,5.755-12.52,10.58
	c0,0.897,0.096,1.764,0.321,2.548c0.497,1.812,1.571,3.27,3.271,3.944c0.4,0.176,0.769,0,0.865-0.417
	c0.097-0.305,0.272-1.043,0.369-1.362c0.128-0.434,0.08-0.577-0.241-0.946c-0.417-0.497-0.769-1.058-0.961-1.763
	c-0.128-0.465-0.208-0.978-0.208-1.571c0-4.28,3.318-8.128,8.641-8.128c4.696,0,7.294,2.773,7.294,6.493
	c0,1.106-0.112,2.148-0.321,3.142c-0.736,3.414-2.66,5.883-5.241,5.883c-1.828,0-3.223-1.459-2.773-3.271
	c0.256-1.009,0.625-2.068,0.946-3.093c0.336-1.075,0.625-2.116,0.625-2.917c0-1.411-0.77-2.549-2.388-2.549
	c-1.876,0-3.383,1.892-3.383,4.392c0,0.466,0.047,0.915,0.112,1.25c0.176,0.898,0.449,1.443,0.449,1.443s-1.923,7.872-2.244,9.25
	c-0.673,2.757-0.096,6.107-0.048,6.444c0.016,0.192,0.288,0.24,0.417,0.096c0.176-0.224,2.404-2.869,3.174-5.547
	c0.192-0.769,1.235-4.681,1.235-4.681c0.593,1.139,2.372,2.133,4.28,2.133c4.568,0,7.967-3.319,9.073-8.144
	c0.256-1.09,0.385-2.277,0.385-3.495C35.822,15.166,31.414,10.501,24.697,10.501L24.697,10.501z"/>
<path fill-rule="evenodd" clip-rule="evenodd" fill="#FFFFFF" d="M38.779,16.249c-1.074,0.465-2.243,0.786-3.478,0.946
	c1.266-0.753,2.227-1.908,2.677-3.318c-1.17,0.689-2.484,1.186-3.863,1.458c-1.092-1.17-2.677-1.892-4.44-1.892
	c-3.335,0-6.06,2.677-6.06,5.963c0,0.481,0.081,0.93,0.177,1.363c-5.049-0.24-9.522-2.613-12.504-6.236
	c-0.513,0.897-0.833,1.908-0.833,2.998c0,2.084,1.09,3.912,2.692,4.97c-0.993-0.016-1.923-0.289-2.74-0.738c0,0.033,0,0.048,0,0.081
	c0,0.769,0.145,1.475,0.416,2.148c0.738,1.876,2.421,3.286,4.458,3.688c-0.53,0.144-1.042,0.224-1.603,0.224
	c-0.385,0-0.77-0.048-1.139-0.128c0.786,2.373,3.014,4.104,5.66,4.168c-2.084,1.604-4.681,2.549-7.519,2.549
	c-0.497,0-0.961-0.033-1.458-0.08c2.693,1.684,5.882,2.677,9.297,2.677c9.474,0,15.325-6.557,16.848-13.37
	c0.273-1.218,0.4-2.42,0.4-3.606c0-0.257,0-0.529,0-0.77C36.936,18.494,37.979,17.436,38.779,16.249L38.779,16.249z"/>
<path display="none" fill-rule="evenodd" clip-rule="evenodd" fill="#FFFFFF" d="M38.682,18.534
	c-1.666,9.33-10.916,17.249-13.722,19.061c-2.757,1.795-5.322-0.754-6.235-2.661c-1.058-2.165-4.2-13.979-5.049-14.973
	c-0.802-0.977-3.302,0.994-3.302,0.994l-1.202-1.586c0,0,5.033-6.028,8.896-6.782c4.056-0.785,4.056,6.236,5.017,10.179
	c0.962,3.784,1.587,5.931,2.421,5.931c0.817,0,2.404-2.1,4.136-5.338c1.731-3.237-0.064-6.107-3.463-4.055
	C27.542,11.161,40.334,9.205,38.682,18.534L38.682,18.534z"/>
<path display="none" fill-rule="evenodd" clip-rule="evenodd" fill="#FFFFFF" d="M16.585,25.259c0-4.088,3.318-7.422,7.406-7.422
	c4.104,0,7.423,3.334,7.423,7.422c0,4.104-3.318,7.422-7.423,7.422C19.904,32.681,16.585,29.362,16.585,25.259L16.585,25.259z
	 M31.654,10.751H16.345c-3.767,0-6.861,3.078-6.861,6.861v15.309c0,3.767,3.094,6.861,6.861,6.861h15.309
	c3.783,0,6.861-3.095,6.861-6.861V17.612C38.516,13.829,35.438,10.751,31.654,10.751L31.654,10.751z M16.345,12.467h15.309
	c2.838,0,5.146,2.308,5.146,5.146v15.309c0,2.838-2.308,5.146-5.146,5.146H16.345c-2.838,0-5.146-2.308-5.146-5.146V17.612
	C11.199,14.774,13.507,12.467,16.345,12.467L16.345,12.467z M33.177,14.63c-0.833,0-1.506,0.673-1.506,1.506
	c0,0.834,0.673,1.507,1.506,1.507c0.834,0,1.508-0.673,1.508-1.507C34.685,15.304,34.011,14.63,33.177,14.63L33.177,14.63z
	 M33.354,25.259c0-5.162-4.184-9.362-9.362-9.362c-5.162,0-9.361,4.2-9.361,9.362c0,5.178,4.2,9.361,9.361,9.361
	C29.17,34.62,33.354,30.437,33.354,25.259L33.354,25.259z"/>
</svg>
