<svg width="48" height="48" viewBox="0 0 48 48" fill="none" xmlns="http://www.w3.org/2000/svg">
<circle cx="24" cy="24" r="23.5" fill="#737373" stroke="#737373"/>
<path d="M23.3993 31.2919V29.4992C22.3673 29.4825 21.3027 29.1612 20.6793 28.7185L21.1047 27.5279C21.748 27.9552 22.6673 28.2919 23.664 28.2919C24.928 28.2919 25.7773 27.5625 25.7773 26.5525C25.7773 25.5732 25.086 24.9699 23.7713 24.4372C21.9593 23.7279 20.8413 22.9092 20.8413 21.3645C20.8413 19.8905 21.888 18.7719 23.524 18.5052V16.7065H24.622V18.4312C25.686 18.4665 26.4153 18.7525 26.932 19.0532L26.4867 20.2265C26.1113 20.0112 25.3867 19.6212 24.2507 19.6212C22.88 19.6212 22.366 20.4385 22.366 21.1492C22.366 22.0739 23.0227 22.5359 24.5693 23.1745C26.3987 23.9212 27.322 24.8432 27.322 26.4245C27.322 27.8279 26.3453 29.1425 24.5147 29.4439V31.2912H23.3993V31.2919Z" fill="white"/>
<path d="M23.9993 40C15.1787 40 8.00201 32.8213 8.00201 24C8.00201 15.178 15.1787 8 23.9993 8C32.8207 8 39.9993 15.178 39.9993 24C39.9993 32.8213 32.8207 40 23.9993 40ZM23.9993 9.33333C15.9133 9.33333 9.33535 15.9127 9.33535 24C9.33535 32.0873 15.9133 38.6667 23.9993 38.6667C32.0867 38.6667 38.666 32.0873 38.666 24C38.666 15.9127 32.0867 9.33333 23.9993 9.33333Z" fill="white"/>
</svg>
