<svg width="48" height="48" viewBox="0 0 48 48" fill="none" xmlns="http://www.w3.org/2000/svg">
<path d="M18.9508 32.738C18.7248 32.738 18.5098 32.706 18.3088 32.64C17.1898 32.276 16.6098 30.975 16.0498 29.717C15.7708 29.09 15.3878 28.232 15.1198 28.037C14.8508 27.843 13.9168 27.744 13.2348 27.672C11.8638 27.526 10.4458 27.376 9.75482 26.424C9.06282 25.472 9.35782 24.077 9.64382 22.729C9.78582 22.059 9.98082 21.14 9.87782 20.823C9.77482 20.507 9.07682 19.878 8.56682 19.418C7.54482 18.496 6.48682 17.543 6.48682 16.367C6.48682 15.191 7.54382 14.238 8.56682 13.317C9.07682 12.858 9.77482 12.228 9.87782 11.912C9.98082 11.594 9.78582 10.673 9.64382 10.001C9.35882 8.654 9.06282 7.261 9.75582 6.31C10.4468 5.358 11.8638 5.208 13.2348 5.063C13.9168 4.991 14.8518 4.892 15.1208 4.697C15.3878 4.503 15.7698 3.645 16.0498 3.018C16.6108 1.76 17.1918 0.458 18.3118 0.096C18.5088 0.033 18.7248 0 18.9498 0C19.8878 0 20.8868 0.576 21.8528 1.133C22.4478 1.476 23.2628 1.945 23.5948 1.945C23.9278 1.945 24.7418 1.476 25.3368 1.133C26.5348 0.442 27.8478 -0.238 28.8828 0.098C30.0018 0.46 30.5818 1.762 31.1428 3.019C31.4228 3.646 31.8058 4.504 32.0748 4.7C32.3428 4.894 33.2758 4.992 33.9578 5.065C35.3288 5.21 36.7468 5.359 37.4378 6.312C38.1288 7.263 37.8338 8.655 37.5488 10.001C37.4058 10.673 37.2108 11.594 37.3148 11.912C37.4178 12.229 38.1158 12.859 38.6268 13.318C39.6488 14.24 40.7058 15.193 40.7058 16.368C40.7058 17.544 39.6478 18.497 38.6268 19.418C38.1158 19.878 37.4178 20.507 37.3148 20.824C37.2108 21.142 37.4068 22.061 37.5488 22.733C37.8338 24.08 38.1288 25.472 37.4388 26.423C36.7478 27.375 35.3308 27.526 33.9598 27.671C33.2768 27.743 32.3428 27.842 32.0728 28.037C31.8038 28.231 31.4218 29.091 31.1418 29.718C30.5798 30.976 30.0008 32.276 28.8828 32.64C27.8428 32.976 26.5348 32.295 25.3368 31.605C24.7418 31.262 23.9268 30.792 23.5938 30.792C23.2618 30.792 22.4478 31.262 21.8538 31.605C20.8878 32.162 19.8888 32.738 18.9508 32.738ZM18.9498 2C18.6328 2.135 18.1398 3.241 17.8748 3.835C17.4228 4.85 16.9958 5.808 16.2938 6.318C15.5898 6.828 14.5468 6.938 13.4428 7.054C12.7958 7.122 11.5898 7.25 11.3678 7.492C11.2128 7.769 11.4638 8.952 11.5978 9.588C11.8288 10.676 12.0468 11.704 11.7778 12.53C11.5108 13.355 10.7298 14.058 9.90382 14.803C9.42182 15.238 8.52282 16.048 8.48582 16.373C8.52382 16.687 9.42182 17.498 9.90382 17.933C10.7298 18.678 11.5098 19.381 11.7778 20.207C12.0458 21.032 11.8278 22.058 11.5978 23.145C11.4628 23.782 11.2118 24.968 11.3738 25.253C11.5898 25.487 12.7958 25.615 13.4438 25.684C14.5478 25.801 15.5898 25.912 16.2918 26.418C16.9948 26.929 17.4228 27.888 17.8748 28.903C18.1398 29.498 18.6328 30.604 18.9318 30.74L18.9498 30.738C19.3528 30.738 20.2208 30.238 20.8548 29.872C21.8168 29.317 22.7268 28.793 23.5938 28.793C24.4618 28.793 25.3718 29.317 26.3348 29.872C26.9698 30.237 27.8378 30.738 28.2408 30.738C28.5558 30.603 29.0498 29.498 29.3138 28.904C29.7668 27.887 30.1948 26.928 30.8978 26.419C31.5998 25.91 32.6428 25.8 33.7478 25.683C34.3948 25.615 35.5998 25.487 35.8218 25.245C35.9758 24.969 35.7248 23.784 35.5908 23.148C35.3608 22.06 35.1428 21.033 35.4108 20.207C35.6788 19.382 36.4588 18.678 37.2848 17.933C37.7678 17.498 38.6658 16.688 38.7038 16.362C38.6658 16.048 37.7678 15.239 37.2858 14.804C36.4588 14.059 35.6788 13.355 35.4108 12.529C35.1418 11.703 35.3598 10.675 35.5908 9.587C35.7258 8.952 35.9768 7.769 35.8158 7.483C35.6008 7.25 34.3948 7.122 33.7468 7.054C32.6428 6.937 31.5998 6.827 30.8978 6.318C30.1958 5.807 29.7688 4.849 29.3158 3.834C29.0508 3.24 28.5578 2.135 28.2598 1.998C27.8378 2 26.9698 2.5 26.3358 2.866C25.3728 3.421 24.4628 3.945 23.5948 3.945C22.7278 3.945 21.8178 3.421 20.8548 2.866C20.2208 2.5 19.3528 2 18.9498 2Z" fill="black"/>
<path d="M21.0676 47.9996C20.7956 47.9996 20.5286 47.8886 20.3366 47.6826L16.4336 43.5036L10.6816 45.3056C10.3096 45.4236 9.90261 45.3126 9.63961 45.0216C9.37761 44.7306 9.30861 44.3146 9.46361 43.9556L15.9956 28.8096L17.8326 29.6026L12.1636 42.7466L16.4346 41.4086C16.8006 41.2926 17.2006 41.3986 17.4646 41.6796L20.2986 44.7136L21.7866 30.3636L23.7756 30.5706L22.0616 47.1036C22.0206 47.4936 21.7566 47.8236 21.3856 47.9486C21.2816 47.9826 21.1736 47.9996 21.0676 47.9996Z" fill="black"/>
<path d="M30.078 47.7449C29.991 47.7449 29.903 47.7329 29.817 47.7109C29.442 47.6089 29.16 47.2999 29.092 46.9169L26.438 31.7289L28.409 31.3849L30.694 44.4629L33.604 41.0119C33.851 40.7179 34.245 40.5929 34.619 40.6889L38.408 41.6679L30.542 28.4869L32.259 27.4619L41.372 42.7329C41.58 43.0819 41.558 43.5209 41.314 43.8449C41.07 44.1689 40.656 44.3149 40.263 44.2129L34.727 42.7819L30.842 47.3889C30.649 47.6179 30.368 47.7449 30.078 47.7449Z" fill="black"/>
</svg>
