<svg width="24" height="24" viewBox="0 0 24 24" fill="none" xmlns="http://www.w3.org/2000/svg">
<path d="M17.0339 17.083V22.2615C17.0339 22.6285 16.7244 22.9385 16.3569 22.9385C16.1829 22.9385 16.0149 22.866 15.8844 22.7355L9.44739 16.298H4.28489C3.91889 16.298 3.60889 15.9885 3.60889 15.622V8.378C3.60889 8.012 3.91839 7.702 4.28489 7.702H9.44689L15.8839 1.2645C16.0159 1.134 16.1839 1.062 16.3574 1.062C16.7244 1.062 17.0344 1.3715 17.0344 1.7385V6.595H18.0969V1.7385C18.0964 0.78 17.3164 0 16.3574 0C15.9004 0 15.4659 0.1825 15.1339 0.5135L9.00789 6.6395H4.28489C3.32689 6.6395 2.54639 7.42 2.54639 8.378V15.622C2.54639 16.58 3.32689 17.3605 4.28489 17.3605H9.00739L15.1334 23.4865C15.4659 23.8175 15.9004 24 16.3574 24C17.3164 24 18.0969 23.2205 18.0969 22.2615V17.083H17.0339Z" fill="white"/>
<path d="M20.0213 14.1722C19.9473 14.2092 19.8633 14.2182 19.7898 14.2182C19.4658 14.2182 19.1978 13.9602 19.1978 13.6272C19.1978 12.9242 20.2708 13.1182 20.2708 12.0002C20.2708 10.8822 19.1978 11.0757 19.1978 10.3737C19.1978 10.0402 19.4653 9.78174 19.7898 9.78174C19.8628 9.78174 19.9468 9.79124 20.0213 9.82824C20.8903 10.1702 21.4528 11.0757 21.4528 12.0002C21.4528 12.9242 20.8903 13.8217 20.0213 14.1722Z" fill="white"/>
</svg>
