<svg width="48" height="48" viewBox="0 0 48 48" fill="none" xmlns="http://www.w3.org/2000/svg">
<path d="M23.997 41.6084C10.765 41.6084 0 30.8434 0 17.6104C0 17.0584 0.448 16.6104 1 16.6104H47C47.553 16.6104 48 17.0584 48 17.6104C48 30.8434 37.232 41.6084 23.997 41.6084ZM2.022 18.6104C2.547 30.2774 12.203 39.6094 23.997 39.6094C35.794 39.6094 45.452 30.2784 45.977 18.6104H2.022Z" fill="black"/>
<path d="M47 45.2012H1C0.448 45.2012 0 44.7542 0 44.2012C0 43.6482 0.448 43.2012 1 43.2012H47C47.553 43.2012 48 43.6482 48 44.2012C48 44.7542 47.553 45.2012 47 45.2012Z" fill="black"/>
<path d="M17.7791 17.7818C17.5501 17.7818 17.3201 17.7038 17.1321 17.5438L1.84907 4.55977C1.42807 4.20177 1.37607 3.57077 1.73407 3.14977C2.09107 2.72777 2.72307 2.67777 3.14407 3.03477L18.4271 16.0198C18.8481 16.3778 18.8991 17.0088 18.5421 17.4298C18.3441 17.6628 18.0631 17.7818 17.7791 17.7818Z" fill="black"/>
</svg>
