<svg width="48" height="48" viewBox="0 0 48 48" fill="none" xmlns="http://www.w3.org/2000/svg">
<circle cx="24" cy="24" r="23.5" fill="#737373" stroke="#737373"/>
<g clip-path="url(#clip0)">
<path d="M39.3333 34.0226C38.9647 34.0226 38.6667 33.7246 38.6667 33.3559V24.6459C38.6667 16.2566 32.088 9.43123 24.0013 9.43123C15.9133 9.43123 9.33333 16.2566 9.33333 24.6459V33.3559C9.33333 33.7246 9.03467 34.0226 8.66667 34.0226C8.29867 34.0226 8 33.7246 8 33.3559V24.6459C8 15.5212 15.178 8.0979 24.0013 8.0979C32.8227 8.0979 40 15.5212 40 24.6459V33.3559C40 33.7246 39.702 34.0226 39.3333 34.0226Z" fill="white"/>
<path d="M14.7747 35.4633H9.33333C8.598 35.4633 8 34.8653 8 34.13V26.5487C8 25.8127 8.598 25.2153 9.33333 25.2153H14.7747C15.51 25.2153 16.108 25.8127 16.108 26.5487V34.13C16.108 34.8653 15.51 35.4633 14.7747 35.4633ZM14.7747 34.13V34.7967V34.13ZM9.33333 26.5487V34.13H14.7727L14.7747 26.5487H9.33333Z" fill="white"/>
<path d="M38.6667 35.4633H33.228C32.492 35.4633 31.8947 34.8653 31.8947 34.13V26.5487C31.8947 25.8127 32.492 25.2153 33.228 25.2153H38.6667C39.4027 25.2153 40 25.8127 40 26.5487V34.13C40 34.8653 39.4027 35.4633 38.6667 35.4633ZM38.6667 34.13V34.7967V34.13ZM33.228 26.5487V34.13H38.6647L38.6667 26.5487H33.228Z" fill="white"/>
<path d="M23.6267 39.9027C23.2587 39.9027 22.96 39.6053 22.96 39.236C22.96 38.8673 23.2587 38.5693 23.6267 38.5693C31.4754 38.5693 34.1214 34.736 34.1474 34.6967C34.3507 34.39 34.7647 34.308 35.072 34.512C35.378 34.7167 35.4614 35.1307 35.256 35.4373C35.1347 35.6187 32.1807 39.9027 23.6267 39.9027Z" fill="white"/>
</g>
<defs>
<clipPath id="clip0">
<rect width="32" height="32" fill="white" transform="translate(8 8)"/>
</clipPath>
</defs>
</svg>
