<svg width="24" height="24" viewBox="0 0 24 24" fill="none" xmlns="http://www.w3.org/2000/svg">
<g clip-path="url(#clip0)">
<path d="M17.2878 17.082V22.2615C17.2878 22.6275 16.9783 22.9375 16.6118 22.9375C16.4368 22.9375 16.2678 22.865 16.1373 22.7355L9.70079 16.298H4.53879C4.17179 16.298 3.86279 15.9885 3.86279 15.621V8.378C3.86279 8.012 4.17129 7.702 4.53879 7.702H9.70079L16.1373 1.2645C16.2683 1.134 16.4373 1.062 16.6118 1.062C16.9778 1.062 17.2878 1.3715 17.2878 1.7385V6.595H18.3503V1.7385C18.3503 0.78 17.5703 0 16.6123 0C16.1533 0 15.7188 0.1825 15.3868 0.5135L9.26179 6.6395H4.53879C3.57979 6.6395 2.80029 7.42 2.80029 8.378V15.621C2.80029 16.58 3.57979 17.3595 4.53879 17.3595H9.26129L15.3863 23.4855C15.7188 23.8175 16.1533 24 16.6123 24C17.5703 24 18.3508 23.2195 18.3508 22.2615V17.082H17.2878Z" fill="#FEFEFE"/>
<path d="M21.2003 14.5001L18.5743 11.8741L21.2003 9.24758L20.4493 8.49658L17.8238 11.1231L15.1968 8.49658L14.4458 9.24758L17.0728 11.8741L14.4458 14.5001L15.1968 15.2511L17.8238 12.6251L20.4493 15.2511L21.2003 14.5001Z" fill="#FEFEFE"/>
</g>
<defs>
<clipPath id="clip0">
<rect width="24" height="24" fill="white"/>
</clipPath>
</defs>
</svg>
