<svg width="48" height="48" viewBox="0 0 48 48" fill="none" xmlns="http://www.w3.org/2000/svg">
<circle cx="24" cy="24" r="23.5" fill="#737373" stroke="#737373"/>
<path d="M29.1352 35.57V31.6193H29.0279C27.9553 33.1601 26.8737 34.28 25.7832 34.9787C24.6927 35.6596 23.343 36 21.7341 36C19.0346 36 16.7374 34.8354 14.8425 32.5062C12.9475 30.1769 12 27.346 12 24.0134C12 20.7167 13.0101 17.8947 15.0302 15.5476C17.0503 13.1825 19.4458 12 22.2168 12C23.5397 12 24.7285 12.2956 25.7832 12.8869C26.838 13.4782 27.9553 14.4188 29.1352 15.7088V12.5106H36V35.57H29.1352ZM24.0939 18.8802C22.7352 18.8802 21.6 19.4267 20.6883 20.5196C19.7765 21.5946 19.3207 22.9563 19.3207 24.6047C19.3207 26.1456 19.7497 27.3908 20.6078 28.3404C21.4838 29.2721 22.6279 29.738 24.0402 29.738C25.3989 29.738 26.5609 29.2004 27.5263 28.1254C28.4916 27.0325 28.9743 25.7156 28.9743 24.1747C28.9743 22.7413 28.4916 21.505 27.5263 20.4658C26.5609 19.4087 25.4168 18.8802 24.0939 18.8802Z" fill="white"/>
</svg>
