<?xml version="1.0" encoding="utf-8"?>
<!-- Generator: Adobe Illustrator 16.0.0, SVG Export Plug-In . SVG Version: 6.00 Build 0)  -->
<!DOCTYPE svg PUBLIC "-//W3C//DTD SVG 1.1//EN" "http://www.w3.org/Graphics/SVG/1.1/DTD/svg11.dtd">
<svg version="1.1" id="Layer_1" xmlns="http://www.w3.org/2000/svg" xmlns:xlink="http://www.w3.org/1999/xlink" x="0px" y="0px"
	 width="48px" height="48px" viewBox="0 0 48 48" enable-background="new 0 0 48 48" xml:space="preserve">
<g>
	<path d="M24.458,48c-0.172-0.026-0.322-0.021-0.457-0.056C23.866,47.979,23.714,48,23.544,48C19.082,48,0,26.287,0,17.365
		C0,7.79,6.804,0,15.167,0C18.343,0,21.379,1.149,24,3.333C26.619,1.149,29.655,0,32.832,0C41.195,0,48,7.79,48,17.365
		c0,5.709-7.029,14.963-10.051,18.677C34.334,40.483,27.425,48,24.458,48z M24.457,46l0.001,1L24.457,46
		C24.458,46,24.458,46,24.457,46z M15.167,2C7.907,2,2,8.893,2,17.365c0,8.463,18.302,28.312,21.47,28.631
		c0.322-0.203,0.737-0.204,1.062,0c1.271-0.156,6.104-4.136,11.866-11.217C42.32,27.501,46,20.829,46,17.365
		C46,8.893,40.093,2,32.832,2c-2.941,0-5.76,1.175-8.15,3.397c-0.383,0.356-0.977,0.358-1.361,0C20.927,3.175,18.108,2,15.167,2z"/>
</g>
</svg>
