<svg width="26" height="24" viewBox="0 0 26 24" fill="none" xmlns="http://www.w3.org/2000/svg">
<g clip-path="url(#clip0)">
<path fill-rule="evenodd" clip-rule="evenodd" d="M0.5 9.10795C0.5 17.6938 13.0135 23.1261 13.0135 23.1261C13.0135 23.1261 25.5 17.6938 25.5 9.05638C25.5 4.08607 22.4734 1.48659 19.2896 1.48659C16.8568 1.48659 14.3318 3.00378 12.9943 6.1392C11.6083 2.91263 9.11823 1.38867 6.725 1.38867H6.72396C3.52604 1.38867 0.499479 4.10586 0.5 9.10795ZM6.33213 2.4924L8.3181 2.83412C7.81391 2.60892 7.28084 2.47581 6.725 2.47565L6.72396 1.38867V2.47565C6.59241 2.47565 6.46172 2.48127 6.33213 2.4924ZM5.1476 2.75807C4.43881 3.02146 3.79166 3.46412 3.25088 4.06499L5.1476 2.75807ZM1.998 6.29657C1.78876 6.943 1.65796 7.65226 1.60893 8.41373L1.998 6.29657ZM12.6812 21.7643L4.77669 16.0856C7.46409 18.9797 11.114 20.9828 12.6812 21.7643ZM12.98 21.911C12.991 21.9163 13.0018 21.9215 13.0125 21.9266C14.5615 21.1769 19.8881 18.388 22.6776 14.247L21.0239 16.1664L12.98 21.911ZM24.1875 10.9317C24.3332 10.3253 24.4125 9.69969 24.4125 9.05638C24.4125 8.30462 24.3365 7.59937 24.1875 6.94986V10.9317ZM24.0732 6.51106C23.8013 5.58162 23.3686 4.7808 22.7849 4.1392C21.8672 3.1293 20.626 2.57409 19.2896 2.57409C19.1488 2.57409 19.0095 2.58232 18.8717 2.59815L21.389 3.1047L24.0732 6.51106ZM16.7402 3.45664C15.8077 4.09901 15.0093 4.99959 14.3924 5.83762L16.7402 3.45664Z" fill="#FF2462"/>
<path d="M13.0135 23.1261L12.8144 23.5848L13.0138 23.6713L13.213 23.5846L13.0135 23.1261ZM0.5 9.10795H1V9.10789L0.5 9.10795ZM12.9943 6.1392L12.5349 6.33653L12.9959 7.40978L13.4542 6.33538L12.9943 6.1392ZM6.33213 2.4924L6.28936 1.99423L6.24734 2.98515L6.33213 2.4924ZM8.3181 2.83412L8.23331 3.32687L8.52201 2.37759L8.3181 2.83412ZM6.725 2.47565L6.225 2.47613L6.22548 2.97551L6.72486 2.97565L6.725 2.47565ZM6.72396 2.47565V2.97565H7.22396V2.47565H6.72396ZM5.1476 2.75807L5.4313 3.16979L4.97343 2.28938L5.1476 2.75807ZM3.25088 4.06499L2.87923 3.7305L3.53457 4.47671L3.25088 4.06499ZM1.998 6.29657L2.48976 6.38694L1.5223 6.1426L1.998 6.29657ZM1.60893 8.41373L1.10997 8.38161L2.1007 8.5041L1.60893 8.41373ZM12.6812 21.7643L12.458 22.2117L12.9729 21.3582L12.6812 21.7643ZM4.77669 16.0856L5.06842 15.6795L4.41029 16.4258L4.77669 16.0856ZM12.98 21.911L12.6894 21.5041L12.0028 21.9944L12.7626 22.3612L12.98 21.911ZM13.0125 21.9266L12.7958 22.3772L13.0132 22.4818L13.2303 22.3767L13.0125 21.9266ZM22.6776 14.247L23.0923 14.5264L22.2989 13.9207L22.6776 14.247ZM21.0239 16.1664L21.3145 16.5733L21.3635 16.5383L21.4027 16.4927L21.0239 16.1664ZM24.1875 10.9317H23.6875L24.6737 11.0485L24.1875 10.9317ZM24.1875 6.94986L24.6748 6.83806L23.6875 6.94986H24.1875ZM24.0732 6.51106L23.6805 6.82053L24.5531 6.37065L24.0732 6.51106ZM22.7849 4.1392L22.4149 4.47546L22.415 4.47566L22.7849 4.1392ZM18.8717 2.59815L18.8146 2.10142L18.7731 3.08833L18.8717 2.59815ZM21.389 3.1047L21.7817 2.79523L21.6679 2.6508L21.4876 2.61452L21.389 3.1047ZM16.7402 3.45664L17.0963 3.8077L16.4566 3.04487L16.7402 3.45664ZM14.3924 5.83762L13.9898 5.5412L14.7485 6.18869L14.3924 5.83762ZM13.0135 23.1261C13.2126 22.6675 13.2127 22.6675 13.2128 22.6675C13.2127 22.6675 13.2127 22.6675 13.2126 22.6675C13.2124 22.6674 13.212 22.6672 13.2114 22.6669C13.2102 22.6664 13.2083 22.6656 13.2057 22.6644C13.2004 22.6621 13.1921 22.6584 13.181 22.6535C13.1588 22.6436 13.1251 22.6285 13.0808 22.6083C12.9922 22.5678 12.861 22.5067 12.6934 22.4257C12.3579 22.2637 11.8768 22.0219 11.2987 21.7048C10.1414 21.07 8.60104 20.1368 7.06359 18.9419C3.96028 16.5301 1 13.1555 1 9.10795H6.66139e-08C6.66139e-08 13.6463 3.29649 17.2807 6.44995 19.7315C8.04088 20.968 9.62896 21.9295 10.8179 22.5816C11.4129 22.9079 11.9094 23.1576 12.2583 23.3261C12.4328 23.4104 12.5705 23.4745 12.6652 23.5178C12.7125 23.5394 12.7492 23.5559 12.7743 23.5671C12.7869 23.5727 12.7965 23.5769 12.8033 23.5799C12.8066 23.5814 12.8093 23.5825 12.8111 23.5833C12.812 23.5837 12.8128 23.5841 12.8133 23.5843C12.8136 23.5844 12.8139 23.5845 12.814 23.5846C12.8143 23.5847 12.8144 23.5848 13.0135 23.1261ZM25 9.05638C25 13.1311 22.0446 16.5188 18.949 18.9362C17.415 20.1341 15.8782 21.0688 14.7235 21.7043C14.1467 22.0218 13.6667 22.2637 13.3321 22.4259C13.1648 22.5069 13.0339 22.5679 12.9455 22.6084C12.9013 22.6287 12.8678 22.6438 12.8456 22.6537C12.8345 22.6586 12.8263 22.6623 12.821 22.6646C12.8184 22.6658 12.8165 22.6666 12.8153 22.6671C12.8147 22.6674 12.8143 22.6675 12.8141 22.6676C12.814 22.6677 12.814 22.6677 12.814 22.6677C12.814 22.6677 12.8141 22.6676 13.0135 23.1261C13.213 23.5846 13.2132 23.5845 13.2134 23.5844C13.2136 23.5844 13.2138 23.5843 13.2141 23.5841C13.2147 23.5839 13.2154 23.5836 13.2163 23.5832C13.2182 23.5823 13.2208 23.5812 13.2242 23.5797C13.2309 23.5768 13.2406 23.5725 13.2531 23.5669C13.2782 23.5557 13.3147 23.5392 13.362 23.5176C13.4565 23.4743 13.5939 23.4102 13.7681 23.3258C14.1163 23.1571 14.6118 22.9072 15.2056 22.5804C16.3921 21.9274 17.9769 20.9642 19.5645 19.7244C22.7122 17.2662 26 13.619 26 9.05638H25ZM19.2896 1.98659C20.7426 1.98659 22.1601 2.57845 23.2186 3.7438C24.2764 4.90834 25 6.6743 25 9.05638H26C26 6.46816 25.2103 4.44921 23.9588 3.07144C22.7081 1.69447 21.0204 0.986588 19.2896 0.986588V1.98659ZM13.4542 6.33538C14.7216 3.36429 17.0779 1.98659 19.2896 1.98659V0.986588C16.6356 0.986588 13.942 2.64327 12.5344 5.94301L13.4542 6.33538ZM6.725 1.88868C8.88812 1.88868 11.2151 3.26412 12.5349 6.33653L13.4537 5.94186C12.0015 2.56114 9.34834 0.888672 6.725 0.888672V1.88868ZM6.72396 1.88868H6.725V0.888672H6.72396V1.88868ZM1 9.10789C0.999502 4.32362 3.85715 1.88868 6.72396 1.88868V0.888672C3.19494 0.888672 -0.000543447 3.8881 6.93244e-08 9.108L1 9.10789ZM6.24734 2.98515L8.23331 3.32687L8.40288 2.34136L6.41692 1.99964L6.24734 2.98515ZM8.52201 2.37759C7.96472 2.12867 7.36234 1.97584 6.72514 1.97565L6.72486 2.97565C7.19933 2.97579 7.66309 3.08916 8.11418 3.29065L8.52201 2.37759ZM7.225 2.47518L7.22396 1.38819L6.22396 1.38915L6.225 2.47613L7.225 2.47518ZM6.22396 1.38867V2.47565H7.22396V1.38867H6.22396ZM6.72396 1.97565C6.57817 1.97565 6.43322 1.98188 6.28936 1.99423L6.3749 2.99056C6.49023 2.98066 6.60664 2.97565 6.72396 2.97565V1.97565ZM4.97343 2.28938C4.1854 2.58222 3.47145 3.07248 2.87923 3.7305L3.62252 4.39947C4.11187 3.85575 4.69223 3.4607 5.32177 3.22675L4.97343 2.28938ZM3.53457 4.47671L5.4313 3.16979L4.86391 2.34634L2.96718 3.65326L3.53457 4.47671ZM1.5223 6.1426C1.29892 6.83272 1.16136 7.58337 1.10997 8.38161L2.1079 8.44586C2.15456 7.72115 2.27861 7.05327 2.4737 6.45055L1.5223 6.1426ZM2.1007 8.5041L2.48976 6.38694L1.50623 6.2062L1.11717 8.32336L2.1007 8.5041ZM12.9729 21.3582L5.06842 15.6795L4.48496 16.4917L12.3894 22.1703L12.9729 21.3582ZM4.41029 16.4258C7.16037 19.3875 10.8761 21.4229 12.458 22.2117L12.9043 21.3168C11.352 20.5428 7.76781 18.572 5.14309 15.7454L4.41029 16.4258ZM12.7626 22.3612C12.7738 22.3667 12.7849 22.372 12.7958 22.3772L13.2292 21.4761C13.2188 21.471 13.2082 21.4659 13.1974 21.4607L12.7626 22.3612ZM13.2303 22.3767C14.7812 21.6261 20.2209 18.7889 23.0923 14.5264L22.263 13.9677C19.5553 17.9871 14.3418 20.7278 12.7947 21.4766L13.2303 22.3767ZM22.2989 13.9207L20.6451 15.84L21.4027 16.4927L23.0564 14.5734L22.2989 13.9207ZM20.7334 15.7595L12.6894 21.5041L13.2705 22.3179L21.3145 16.5733L20.7334 15.7595ZM24.6737 11.0485C24.828 10.4059 24.9125 9.74116 24.9125 9.05638H23.9125C23.9125 9.65822 23.8383 10.2446 23.7013 10.815L24.6737 11.0485ZM24.9125 9.05638C24.9125 8.27121 24.8332 7.52813 24.6748 6.83806L23.7002 7.06167C23.8399 7.67061 23.9125 8.33803 23.9125 9.05638H24.9125ZM23.6875 6.94986V10.9317H24.6875V6.94986H23.6875ZM24.5531 6.37065C24.2627 5.37807 23.7959 4.50753 23.1548 3.80274L22.415 4.47566C22.9412 5.05407 23.3399 5.78517 23.5934 6.65147L24.5531 6.37065ZM23.1549 3.80294C22.1446 2.69109 20.7701 2.07409 19.2896 2.07409V3.07409C20.482 3.07409 21.5898 3.56751 22.4149 4.47546L23.1549 3.80294ZM19.2896 2.07409C19.1292 2.07409 18.9709 2.08347 18.8146 2.10142L18.9288 3.09488C19.048 3.08118 19.1683 3.07409 19.2896 3.07409V2.07409ZM18.7731 3.08833L21.2903 3.59487L21.4876 2.61452L18.9704 2.10798L18.7731 3.08833ZM20.9962 3.41417L23.6805 6.82053L24.466 6.20159L21.7817 2.79523L20.9962 3.41417ZM16.4566 3.04487C15.46 3.73136 14.6233 4.68057 13.9898 5.5412L14.7951 6.13404C15.3954 5.31862 16.1553 4.46667 17.0239 3.8684L16.4566 3.04487ZM14.7485 6.18869L17.0963 3.8077L16.3842 3.10557L14.0364 5.48655L14.7485 6.18869Z" fill="#FF2462"/>
</g>
<defs>
<clipPath id="clip0">
<rect width="26" height="23" fill="white" transform="translate(0 0.757812)"/>
</clipPath>
</defs>
</svg>
