<?xml version="1.0" encoding="utf-8"?>
<!-- Generator: Adobe Illustrator 16.0.0, SVG Export Plug-In . SVG Version: 6.00 Build 0)  -->
<!DOCTYPE svg PUBLIC "-//W3C//DTD SVG 1.1//EN" "http://www.w3.org/Graphics/SVG/1.1/DTD/svg11.dtd">
<svg version="1.1" id="Layer_1" xmlns="http://www.w3.org/2000/svg" xmlns:xlink="http://www.w3.org/1999/xlink" x="0px" y="0px"
	 width="48px" height="48px" viewBox="0 0 48 48" enable-background="new 0 0 48 48" xml:space="preserve">
<g>
	<g>
		<path fill="none" stroke="#000000" stroke-width="2" stroke-miterlimit="10" d="M38.236,21.974c-3.131,3.127-8.245,3.127-11.373,0
			l-0.834-0.833c-3.128-3.126-3.128-8.246,0-11.375l6.422-6.418c3.124-3.129,8.248-3.129,11.37,0l0.835,0.83
			c3.122,3.13,3.128,8.246,0,11.375L38.236,21.974z"/>
		<path fill="none" stroke="#000000" stroke-width="2" stroke-miterlimit="10" d="M15.55,44.656c-3.126,3.126-8.247,3.126-11.371,0
			l-0.834-0.833c-3.12-3.126-3.131-8.243,0-11.372l6.42-6.424c3.132-3.128,8.246-3.124,11.371,0l0.835,0.833
			c3.131,3.129,3.131,8.248,0,11.374L15.55,44.656z"/>
	</g>
	
		<line fill="none" stroke="#000000" stroke-width="2" stroke-linecap="round" stroke-miterlimit="10" x1="33.486" y1="14.514" x2="14.513" y2="33.486"/>
</g>
</svg>
