<?xml version="1.0" encoding="utf-8"?>
<!-- Generator: Adobe Illustrator 16.0.0, SVG Export Plug-In . SVG Version: 6.00 Build 0)  -->
<!DOCTYPE svg PUBLIC "-//W3C//DTD SVG 1.1//EN" "http://www.w3.org/Graphics/SVG/1.1/DTD/svg11.dtd">
<svg version="1.1" id="Layer_1" xmlns="http://www.w3.org/2000/svg" xmlns:xlink="http://www.w3.org/1999/xlink" x="0px" y="0px"
	 width="48px" height="48px" viewBox="0 0 48 48" enable-background="new 0 0 48 48" xml:space="preserve">
<g>
	<path d="M1,47.671c-0.268,0-0.53-0.107-0.722-0.309c-0.28-0.292-0.356-0.725-0.192-1.096l5.372-12.164
		c-1.896-3.391-2.895-7.201-2.895-11.055c0-12.527,10.192-22.719,22.719-22.719S48,10.521,48,23.048
		c0,12.525-10.191,22.716-22.719,22.716c-3.975,0-7.889-1.059-11.352-3.065L1.364,47.603C1.246,47.648,1.122,47.671,1,47.671z
		 M25.281,2.329c-11.425,0-20.719,9.294-20.719,20.719c0,3.668,0.995,7.295,2.876,10.488c0.163,0.277,0.183,0.617,0.053,0.912
		l-4.597,10.41l10.764-4.201c0.292-0.112,0.618-0.085,0.884,0.077c3.253,1.982,6.967,3.029,10.74,3.029
		C36.706,43.764,46,34.471,46,23.048C46,11.624,36.706,2.329,25.281,2.329z"/>
</g>
</svg>
