<svg width="24" height="24" viewBox="0 0 24 24" fill="none" xmlns="http://www.w3.org/2000/svg">
<g clip-path="url(#clip0)">
<path d="M7.4896 8.51206H3.8916V4.91406H7.4896V8.51206ZM4.8916 7.51206H6.4896V5.91406H4.8916V7.51206Z" fill="black"/>
<path d="M7.4896 13.7987H3.8916V10.2007H7.4896V13.7987ZM4.8916 12.7987H6.4896V11.2007H4.8916V12.7987Z" fill="black"/>
<path d="M7.4896 19.0863H3.8916V15.4888H7.4896V19.0863ZM4.8916 18.0863H6.4896V16.4888H4.8916V18.0863Z" fill="black"/>
<path d="M20 24H4.00098C1.79548 24 0.000976562 22.2055 0.000976562 20V4C0.000976562 1.7945 1.79548 0 4.00098 0H20C22.2055 0 24 1.7945 24 4V20C24 22.2055 22.2055 24 20 24ZM4.00098 1C2.34648 1 1.00098 2.3455 1.00098 4V20C1.00098 21.6545 2.34648 23 4.00098 23H20C21.6545 23 23 21.6545 23 20V4C23 2.3455 21.6545 1 20 1H4.00098Z" fill="black"/>
<path d="M20.0229 6.21289H9.94238V7.21289H20.0229V6.21289Z" fill="black"/>
<path d="M20.0229 11.5H9.94238V12.5H20.0229V11.5Z" fill="black"/>
<path d="M20.0229 16.7871H9.94238V17.7871H20.0229V16.7871Z" fill="black"/>
</g>
<defs>
<clipPath id="clip0">
<rect width="24" height="24" fill="white"/>
</clipPath>
</defs>
</svg>
