<?xml version="1.0" encoding="utf-8"?>
<!-- Generator: Adobe Illustrator 16.0.0, SVG Export Plug-In . SVG Version: 6.00 Build 0)  -->
<!DOCTYPE svg PUBLIC "-//W3C//DTD SVG 1.1//EN" "http://www.w3.org/Graphics/SVG/1.1/DTD/svg11.dtd">
<svg version="1.1" id="Layer_1" xmlns="http://www.w3.org/2000/svg" xmlns:xlink="http://www.w3.org/1999/xlink" x="0px" y="0px"
	 width="48px" height="48px" viewBox="0 0 48 48" enable-background="new 0 0 48 48" xml:space="preserve">
<path d="M0.811,48c-0.21,0-0.417-0.082-0.571-0.236c-0.212-0.213-0.289-0.524-0.199-0.811L5.65,28.877l1.543,0.479L2.036,45.967
	l16.611-5.156l0.479,1.541L1.05,47.965C0.972,47.988,0.891,48,0.811,48z"/>
<path d="M32.639,2.282l13.074,13.076L24.108,36.965l-0.08-0.082c-0.303-0.303-0.713-0.473-1.143-0.473
	c-0.428,0-0.838,0.17-1.141,0.473l-2.813,2.813L8.3,29.063l2.813-2.811c0.303-0.303,0.473-0.715,0.473-1.143
	s-0.17-0.838-0.473-1.142l-0.081-0.08L32.639,2.282"/>
<polygon points="32.639,0 8.749,23.889 9.972,25.109 6.018,29.063 18.933,41.979 22.886,38.025 24.109,39.249 47.997,15.359 
	32.639,0 "/>
</svg>
