<svg width="25" height="25" viewBox="0 0 25 25" fill="none" xmlns="http://www.w3.org/2000/svg">
<g clip-path="url(#clip0)">
<path d="M23.8878 9.97247L20.1222 6.20673C19.9904 6.07471 19.8115 6.00073 19.6251 6.00073H16.5626V5.95056C16.5626 4.52472 15.4025 3.36475 13.9766 3.36475H2.67975C1.25372 3.36475 0.09375 4.52472 0.09375 5.95056V15.3649C0.09375 16.7908 1.25372 17.9506 2.67975 17.9506H3.17688C3.50372 19.5599 4.92938 20.7751 6.63354 20.7751C8.33771 20.7751 9.76355 19.5599 10.0904 17.9506H14.0971C14.424 19.5599 15.8496 20.7751 17.554 20.7751C19.2581 20.7751 20.684 19.5599 21.0106 17.9506H23.3906C23.779 17.9506 24.0938 17.6358 24.0938 17.2474V10.4696C24.0938 10.283 24.0198 10.1043 23.8878 9.97247ZM6.63354 19.3689C5.46405 19.3689 4.51263 18.4171 4.51263 17.2474C4.51263 16.0779 5.46405 15.1263 6.63354 15.1263C7.80322 15.1263 8.75464 16.0779 8.75464 17.2474C8.75464 18.4171 7.80322 19.3689 6.63354 19.3689ZM17.554 19.3689C16.3845 19.3689 15.4329 18.4171 15.4329 17.2474C15.4329 16.0779 16.3845 15.1263 17.554 15.1263C18.7234 15.1263 19.675 16.0779 19.675 17.2474C19.675 18.4171 18.7236 19.3689 17.554 19.3689ZM16.5626 9.76648V7.40698H19.3337L21.6932 9.76648H16.5626Z" fill="#42A5F5"/>
</g>
<defs>
<clipPath id="clip0">
<rect width="24" height="24" fill="white" transform="translate(0.09375 0.0834961)"/>
</clipPath>
</defs>
</svg>
