<?xml version="1.0" encoding="utf-8"?>
<!-- Generator: Adobe Illustrator 16.0.0, SVG Export Plug-In . SVG Version: 6.00 Build 0)  -->
<!DOCTYPE svg PUBLIC "-//W3C//DTD SVG 1.1//EN" "http://www.w3.org/Graphics/SVG/1.1/DTD/svg11.dtd">
<svg version="1.1" id="Layer_1" xmlns="http://www.w3.org/2000/svg" xmlns:xlink="http://www.w3.org/1999/xlink" x="0px" y="0px"
	 width="48px" height="48px" viewBox="0 0 48 48" enable-background="new 0 0 48 48" xml:space="preserve">
<g>
	<path d="M24.001,47.999C10.767,47.999,0,37.233,0,24C0,10.767,10.767,0.001,24.001,0.001C37.234,0.001,48,10.767,48,24
		C48,37.233,37.234,47.999,24.001,47.999z M24.001,2.001C11.87,2.001,2,11.87,2,24c0,12.13,9.87,21.999,22.001,21.999
		C36.131,45.999,46,36.13,46,24C46,11.87,36.131,2.001,24.001,2.001z"/>
	<path d="M24.001,47.999c-7.559,0-13.48-10.542-13.48-23.999c0-13.458,5.921-23.999,13.48-23.999
		c7.558,0,13.478,10.542,13.478,23.999C37.479,37.457,31.559,47.999,24.001,47.999z M24.001,2.001c-6.33,0-11.48,9.869-11.48,21.999
		c0,12.13,5.15,21.999,11.48,21.999c6.222,0,11.478-10.074,11.478-21.999S30.223,2.001,24.001,2.001z"/>
	<path d="M24.001,46.971c-0.552,0-1-0.447-1-1V2.025c0-0.552,0.448-1,1-1c0.553,0,1,0.448,1,1v43.946
		C25.001,46.523,24.554,46.971,24.001,46.971z"/>
	<path d="M47,25H1c-0.552,0-1-0.447-1-1c0-0.552,0.448-1,1-1h46c0.553,0,1,0.448,1,1C48,24.553,47.553,25,47,25z"/>
	<path d="M44.09,13.845H3.904c-0.552,0-1-0.448-1-1s0.448-1,1-1H44.09c0.553,0,1,0.448,1,1S44.643,13.845,44.09,13.845z"/>
	<path d="M44.09,36.209H3.904c-0.552,0-1-0.447-1-1s0.448-1,1-1H44.09c0.553,0,1,0.447,1,1S44.643,36.209,44.09,36.209z"/>
</g>
</svg>
