<?xml version="1.0" encoding="utf-8"?>
<!-- Generator: Adobe Illustrator 16.0.0, SVG Export Plug-In . SVG Version: 6.00 Build 0)  -->
<!DOCTYPE svg PUBLIC "-//W3C//DTD SVG 1.1//EN" "http://www.w3.org/Graphics/SVG/1.1/DTD/svg11.dtd">
<svg version="1.1" id="Layer_1" xmlns="http://www.w3.org/2000/svg" xmlns:xlink="http://www.w3.org/1999/xlink" x="0px" y="0px"
	 width="48px" height="48px" viewBox="0 0 48 48" enable-background="new 0 0 48 48" xml:space="preserve">
<g>
	<path d="M20.147,48L20.147,48c-0.266,0-0.52-0.105-0.708-0.293L0.293,28.548c-0.39-0.391-0.39-1.023,0-1.414L27.139,0.293
		c0.212-0.211,0.511-0.319,0.805-0.288l17.646,1.737c0.479,0.047,0.857,0.429,0.898,0.909l1.508,17.411
		c0.025,0.294-0.08,0.585-0.289,0.793L20.854,47.707C20.667,47.895,20.412,48,20.147,48z M2.415,27.841l17.732,17.745L45.963,19.77
		L44.566,3.651L28.219,2.042L2.415,27.841z"/>
	<path d="M36.546,16.329c-1.305,0-2.53-0.509-3.451-1.433c-1.9-1.894-1.901-4.99-0.001-6.899c0.923-0.922,2.148-1.429,3.452-1.429
		s2.529,0.507,3.45,1.427c0.927,0.927,1.436,2.157,1.433,3.465c-0.002,1.302-0.512,2.523-1.434,3.44
		C39.076,15.82,37.851,16.329,36.546,16.329z M36.546,8.568c-0.77,0-1.493,0.299-2.036,0.842c-1.122,1.126-1.123,2.954-0.001,4.072
		c1.09,1.094,2.985,1.092,4.073,0.002c0.546-0.542,0.846-1.261,0.847-2.028c0.002-0.772-0.299-1.499-0.846-2.047
		C38.04,8.867,37.316,8.568,36.546,8.568z"/>
</g>
</svg>
