<svg width="24" height="24" viewBox="0 0 24 24" fill="none" xmlns="http://www.w3.org/2000/svg">
<g clip-path="url(#clip0)">
<path d="M9.882 19.8066C4.433 19.8056 0 15.3716 0 9.92264C0 4.47064 4.433 0.0356445 9.882 0.0356445C15.3335 0.0356445 19.7685 4.47114 19.7685 9.92264C19.7685 15.3726 15.3335 19.8066 9.882 19.8066ZM9.882 1.03564C4.9845 1.03564 1 5.02214 1 9.92264C1 14.8201 4.9845 18.8056 9.882 18.8066C14.782 18.8066 18.7685 14.8211 18.7685 9.92264C18.7685 5.02214 14.782 1.03564 9.882 1.03564Z" fill="black"/>
<path d="M23.4999 23.9652C23.3719 23.9652 23.2439 23.9162 23.1464 23.8187L16.2804 16.9537C16.0849 16.7582 16.0849 16.4422 16.2804 16.2467C16.4759 16.0512 16.7919 16.0512 16.9874 16.2467L23.8534 23.1117C24.0489 23.3072 24.0489 23.6232 23.8534 23.8187C23.7559 23.9162 23.6279 23.9652 23.4999 23.9652Z" fill="black"/>
</g>
<defs>
<clipPath id="clip0">
<rect width="24" height="24" fill="white"/>
</clipPath>
</defs>
</svg>
