<?xml version="1.0" encoding="utf-8"?>
<!-- Generator: Adobe Illustrator 16.0.0, SVG Export Plug-In . SVG Version: 6.00 Build 0)  -->
<!DOCTYPE svg PUBLIC "-//W3C//DTD SVG 1.1//EN" "http://www.w3.org/Graphics/SVG/1.1/DTD/svg11.dtd">
<svg version="1.1" id="Layer_1" xmlns="http://www.w3.org/2000/svg" xmlns:xlink="http://www.w3.org/1999/xlink" x="0px" y="0px"
	 width="48px" height="48px" viewBox="0 0 48 48" enable-background="new 0 0 48 48" xml:space="preserve">
<g>
	<path d="M7.514,15.031L7.514,15.031C3.371,15.03,0,11.657,0,7.512C0,3.37,3.371,0,7.515,0c4.145,0,7.517,3.37,7.517,7.512
		C15.032,11.658,11.66,15.031,7.514,15.031z M7.515,2C4.474,2,2,4.473,2,7.512c0,3.042,2.474,5.518,5.515,5.519
		c3.042,0,5.518-2.476,5.518-5.519C13.032,4.473,10.557,2,7.515,2z"/>
	<path d="M40.486,15.031c-4.146,0-7.518-3.373-7.518-7.519C32.971,3.37,36.344,0,40.486,0S48,3.37,48,7.512
		C48,11.658,44.629,15.031,40.486,15.031z M40.486,2c-3.041,0-5.516,2.473-5.518,5.513c0,3.042,2.476,5.519,5.518,5.519
		c3.04,0,5.514-2.476,5.514-5.519C46,4.473,43.526,2,40.486,2z"/>
	<path d="M24.001,48c-4.144,0-7.515-3.371-7.515-7.516s3.371-7.517,7.515-7.517c4.144,0.001,7.515,3.373,7.515,7.517
		C31.516,44.629,28.145,48,24.001,48z M24,34.968c-3.041,0-5.515,2.475-5.515,5.517c0,3.041,2.474,5.516,5.515,5.516
		s5.515-2.475,5.515-5.516S27.042,34.969,24,34.968z"/>
	<g>
		<rect x="4.18" y="22.999" transform="matrix(0.4504 0.8928 -0.8928 0.4504 29.8617 -0.511)" width="22.332" height="2"/>
		<rect x="31.654" y="12.833" transform="matrix(0.8929 0.4503 -0.4503 0.8929 14.3063 -12.1337)" width="1.999" height="22.332"/>
	</g>
</g>
</svg>
