<?xml version="1.0" encoding="utf-8"?>
<!-- Generator: Adobe Illustrator 16.0.0, SVG Export Plug-In . SVG Version: 6.00 Build 0)  -->
<!DOCTYPE svg PUBLIC "-//W3C//DTD SVG 1.1//EN" "http://www.w3.org/Graphics/SVG/1.1/DTD/svg11.dtd">
<svg version="1.1" id="Layer_1" xmlns="http://www.w3.org/2000/svg" xmlns:xlink="http://www.w3.org/1999/xlink" x="0px" y="0px"
	 width="48px" height="48px" viewBox="0 0 48 48" enable-background="new 0 0 48 48" xml:space="preserve">
<g>
	<g>
		<path d="M43.002,48.066H5.881c-1.103,0-2-0.897-2-2v-23.84h2v23.84h37.121v-23.84h2v23.84
			C45.002,47.169,44.104,48.066,43.002,48.066z"/>
	</g>
	<g>
		<path d="M43.998,23.668h-6.936c-2.939,0-5.759-2.355-6.285-5.25l-1.795-9.921l1.969-0.356l1.795,9.92
			c0.354,1.955,2.332,3.607,4.316,3.607h6.936c0.822,0,1.447-0.252,1.715-0.691c0.268-0.44,0.203-1.111-0.176-1.842L39.931,8.343
			l1.775-0.922l5.606,10.792c0.708,1.366,0.748,2.752,0.109,3.803C46.783,23.065,45.535,23.668,43.998,23.668z"/>
		<path d="M28.064,23.667h-6.931c-1.493,0-2.818-0.588-3.731-1.656c-0.913-1.068-1.288-2.469-1.056-3.945l1.559-9.889l1.976,0.312
			l-1.559,9.889c-0.14,0.888,0.073,1.717,0.6,2.333s1.312,0.956,2.211,0.956h6.931c0.896,0,1.669-0.334,2.177-0.942
			c0.507-0.607,0.698-1.428,0.538-2.309l-1.795-9.92l1.969-0.356l1.795,9.92c0.267,1.475-0.078,2.877-0.973,3.947
			C30.882,23.078,29.563,23.667,28.064,23.667z"/>
		<g>
			<path d="M15.134,23.667H2.201c-0.747,0-1.372-0.316-1.714-0.868s-0.347-1.252-0.015-1.921L7.182,7.347l1.792,0.889l-6.66,13.432
				h12.82c0.332,0,0.695-0.31,0.747-0.637l2.049-12.994l1.976,0.312l-2.049,12.994C17.649,22.646,16.454,23.667,15.134,23.667z"/>
		</g>
	</g>
	<g>
		<path d="M39.52,2v4.756H9.275V2H39.52 M40.52,0H8.275c-0.55,0-1,0.45-1,1v6.756c0,0.55,0.45,1,1,1H40.52c0.549,0,1-0.45,1-1V1
			C41.52,0.45,41.068,0,40.52,0L40.52,0z"/>
	</g>
	<g>
		<path d="M30.635,28.568V46H18.243V28.568H30.635 M31.635,26.568H17.243c-0.55,0-1,0.449-1,1V47c0,0.55,0.45,1,1,1h14.392
			c0.551,0,1-0.45,1-1V27.568C32.635,27.02,32.186,26.568,31.635,26.568L31.635,26.568z"/>
	</g>
</g>
</svg>
