<?xml version="1.0" encoding="utf-8"?>
<!-- Generator: Adobe Illustrator 16.0.0, SVG Export Plug-In . SVG Version: 6.00 Build 0)  -->
<!DOCTYPE svg PUBLIC "-//W3C//DTD SVG 1.1//EN" "http://www.w3.org/Graphics/SVG/1.1/DTD/svg11.dtd">
<svg version="1.1" id="Layer_1" xmlns="http://www.w3.org/2000/svg" xmlns:xlink="http://www.w3.org/1999/xlink" x="0px" y="0px"
	 width="48px" height="48px" viewBox="0 0 48 48" enable-background="new 0 0 48 48" xml:space="preserve">
<g>
	<path d="M34.068,34.166v10.357c0,0.734-0.619,1.354-1.354,1.354c-0.348,0-0.684-0.145-0.945-0.406L18.895,32.596H8.57
		c-0.732,0-1.352-0.619-1.352-1.352V16.756c0-0.732,0.619-1.352,1.352-1.352h10.324L31.768,2.529c0.264-0.261,0.6-0.405,0.947-0.405
		c0.734,0,1.354,0.619,1.354,1.353v9.713h2.125V3.477C36.193,1.56,34.633,0,32.715,0c-0.914,0-1.783,0.365-2.447,1.027
		L18.016,13.279H8.57c-1.916,0-3.477,1.561-3.477,3.477v14.488c0,1.916,1.561,3.477,3.477,3.477h9.445l12.252,12.252
		C30.932,47.635,31.801,48,32.715,48c1.918,0,3.479-1.559,3.479-3.477V34.166H34.068z"/>
	<path d="M40.043,28.344c-0.148,0.074-0.316,0.092-0.463,0.092c-0.648,0-1.184-0.516-1.184-1.182c0-1.406,2.146-1.018,2.146-3.254
		s-2.146-1.849-2.146-3.253c0-0.667,0.535-1.184,1.184-1.184c0.146,0,0.314,0.019,0.463,0.093c1.738,0.684,2.863,2.495,2.863,4.344
		C42.906,25.848,41.781,27.643,40.043,28.344z"/>
</g>
</svg>
