<?xml version="1.0" encoding="utf-8"?>
<!-- Generator: Adobe Illustrator 16.0.0, SVG Export Plug-In . SVG Version: 6.00 Build 0)  -->
<!DOCTYPE svg PUBLIC "-//W3C//DTD SVG 1.1//EN" "http://www.w3.org/Graphics/SVG/1.1/DTD/svg11.dtd">
<svg version="1.1" id="Layer_1" xmlns="http://www.w3.org/2000/svg" xmlns:xlink="http://www.w3.org/1999/xlink" x="0px" y="0px"
	 width="48px" height="48px" viewBox="0 0 48 48" enable-background="new 0 0 48 48" xml:space="preserve">
<path d="M13.125,19.276c-3.253,0-5.899-2.613-5.899-5.825c0-3.212,2.646-5.826,5.899-5.826c1.574,0,3.053,0.605,4.167,1.703
	c1.114,1.101,1.729,2.564,1.729,4.123C19.021,16.663,16.375,19.276,13.125,19.276z M13.126,8.962c-2.518,0-4.564,2.014-4.564,4.489
	c0,2.476,2.047,4.488,4.563,4.488c2.515,0,4.56-2.013,4.56-4.488C17.685,10.976,15.64,8.962,13.126,8.962z"/>
<path d="M16.905,34.24H0.486c-0.369,0-0.668-0.297-0.668-0.668c0-7.244,5.969-13.139,13.307-13.139c1.775,0,3.502,0.344,5.134,1.023
	c0.341,0.142,0.502,0.532,0.36,0.874c-0.141,0.341-0.533,0.501-0.873,0.36c-1.468-0.611-3.023-0.92-4.621-0.92
	c-6.373,0-11.599,4.936-11.952,11.133h15.732c0.37,0,0.668,0.3,0.668,0.668C17.574,33.943,17.275,34.24,16.905,34.24z"/>
<path d="M32.142,22.175c-3.877,0-7.032-3.113-7.032-6.942c0-3.826,3.156-6.939,7.032-6.939c3.875,0,7.026,3.113,7.026,6.939
	C39.168,19.062,36.017,22.175,32.142,22.175z M32.142,9.631c-3.141,0-5.694,2.514-5.695,5.603c0,3.091,2.555,5.605,5.695,5.605
	c3.137,0,5.691-2.515,5.691-5.605C37.833,12.145,35.278,9.631,32.142,9.631z"/>
<path d="M47.515,40.374H16.771c-0.369,0-0.668-0.299-0.668-0.668c0-8.728,7.195-15.829,16.039-15.829
	c8.845,0,16.041,7.102,16.041,15.829C48.183,40.075,47.884,40.374,47.515,40.374z M17.455,39.037H46.83
	c-0.355-7.682-6.807-13.823-14.688-13.823C24.261,25.214,17.811,31.355,17.455,39.037z"/>
</svg>
