<?xml version="1.0" encoding="utf-8"?>
<!-- Generator: Adobe Illustrator 16.0.0, SVG Export Plug-In . SVG Version: 6.00 Build 0)  -->
<!DOCTYPE svg PUBLIC "-//W3C//DTD SVG 1.1//EN" "http://www.w3.org/Graphics/SVG/1.1/DTD/svg11.dtd">
<svg version="1.1" id="Layer_1" xmlns="http://www.w3.org/2000/svg" xmlns:xlink="http://www.w3.org/1999/xlink" x="0px" y="0px"
	 width="48px" height="48px" viewBox="0 0 48 48" enable-background="new 0 0 48 48" xml:space="preserve">
<path fill="#737373" d="M24.002,20.771c-5.801,0-10.521-4.66-10.521-10.388C13.482,4.658,18.202,0,24.002,0
	C29.8,0,34.519,4.658,34.519,10.384S29.8,20.771,24.002,20.771z"/>
<path fill="#737373" d="M46.998,48.273H1c-0.552,0-1-0.447-1-1c0-13.06,10.765-23.685,23.997-23.685
	c13.234,0,24.001,10.625,24.001,23.685C47.998,47.826,47.551,48.273,46.998,48.273z"/>
<path fill="#FFFFFF" d="M2.022,46.273h43.954C45.442,34.779,35.789,25.59,23.997,25.59C12.207,25.59,2.556,34.779,2.022,46.273z"/>
<path fill="#FFFFFF" d="M24.002,2c-4.698,0-8.52,3.761-8.521,8.384c0,4.624,3.822,8.388,8.521,8.388
	c4.695,0,8.517-3.764,8.517-8.388C32.519,5.761,28.697,2,24.002,2z"/>
</svg>
