<?xml version="1.0" encoding="utf-8"?>
<!-- Generator: Adobe Illustrator 16.0.0, SVG Export Plug-In . SVG Version: 6.00 Build 0)  -->
<!DOCTYPE svg PUBLIC "-//W3C//DTD SVG 1.1//EN" "http://www.w3.org/Graphics/SVG/1.1/DTD/svg11.dtd">
<svg version="1.1" id="Layer_1" xmlns="http://www.w3.org/2000/svg" xmlns:xlink="http://www.w3.org/1999/xlink" x="0px" y="0px"
	 width="48px" height="48px" viewBox="0 0 48 48" enable-background="new 0 0 48 48" xml:space="preserve">
<g>
	<g>
		<path d="M35.576,45.732H2c-1.103,0-2-0.897-2-2V20.156c0-1.103,0.897-2,2-2h33.576c1.103,0,2,0.897,2,2v23.576
			C37.576,44.835,36.679,45.732,35.576,45.732z M35.576,43.732v1V43.732L35.576,43.732L35.576,43.732z M2,20.156v23.576h33.573
			l0.003-23.576H2z"/>
	</g>
	<path d="M47,43.834c-0.163,0-0.327-0.04-0.476-0.12l-9.389-5.07c-0.485-0.263-0.667-0.869-0.404-1.355
		c0.262-0.484,0.868-0.668,1.355-0.404L46,41.157V22.778l-7.894,4.499c-0.479,0.272-1.091,0.104-1.364-0.374
		c-0.273-0.479-0.105-1.091,0.374-1.364l9.389-5.351c0.31-0.176,0.689-0.175,0.997,0.004C47.811,20.372,48,20.701,48,21.057v21.777
		c0,0.353-0.186,0.679-0.487,0.858C47.354,43.787,47.178,43.834,47,43.834z"/>
	<path d="M28.309,39.203H9.266c-0.552,0-1-0.447-1-1s0.448-1,1-1h19.042c0.553,0,1,0.447,1,1S28.861,39.203,28.309,39.203z"/>
	<path d="M11.995,16.877c-4.027,0-7.304-3.276-7.304-7.304s3.277-7.304,7.304-7.304s7.304,3.277,7.304,7.304
		S16.022,16.877,11.995,16.877z M11.995,4.269c-2.925,0-5.304,2.379-5.304,5.304c0,2.924,2.379,5.304,5.304,5.304
		c2.924,0,5.304-2.379,5.304-5.304C17.299,6.648,14.919,4.269,11.995,4.269z"/>
	<path d="M28.311,15.738c-3.101,0-5.624-2.523-5.624-5.624c0-3.101,2.523-5.624,5.624-5.624c3.102,0,5.625,2.523,5.625,5.624
		C33.936,13.215,31.412,15.738,28.311,15.738z M28.311,6.49c-1.998,0-3.623,1.626-3.623,3.624s1.625,3.624,3.623,3.624
		c1.999,0,3.625-1.625,3.625-3.624S30.31,6.49,28.311,6.49z"/>
</g>
</svg>
