<svg width="25" height="25" viewBox="0 0 25 25" fill="none" xmlns="http://www.w3.org/2000/svg">
<g clip-path="url(#clip0)">
<path fill-rule="evenodd" clip-rule="evenodd" d="M17.2031 5.94507C19.2839 6.42792 20.0799 7.64465 21.0778 9.31934H17.2031V5.94507ZM5.04272 9.45996C5.45013 9.45996 5.74585 9.65662 5.74585 10.1162C5.74585 10.5038 5.43219 10.8182 5.04474 10.8193H0.796875C0.408508 10.8193 0.09375 11.1343 0.09375 11.5225C0.09375 11.9108 0.408508 12.2256 0.796875 12.2256H7.125C7.51703 12.2256 7.83087 12.5402 7.83087 12.9287C7.83087 13.3171 7.51611 13.6318 7.12775 13.6318H0.796875C0.408508 13.6318 0.09375 13.9466 0.09375 14.335C0.09375 14.7233 0.408508 15.0381 0.796875 15.0381H2.34375V17.1475C2.34375 17.5358 2.65851 17.8506 3.04688 17.8506H4.46027C4.71222 19.0917 5.80884 20.0068 7.10156 20.0068C8.39429 20.0068 9.49091 19.0917 9.74286 17.8506H16.8821C17.1341 19.0917 18.2307 20.0068 19.5234 20.0068C20.8162 20.0068 21.9128 19.0917 22.1647 17.8506H23.3906C23.779 17.8506 24.0938 17.5358 24.0938 17.1475V12.9287C24.0938 10.8657 21.9177 10.7287 21.9157 10.7256H16.5C16.1116 10.7256 15.7969 10.4108 15.7969 10.0225V5.80371H3.04688C2.65851 5.80371 2.34375 6.11847 2.34375 6.50684V8.05371H1.5C1.11163 8.05371 0.796875 8.36847 0.796875 8.75684C0.796875 9.1452 1.11163 9.45996 1.5 9.45996H5.04272ZM20.4349 16.4C20.9383 16.9034 20.9383 17.7198 20.4349 18.2232C19.6252 19.0329 18.2344 18.4568 18.2344 17.3115C18.2344 16.1664 19.6252 15.5903 20.4349 16.4ZM8.01306 16.4C8.51642 16.9034 8.51642 17.7198 8.01306 18.2232C7.20337 19.0329 5.8125 18.4568 5.8125 17.3115C5.8125 16.1664 7.20337 15.5903 8.01306 16.4Z" fill="#FF1678"/>
</g>
<defs>
<clipPath id="clip0">
<rect width="24" height="24" fill="white" transform="translate(0.09375 0.928711)"/>
</clipPath>
</defs>
</svg>
